G75*
%MOIN*%
%OFA0B0*%
%FSLAX25Y25*%
%IPPOS*%
%LPD*%
%AMOC8*
5,1,8,0,0,1.08239X$1,22.5*
%
%ADD10C,0.00800*%
%ADD11C,0.00600*%
%ADD12C,0.00500*%
D10*
X0195819Y0049621D02*
X0196605Y0048835D01*
X0198177Y0048835D01*
X0198963Y0049621D01*
X0195819Y0052765D01*
X0195819Y0049621D01*
X0198963Y0049621D02*
X0198963Y0052765D01*
X0198177Y0053551D01*
X0196605Y0053551D01*
X0195819Y0052765D01*
X0200714Y0049621D02*
X0200714Y0048835D01*
X0201500Y0048835D01*
X0201500Y0049621D01*
X0200714Y0049621D01*
X0203432Y0051193D02*
X0206575Y0051193D01*
X0204218Y0053551D01*
X0204218Y0048835D01*
X0213582Y0048835D02*
X0213582Y0051979D01*
X0215154Y0053551D01*
X0216726Y0051979D01*
X0216726Y0048835D01*
X0218657Y0049621D02*
X0219443Y0048835D01*
X0221015Y0048835D01*
X0221801Y0049621D01*
X0221015Y0051193D02*
X0219443Y0051193D01*
X0218657Y0050407D01*
X0218657Y0049621D01*
X0216726Y0051193D02*
X0213582Y0051193D01*
X0218657Y0052765D02*
X0219443Y0053551D01*
X0221015Y0053551D01*
X0221801Y0052765D01*
X0221801Y0051979D01*
X0221015Y0051193D01*
X0223732Y0051193D02*
X0226876Y0051193D01*
X0228808Y0052765D02*
X0229594Y0053551D01*
X0231166Y0053551D01*
X0231951Y0052765D01*
X0231951Y0049621D01*
X0231166Y0048835D01*
X0229594Y0048835D01*
X0228808Y0049621D01*
X0233883Y0048835D02*
X0233883Y0053551D01*
X0237027Y0053551D02*
X0233883Y0048835D01*
X0237027Y0048835D02*
X0237027Y0053551D01*
X0238958Y0051193D02*
X0242102Y0051193D01*
X0244033Y0052765D02*
X0244033Y0053551D01*
X0244033Y0052765D02*
X0245605Y0051193D01*
X0245605Y0048835D01*
X0245605Y0051193D02*
X0247177Y0052765D01*
X0247177Y0053551D01*
X0249108Y0052765D02*
X0249108Y0051979D01*
X0249894Y0051193D01*
X0252252Y0051193D01*
X0249894Y0051193D02*
X0249108Y0050407D01*
X0249108Y0049621D01*
X0249894Y0048835D01*
X0252252Y0048835D01*
X0252252Y0053551D01*
X0249894Y0053551D01*
X0249108Y0052765D01*
X0248929Y0057103D02*
X0248929Y0060247D01*
X0249715Y0060247D01*
X0248929Y0061819D02*
X0248929Y0062605D01*
X0248929Y0065370D02*
X0249715Y0065370D01*
X0249715Y0066156D01*
X0248929Y0066156D01*
X0248929Y0065370D01*
X0247177Y0065370D02*
X0244033Y0068514D01*
X0244033Y0069300D01*
X0244819Y0070086D01*
X0246391Y0070086D01*
X0247177Y0069300D01*
X0247177Y0065370D02*
X0244033Y0065370D01*
X0242102Y0066156D02*
X0242102Y0069300D01*
X0241316Y0070086D01*
X0239744Y0070086D01*
X0238958Y0069300D01*
X0242102Y0066156D01*
X0241316Y0065370D01*
X0239744Y0065370D01*
X0238958Y0066156D01*
X0238958Y0069300D01*
X0237027Y0069300D02*
X0236241Y0070086D01*
X0234669Y0070086D01*
X0233883Y0069300D01*
X0233883Y0068514D01*
X0237027Y0065370D01*
X0233883Y0065370D01*
X0231951Y0066156D02*
X0231166Y0065370D01*
X0229594Y0065370D01*
X0228808Y0066156D01*
X0228808Y0066942D01*
X0229594Y0067728D01*
X0230380Y0067728D01*
X0229594Y0067728D02*
X0228808Y0068514D01*
X0228808Y0069300D01*
X0229594Y0070086D01*
X0231166Y0070086D01*
X0231951Y0069300D01*
X0234669Y0073638D02*
X0233883Y0074424D01*
X0233883Y0078354D01*
X0237027Y0078354D02*
X0237027Y0074424D01*
X0236241Y0073638D01*
X0234669Y0073638D01*
X0240530Y0073638D02*
X0240530Y0078354D01*
X0242102Y0078354D02*
X0238958Y0078354D01*
X0244033Y0077568D02*
X0244033Y0074424D01*
X0244819Y0073638D01*
X0247177Y0073638D01*
X0247177Y0078354D01*
X0244819Y0078354D01*
X0244033Y0077568D01*
X0249108Y0075996D02*
X0249108Y0073638D01*
X0249108Y0075996D02*
X0249894Y0076782D01*
X0252252Y0076782D01*
X0252252Y0073638D01*
X0254184Y0075210D02*
X0257327Y0075210D01*
X0257327Y0074424D02*
X0257327Y0075996D01*
X0256541Y0076782D01*
X0254970Y0076782D01*
X0254184Y0075996D01*
X0254184Y0075210D01*
X0254970Y0073638D02*
X0256541Y0073638D01*
X0257327Y0074424D01*
X0259259Y0074424D02*
X0260045Y0073638D01*
X0262403Y0073638D01*
X0262403Y0072066D02*
X0262403Y0076782D01*
X0260045Y0076782D01*
X0259259Y0075996D01*
X0259259Y0074424D01*
X0264334Y0074424D02*
X0264334Y0077568D01*
X0265120Y0078354D01*
X0266692Y0078354D01*
X0267478Y0077568D01*
X0267478Y0074424D01*
X0266692Y0073638D01*
X0265120Y0073638D01*
X0264334Y0074424D01*
X0265120Y0070086D02*
X0264334Y0069300D01*
X0264334Y0068514D01*
X0265120Y0067728D01*
X0264334Y0066942D01*
X0264334Y0066156D01*
X0265120Y0065370D01*
X0266692Y0065370D01*
X0267478Y0066156D01*
X0265906Y0067728D02*
X0265120Y0067728D01*
X0265120Y0070086D02*
X0266692Y0070086D01*
X0267478Y0069300D01*
X0262403Y0069300D02*
X0262403Y0066156D01*
X0259259Y0069300D01*
X0259259Y0066156D01*
X0260045Y0065370D01*
X0261617Y0065370D01*
X0262403Y0066156D01*
X0262403Y0069300D02*
X0261617Y0070086D01*
X0260045Y0070086D01*
X0259259Y0069300D01*
X0257327Y0066156D02*
X0256541Y0066156D01*
X0256541Y0065370D01*
X0257327Y0065370D01*
X0257327Y0066156D01*
X0254790Y0066156D02*
X0254790Y0065370D01*
X0254790Y0066156D02*
X0251646Y0069300D01*
X0251646Y0070086D01*
X0254790Y0070086D01*
X0253944Y0060247D02*
X0253944Y0057103D01*
X0253944Y0058675D02*
X0252372Y0060247D01*
X0251586Y0060247D01*
X0249715Y0057103D02*
X0248143Y0057103D01*
X0246331Y0057889D02*
X0245545Y0058675D01*
X0243187Y0058675D01*
X0243187Y0059461D02*
X0243187Y0057103D01*
X0245545Y0057103D01*
X0246331Y0057889D01*
X0245545Y0060247D02*
X0243973Y0060247D01*
X0243187Y0059461D01*
X0241256Y0060247D02*
X0241256Y0057103D01*
X0241256Y0060247D02*
X0238898Y0060247D01*
X0238112Y0059461D01*
X0238112Y0057103D01*
X0231106Y0057889D02*
X0230320Y0057103D01*
X0228748Y0057103D01*
X0227962Y0057889D01*
X0227962Y0058675D01*
X0228748Y0059461D01*
X0230320Y0059461D01*
X0231106Y0060247D01*
X0231106Y0061033D01*
X0230320Y0061819D01*
X0228748Y0061819D01*
X0227962Y0061033D01*
X0226030Y0059461D02*
X0226030Y0057889D01*
X0225244Y0057103D01*
X0222887Y0057103D01*
X0220955Y0057103D02*
X0220955Y0061819D01*
X0220169Y0060247D02*
X0218597Y0060247D01*
X0217811Y0059461D01*
X0217811Y0057103D01*
X0215880Y0057889D02*
X0215094Y0057103D01*
X0213522Y0057103D01*
X0212736Y0057889D01*
X0212736Y0059461D01*
X0213522Y0060247D01*
X0215094Y0060247D01*
X0215880Y0059461D01*
X0215880Y0057889D01*
X0220169Y0060247D02*
X0220955Y0059461D01*
X0222887Y0060247D02*
X0225244Y0060247D01*
X0226030Y0059461D01*
X0220229Y0065370D02*
X0218657Y0066942D01*
X0218657Y0070086D01*
X0216726Y0068514D02*
X0215154Y0070086D01*
X0215154Y0065370D01*
X0216726Y0065370D02*
X0213582Y0065370D01*
X0211651Y0065370D02*
X0210865Y0065370D01*
X0210865Y0066156D01*
X0211651Y0066156D01*
X0211651Y0065370D01*
X0209113Y0065370D02*
X0205969Y0065370D01*
X0207541Y0065370D02*
X0207541Y0070086D01*
X0209113Y0068514D01*
X0208447Y0060247D02*
X0210019Y0060247D01*
X0210805Y0059461D01*
X0210805Y0057889D01*
X0210019Y0057103D01*
X0208447Y0057103D01*
X0207661Y0057889D01*
X0207661Y0059461D01*
X0208447Y0060247D01*
X0205730Y0060247D02*
X0203372Y0060247D01*
X0202586Y0059461D01*
X0202586Y0057889D01*
X0203372Y0057103D01*
X0205730Y0057103D01*
X0205730Y0055531D02*
X0205730Y0060247D01*
X0220229Y0065370D02*
X0221801Y0066942D01*
X0221801Y0070086D01*
X0223732Y0073638D02*
X0226876Y0073638D01*
X0223732Y0076782D01*
X0223732Y0077568D01*
X0224518Y0078354D01*
X0226090Y0078354D01*
X0226876Y0077568D01*
X0255875Y0059461D02*
X0256661Y0060247D01*
X0258233Y0060247D01*
X0259019Y0059461D01*
X0259019Y0057889D01*
X0258233Y0057103D01*
X0256661Y0057103D01*
X0255875Y0057889D01*
X0255875Y0059461D01*
X0260831Y0057103D02*
X0262403Y0057103D01*
X0261617Y0057103D02*
X0261617Y0061819D01*
X0262403Y0061819D01*
X0264334Y0061819D02*
X0267478Y0061819D01*
X0267478Y0057103D01*
X0267478Y0059461D02*
X0265906Y0059461D01*
X0266692Y0053551D02*
X0267478Y0052765D01*
X0267478Y0049621D01*
X0266692Y0048835D01*
X0265120Y0048835D01*
X0264334Y0049621D01*
X0262403Y0049621D02*
X0261617Y0048835D01*
X0260045Y0048835D01*
X0259259Y0049621D01*
X0262403Y0049621D02*
X0262403Y0052765D01*
X0261617Y0053551D01*
X0260045Y0053551D01*
X0259259Y0052765D01*
X0264334Y0052765D02*
X0265120Y0053551D01*
X0266692Y0053551D01*
X0248101Y0161650D02*
X0247315Y0161650D01*
X0246529Y0162436D01*
X0246529Y0166366D01*
X0245744Y0166366D02*
X0247315Y0166366D01*
X0247315Y0169918D02*
X0246529Y0170704D01*
X0246529Y0174634D01*
X0245744Y0174634D02*
X0247315Y0174634D01*
X0243812Y0173062D02*
X0242240Y0174634D01*
X0242240Y0169918D01*
X0243812Y0169918D02*
X0240668Y0169918D01*
X0241454Y0166366D02*
X0243026Y0166366D01*
X0243812Y0165580D01*
X0241454Y0166366D02*
X0240668Y0165580D01*
X0240668Y0164794D01*
X0243812Y0161650D01*
X0240668Y0161650D01*
X0248101Y0161650D02*
X0248887Y0162436D01*
X0248101Y0169918D02*
X0247315Y0169918D01*
X0248101Y0169918D02*
X0248887Y0170704D01*
X0223511Y0169918D02*
X0220368Y0173062D01*
X0220368Y0173848D01*
X0221154Y0174634D01*
X0222725Y0174634D01*
X0223511Y0173848D01*
X0223511Y0169918D02*
X0220368Y0169918D01*
X0218436Y0172276D02*
X0215292Y0172276D01*
X0213361Y0173848D02*
X0212575Y0174634D01*
X0211003Y0174634D01*
X0210217Y0173848D01*
X0210217Y0173062D01*
X0211003Y0172276D01*
X0210217Y0171490D01*
X0210217Y0170704D01*
X0211003Y0169918D01*
X0212575Y0169918D01*
X0213361Y0170704D01*
X0211789Y0172276D02*
X0211003Y0172276D01*
X0211003Y0166366D02*
X0210217Y0165580D01*
X0210217Y0164794D01*
X0211003Y0164008D01*
X0210217Y0163222D01*
X0210217Y0162436D01*
X0211003Y0161650D01*
X0212575Y0161650D01*
X0213361Y0162436D01*
X0211789Y0164008D02*
X0211003Y0164008D01*
X0211003Y0166366D02*
X0212575Y0166366D01*
X0213361Y0165580D01*
X0215292Y0164008D02*
X0218436Y0164008D01*
X0220368Y0164794D02*
X0220368Y0165580D01*
X0221154Y0166366D01*
X0222725Y0166366D01*
X0223511Y0165580D01*
X0220368Y0164794D02*
X0223511Y0161650D01*
X0220368Y0161650D01*
X0198135Y0161650D02*
X0194992Y0164794D01*
X0194992Y0165580D01*
X0195778Y0166366D01*
X0197349Y0166366D01*
X0198135Y0165580D01*
X0198135Y0161650D02*
X0194992Y0161650D01*
X0187985Y0164008D02*
X0184841Y0164008D01*
X0186413Y0165580D02*
X0186413Y0162436D01*
X0194992Y0169918D02*
X0198135Y0169918D01*
X0196563Y0169918D02*
X0196563Y0174634D01*
X0198135Y0173062D01*
X0187985Y0172276D02*
X0184841Y0172276D01*
X0189916Y0186453D02*
X0193060Y0186453D01*
X0189916Y0189597D01*
X0189916Y0190383D01*
X0190702Y0191169D01*
X0192274Y0191169D01*
X0193060Y0190383D01*
X0193060Y0194721D02*
X0189916Y0194721D01*
X0191488Y0194721D02*
X0191488Y0199437D01*
X0193060Y0197865D01*
X0182910Y0197079D02*
X0179766Y0197079D01*
X0181338Y0198651D02*
X0181338Y0195507D01*
X0182910Y0188811D02*
X0179766Y0188811D01*
X0210217Y0189597D02*
X0210217Y0190383D01*
X0211003Y0191169D01*
X0212575Y0191169D01*
X0213361Y0190383D01*
X0215292Y0188811D02*
X0218436Y0188811D01*
X0220368Y0186453D02*
X0223511Y0186453D01*
X0221939Y0186453D02*
X0221939Y0191169D01*
X0223511Y0189597D01*
X0223511Y0194721D02*
X0220368Y0194721D01*
X0221939Y0194721D02*
X0221939Y0199437D01*
X0223511Y0197865D01*
X0218436Y0197079D02*
X0215292Y0197079D01*
X0213361Y0198651D02*
X0212575Y0199437D01*
X0211003Y0199437D01*
X0210217Y0198651D01*
X0210217Y0197865D01*
X0213361Y0194721D01*
X0210217Y0194721D01*
X0210217Y0189597D02*
X0213361Y0186453D01*
X0210217Y0186453D01*
X0240668Y0186453D02*
X0243812Y0186453D01*
X0240668Y0189597D01*
X0240668Y0190383D01*
X0241454Y0191169D01*
X0243026Y0191169D01*
X0243812Y0190383D01*
X0245744Y0191169D02*
X0247315Y0191169D01*
X0246529Y0191169D02*
X0246529Y0187239D01*
X0247315Y0186453D01*
X0248101Y0186453D01*
X0248887Y0187239D01*
X0248101Y0194721D02*
X0247315Y0194721D01*
X0246529Y0195507D01*
X0246529Y0199437D01*
X0245744Y0199437D02*
X0247315Y0199437D01*
X0243812Y0197865D02*
X0242240Y0199437D01*
X0242240Y0194721D01*
X0243812Y0194721D02*
X0240668Y0194721D01*
X0248101Y0194721D02*
X0248887Y0195507D01*
D11*
X0255787Y0212250D02*
X0272787Y0212250D01*
X0272847Y0212252D01*
X0272908Y0212257D01*
X0272967Y0212266D01*
X0273026Y0212279D01*
X0273085Y0212295D01*
X0273142Y0212315D01*
X0273197Y0212338D01*
X0273252Y0212365D01*
X0273304Y0212394D01*
X0273355Y0212427D01*
X0273404Y0212463D01*
X0273450Y0212501D01*
X0273494Y0212543D01*
X0273536Y0212587D01*
X0273574Y0212633D01*
X0273610Y0212682D01*
X0273643Y0212733D01*
X0273672Y0212785D01*
X0273699Y0212840D01*
X0273722Y0212895D01*
X0273742Y0212952D01*
X0273758Y0213011D01*
X0273771Y0213070D01*
X0273780Y0213129D01*
X0273785Y0213190D01*
X0273787Y0213250D01*
X0273787Y0219250D01*
X0273785Y0219310D01*
X0273780Y0219371D01*
X0273771Y0219430D01*
X0273758Y0219489D01*
X0273742Y0219548D01*
X0273722Y0219605D01*
X0273699Y0219660D01*
X0273672Y0219715D01*
X0273643Y0219767D01*
X0273610Y0219818D01*
X0273574Y0219867D01*
X0273536Y0219913D01*
X0273494Y0219957D01*
X0273450Y0219999D01*
X0273404Y0220037D01*
X0273355Y0220073D01*
X0273304Y0220106D01*
X0273252Y0220135D01*
X0273197Y0220162D01*
X0273142Y0220185D01*
X0273085Y0220205D01*
X0273026Y0220221D01*
X0272967Y0220234D01*
X0272908Y0220243D01*
X0272847Y0220248D01*
X0272787Y0220250D01*
X0255787Y0220250D01*
X0255727Y0220248D01*
X0255666Y0220243D01*
X0255607Y0220234D01*
X0255548Y0220221D01*
X0255489Y0220205D01*
X0255432Y0220185D01*
X0255377Y0220162D01*
X0255322Y0220135D01*
X0255270Y0220106D01*
X0255219Y0220073D01*
X0255170Y0220037D01*
X0255124Y0219999D01*
X0255080Y0219957D01*
X0255038Y0219913D01*
X0255000Y0219867D01*
X0254964Y0219818D01*
X0254931Y0219767D01*
X0254902Y0219715D01*
X0254875Y0219660D01*
X0254852Y0219605D01*
X0254832Y0219548D01*
X0254816Y0219489D01*
X0254803Y0219430D01*
X0254794Y0219371D01*
X0254789Y0219310D01*
X0254787Y0219250D01*
X0254787Y0213250D01*
X0254789Y0213190D01*
X0254794Y0213129D01*
X0254803Y0213070D01*
X0254816Y0213011D01*
X0254832Y0212952D01*
X0254852Y0212895D01*
X0254875Y0212840D01*
X0254902Y0212785D01*
X0254931Y0212733D01*
X0254964Y0212682D01*
X0255000Y0212633D01*
X0255038Y0212587D01*
X0255080Y0212543D01*
X0255124Y0212501D01*
X0255170Y0212463D01*
X0255219Y0212427D01*
X0255270Y0212394D01*
X0255322Y0212365D01*
X0255377Y0212338D01*
X0255432Y0212315D01*
X0255489Y0212295D01*
X0255548Y0212279D01*
X0255607Y0212266D01*
X0255666Y0212257D01*
X0255727Y0212252D01*
X0255787Y0212250D01*
X0206287Y0213250D02*
X0206287Y0219250D01*
X0206285Y0219310D01*
X0206280Y0219371D01*
X0206271Y0219430D01*
X0206258Y0219489D01*
X0206242Y0219548D01*
X0206222Y0219605D01*
X0206199Y0219660D01*
X0206172Y0219715D01*
X0206143Y0219767D01*
X0206110Y0219818D01*
X0206074Y0219867D01*
X0206036Y0219913D01*
X0205994Y0219957D01*
X0205950Y0219999D01*
X0205904Y0220037D01*
X0205855Y0220073D01*
X0205804Y0220106D01*
X0205752Y0220135D01*
X0205697Y0220162D01*
X0205642Y0220185D01*
X0205585Y0220205D01*
X0205526Y0220221D01*
X0205467Y0220234D01*
X0205408Y0220243D01*
X0205347Y0220248D01*
X0205287Y0220250D01*
X0188287Y0220250D01*
X0188227Y0220248D01*
X0188166Y0220243D01*
X0188107Y0220234D01*
X0188048Y0220221D01*
X0187989Y0220205D01*
X0187932Y0220185D01*
X0187877Y0220162D01*
X0187822Y0220135D01*
X0187770Y0220106D01*
X0187719Y0220073D01*
X0187670Y0220037D01*
X0187624Y0219999D01*
X0187580Y0219957D01*
X0187538Y0219913D01*
X0187500Y0219867D01*
X0187464Y0219818D01*
X0187431Y0219767D01*
X0187402Y0219715D01*
X0187375Y0219660D01*
X0187352Y0219605D01*
X0187332Y0219548D01*
X0187316Y0219489D01*
X0187303Y0219430D01*
X0187294Y0219371D01*
X0187289Y0219310D01*
X0187287Y0219250D01*
X0187287Y0213250D01*
X0187289Y0213190D01*
X0187294Y0213129D01*
X0187303Y0213070D01*
X0187316Y0213011D01*
X0187332Y0212952D01*
X0187352Y0212895D01*
X0187375Y0212840D01*
X0187402Y0212785D01*
X0187431Y0212733D01*
X0187464Y0212682D01*
X0187500Y0212633D01*
X0187538Y0212587D01*
X0187580Y0212543D01*
X0187624Y0212501D01*
X0187670Y0212463D01*
X0187719Y0212427D01*
X0187770Y0212394D01*
X0187822Y0212365D01*
X0187877Y0212338D01*
X0187932Y0212315D01*
X0187989Y0212295D01*
X0188048Y0212279D01*
X0188107Y0212266D01*
X0188166Y0212257D01*
X0188227Y0212252D01*
X0188287Y0212250D01*
X0205287Y0212250D01*
X0205347Y0212252D01*
X0205408Y0212257D01*
X0205467Y0212266D01*
X0205526Y0212279D01*
X0205585Y0212295D01*
X0205642Y0212315D01*
X0205697Y0212338D01*
X0205752Y0212365D01*
X0205804Y0212394D01*
X0205855Y0212427D01*
X0205904Y0212463D01*
X0205950Y0212501D01*
X0205994Y0212543D01*
X0206036Y0212587D01*
X0206074Y0212633D01*
X0206110Y0212682D01*
X0206143Y0212733D01*
X0206172Y0212785D01*
X0206199Y0212840D01*
X0206222Y0212895D01*
X0206242Y0212952D01*
X0206258Y0213011D01*
X0206271Y0213070D01*
X0206280Y0213129D01*
X0206285Y0213190D01*
X0206287Y0213250D01*
D12*
X0205287Y0221500D02*
X0204536Y0221500D01*
X0203785Y0222251D01*
X0203785Y0226004D01*
X0203035Y0226004D02*
X0204536Y0226004D01*
X0201433Y0224503D02*
X0199932Y0226004D01*
X0199932Y0221500D01*
X0201433Y0221500D02*
X0198431Y0221500D01*
X0205287Y0221500D02*
X0206037Y0222251D01*
X0265931Y0221500D02*
X0268933Y0221500D01*
X0265931Y0224503D01*
X0265931Y0225253D01*
X0266682Y0226004D01*
X0268183Y0226004D01*
X0268933Y0225253D01*
X0270535Y0226004D02*
X0272036Y0226004D01*
X0271285Y0226004D02*
X0271285Y0222251D01*
X0272036Y0221500D01*
X0272787Y0221500D01*
X0273537Y0222251D01*
M02*
