G75*
%MOIN*%
%OFA0B0*%
%FSLAX25Y25*%
%IPPOS*%
%LPD*%
%AMOC8*
5,1,8,0,0,1.08239X$1,22.5*
%
%ADD10C,0.00000*%
D10*
X0031787Y0071250D02*
X0032739Y0071330D01*
X0033693Y0071387D01*
X0034648Y0071421D01*
X0035603Y0071431D01*
X0036559Y0071418D01*
X0037513Y0071381D01*
X0038467Y0071321D01*
X0039419Y0071237D01*
X0040368Y0071130D01*
X0041315Y0071000D01*
X0042258Y0070846D01*
X0043197Y0070670D01*
X0044131Y0070470D01*
X0045061Y0070248D01*
X0045984Y0070003D01*
X0046901Y0069735D01*
X0047812Y0069445D01*
X0048715Y0069133D01*
X0049610Y0068798D01*
X0050496Y0068442D01*
X0051374Y0068064D01*
X0052242Y0067665D01*
X0053100Y0067244D01*
X0053947Y0066803D01*
X0054784Y0066341D01*
X0055608Y0065858D01*
X0056421Y0065356D01*
X0057221Y0064833D01*
X0058008Y0064291D01*
X0058781Y0063730D01*
X0059541Y0063150D01*
X0060286Y0062552D01*
X0061016Y0061936D01*
X0061730Y0061301D01*
X0062429Y0060650D01*
X0063112Y0059982D01*
X0063778Y0059297D01*
X0064427Y0058595D01*
X0065059Y0057878D01*
X0065673Y0057146D01*
X0066269Y0056399D01*
X0066846Y0055638D01*
X0067404Y0054863D01*
X0067944Y0054074D01*
X0068463Y0053272D01*
X0068963Y0052458D01*
X0069443Y0051631D01*
X0069902Y0050794D01*
X0070341Y0049945D01*
X0070758Y0049085D01*
X0071155Y0048216D01*
X0071530Y0047337D01*
X0071883Y0046449D01*
X0072215Y0045553D01*
X0072524Y0044649D01*
X0072811Y0043738D01*
X0073075Y0042820D01*
X0073317Y0041895D01*
X0073537Y0040965D01*
X0073733Y0040030D01*
X0073906Y0039090D01*
X0074056Y0038147D01*
X0074183Y0037200D01*
X0074287Y0036250D01*
X0074287Y0033750D01*
X0374287Y0033750D01*
X0374287Y0036250D01*
X0374297Y0037096D01*
X0374328Y0037941D01*
X0374379Y0038785D01*
X0374450Y0039628D01*
X0374542Y0040469D01*
X0374654Y0041307D01*
X0374787Y0042142D01*
X0374939Y0042974D01*
X0375112Y0043802D01*
X0375304Y0044626D01*
X0375516Y0045445D01*
X0375748Y0046258D01*
X0376000Y0047066D01*
X0376271Y0047867D01*
X0376561Y0048661D01*
X0376871Y0049448D01*
X0377199Y0050228D01*
X0377546Y0050999D01*
X0377912Y0051762D01*
X0378296Y0052515D01*
X0378698Y0053259D01*
X0379118Y0053994D01*
X0379556Y0054717D01*
X0380011Y0055430D01*
X0380483Y0056132D01*
X0380971Y0056822D01*
X0381477Y0057501D01*
X0381998Y0058166D01*
X0382536Y0058819D01*
X0383089Y0059459D01*
X0383658Y0060086D01*
X0384241Y0060698D01*
X0384839Y0061296D01*
X0385451Y0061879D01*
X0386078Y0062448D01*
X0386718Y0063001D01*
X0387371Y0063539D01*
X0388036Y0064060D01*
X0388715Y0064566D01*
X0389405Y0065054D01*
X0390107Y0065526D01*
X0390820Y0065981D01*
X0391543Y0066419D01*
X0392278Y0066839D01*
X0393022Y0067241D01*
X0393775Y0067625D01*
X0394538Y0067991D01*
X0395309Y0068338D01*
X0396089Y0068666D01*
X0396876Y0068976D01*
X0397670Y0069266D01*
X0398471Y0069537D01*
X0399279Y0069789D01*
X0400092Y0070021D01*
X0400911Y0070233D01*
X0401735Y0070425D01*
X0402563Y0070598D01*
X0403395Y0070750D01*
X0404230Y0070883D01*
X0405068Y0070995D01*
X0405909Y0071087D01*
X0406752Y0071158D01*
X0407596Y0071209D01*
X0408441Y0071240D01*
X0409287Y0071250D01*
X0411787Y0071250D01*
X0411787Y0208750D01*
X0384287Y0208750D01*
X0387791Y0196250D02*
X0387793Y0196411D01*
X0387799Y0196571D01*
X0387809Y0196732D01*
X0387823Y0196892D01*
X0387841Y0197051D01*
X0387862Y0197211D01*
X0387888Y0197369D01*
X0387918Y0197527D01*
X0387951Y0197684D01*
X0387989Y0197841D01*
X0388030Y0197996D01*
X0388075Y0198150D01*
X0388124Y0198303D01*
X0388177Y0198455D01*
X0388233Y0198605D01*
X0388293Y0198754D01*
X0388357Y0198902D01*
X0388424Y0199048D01*
X0388495Y0199192D01*
X0388570Y0199334D01*
X0388648Y0199475D01*
X0388729Y0199613D01*
X0388814Y0199750D01*
X0388903Y0199884D01*
X0388994Y0200016D01*
X0389089Y0200146D01*
X0389187Y0200273D01*
X0389288Y0200398D01*
X0389392Y0200521D01*
X0389499Y0200640D01*
X0389609Y0200757D01*
X0389722Y0200872D01*
X0389838Y0200983D01*
X0389956Y0201092D01*
X0390077Y0201197D01*
X0390201Y0201300D01*
X0390327Y0201400D01*
X0390456Y0201496D01*
X0390587Y0201589D01*
X0390720Y0201679D01*
X0390855Y0201766D01*
X0390993Y0201849D01*
X0391132Y0201928D01*
X0391274Y0202005D01*
X0391417Y0202078D01*
X0391562Y0202147D01*
X0391709Y0202212D01*
X0391857Y0202274D01*
X0392007Y0202333D01*
X0392158Y0202387D01*
X0392310Y0202438D01*
X0392464Y0202485D01*
X0392619Y0202528D01*
X0392774Y0202567D01*
X0392931Y0202603D01*
X0393089Y0202635D01*
X0393247Y0202662D01*
X0393406Y0202686D01*
X0393565Y0202706D01*
X0393725Y0202722D01*
X0393886Y0202734D01*
X0394046Y0202742D01*
X0394207Y0202746D01*
X0394367Y0202746D01*
X0394528Y0202742D01*
X0394688Y0202734D01*
X0394849Y0202722D01*
X0395009Y0202706D01*
X0395168Y0202686D01*
X0395327Y0202662D01*
X0395485Y0202635D01*
X0395643Y0202603D01*
X0395800Y0202567D01*
X0395955Y0202528D01*
X0396110Y0202485D01*
X0396264Y0202438D01*
X0396416Y0202387D01*
X0396567Y0202333D01*
X0396717Y0202274D01*
X0396865Y0202212D01*
X0397012Y0202147D01*
X0397157Y0202078D01*
X0397300Y0202005D01*
X0397442Y0201928D01*
X0397581Y0201849D01*
X0397719Y0201766D01*
X0397854Y0201679D01*
X0397987Y0201589D01*
X0398118Y0201496D01*
X0398247Y0201400D01*
X0398373Y0201300D01*
X0398497Y0201197D01*
X0398618Y0201092D01*
X0398736Y0200983D01*
X0398852Y0200872D01*
X0398965Y0200757D01*
X0399075Y0200640D01*
X0399182Y0200521D01*
X0399286Y0200398D01*
X0399387Y0200273D01*
X0399485Y0200146D01*
X0399580Y0200016D01*
X0399671Y0199884D01*
X0399760Y0199750D01*
X0399845Y0199613D01*
X0399926Y0199475D01*
X0400004Y0199334D01*
X0400079Y0199192D01*
X0400150Y0199048D01*
X0400217Y0198902D01*
X0400281Y0198754D01*
X0400341Y0198605D01*
X0400397Y0198455D01*
X0400450Y0198303D01*
X0400499Y0198150D01*
X0400544Y0197996D01*
X0400585Y0197841D01*
X0400623Y0197684D01*
X0400656Y0197527D01*
X0400686Y0197369D01*
X0400712Y0197211D01*
X0400733Y0197051D01*
X0400751Y0196892D01*
X0400765Y0196732D01*
X0400775Y0196571D01*
X0400781Y0196411D01*
X0400783Y0196250D01*
X0400781Y0196089D01*
X0400775Y0195929D01*
X0400765Y0195768D01*
X0400751Y0195608D01*
X0400733Y0195449D01*
X0400712Y0195289D01*
X0400686Y0195131D01*
X0400656Y0194973D01*
X0400623Y0194816D01*
X0400585Y0194659D01*
X0400544Y0194504D01*
X0400499Y0194350D01*
X0400450Y0194197D01*
X0400397Y0194045D01*
X0400341Y0193895D01*
X0400281Y0193746D01*
X0400217Y0193598D01*
X0400150Y0193452D01*
X0400079Y0193308D01*
X0400004Y0193166D01*
X0399926Y0193025D01*
X0399845Y0192887D01*
X0399760Y0192750D01*
X0399671Y0192616D01*
X0399580Y0192484D01*
X0399485Y0192354D01*
X0399387Y0192227D01*
X0399286Y0192102D01*
X0399182Y0191979D01*
X0399075Y0191860D01*
X0398965Y0191743D01*
X0398852Y0191628D01*
X0398736Y0191517D01*
X0398618Y0191408D01*
X0398497Y0191303D01*
X0398373Y0191200D01*
X0398247Y0191100D01*
X0398118Y0191004D01*
X0397987Y0190911D01*
X0397854Y0190821D01*
X0397719Y0190734D01*
X0397581Y0190651D01*
X0397442Y0190572D01*
X0397300Y0190495D01*
X0397157Y0190422D01*
X0397012Y0190353D01*
X0396865Y0190288D01*
X0396717Y0190226D01*
X0396567Y0190167D01*
X0396416Y0190113D01*
X0396264Y0190062D01*
X0396110Y0190015D01*
X0395955Y0189972D01*
X0395800Y0189933D01*
X0395643Y0189897D01*
X0395485Y0189865D01*
X0395327Y0189838D01*
X0395168Y0189814D01*
X0395009Y0189794D01*
X0394849Y0189778D01*
X0394688Y0189766D01*
X0394528Y0189758D01*
X0394367Y0189754D01*
X0394207Y0189754D01*
X0394046Y0189758D01*
X0393886Y0189766D01*
X0393725Y0189778D01*
X0393565Y0189794D01*
X0393406Y0189814D01*
X0393247Y0189838D01*
X0393089Y0189865D01*
X0392931Y0189897D01*
X0392774Y0189933D01*
X0392619Y0189972D01*
X0392464Y0190015D01*
X0392310Y0190062D01*
X0392158Y0190113D01*
X0392007Y0190167D01*
X0391857Y0190226D01*
X0391709Y0190288D01*
X0391562Y0190353D01*
X0391417Y0190422D01*
X0391274Y0190495D01*
X0391132Y0190572D01*
X0390993Y0190651D01*
X0390855Y0190734D01*
X0390720Y0190821D01*
X0390587Y0190911D01*
X0390456Y0191004D01*
X0390327Y0191100D01*
X0390201Y0191200D01*
X0390077Y0191303D01*
X0389956Y0191408D01*
X0389838Y0191517D01*
X0389722Y0191628D01*
X0389609Y0191743D01*
X0389499Y0191860D01*
X0389392Y0191979D01*
X0389288Y0192102D01*
X0389187Y0192227D01*
X0389089Y0192354D01*
X0388994Y0192484D01*
X0388903Y0192616D01*
X0388814Y0192750D01*
X0388729Y0192887D01*
X0388648Y0193025D01*
X0388570Y0193166D01*
X0388495Y0193308D01*
X0388424Y0193452D01*
X0388357Y0193598D01*
X0388293Y0193746D01*
X0388233Y0193895D01*
X0388177Y0194045D01*
X0388124Y0194197D01*
X0388075Y0194350D01*
X0388030Y0194504D01*
X0387989Y0194659D01*
X0387951Y0194816D01*
X0387918Y0194973D01*
X0387888Y0195131D01*
X0387862Y0195289D01*
X0387841Y0195449D01*
X0387823Y0195608D01*
X0387809Y0195768D01*
X0387799Y0195929D01*
X0387793Y0196089D01*
X0387791Y0196250D01*
X0384287Y0208750D02*
X0383289Y0208672D01*
X0382290Y0208617D01*
X0381289Y0208587D01*
X0380288Y0208581D01*
X0379288Y0208599D01*
X0378287Y0208641D01*
X0377289Y0208708D01*
X0376292Y0208798D01*
X0375298Y0208913D01*
X0374306Y0209051D01*
X0373319Y0209214D01*
X0372335Y0209400D01*
X0371357Y0209610D01*
X0370383Y0209844D01*
X0369416Y0210101D01*
X0368455Y0210381D01*
X0367501Y0210685D01*
X0366555Y0211011D01*
X0365617Y0211361D01*
X0364688Y0211732D01*
X0363768Y0212126D01*
X0362857Y0212543D01*
X0361957Y0212981D01*
X0361068Y0213441D01*
X0360191Y0213922D01*
X0359325Y0214424D01*
X0358471Y0214947D01*
X0357631Y0215490D01*
X0356804Y0216054D01*
X0355990Y0216637D01*
X0355191Y0217240D01*
X0354407Y0217862D01*
X0353638Y0218503D01*
X0352885Y0219162D01*
X0352148Y0219839D01*
X0351427Y0220534D01*
X0350724Y0221246D01*
X0350038Y0221975D01*
X0349369Y0222720D01*
X0348719Y0223481D01*
X0348088Y0224258D01*
X0347475Y0225049D01*
X0346882Y0225856D01*
X0346308Y0226676D01*
X0345755Y0227510D01*
X0345221Y0228357D01*
X0344709Y0229216D01*
X0344217Y0230088D01*
X0343746Y0230972D01*
X0343297Y0231866D01*
X0342870Y0232771D01*
X0342465Y0233687D01*
X0342082Y0234611D01*
X0341721Y0235545D01*
X0341383Y0236487D01*
X0341068Y0237437D01*
X0340776Y0238395D01*
X0340507Y0239359D01*
X0340262Y0240329D01*
X0340040Y0241305D01*
X0339842Y0242286D01*
X0339667Y0243272D01*
X0339516Y0244261D01*
X0339390Y0245254D01*
X0339287Y0246250D01*
X0039287Y0246250D01*
X0039287Y0243750D01*
X0039277Y0242904D01*
X0039246Y0242059D01*
X0039195Y0241215D01*
X0039124Y0240372D01*
X0039032Y0239531D01*
X0038920Y0238693D01*
X0038787Y0237858D01*
X0038635Y0237026D01*
X0038462Y0236198D01*
X0038270Y0235374D01*
X0038058Y0234555D01*
X0037826Y0233742D01*
X0037574Y0232934D01*
X0037303Y0232133D01*
X0037013Y0231339D01*
X0036703Y0230552D01*
X0036375Y0229772D01*
X0036028Y0229001D01*
X0035662Y0228238D01*
X0035278Y0227485D01*
X0034876Y0226741D01*
X0034456Y0226006D01*
X0034018Y0225283D01*
X0033563Y0224570D01*
X0033091Y0223868D01*
X0032603Y0223178D01*
X0032097Y0222499D01*
X0031576Y0221834D01*
X0031038Y0221181D01*
X0030485Y0220541D01*
X0029916Y0219914D01*
X0029333Y0219302D01*
X0028735Y0218704D01*
X0028123Y0218121D01*
X0027496Y0217552D01*
X0026856Y0216999D01*
X0026203Y0216461D01*
X0025538Y0215940D01*
X0024859Y0215434D01*
X0024169Y0214946D01*
X0023467Y0214474D01*
X0022754Y0214019D01*
X0022031Y0213581D01*
X0021296Y0213161D01*
X0020552Y0212759D01*
X0019799Y0212375D01*
X0019036Y0212009D01*
X0018265Y0211662D01*
X0017485Y0211334D01*
X0016698Y0211024D01*
X0015904Y0210734D01*
X0015103Y0210463D01*
X0014295Y0210211D01*
X0013482Y0209979D01*
X0012663Y0209767D01*
X0011839Y0209575D01*
X0011011Y0209402D01*
X0010179Y0209250D01*
X0009344Y0209117D01*
X0008506Y0209005D01*
X0007665Y0208913D01*
X0006822Y0208842D01*
X0005978Y0208791D01*
X0005133Y0208760D01*
X0004287Y0208750D01*
X0001787Y0208750D01*
X0001787Y0071250D01*
X0031787Y0071250D01*
X0012791Y0086250D02*
X0012793Y0086411D01*
X0012799Y0086571D01*
X0012809Y0086732D01*
X0012823Y0086892D01*
X0012841Y0087051D01*
X0012862Y0087211D01*
X0012888Y0087369D01*
X0012918Y0087527D01*
X0012951Y0087684D01*
X0012989Y0087841D01*
X0013030Y0087996D01*
X0013075Y0088150D01*
X0013124Y0088303D01*
X0013177Y0088455D01*
X0013233Y0088605D01*
X0013293Y0088754D01*
X0013357Y0088902D01*
X0013424Y0089048D01*
X0013495Y0089192D01*
X0013570Y0089334D01*
X0013648Y0089475D01*
X0013729Y0089613D01*
X0013814Y0089750D01*
X0013903Y0089884D01*
X0013994Y0090016D01*
X0014089Y0090146D01*
X0014187Y0090273D01*
X0014288Y0090398D01*
X0014392Y0090521D01*
X0014499Y0090640D01*
X0014609Y0090757D01*
X0014722Y0090872D01*
X0014838Y0090983D01*
X0014956Y0091092D01*
X0015077Y0091197D01*
X0015201Y0091300D01*
X0015327Y0091400D01*
X0015456Y0091496D01*
X0015587Y0091589D01*
X0015720Y0091679D01*
X0015855Y0091766D01*
X0015993Y0091849D01*
X0016132Y0091928D01*
X0016274Y0092005D01*
X0016417Y0092078D01*
X0016562Y0092147D01*
X0016709Y0092212D01*
X0016857Y0092274D01*
X0017007Y0092333D01*
X0017158Y0092387D01*
X0017310Y0092438D01*
X0017464Y0092485D01*
X0017619Y0092528D01*
X0017774Y0092567D01*
X0017931Y0092603D01*
X0018089Y0092635D01*
X0018247Y0092662D01*
X0018406Y0092686D01*
X0018565Y0092706D01*
X0018725Y0092722D01*
X0018886Y0092734D01*
X0019046Y0092742D01*
X0019207Y0092746D01*
X0019367Y0092746D01*
X0019528Y0092742D01*
X0019688Y0092734D01*
X0019849Y0092722D01*
X0020009Y0092706D01*
X0020168Y0092686D01*
X0020327Y0092662D01*
X0020485Y0092635D01*
X0020643Y0092603D01*
X0020800Y0092567D01*
X0020955Y0092528D01*
X0021110Y0092485D01*
X0021264Y0092438D01*
X0021416Y0092387D01*
X0021567Y0092333D01*
X0021717Y0092274D01*
X0021865Y0092212D01*
X0022012Y0092147D01*
X0022157Y0092078D01*
X0022300Y0092005D01*
X0022442Y0091928D01*
X0022581Y0091849D01*
X0022719Y0091766D01*
X0022854Y0091679D01*
X0022987Y0091589D01*
X0023118Y0091496D01*
X0023247Y0091400D01*
X0023373Y0091300D01*
X0023497Y0091197D01*
X0023618Y0091092D01*
X0023736Y0090983D01*
X0023852Y0090872D01*
X0023965Y0090757D01*
X0024075Y0090640D01*
X0024182Y0090521D01*
X0024286Y0090398D01*
X0024387Y0090273D01*
X0024485Y0090146D01*
X0024580Y0090016D01*
X0024671Y0089884D01*
X0024760Y0089750D01*
X0024845Y0089613D01*
X0024926Y0089475D01*
X0025004Y0089334D01*
X0025079Y0089192D01*
X0025150Y0089048D01*
X0025217Y0088902D01*
X0025281Y0088754D01*
X0025341Y0088605D01*
X0025397Y0088455D01*
X0025450Y0088303D01*
X0025499Y0088150D01*
X0025544Y0087996D01*
X0025585Y0087841D01*
X0025623Y0087684D01*
X0025656Y0087527D01*
X0025686Y0087369D01*
X0025712Y0087211D01*
X0025733Y0087051D01*
X0025751Y0086892D01*
X0025765Y0086732D01*
X0025775Y0086571D01*
X0025781Y0086411D01*
X0025783Y0086250D01*
X0025781Y0086089D01*
X0025775Y0085929D01*
X0025765Y0085768D01*
X0025751Y0085608D01*
X0025733Y0085449D01*
X0025712Y0085289D01*
X0025686Y0085131D01*
X0025656Y0084973D01*
X0025623Y0084816D01*
X0025585Y0084659D01*
X0025544Y0084504D01*
X0025499Y0084350D01*
X0025450Y0084197D01*
X0025397Y0084045D01*
X0025341Y0083895D01*
X0025281Y0083746D01*
X0025217Y0083598D01*
X0025150Y0083452D01*
X0025079Y0083308D01*
X0025004Y0083166D01*
X0024926Y0083025D01*
X0024845Y0082887D01*
X0024760Y0082750D01*
X0024671Y0082616D01*
X0024580Y0082484D01*
X0024485Y0082354D01*
X0024387Y0082227D01*
X0024286Y0082102D01*
X0024182Y0081979D01*
X0024075Y0081860D01*
X0023965Y0081743D01*
X0023852Y0081628D01*
X0023736Y0081517D01*
X0023618Y0081408D01*
X0023497Y0081303D01*
X0023373Y0081200D01*
X0023247Y0081100D01*
X0023118Y0081004D01*
X0022987Y0080911D01*
X0022854Y0080821D01*
X0022719Y0080734D01*
X0022581Y0080651D01*
X0022442Y0080572D01*
X0022300Y0080495D01*
X0022157Y0080422D01*
X0022012Y0080353D01*
X0021865Y0080288D01*
X0021717Y0080226D01*
X0021567Y0080167D01*
X0021416Y0080113D01*
X0021264Y0080062D01*
X0021110Y0080015D01*
X0020955Y0079972D01*
X0020800Y0079933D01*
X0020643Y0079897D01*
X0020485Y0079865D01*
X0020327Y0079838D01*
X0020168Y0079814D01*
X0020009Y0079794D01*
X0019849Y0079778D01*
X0019688Y0079766D01*
X0019528Y0079758D01*
X0019367Y0079754D01*
X0019207Y0079754D01*
X0019046Y0079758D01*
X0018886Y0079766D01*
X0018725Y0079778D01*
X0018565Y0079794D01*
X0018406Y0079814D01*
X0018247Y0079838D01*
X0018089Y0079865D01*
X0017931Y0079897D01*
X0017774Y0079933D01*
X0017619Y0079972D01*
X0017464Y0080015D01*
X0017310Y0080062D01*
X0017158Y0080113D01*
X0017007Y0080167D01*
X0016857Y0080226D01*
X0016709Y0080288D01*
X0016562Y0080353D01*
X0016417Y0080422D01*
X0016274Y0080495D01*
X0016132Y0080572D01*
X0015993Y0080651D01*
X0015855Y0080734D01*
X0015720Y0080821D01*
X0015587Y0080911D01*
X0015456Y0081004D01*
X0015327Y0081100D01*
X0015201Y0081200D01*
X0015077Y0081303D01*
X0014956Y0081408D01*
X0014838Y0081517D01*
X0014722Y0081628D01*
X0014609Y0081743D01*
X0014499Y0081860D01*
X0014392Y0081979D01*
X0014288Y0082102D01*
X0014187Y0082227D01*
X0014089Y0082354D01*
X0013994Y0082484D01*
X0013903Y0082616D01*
X0013814Y0082750D01*
X0013729Y0082887D01*
X0013648Y0083025D01*
X0013570Y0083166D01*
X0013495Y0083308D01*
X0013424Y0083452D01*
X0013357Y0083598D01*
X0013293Y0083746D01*
X0013233Y0083895D01*
X0013177Y0084045D01*
X0013124Y0084197D01*
X0013075Y0084350D01*
X0013030Y0084504D01*
X0012989Y0084659D01*
X0012951Y0084816D01*
X0012918Y0084973D01*
X0012888Y0085131D01*
X0012862Y0085289D01*
X0012841Y0085449D01*
X0012823Y0085608D01*
X0012809Y0085768D01*
X0012799Y0085929D01*
X0012793Y0086089D01*
X0012791Y0086250D01*
X0165488Y0108750D02*
X0165490Y0108908D01*
X0165496Y0109066D01*
X0165506Y0109224D01*
X0165520Y0109382D01*
X0165538Y0109539D01*
X0165559Y0109696D01*
X0165585Y0109852D01*
X0165615Y0110008D01*
X0165648Y0110163D01*
X0165686Y0110316D01*
X0165727Y0110469D01*
X0165772Y0110621D01*
X0165821Y0110772D01*
X0165874Y0110921D01*
X0165930Y0111069D01*
X0165990Y0111215D01*
X0166054Y0111360D01*
X0166122Y0111503D01*
X0166193Y0111645D01*
X0166267Y0111785D01*
X0166345Y0111922D01*
X0166427Y0112058D01*
X0166511Y0112192D01*
X0166600Y0112323D01*
X0166691Y0112452D01*
X0166786Y0112579D01*
X0166883Y0112704D01*
X0166984Y0112826D01*
X0167088Y0112945D01*
X0167195Y0113062D01*
X0167305Y0113176D01*
X0167418Y0113287D01*
X0167533Y0113396D01*
X0167651Y0113501D01*
X0167772Y0113603D01*
X0167895Y0113703D01*
X0168021Y0113799D01*
X0168149Y0113892D01*
X0168279Y0113982D01*
X0168412Y0114068D01*
X0168547Y0114152D01*
X0168683Y0114231D01*
X0168822Y0114308D01*
X0168963Y0114380D01*
X0169105Y0114450D01*
X0169249Y0114515D01*
X0169395Y0114577D01*
X0169542Y0114635D01*
X0169691Y0114690D01*
X0169841Y0114741D01*
X0169992Y0114788D01*
X0170144Y0114831D01*
X0170297Y0114870D01*
X0170452Y0114906D01*
X0170607Y0114937D01*
X0170763Y0114965D01*
X0170919Y0114989D01*
X0171076Y0115009D01*
X0171234Y0115025D01*
X0171391Y0115037D01*
X0171550Y0115045D01*
X0171708Y0115049D01*
X0171866Y0115049D01*
X0172024Y0115045D01*
X0172183Y0115037D01*
X0172340Y0115025D01*
X0172498Y0115009D01*
X0172655Y0114989D01*
X0172811Y0114965D01*
X0172967Y0114937D01*
X0173122Y0114906D01*
X0173277Y0114870D01*
X0173430Y0114831D01*
X0173582Y0114788D01*
X0173733Y0114741D01*
X0173883Y0114690D01*
X0174032Y0114635D01*
X0174179Y0114577D01*
X0174325Y0114515D01*
X0174469Y0114450D01*
X0174611Y0114380D01*
X0174752Y0114308D01*
X0174891Y0114231D01*
X0175027Y0114152D01*
X0175162Y0114068D01*
X0175295Y0113982D01*
X0175425Y0113892D01*
X0175553Y0113799D01*
X0175679Y0113703D01*
X0175802Y0113603D01*
X0175923Y0113501D01*
X0176041Y0113396D01*
X0176156Y0113287D01*
X0176269Y0113176D01*
X0176379Y0113062D01*
X0176486Y0112945D01*
X0176590Y0112826D01*
X0176691Y0112704D01*
X0176788Y0112579D01*
X0176883Y0112452D01*
X0176974Y0112323D01*
X0177063Y0112192D01*
X0177147Y0112058D01*
X0177229Y0111922D01*
X0177307Y0111785D01*
X0177381Y0111645D01*
X0177452Y0111503D01*
X0177520Y0111360D01*
X0177584Y0111215D01*
X0177644Y0111069D01*
X0177700Y0110921D01*
X0177753Y0110772D01*
X0177802Y0110621D01*
X0177847Y0110469D01*
X0177888Y0110316D01*
X0177926Y0110163D01*
X0177959Y0110008D01*
X0177989Y0109852D01*
X0178015Y0109696D01*
X0178036Y0109539D01*
X0178054Y0109382D01*
X0178068Y0109224D01*
X0178078Y0109066D01*
X0178084Y0108908D01*
X0178086Y0108750D01*
X0178084Y0108592D01*
X0178078Y0108434D01*
X0178068Y0108276D01*
X0178054Y0108118D01*
X0178036Y0107961D01*
X0178015Y0107804D01*
X0177989Y0107648D01*
X0177959Y0107492D01*
X0177926Y0107337D01*
X0177888Y0107184D01*
X0177847Y0107031D01*
X0177802Y0106879D01*
X0177753Y0106728D01*
X0177700Y0106579D01*
X0177644Y0106431D01*
X0177584Y0106285D01*
X0177520Y0106140D01*
X0177452Y0105997D01*
X0177381Y0105855D01*
X0177307Y0105715D01*
X0177229Y0105578D01*
X0177147Y0105442D01*
X0177063Y0105308D01*
X0176974Y0105177D01*
X0176883Y0105048D01*
X0176788Y0104921D01*
X0176691Y0104796D01*
X0176590Y0104674D01*
X0176486Y0104555D01*
X0176379Y0104438D01*
X0176269Y0104324D01*
X0176156Y0104213D01*
X0176041Y0104104D01*
X0175923Y0103999D01*
X0175802Y0103897D01*
X0175679Y0103797D01*
X0175553Y0103701D01*
X0175425Y0103608D01*
X0175295Y0103518D01*
X0175162Y0103432D01*
X0175027Y0103348D01*
X0174891Y0103269D01*
X0174752Y0103192D01*
X0174611Y0103120D01*
X0174469Y0103050D01*
X0174325Y0102985D01*
X0174179Y0102923D01*
X0174032Y0102865D01*
X0173883Y0102810D01*
X0173733Y0102759D01*
X0173582Y0102712D01*
X0173430Y0102669D01*
X0173277Y0102630D01*
X0173122Y0102594D01*
X0172967Y0102563D01*
X0172811Y0102535D01*
X0172655Y0102511D01*
X0172498Y0102491D01*
X0172340Y0102475D01*
X0172183Y0102463D01*
X0172024Y0102455D01*
X0171866Y0102451D01*
X0171708Y0102451D01*
X0171550Y0102455D01*
X0171391Y0102463D01*
X0171234Y0102475D01*
X0171076Y0102491D01*
X0170919Y0102511D01*
X0170763Y0102535D01*
X0170607Y0102563D01*
X0170452Y0102594D01*
X0170297Y0102630D01*
X0170144Y0102669D01*
X0169992Y0102712D01*
X0169841Y0102759D01*
X0169691Y0102810D01*
X0169542Y0102865D01*
X0169395Y0102923D01*
X0169249Y0102985D01*
X0169105Y0103050D01*
X0168963Y0103120D01*
X0168822Y0103192D01*
X0168683Y0103269D01*
X0168547Y0103348D01*
X0168412Y0103432D01*
X0168279Y0103518D01*
X0168149Y0103608D01*
X0168021Y0103701D01*
X0167895Y0103797D01*
X0167772Y0103897D01*
X0167651Y0103999D01*
X0167533Y0104104D01*
X0167418Y0104213D01*
X0167305Y0104324D01*
X0167195Y0104438D01*
X0167088Y0104555D01*
X0166984Y0104674D01*
X0166883Y0104796D01*
X0166786Y0104921D01*
X0166691Y0105048D01*
X0166600Y0105177D01*
X0166511Y0105308D01*
X0166427Y0105442D01*
X0166345Y0105578D01*
X0166267Y0105715D01*
X0166193Y0105855D01*
X0166122Y0105997D01*
X0166054Y0106140D01*
X0165990Y0106285D01*
X0165930Y0106431D01*
X0165874Y0106579D01*
X0165821Y0106728D01*
X0165772Y0106879D01*
X0165727Y0107031D01*
X0165686Y0107184D01*
X0165648Y0107337D01*
X0165615Y0107492D01*
X0165585Y0107648D01*
X0165559Y0107804D01*
X0165538Y0107961D01*
X0165520Y0108118D01*
X0165506Y0108276D01*
X0165496Y0108434D01*
X0165490Y0108592D01*
X0165488Y0108750D01*
X0285488Y0108750D02*
X0285490Y0108908D01*
X0285496Y0109066D01*
X0285506Y0109224D01*
X0285520Y0109382D01*
X0285538Y0109539D01*
X0285559Y0109696D01*
X0285585Y0109852D01*
X0285615Y0110008D01*
X0285648Y0110163D01*
X0285686Y0110316D01*
X0285727Y0110469D01*
X0285772Y0110621D01*
X0285821Y0110772D01*
X0285874Y0110921D01*
X0285930Y0111069D01*
X0285990Y0111215D01*
X0286054Y0111360D01*
X0286122Y0111503D01*
X0286193Y0111645D01*
X0286267Y0111785D01*
X0286345Y0111922D01*
X0286427Y0112058D01*
X0286511Y0112192D01*
X0286600Y0112323D01*
X0286691Y0112452D01*
X0286786Y0112579D01*
X0286883Y0112704D01*
X0286984Y0112826D01*
X0287088Y0112945D01*
X0287195Y0113062D01*
X0287305Y0113176D01*
X0287418Y0113287D01*
X0287533Y0113396D01*
X0287651Y0113501D01*
X0287772Y0113603D01*
X0287895Y0113703D01*
X0288021Y0113799D01*
X0288149Y0113892D01*
X0288279Y0113982D01*
X0288412Y0114068D01*
X0288547Y0114152D01*
X0288683Y0114231D01*
X0288822Y0114308D01*
X0288963Y0114380D01*
X0289105Y0114450D01*
X0289249Y0114515D01*
X0289395Y0114577D01*
X0289542Y0114635D01*
X0289691Y0114690D01*
X0289841Y0114741D01*
X0289992Y0114788D01*
X0290144Y0114831D01*
X0290297Y0114870D01*
X0290452Y0114906D01*
X0290607Y0114937D01*
X0290763Y0114965D01*
X0290919Y0114989D01*
X0291076Y0115009D01*
X0291234Y0115025D01*
X0291391Y0115037D01*
X0291550Y0115045D01*
X0291708Y0115049D01*
X0291866Y0115049D01*
X0292024Y0115045D01*
X0292183Y0115037D01*
X0292340Y0115025D01*
X0292498Y0115009D01*
X0292655Y0114989D01*
X0292811Y0114965D01*
X0292967Y0114937D01*
X0293122Y0114906D01*
X0293277Y0114870D01*
X0293430Y0114831D01*
X0293582Y0114788D01*
X0293733Y0114741D01*
X0293883Y0114690D01*
X0294032Y0114635D01*
X0294179Y0114577D01*
X0294325Y0114515D01*
X0294469Y0114450D01*
X0294611Y0114380D01*
X0294752Y0114308D01*
X0294891Y0114231D01*
X0295027Y0114152D01*
X0295162Y0114068D01*
X0295295Y0113982D01*
X0295425Y0113892D01*
X0295553Y0113799D01*
X0295679Y0113703D01*
X0295802Y0113603D01*
X0295923Y0113501D01*
X0296041Y0113396D01*
X0296156Y0113287D01*
X0296269Y0113176D01*
X0296379Y0113062D01*
X0296486Y0112945D01*
X0296590Y0112826D01*
X0296691Y0112704D01*
X0296788Y0112579D01*
X0296883Y0112452D01*
X0296974Y0112323D01*
X0297063Y0112192D01*
X0297147Y0112058D01*
X0297229Y0111922D01*
X0297307Y0111785D01*
X0297381Y0111645D01*
X0297452Y0111503D01*
X0297520Y0111360D01*
X0297584Y0111215D01*
X0297644Y0111069D01*
X0297700Y0110921D01*
X0297753Y0110772D01*
X0297802Y0110621D01*
X0297847Y0110469D01*
X0297888Y0110316D01*
X0297926Y0110163D01*
X0297959Y0110008D01*
X0297989Y0109852D01*
X0298015Y0109696D01*
X0298036Y0109539D01*
X0298054Y0109382D01*
X0298068Y0109224D01*
X0298078Y0109066D01*
X0298084Y0108908D01*
X0298086Y0108750D01*
X0298084Y0108592D01*
X0298078Y0108434D01*
X0298068Y0108276D01*
X0298054Y0108118D01*
X0298036Y0107961D01*
X0298015Y0107804D01*
X0297989Y0107648D01*
X0297959Y0107492D01*
X0297926Y0107337D01*
X0297888Y0107184D01*
X0297847Y0107031D01*
X0297802Y0106879D01*
X0297753Y0106728D01*
X0297700Y0106579D01*
X0297644Y0106431D01*
X0297584Y0106285D01*
X0297520Y0106140D01*
X0297452Y0105997D01*
X0297381Y0105855D01*
X0297307Y0105715D01*
X0297229Y0105578D01*
X0297147Y0105442D01*
X0297063Y0105308D01*
X0296974Y0105177D01*
X0296883Y0105048D01*
X0296788Y0104921D01*
X0296691Y0104796D01*
X0296590Y0104674D01*
X0296486Y0104555D01*
X0296379Y0104438D01*
X0296269Y0104324D01*
X0296156Y0104213D01*
X0296041Y0104104D01*
X0295923Y0103999D01*
X0295802Y0103897D01*
X0295679Y0103797D01*
X0295553Y0103701D01*
X0295425Y0103608D01*
X0295295Y0103518D01*
X0295162Y0103432D01*
X0295027Y0103348D01*
X0294891Y0103269D01*
X0294752Y0103192D01*
X0294611Y0103120D01*
X0294469Y0103050D01*
X0294325Y0102985D01*
X0294179Y0102923D01*
X0294032Y0102865D01*
X0293883Y0102810D01*
X0293733Y0102759D01*
X0293582Y0102712D01*
X0293430Y0102669D01*
X0293277Y0102630D01*
X0293122Y0102594D01*
X0292967Y0102563D01*
X0292811Y0102535D01*
X0292655Y0102511D01*
X0292498Y0102491D01*
X0292340Y0102475D01*
X0292183Y0102463D01*
X0292024Y0102455D01*
X0291866Y0102451D01*
X0291708Y0102451D01*
X0291550Y0102455D01*
X0291391Y0102463D01*
X0291234Y0102475D01*
X0291076Y0102491D01*
X0290919Y0102511D01*
X0290763Y0102535D01*
X0290607Y0102563D01*
X0290452Y0102594D01*
X0290297Y0102630D01*
X0290144Y0102669D01*
X0289992Y0102712D01*
X0289841Y0102759D01*
X0289691Y0102810D01*
X0289542Y0102865D01*
X0289395Y0102923D01*
X0289249Y0102985D01*
X0289105Y0103050D01*
X0288963Y0103120D01*
X0288822Y0103192D01*
X0288683Y0103269D01*
X0288547Y0103348D01*
X0288412Y0103432D01*
X0288279Y0103518D01*
X0288149Y0103608D01*
X0288021Y0103701D01*
X0287895Y0103797D01*
X0287772Y0103897D01*
X0287651Y0103999D01*
X0287533Y0104104D01*
X0287418Y0104213D01*
X0287305Y0104324D01*
X0287195Y0104438D01*
X0287088Y0104555D01*
X0286984Y0104674D01*
X0286883Y0104796D01*
X0286786Y0104921D01*
X0286691Y0105048D01*
X0286600Y0105177D01*
X0286511Y0105308D01*
X0286427Y0105442D01*
X0286345Y0105578D01*
X0286267Y0105715D01*
X0286193Y0105855D01*
X0286122Y0105997D01*
X0286054Y0106140D01*
X0285990Y0106285D01*
X0285930Y0106431D01*
X0285874Y0106579D01*
X0285821Y0106728D01*
X0285772Y0106879D01*
X0285727Y0107031D01*
X0285686Y0107184D01*
X0285648Y0107337D01*
X0285615Y0107492D01*
X0285585Y0107648D01*
X0285559Y0107804D01*
X0285538Y0107961D01*
X0285520Y0108118D01*
X0285506Y0108276D01*
X0285496Y0108434D01*
X0285490Y0108592D01*
X0285488Y0108750D01*
X0387791Y0086250D02*
X0387793Y0086411D01*
X0387799Y0086571D01*
X0387809Y0086732D01*
X0387823Y0086892D01*
X0387841Y0087051D01*
X0387862Y0087211D01*
X0387888Y0087369D01*
X0387918Y0087527D01*
X0387951Y0087684D01*
X0387989Y0087841D01*
X0388030Y0087996D01*
X0388075Y0088150D01*
X0388124Y0088303D01*
X0388177Y0088455D01*
X0388233Y0088605D01*
X0388293Y0088754D01*
X0388357Y0088902D01*
X0388424Y0089048D01*
X0388495Y0089192D01*
X0388570Y0089334D01*
X0388648Y0089475D01*
X0388729Y0089613D01*
X0388814Y0089750D01*
X0388903Y0089884D01*
X0388994Y0090016D01*
X0389089Y0090146D01*
X0389187Y0090273D01*
X0389288Y0090398D01*
X0389392Y0090521D01*
X0389499Y0090640D01*
X0389609Y0090757D01*
X0389722Y0090872D01*
X0389838Y0090983D01*
X0389956Y0091092D01*
X0390077Y0091197D01*
X0390201Y0091300D01*
X0390327Y0091400D01*
X0390456Y0091496D01*
X0390587Y0091589D01*
X0390720Y0091679D01*
X0390855Y0091766D01*
X0390993Y0091849D01*
X0391132Y0091928D01*
X0391274Y0092005D01*
X0391417Y0092078D01*
X0391562Y0092147D01*
X0391709Y0092212D01*
X0391857Y0092274D01*
X0392007Y0092333D01*
X0392158Y0092387D01*
X0392310Y0092438D01*
X0392464Y0092485D01*
X0392619Y0092528D01*
X0392774Y0092567D01*
X0392931Y0092603D01*
X0393089Y0092635D01*
X0393247Y0092662D01*
X0393406Y0092686D01*
X0393565Y0092706D01*
X0393725Y0092722D01*
X0393886Y0092734D01*
X0394046Y0092742D01*
X0394207Y0092746D01*
X0394367Y0092746D01*
X0394528Y0092742D01*
X0394688Y0092734D01*
X0394849Y0092722D01*
X0395009Y0092706D01*
X0395168Y0092686D01*
X0395327Y0092662D01*
X0395485Y0092635D01*
X0395643Y0092603D01*
X0395800Y0092567D01*
X0395955Y0092528D01*
X0396110Y0092485D01*
X0396264Y0092438D01*
X0396416Y0092387D01*
X0396567Y0092333D01*
X0396717Y0092274D01*
X0396865Y0092212D01*
X0397012Y0092147D01*
X0397157Y0092078D01*
X0397300Y0092005D01*
X0397442Y0091928D01*
X0397581Y0091849D01*
X0397719Y0091766D01*
X0397854Y0091679D01*
X0397987Y0091589D01*
X0398118Y0091496D01*
X0398247Y0091400D01*
X0398373Y0091300D01*
X0398497Y0091197D01*
X0398618Y0091092D01*
X0398736Y0090983D01*
X0398852Y0090872D01*
X0398965Y0090757D01*
X0399075Y0090640D01*
X0399182Y0090521D01*
X0399286Y0090398D01*
X0399387Y0090273D01*
X0399485Y0090146D01*
X0399580Y0090016D01*
X0399671Y0089884D01*
X0399760Y0089750D01*
X0399845Y0089613D01*
X0399926Y0089475D01*
X0400004Y0089334D01*
X0400079Y0089192D01*
X0400150Y0089048D01*
X0400217Y0088902D01*
X0400281Y0088754D01*
X0400341Y0088605D01*
X0400397Y0088455D01*
X0400450Y0088303D01*
X0400499Y0088150D01*
X0400544Y0087996D01*
X0400585Y0087841D01*
X0400623Y0087684D01*
X0400656Y0087527D01*
X0400686Y0087369D01*
X0400712Y0087211D01*
X0400733Y0087051D01*
X0400751Y0086892D01*
X0400765Y0086732D01*
X0400775Y0086571D01*
X0400781Y0086411D01*
X0400783Y0086250D01*
X0400781Y0086089D01*
X0400775Y0085929D01*
X0400765Y0085768D01*
X0400751Y0085608D01*
X0400733Y0085449D01*
X0400712Y0085289D01*
X0400686Y0085131D01*
X0400656Y0084973D01*
X0400623Y0084816D01*
X0400585Y0084659D01*
X0400544Y0084504D01*
X0400499Y0084350D01*
X0400450Y0084197D01*
X0400397Y0084045D01*
X0400341Y0083895D01*
X0400281Y0083746D01*
X0400217Y0083598D01*
X0400150Y0083452D01*
X0400079Y0083308D01*
X0400004Y0083166D01*
X0399926Y0083025D01*
X0399845Y0082887D01*
X0399760Y0082750D01*
X0399671Y0082616D01*
X0399580Y0082484D01*
X0399485Y0082354D01*
X0399387Y0082227D01*
X0399286Y0082102D01*
X0399182Y0081979D01*
X0399075Y0081860D01*
X0398965Y0081743D01*
X0398852Y0081628D01*
X0398736Y0081517D01*
X0398618Y0081408D01*
X0398497Y0081303D01*
X0398373Y0081200D01*
X0398247Y0081100D01*
X0398118Y0081004D01*
X0397987Y0080911D01*
X0397854Y0080821D01*
X0397719Y0080734D01*
X0397581Y0080651D01*
X0397442Y0080572D01*
X0397300Y0080495D01*
X0397157Y0080422D01*
X0397012Y0080353D01*
X0396865Y0080288D01*
X0396717Y0080226D01*
X0396567Y0080167D01*
X0396416Y0080113D01*
X0396264Y0080062D01*
X0396110Y0080015D01*
X0395955Y0079972D01*
X0395800Y0079933D01*
X0395643Y0079897D01*
X0395485Y0079865D01*
X0395327Y0079838D01*
X0395168Y0079814D01*
X0395009Y0079794D01*
X0394849Y0079778D01*
X0394688Y0079766D01*
X0394528Y0079758D01*
X0394367Y0079754D01*
X0394207Y0079754D01*
X0394046Y0079758D01*
X0393886Y0079766D01*
X0393725Y0079778D01*
X0393565Y0079794D01*
X0393406Y0079814D01*
X0393247Y0079838D01*
X0393089Y0079865D01*
X0392931Y0079897D01*
X0392774Y0079933D01*
X0392619Y0079972D01*
X0392464Y0080015D01*
X0392310Y0080062D01*
X0392158Y0080113D01*
X0392007Y0080167D01*
X0391857Y0080226D01*
X0391709Y0080288D01*
X0391562Y0080353D01*
X0391417Y0080422D01*
X0391274Y0080495D01*
X0391132Y0080572D01*
X0390993Y0080651D01*
X0390855Y0080734D01*
X0390720Y0080821D01*
X0390587Y0080911D01*
X0390456Y0081004D01*
X0390327Y0081100D01*
X0390201Y0081200D01*
X0390077Y0081303D01*
X0389956Y0081408D01*
X0389838Y0081517D01*
X0389722Y0081628D01*
X0389609Y0081743D01*
X0389499Y0081860D01*
X0389392Y0081979D01*
X0389288Y0082102D01*
X0389187Y0082227D01*
X0389089Y0082354D01*
X0388994Y0082484D01*
X0388903Y0082616D01*
X0388814Y0082750D01*
X0388729Y0082887D01*
X0388648Y0083025D01*
X0388570Y0083166D01*
X0388495Y0083308D01*
X0388424Y0083452D01*
X0388357Y0083598D01*
X0388293Y0083746D01*
X0388233Y0083895D01*
X0388177Y0084045D01*
X0388124Y0084197D01*
X0388075Y0084350D01*
X0388030Y0084504D01*
X0387989Y0084659D01*
X0387951Y0084816D01*
X0387918Y0084973D01*
X0387888Y0085131D01*
X0387862Y0085289D01*
X0387841Y0085449D01*
X0387823Y0085608D01*
X0387809Y0085768D01*
X0387799Y0085929D01*
X0387793Y0086089D01*
X0387791Y0086250D01*
X0285488Y0221250D02*
X0285490Y0221408D01*
X0285496Y0221566D01*
X0285506Y0221724D01*
X0285520Y0221882D01*
X0285538Y0222039D01*
X0285559Y0222196D01*
X0285585Y0222352D01*
X0285615Y0222508D01*
X0285648Y0222663D01*
X0285686Y0222816D01*
X0285727Y0222969D01*
X0285772Y0223121D01*
X0285821Y0223272D01*
X0285874Y0223421D01*
X0285930Y0223569D01*
X0285990Y0223715D01*
X0286054Y0223860D01*
X0286122Y0224003D01*
X0286193Y0224145D01*
X0286267Y0224285D01*
X0286345Y0224422D01*
X0286427Y0224558D01*
X0286511Y0224692D01*
X0286600Y0224823D01*
X0286691Y0224952D01*
X0286786Y0225079D01*
X0286883Y0225204D01*
X0286984Y0225326D01*
X0287088Y0225445D01*
X0287195Y0225562D01*
X0287305Y0225676D01*
X0287418Y0225787D01*
X0287533Y0225896D01*
X0287651Y0226001D01*
X0287772Y0226103D01*
X0287895Y0226203D01*
X0288021Y0226299D01*
X0288149Y0226392D01*
X0288279Y0226482D01*
X0288412Y0226568D01*
X0288547Y0226652D01*
X0288683Y0226731D01*
X0288822Y0226808D01*
X0288963Y0226880D01*
X0289105Y0226950D01*
X0289249Y0227015D01*
X0289395Y0227077D01*
X0289542Y0227135D01*
X0289691Y0227190D01*
X0289841Y0227241D01*
X0289992Y0227288D01*
X0290144Y0227331D01*
X0290297Y0227370D01*
X0290452Y0227406D01*
X0290607Y0227437D01*
X0290763Y0227465D01*
X0290919Y0227489D01*
X0291076Y0227509D01*
X0291234Y0227525D01*
X0291391Y0227537D01*
X0291550Y0227545D01*
X0291708Y0227549D01*
X0291866Y0227549D01*
X0292024Y0227545D01*
X0292183Y0227537D01*
X0292340Y0227525D01*
X0292498Y0227509D01*
X0292655Y0227489D01*
X0292811Y0227465D01*
X0292967Y0227437D01*
X0293122Y0227406D01*
X0293277Y0227370D01*
X0293430Y0227331D01*
X0293582Y0227288D01*
X0293733Y0227241D01*
X0293883Y0227190D01*
X0294032Y0227135D01*
X0294179Y0227077D01*
X0294325Y0227015D01*
X0294469Y0226950D01*
X0294611Y0226880D01*
X0294752Y0226808D01*
X0294891Y0226731D01*
X0295027Y0226652D01*
X0295162Y0226568D01*
X0295295Y0226482D01*
X0295425Y0226392D01*
X0295553Y0226299D01*
X0295679Y0226203D01*
X0295802Y0226103D01*
X0295923Y0226001D01*
X0296041Y0225896D01*
X0296156Y0225787D01*
X0296269Y0225676D01*
X0296379Y0225562D01*
X0296486Y0225445D01*
X0296590Y0225326D01*
X0296691Y0225204D01*
X0296788Y0225079D01*
X0296883Y0224952D01*
X0296974Y0224823D01*
X0297063Y0224692D01*
X0297147Y0224558D01*
X0297229Y0224422D01*
X0297307Y0224285D01*
X0297381Y0224145D01*
X0297452Y0224003D01*
X0297520Y0223860D01*
X0297584Y0223715D01*
X0297644Y0223569D01*
X0297700Y0223421D01*
X0297753Y0223272D01*
X0297802Y0223121D01*
X0297847Y0222969D01*
X0297888Y0222816D01*
X0297926Y0222663D01*
X0297959Y0222508D01*
X0297989Y0222352D01*
X0298015Y0222196D01*
X0298036Y0222039D01*
X0298054Y0221882D01*
X0298068Y0221724D01*
X0298078Y0221566D01*
X0298084Y0221408D01*
X0298086Y0221250D01*
X0298084Y0221092D01*
X0298078Y0220934D01*
X0298068Y0220776D01*
X0298054Y0220618D01*
X0298036Y0220461D01*
X0298015Y0220304D01*
X0297989Y0220148D01*
X0297959Y0219992D01*
X0297926Y0219837D01*
X0297888Y0219684D01*
X0297847Y0219531D01*
X0297802Y0219379D01*
X0297753Y0219228D01*
X0297700Y0219079D01*
X0297644Y0218931D01*
X0297584Y0218785D01*
X0297520Y0218640D01*
X0297452Y0218497D01*
X0297381Y0218355D01*
X0297307Y0218215D01*
X0297229Y0218078D01*
X0297147Y0217942D01*
X0297063Y0217808D01*
X0296974Y0217677D01*
X0296883Y0217548D01*
X0296788Y0217421D01*
X0296691Y0217296D01*
X0296590Y0217174D01*
X0296486Y0217055D01*
X0296379Y0216938D01*
X0296269Y0216824D01*
X0296156Y0216713D01*
X0296041Y0216604D01*
X0295923Y0216499D01*
X0295802Y0216397D01*
X0295679Y0216297D01*
X0295553Y0216201D01*
X0295425Y0216108D01*
X0295295Y0216018D01*
X0295162Y0215932D01*
X0295027Y0215848D01*
X0294891Y0215769D01*
X0294752Y0215692D01*
X0294611Y0215620D01*
X0294469Y0215550D01*
X0294325Y0215485D01*
X0294179Y0215423D01*
X0294032Y0215365D01*
X0293883Y0215310D01*
X0293733Y0215259D01*
X0293582Y0215212D01*
X0293430Y0215169D01*
X0293277Y0215130D01*
X0293122Y0215094D01*
X0292967Y0215063D01*
X0292811Y0215035D01*
X0292655Y0215011D01*
X0292498Y0214991D01*
X0292340Y0214975D01*
X0292183Y0214963D01*
X0292024Y0214955D01*
X0291866Y0214951D01*
X0291708Y0214951D01*
X0291550Y0214955D01*
X0291391Y0214963D01*
X0291234Y0214975D01*
X0291076Y0214991D01*
X0290919Y0215011D01*
X0290763Y0215035D01*
X0290607Y0215063D01*
X0290452Y0215094D01*
X0290297Y0215130D01*
X0290144Y0215169D01*
X0289992Y0215212D01*
X0289841Y0215259D01*
X0289691Y0215310D01*
X0289542Y0215365D01*
X0289395Y0215423D01*
X0289249Y0215485D01*
X0289105Y0215550D01*
X0288963Y0215620D01*
X0288822Y0215692D01*
X0288683Y0215769D01*
X0288547Y0215848D01*
X0288412Y0215932D01*
X0288279Y0216018D01*
X0288149Y0216108D01*
X0288021Y0216201D01*
X0287895Y0216297D01*
X0287772Y0216397D01*
X0287651Y0216499D01*
X0287533Y0216604D01*
X0287418Y0216713D01*
X0287305Y0216824D01*
X0287195Y0216938D01*
X0287088Y0217055D01*
X0286984Y0217174D01*
X0286883Y0217296D01*
X0286786Y0217421D01*
X0286691Y0217548D01*
X0286600Y0217677D01*
X0286511Y0217808D01*
X0286427Y0217942D01*
X0286345Y0218078D01*
X0286267Y0218215D01*
X0286193Y0218355D01*
X0286122Y0218497D01*
X0286054Y0218640D01*
X0285990Y0218785D01*
X0285930Y0218931D01*
X0285874Y0219079D01*
X0285821Y0219228D01*
X0285772Y0219379D01*
X0285727Y0219531D01*
X0285686Y0219684D01*
X0285648Y0219837D01*
X0285615Y0219992D01*
X0285585Y0220148D01*
X0285559Y0220304D01*
X0285538Y0220461D01*
X0285520Y0220618D01*
X0285506Y0220776D01*
X0285496Y0220934D01*
X0285490Y0221092D01*
X0285488Y0221250D01*
X0165488Y0221250D02*
X0165490Y0221408D01*
X0165496Y0221566D01*
X0165506Y0221724D01*
X0165520Y0221882D01*
X0165538Y0222039D01*
X0165559Y0222196D01*
X0165585Y0222352D01*
X0165615Y0222508D01*
X0165648Y0222663D01*
X0165686Y0222816D01*
X0165727Y0222969D01*
X0165772Y0223121D01*
X0165821Y0223272D01*
X0165874Y0223421D01*
X0165930Y0223569D01*
X0165990Y0223715D01*
X0166054Y0223860D01*
X0166122Y0224003D01*
X0166193Y0224145D01*
X0166267Y0224285D01*
X0166345Y0224422D01*
X0166427Y0224558D01*
X0166511Y0224692D01*
X0166600Y0224823D01*
X0166691Y0224952D01*
X0166786Y0225079D01*
X0166883Y0225204D01*
X0166984Y0225326D01*
X0167088Y0225445D01*
X0167195Y0225562D01*
X0167305Y0225676D01*
X0167418Y0225787D01*
X0167533Y0225896D01*
X0167651Y0226001D01*
X0167772Y0226103D01*
X0167895Y0226203D01*
X0168021Y0226299D01*
X0168149Y0226392D01*
X0168279Y0226482D01*
X0168412Y0226568D01*
X0168547Y0226652D01*
X0168683Y0226731D01*
X0168822Y0226808D01*
X0168963Y0226880D01*
X0169105Y0226950D01*
X0169249Y0227015D01*
X0169395Y0227077D01*
X0169542Y0227135D01*
X0169691Y0227190D01*
X0169841Y0227241D01*
X0169992Y0227288D01*
X0170144Y0227331D01*
X0170297Y0227370D01*
X0170452Y0227406D01*
X0170607Y0227437D01*
X0170763Y0227465D01*
X0170919Y0227489D01*
X0171076Y0227509D01*
X0171234Y0227525D01*
X0171391Y0227537D01*
X0171550Y0227545D01*
X0171708Y0227549D01*
X0171866Y0227549D01*
X0172024Y0227545D01*
X0172183Y0227537D01*
X0172340Y0227525D01*
X0172498Y0227509D01*
X0172655Y0227489D01*
X0172811Y0227465D01*
X0172967Y0227437D01*
X0173122Y0227406D01*
X0173277Y0227370D01*
X0173430Y0227331D01*
X0173582Y0227288D01*
X0173733Y0227241D01*
X0173883Y0227190D01*
X0174032Y0227135D01*
X0174179Y0227077D01*
X0174325Y0227015D01*
X0174469Y0226950D01*
X0174611Y0226880D01*
X0174752Y0226808D01*
X0174891Y0226731D01*
X0175027Y0226652D01*
X0175162Y0226568D01*
X0175295Y0226482D01*
X0175425Y0226392D01*
X0175553Y0226299D01*
X0175679Y0226203D01*
X0175802Y0226103D01*
X0175923Y0226001D01*
X0176041Y0225896D01*
X0176156Y0225787D01*
X0176269Y0225676D01*
X0176379Y0225562D01*
X0176486Y0225445D01*
X0176590Y0225326D01*
X0176691Y0225204D01*
X0176788Y0225079D01*
X0176883Y0224952D01*
X0176974Y0224823D01*
X0177063Y0224692D01*
X0177147Y0224558D01*
X0177229Y0224422D01*
X0177307Y0224285D01*
X0177381Y0224145D01*
X0177452Y0224003D01*
X0177520Y0223860D01*
X0177584Y0223715D01*
X0177644Y0223569D01*
X0177700Y0223421D01*
X0177753Y0223272D01*
X0177802Y0223121D01*
X0177847Y0222969D01*
X0177888Y0222816D01*
X0177926Y0222663D01*
X0177959Y0222508D01*
X0177989Y0222352D01*
X0178015Y0222196D01*
X0178036Y0222039D01*
X0178054Y0221882D01*
X0178068Y0221724D01*
X0178078Y0221566D01*
X0178084Y0221408D01*
X0178086Y0221250D01*
X0178084Y0221092D01*
X0178078Y0220934D01*
X0178068Y0220776D01*
X0178054Y0220618D01*
X0178036Y0220461D01*
X0178015Y0220304D01*
X0177989Y0220148D01*
X0177959Y0219992D01*
X0177926Y0219837D01*
X0177888Y0219684D01*
X0177847Y0219531D01*
X0177802Y0219379D01*
X0177753Y0219228D01*
X0177700Y0219079D01*
X0177644Y0218931D01*
X0177584Y0218785D01*
X0177520Y0218640D01*
X0177452Y0218497D01*
X0177381Y0218355D01*
X0177307Y0218215D01*
X0177229Y0218078D01*
X0177147Y0217942D01*
X0177063Y0217808D01*
X0176974Y0217677D01*
X0176883Y0217548D01*
X0176788Y0217421D01*
X0176691Y0217296D01*
X0176590Y0217174D01*
X0176486Y0217055D01*
X0176379Y0216938D01*
X0176269Y0216824D01*
X0176156Y0216713D01*
X0176041Y0216604D01*
X0175923Y0216499D01*
X0175802Y0216397D01*
X0175679Y0216297D01*
X0175553Y0216201D01*
X0175425Y0216108D01*
X0175295Y0216018D01*
X0175162Y0215932D01*
X0175027Y0215848D01*
X0174891Y0215769D01*
X0174752Y0215692D01*
X0174611Y0215620D01*
X0174469Y0215550D01*
X0174325Y0215485D01*
X0174179Y0215423D01*
X0174032Y0215365D01*
X0173883Y0215310D01*
X0173733Y0215259D01*
X0173582Y0215212D01*
X0173430Y0215169D01*
X0173277Y0215130D01*
X0173122Y0215094D01*
X0172967Y0215063D01*
X0172811Y0215035D01*
X0172655Y0215011D01*
X0172498Y0214991D01*
X0172340Y0214975D01*
X0172183Y0214963D01*
X0172024Y0214955D01*
X0171866Y0214951D01*
X0171708Y0214951D01*
X0171550Y0214955D01*
X0171391Y0214963D01*
X0171234Y0214975D01*
X0171076Y0214991D01*
X0170919Y0215011D01*
X0170763Y0215035D01*
X0170607Y0215063D01*
X0170452Y0215094D01*
X0170297Y0215130D01*
X0170144Y0215169D01*
X0169992Y0215212D01*
X0169841Y0215259D01*
X0169691Y0215310D01*
X0169542Y0215365D01*
X0169395Y0215423D01*
X0169249Y0215485D01*
X0169105Y0215550D01*
X0168963Y0215620D01*
X0168822Y0215692D01*
X0168683Y0215769D01*
X0168547Y0215848D01*
X0168412Y0215932D01*
X0168279Y0216018D01*
X0168149Y0216108D01*
X0168021Y0216201D01*
X0167895Y0216297D01*
X0167772Y0216397D01*
X0167651Y0216499D01*
X0167533Y0216604D01*
X0167418Y0216713D01*
X0167305Y0216824D01*
X0167195Y0216938D01*
X0167088Y0217055D01*
X0166984Y0217174D01*
X0166883Y0217296D01*
X0166786Y0217421D01*
X0166691Y0217548D01*
X0166600Y0217677D01*
X0166511Y0217808D01*
X0166427Y0217942D01*
X0166345Y0218078D01*
X0166267Y0218215D01*
X0166193Y0218355D01*
X0166122Y0218497D01*
X0166054Y0218640D01*
X0165990Y0218785D01*
X0165930Y0218931D01*
X0165874Y0219079D01*
X0165821Y0219228D01*
X0165772Y0219379D01*
X0165727Y0219531D01*
X0165686Y0219684D01*
X0165648Y0219837D01*
X0165615Y0219992D01*
X0165585Y0220148D01*
X0165559Y0220304D01*
X0165538Y0220461D01*
X0165520Y0220618D01*
X0165506Y0220776D01*
X0165496Y0220934D01*
X0165490Y0221092D01*
X0165488Y0221250D01*
X0012791Y0196250D02*
X0012793Y0196411D01*
X0012799Y0196571D01*
X0012809Y0196732D01*
X0012823Y0196892D01*
X0012841Y0197051D01*
X0012862Y0197211D01*
X0012888Y0197369D01*
X0012918Y0197527D01*
X0012951Y0197684D01*
X0012989Y0197841D01*
X0013030Y0197996D01*
X0013075Y0198150D01*
X0013124Y0198303D01*
X0013177Y0198455D01*
X0013233Y0198605D01*
X0013293Y0198754D01*
X0013357Y0198902D01*
X0013424Y0199048D01*
X0013495Y0199192D01*
X0013570Y0199334D01*
X0013648Y0199475D01*
X0013729Y0199613D01*
X0013814Y0199750D01*
X0013903Y0199884D01*
X0013994Y0200016D01*
X0014089Y0200146D01*
X0014187Y0200273D01*
X0014288Y0200398D01*
X0014392Y0200521D01*
X0014499Y0200640D01*
X0014609Y0200757D01*
X0014722Y0200872D01*
X0014838Y0200983D01*
X0014956Y0201092D01*
X0015077Y0201197D01*
X0015201Y0201300D01*
X0015327Y0201400D01*
X0015456Y0201496D01*
X0015587Y0201589D01*
X0015720Y0201679D01*
X0015855Y0201766D01*
X0015993Y0201849D01*
X0016132Y0201928D01*
X0016274Y0202005D01*
X0016417Y0202078D01*
X0016562Y0202147D01*
X0016709Y0202212D01*
X0016857Y0202274D01*
X0017007Y0202333D01*
X0017158Y0202387D01*
X0017310Y0202438D01*
X0017464Y0202485D01*
X0017619Y0202528D01*
X0017774Y0202567D01*
X0017931Y0202603D01*
X0018089Y0202635D01*
X0018247Y0202662D01*
X0018406Y0202686D01*
X0018565Y0202706D01*
X0018725Y0202722D01*
X0018886Y0202734D01*
X0019046Y0202742D01*
X0019207Y0202746D01*
X0019367Y0202746D01*
X0019528Y0202742D01*
X0019688Y0202734D01*
X0019849Y0202722D01*
X0020009Y0202706D01*
X0020168Y0202686D01*
X0020327Y0202662D01*
X0020485Y0202635D01*
X0020643Y0202603D01*
X0020800Y0202567D01*
X0020955Y0202528D01*
X0021110Y0202485D01*
X0021264Y0202438D01*
X0021416Y0202387D01*
X0021567Y0202333D01*
X0021717Y0202274D01*
X0021865Y0202212D01*
X0022012Y0202147D01*
X0022157Y0202078D01*
X0022300Y0202005D01*
X0022442Y0201928D01*
X0022581Y0201849D01*
X0022719Y0201766D01*
X0022854Y0201679D01*
X0022987Y0201589D01*
X0023118Y0201496D01*
X0023247Y0201400D01*
X0023373Y0201300D01*
X0023497Y0201197D01*
X0023618Y0201092D01*
X0023736Y0200983D01*
X0023852Y0200872D01*
X0023965Y0200757D01*
X0024075Y0200640D01*
X0024182Y0200521D01*
X0024286Y0200398D01*
X0024387Y0200273D01*
X0024485Y0200146D01*
X0024580Y0200016D01*
X0024671Y0199884D01*
X0024760Y0199750D01*
X0024845Y0199613D01*
X0024926Y0199475D01*
X0025004Y0199334D01*
X0025079Y0199192D01*
X0025150Y0199048D01*
X0025217Y0198902D01*
X0025281Y0198754D01*
X0025341Y0198605D01*
X0025397Y0198455D01*
X0025450Y0198303D01*
X0025499Y0198150D01*
X0025544Y0197996D01*
X0025585Y0197841D01*
X0025623Y0197684D01*
X0025656Y0197527D01*
X0025686Y0197369D01*
X0025712Y0197211D01*
X0025733Y0197051D01*
X0025751Y0196892D01*
X0025765Y0196732D01*
X0025775Y0196571D01*
X0025781Y0196411D01*
X0025783Y0196250D01*
X0025781Y0196089D01*
X0025775Y0195929D01*
X0025765Y0195768D01*
X0025751Y0195608D01*
X0025733Y0195449D01*
X0025712Y0195289D01*
X0025686Y0195131D01*
X0025656Y0194973D01*
X0025623Y0194816D01*
X0025585Y0194659D01*
X0025544Y0194504D01*
X0025499Y0194350D01*
X0025450Y0194197D01*
X0025397Y0194045D01*
X0025341Y0193895D01*
X0025281Y0193746D01*
X0025217Y0193598D01*
X0025150Y0193452D01*
X0025079Y0193308D01*
X0025004Y0193166D01*
X0024926Y0193025D01*
X0024845Y0192887D01*
X0024760Y0192750D01*
X0024671Y0192616D01*
X0024580Y0192484D01*
X0024485Y0192354D01*
X0024387Y0192227D01*
X0024286Y0192102D01*
X0024182Y0191979D01*
X0024075Y0191860D01*
X0023965Y0191743D01*
X0023852Y0191628D01*
X0023736Y0191517D01*
X0023618Y0191408D01*
X0023497Y0191303D01*
X0023373Y0191200D01*
X0023247Y0191100D01*
X0023118Y0191004D01*
X0022987Y0190911D01*
X0022854Y0190821D01*
X0022719Y0190734D01*
X0022581Y0190651D01*
X0022442Y0190572D01*
X0022300Y0190495D01*
X0022157Y0190422D01*
X0022012Y0190353D01*
X0021865Y0190288D01*
X0021717Y0190226D01*
X0021567Y0190167D01*
X0021416Y0190113D01*
X0021264Y0190062D01*
X0021110Y0190015D01*
X0020955Y0189972D01*
X0020800Y0189933D01*
X0020643Y0189897D01*
X0020485Y0189865D01*
X0020327Y0189838D01*
X0020168Y0189814D01*
X0020009Y0189794D01*
X0019849Y0189778D01*
X0019688Y0189766D01*
X0019528Y0189758D01*
X0019367Y0189754D01*
X0019207Y0189754D01*
X0019046Y0189758D01*
X0018886Y0189766D01*
X0018725Y0189778D01*
X0018565Y0189794D01*
X0018406Y0189814D01*
X0018247Y0189838D01*
X0018089Y0189865D01*
X0017931Y0189897D01*
X0017774Y0189933D01*
X0017619Y0189972D01*
X0017464Y0190015D01*
X0017310Y0190062D01*
X0017158Y0190113D01*
X0017007Y0190167D01*
X0016857Y0190226D01*
X0016709Y0190288D01*
X0016562Y0190353D01*
X0016417Y0190422D01*
X0016274Y0190495D01*
X0016132Y0190572D01*
X0015993Y0190651D01*
X0015855Y0190734D01*
X0015720Y0190821D01*
X0015587Y0190911D01*
X0015456Y0191004D01*
X0015327Y0191100D01*
X0015201Y0191200D01*
X0015077Y0191303D01*
X0014956Y0191408D01*
X0014838Y0191517D01*
X0014722Y0191628D01*
X0014609Y0191743D01*
X0014499Y0191860D01*
X0014392Y0191979D01*
X0014288Y0192102D01*
X0014187Y0192227D01*
X0014089Y0192354D01*
X0013994Y0192484D01*
X0013903Y0192616D01*
X0013814Y0192750D01*
X0013729Y0192887D01*
X0013648Y0193025D01*
X0013570Y0193166D01*
X0013495Y0193308D01*
X0013424Y0193452D01*
X0013357Y0193598D01*
X0013293Y0193746D01*
X0013233Y0193895D01*
X0013177Y0194045D01*
X0013124Y0194197D01*
X0013075Y0194350D01*
X0013030Y0194504D01*
X0012989Y0194659D01*
X0012951Y0194816D01*
X0012918Y0194973D01*
X0012888Y0195131D01*
X0012862Y0195289D01*
X0012841Y0195449D01*
X0012823Y0195608D01*
X0012809Y0195768D01*
X0012799Y0195929D01*
X0012793Y0196089D01*
X0012791Y0196250D01*
M02*
