%
M48
M72
T01C0.0197
T02C0.0236
T03C0.0315
T04C0.0354
T05C0.0394
T06C0.0400
T07C0.0472
T08C0.1260
T09C0.1299
%
T01
X8179Y4375
X15679Y4375
X25929Y4375
X36429Y4375
X39429Y10125
X27929Y11125
X18429Y11125
X12929Y19875
X14179Y23625
X5179Y23625
X1929Y18125
X1929Y10125
X32679Y23625
X39429Y18125
T02
X31679Y15875
X30679Y17375
X23679Y18875
X24679Y21625
X19929Y15375
X19429Y12875
X18929Y10375
X16929Y6625
X16929Y5125
X8929Y9125
X7679Y12375
X11679Y16875
X8929Y18375
X11679Y20625
X27429Y12375
T03
X38679Y12625
X39679Y12625
X39679Y15875
X38679Y15875
T04
X34679Y20125
X34679Y21125
X30679Y21125
X30679Y20125
X27929Y7625
X27929Y5625
T05
X15179Y11375
X14179Y11375
X14179Y12375
X15179Y12375
X15179Y13375
X14179Y13375
X14179Y14375
X15179Y14375
X15179Y15375
X14179Y15375
X14179Y16375
X15179Y16375
X15179Y17375
X14179Y17375
X14179Y18375
X15179Y18375
X15179Y19375
X14179Y19375
X14179Y20375
X15179Y20375
X21679Y22625
X22679Y22625
X23679Y22625
X24679Y22625
X35929Y18375
X5179Y18375
X4179Y18375
X4179Y17375
X5179Y17375
X5179Y16375
X4179Y16375
X4179Y15375
X5179Y15375
X5179Y14375
X4179Y14375
X4179Y13375
X5179Y13375
X5179Y12375
X4179Y12375
X4179Y11375
X5179Y11375
X5179Y19375
X4179Y19375
X4179Y20375
X5179Y20375
T06
X32929Y18375
X33929Y18375
X34929Y18375
X34929Y17375
X35929Y17375
X33929Y17375
X32929Y17375
T07
X13929Y6375
X13929Y4875
T08
X17179Y10875
X29179Y10875
X29179Y22125
X17179Y22125
T09
X1929Y19625
X1929Y8625
X39429Y8625
X39429Y19625
M30
