%
M48
M72
T01C0.0197
T02C0.0354
T03C0.0394
T04C0.0400
T05C0.0472
T06C0.1299
%
T01
X17929Y10625
X21429Y11375
X23929Y11375
X28429Y10625
X25929Y14875
X24679Y15375
X26429Y15875
X22679Y16625
X21679Y17625
X23679Y19375
X25929Y19125
X26429Y19625
X27679Y18375
X17679Y13875
X12929Y19875
T02
X27929Y7625
X27929Y5625
T03
X29179Y14625
X29179Y15625
X29179Y16625
X29179Y17625
X35929Y18375
X24679Y22625
X23679Y22625
X22679Y22625
X21679Y22625
T04
X14179Y20375
X14179Y19375
X14179Y18375
X14179Y17375
X14179Y16375
X14179Y15375
X14179Y14375
X14179Y13375
X5179Y13375
X5179Y14375
X5179Y15375
X5179Y16375
X5179Y17375
X5179Y18375
X5179Y19375
X5179Y20375
X32929Y18375
X33929Y18375
X34929Y18375
X34929Y17375
X35929Y17375
X33929Y17375
X32929Y17375
T05
X14679Y6375
X14679Y4875
T06
X1929Y8625
X1929Y19625
X39429Y19625
X39429Y8625
M30
