G75*
%MOIN*%
%OFA0B0*%
%FSLAX25Y25*%
%IPPOS*%
%LPD*%
%AMOC8*
5,1,8,0,0,1.08239X$1,22.5*
%
%ADD10C,0.01500*%
%ADD11R,0.07000X0.07000*%
%ADD12C,0.07000*%
%ADD13R,0.07874X0.07874*%
%ADD14C,0.07874*%
%ADD15C,0.06299*%
%ADD16C,0.06000*%
%ADD17C,0.07085*%
%ADD18C,0.01575*%
%ADD19C,0.04331*%
%ADD20C,0.03150*%
D10*
X0177537Y0063418D02*
X0178955Y0062000D01*
X0181791Y0062000D01*
X0183209Y0063418D01*
X0183209Y0069089D01*
X0181791Y0070507D01*
X0178955Y0070507D01*
X0177537Y0069089D01*
X0177537Y0063418D01*
X0186745Y0062000D02*
X0190999Y0062000D01*
X0192417Y0063418D01*
X0192417Y0066254D01*
X0190999Y0067672D01*
X0186745Y0067672D01*
X0186745Y0059164D01*
X0195953Y0063418D02*
X0195953Y0066254D01*
X0197371Y0067672D01*
X0200207Y0067672D01*
X0201625Y0066254D01*
X0201625Y0064836D01*
X0195953Y0064836D01*
X0195953Y0063418D02*
X0197371Y0062000D01*
X0200207Y0062000D01*
X0205161Y0062000D02*
X0205161Y0067672D01*
X0209415Y0067672D01*
X0210832Y0066254D01*
X0210832Y0062000D01*
X0214369Y0062000D02*
X0218622Y0062000D01*
X0220040Y0063418D01*
X0220040Y0069089D01*
X0218622Y0070507D01*
X0214369Y0070507D01*
X0214369Y0062000D01*
X0226412Y0062000D02*
X0226412Y0070507D01*
X0223577Y0070507D02*
X0229248Y0070507D01*
X0232785Y0070507D02*
X0232785Y0063418D01*
X0234202Y0062000D01*
X0237038Y0062000D01*
X0238456Y0063418D01*
X0238456Y0070507D01*
D11*
X0359287Y0183750D03*
D12*
X0349287Y0183750D03*
X0339287Y0183750D03*
X0329287Y0183750D03*
X0329287Y0173750D03*
X0339287Y0173750D03*
X0349287Y0173750D03*
X0359287Y0173750D03*
D13*
X0216787Y0226250D03*
D14*
X0226787Y0226250D03*
X0236787Y0226250D03*
X0246787Y0226250D03*
D15*
X0291787Y0176250D03*
X0291787Y0166250D03*
X0291787Y0156250D03*
X0291787Y0146250D03*
X0279287Y0076250D03*
X0279287Y0056250D03*
D16*
X0141787Y0133750D03*
X0141787Y0143750D03*
X0141787Y0153750D03*
X0141787Y0163750D03*
X0141787Y0173750D03*
X0141787Y0183750D03*
X0141787Y0193750D03*
X0141787Y0203750D03*
X0051787Y0203750D03*
X0051787Y0193750D03*
X0051787Y0183750D03*
X0051787Y0173750D03*
X0051787Y0163750D03*
X0051787Y0153750D03*
X0051787Y0143750D03*
X0051787Y0133750D03*
D17*
X0146787Y0063750D03*
X0146787Y0048750D03*
D18*
X0078199Y0042263D02*
X0369947Y0042263D01*
X0369669Y0040690D02*
X0078636Y0040690D01*
X0078684Y0040518D02*
X0076636Y0047889D01*
X0073340Y0054792D01*
X0068894Y0061017D01*
X0068894Y0061017D01*
X0063436Y0066376D01*
X0063436Y0066376D01*
X0063436Y0066376D01*
X0057129Y0070706D01*
X0050167Y0073875D01*
X0050167Y0073875D01*
X0042760Y0075787D01*
X0042760Y0075787D01*
X0035133Y0076384D01*
X0031556Y0076037D01*
X0024166Y0076037D01*
X0026216Y0077221D01*
X0028316Y0079322D01*
X0029802Y0081895D01*
X0030571Y0084764D01*
X0030571Y0087735D01*
X0029802Y0090605D01*
X0028316Y0093178D01*
X0026216Y0095279D01*
X0023643Y0096765D01*
X0020773Y0097533D01*
X0017802Y0097533D01*
X0014932Y0096765D01*
X0012359Y0095279D01*
X0010258Y0093178D01*
X0008773Y0090605D01*
X0008004Y0087735D01*
X0008004Y0084764D01*
X0008773Y0081895D01*
X0010258Y0079322D01*
X0012359Y0077221D01*
X0014409Y0076037D01*
X0006575Y0076037D01*
X0006575Y0203963D01*
X0007768Y0203963D01*
X0011744Y0204664D01*
X0010258Y0203178D01*
X0008773Y0200605D01*
X0008004Y0197735D01*
X0008004Y0194764D01*
X0008773Y0191895D01*
X0010258Y0189322D01*
X0012359Y0187221D01*
X0014932Y0185735D01*
X0017802Y0184967D01*
X0020773Y0184967D01*
X0023643Y0185735D01*
X0026216Y0187221D01*
X0028316Y0189322D01*
X0029802Y0191895D01*
X0030571Y0194764D01*
X0030571Y0197735D01*
X0029802Y0200605D01*
X0028316Y0203178D01*
X0026216Y0205279D01*
X0023643Y0206765D01*
X0020969Y0207481D01*
X0021166Y0207553D01*
X0027196Y0211034D01*
X0032529Y0215509D01*
X0037004Y0220842D01*
X0040485Y0226871D01*
X0042866Y0233413D01*
X0044075Y0240269D01*
X0044075Y0241463D01*
X0062319Y0241463D01*
X0062319Y0210435D01*
X0063472Y0209281D01*
X0127603Y0209281D01*
X0128756Y0210435D01*
X0128756Y0241463D01*
X0334975Y0241463D01*
X0337005Y0233988D01*
X0340447Y0226672D01*
X0340447Y0226672D01*
X0345107Y0220065D01*
X0345107Y0220065D01*
X0350843Y0214367D01*
X0357482Y0209752D01*
X0364821Y0206360D01*
X0372638Y0204294D01*
X0380695Y0203616D01*
X0384505Y0203963D01*
X0386043Y0203963D01*
X0385258Y0203178D01*
X0383773Y0200605D01*
X0383004Y0197735D01*
X0383004Y0194764D01*
X0383773Y0191895D01*
X0385258Y0189322D01*
X0387359Y0187221D01*
X0389932Y0185735D01*
X0392802Y0184967D01*
X0395773Y0184967D01*
X0398643Y0185735D01*
X0401216Y0187221D01*
X0403316Y0189322D01*
X0404802Y0191895D01*
X0405571Y0194764D01*
X0405571Y0197735D01*
X0404802Y0200605D01*
X0403316Y0203178D01*
X0402532Y0203963D01*
X0407000Y0203963D01*
X0407000Y0076037D01*
X0405806Y0076037D01*
X0398950Y0074828D01*
X0392408Y0072447D01*
X0386379Y0068966D01*
X0381046Y0064491D01*
X0376571Y0059158D01*
X0373090Y0053129D01*
X0370709Y0046587D01*
X0369500Y0039731D01*
X0369500Y0038537D01*
X0078876Y0038537D01*
X0078684Y0040518D01*
X0078820Y0039117D02*
X0369500Y0039117D01*
X0370224Y0043837D02*
X0148885Y0043837D01*
X0148833Y0043810D02*
X0149581Y0044191D01*
X0150260Y0044684D01*
X0150853Y0045278D01*
X0151346Y0045956D01*
X0151727Y0046704D01*
X0151986Y0047502D01*
X0152118Y0048330D01*
X0152117Y0048356D01*
X0147181Y0048356D01*
X0147181Y0043420D01*
X0147207Y0043420D01*
X0148036Y0043551D01*
X0148833Y0043810D01*
X0147181Y0043837D02*
X0146394Y0043837D01*
X0146394Y0043420D02*
X0146394Y0048356D01*
X0147181Y0048356D01*
X0147181Y0049144D01*
X0146394Y0049144D01*
X0146394Y0054080D01*
X0146368Y0054080D01*
X0145539Y0053949D01*
X0144741Y0053690D01*
X0143994Y0053309D01*
X0143315Y0052816D01*
X0142722Y0052222D01*
X0142229Y0051544D01*
X0141848Y0050796D01*
X0141589Y0049998D01*
X0141457Y0049169D01*
X0141457Y0049144D01*
X0146394Y0049144D01*
X0146394Y0048356D01*
X0141457Y0048356D01*
X0141457Y0048330D01*
X0141589Y0047502D01*
X0141848Y0046704D01*
X0142229Y0045956D01*
X0142722Y0045278D01*
X0143315Y0044684D01*
X0143994Y0044191D01*
X0144741Y0043810D01*
X0145539Y0043551D01*
X0146368Y0043420D01*
X0146394Y0043420D01*
X0144690Y0043837D02*
X0077762Y0043837D01*
X0077325Y0045410D02*
X0142626Y0045410D01*
X0141757Y0046983D02*
X0076888Y0046983D01*
X0076636Y0047889D02*
X0076636Y0047889D01*
X0076317Y0048556D02*
X0146394Y0048556D01*
X0147181Y0048556D02*
X0371426Y0048556D01*
X0370853Y0046983D02*
X0151818Y0046983D01*
X0150949Y0045410D02*
X0370501Y0045410D01*
X0370709Y0046587D02*
X0370709Y0046587D01*
X0371998Y0050130D02*
X0151943Y0050130D01*
X0151986Y0049998D02*
X0151727Y0050796D01*
X0151346Y0051544D01*
X0150853Y0052222D01*
X0150260Y0052816D01*
X0149581Y0053309D01*
X0148833Y0053690D01*
X0148036Y0053949D01*
X0147207Y0054080D01*
X0147181Y0054080D01*
X0147181Y0049144D01*
X0152118Y0049144D01*
X0152118Y0049169D01*
X0151986Y0049998D01*
X0151230Y0051703D02*
X0277337Y0051703D01*
X0277392Y0051675D02*
X0278131Y0051435D01*
X0278899Y0051313D01*
X0279189Y0051313D01*
X0279189Y0056151D01*
X0279386Y0056151D01*
X0279386Y0051313D01*
X0279676Y0051313D01*
X0280443Y0051435D01*
X0281183Y0051675D01*
X0281875Y0052027D01*
X0282504Y0052484D01*
X0283053Y0053034D01*
X0283510Y0053662D01*
X0283863Y0054355D01*
X0284103Y0055094D01*
X0284224Y0055861D01*
X0284224Y0056152D01*
X0279386Y0056152D01*
X0279386Y0056348D01*
X0284224Y0056348D01*
X0284224Y0056639D01*
X0284103Y0057406D01*
X0283863Y0058145D01*
X0283510Y0058838D01*
X0283053Y0059466D01*
X0282504Y0060016D01*
X0281875Y0060473D01*
X0281183Y0060825D01*
X0280443Y0061065D01*
X0279676Y0061187D01*
X0279386Y0061187D01*
X0279386Y0056348D01*
X0279189Y0056348D01*
X0279189Y0056152D01*
X0274350Y0056152D01*
X0274350Y0055861D01*
X0274472Y0055094D01*
X0274712Y0054355D01*
X0275065Y0053662D01*
X0275522Y0053034D01*
X0276071Y0052484D01*
X0276700Y0052027D01*
X0277392Y0051675D01*
X0279189Y0051703D02*
X0279386Y0051703D01*
X0279386Y0053276D02*
X0279189Y0053276D01*
X0279189Y0054850D02*
X0279386Y0054850D01*
X0279189Y0056348D02*
X0274350Y0056348D01*
X0274350Y0056639D01*
X0274472Y0057406D01*
X0274712Y0058145D01*
X0275065Y0058838D01*
X0275522Y0059466D01*
X0276071Y0060016D01*
X0276700Y0060473D01*
X0277392Y0060825D01*
X0278131Y0061065D01*
X0278899Y0061187D01*
X0279189Y0061187D01*
X0279189Y0056348D01*
X0279189Y0056423D02*
X0279386Y0056423D01*
X0279386Y0057996D02*
X0279189Y0057996D01*
X0279189Y0059570D02*
X0279386Y0059570D01*
X0279386Y0061143D02*
X0279189Y0061143D01*
X0278621Y0061143D02*
X0246256Y0061143D01*
X0246256Y0062716D02*
X0379557Y0062716D01*
X0380877Y0064290D02*
X0375111Y0064290D01*
X0375103Y0064281D02*
X0376256Y0065435D01*
X0376256Y0109565D01*
X0375103Y0110718D01*
X0303472Y0110718D01*
X0302319Y0109565D01*
X0302319Y0065435D01*
X0303472Y0064281D01*
X0375103Y0064281D01*
X0376256Y0065863D02*
X0382681Y0065863D01*
X0381046Y0064491D02*
X0381046Y0064491D01*
X0381046Y0064491D01*
X0384556Y0067436D02*
X0376256Y0067436D01*
X0376256Y0069010D02*
X0386454Y0069010D01*
X0386379Y0068966D02*
X0386379Y0068966D01*
X0389179Y0070583D02*
X0376256Y0070583D01*
X0376256Y0072156D02*
X0391904Y0072156D01*
X0392408Y0072447D02*
X0392408Y0072447D01*
X0392802Y0074967D02*
X0395773Y0074967D01*
X0398643Y0075735D01*
X0401216Y0077221D01*
X0403316Y0079322D01*
X0404802Y0081895D01*
X0405571Y0084764D01*
X0405571Y0087735D01*
X0404802Y0090605D01*
X0403316Y0093178D01*
X0401216Y0095279D01*
X0398643Y0096765D01*
X0395773Y0097533D01*
X0392802Y0097533D01*
X0389932Y0096765D01*
X0387359Y0095279D01*
X0385258Y0093178D01*
X0383773Y0090605D01*
X0383004Y0087735D01*
X0383004Y0084764D01*
X0383773Y0081895D01*
X0385258Y0079322D01*
X0387359Y0077221D01*
X0389932Y0075735D01*
X0392802Y0074967D01*
X0391547Y0075303D02*
X0376256Y0075303D01*
X0376256Y0076876D02*
X0387956Y0076876D01*
X0386131Y0078449D02*
X0376256Y0078449D01*
X0376256Y0080023D02*
X0384854Y0080023D01*
X0383945Y0081596D02*
X0376256Y0081596D01*
X0376256Y0083169D02*
X0383431Y0083169D01*
X0383010Y0084743D02*
X0376256Y0084743D01*
X0376256Y0086316D02*
X0383004Y0086316D01*
X0383045Y0087889D02*
X0376256Y0087889D01*
X0376256Y0089463D02*
X0383467Y0089463D01*
X0384022Y0091036D02*
X0376256Y0091036D01*
X0376256Y0092609D02*
X0384930Y0092609D01*
X0386263Y0094183D02*
X0376256Y0094183D01*
X0376256Y0095756D02*
X0388185Y0095756D01*
X0392040Y0097329D02*
X0376256Y0097329D01*
X0376256Y0098903D02*
X0407000Y0098903D01*
X0407000Y0100476D02*
X0376256Y0100476D01*
X0376256Y0102049D02*
X0407000Y0102049D01*
X0407000Y0103622D02*
X0376256Y0103622D01*
X0376256Y0105196D02*
X0407000Y0105196D01*
X0407000Y0106769D02*
X0376256Y0106769D01*
X0376256Y0108342D02*
X0407000Y0108342D01*
X0407000Y0109916D02*
X0375906Y0109916D01*
X0396535Y0097329D02*
X0407000Y0097329D01*
X0407000Y0095756D02*
X0400390Y0095756D01*
X0402312Y0094183D02*
X0407000Y0094183D01*
X0407000Y0092609D02*
X0403645Y0092609D01*
X0404553Y0091036D02*
X0407000Y0091036D01*
X0407000Y0089463D02*
X0405108Y0089463D01*
X0405530Y0087889D02*
X0407000Y0087889D01*
X0407000Y0086316D02*
X0405571Y0086316D01*
X0405565Y0084743D02*
X0407000Y0084743D01*
X0407000Y0083169D02*
X0405143Y0083169D01*
X0404629Y0081596D02*
X0407000Y0081596D01*
X0407000Y0080023D02*
X0403721Y0080023D01*
X0402444Y0078449D02*
X0407000Y0078449D01*
X0407000Y0076876D02*
X0400618Y0076876D01*
X0401640Y0075303D02*
X0397028Y0075303D01*
X0395931Y0073729D02*
X0376256Y0073729D01*
X0378236Y0061143D02*
X0279954Y0061143D01*
X0282950Y0059570D02*
X0376916Y0059570D01*
X0376571Y0059158D02*
X0376571Y0059158D01*
X0375900Y0057996D02*
X0283911Y0057996D01*
X0284224Y0056423D02*
X0374992Y0056423D01*
X0374083Y0054850D02*
X0284023Y0054850D01*
X0283229Y0053276D02*
X0373175Y0053276D01*
X0373090Y0053129D02*
X0373090Y0053129D01*
X0372571Y0051703D02*
X0281238Y0051703D01*
X0275345Y0053276D02*
X0149625Y0053276D01*
X0147181Y0053276D02*
X0146394Y0053276D01*
X0146394Y0051703D02*
X0147181Y0051703D01*
X0147181Y0050130D02*
X0146394Y0050130D01*
X0143949Y0053276D02*
X0074063Y0053276D01*
X0073340Y0054792D02*
X0073340Y0054792D01*
X0073298Y0054850D02*
X0170404Y0054850D01*
X0170972Y0054281D02*
X0169819Y0055435D01*
X0169819Y0077065D01*
X0170972Y0078218D01*
X0245103Y0078218D01*
X0246256Y0077065D01*
X0246256Y0055435D01*
X0245103Y0054281D01*
X0170972Y0054281D01*
X0169819Y0056423D02*
X0072175Y0056423D01*
X0071051Y0057996D02*
X0169819Y0057996D01*
X0169819Y0059570D02*
X0150401Y0059570D01*
X0149909Y0059078D02*
X0151460Y0060628D01*
X0152299Y0062654D01*
X0152299Y0064846D01*
X0151460Y0066872D01*
X0150331Y0068001D01*
X0150331Y0129455D01*
X0149791Y0130757D01*
X0146756Y0133792D01*
X0146756Y0134738D01*
X0145999Y0136564D01*
X0144602Y0137962D01*
X0142776Y0138718D01*
X0140799Y0138718D01*
X0138973Y0137962D01*
X0137575Y0136564D01*
X0136819Y0134738D01*
X0136819Y0132762D01*
X0137575Y0130936D01*
X0138973Y0129538D01*
X0140799Y0128781D01*
X0141745Y0128781D01*
X0143244Y0127282D01*
X0143244Y0068001D01*
X0142115Y0066872D01*
X0141276Y0064846D01*
X0141276Y0062654D01*
X0142115Y0060628D01*
X0143666Y0059078D01*
X0145691Y0058239D01*
X0147884Y0058239D01*
X0149909Y0059078D01*
X0151673Y0061143D02*
X0169819Y0061143D01*
X0169819Y0062716D02*
X0152299Y0062716D01*
X0152299Y0064290D02*
X0169819Y0064290D01*
X0169819Y0065863D02*
X0151877Y0065863D01*
X0150895Y0067436D02*
X0169819Y0067436D01*
X0169819Y0069010D02*
X0150331Y0069010D01*
X0150331Y0070583D02*
X0169819Y0070583D01*
X0169819Y0072156D02*
X0150331Y0072156D01*
X0150331Y0073729D02*
X0169819Y0073729D01*
X0169819Y0075303D02*
X0150331Y0075303D01*
X0150331Y0076876D02*
X0169819Y0076876D01*
X0150331Y0078449D02*
X0274659Y0078449D01*
X0274948Y0079149D02*
X0274169Y0077268D01*
X0274169Y0075232D01*
X0274948Y0073351D01*
X0276388Y0071911D01*
X0278269Y0071132D01*
X0280305Y0071132D01*
X0282187Y0071911D01*
X0283626Y0073351D01*
X0284405Y0075232D01*
X0284405Y0077268D01*
X0283626Y0079149D01*
X0282187Y0080589D01*
X0280305Y0081368D01*
X0278269Y0081368D01*
X0276388Y0080589D01*
X0274948Y0079149D01*
X0275822Y0080023D02*
X0150331Y0080023D01*
X0150331Y0081596D02*
X0302319Y0081596D01*
X0302319Y0080023D02*
X0282753Y0080023D01*
X0283916Y0078449D02*
X0302319Y0078449D01*
X0302319Y0076876D02*
X0284405Y0076876D01*
X0284405Y0075303D02*
X0302319Y0075303D01*
X0302319Y0073729D02*
X0283783Y0073729D01*
X0282432Y0072156D02*
X0302319Y0072156D01*
X0302319Y0070583D02*
X0246256Y0070583D01*
X0246256Y0072156D02*
X0276143Y0072156D01*
X0274792Y0073729D02*
X0246256Y0073729D01*
X0246256Y0075303D02*
X0274169Y0075303D01*
X0274169Y0076876D02*
X0246256Y0076876D01*
X0246256Y0069010D02*
X0302319Y0069010D01*
X0302319Y0067436D02*
X0246256Y0067436D01*
X0246256Y0065863D02*
X0302319Y0065863D01*
X0303464Y0064290D02*
X0246256Y0064290D01*
X0246256Y0059570D02*
X0275625Y0059570D01*
X0274664Y0057996D02*
X0246256Y0057996D01*
X0246256Y0056423D02*
X0274350Y0056423D01*
X0274551Y0054850D02*
X0245671Y0054850D01*
X0302319Y0083169D02*
X0150331Y0083169D01*
X0150331Y0084743D02*
X0302319Y0084743D01*
X0302319Y0086316D02*
X0150331Y0086316D01*
X0150331Y0087889D02*
X0302319Y0087889D01*
X0302319Y0089463D02*
X0150331Y0089463D01*
X0150331Y0091036D02*
X0302319Y0091036D01*
X0302319Y0092609D02*
X0150331Y0092609D01*
X0150331Y0094183D02*
X0302319Y0094183D01*
X0302319Y0095756D02*
X0150331Y0095756D01*
X0150331Y0097329D02*
X0302319Y0097329D01*
X0302319Y0098903D02*
X0150331Y0098903D01*
X0150331Y0100476D02*
X0302319Y0100476D01*
X0302319Y0102049D02*
X0150331Y0102049D01*
X0150331Y0103622D02*
X0302319Y0103622D01*
X0302319Y0105196D02*
X0150331Y0105196D01*
X0150331Y0106769D02*
X0302319Y0106769D01*
X0302319Y0108342D02*
X0150331Y0108342D01*
X0150331Y0109916D02*
X0212742Y0109916D01*
X0213465Y0109616D02*
X0215110Y0109616D01*
X0216629Y0110245D01*
X0217792Y0111408D01*
X0218421Y0112928D01*
X0218421Y0113986D01*
X0219124Y0114689D01*
X0219543Y0115702D01*
X0219543Y0173160D01*
X0220292Y0173908D01*
X0220921Y0175428D01*
X0220921Y0177072D01*
X0220292Y0178592D01*
X0219543Y0179340D01*
X0219543Y0220344D01*
X0221540Y0220344D01*
X0222693Y0221498D01*
X0222693Y0221993D01*
X0223442Y0221244D01*
X0224031Y0220999D01*
X0224031Y0169340D01*
X0223283Y0168592D01*
X0222654Y0167072D01*
X0222654Y0165428D01*
X0223283Y0163908D01*
X0224446Y0162745D01*
X0225965Y0162116D01*
X0227024Y0162116D01*
X0236531Y0152608D01*
X0236531Y0116840D01*
X0235783Y0116092D01*
X0235154Y0114572D01*
X0235154Y0112928D01*
X0235783Y0111408D01*
X0236946Y0110245D01*
X0238465Y0109616D01*
X0240110Y0109616D01*
X0241629Y0110245D01*
X0242792Y0111408D01*
X0243421Y0112928D01*
X0243421Y0114572D01*
X0242792Y0116092D01*
X0242043Y0116840D01*
X0242043Y0154298D01*
X0241624Y0155311D01*
X0230921Y0166014D01*
X0230921Y0167072D01*
X0230292Y0168592D01*
X0229543Y0169340D01*
X0229543Y0220999D01*
X0230133Y0221244D01*
X0231787Y0222898D01*
X0233442Y0221244D01*
X0234031Y0220999D01*
X0234031Y0196840D01*
X0233283Y0196092D01*
X0232654Y0194572D01*
X0232654Y0192928D01*
X0233283Y0191408D01*
X0234446Y0190245D01*
X0235965Y0189616D01*
X0237610Y0189616D01*
X0238963Y0190177D01*
X0244031Y0185108D01*
X0244031Y0156840D01*
X0243283Y0156092D01*
X0242654Y0154572D01*
X0242654Y0152928D01*
X0243283Y0151408D01*
X0244446Y0150245D01*
X0245965Y0149616D01*
X0247610Y0149616D01*
X0249129Y0150245D01*
X0250292Y0151408D01*
X0250921Y0152928D01*
X0250921Y0154572D01*
X0250292Y0156092D01*
X0249543Y0156840D01*
X0249543Y0186798D01*
X0249124Y0187811D01*
X0241624Y0195311D01*
X0240848Y0196086D01*
X0239907Y0196476D01*
X0239543Y0196840D01*
X0239543Y0220999D01*
X0240133Y0221244D01*
X0241787Y0222898D01*
X0243442Y0221244D01*
X0245613Y0220344D01*
X0247962Y0220344D01*
X0250133Y0221244D01*
X0251794Y0222905D01*
X0252038Y0223494D01*
X0268146Y0223494D01*
X0274031Y0217608D01*
X0274031Y0186840D01*
X0273283Y0186092D01*
X0272654Y0184572D01*
X0272654Y0182928D01*
X0273283Y0181408D01*
X0274031Y0180660D01*
X0274031Y0148202D01*
X0274451Y0147189D01*
X0277726Y0143914D01*
X0278739Y0143494D01*
X0287389Y0143494D01*
X0287448Y0143351D01*
X0288888Y0141911D01*
X0290769Y0141132D01*
X0292805Y0141132D01*
X0294687Y0141911D01*
X0296126Y0143351D01*
X0296905Y0145232D01*
X0296905Y0147268D01*
X0296126Y0149149D01*
X0294687Y0150589D01*
X0293091Y0151250D01*
X0294687Y0151911D01*
X0296126Y0153351D01*
X0296905Y0155232D01*
X0296905Y0157268D01*
X0296126Y0159149D01*
X0294687Y0160589D01*
X0293091Y0161250D01*
X0294687Y0161911D01*
X0296126Y0163351D01*
X0296905Y0165232D01*
X0296905Y0167268D01*
X0296126Y0169149D01*
X0294687Y0170589D01*
X0293091Y0171250D01*
X0294687Y0171911D01*
X0296126Y0173351D01*
X0296905Y0175232D01*
X0296905Y0177268D01*
X0296126Y0179149D01*
X0294687Y0180589D01*
X0292805Y0181368D01*
X0290769Y0181368D01*
X0288888Y0180589D01*
X0287448Y0179149D01*
X0286669Y0177268D01*
X0286669Y0175232D01*
X0287448Y0173351D01*
X0288888Y0171911D01*
X0290484Y0171250D01*
X0288888Y0170589D01*
X0287448Y0169149D01*
X0286669Y0167268D01*
X0286669Y0165232D01*
X0287448Y0163351D01*
X0288888Y0161911D01*
X0290484Y0161250D01*
X0288888Y0160589D01*
X0287448Y0159149D01*
X0286669Y0157268D01*
X0286669Y0155232D01*
X0287448Y0153351D01*
X0288888Y0151911D01*
X0290484Y0151250D01*
X0288888Y0150589D01*
X0287448Y0149149D01*
X0287389Y0149006D01*
X0280429Y0149006D01*
X0279543Y0149892D01*
X0279543Y0180660D01*
X0280292Y0181408D01*
X0280921Y0182928D01*
X0280921Y0184572D01*
X0280292Y0186092D01*
X0279543Y0186840D01*
X0279543Y0219298D01*
X0279124Y0220311D01*
X0278348Y0221086D01*
X0270848Y0228586D01*
X0269836Y0229006D01*
X0252038Y0229006D01*
X0251794Y0229595D01*
X0250133Y0231256D01*
X0247962Y0232155D01*
X0245613Y0232155D01*
X0243442Y0231256D01*
X0241787Y0229602D01*
X0240133Y0231256D01*
X0237962Y0232155D01*
X0235613Y0232155D01*
X0233442Y0231256D01*
X0231787Y0229602D01*
X0230133Y0231256D01*
X0227962Y0232155D01*
X0225613Y0232155D01*
X0223442Y0231256D01*
X0222693Y0230507D01*
X0222693Y0231002D01*
X0221540Y0232155D01*
X0212035Y0232155D01*
X0210882Y0231002D01*
X0210882Y0221498D01*
X0212035Y0220344D01*
X0214031Y0220344D01*
X0214031Y0179340D01*
X0213283Y0178592D01*
X0212654Y0177072D01*
X0212654Y0175428D01*
X0213283Y0173908D01*
X0214031Y0173160D01*
X0214031Y0117884D01*
X0213465Y0117884D01*
X0211946Y0117255D01*
X0210783Y0116092D01*
X0210154Y0114572D01*
X0210154Y0112928D01*
X0210783Y0111408D01*
X0211946Y0110245D01*
X0213465Y0109616D01*
X0215833Y0109916D02*
X0237742Y0109916D01*
X0235749Y0111489D02*
X0217825Y0111489D01*
X0218421Y0113062D02*
X0235154Y0113062D01*
X0235180Y0114636D02*
X0219070Y0114636D01*
X0219543Y0116209D02*
X0235900Y0116209D01*
X0236531Y0117782D02*
X0219543Y0117782D01*
X0219543Y0119356D02*
X0236531Y0119356D01*
X0236531Y0120929D02*
X0219543Y0120929D01*
X0219543Y0122502D02*
X0236531Y0122502D01*
X0236531Y0124076D02*
X0219543Y0124076D01*
X0219543Y0125649D02*
X0236531Y0125649D01*
X0236531Y0127222D02*
X0219543Y0127222D01*
X0219543Y0128795D02*
X0236531Y0128795D01*
X0236531Y0130369D02*
X0219543Y0130369D01*
X0219543Y0131942D02*
X0236531Y0131942D01*
X0236531Y0133515D02*
X0219543Y0133515D01*
X0219543Y0135089D02*
X0236531Y0135089D01*
X0236531Y0136662D02*
X0219543Y0136662D01*
X0219543Y0138235D02*
X0236531Y0138235D01*
X0236531Y0139809D02*
X0219543Y0139809D01*
X0219543Y0141382D02*
X0236531Y0141382D01*
X0236531Y0142955D02*
X0219543Y0142955D01*
X0219543Y0144529D02*
X0236531Y0144529D01*
X0236531Y0146102D02*
X0219543Y0146102D01*
X0219543Y0147675D02*
X0236531Y0147675D01*
X0236531Y0149249D02*
X0219543Y0149249D01*
X0219543Y0150822D02*
X0236531Y0150822D01*
X0236531Y0152395D02*
X0219543Y0152395D01*
X0219543Y0153969D02*
X0235171Y0153969D01*
X0233598Y0155542D02*
X0219543Y0155542D01*
X0219543Y0157115D02*
X0232025Y0157115D01*
X0230451Y0158688D02*
X0219543Y0158688D01*
X0219543Y0160262D02*
X0228878Y0160262D01*
X0227305Y0161835D02*
X0219543Y0161835D01*
X0219543Y0163408D02*
X0223783Y0163408D01*
X0222838Y0164982D02*
X0219543Y0164982D01*
X0219543Y0166555D02*
X0222654Y0166555D01*
X0223091Y0168128D02*
X0219543Y0168128D01*
X0219543Y0169702D02*
X0224031Y0169702D01*
X0224031Y0171275D02*
X0219543Y0171275D01*
X0219543Y0172848D02*
X0224031Y0172848D01*
X0224031Y0174422D02*
X0220505Y0174422D01*
X0220921Y0175995D02*
X0224031Y0175995D01*
X0224031Y0177568D02*
X0220716Y0177568D01*
X0219742Y0179142D02*
X0224031Y0179142D01*
X0224031Y0180715D02*
X0219543Y0180715D01*
X0219543Y0182288D02*
X0224031Y0182288D01*
X0224031Y0183862D02*
X0219543Y0183862D01*
X0219543Y0185435D02*
X0224031Y0185435D01*
X0224031Y0187008D02*
X0219543Y0187008D01*
X0219543Y0188581D02*
X0224031Y0188581D01*
X0224031Y0190155D02*
X0219543Y0190155D01*
X0219543Y0191728D02*
X0224031Y0191728D01*
X0224031Y0193301D02*
X0219543Y0193301D01*
X0219543Y0194875D02*
X0224031Y0194875D01*
X0224031Y0196448D02*
X0219543Y0196448D01*
X0219543Y0198021D02*
X0224031Y0198021D01*
X0224031Y0199595D02*
X0219543Y0199595D01*
X0219543Y0201168D02*
X0224031Y0201168D01*
X0224031Y0202741D02*
X0219543Y0202741D01*
X0219543Y0204315D02*
X0224031Y0204315D01*
X0224031Y0205888D02*
X0219543Y0205888D01*
X0219543Y0207461D02*
X0224031Y0207461D01*
X0224031Y0209035D02*
X0219543Y0209035D01*
X0219543Y0210608D02*
X0224031Y0210608D01*
X0224031Y0212181D02*
X0219543Y0212181D01*
X0219543Y0213754D02*
X0224031Y0213754D01*
X0224031Y0215328D02*
X0219543Y0215328D01*
X0219543Y0216901D02*
X0224031Y0216901D01*
X0224031Y0218474D02*
X0219543Y0218474D01*
X0219543Y0220048D02*
X0224031Y0220048D01*
X0223065Y0221621D02*
X0222693Y0221621D01*
X0226787Y0226250D02*
X0226787Y0166250D01*
X0239287Y0153750D01*
X0239287Y0113750D01*
X0240833Y0109916D02*
X0302669Y0109916D01*
X0293409Y0141382D02*
X0407000Y0141382D01*
X0407000Y0139809D02*
X0242043Y0139809D01*
X0242043Y0141382D02*
X0290165Y0141382D01*
X0287844Y0142955D02*
X0242043Y0142955D01*
X0242043Y0144529D02*
X0277111Y0144529D01*
X0275538Y0146102D02*
X0262486Y0146102D01*
X0262792Y0146408D02*
X0261629Y0145245D01*
X0260110Y0144616D01*
X0258465Y0144616D01*
X0256946Y0145245D01*
X0255783Y0146408D01*
X0255154Y0147928D01*
X0255154Y0149572D01*
X0255783Y0151092D01*
X0256531Y0151840D01*
X0256531Y0188160D01*
X0255783Y0188908D01*
X0255154Y0190428D01*
X0255154Y0192072D01*
X0255783Y0193592D01*
X0256946Y0194755D01*
X0258465Y0195384D01*
X0260110Y0195384D01*
X0260185Y0195353D01*
X0260154Y0195428D01*
X0260154Y0197072D01*
X0260783Y0198592D01*
X0261946Y0199755D01*
X0263465Y0200384D01*
X0265110Y0200384D01*
X0266629Y0199755D01*
X0267792Y0198592D01*
X0268421Y0197072D01*
X0268421Y0195428D01*
X0267792Y0193908D01*
X0267043Y0193160D01*
X0267043Y0161840D01*
X0267792Y0161092D01*
X0268421Y0159572D01*
X0268421Y0157928D01*
X0267792Y0156408D01*
X0266629Y0155245D01*
X0265110Y0154616D01*
X0263465Y0154616D01*
X0262043Y0155205D01*
X0262043Y0151840D01*
X0262792Y0151092D01*
X0263421Y0149572D01*
X0263421Y0147928D01*
X0262792Y0146408D01*
X0263317Y0147675D02*
X0274250Y0147675D01*
X0274031Y0149249D02*
X0263421Y0149249D01*
X0262904Y0150822D02*
X0274031Y0150822D01*
X0274031Y0152395D02*
X0262043Y0152395D01*
X0262043Y0153969D02*
X0274031Y0153969D01*
X0274031Y0155542D02*
X0266925Y0155542D01*
X0268085Y0157115D02*
X0274031Y0157115D01*
X0274031Y0158688D02*
X0268421Y0158688D01*
X0268136Y0160262D02*
X0274031Y0160262D01*
X0274031Y0161835D02*
X0267048Y0161835D01*
X0267043Y0163408D02*
X0274031Y0163408D01*
X0274031Y0164982D02*
X0267043Y0164982D01*
X0267043Y0166555D02*
X0274031Y0166555D01*
X0274031Y0168128D02*
X0267043Y0168128D01*
X0267043Y0169702D02*
X0274031Y0169702D01*
X0274031Y0171275D02*
X0267043Y0171275D01*
X0267043Y0172848D02*
X0274031Y0172848D01*
X0274031Y0174422D02*
X0267043Y0174422D01*
X0267043Y0175995D02*
X0274031Y0175995D01*
X0274031Y0177568D02*
X0267043Y0177568D01*
X0267043Y0179142D02*
X0274031Y0179142D01*
X0273976Y0180715D02*
X0267043Y0180715D01*
X0267043Y0182288D02*
X0272918Y0182288D01*
X0272654Y0183862D02*
X0267043Y0183862D01*
X0267043Y0185435D02*
X0273011Y0185435D01*
X0274031Y0187008D02*
X0267043Y0187008D01*
X0267043Y0188581D02*
X0274031Y0188581D01*
X0274031Y0190155D02*
X0267043Y0190155D01*
X0267043Y0191728D02*
X0274031Y0191728D01*
X0274031Y0193301D02*
X0267185Y0193301D01*
X0268192Y0194875D02*
X0274031Y0194875D01*
X0274031Y0196448D02*
X0268421Y0196448D01*
X0268028Y0198021D02*
X0274031Y0198021D01*
X0274031Y0199595D02*
X0266789Y0199595D01*
X0264287Y0196250D02*
X0264287Y0158750D01*
X0256531Y0158688D02*
X0249543Y0158688D01*
X0249543Y0157115D02*
X0256531Y0157115D01*
X0256531Y0155542D02*
X0250520Y0155542D01*
X0250921Y0153969D02*
X0256531Y0153969D01*
X0256531Y0152395D02*
X0250701Y0152395D01*
X0249705Y0150822D02*
X0255671Y0150822D01*
X0255154Y0149249D02*
X0242043Y0149249D01*
X0242043Y0150822D02*
X0243869Y0150822D01*
X0242874Y0152395D02*
X0242043Y0152395D01*
X0242043Y0153969D02*
X0242654Y0153969D01*
X0243055Y0155542D02*
X0241393Y0155542D01*
X0239820Y0157115D02*
X0244031Y0157115D01*
X0244031Y0158688D02*
X0238246Y0158688D01*
X0236673Y0160262D02*
X0244031Y0160262D01*
X0244031Y0161835D02*
X0235100Y0161835D01*
X0233526Y0163408D02*
X0244031Y0163408D01*
X0244031Y0164982D02*
X0231953Y0164982D01*
X0230921Y0166555D02*
X0244031Y0166555D01*
X0244031Y0168128D02*
X0230484Y0168128D01*
X0229543Y0169702D02*
X0244031Y0169702D01*
X0244031Y0171275D02*
X0229543Y0171275D01*
X0229543Y0172848D02*
X0244031Y0172848D01*
X0244031Y0174422D02*
X0229543Y0174422D01*
X0229543Y0175995D02*
X0244031Y0175995D01*
X0244031Y0177568D02*
X0229543Y0177568D01*
X0229543Y0179142D02*
X0244031Y0179142D01*
X0244031Y0180715D02*
X0229543Y0180715D01*
X0229543Y0182288D02*
X0244031Y0182288D01*
X0244031Y0183862D02*
X0229543Y0183862D01*
X0229543Y0185435D02*
X0243705Y0185435D01*
X0242132Y0187008D02*
X0229543Y0187008D01*
X0229543Y0188581D02*
X0240559Y0188581D01*
X0238985Y0190155D02*
X0238910Y0190155D01*
X0234665Y0190155D02*
X0229543Y0190155D01*
X0229543Y0191728D02*
X0233150Y0191728D01*
X0232654Y0193301D02*
X0229543Y0193301D01*
X0229543Y0194875D02*
X0232779Y0194875D01*
X0233639Y0196448D02*
X0229543Y0196448D01*
X0229543Y0198021D02*
X0234031Y0198021D01*
X0234031Y0199595D02*
X0229543Y0199595D01*
X0229543Y0201168D02*
X0234031Y0201168D01*
X0234031Y0202741D02*
X0229543Y0202741D01*
X0229543Y0204315D02*
X0234031Y0204315D01*
X0234031Y0205888D02*
X0229543Y0205888D01*
X0229543Y0207461D02*
X0234031Y0207461D01*
X0234031Y0209035D02*
X0229543Y0209035D01*
X0229543Y0210608D02*
X0234031Y0210608D01*
X0234031Y0212181D02*
X0229543Y0212181D01*
X0229543Y0213754D02*
X0234031Y0213754D01*
X0234031Y0215328D02*
X0229543Y0215328D01*
X0229543Y0216901D02*
X0234031Y0216901D01*
X0234031Y0218474D02*
X0229543Y0218474D01*
X0229543Y0220048D02*
X0234031Y0220048D01*
X0233065Y0221621D02*
X0230510Y0221621D01*
X0236787Y0226250D02*
X0236787Y0193750D01*
X0239287Y0193750D01*
X0246787Y0186250D01*
X0246787Y0153750D01*
X0242043Y0147675D02*
X0255258Y0147675D01*
X0256089Y0146102D02*
X0242043Y0146102D01*
X0242043Y0138235D02*
X0407000Y0138235D01*
X0407000Y0136662D02*
X0242043Y0136662D01*
X0242043Y0135089D02*
X0407000Y0135089D01*
X0407000Y0133515D02*
X0242043Y0133515D01*
X0242043Y0131942D02*
X0407000Y0131942D01*
X0407000Y0130369D02*
X0242043Y0130369D01*
X0242043Y0128795D02*
X0407000Y0128795D01*
X0407000Y0127222D02*
X0242043Y0127222D01*
X0242043Y0125649D02*
X0407000Y0125649D01*
X0407000Y0124076D02*
X0242043Y0124076D01*
X0242043Y0122502D02*
X0407000Y0122502D01*
X0407000Y0120929D02*
X0242043Y0120929D01*
X0242043Y0119356D02*
X0407000Y0119356D01*
X0407000Y0117782D02*
X0242043Y0117782D01*
X0242675Y0116209D02*
X0407000Y0116209D01*
X0407000Y0114636D02*
X0243395Y0114636D01*
X0243421Y0113062D02*
X0407000Y0113062D01*
X0407000Y0111489D02*
X0242825Y0111489D01*
X0216787Y0116250D02*
X0214287Y0113750D01*
X0216787Y0116250D02*
X0216787Y0226250D01*
X0216787Y0176250D01*
X0213833Y0179142D02*
X0143645Y0179142D01*
X0142776Y0178781D02*
X0144602Y0179538D01*
X0145999Y0180936D01*
X0146756Y0182762D01*
X0146756Y0184738D01*
X0145999Y0186564D01*
X0144602Y0187962D01*
X0142776Y0188718D01*
X0140799Y0188718D01*
X0138973Y0187962D01*
X0137575Y0186564D01*
X0136819Y0184738D01*
X0136819Y0182762D01*
X0137575Y0180936D01*
X0138973Y0179538D01*
X0140799Y0178781D01*
X0142776Y0178781D01*
X0142776Y0178718D02*
X0140799Y0178718D01*
X0138973Y0177962D01*
X0137575Y0176564D01*
X0136819Y0174738D01*
X0136819Y0172762D01*
X0137575Y0170936D01*
X0138973Y0169538D01*
X0140799Y0168781D01*
X0142776Y0168781D01*
X0144602Y0169538D01*
X0145999Y0170936D01*
X0146756Y0172762D01*
X0146756Y0174738D01*
X0145999Y0176564D01*
X0144602Y0177962D01*
X0142776Y0178718D01*
X0144996Y0177568D02*
X0212859Y0177568D01*
X0212654Y0175995D02*
X0146235Y0175995D01*
X0146756Y0174422D02*
X0213070Y0174422D01*
X0214031Y0172848D02*
X0146756Y0172848D01*
X0146140Y0171275D02*
X0214031Y0171275D01*
X0214031Y0169702D02*
X0144766Y0169702D01*
X0144200Y0168128D02*
X0214031Y0168128D01*
X0214031Y0166555D02*
X0146003Y0166555D01*
X0145999Y0166564D02*
X0144602Y0167962D01*
X0142776Y0168718D01*
X0140799Y0168718D01*
X0138973Y0167962D01*
X0137575Y0166564D01*
X0136819Y0164738D01*
X0136819Y0162762D01*
X0137575Y0160936D01*
X0138973Y0159538D01*
X0140799Y0158781D01*
X0142776Y0158781D01*
X0144602Y0159538D01*
X0145999Y0160936D01*
X0146024Y0160994D01*
X0173146Y0160994D01*
X0174031Y0160108D01*
X0174031Y0141840D01*
X0173283Y0141092D01*
X0172654Y0139572D01*
X0172654Y0137928D01*
X0173283Y0136408D01*
X0174446Y0135245D01*
X0175965Y0134616D01*
X0177610Y0134616D01*
X0179129Y0135245D01*
X0180292Y0136408D01*
X0180921Y0137928D01*
X0180921Y0139572D01*
X0180292Y0141092D01*
X0179543Y0141840D01*
X0179543Y0161798D01*
X0179124Y0162811D01*
X0178348Y0163586D01*
X0175848Y0166086D01*
X0174836Y0166506D01*
X0146024Y0166506D01*
X0145999Y0166564D01*
X0141787Y0163750D02*
X0174287Y0163750D01*
X0176787Y0161250D01*
X0176787Y0138750D01*
X0174824Y0135089D02*
X0146611Y0135089D01*
X0147033Y0133515D02*
X0214031Y0133515D01*
X0214031Y0131942D02*
X0148606Y0131942D01*
X0149952Y0130369D02*
X0214031Y0130369D01*
X0214031Y0128795D02*
X0150331Y0128795D01*
X0150331Y0127222D02*
X0214031Y0127222D01*
X0214031Y0125649D02*
X0150331Y0125649D01*
X0150331Y0124076D02*
X0214031Y0124076D01*
X0214031Y0122502D02*
X0150331Y0122502D01*
X0150331Y0120929D02*
X0214031Y0120929D01*
X0214031Y0119356D02*
X0150331Y0119356D01*
X0150331Y0117782D02*
X0213220Y0117782D01*
X0210900Y0116209D02*
X0150331Y0116209D01*
X0150331Y0114636D02*
X0210180Y0114636D01*
X0210154Y0113062D02*
X0150331Y0113062D01*
X0150331Y0111489D02*
X0210749Y0111489D01*
X0214031Y0135089D02*
X0178751Y0135089D01*
X0180397Y0136662D02*
X0214031Y0136662D01*
X0214031Y0138235D02*
X0180921Y0138235D01*
X0180823Y0139809D02*
X0214031Y0139809D01*
X0214031Y0141382D02*
X0180002Y0141382D01*
X0179543Y0142955D02*
X0214031Y0142955D01*
X0214031Y0144529D02*
X0179543Y0144529D01*
X0179543Y0146102D02*
X0214031Y0146102D01*
X0214031Y0147675D02*
X0179543Y0147675D01*
X0179543Y0149249D02*
X0214031Y0149249D01*
X0214031Y0150822D02*
X0179543Y0150822D01*
X0179543Y0152395D02*
X0214031Y0152395D01*
X0214031Y0153969D02*
X0179543Y0153969D01*
X0179543Y0155542D02*
X0214031Y0155542D01*
X0214031Y0157115D02*
X0179543Y0157115D01*
X0179543Y0158688D02*
X0214031Y0158688D01*
X0214031Y0160262D02*
X0179543Y0160262D01*
X0179528Y0161835D02*
X0214031Y0161835D01*
X0214031Y0163408D02*
X0178526Y0163408D01*
X0176953Y0164982D02*
X0214031Y0164982D01*
X0214031Y0180715D02*
X0145779Y0180715D01*
X0146560Y0182288D02*
X0214031Y0182288D01*
X0214031Y0183862D02*
X0146756Y0183862D01*
X0146467Y0185435D02*
X0214031Y0185435D01*
X0214031Y0187008D02*
X0145556Y0187008D01*
X0144602Y0189538D02*
X0145999Y0190936D01*
X0146756Y0192762D01*
X0146756Y0194738D01*
X0145999Y0196564D01*
X0144602Y0197962D01*
X0142776Y0198718D01*
X0140799Y0198718D01*
X0138973Y0197962D01*
X0137575Y0196564D01*
X0136819Y0194738D01*
X0136819Y0192762D01*
X0137575Y0190936D01*
X0138973Y0189538D01*
X0140799Y0188781D01*
X0142776Y0188781D01*
X0144602Y0189538D01*
X0145219Y0190155D02*
X0214031Y0190155D01*
X0214031Y0191728D02*
X0146328Y0191728D01*
X0146756Y0193301D02*
X0214031Y0193301D01*
X0214031Y0194875D02*
X0146699Y0194875D01*
X0146048Y0196448D02*
X0214031Y0196448D01*
X0214031Y0198021D02*
X0144459Y0198021D01*
X0144602Y0199538D02*
X0145999Y0200936D01*
X0146756Y0202762D01*
X0146756Y0204738D01*
X0145999Y0206564D01*
X0144602Y0207962D01*
X0142776Y0208718D01*
X0140799Y0208718D01*
X0138973Y0207962D01*
X0137575Y0206564D01*
X0136819Y0204738D01*
X0136819Y0202762D01*
X0137575Y0200936D01*
X0138973Y0199538D01*
X0140799Y0198781D01*
X0142776Y0198781D01*
X0144602Y0199538D01*
X0144659Y0199595D02*
X0214031Y0199595D01*
X0214031Y0201168D02*
X0146096Y0201168D01*
X0146747Y0202741D02*
X0214031Y0202741D01*
X0214031Y0204315D02*
X0146756Y0204315D01*
X0146280Y0205888D02*
X0214031Y0205888D01*
X0214031Y0207461D02*
X0145103Y0207461D01*
X0138472Y0207461D02*
X0055103Y0207461D01*
X0054602Y0207962D02*
X0052776Y0208718D01*
X0050799Y0208718D01*
X0048973Y0207962D01*
X0047575Y0206564D01*
X0046819Y0204738D01*
X0046819Y0202762D01*
X0047575Y0200936D01*
X0048973Y0199538D01*
X0050799Y0198781D01*
X0052776Y0198781D01*
X0054602Y0199538D01*
X0055999Y0200936D01*
X0056756Y0202762D01*
X0056756Y0204738D01*
X0055999Y0206564D01*
X0054602Y0207962D01*
X0056280Y0205888D02*
X0137295Y0205888D01*
X0136819Y0204315D02*
X0056756Y0204315D01*
X0056747Y0202741D02*
X0128121Y0202741D01*
X0128465Y0202884D02*
X0126946Y0202255D01*
X0125783Y0201092D01*
X0125154Y0199572D01*
X0125154Y0197928D01*
X0125783Y0196408D01*
X0126531Y0195660D01*
X0126531Y0155702D01*
X0126951Y0154689D01*
X0129451Y0152189D01*
X0129451Y0152189D01*
X0130226Y0151414D01*
X0131239Y0150994D01*
X0137551Y0150994D01*
X0137575Y0150936D01*
X0138973Y0149538D01*
X0140799Y0148781D01*
X0142776Y0148781D01*
X0144602Y0149538D01*
X0145999Y0150936D01*
X0146756Y0152762D01*
X0146756Y0154738D01*
X0145999Y0156564D01*
X0144602Y0157962D01*
X0142776Y0158718D01*
X0140799Y0158718D01*
X0138973Y0157962D01*
X0137575Y0156564D01*
X0137551Y0156506D01*
X0132929Y0156506D01*
X0132043Y0157392D01*
X0132043Y0195660D01*
X0132792Y0196408D01*
X0133421Y0197928D01*
X0133421Y0199572D01*
X0132792Y0201092D01*
X0131629Y0202255D01*
X0130110Y0202884D01*
X0128465Y0202884D01*
X0130454Y0202741D02*
X0136827Y0202741D01*
X0137479Y0201168D02*
X0132716Y0201168D01*
X0133412Y0199595D02*
X0138916Y0199595D01*
X0139116Y0198021D02*
X0133421Y0198021D01*
X0132808Y0196448D02*
X0137527Y0196448D01*
X0136875Y0194875D02*
X0132043Y0194875D01*
X0132043Y0193301D02*
X0136819Y0193301D01*
X0137247Y0191728D02*
X0132043Y0191728D01*
X0132043Y0190155D02*
X0138356Y0190155D01*
X0140468Y0188581D02*
X0132043Y0188581D01*
X0132043Y0187008D02*
X0138019Y0187008D01*
X0137107Y0185435D02*
X0132043Y0185435D01*
X0132043Y0183862D02*
X0136819Y0183862D01*
X0137015Y0182288D02*
X0132043Y0182288D01*
X0132043Y0180715D02*
X0137796Y0180715D01*
X0139930Y0179142D02*
X0132043Y0179142D01*
X0132043Y0177568D02*
X0138579Y0177568D01*
X0137339Y0175995D02*
X0132043Y0175995D01*
X0132043Y0174422D02*
X0136819Y0174422D01*
X0136819Y0172848D02*
X0132043Y0172848D01*
X0132043Y0171275D02*
X0137435Y0171275D01*
X0138809Y0169702D02*
X0132043Y0169702D01*
X0132043Y0168128D02*
X0139374Y0168128D01*
X0137571Y0166555D02*
X0132043Y0166555D01*
X0132043Y0164982D02*
X0136920Y0164982D01*
X0136819Y0163408D02*
X0132043Y0163408D01*
X0132043Y0161835D02*
X0137203Y0161835D01*
X0138249Y0160262D02*
X0132043Y0160262D01*
X0132043Y0158688D02*
X0140727Y0158688D01*
X0142848Y0158688D02*
X0174031Y0158688D01*
X0174031Y0157115D02*
X0145449Y0157115D01*
X0146423Y0155542D02*
X0174031Y0155542D01*
X0174031Y0153969D02*
X0146756Y0153969D01*
X0146604Y0152395D02*
X0174031Y0152395D01*
X0174031Y0150822D02*
X0145886Y0150822D01*
X0143903Y0149249D02*
X0174031Y0149249D01*
X0174031Y0147675D02*
X0144530Y0147675D01*
X0144297Y0147845D02*
X0143625Y0148187D01*
X0142908Y0148420D01*
X0142164Y0148537D01*
X0142000Y0148537D01*
X0142000Y0143963D01*
X0141575Y0143963D01*
X0141575Y0148537D01*
X0141411Y0148537D01*
X0140666Y0148420D01*
X0139950Y0148187D01*
X0139278Y0147845D01*
X0138669Y0147402D01*
X0138136Y0146869D01*
X0137693Y0146259D01*
X0137351Y0145588D01*
X0137118Y0144871D01*
X0137000Y0144127D01*
X0137000Y0143963D01*
X0141575Y0143963D01*
X0141575Y0143537D01*
X0142000Y0143537D01*
X0142000Y0138963D01*
X0142164Y0138963D01*
X0142908Y0139080D01*
X0143625Y0139313D01*
X0144297Y0139655D01*
X0144906Y0140098D01*
X0145439Y0140631D01*
X0145882Y0141241D01*
X0146224Y0141912D01*
X0146457Y0142629D01*
X0146575Y0143373D01*
X0146575Y0143537D01*
X0142000Y0143537D01*
X0142000Y0143963D01*
X0146575Y0143963D01*
X0146575Y0144127D01*
X0146457Y0144871D01*
X0146224Y0145588D01*
X0145882Y0146259D01*
X0145439Y0146869D01*
X0144906Y0147402D01*
X0144297Y0147845D01*
X0142000Y0147675D02*
X0141575Y0147675D01*
X0141575Y0146102D02*
X0142000Y0146102D01*
X0142000Y0144529D02*
X0141575Y0144529D01*
X0141575Y0143537D02*
X0137000Y0143537D01*
X0137000Y0143373D01*
X0137118Y0142629D01*
X0137351Y0141912D01*
X0137693Y0141241D01*
X0138136Y0140631D01*
X0138669Y0140098D01*
X0139278Y0139655D01*
X0139950Y0139313D01*
X0140666Y0139080D01*
X0141411Y0138963D01*
X0141575Y0138963D01*
X0141575Y0143537D01*
X0141575Y0142955D02*
X0142000Y0142955D01*
X0142000Y0141382D02*
X0141575Y0141382D01*
X0141575Y0139809D02*
X0142000Y0139809D01*
X0143942Y0138235D02*
X0172654Y0138235D01*
X0172751Y0139809D02*
X0144507Y0139809D01*
X0145954Y0141382D02*
X0173573Y0141382D01*
X0174031Y0142955D02*
X0146509Y0142955D01*
X0146511Y0144529D02*
X0174031Y0144529D01*
X0174031Y0146102D02*
X0145962Y0146102D01*
X0139671Y0149249D02*
X0053903Y0149249D01*
X0054602Y0149538D02*
X0055999Y0150936D01*
X0056756Y0152762D01*
X0056756Y0154738D01*
X0055999Y0156564D01*
X0054602Y0157962D01*
X0052776Y0158718D01*
X0050799Y0158718D01*
X0048973Y0157962D01*
X0047575Y0156564D01*
X0046819Y0154738D01*
X0046819Y0152762D01*
X0047575Y0150936D01*
X0048973Y0149538D01*
X0050799Y0148781D01*
X0052776Y0148781D01*
X0054602Y0149538D01*
X0054602Y0147962D02*
X0052776Y0148718D01*
X0050799Y0148718D01*
X0048973Y0147962D01*
X0047575Y0146564D01*
X0046819Y0144738D01*
X0046819Y0142762D01*
X0047575Y0140936D01*
X0048973Y0139538D01*
X0050799Y0138781D01*
X0052776Y0138781D01*
X0054602Y0139538D01*
X0055999Y0140936D01*
X0056756Y0142762D01*
X0056756Y0144738D01*
X0055999Y0146564D01*
X0054602Y0147962D01*
X0054889Y0147675D02*
X0139045Y0147675D01*
X0137613Y0146102D02*
X0056191Y0146102D01*
X0056756Y0144529D02*
X0137064Y0144529D01*
X0137066Y0142955D02*
X0056756Y0142955D01*
X0056184Y0141382D02*
X0137621Y0141382D01*
X0139067Y0139809D02*
X0054873Y0139809D01*
X0053942Y0138235D02*
X0139633Y0138235D01*
X0137673Y0136662D02*
X0055902Y0136662D01*
X0055999Y0136564D02*
X0054602Y0137962D01*
X0052776Y0138718D01*
X0050799Y0138718D01*
X0048973Y0137962D01*
X0047575Y0136564D01*
X0046819Y0134738D01*
X0046819Y0132762D01*
X0047575Y0130936D01*
X0048973Y0129538D01*
X0050799Y0128781D01*
X0052776Y0128781D01*
X0054602Y0129538D01*
X0055999Y0130936D01*
X0056756Y0132762D01*
X0056756Y0134738D01*
X0055999Y0136564D01*
X0056611Y0135089D02*
X0136964Y0135089D01*
X0136819Y0133515D02*
X0056756Y0133515D01*
X0056416Y0131942D02*
X0137158Y0131942D01*
X0138142Y0130369D02*
X0055433Y0130369D01*
X0052809Y0128795D02*
X0140765Y0128795D01*
X0143244Y0127222D02*
X0006575Y0127222D01*
X0006575Y0125649D02*
X0143244Y0125649D01*
X0143244Y0124076D02*
X0006575Y0124076D01*
X0006575Y0122502D02*
X0143244Y0122502D01*
X0143244Y0120929D02*
X0006575Y0120929D01*
X0006575Y0119356D02*
X0143244Y0119356D01*
X0143244Y0117782D02*
X0006575Y0117782D01*
X0006575Y0116209D02*
X0143244Y0116209D01*
X0143244Y0114636D02*
X0006575Y0114636D01*
X0006575Y0113062D02*
X0143244Y0113062D01*
X0143244Y0111489D02*
X0006575Y0111489D01*
X0006575Y0109916D02*
X0143244Y0109916D01*
X0143244Y0108342D02*
X0006575Y0108342D01*
X0006575Y0106769D02*
X0143244Y0106769D01*
X0143244Y0105196D02*
X0006575Y0105196D01*
X0006575Y0103622D02*
X0143244Y0103622D01*
X0143244Y0102049D02*
X0006575Y0102049D01*
X0006575Y0100476D02*
X0143244Y0100476D01*
X0143244Y0098903D02*
X0006575Y0098903D01*
X0006575Y0097329D02*
X0017040Y0097329D01*
X0013185Y0095756D02*
X0006575Y0095756D01*
X0006575Y0094183D02*
X0011263Y0094183D01*
X0009930Y0092609D02*
X0006575Y0092609D01*
X0006575Y0091036D02*
X0009022Y0091036D01*
X0008467Y0089463D02*
X0006575Y0089463D01*
X0006575Y0087889D02*
X0008045Y0087889D01*
X0008004Y0086316D02*
X0006575Y0086316D01*
X0006575Y0084743D02*
X0008010Y0084743D01*
X0008431Y0083169D02*
X0006575Y0083169D01*
X0006575Y0081596D02*
X0008945Y0081596D01*
X0009854Y0080023D02*
X0006575Y0080023D01*
X0006575Y0078449D02*
X0011131Y0078449D01*
X0012956Y0076876D02*
X0006575Y0076876D01*
X0025618Y0076876D02*
X0143244Y0076876D01*
X0143244Y0075303D02*
X0044636Y0075303D01*
X0050487Y0073729D02*
X0143244Y0073729D01*
X0143244Y0072156D02*
X0053944Y0072156D01*
X0057129Y0070706D02*
X0057129Y0070706D01*
X0057309Y0070583D02*
X0143244Y0070583D01*
X0143244Y0069010D02*
X0059601Y0069010D01*
X0061892Y0067436D02*
X0142680Y0067436D01*
X0141697Y0065863D02*
X0063959Y0065863D01*
X0065561Y0064290D02*
X0141276Y0064290D01*
X0141276Y0062716D02*
X0067164Y0062716D01*
X0068766Y0061143D02*
X0141902Y0061143D01*
X0143174Y0059570D02*
X0069928Y0059570D01*
X0074815Y0051703D02*
X0142345Y0051703D01*
X0141631Y0050130D02*
X0075566Y0050130D01*
X0035133Y0076384D02*
X0035133Y0076384D01*
X0028721Y0080023D02*
X0143244Y0080023D01*
X0143244Y0081596D02*
X0029629Y0081596D01*
X0030143Y0083169D02*
X0143244Y0083169D01*
X0143244Y0084743D02*
X0030565Y0084743D01*
X0030571Y0086316D02*
X0143244Y0086316D01*
X0143244Y0087889D02*
X0030530Y0087889D01*
X0030108Y0089463D02*
X0143244Y0089463D01*
X0143244Y0091036D02*
X0029553Y0091036D01*
X0028645Y0092609D02*
X0143244Y0092609D01*
X0143244Y0094183D02*
X0027312Y0094183D01*
X0025390Y0095756D02*
X0143244Y0095756D01*
X0143244Y0097329D02*
X0021535Y0097329D01*
X0027444Y0078449D02*
X0143244Y0078449D01*
X0146394Y0046983D02*
X0147181Y0046983D01*
X0147181Y0045410D02*
X0146394Y0045410D01*
X0050765Y0128795D02*
X0006575Y0128795D01*
X0006575Y0130369D02*
X0048142Y0130369D01*
X0047158Y0131942D02*
X0006575Y0131942D01*
X0006575Y0133515D02*
X0046819Y0133515D01*
X0046964Y0135089D02*
X0006575Y0135089D01*
X0006575Y0136662D02*
X0047673Y0136662D01*
X0049633Y0138235D02*
X0006575Y0138235D01*
X0006575Y0139809D02*
X0048702Y0139809D01*
X0047390Y0141382D02*
X0006575Y0141382D01*
X0006575Y0142955D02*
X0046819Y0142955D01*
X0046819Y0144529D02*
X0006575Y0144529D01*
X0006575Y0146102D02*
X0047384Y0146102D01*
X0048686Y0147675D02*
X0006575Y0147675D01*
X0006575Y0149249D02*
X0049671Y0149249D01*
X0047689Y0150822D02*
X0006575Y0150822D01*
X0006575Y0152395D02*
X0046971Y0152395D01*
X0046819Y0153969D02*
X0006575Y0153969D01*
X0006575Y0155542D02*
X0047152Y0155542D01*
X0048126Y0157115D02*
X0006575Y0157115D01*
X0006575Y0158688D02*
X0050727Y0158688D01*
X0050799Y0158781D02*
X0048973Y0159538D01*
X0047575Y0160936D01*
X0046819Y0162762D01*
X0046819Y0164738D01*
X0047575Y0166564D01*
X0048973Y0167962D01*
X0050799Y0168718D01*
X0052776Y0168718D01*
X0054602Y0167962D01*
X0055999Y0166564D01*
X0056756Y0164738D01*
X0056756Y0162762D01*
X0055999Y0160936D01*
X0054602Y0159538D01*
X0052776Y0158781D01*
X0050799Y0158781D01*
X0052848Y0158688D02*
X0126531Y0158688D01*
X0126531Y0157115D02*
X0055449Y0157115D01*
X0056423Y0155542D02*
X0126598Y0155542D01*
X0127671Y0153969D02*
X0056756Y0153969D01*
X0056604Y0152395D02*
X0129245Y0152395D01*
X0131787Y0153750D02*
X0141787Y0153750D01*
X0137689Y0150822D02*
X0055886Y0150822D01*
X0055326Y0160262D02*
X0126531Y0160262D01*
X0126531Y0161835D02*
X0056372Y0161835D01*
X0056756Y0163408D02*
X0126531Y0163408D01*
X0126531Y0164982D02*
X0056655Y0164982D01*
X0056003Y0166555D02*
X0126531Y0166555D01*
X0126531Y0168128D02*
X0054200Y0168128D01*
X0054602Y0169538D02*
X0052776Y0168781D01*
X0050799Y0168781D01*
X0048973Y0169538D01*
X0047575Y0170936D01*
X0046819Y0172762D01*
X0046819Y0174738D01*
X0047575Y0176564D01*
X0048973Y0177962D01*
X0050799Y0178718D01*
X0052776Y0178718D01*
X0054602Y0177962D01*
X0055999Y0176564D01*
X0056756Y0174738D01*
X0056756Y0172762D01*
X0055999Y0170936D01*
X0054602Y0169538D01*
X0054766Y0169702D02*
X0126531Y0169702D01*
X0126531Y0171275D02*
X0056140Y0171275D01*
X0056756Y0172848D02*
X0126531Y0172848D01*
X0126531Y0174422D02*
X0056756Y0174422D01*
X0056235Y0175995D02*
X0126531Y0175995D01*
X0126531Y0177568D02*
X0054996Y0177568D01*
X0054602Y0179538D02*
X0052776Y0178781D01*
X0050799Y0178781D01*
X0048973Y0179538D01*
X0047575Y0180936D01*
X0046819Y0182762D01*
X0046819Y0184738D01*
X0047575Y0186564D01*
X0048973Y0187962D01*
X0050799Y0188718D01*
X0052776Y0188718D01*
X0054602Y0187962D01*
X0055999Y0186564D01*
X0056756Y0184738D01*
X0056756Y0182762D01*
X0055999Y0180936D01*
X0054602Y0179538D01*
X0053645Y0179142D02*
X0126531Y0179142D01*
X0126531Y0180715D02*
X0055779Y0180715D01*
X0056560Y0182288D02*
X0126531Y0182288D01*
X0126531Y0183862D02*
X0056756Y0183862D01*
X0056467Y0185435D02*
X0126531Y0185435D01*
X0126531Y0187008D02*
X0055556Y0187008D01*
X0054602Y0189538D02*
X0052776Y0188781D01*
X0050799Y0188781D01*
X0048973Y0189538D01*
X0047575Y0190936D01*
X0046819Y0192762D01*
X0046819Y0194738D01*
X0047575Y0196564D01*
X0048973Y0197962D01*
X0050799Y0198718D01*
X0052776Y0198718D01*
X0054602Y0197962D01*
X0055999Y0196564D01*
X0056756Y0194738D01*
X0056756Y0192762D01*
X0055999Y0190936D01*
X0054602Y0189538D01*
X0055219Y0190155D02*
X0126531Y0190155D01*
X0126531Y0191728D02*
X0056328Y0191728D01*
X0056756Y0193301D02*
X0126531Y0193301D01*
X0126531Y0194875D02*
X0056699Y0194875D01*
X0056048Y0196448D02*
X0125766Y0196448D01*
X0125154Y0198021D02*
X0054459Y0198021D01*
X0054659Y0199595D02*
X0125163Y0199595D01*
X0125859Y0201168D02*
X0056096Y0201168D01*
X0048916Y0199595D02*
X0030073Y0199595D01*
X0030494Y0198021D02*
X0049116Y0198021D01*
X0047527Y0196448D02*
X0030571Y0196448D01*
X0030571Y0194875D02*
X0046875Y0194875D01*
X0046819Y0193301D02*
X0030179Y0193301D01*
X0029706Y0191728D02*
X0047247Y0191728D01*
X0048356Y0190155D02*
X0028797Y0190155D01*
X0027576Y0188581D02*
X0050468Y0188581D01*
X0053107Y0188581D02*
X0126531Y0188581D01*
X0129287Y0198750D02*
X0129287Y0156250D01*
X0131787Y0153750D01*
X0132320Y0157115D02*
X0138126Y0157115D01*
X0145326Y0160262D02*
X0173878Y0160262D01*
X0173178Y0136662D02*
X0145902Y0136662D01*
X0143107Y0188581D02*
X0214031Y0188581D01*
X0239543Y0198021D02*
X0260547Y0198021D01*
X0260154Y0196448D02*
X0239975Y0196448D01*
X0242060Y0194875D02*
X0257236Y0194875D01*
X0255663Y0193301D02*
X0243633Y0193301D01*
X0245207Y0191728D02*
X0255154Y0191728D01*
X0255267Y0190155D02*
X0246780Y0190155D01*
X0248353Y0188581D02*
X0256110Y0188581D01*
X0256531Y0187008D02*
X0249456Y0187008D01*
X0249543Y0185435D02*
X0256531Y0185435D01*
X0256531Y0183862D02*
X0249543Y0183862D01*
X0249543Y0182288D02*
X0256531Y0182288D01*
X0256531Y0180715D02*
X0249543Y0180715D01*
X0249543Y0179142D02*
X0256531Y0179142D01*
X0256531Y0177568D02*
X0249543Y0177568D01*
X0249543Y0175995D02*
X0256531Y0175995D01*
X0256531Y0174422D02*
X0249543Y0174422D01*
X0249543Y0172848D02*
X0256531Y0172848D01*
X0256531Y0171275D02*
X0249543Y0171275D01*
X0249543Y0169702D02*
X0256531Y0169702D01*
X0256531Y0168128D02*
X0249543Y0168128D01*
X0249543Y0166555D02*
X0256531Y0166555D01*
X0256531Y0164982D02*
X0249543Y0164982D01*
X0249543Y0163408D02*
X0256531Y0163408D01*
X0256531Y0161835D02*
X0249543Y0161835D01*
X0249543Y0160262D02*
X0256531Y0160262D01*
X0259287Y0148750D02*
X0259287Y0191250D01*
X0261786Y0199595D02*
X0239543Y0199595D01*
X0239543Y0201168D02*
X0274031Y0201168D01*
X0274031Y0202741D02*
X0239543Y0202741D01*
X0239543Y0204315D02*
X0274031Y0204315D01*
X0274031Y0205888D02*
X0239543Y0205888D01*
X0239543Y0207461D02*
X0274031Y0207461D01*
X0274031Y0209035D02*
X0239543Y0209035D01*
X0239543Y0210608D02*
X0274031Y0210608D01*
X0274031Y0212181D02*
X0239543Y0212181D01*
X0239543Y0213754D02*
X0274031Y0213754D01*
X0274031Y0215328D02*
X0239543Y0215328D01*
X0239543Y0216901D02*
X0274031Y0216901D01*
X0273166Y0218474D02*
X0239543Y0218474D01*
X0239543Y0220048D02*
X0271592Y0220048D01*
X0270019Y0221621D02*
X0250510Y0221621D01*
X0251914Y0223194D02*
X0268446Y0223194D01*
X0269287Y0226250D02*
X0276787Y0218750D01*
X0276787Y0183750D01*
X0276787Y0148750D01*
X0279287Y0146250D01*
X0291787Y0146250D01*
X0296905Y0146102D02*
X0407000Y0146102D01*
X0407000Y0147675D02*
X0296737Y0147675D01*
X0296027Y0149249D02*
X0407000Y0149249D01*
X0407000Y0150822D02*
X0294124Y0150822D01*
X0295171Y0152395D02*
X0407000Y0152395D01*
X0407000Y0153969D02*
X0296382Y0153969D01*
X0296905Y0155542D02*
X0407000Y0155542D01*
X0407000Y0157115D02*
X0296905Y0157115D01*
X0296317Y0158688D02*
X0407000Y0158688D01*
X0407000Y0160262D02*
X0295014Y0160262D01*
X0294503Y0161835D02*
X0407000Y0161835D01*
X0407000Y0163408D02*
X0296150Y0163408D01*
X0296802Y0164982D02*
X0407000Y0164982D01*
X0407000Y0166555D02*
X0296905Y0166555D01*
X0296549Y0168128D02*
X0407000Y0168128D01*
X0407000Y0169702D02*
X0362973Y0169702D01*
X0362385Y0169114D02*
X0363923Y0170652D01*
X0364756Y0172662D01*
X0364756Y0174838D01*
X0363923Y0176848D01*
X0362385Y0178386D01*
X0362200Y0178463D01*
X0363023Y0178463D01*
X0363477Y0178584D01*
X0363885Y0178820D01*
X0364218Y0179153D01*
X0364453Y0179560D01*
X0364575Y0180015D01*
X0364575Y0183553D01*
X0359484Y0183553D01*
X0359484Y0183947D01*
X0359091Y0183947D01*
X0359091Y0189037D01*
X0355552Y0189037D01*
X0355097Y0188916D01*
X0354690Y0188680D01*
X0354357Y0188347D01*
X0354122Y0187940D01*
X0354000Y0187485D01*
X0354000Y0186663D01*
X0353923Y0186848D01*
X0352385Y0188386D01*
X0350375Y0189218D01*
X0348200Y0189218D01*
X0346190Y0188386D01*
X0344651Y0186848D01*
X0344287Y0185969D01*
X0343923Y0186848D01*
X0342385Y0188386D01*
X0340375Y0189218D01*
X0338200Y0189218D01*
X0336190Y0188386D01*
X0334651Y0186848D01*
X0334287Y0185969D01*
X0333923Y0186848D01*
X0332385Y0188386D01*
X0330375Y0189218D01*
X0328200Y0189218D01*
X0326190Y0188386D01*
X0324651Y0186848D01*
X0323819Y0184838D01*
X0323819Y0182662D01*
X0324651Y0180652D01*
X0326190Y0179114D01*
X0327069Y0178750D01*
X0326190Y0178386D01*
X0324651Y0176848D01*
X0323819Y0174838D01*
X0323819Y0172662D01*
X0324651Y0170652D01*
X0326190Y0169114D01*
X0328200Y0168281D01*
X0330375Y0168281D01*
X0332385Y0169114D01*
X0333923Y0170652D01*
X0334287Y0171531D01*
X0334651Y0170652D01*
X0336190Y0169114D01*
X0338200Y0168281D01*
X0340375Y0168281D01*
X0342385Y0169114D01*
X0343923Y0170652D01*
X0344287Y0171531D01*
X0344651Y0170652D01*
X0346190Y0169114D01*
X0348200Y0168281D01*
X0350375Y0168281D01*
X0352385Y0169114D01*
X0353923Y0170652D01*
X0354287Y0171531D01*
X0354651Y0170652D01*
X0356190Y0169114D01*
X0358200Y0168281D01*
X0360375Y0168281D01*
X0362385Y0169114D01*
X0364181Y0171275D02*
X0407000Y0171275D01*
X0407000Y0172848D02*
X0364756Y0172848D01*
X0364756Y0174422D02*
X0407000Y0174422D01*
X0407000Y0175995D02*
X0364277Y0175995D01*
X0363203Y0177568D02*
X0407000Y0177568D01*
X0407000Y0179142D02*
X0364207Y0179142D01*
X0364575Y0180715D02*
X0407000Y0180715D01*
X0407000Y0182288D02*
X0364575Y0182288D01*
X0364575Y0183947D02*
X0364575Y0187485D01*
X0364453Y0187940D01*
X0364218Y0188347D01*
X0363885Y0188680D01*
X0363477Y0188916D01*
X0363023Y0189037D01*
X0359484Y0189037D01*
X0359484Y0183947D01*
X0364575Y0183947D01*
X0364575Y0185435D02*
X0391054Y0185435D01*
X0387728Y0187008D02*
X0364575Y0187008D01*
X0363984Y0188581D02*
X0385999Y0188581D01*
X0384777Y0190155D02*
X0279543Y0190155D01*
X0279543Y0191728D02*
X0383869Y0191728D01*
X0383396Y0193301D02*
X0279543Y0193301D01*
X0279543Y0194875D02*
X0383004Y0194875D01*
X0383004Y0196448D02*
X0279543Y0196448D01*
X0279543Y0198021D02*
X0383081Y0198021D01*
X0383502Y0199595D02*
X0279543Y0199595D01*
X0279543Y0201168D02*
X0384098Y0201168D01*
X0385006Y0202741D02*
X0279543Y0202741D01*
X0279543Y0204315D02*
X0372559Y0204315D01*
X0372638Y0204294D02*
X0372638Y0204294D01*
X0366606Y0205888D02*
X0279543Y0205888D01*
X0279543Y0207461D02*
X0362438Y0207461D01*
X0364821Y0206360D02*
X0364821Y0206360D01*
X0359034Y0209035D02*
X0279543Y0209035D01*
X0279543Y0210608D02*
X0356250Y0210608D01*
X0357482Y0209752D02*
X0357482Y0209752D01*
X0353987Y0212181D02*
X0279543Y0212181D01*
X0279543Y0213754D02*
X0351724Y0213754D01*
X0350843Y0214367D02*
X0350843Y0214367D01*
X0349876Y0215328D02*
X0279543Y0215328D01*
X0279543Y0216901D02*
X0348292Y0216901D01*
X0346707Y0218474D02*
X0279543Y0218474D01*
X0279233Y0220048D02*
X0345123Y0220048D01*
X0344009Y0221621D02*
X0277814Y0221621D01*
X0276240Y0223194D02*
X0342899Y0223194D01*
X0341790Y0224768D02*
X0274667Y0224768D01*
X0273094Y0226341D02*
X0340680Y0226341D01*
X0339862Y0227914D02*
X0271521Y0227914D01*
X0269287Y0226250D02*
X0246787Y0226250D01*
X0251838Y0229488D02*
X0339122Y0229488D01*
X0338382Y0231061D02*
X0250328Y0231061D01*
X0243247Y0231061D02*
X0240328Y0231061D01*
X0233247Y0231061D02*
X0230328Y0231061D01*
X0223247Y0231061D02*
X0222634Y0231061D01*
X0210940Y0231061D02*
X0128756Y0231061D01*
X0128756Y0232634D02*
X0337642Y0232634D01*
X0337005Y0233988D02*
X0337005Y0233988D01*
X0336945Y0234208D02*
X0128756Y0234208D01*
X0128756Y0235781D02*
X0336518Y0235781D01*
X0336091Y0237354D02*
X0128756Y0237354D01*
X0128756Y0238928D02*
X0335663Y0238928D01*
X0335236Y0240501D02*
X0128756Y0240501D01*
X0128756Y0229488D02*
X0210882Y0229488D01*
X0210882Y0227914D02*
X0128756Y0227914D01*
X0128756Y0226341D02*
X0210882Y0226341D01*
X0210882Y0224768D02*
X0128756Y0224768D01*
X0128756Y0223194D02*
X0210882Y0223194D01*
X0210882Y0221621D02*
X0128756Y0221621D01*
X0128756Y0220048D02*
X0214031Y0220048D01*
X0214031Y0218474D02*
X0128756Y0218474D01*
X0128756Y0216901D02*
X0214031Y0216901D01*
X0214031Y0215328D02*
X0128756Y0215328D01*
X0128756Y0213754D02*
X0214031Y0213754D01*
X0214031Y0212181D02*
X0128756Y0212181D01*
X0128756Y0210608D02*
X0214031Y0210608D01*
X0214031Y0209035D02*
X0023733Y0209035D01*
X0021042Y0207461D02*
X0048472Y0207461D01*
X0047295Y0205888D02*
X0025161Y0205888D01*
X0027180Y0204315D02*
X0046819Y0204315D01*
X0046827Y0202741D02*
X0028569Y0202741D01*
X0029477Y0201168D02*
X0047479Y0201168D01*
X0062319Y0210608D02*
X0026458Y0210608D01*
X0028563Y0212181D02*
X0062319Y0212181D01*
X0062319Y0213754D02*
X0030438Y0213754D01*
X0032313Y0215328D02*
X0062319Y0215328D01*
X0062319Y0216901D02*
X0033697Y0216901D01*
X0032529Y0215509D02*
X0032529Y0215509D01*
X0035017Y0218474D02*
X0062319Y0218474D01*
X0062319Y0220048D02*
X0036338Y0220048D01*
X0037454Y0221621D02*
X0062319Y0221621D01*
X0062319Y0223194D02*
X0038362Y0223194D01*
X0039270Y0224768D02*
X0062319Y0224768D01*
X0062319Y0226341D02*
X0040179Y0226341D01*
X0040865Y0227914D02*
X0062319Y0227914D01*
X0062319Y0229488D02*
X0041437Y0229488D01*
X0042010Y0231061D02*
X0062319Y0231061D01*
X0062319Y0232634D02*
X0042582Y0232634D01*
X0042866Y0233413D02*
X0042866Y0233413D01*
X0043006Y0234208D02*
X0062319Y0234208D01*
X0062319Y0235781D02*
X0043283Y0235781D01*
X0043561Y0237354D02*
X0062319Y0237354D01*
X0062319Y0238928D02*
X0043838Y0238928D01*
X0044075Y0240501D02*
X0062319Y0240501D01*
X0011395Y0204315D02*
X0009765Y0204315D01*
X0010006Y0202741D02*
X0006575Y0202741D01*
X0006575Y0201168D02*
X0009098Y0201168D01*
X0008502Y0199595D02*
X0006575Y0199595D01*
X0006575Y0198021D02*
X0008081Y0198021D01*
X0008004Y0196448D02*
X0006575Y0196448D01*
X0006575Y0194875D02*
X0008004Y0194875D01*
X0008396Y0193301D02*
X0006575Y0193301D01*
X0006575Y0191728D02*
X0008869Y0191728D01*
X0009777Y0190155D02*
X0006575Y0190155D01*
X0006575Y0188581D02*
X0010999Y0188581D01*
X0012728Y0187008D02*
X0006575Y0187008D01*
X0006575Y0185435D02*
X0016054Y0185435D01*
X0022521Y0185435D02*
X0047107Y0185435D01*
X0046819Y0183862D02*
X0006575Y0183862D01*
X0006575Y0182288D02*
X0047015Y0182288D01*
X0047796Y0180715D02*
X0006575Y0180715D01*
X0006575Y0179142D02*
X0049930Y0179142D01*
X0048579Y0177568D02*
X0006575Y0177568D01*
X0006575Y0175995D02*
X0047339Y0175995D01*
X0046819Y0174422D02*
X0006575Y0174422D01*
X0006575Y0172848D02*
X0046819Y0172848D01*
X0047435Y0171275D02*
X0006575Y0171275D01*
X0006575Y0169702D02*
X0048809Y0169702D01*
X0049374Y0168128D02*
X0006575Y0168128D01*
X0006575Y0166555D02*
X0047571Y0166555D01*
X0046920Y0164982D02*
X0006575Y0164982D01*
X0006575Y0163408D02*
X0046819Y0163408D01*
X0047203Y0161835D02*
X0006575Y0161835D01*
X0006575Y0160262D02*
X0048249Y0160262D01*
X0048019Y0187008D02*
X0025847Y0187008D01*
X0240510Y0221621D02*
X0243065Y0221621D01*
X0279543Y0188581D02*
X0326662Y0188581D01*
X0324812Y0187008D02*
X0279543Y0187008D01*
X0280564Y0185435D02*
X0324066Y0185435D01*
X0323819Y0183862D02*
X0280921Y0183862D01*
X0280656Y0182288D02*
X0323974Y0182288D01*
X0324626Y0180715D02*
X0294382Y0180715D01*
X0296129Y0179142D02*
X0326162Y0179142D01*
X0325372Y0177568D02*
X0296781Y0177568D01*
X0296905Y0175995D02*
X0324298Y0175995D01*
X0323819Y0174422D02*
X0296570Y0174422D01*
X0295624Y0172848D02*
X0323819Y0172848D01*
X0324394Y0171275D02*
X0293151Y0171275D01*
X0290424Y0171275D02*
X0279543Y0171275D01*
X0279543Y0172848D02*
X0287951Y0172848D01*
X0287005Y0174422D02*
X0279543Y0174422D01*
X0279543Y0175995D02*
X0286669Y0175995D01*
X0286794Y0177568D02*
X0279543Y0177568D01*
X0279543Y0179142D02*
X0287445Y0179142D01*
X0289192Y0180715D02*
X0279598Y0180715D01*
X0279543Y0169702D02*
X0288001Y0169702D01*
X0287026Y0168128D02*
X0279543Y0168128D01*
X0279543Y0166555D02*
X0286669Y0166555D01*
X0286773Y0164982D02*
X0279543Y0164982D01*
X0279543Y0163408D02*
X0287425Y0163408D01*
X0289072Y0161835D02*
X0279543Y0161835D01*
X0279543Y0160262D02*
X0288561Y0160262D01*
X0287258Y0158688D02*
X0279543Y0158688D01*
X0279543Y0157115D02*
X0286669Y0157115D01*
X0286669Y0155542D02*
X0279543Y0155542D01*
X0279543Y0153969D02*
X0287193Y0153969D01*
X0288404Y0152395D02*
X0279543Y0152395D01*
X0279543Y0150822D02*
X0289451Y0150822D01*
X0287548Y0149249D02*
X0280186Y0149249D01*
X0295731Y0142955D02*
X0407000Y0142955D01*
X0407000Y0144529D02*
X0296614Y0144529D01*
X0295574Y0169702D02*
X0325602Y0169702D01*
X0332973Y0169702D02*
X0335602Y0169702D01*
X0334394Y0171275D02*
X0334181Y0171275D01*
X0342973Y0169702D02*
X0345602Y0169702D01*
X0344394Y0171275D02*
X0344181Y0171275D01*
X0352973Y0169702D02*
X0355602Y0169702D01*
X0354394Y0171275D02*
X0354181Y0171275D01*
X0359484Y0183862D02*
X0407000Y0183862D01*
X0407000Y0185435D02*
X0397521Y0185435D01*
X0400847Y0187008D02*
X0407000Y0187008D01*
X0407000Y0188581D02*
X0402576Y0188581D01*
X0403797Y0190155D02*
X0407000Y0190155D01*
X0407000Y0191728D02*
X0404706Y0191728D01*
X0405179Y0193301D02*
X0407000Y0193301D01*
X0407000Y0194875D02*
X0405571Y0194875D01*
X0405571Y0196448D02*
X0407000Y0196448D01*
X0407000Y0198021D02*
X0405494Y0198021D01*
X0405073Y0199595D02*
X0407000Y0199595D01*
X0407000Y0201168D02*
X0404477Y0201168D01*
X0403569Y0202741D02*
X0407000Y0202741D01*
X0380695Y0203616D02*
X0380695Y0203616D01*
X0359484Y0188581D02*
X0359091Y0188581D01*
X0359091Y0187008D02*
X0359484Y0187008D01*
X0359484Y0185435D02*
X0359091Y0185435D01*
X0354000Y0187008D02*
X0353763Y0187008D01*
X0354591Y0188581D02*
X0351913Y0188581D01*
X0346662Y0188581D02*
X0341913Y0188581D01*
X0343763Y0187008D02*
X0344812Y0187008D01*
X0336662Y0188581D02*
X0331913Y0188581D01*
X0333763Y0187008D02*
X0334812Y0187008D01*
X0398950Y0074828D02*
X0398950Y0074828D01*
D19*
X0284287Y0106250D03*
X0239287Y0113750D03*
X0214287Y0113750D03*
X0179287Y0106250D03*
X0176787Y0138750D03*
X0226787Y0166250D03*
X0216787Y0176250D03*
X0236787Y0193750D03*
X0259287Y0191250D03*
X0264287Y0196250D03*
X0276787Y0183750D03*
X0264287Y0158750D03*
X0246787Y0153750D03*
X0259287Y0148750D03*
X0129287Y0198750D03*
D20*
X0141787Y0133750D02*
X0146787Y0128750D01*
X0146787Y0063750D01*
M02*
