G75*
%MOIN*%
%OFA0B0*%
%FSLAX25Y25*%
%IPPOS*%
%LPD*%
%AMOC8*
5,1,8,0,0,1.08239X$1,22.5*
%
%ADD10C,0.13792*%
%ADD11C,0.13398*%
%ADD12R,0.08674X0.08674*%
%ADD13C,0.08674*%
%ADD14C,0.07099*%
%ADD15C,0.07885*%
%ADD16R,0.03300X0.05800*%
%ADD17C,0.07100*%
%ADD18R,0.07800X0.07800*%
%ADD19C,0.07800*%
%ADD20C,0.04762*%
%ADD21C,0.05131*%
D10*
X0019287Y0086250D03*
X0019287Y0196250D03*
X0394287Y0196250D03*
X0394287Y0086250D03*
D11*
X0291787Y0108750D03*
X0171787Y0108750D03*
X0171787Y0221250D03*
X0291787Y0221250D03*
D12*
X0216787Y0226250D03*
D13*
X0226787Y0226250D03*
X0236787Y0226250D03*
X0246787Y0226250D03*
D14*
X0151787Y0203750D03*
X0141787Y0203750D03*
X0141787Y0193750D03*
X0151787Y0193750D03*
X0151787Y0183750D03*
X0141787Y0183750D03*
X0141787Y0173750D03*
X0151787Y0173750D03*
X0151787Y0163750D03*
X0141787Y0163750D03*
X0141787Y0153750D03*
X0151787Y0153750D03*
X0151787Y0143750D03*
X0141787Y0143750D03*
X0141787Y0133750D03*
X0151787Y0133750D03*
X0151787Y0123750D03*
X0141787Y0123750D03*
X0141787Y0113750D03*
X0151787Y0113750D03*
X0051787Y0113750D03*
X0041787Y0113750D03*
X0041787Y0123750D03*
X0051787Y0123750D03*
X0051787Y0133750D03*
X0041787Y0133750D03*
X0041787Y0143750D03*
X0051787Y0143750D03*
X0051787Y0153750D03*
X0041787Y0153750D03*
X0041787Y0163750D03*
X0051787Y0163750D03*
X0051787Y0173750D03*
X0041787Y0173750D03*
X0041787Y0183750D03*
X0051787Y0183750D03*
X0051787Y0193750D03*
X0041787Y0193750D03*
X0041787Y0203750D03*
X0051787Y0203750D03*
X0281787Y0076250D03*
X0281787Y0056250D03*
X0386787Y0126250D03*
X0396787Y0126250D03*
X0396787Y0158750D03*
X0386787Y0158750D03*
D15*
X0139287Y0063750D03*
X0139287Y0048750D03*
D16*
X0184287Y0039281D03*
X0189287Y0039281D03*
X0194287Y0039281D03*
X0199287Y0039281D03*
X0204287Y0039281D03*
X0209287Y0039281D03*
X0241098Y0039281D03*
X0246492Y0039281D03*
X0251492Y0039281D03*
X0251492Y0098219D03*
X0246492Y0098219D03*
X0241098Y0098219D03*
X0209287Y0098219D03*
X0204287Y0098219D03*
X0199287Y0098219D03*
X0194287Y0098219D03*
X0189287Y0098219D03*
X0184287Y0098219D03*
D17*
X0306787Y0201250D03*
X0306787Y0211250D03*
X0346787Y0211250D03*
X0346787Y0201250D03*
D18*
X0359287Y0183750D03*
D19*
X0349287Y0183750D03*
X0339287Y0183750D03*
X0329287Y0183750D03*
X0329287Y0173750D03*
X0339287Y0173750D03*
X0349287Y0173750D03*
X0359287Y0173750D03*
D20*
X0316787Y0158750D03*
X0306787Y0173750D03*
X0251787Y0216250D03*
X0236787Y0188750D03*
X0199287Y0153750D03*
X0194287Y0128750D03*
X0189287Y0103750D03*
X0169287Y0066250D03*
X0169287Y0051250D03*
X0089287Y0091250D03*
X0076787Y0123750D03*
X0116787Y0168750D03*
X0089287Y0183750D03*
X0116787Y0206250D03*
X0274287Y0123750D03*
D21*
X0081787Y0043750D03*
X0156787Y0043750D03*
X0259287Y0043750D03*
X0364287Y0043750D03*
X0394287Y0101250D03*
X0279287Y0111250D03*
X0184287Y0111250D03*
X0129287Y0198750D03*
X0141787Y0236250D03*
X0051787Y0236250D03*
X0019287Y0181250D03*
X0019287Y0101250D03*
X0326787Y0236250D03*
X0394287Y0181250D03*
M02*
