G75*
%MOIN*%
%OFA0B0*%
%FSLAX25Y25*%
%IPPOS*%
%LPD*%
%AMOC8*
5,1,8,0,0,1.08239X$1,22.5*
%
%ADD10C,0.00800*%
%ADD11R,0.07874X0.07874*%
%ADD12C,0.07874*%
%ADD13R,0.04600X0.06300*%
%ADD14C,0.06299*%
%ADD15C,0.07085*%
%ADD16C,0.06300*%
%ADD17R,0.07000X0.07000*%
%ADD18C,0.07000*%
%ADD19C,0.01600*%
%ADD20C,0.03962*%
%ADD21C,0.03200*%
%ADD22C,0.04331*%
%ADD23C,0.01575*%
D10*
X0069105Y0073638D02*
X0070677Y0073638D01*
X0071463Y0074424D01*
X0068319Y0077568D01*
X0068319Y0074424D01*
X0069105Y0073638D01*
X0071463Y0074424D02*
X0071463Y0077568D01*
X0070677Y0078354D01*
X0069105Y0078354D01*
X0068319Y0077568D01*
X0073214Y0074424D02*
X0073214Y0073638D01*
X0074000Y0073638D01*
X0074000Y0074424D01*
X0073214Y0074424D01*
X0075932Y0075996D02*
X0079075Y0075996D01*
X0076718Y0078354D01*
X0076718Y0073638D01*
X0086082Y0073638D02*
X0086082Y0076782D01*
X0087654Y0078354D01*
X0089226Y0076782D01*
X0089226Y0073638D01*
X0091157Y0074424D02*
X0091943Y0073638D01*
X0093515Y0073638D01*
X0094301Y0074424D01*
X0093515Y0075996D02*
X0091943Y0075996D01*
X0091157Y0075210D01*
X0091157Y0074424D01*
X0089226Y0075996D02*
X0086082Y0075996D01*
X0091157Y0077568D02*
X0091943Y0078354D01*
X0093515Y0078354D01*
X0094301Y0077568D01*
X0094301Y0076782D01*
X0093515Y0075996D01*
X0096232Y0075996D02*
X0099376Y0075996D01*
X0101308Y0074424D02*
X0102094Y0073638D01*
X0103666Y0073638D01*
X0104451Y0074424D01*
X0104451Y0077568D01*
X0103666Y0078354D01*
X0102094Y0078354D01*
X0101308Y0077568D01*
X0106383Y0078354D02*
X0106383Y0073638D01*
X0109527Y0078354D01*
X0109527Y0073638D01*
X0111458Y0075996D02*
X0114602Y0075996D01*
X0116533Y0077568D02*
X0116533Y0078354D01*
X0116533Y0077568D02*
X0118105Y0075996D01*
X0118105Y0073638D01*
X0118105Y0075996D02*
X0119677Y0077568D01*
X0119677Y0078354D01*
X0121608Y0077568D02*
X0121608Y0076782D01*
X0122394Y0075996D01*
X0124752Y0075996D01*
X0122394Y0075996D02*
X0121608Y0075210D01*
X0121608Y0074424D01*
X0122394Y0073638D01*
X0124752Y0073638D01*
X0124752Y0078354D01*
X0122394Y0078354D01*
X0121608Y0077568D01*
X0131759Y0077568D02*
X0132545Y0078354D01*
X0134117Y0078354D01*
X0134903Y0077568D01*
X0134903Y0074424D01*
X0134117Y0073638D01*
X0132545Y0073638D01*
X0131759Y0074424D01*
X0136834Y0074424D02*
X0137620Y0073638D01*
X0139192Y0073638D01*
X0139978Y0074424D01*
X0139978Y0077568D01*
X0139192Y0078354D01*
X0137620Y0078354D01*
X0136834Y0077568D01*
D11*
X0216787Y0226250D03*
D12*
X0226787Y0226250D03*
X0236787Y0226250D03*
X0246787Y0226250D03*
D13*
X0258287Y0216250D03*
X0264287Y0216250D03*
X0270287Y0216250D03*
X0202787Y0216250D03*
X0196787Y0216250D03*
X0190787Y0216250D03*
D14*
X0151787Y0203750D03*
X0141787Y0203750D03*
X0141787Y0193750D03*
X0151787Y0193750D03*
X0151787Y0183750D03*
X0141787Y0183750D03*
X0141787Y0173750D03*
X0151787Y0173750D03*
X0151787Y0163750D03*
X0141787Y0163750D03*
X0141787Y0153750D03*
X0151787Y0153750D03*
X0151787Y0143750D03*
X0141787Y0143750D03*
X0141787Y0133750D03*
X0151787Y0133750D03*
X0151787Y0123750D03*
X0141787Y0123750D03*
X0141787Y0113750D03*
X0151787Y0113750D03*
X0051787Y0113750D03*
X0041787Y0113750D03*
X0041787Y0123750D03*
X0051787Y0123750D03*
X0051787Y0133750D03*
X0041787Y0133750D03*
X0041787Y0143750D03*
X0051787Y0143750D03*
X0051787Y0153750D03*
X0041787Y0153750D03*
X0041787Y0163750D03*
X0051787Y0163750D03*
X0051787Y0173750D03*
X0041787Y0173750D03*
X0041787Y0183750D03*
X0051787Y0183750D03*
X0051787Y0193750D03*
X0041787Y0193750D03*
X0041787Y0203750D03*
X0051787Y0203750D03*
X0281787Y0076250D03*
X0281787Y0056250D03*
X0386787Y0126250D03*
X0396787Y0126250D03*
X0396787Y0158750D03*
X0386787Y0158750D03*
D15*
X0139287Y0063750D03*
X0139287Y0048750D03*
D16*
X0306787Y0201250D03*
X0306787Y0211250D03*
X0346787Y0211250D03*
X0346787Y0201250D03*
D17*
X0359287Y0183750D03*
D18*
X0349287Y0183750D03*
X0339287Y0183750D03*
X0329287Y0183750D03*
X0329287Y0173750D03*
X0339287Y0173750D03*
X0349287Y0173750D03*
X0359287Y0173750D03*
D19*
X0349287Y0173750D02*
X0349287Y0148750D01*
X0344287Y0143750D01*
X0216787Y0143750D01*
X0211787Y0138750D01*
X0134287Y0138750D01*
X0129287Y0133750D01*
X0074287Y0133750D01*
X0064287Y0143750D01*
X0051787Y0143750D01*
X0046787Y0138750D02*
X0041787Y0143750D01*
X0046787Y0138750D02*
X0046787Y0093750D01*
X0056787Y0083750D01*
X0156787Y0083750D01*
X0159287Y0081250D01*
X0159287Y0061250D01*
X0169287Y0051250D01*
X0169287Y0066250D02*
X0164287Y0071250D01*
X0164287Y0086250D01*
X0161787Y0088750D01*
X0091787Y0088750D01*
X0089287Y0091250D01*
X0076787Y0123750D02*
X0124287Y0123750D01*
X0129287Y0128750D01*
X0194287Y0128750D01*
X0199287Y0153750D02*
X0151787Y0153750D01*
X0141787Y0163750D02*
X0146787Y0168750D01*
X0326787Y0168750D01*
X0329287Y0171250D01*
X0329287Y0173750D01*
X0339287Y0173750D02*
X0339287Y0161250D01*
X0326787Y0148750D01*
X0069287Y0148750D01*
X0064287Y0153750D01*
X0051787Y0153750D01*
X0051787Y0163750D02*
X0066787Y0163750D01*
X0071787Y0158750D01*
X0316787Y0158750D01*
X0306787Y0173750D02*
X0151787Y0173750D01*
X0141787Y0183750D02*
X0141787Y0186250D01*
X0144287Y0188750D01*
X0236787Y0188750D01*
X0258287Y0216250D02*
X0259287Y0216250D01*
X0289287Y0188750D02*
X0294287Y0193750D01*
X0334287Y0193750D01*
X0339287Y0188750D01*
X0339287Y0183750D01*
X0349287Y0183750D02*
X0349287Y0188750D01*
X0331787Y0206250D01*
X0304287Y0206250D01*
X0299287Y0201250D01*
X0166787Y0201250D01*
X0164287Y0198750D01*
X0129287Y0198750D01*
X0119287Y0208750D02*
X0116787Y0206250D01*
X0119287Y0208750D02*
X0299287Y0208750D01*
X0301787Y0211250D01*
X0306787Y0211250D01*
X0289287Y0188750D02*
X0289287Y0181250D01*
X0286787Y0178750D01*
X0126787Y0178750D01*
X0121787Y0173750D01*
X0051787Y0173750D01*
X0046787Y0168750D02*
X0116787Y0168750D01*
X0089287Y0183750D02*
X0051787Y0183750D01*
X0046787Y0168750D02*
X0041787Y0163750D01*
X0346787Y0201250D02*
X0354287Y0201250D01*
X0379287Y0176250D01*
X0379287Y0128750D01*
X0381787Y0126250D01*
X0386787Y0126250D01*
X0386787Y0158750D02*
X0386787Y0178750D01*
X0354287Y0211250D01*
X0346787Y0211250D01*
D20*
X0306787Y0173750D03*
X0316787Y0158750D03*
X0274287Y0123750D03*
X0199287Y0153750D03*
X0194287Y0128750D03*
X0189287Y0103750D03*
X0169287Y0066250D03*
X0169287Y0051250D03*
X0089287Y0091250D03*
X0076787Y0123750D03*
X0116787Y0168750D03*
X0089287Y0183750D03*
X0116787Y0206250D03*
X0236787Y0188750D03*
X0251787Y0216250D03*
D21*
X0258287Y0216250D01*
X0264287Y0216250D02*
X0264287Y0233750D01*
X0261787Y0236250D01*
X0229287Y0236250D01*
X0226787Y0233750D01*
X0226787Y0226250D01*
X0216787Y0226250D02*
X0199287Y0226250D01*
X0196787Y0223750D01*
X0196787Y0216250D01*
X0202787Y0216250D02*
X0251787Y0216250D01*
X0359287Y0173750D02*
X0359287Y0128750D01*
X0354287Y0123750D01*
X0274287Y0123750D01*
X0271787Y0121250D01*
X0271787Y0083750D01*
X0279287Y0083750D01*
X0281787Y0081250D01*
X0281787Y0076250D01*
X0271787Y0083750D02*
X0189287Y0083750D01*
X0189287Y0103750D01*
X0174287Y0083750D02*
X0159287Y0098750D01*
X0069287Y0098750D01*
X0066787Y0101250D01*
X0066787Y0126250D01*
X0059287Y0133750D01*
X0051787Y0133750D01*
X0174287Y0083750D02*
X0189287Y0083750D01*
D22*
X0184287Y0111250D03*
X0279287Y0111250D03*
X0259287Y0043750D03*
X0156787Y0043750D03*
X0081787Y0043750D03*
X0019287Y0101250D03*
X0019287Y0181250D03*
X0051787Y0236250D03*
X0129287Y0198750D03*
X0141787Y0236250D03*
X0326787Y0236250D03*
X0394287Y0181250D03*
X0394287Y0101250D03*
X0364287Y0043750D03*
D23*
X0369947Y0042263D02*
X0078199Y0042263D01*
X0078636Y0040690D02*
X0369669Y0040690D01*
X0369500Y0039731D02*
X0369500Y0038537D01*
X0078876Y0038537D01*
X0078684Y0040518D01*
X0076636Y0047889D01*
X0073340Y0054792D01*
X0068894Y0061017D01*
X0068894Y0061017D01*
X0063436Y0066376D01*
X0063436Y0066376D01*
X0063436Y0066376D01*
X0057129Y0070706D01*
X0050167Y0073875D01*
X0050167Y0073875D01*
X0042760Y0075787D01*
X0042760Y0075787D01*
X0035133Y0076384D01*
X0031556Y0076037D01*
X0024166Y0076037D01*
X0026216Y0077221D01*
X0028316Y0079322D01*
X0029802Y0081895D01*
X0030571Y0084764D01*
X0030571Y0087735D01*
X0029802Y0090605D01*
X0028316Y0093178D01*
X0026216Y0095279D01*
X0023643Y0096765D01*
X0020773Y0097533D01*
X0017802Y0097533D01*
X0014932Y0096765D01*
X0012359Y0095279D01*
X0010258Y0093178D01*
X0008773Y0090605D01*
X0008004Y0087735D01*
X0008004Y0084764D01*
X0008773Y0081895D01*
X0010258Y0079322D01*
X0012359Y0077221D01*
X0014409Y0076037D01*
X0006575Y0076037D01*
X0006575Y0203963D01*
X0007768Y0203963D01*
X0011744Y0204664D01*
X0010258Y0203178D01*
X0008773Y0200605D01*
X0008004Y0197735D01*
X0008004Y0194764D01*
X0008773Y0191895D01*
X0010258Y0189322D01*
X0012359Y0187221D01*
X0014932Y0185735D01*
X0017802Y0184967D01*
X0020773Y0184967D01*
X0023643Y0185735D01*
X0026216Y0187221D01*
X0028316Y0189322D01*
X0029802Y0191895D01*
X0030571Y0194764D01*
X0030571Y0197735D01*
X0029802Y0200605D01*
X0028316Y0203178D01*
X0026216Y0205279D01*
X0023643Y0206765D01*
X0020969Y0207481D01*
X0021166Y0207553D01*
X0027196Y0211034D01*
X0032529Y0215509D01*
X0037004Y0220842D01*
X0040485Y0226871D01*
X0042866Y0233413D01*
X0044075Y0240269D01*
X0044075Y0241463D01*
X0062319Y0241463D01*
X0062319Y0210435D01*
X0063472Y0209281D01*
X0114233Y0209281D01*
X0113439Y0208487D01*
X0112838Y0207036D01*
X0112838Y0205464D01*
X0113439Y0204013D01*
X0114550Y0202902D01*
X0116002Y0202300D01*
X0117573Y0202300D01*
X0119025Y0202902D01*
X0120136Y0204013D01*
X0120737Y0205464D01*
X0120737Y0205981D01*
X0137172Y0205981D01*
X0136669Y0204768D01*
X0136669Y0202732D01*
X0137172Y0201518D01*
X0132365Y0201518D01*
X0131629Y0202255D01*
X0130110Y0202884D01*
X0128465Y0202884D01*
X0126946Y0202255D01*
X0125783Y0201092D01*
X0125154Y0199572D01*
X0125154Y0197928D01*
X0125783Y0196408D01*
X0126946Y0195245D01*
X0128465Y0194616D01*
X0130110Y0194616D01*
X0131629Y0195245D01*
X0132365Y0195981D01*
X0137172Y0195981D01*
X0136669Y0194768D01*
X0136669Y0192732D01*
X0137448Y0190851D01*
X0138888Y0189411D01*
X0140405Y0188783D01*
X0140293Y0188671D01*
X0138888Y0188089D01*
X0137448Y0186649D01*
X0136669Y0184768D01*
X0136669Y0182732D01*
X0137172Y0181518D01*
X0126237Y0181518D01*
X0125219Y0181097D01*
X0124440Y0180318D01*
X0120641Y0176518D01*
X0056180Y0176518D01*
X0056126Y0176649D01*
X0054687Y0178089D01*
X0053091Y0178750D01*
X0054687Y0179411D01*
X0056126Y0180851D01*
X0056180Y0180981D01*
X0086470Y0180981D01*
X0087050Y0180402D01*
X0088502Y0179800D01*
X0090073Y0179800D01*
X0091525Y0180402D01*
X0092636Y0181513D01*
X0093237Y0182964D01*
X0093237Y0184536D01*
X0092636Y0185987D01*
X0091525Y0187098D01*
X0090073Y0187700D01*
X0088502Y0187700D01*
X0087050Y0187098D01*
X0086470Y0186518D01*
X0056180Y0186518D01*
X0056126Y0186649D01*
X0054687Y0188089D01*
X0053091Y0188750D01*
X0054687Y0189411D01*
X0056126Y0190851D01*
X0056905Y0192732D01*
X0056905Y0194768D01*
X0056126Y0196649D01*
X0054687Y0198089D01*
X0053091Y0198750D01*
X0054687Y0199411D01*
X0056126Y0200851D01*
X0056905Y0202732D01*
X0056905Y0204768D01*
X0056126Y0206649D01*
X0054687Y0208089D01*
X0052805Y0208868D01*
X0050769Y0208868D01*
X0048888Y0208089D01*
X0047448Y0206649D01*
X0046669Y0204768D01*
X0046669Y0204486D01*
X0046603Y0204906D01*
X0046363Y0205645D01*
X0046010Y0206338D01*
X0045553Y0206966D01*
X0045004Y0207516D01*
X0044375Y0207973D01*
X0043683Y0208325D01*
X0042943Y0208565D01*
X0042176Y0208687D01*
X0041984Y0208687D01*
X0041984Y0203947D01*
X0041591Y0203947D01*
X0041591Y0208687D01*
X0041399Y0208687D01*
X0040631Y0208565D01*
X0039892Y0208325D01*
X0039200Y0207973D01*
X0038571Y0207516D01*
X0038022Y0206966D01*
X0037565Y0206338D01*
X0037212Y0205645D01*
X0036972Y0204906D01*
X0036850Y0204139D01*
X0036850Y0203947D01*
X0041590Y0203947D01*
X0041590Y0203553D01*
X0036850Y0203553D01*
X0036850Y0203361D01*
X0036972Y0202594D01*
X0037212Y0201855D01*
X0037565Y0201162D01*
X0038022Y0200534D01*
X0038571Y0199984D01*
X0039200Y0199527D01*
X0039892Y0199175D01*
X0040631Y0198935D01*
X0041051Y0198868D01*
X0040769Y0198868D01*
X0038888Y0198089D01*
X0037448Y0196649D01*
X0036669Y0194768D01*
X0036669Y0192732D01*
X0037448Y0190851D01*
X0038888Y0189411D01*
X0040484Y0188750D01*
X0038888Y0188089D01*
X0037448Y0186649D01*
X0036669Y0184768D01*
X0036669Y0182732D01*
X0037448Y0180851D01*
X0038888Y0179411D01*
X0040484Y0178750D01*
X0038888Y0178089D01*
X0037448Y0176649D01*
X0036669Y0174768D01*
X0036669Y0172732D01*
X0037448Y0170851D01*
X0038888Y0169411D01*
X0040484Y0168750D01*
X0038888Y0168089D01*
X0037448Y0166649D01*
X0036669Y0164768D01*
X0036669Y0162732D01*
X0037448Y0160851D01*
X0038888Y0159411D01*
X0040484Y0158750D01*
X0038888Y0158089D01*
X0037448Y0156649D01*
X0036669Y0154768D01*
X0036669Y0152732D01*
X0037448Y0150851D01*
X0038888Y0149411D01*
X0040484Y0148750D01*
X0038888Y0148089D01*
X0037448Y0146649D01*
X0036669Y0144768D01*
X0036669Y0142732D01*
X0037448Y0140851D01*
X0038888Y0139411D01*
X0040484Y0138750D01*
X0038888Y0138089D01*
X0037448Y0136649D01*
X0036669Y0134768D01*
X0036669Y0132732D01*
X0037448Y0130851D01*
X0038888Y0129411D01*
X0040484Y0128750D01*
X0038888Y0128089D01*
X0037448Y0126649D01*
X0036669Y0124768D01*
X0036669Y0122732D01*
X0037448Y0120851D01*
X0038888Y0119411D01*
X0040484Y0118750D01*
X0038888Y0118089D01*
X0037448Y0116649D01*
X0036669Y0114768D01*
X0036669Y0112732D01*
X0037448Y0110851D01*
X0038888Y0109411D01*
X0040769Y0108632D01*
X0042805Y0108632D01*
X0044019Y0109135D01*
X0044019Y0093199D01*
X0044440Y0092182D01*
X0045219Y0091403D01*
X0055219Y0081403D01*
X0056237Y0080981D01*
X0155641Y0080981D01*
X0156519Y0080103D01*
X0156519Y0060699D01*
X0156940Y0059682D01*
X0157719Y0058903D01*
X0165338Y0051284D01*
X0165338Y0050464D01*
X0165939Y0049013D01*
X0167050Y0047902D01*
X0168502Y0047300D01*
X0170073Y0047300D01*
X0171525Y0047902D01*
X0172636Y0049013D01*
X0173237Y0050464D01*
X0173237Y0052036D01*
X0172636Y0053487D01*
X0171525Y0054598D01*
X0170073Y0055200D01*
X0169253Y0055200D01*
X0162056Y0062397D01*
X0162056Y0069566D01*
X0162719Y0068903D01*
X0162719Y0068903D01*
X0165338Y0066284D01*
X0165338Y0065464D01*
X0165939Y0064013D01*
X0167050Y0062902D01*
X0168502Y0062300D01*
X0170073Y0062300D01*
X0171525Y0062902D01*
X0172636Y0064013D01*
X0173237Y0065464D01*
X0173237Y0067036D01*
X0172636Y0068487D01*
X0171525Y0069598D01*
X0170073Y0070200D01*
X0169253Y0070200D01*
X0167056Y0072397D01*
X0167056Y0085935D01*
X0172266Y0080725D01*
X0173578Y0080181D01*
X0277809Y0080181D01*
X0278145Y0079846D01*
X0277448Y0079149D01*
X0276669Y0077268D01*
X0276669Y0075232D01*
X0277448Y0073351D01*
X0278888Y0071911D01*
X0280769Y0071132D01*
X0282805Y0071132D01*
X0284687Y0071911D01*
X0286126Y0073351D01*
X0286905Y0075232D01*
X0286905Y0077268D01*
X0286126Y0079149D01*
X0285356Y0079920D01*
X0285356Y0081960D01*
X0284813Y0083271D01*
X0283809Y0084275D01*
X0281309Y0086775D01*
X0279997Y0087318D01*
X0275356Y0087318D01*
X0275356Y0119772D01*
X0275605Y0120021D01*
X0275993Y0120181D01*
X0354997Y0120181D01*
X0356309Y0120725D01*
X0357313Y0121729D01*
X0361309Y0125725D01*
X0362313Y0126729D01*
X0362856Y0128040D01*
X0362856Y0169585D01*
X0363923Y0170652D01*
X0364756Y0172662D01*
X0364756Y0174838D01*
X0363923Y0176848D01*
X0362385Y0178386D01*
X0362200Y0178463D01*
X0363023Y0178463D01*
X0363477Y0178584D01*
X0363885Y0178820D01*
X0364218Y0179153D01*
X0364453Y0179560D01*
X0364575Y0180015D01*
X0364575Y0183553D01*
X0359484Y0183553D01*
X0359484Y0183947D01*
X0359091Y0183947D01*
X0359091Y0189037D01*
X0355552Y0189037D01*
X0355097Y0188916D01*
X0354690Y0188680D01*
X0354357Y0188347D01*
X0354122Y0187940D01*
X0354000Y0187485D01*
X0354000Y0186663D01*
X0353923Y0186848D01*
X0352385Y0188386D01*
X0352056Y0188522D01*
X0352056Y0189301D01*
X0351634Y0190318D01*
X0350856Y0191097D01*
X0350856Y0191097D01*
X0345821Y0196131D01*
X0347806Y0196131D01*
X0349687Y0196911D01*
X0351127Y0198351D01*
X0351181Y0198481D01*
X0353141Y0198481D01*
X0362585Y0189037D01*
X0359484Y0189037D01*
X0359484Y0183947D01*
X0364575Y0183947D01*
X0364575Y0187047D01*
X0376519Y0175103D01*
X0376519Y0128199D01*
X0376940Y0127182D01*
X0377719Y0126403D01*
X0380219Y0123903D01*
X0381237Y0123481D01*
X0382394Y0123481D01*
X0382448Y0123351D01*
X0383888Y0121911D01*
X0385769Y0121132D01*
X0387805Y0121132D01*
X0389687Y0121911D01*
X0391126Y0123351D01*
X0391905Y0125232D01*
X0391905Y0125514D01*
X0391972Y0125094D01*
X0392212Y0124355D01*
X0392565Y0123662D01*
X0393022Y0123034D01*
X0393571Y0122484D01*
X0394200Y0122027D01*
X0394892Y0121675D01*
X0395631Y0121435D01*
X0396399Y0121313D01*
X0396787Y0121313D01*
X0396787Y0126250D01*
X0396787Y0131187D01*
X0396399Y0131187D01*
X0395631Y0131065D01*
X0394892Y0130825D01*
X0394200Y0130473D01*
X0393571Y0130016D01*
X0393022Y0129466D01*
X0392565Y0128838D01*
X0392212Y0128145D01*
X0391972Y0127406D01*
X0391905Y0126986D01*
X0391905Y0127268D01*
X0391126Y0129149D01*
X0389687Y0130589D01*
X0387805Y0131368D01*
X0385769Y0131368D01*
X0383888Y0130589D01*
X0382626Y0129327D01*
X0382056Y0129897D01*
X0382056Y0156799D01*
X0382448Y0155851D01*
X0383888Y0154411D01*
X0385769Y0153632D01*
X0387805Y0153632D01*
X0389687Y0154411D01*
X0391126Y0155851D01*
X0391905Y0157732D01*
X0391905Y0158014D01*
X0391972Y0157594D01*
X0392212Y0156855D01*
X0392565Y0156162D01*
X0393022Y0155534D01*
X0393571Y0154984D01*
X0394200Y0154527D01*
X0394892Y0154175D01*
X0395631Y0153935D01*
X0396399Y0153813D01*
X0396787Y0153813D01*
X0396787Y0158750D01*
X0396787Y0163687D01*
X0396399Y0163687D01*
X0395631Y0163565D01*
X0394892Y0163325D01*
X0394200Y0162973D01*
X0393571Y0162516D01*
X0393022Y0161966D01*
X0392565Y0161338D01*
X0392212Y0160645D01*
X0391972Y0159906D01*
X0391905Y0159486D01*
X0391905Y0159768D01*
X0391126Y0161649D01*
X0389687Y0163089D01*
X0389556Y0163143D01*
X0389556Y0179301D01*
X0389134Y0180318D01*
X0388356Y0181097D01*
X0361608Y0207845D01*
X0364821Y0206360D01*
X0372638Y0204294D01*
X0380695Y0203616D01*
X0384505Y0203963D01*
X0386043Y0203963D01*
X0385258Y0203178D01*
X0383773Y0200605D01*
X0383004Y0197735D01*
X0383004Y0194764D01*
X0383773Y0191895D01*
X0385258Y0189322D01*
X0387359Y0187221D01*
X0389932Y0185735D01*
X0392802Y0184967D01*
X0395773Y0184967D01*
X0398643Y0185735D01*
X0401216Y0187221D01*
X0403316Y0189322D01*
X0404802Y0191895D01*
X0405571Y0194764D01*
X0405571Y0197735D01*
X0404802Y0200605D01*
X0403316Y0203178D01*
X0402532Y0203963D01*
X0407000Y0203963D01*
X0407000Y0076037D01*
X0405806Y0076037D01*
X0398950Y0074828D01*
X0392408Y0072447D01*
X0386379Y0068966D01*
X0381046Y0064491D01*
X0376571Y0059158D01*
X0373090Y0053129D01*
X0370709Y0046587D01*
X0369500Y0039731D01*
X0369500Y0039117D02*
X0078820Y0039117D01*
X0077762Y0043837D02*
X0137190Y0043837D01*
X0137241Y0043810D02*
X0138039Y0043551D01*
X0138868Y0043420D01*
X0138894Y0043420D01*
X0138894Y0048356D01*
X0139681Y0048356D01*
X0139681Y0043420D01*
X0139707Y0043420D01*
X0140536Y0043551D01*
X0141333Y0043810D01*
X0142081Y0044191D01*
X0142760Y0044684D01*
X0143353Y0045278D01*
X0143846Y0045956D01*
X0144227Y0046704D01*
X0144486Y0047502D01*
X0144618Y0048330D01*
X0144617Y0048356D01*
X0139681Y0048356D01*
X0139681Y0049144D01*
X0138894Y0049144D01*
X0138894Y0054080D01*
X0138868Y0054080D01*
X0138039Y0053949D01*
X0137241Y0053690D01*
X0136494Y0053309D01*
X0135815Y0052816D01*
X0135222Y0052222D01*
X0134729Y0051544D01*
X0134348Y0050796D01*
X0134089Y0049998D01*
X0133957Y0049169D01*
X0133957Y0049144D01*
X0138894Y0049144D01*
X0138894Y0048356D01*
X0133957Y0048356D01*
X0133957Y0048330D01*
X0134089Y0047502D01*
X0134348Y0046704D01*
X0134729Y0045956D01*
X0135222Y0045278D01*
X0135815Y0044684D01*
X0136494Y0044191D01*
X0137241Y0043810D01*
X0138894Y0043837D02*
X0139681Y0043837D01*
X0139681Y0045410D02*
X0138894Y0045410D01*
X0138894Y0046983D02*
X0139681Y0046983D01*
X0139681Y0048556D02*
X0166395Y0048556D01*
X0165476Y0050130D02*
X0144443Y0050130D01*
X0144486Y0049998D02*
X0144227Y0050796D01*
X0143846Y0051544D01*
X0143353Y0052222D01*
X0142760Y0052816D01*
X0142081Y0053309D01*
X0141333Y0053690D01*
X0140536Y0053949D01*
X0139707Y0054080D01*
X0139681Y0054080D01*
X0139681Y0049144D01*
X0144618Y0049144D01*
X0144618Y0049169D01*
X0144486Y0049998D01*
X0143730Y0051703D02*
X0164919Y0051703D01*
X0163346Y0053276D02*
X0142125Y0053276D01*
X0139681Y0053276D02*
X0138894Y0053276D01*
X0138894Y0051703D02*
X0139681Y0051703D01*
X0139681Y0050130D02*
X0138894Y0050130D01*
X0138894Y0048556D02*
X0076317Y0048556D01*
X0076636Y0047889D02*
X0076636Y0047889D01*
X0076888Y0046983D02*
X0134257Y0046983D01*
X0135126Y0045410D02*
X0077325Y0045410D01*
X0075566Y0050130D02*
X0134131Y0050130D01*
X0134845Y0051703D02*
X0074815Y0051703D01*
X0074063Y0053276D02*
X0136449Y0053276D01*
X0138191Y0058239D02*
X0136166Y0059078D01*
X0134615Y0060628D01*
X0133776Y0062654D01*
X0133776Y0064846D01*
X0134615Y0066872D01*
X0136166Y0068422D01*
X0138191Y0069261D01*
X0140384Y0069261D01*
X0142409Y0068422D01*
X0143960Y0066872D01*
X0144799Y0064846D01*
X0144799Y0062654D01*
X0143960Y0060628D01*
X0142409Y0059078D01*
X0140384Y0058239D01*
X0138191Y0058239D01*
X0135674Y0059570D02*
X0069928Y0059570D01*
X0071051Y0057996D02*
X0158626Y0057996D01*
X0160199Y0056423D02*
X0072175Y0056423D01*
X0073298Y0054850D02*
X0161772Y0054850D01*
X0166456Y0057996D02*
X0277164Y0057996D01*
X0277212Y0058145D02*
X0276972Y0057406D01*
X0276850Y0056639D01*
X0276850Y0056348D01*
X0281689Y0056348D01*
X0281689Y0056152D01*
X0276850Y0056152D01*
X0276850Y0055861D01*
X0276972Y0055094D01*
X0277212Y0054355D01*
X0277565Y0053662D01*
X0278022Y0053034D01*
X0278571Y0052484D01*
X0279200Y0052027D01*
X0279892Y0051675D01*
X0280631Y0051435D01*
X0281399Y0051313D01*
X0281689Y0051313D01*
X0281689Y0056151D01*
X0281886Y0056151D01*
X0281886Y0051313D01*
X0282176Y0051313D01*
X0282943Y0051435D01*
X0283683Y0051675D01*
X0284375Y0052027D01*
X0285004Y0052484D01*
X0285553Y0053034D01*
X0286010Y0053662D01*
X0286363Y0054355D01*
X0286603Y0055094D01*
X0286724Y0055861D01*
X0286724Y0056152D01*
X0281886Y0056152D01*
X0281886Y0056348D01*
X0286724Y0056348D01*
X0286724Y0056639D01*
X0286603Y0057406D01*
X0286363Y0058145D01*
X0286010Y0058838D01*
X0285553Y0059466D01*
X0285004Y0060016D01*
X0284375Y0060473D01*
X0283683Y0060825D01*
X0282943Y0061065D01*
X0282176Y0061187D01*
X0281886Y0061187D01*
X0281886Y0056348D01*
X0281689Y0056348D01*
X0281689Y0061187D01*
X0281399Y0061187D01*
X0280631Y0061065D01*
X0279892Y0060825D01*
X0279200Y0060473D01*
X0278571Y0060016D01*
X0278022Y0059466D01*
X0277565Y0058838D01*
X0277212Y0058145D01*
X0278125Y0059570D02*
X0164883Y0059570D01*
X0163310Y0061143D02*
X0281121Y0061143D01*
X0281689Y0061143D02*
X0281886Y0061143D01*
X0282454Y0061143D02*
X0378236Y0061143D01*
X0376916Y0059570D02*
X0285450Y0059570D01*
X0286411Y0057996D02*
X0375900Y0057996D01*
X0376571Y0059158D02*
X0376571Y0059158D01*
X0374992Y0056423D02*
X0286724Y0056423D01*
X0286523Y0054850D02*
X0374083Y0054850D01*
X0373175Y0053276D02*
X0285729Y0053276D01*
X0283738Y0051703D02*
X0372571Y0051703D01*
X0373090Y0053129D02*
X0373090Y0053129D01*
X0371998Y0050130D02*
X0173098Y0050130D01*
X0173237Y0051703D02*
X0279837Y0051703D01*
X0281689Y0051703D02*
X0281886Y0051703D01*
X0281886Y0053276D02*
X0281689Y0053276D01*
X0281689Y0054850D02*
X0281886Y0054850D01*
X0281886Y0056423D02*
X0281689Y0056423D01*
X0281689Y0057996D02*
X0281886Y0057996D01*
X0281886Y0059570D02*
X0281689Y0059570D01*
X0276850Y0056423D02*
X0168030Y0056423D01*
X0170918Y0054850D02*
X0277051Y0054850D01*
X0277845Y0053276D02*
X0172723Y0053276D01*
X0172179Y0048556D02*
X0371426Y0048556D01*
X0370853Y0046983D02*
X0144318Y0046983D01*
X0143449Y0045410D02*
X0370501Y0045410D01*
X0370709Y0046587D02*
X0370709Y0046587D01*
X0370224Y0043837D02*
X0141385Y0043837D01*
X0142901Y0059570D02*
X0157052Y0059570D01*
X0156519Y0061143D02*
X0144173Y0061143D01*
X0144799Y0062716D02*
X0156519Y0062716D01*
X0156519Y0064290D02*
X0144799Y0064290D01*
X0144377Y0065863D02*
X0156519Y0065863D01*
X0156519Y0067436D02*
X0143395Y0067436D01*
X0140991Y0069010D02*
X0156519Y0069010D01*
X0156519Y0070583D02*
X0057309Y0070583D01*
X0057129Y0070706D02*
X0057129Y0070706D01*
X0059601Y0069010D02*
X0137584Y0069010D01*
X0137630Y0071270D02*
X0140173Y0071270D01*
X0141560Y0072657D01*
X0142346Y0073443D01*
X0142346Y0077578D01*
X0142346Y0078549D01*
X0141560Y0079335D01*
X0140189Y0080707D01*
X0140173Y0080723D01*
X0139202Y0080723D01*
X0138211Y0080723D01*
X0138211Y0080723D01*
X0136639Y0080723D01*
X0135868Y0079952D01*
X0135114Y0080707D01*
X0135098Y0080723D01*
X0134127Y0080723D01*
X0133136Y0080723D01*
X0133136Y0080723D01*
X0131564Y0080723D01*
X0129390Y0078549D01*
X0129390Y0076587D01*
X0129981Y0075996D01*
X0129390Y0075405D01*
X0129390Y0073443D01*
X0130493Y0072341D01*
X0131564Y0071270D01*
X0132555Y0071270D01*
X0135098Y0071270D01*
X0135868Y0072040D01*
X0136639Y0071270D01*
X0136639Y0071270D01*
X0136639Y0071270D01*
X0137630Y0071270D01*
X0141059Y0072156D02*
X0156519Y0072156D01*
X0156519Y0073729D02*
X0142346Y0073729D01*
X0142346Y0075303D02*
X0156519Y0075303D01*
X0156519Y0076876D02*
X0142346Y0076876D01*
X0142346Y0078449D02*
X0156519Y0078449D01*
X0156519Y0080023D02*
X0140873Y0080023D01*
X0141560Y0079335D02*
X0141560Y0079335D01*
X0142346Y0078549D02*
X0142346Y0078549D01*
X0142346Y0078549D01*
X0140173Y0080723D02*
X0140173Y0080723D01*
X0135939Y0080023D02*
X0135798Y0080023D01*
X0135098Y0080723D02*
X0135098Y0080723D01*
X0135098Y0080723D01*
X0130864Y0080023D02*
X0126433Y0080023D01*
X0127121Y0079335D02*
X0125733Y0080723D01*
X0121413Y0080723D01*
X0121036Y0080345D01*
X0120658Y0080723D01*
X0118696Y0080723D01*
X0118105Y0080132D01*
X0117514Y0080723D01*
X0115552Y0080723D01*
X0114165Y0079335D01*
X0114165Y0078365D01*
X0111940Y0078365D01*
X0111895Y0078589D01*
X0111895Y0079335D01*
X0111709Y0079522D01*
X0111657Y0079781D01*
X0111036Y0080195D01*
X0110508Y0080723D01*
X0110244Y0080723D01*
X0110024Y0080869D01*
X0109292Y0080723D01*
X0108546Y0080723D01*
X0108359Y0080536D01*
X0108100Y0080484D01*
X0107901Y0080185D01*
X0107364Y0080723D01*
X0105402Y0080723D01*
X0105024Y0080345D01*
X0104662Y0080707D01*
X0104647Y0080723D01*
X0103676Y0080723D01*
X0102684Y0080723D01*
X0101112Y0080723D01*
X0099725Y0079335D01*
X0098939Y0078549D01*
X0098939Y0078365D01*
X0096670Y0078365D01*
X0096670Y0078549D01*
X0096670Y0078549D01*
X0096670Y0078549D01*
X0096135Y0079084D01*
X0095884Y0079335D01*
X0094512Y0080707D01*
X0094496Y0080723D01*
X0093525Y0080723D01*
X0092534Y0080723D01*
X0092534Y0080723D01*
X0090962Y0080723D01*
X0089799Y0079559D01*
X0088635Y0080723D01*
X0086673Y0080723D01*
X0085101Y0079151D01*
X0083713Y0077763D01*
X0083713Y0072657D01*
X0085101Y0071270D01*
X0087063Y0071270D01*
X0087654Y0071861D01*
X0088245Y0071270D01*
X0090207Y0071270D01*
X0090585Y0071647D01*
X0090962Y0071270D01*
X0090962Y0071270D01*
X0090962Y0071270D01*
X0091933Y0071270D01*
X0094496Y0071270D01*
X0096670Y0073443D01*
X0096670Y0073628D01*
X0098939Y0073628D01*
X0098939Y0073443D01*
X0100042Y0072341D01*
X0101112Y0071270D01*
X0101112Y0071270D01*
X0101113Y0071270D01*
X0102104Y0071270D01*
X0104647Y0071270D01*
X0105024Y0071647D01*
X0105402Y0071270D01*
X0105666Y0071270D01*
X0105885Y0071123D01*
X0106617Y0071270D01*
X0107364Y0071270D01*
X0107550Y0071456D01*
X0107809Y0071508D01*
X0108008Y0071807D01*
X0108546Y0071270D01*
X0110508Y0071270D01*
X0111895Y0072657D01*
X0111895Y0073628D01*
X0115583Y0073628D01*
X0115737Y0073781D01*
X0115737Y0072657D01*
X0117124Y0071270D01*
X0119086Y0071270D01*
X0120250Y0072433D01*
X0120627Y0072056D01*
X0120627Y0072056D01*
X0121413Y0071270D01*
X0121413Y0071270D01*
X0121413Y0071270D01*
X0122384Y0071270D01*
X0125733Y0071270D01*
X0127121Y0072657D01*
X0127121Y0076977D01*
X0127121Y0077373D01*
X0127121Y0079335D01*
X0127121Y0078449D02*
X0129390Y0078449D01*
X0129390Y0076876D02*
X0127121Y0076876D01*
X0127121Y0075303D02*
X0129390Y0075303D01*
X0129390Y0073729D02*
X0127121Y0073729D01*
X0126620Y0072156D02*
X0130677Y0072156D01*
X0131564Y0071270D02*
X0131564Y0071270D01*
X0131564Y0071270D01*
X0135180Y0067436D02*
X0061892Y0067436D01*
X0063959Y0065863D02*
X0134197Y0065863D01*
X0133776Y0064290D02*
X0065561Y0064290D01*
X0067164Y0062716D02*
X0133776Y0062716D01*
X0134402Y0061143D02*
X0068766Y0061143D01*
X0073340Y0054792D02*
X0073340Y0054792D01*
X0072233Y0071270D02*
X0074981Y0071270D01*
X0075359Y0071647D01*
X0075737Y0071270D01*
X0077699Y0071270D01*
X0079086Y0072657D01*
X0079086Y0073628D01*
X0080057Y0073628D01*
X0081444Y0075015D01*
X0081444Y0076977D01*
X0080057Y0078365D01*
X0080057Y0078365D01*
X0079086Y0079335D01*
X0079086Y0079335D01*
X0077726Y0080695D01*
X0077699Y0080723D01*
X0075737Y0080723D01*
X0074369Y0079355D01*
X0074349Y0079335D01*
X0074349Y0077763D01*
X0073831Y0077245D01*
X0073831Y0077558D01*
X0073831Y0078549D01*
X0073045Y0079335D01*
X0073045Y0079335D01*
X0071658Y0080723D01*
X0070667Y0080723D01*
X0069696Y0080723D01*
X0069696Y0080723D01*
X0068124Y0080723D01*
X0067338Y0079937D01*
X0066031Y0078630D01*
X0065950Y0078549D01*
X0065950Y0075405D01*
X0065950Y0074414D01*
X0065950Y0073443D01*
X0065950Y0073443D01*
X0065966Y0073427D01*
X0067338Y0072056D01*
X0068124Y0071270D01*
X0069095Y0071270D01*
X0071658Y0071270D01*
X0071946Y0071557D01*
X0072233Y0071270D01*
X0068124Y0071270D02*
X0068124Y0071270D01*
X0068124Y0071270D01*
X0067338Y0072056D02*
X0067338Y0072056D01*
X0067237Y0072156D02*
X0053944Y0072156D01*
X0050487Y0073729D02*
X0065950Y0073729D01*
X0065950Y0075303D02*
X0044636Y0075303D01*
X0035133Y0076384D02*
X0035133Y0076384D01*
X0028721Y0080023D02*
X0067424Y0080023D01*
X0065950Y0078449D02*
X0027444Y0078449D01*
X0025618Y0076876D02*
X0065950Y0076876D01*
X0065950Y0075405D02*
X0065950Y0075405D01*
X0072358Y0080023D02*
X0075037Y0080023D01*
X0074349Y0078449D02*
X0073831Y0078449D01*
X0073831Y0078549D02*
X0073831Y0078549D01*
X0073831Y0078549D01*
X0078398Y0080023D02*
X0085973Y0080023D01*
X0084400Y0078449D02*
X0079972Y0078449D01*
X0081444Y0076876D02*
X0083713Y0076876D01*
X0083713Y0075303D02*
X0081444Y0075303D01*
X0080158Y0073729D02*
X0083713Y0073729D01*
X0084214Y0072156D02*
X0078585Y0072156D01*
X0089335Y0080023D02*
X0090262Y0080023D01*
X0094496Y0080723D02*
X0094496Y0080723D01*
X0095196Y0080023D02*
X0100413Y0080023D01*
X0098939Y0078449D02*
X0096670Y0078449D01*
X0095884Y0079335D02*
X0095884Y0079335D01*
X0102684Y0080723D02*
X0102684Y0080723D01*
X0104647Y0080723D02*
X0104647Y0080723D01*
X0111293Y0080023D02*
X0114852Y0080023D01*
X0114165Y0078449D02*
X0111923Y0078449D01*
X0115685Y0073729D02*
X0115737Y0073729D01*
X0116238Y0072156D02*
X0111394Y0072156D01*
X0100226Y0072156D02*
X0095383Y0072156D01*
X0119973Y0072156D02*
X0120527Y0072156D01*
X0162056Y0069010D02*
X0162613Y0069010D01*
X0162056Y0067436D02*
X0164186Y0067436D01*
X0165338Y0065863D02*
X0162056Y0065863D01*
X0162056Y0064290D02*
X0165824Y0064290D01*
X0167498Y0062716D02*
X0162056Y0062716D01*
X0171077Y0062716D02*
X0379557Y0062716D01*
X0380103Y0064281D02*
X0381256Y0065435D01*
X0381256Y0109565D01*
X0380103Y0110718D01*
X0308472Y0110718D01*
X0307319Y0109565D01*
X0307319Y0065435D01*
X0308472Y0064281D01*
X0380103Y0064281D01*
X0380111Y0064290D02*
X0380877Y0064290D01*
X0381046Y0064491D02*
X0381046Y0064491D01*
X0381046Y0064491D01*
X0381256Y0065863D02*
X0382681Y0065863D01*
X0381256Y0067436D02*
X0384556Y0067436D01*
X0386379Y0068966D02*
X0386379Y0068966D01*
X0386454Y0069010D02*
X0381256Y0069010D01*
X0381256Y0070583D02*
X0389179Y0070583D01*
X0391904Y0072156D02*
X0381256Y0072156D01*
X0381256Y0073729D02*
X0395931Y0073729D01*
X0395773Y0074967D02*
X0392802Y0074967D01*
X0389932Y0075735D01*
X0387359Y0077221D01*
X0385258Y0079322D01*
X0383773Y0081895D01*
X0383004Y0084764D01*
X0383004Y0087735D01*
X0383773Y0090605D01*
X0385258Y0093178D01*
X0387359Y0095279D01*
X0389932Y0096765D01*
X0392802Y0097533D01*
X0395773Y0097533D01*
X0398643Y0096765D01*
X0401216Y0095279D01*
X0403316Y0093178D01*
X0404802Y0090605D01*
X0405571Y0087735D01*
X0405571Y0084764D01*
X0404802Y0081895D01*
X0403316Y0079322D01*
X0401216Y0077221D01*
X0398643Y0075735D01*
X0395773Y0074967D01*
X0397028Y0075303D02*
X0401640Y0075303D01*
X0400618Y0076876D02*
X0407000Y0076876D01*
X0407000Y0078449D02*
X0402444Y0078449D01*
X0403721Y0080023D02*
X0407000Y0080023D01*
X0407000Y0081596D02*
X0404629Y0081596D01*
X0405143Y0083169D02*
X0407000Y0083169D01*
X0407000Y0084743D02*
X0405565Y0084743D01*
X0405571Y0086316D02*
X0407000Y0086316D01*
X0407000Y0087889D02*
X0405530Y0087889D01*
X0405108Y0089463D02*
X0407000Y0089463D01*
X0407000Y0091036D02*
X0404553Y0091036D01*
X0403645Y0092609D02*
X0407000Y0092609D01*
X0407000Y0094183D02*
X0402312Y0094183D01*
X0400390Y0095756D02*
X0407000Y0095756D01*
X0407000Y0097329D02*
X0396535Y0097329D01*
X0392040Y0097329D02*
X0381256Y0097329D01*
X0381256Y0095756D02*
X0388185Y0095756D01*
X0386263Y0094183D02*
X0381256Y0094183D01*
X0381256Y0092609D02*
X0384930Y0092609D01*
X0384022Y0091036D02*
X0381256Y0091036D01*
X0381256Y0089463D02*
X0383467Y0089463D01*
X0383045Y0087889D02*
X0381256Y0087889D01*
X0381256Y0086316D02*
X0383004Y0086316D01*
X0383010Y0084743D02*
X0381256Y0084743D01*
X0381256Y0083169D02*
X0383431Y0083169D01*
X0383945Y0081596D02*
X0381256Y0081596D01*
X0381256Y0080023D02*
X0384854Y0080023D01*
X0386131Y0078449D02*
X0381256Y0078449D01*
X0381256Y0076876D02*
X0387956Y0076876D01*
X0391547Y0075303D02*
X0381256Y0075303D01*
X0392408Y0072447D02*
X0392408Y0072447D01*
X0398950Y0074828D02*
X0398950Y0074828D01*
X0407000Y0098903D02*
X0381256Y0098903D01*
X0381256Y0100476D02*
X0407000Y0100476D01*
X0407000Y0102049D02*
X0381256Y0102049D01*
X0381256Y0103622D02*
X0407000Y0103622D01*
X0407000Y0105196D02*
X0381256Y0105196D01*
X0381256Y0106769D02*
X0407000Y0106769D01*
X0407000Y0108342D02*
X0381256Y0108342D01*
X0380906Y0109916D02*
X0407000Y0109916D01*
X0407000Y0111489D02*
X0302531Y0111489D01*
X0302874Y0110210D02*
X0302118Y0113029D01*
X0300659Y0115557D01*
X0298595Y0117621D01*
X0296067Y0119081D01*
X0293247Y0119837D01*
X0290328Y0119837D01*
X0287508Y0119081D01*
X0284980Y0117621D01*
X0282916Y0115557D01*
X0281456Y0113029D01*
X0280701Y0110210D01*
X0280701Y0107290D01*
X0281456Y0104471D01*
X0282916Y0101943D01*
X0284980Y0099878D01*
X0287508Y0098419D01*
X0290328Y0097663D01*
X0293247Y0097663D01*
X0296067Y0098419D01*
X0298595Y0099878D01*
X0300659Y0101943D01*
X0302118Y0104471D01*
X0302874Y0107290D01*
X0302874Y0110210D01*
X0302874Y0109916D02*
X0307669Y0109916D01*
X0307319Y0108342D02*
X0302874Y0108342D01*
X0302734Y0106769D02*
X0307319Y0106769D01*
X0307319Y0105196D02*
X0302313Y0105196D01*
X0301629Y0103622D02*
X0307319Y0103622D01*
X0307319Y0102049D02*
X0300720Y0102049D01*
X0299192Y0100476D02*
X0307319Y0100476D01*
X0307319Y0098903D02*
X0296904Y0098903D01*
X0286670Y0098903D02*
X0275356Y0098903D01*
X0275356Y0100476D02*
X0284383Y0100476D01*
X0282854Y0102049D02*
X0275356Y0102049D01*
X0275356Y0103622D02*
X0281946Y0103622D01*
X0281262Y0105196D02*
X0275356Y0105196D01*
X0275356Y0106769D02*
X0280840Y0106769D01*
X0280701Y0108342D02*
X0275356Y0108342D01*
X0275356Y0109916D02*
X0280701Y0109916D01*
X0281044Y0111489D02*
X0275356Y0111489D01*
X0275356Y0113062D02*
X0281475Y0113062D01*
X0282384Y0114636D02*
X0275356Y0114636D01*
X0275356Y0116209D02*
X0283568Y0116209D01*
X0285259Y0117782D02*
X0275356Y0117782D01*
X0275356Y0119356D02*
X0288533Y0119356D01*
X0295042Y0119356D02*
X0407000Y0119356D01*
X0407000Y0120929D02*
X0356513Y0120929D01*
X0358086Y0122502D02*
X0383297Y0122502D01*
X0380047Y0124076D02*
X0359660Y0124076D01*
X0361233Y0125649D02*
X0378473Y0125649D01*
X0376924Y0127222D02*
X0362517Y0127222D01*
X0362856Y0128795D02*
X0376519Y0128795D01*
X0376519Y0130369D02*
X0362856Y0130369D01*
X0362856Y0131942D02*
X0376519Y0131942D01*
X0376519Y0133515D02*
X0362856Y0133515D01*
X0362856Y0135089D02*
X0376519Y0135089D01*
X0376519Y0136662D02*
X0362856Y0136662D01*
X0362856Y0138235D02*
X0376519Y0138235D01*
X0376519Y0139809D02*
X0362856Y0139809D01*
X0362856Y0141382D02*
X0376519Y0141382D01*
X0376519Y0142955D02*
X0362856Y0142955D01*
X0362856Y0144529D02*
X0376519Y0144529D01*
X0376519Y0146102D02*
X0362856Y0146102D01*
X0362856Y0147675D02*
X0376519Y0147675D01*
X0376519Y0149249D02*
X0362856Y0149249D01*
X0362856Y0150822D02*
X0376519Y0150822D01*
X0376519Y0152395D02*
X0362856Y0152395D01*
X0362856Y0153969D02*
X0376519Y0153969D01*
X0376519Y0155542D02*
X0362856Y0155542D01*
X0362856Y0157115D02*
X0376519Y0157115D01*
X0376519Y0158688D02*
X0362856Y0158688D01*
X0362856Y0160262D02*
X0376519Y0160262D01*
X0376519Y0161835D02*
X0362856Y0161835D01*
X0362856Y0163408D02*
X0376519Y0163408D01*
X0376519Y0164982D02*
X0362856Y0164982D01*
X0362856Y0166555D02*
X0376519Y0166555D01*
X0376519Y0168128D02*
X0362856Y0168128D01*
X0362973Y0169702D02*
X0376519Y0169702D01*
X0376519Y0171275D02*
X0364181Y0171275D01*
X0364756Y0172848D02*
X0376519Y0172848D01*
X0376519Y0174422D02*
X0364756Y0174422D01*
X0364277Y0175995D02*
X0375627Y0175995D01*
X0374054Y0177568D02*
X0363203Y0177568D01*
X0364207Y0179142D02*
X0372481Y0179142D01*
X0370907Y0180715D02*
X0364575Y0180715D01*
X0364575Y0182288D02*
X0369334Y0182288D01*
X0367761Y0183862D02*
X0359484Y0183862D01*
X0359484Y0185435D02*
X0359091Y0185435D01*
X0359091Y0187008D02*
X0359484Y0187008D01*
X0359484Y0188581D02*
X0359091Y0188581D01*
X0361467Y0190155D02*
X0351702Y0190155D01*
X0352056Y0188581D02*
X0354591Y0188581D01*
X0354000Y0187008D02*
X0353763Y0187008D01*
X0350225Y0191728D02*
X0359894Y0191728D01*
X0358321Y0193301D02*
X0348651Y0193301D01*
X0347078Y0194875D02*
X0356747Y0194875D01*
X0355174Y0196448D02*
X0348570Y0196448D01*
X0350797Y0198021D02*
X0353601Y0198021D01*
X0345483Y0206250D02*
X0343888Y0205589D01*
X0342448Y0204149D01*
X0341669Y0202268D01*
X0341669Y0200284D01*
X0334134Y0207818D01*
X0333356Y0208597D01*
X0332338Y0209018D01*
X0311403Y0209018D01*
X0311906Y0210232D01*
X0311906Y0212268D01*
X0311127Y0214149D01*
X0309687Y0215589D01*
X0307806Y0216368D01*
X0305769Y0216368D01*
X0303888Y0215589D01*
X0302448Y0214149D01*
X0302394Y0214018D01*
X0301237Y0214018D01*
X0300219Y0213597D01*
X0299440Y0212818D01*
X0298141Y0211518D01*
X0297105Y0211518D01*
X0298595Y0212378D01*
X0300659Y0214443D01*
X0302118Y0216971D01*
X0302874Y0219790D01*
X0302874Y0222710D01*
X0302118Y0225529D01*
X0300659Y0228057D01*
X0298595Y0230121D01*
X0296067Y0231581D01*
X0293247Y0232337D01*
X0290328Y0232337D01*
X0287508Y0231581D01*
X0284980Y0230121D01*
X0282916Y0228057D01*
X0281456Y0225529D01*
X0280701Y0222710D01*
X0280701Y0219790D01*
X0281456Y0216971D01*
X0282916Y0214443D01*
X0284980Y0212378D01*
X0286470Y0211518D01*
X0273423Y0211518D01*
X0273685Y0211670D01*
X0274018Y0212003D01*
X0274253Y0212410D01*
X0274375Y0212865D01*
X0274375Y0215887D01*
X0270650Y0215887D01*
X0270650Y0216613D01*
X0269925Y0216613D01*
X0269925Y0221187D01*
X0267856Y0221187D01*
X0267856Y0234460D01*
X0267313Y0235771D01*
X0266309Y0236775D01*
X0263809Y0239275D01*
X0262497Y0239818D01*
X0228578Y0239818D01*
X0227266Y0239275D01*
X0226262Y0238271D01*
X0223762Y0235771D01*
X0223219Y0234460D01*
X0223219Y0231033D01*
X0222693Y0230507D01*
X0222693Y0231002D01*
X0221540Y0232155D01*
X0212035Y0232155D01*
X0210882Y0231002D01*
X0210882Y0229818D01*
X0198578Y0229818D01*
X0197266Y0229275D01*
X0196262Y0228271D01*
X0193762Y0225771D01*
X0193219Y0224460D01*
X0193219Y0221187D01*
X0191150Y0221187D01*
X0191150Y0216613D01*
X0190425Y0216613D01*
X0190425Y0221187D01*
X0188252Y0221187D01*
X0187797Y0221066D01*
X0187390Y0220830D01*
X0187057Y0220497D01*
X0186822Y0220090D01*
X0186700Y0219635D01*
X0186700Y0216613D01*
X0190425Y0216613D01*
X0190425Y0215887D01*
X0186700Y0215887D01*
X0186700Y0212865D01*
X0186822Y0212410D01*
X0187057Y0212003D01*
X0187390Y0211670D01*
X0187652Y0211518D01*
X0177105Y0211518D01*
X0178595Y0212378D01*
X0180659Y0214443D01*
X0182118Y0216971D01*
X0182874Y0219790D01*
X0182874Y0222710D01*
X0182118Y0225529D01*
X0180659Y0228057D01*
X0178595Y0230121D01*
X0176067Y0231581D01*
X0173247Y0232337D01*
X0170328Y0232337D01*
X0167508Y0231581D01*
X0164980Y0230121D01*
X0162916Y0228057D01*
X0161456Y0225529D01*
X0160701Y0222710D01*
X0160701Y0219790D01*
X0161456Y0216971D01*
X0162916Y0214443D01*
X0164980Y0212378D01*
X0166470Y0211518D01*
X0128756Y0211518D01*
X0128756Y0241463D01*
X0334975Y0241463D01*
X0337005Y0233988D01*
X0340447Y0226672D01*
X0340447Y0226672D01*
X0345107Y0220065D01*
X0345107Y0220065D01*
X0349559Y0215642D01*
X0347806Y0216368D01*
X0345769Y0216368D01*
X0343888Y0215589D01*
X0342448Y0214149D01*
X0341669Y0212268D01*
X0341669Y0210232D01*
X0342448Y0208351D01*
X0343888Y0206911D01*
X0345483Y0206250D01*
X0344609Y0205888D02*
X0336065Y0205888D01*
X0337638Y0204315D02*
X0342613Y0204315D01*
X0341865Y0202741D02*
X0339211Y0202741D01*
X0340785Y0201168D02*
X0341669Y0201168D01*
X0343338Y0207461D02*
X0334491Y0207461D01*
X0334134Y0207818D02*
X0334134Y0207818D01*
X0341669Y0210608D02*
X0311906Y0210608D01*
X0311906Y0212181D02*
X0341669Y0212181D01*
X0342285Y0213754D02*
X0311290Y0213754D01*
X0309948Y0215328D02*
X0343627Y0215328D01*
X0348292Y0216901D02*
X0302078Y0216901D01*
X0302521Y0218474D02*
X0346708Y0218474D01*
X0345123Y0220048D02*
X0302874Y0220048D01*
X0302874Y0221621D02*
X0344009Y0221621D01*
X0342899Y0223194D02*
X0302744Y0223194D01*
X0302323Y0224768D02*
X0341790Y0224768D01*
X0340680Y0226341D02*
X0301650Y0226341D01*
X0300741Y0227914D02*
X0339862Y0227914D01*
X0339122Y0229488D02*
X0299229Y0229488D01*
X0296968Y0231061D02*
X0338382Y0231061D01*
X0337642Y0232634D02*
X0267856Y0232634D01*
X0267856Y0231061D02*
X0286607Y0231061D01*
X0284346Y0229488D02*
X0267856Y0229488D01*
X0267856Y0227914D02*
X0282833Y0227914D01*
X0281925Y0226341D02*
X0267856Y0226341D01*
X0267856Y0224768D02*
X0281252Y0224768D01*
X0280831Y0223194D02*
X0267856Y0223194D01*
X0267856Y0221621D02*
X0280701Y0221621D01*
X0280701Y0220048D02*
X0274264Y0220048D01*
X0274253Y0220090D02*
X0274018Y0220497D01*
X0273685Y0220830D01*
X0273277Y0221066D01*
X0272823Y0221187D01*
X0270650Y0221187D01*
X0270650Y0216613D01*
X0274375Y0216613D01*
X0274375Y0219635D01*
X0274253Y0220090D01*
X0274375Y0218474D02*
X0281053Y0218474D01*
X0281497Y0216901D02*
X0274375Y0216901D01*
X0274375Y0215328D02*
X0282405Y0215328D01*
X0283604Y0213754D02*
X0274375Y0213754D01*
X0274121Y0212181D02*
X0285322Y0212181D01*
X0270650Y0216901D02*
X0269925Y0216901D01*
X0269925Y0218474D02*
X0270650Y0218474D01*
X0270650Y0220048D02*
X0269925Y0220048D01*
X0267856Y0234208D02*
X0336945Y0234208D01*
X0337005Y0233988D02*
X0337005Y0233988D01*
X0336518Y0235781D02*
X0267303Y0235781D01*
X0265730Y0237354D02*
X0336091Y0237354D01*
X0335663Y0238928D02*
X0264156Y0238928D01*
X0226918Y0238928D02*
X0128756Y0238928D01*
X0128756Y0240501D02*
X0335236Y0240501D01*
X0303627Y0215328D02*
X0301170Y0215328D01*
X0300599Y0213754D02*
X0299971Y0213754D01*
X0298803Y0212181D02*
X0298253Y0212181D01*
X0300291Y0206169D02*
X0298141Y0204018D01*
X0166237Y0204018D01*
X0165219Y0203597D01*
X0163141Y0201518D01*
X0156191Y0201518D01*
X0156363Y0201855D01*
X0156603Y0202594D01*
X0156724Y0203361D01*
X0156724Y0203553D01*
X0151984Y0203553D01*
X0151984Y0203947D01*
X0156724Y0203947D01*
X0156724Y0204139D01*
X0156603Y0204906D01*
X0156363Y0205645D01*
X0156191Y0205981D01*
X0299838Y0205981D01*
X0300291Y0206169D01*
X0300010Y0205888D02*
X0156239Y0205888D01*
X0156697Y0204315D02*
X0298437Y0204315D01*
X0311410Y0209035D02*
X0342165Y0209035D01*
X0361991Y0207461D02*
X0362438Y0207461D01*
X0363565Y0205888D02*
X0366606Y0205888D01*
X0364821Y0206360D02*
X0364821Y0206360D01*
X0365138Y0204315D02*
X0372559Y0204315D01*
X0372638Y0204294D02*
X0372638Y0204294D01*
X0368285Y0201168D02*
X0384098Y0201168D01*
X0383502Y0199595D02*
X0369858Y0199595D01*
X0371431Y0198021D02*
X0383081Y0198021D01*
X0383004Y0196448D02*
X0373005Y0196448D01*
X0374578Y0194875D02*
X0383004Y0194875D01*
X0383396Y0193301D02*
X0376151Y0193301D01*
X0377725Y0191728D02*
X0383869Y0191728D01*
X0384777Y0190155D02*
X0379298Y0190155D01*
X0380871Y0188581D02*
X0385999Y0188581D01*
X0387728Y0187008D02*
X0382445Y0187008D01*
X0384018Y0185435D02*
X0391054Y0185435D01*
X0387164Y0182288D02*
X0407000Y0182288D01*
X0407000Y0180715D02*
X0388738Y0180715D01*
X0389556Y0179142D02*
X0407000Y0179142D01*
X0407000Y0177568D02*
X0389556Y0177568D01*
X0389556Y0175995D02*
X0407000Y0175995D01*
X0407000Y0174422D02*
X0389556Y0174422D01*
X0389556Y0172848D02*
X0407000Y0172848D01*
X0407000Y0171275D02*
X0389556Y0171275D01*
X0389556Y0169702D02*
X0407000Y0169702D01*
X0407000Y0168128D02*
X0389556Y0168128D01*
X0389556Y0166555D02*
X0407000Y0166555D01*
X0407000Y0164982D02*
X0389556Y0164982D01*
X0389556Y0163408D02*
X0395148Y0163408D01*
X0396787Y0163408D02*
X0396787Y0163408D01*
X0396787Y0163687D02*
X0396787Y0158750D01*
X0396787Y0158750D01*
X0396787Y0158750D01*
X0396787Y0153813D01*
X0397176Y0153813D01*
X0397943Y0153935D01*
X0398683Y0154175D01*
X0399375Y0154527D01*
X0400004Y0154984D01*
X0400553Y0155534D01*
X0401010Y0156162D01*
X0401363Y0156855D01*
X0401603Y0157594D01*
X0401724Y0158361D01*
X0401724Y0158750D01*
X0401724Y0159139D01*
X0401603Y0159906D01*
X0401363Y0160645D01*
X0401010Y0161338D01*
X0400553Y0161966D01*
X0400004Y0162516D01*
X0399375Y0162973D01*
X0398683Y0163325D01*
X0397943Y0163565D01*
X0397176Y0163687D01*
X0396787Y0163687D01*
X0398427Y0163408D02*
X0407000Y0163408D01*
X0407000Y0161835D02*
X0400648Y0161835D01*
X0401487Y0160262D02*
X0407000Y0160262D01*
X0407000Y0158688D02*
X0401724Y0158688D01*
X0401724Y0158750D02*
X0396788Y0158750D01*
X0401724Y0158750D01*
X0401447Y0157115D02*
X0407000Y0157115D01*
X0407000Y0155542D02*
X0400559Y0155542D01*
X0398048Y0153969D02*
X0407000Y0153969D01*
X0407000Y0152395D02*
X0382056Y0152395D01*
X0382056Y0150822D02*
X0407000Y0150822D01*
X0407000Y0149249D02*
X0382056Y0149249D01*
X0382056Y0147675D02*
X0407000Y0147675D01*
X0407000Y0146102D02*
X0382056Y0146102D01*
X0382056Y0144529D02*
X0407000Y0144529D01*
X0407000Y0142955D02*
X0382056Y0142955D01*
X0382056Y0141382D02*
X0407000Y0141382D01*
X0407000Y0139809D02*
X0382056Y0139809D01*
X0382056Y0138235D02*
X0407000Y0138235D01*
X0407000Y0136662D02*
X0382056Y0136662D01*
X0382056Y0135089D02*
X0407000Y0135089D01*
X0407000Y0133515D02*
X0382056Y0133515D01*
X0382056Y0131942D02*
X0407000Y0131942D01*
X0407000Y0130369D02*
X0399518Y0130369D01*
X0399375Y0130473D02*
X0398683Y0130825D01*
X0397943Y0131065D01*
X0397176Y0131187D01*
X0396787Y0131187D01*
X0396787Y0126250D01*
X0396787Y0126250D01*
X0396787Y0126250D01*
X0396787Y0121313D01*
X0397176Y0121313D01*
X0397943Y0121435D01*
X0398683Y0121675D01*
X0399375Y0122027D01*
X0400004Y0122484D01*
X0400553Y0123034D01*
X0401010Y0123662D01*
X0401363Y0124355D01*
X0401603Y0125094D01*
X0401724Y0125861D01*
X0401724Y0126250D01*
X0401724Y0126639D01*
X0401603Y0127406D01*
X0401363Y0128145D01*
X0401010Y0128838D01*
X0400553Y0129466D01*
X0400004Y0130016D01*
X0399375Y0130473D01*
X0401031Y0128795D02*
X0407000Y0128795D01*
X0407000Y0127222D02*
X0401632Y0127222D01*
X0401724Y0126250D02*
X0396788Y0126250D01*
X0396788Y0126250D01*
X0401724Y0126250D01*
X0401691Y0125649D02*
X0407000Y0125649D01*
X0407000Y0124076D02*
X0401220Y0124076D01*
X0400022Y0122502D02*
X0407000Y0122502D01*
X0407000Y0117782D02*
X0298316Y0117782D01*
X0300007Y0116209D02*
X0407000Y0116209D01*
X0407000Y0114636D02*
X0301191Y0114636D01*
X0302099Y0113062D02*
X0407000Y0113062D01*
X0396787Y0122502D02*
X0396787Y0122502D01*
X0396787Y0124076D02*
X0396787Y0124076D01*
X0396787Y0125649D02*
X0396787Y0125649D01*
X0396787Y0127222D02*
X0396787Y0127222D01*
X0396787Y0128795D02*
X0396787Y0128795D01*
X0396787Y0130369D02*
X0396787Y0130369D01*
X0394057Y0130369D02*
X0389907Y0130369D01*
X0391273Y0128795D02*
X0392543Y0128795D01*
X0391943Y0127222D02*
X0391905Y0127222D01*
X0392354Y0124076D02*
X0391427Y0124076D01*
X0390278Y0122502D02*
X0393553Y0122502D01*
X0383668Y0130369D02*
X0382056Y0130369D01*
X0361309Y0125725D02*
X0361309Y0125725D01*
X0355719Y0130228D02*
X0352809Y0127318D01*
X0275993Y0127318D01*
X0275073Y0127700D01*
X0273502Y0127700D01*
X0272050Y0127098D01*
X0270939Y0125987D01*
X0270558Y0125067D01*
X0269766Y0124275D01*
X0268762Y0123271D01*
X0268219Y0121960D01*
X0268219Y0087318D01*
X0192856Y0087318D01*
X0192856Y0102044D01*
X0193237Y0102964D01*
X0193237Y0104536D01*
X0192636Y0105987D01*
X0191525Y0107098D01*
X0190073Y0107700D01*
X0188502Y0107700D01*
X0187050Y0107098D01*
X0185939Y0105987D01*
X0185338Y0104536D01*
X0185338Y0102964D01*
X0185719Y0102044D01*
X0185719Y0087318D01*
X0175766Y0087318D01*
X0161309Y0101775D01*
X0159997Y0102318D01*
X0070766Y0102318D01*
X0070356Y0102728D01*
X0070356Y0126960D01*
X0069813Y0128271D01*
X0068809Y0129275D01*
X0061309Y0136775D01*
X0059997Y0137318D01*
X0055457Y0137318D01*
X0054687Y0138089D01*
X0053091Y0138750D01*
X0054687Y0139411D01*
X0056126Y0140851D01*
X0056180Y0140981D01*
X0063141Y0140981D01*
X0071940Y0132182D01*
X0071940Y0132182D01*
X0072719Y0131403D01*
X0073737Y0130981D01*
X0127604Y0130981D01*
X0123141Y0126518D01*
X0079604Y0126518D01*
X0079025Y0127098D01*
X0077573Y0127700D01*
X0076002Y0127700D01*
X0074550Y0127098D01*
X0073439Y0125987D01*
X0072838Y0124536D01*
X0072838Y0122964D01*
X0073439Y0121513D01*
X0074550Y0120402D01*
X0076002Y0119800D01*
X0077573Y0119800D01*
X0079025Y0120402D01*
X0079604Y0120981D01*
X0124838Y0120981D01*
X0125856Y0121403D01*
X0126634Y0122182D01*
X0130434Y0125981D01*
X0137172Y0125981D01*
X0136669Y0124768D01*
X0136669Y0122732D01*
X0137448Y0120851D01*
X0138888Y0119411D01*
X0140484Y0118750D01*
X0138888Y0118089D01*
X0137448Y0116649D01*
X0136669Y0114768D01*
X0136669Y0112732D01*
X0137448Y0110851D01*
X0138888Y0109411D01*
X0140769Y0108632D01*
X0142805Y0108632D01*
X0144687Y0109411D01*
X0146126Y0110851D01*
X0146787Y0112447D01*
X0147448Y0110851D01*
X0148888Y0109411D01*
X0150769Y0108632D01*
X0152805Y0108632D01*
X0154687Y0109411D01*
X0156126Y0110851D01*
X0156905Y0112732D01*
X0156905Y0114768D01*
X0156126Y0116649D01*
X0154687Y0118089D01*
X0153091Y0118750D01*
X0154687Y0119411D01*
X0156126Y0120851D01*
X0156905Y0122732D01*
X0156905Y0124768D01*
X0156403Y0125981D01*
X0191470Y0125981D01*
X0192050Y0125402D01*
X0193502Y0124800D01*
X0195073Y0124800D01*
X0196525Y0125402D01*
X0197636Y0126513D01*
X0198237Y0127964D01*
X0198237Y0129536D01*
X0197636Y0130987D01*
X0196525Y0132098D01*
X0195073Y0132700D01*
X0193502Y0132700D01*
X0192050Y0132098D01*
X0191470Y0131518D01*
X0156403Y0131518D01*
X0156905Y0132732D01*
X0156905Y0134768D01*
X0156403Y0135981D01*
X0212338Y0135981D01*
X0213356Y0136403D01*
X0217934Y0140981D01*
X0344838Y0140981D01*
X0345856Y0141403D01*
X0350856Y0146403D01*
X0351634Y0147182D01*
X0352056Y0148199D01*
X0352056Y0168978D01*
X0352385Y0169114D01*
X0353923Y0170652D01*
X0354287Y0171531D01*
X0354651Y0170652D01*
X0355719Y0169585D01*
X0355719Y0130228D01*
X0355719Y0130369D02*
X0197892Y0130369D01*
X0198237Y0128795D02*
X0354286Y0128795D01*
X0355719Y0131942D02*
X0196681Y0131942D01*
X0191894Y0131942D02*
X0156578Y0131942D01*
X0156905Y0133515D02*
X0355719Y0133515D01*
X0355719Y0135089D02*
X0156773Y0135089D01*
X0141590Y0143553D02*
X0136850Y0143553D01*
X0136850Y0143361D01*
X0136972Y0142594D01*
X0137212Y0141855D01*
X0137383Y0141518D01*
X0133737Y0141518D01*
X0132719Y0141097D01*
X0131940Y0140318D01*
X0128141Y0136518D01*
X0075434Y0136518D01*
X0065856Y0146097D01*
X0064838Y0146518D01*
X0056180Y0146518D01*
X0056126Y0146649D01*
X0054687Y0148089D01*
X0053091Y0148750D01*
X0054687Y0149411D01*
X0056126Y0150851D01*
X0056180Y0150981D01*
X0063141Y0150981D01*
X0066940Y0147182D01*
X0067719Y0146403D01*
X0068737Y0145981D01*
X0137383Y0145981D01*
X0137212Y0145645D01*
X0136972Y0144906D01*
X0136850Y0144139D01*
X0136850Y0143947D01*
X0141590Y0143947D01*
X0141590Y0143553D01*
X0136915Y0142955D02*
X0068997Y0142955D01*
X0070571Y0141382D02*
X0133407Y0141382D01*
X0131431Y0139809D02*
X0072144Y0139809D01*
X0073717Y0138235D02*
X0129858Y0138235D01*
X0128284Y0136662D02*
X0075291Y0136662D01*
X0070607Y0133515D02*
X0064569Y0133515D01*
X0066142Y0131942D02*
X0072180Y0131942D01*
X0069033Y0135089D02*
X0062995Y0135089D01*
X0061422Y0136662D02*
X0067460Y0136662D01*
X0065887Y0138235D02*
X0054333Y0138235D01*
X0055084Y0139809D02*
X0064313Y0139809D01*
X0067424Y0144529D02*
X0136912Y0144529D01*
X0126991Y0130369D02*
X0067715Y0130369D01*
X0069289Y0128795D02*
X0125418Y0128795D01*
X0123844Y0127222D02*
X0078726Y0127222D01*
X0074849Y0127222D02*
X0070247Y0127222D01*
X0070356Y0125649D02*
X0073299Y0125649D01*
X0072838Y0124076D02*
X0070356Y0124076D01*
X0070356Y0122502D02*
X0073029Y0122502D01*
X0074023Y0120929D02*
X0070356Y0120929D01*
X0070356Y0119356D02*
X0139022Y0119356D01*
X0138582Y0117782D02*
X0070356Y0117782D01*
X0070356Y0116209D02*
X0137266Y0116209D01*
X0136669Y0114636D02*
X0070356Y0114636D01*
X0070356Y0113062D02*
X0136669Y0113062D01*
X0137184Y0111489D02*
X0070356Y0111489D01*
X0070356Y0109916D02*
X0138384Y0109916D01*
X0145191Y0109916D02*
X0148384Y0109916D01*
X0147184Y0111489D02*
X0146391Y0111489D01*
X0155191Y0109916D02*
X0160701Y0109916D01*
X0160701Y0110210D02*
X0160701Y0107290D01*
X0161456Y0104471D01*
X0162916Y0101943D01*
X0164980Y0099878D01*
X0167508Y0098419D01*
X0170328Y0097663D01*
X0173247Y0097663D01*
X0176067Y0098419D01*
X0178595Y0099878D01*
X0180659Y0101943D01*
X0182118Y0104471D01*
X0182874Y0107290D01*
X0182874Y0110210D01*
X0182118Y0113029D01*
X0180659Y0115557D01*
X0178595Y0117621D01*
X0176067Y0119081D01*
X0173247Y0119837D01*
X0170328Y0119837D01*
X0167508Y0119081D01*
X0164980Y0117621D01*
X0162916Y0115557D01*
X0161456Y0113029D01*
X0160701Y0110210D01*
X0161044Y0111489D02*
X0156391Y0111489D01*
X0156905Y0113062D02*
X0161475Y0113062D01*
X0162384Y0114636D02*
X0156905Y0114636D01*
X0156309Y0116209D02*
X0163568Y0116209D01*
X0165259Y0117782D02*
X0154993Y0117782D01*
X0154553Y0119356D02*
X0168533Y0119356D01*
X0175042Y0119356D02*
X0268219Y0119356D01*
X0268219Y0120929D02*
X0156159Y0120929D01*
X0156810Y0122502D02*
X0268444Y0122502D01*
X0269566Y0124076D02*
X0156905Y0124076D01*
X0156541Y0125649D02*
X0191803Y0125649D01*
X0196772Y0125649D02*
X0270799Y0125649D01*
X0272349Y0127222D02*
X0197930Y0127222D01*
X0213615Y0136662D02*
X0355719Y0136662D01*
X0355719Y0138235D02*
X0215188Y0138235D01*
X0216761Y0139809D02*
X0355719Y0139809D01*
X0355719Y0141382D02*
X0345805Y0141382D01*
X0347408Y0142955D02*
X0355719Y0142955D01*
X0355719Y0144529D02*
X0348981Y0144529D01*
X0350555Y0146102D02*
X0355719Y0146102D01*
X0355719Y0147675D02*
X0351839Y0147675D01*
X0352056Y0149249D02*
X0355719Y0149249D01*
X0355719Y0150822D02*
X0352056Y0150822D01*
X0352056Y0152395D02*
X0355719Y0152395D01*
X0355719Y0153969D02*
X0352056Y0153969D01*
X0352056Y0155542D02*
X0355719Y0155542D01*
X0355719Y0157115D02*
X0352056Y0157115D01*
X0352056Y0158688D02*
X0355719Y0158688D01*
X0355719Y0160262D02*
X0352056Y0160262D01*
X0352056Y0161835D02*
X0355719Y0161835D01*
X0355719Y0163408D02*
X0352056Y0163408D01*
X0352056Y0164982D02*
X0355719Y0164982D01*
X0355719Y0166555D02*
X0352056Y0166555D01*
X0352056Y0168128D02*
X0355719Y0168128D01*
X0355602Y0169702D02*
X0352973Y0169702D01*
X0354181Y0171275D02*
X0354394Y0171275D01*
X0364575Y0185435D02*
X0366187Y0185435D01*
X0364614Y0187008D02*
X0364575Y0187008D01*
X0385591Y0183862D02*
X0407000Y0183862D01*
X0407000Y0185435D02*
X0397521Y0185435D01*
X0400847Y0187008D02*
X0407000Y0187008D01*
X0407000Y0188581D02*
X0402576Y0188581D01*
X0403797Y0190155D02*
X0407000Y0190155D01*
X0407000Y0191728D02*
X0404706Y0191728D01*
X0405179Y0193301D02*
X0407000Y0193301D01*
X0407000Y0194875D02*
X0405571Y0194875D01*
X0405571Y0196448D02*
X0407000Y0196448D01*
X0407000Y0198021D02*
X0405494Y0198021D01*
X0405073Y0199595D02*
X0407000Y0199595D01*
X0407000Y0201168D02*
X0404477Y0201168D01*
X0403569Y0202741D02*
X0407000Y0202741D01*
X0385006Y0202741D02*
X0366711Y0202741D01*
X0380695Y0203616D02*
X0380695Y0203616D01*
X0390940Y0161835D02*
X0392926Y0161835D01*
X0392088Y0160262D02*
X0391701Y0160262D01*
X0391650Y0157115D02*
X0392128Y0157115D01*
X0393016Y0155542D02*
X0390817Y0155542D01*
X0388618Y0153969D02*
X0395527Y0153969D01*
X0396787Y0153969D02*
X0396787Y0153969D01*
X0396787Y0155542D02*
X0396787Y0155542D01*
X0396787Y0157115D02*
X0396787Y0157115D01*
X0396787Y0158688D02*
X0396787Y0158688D01*
X0396788Y0158750D02*
X0396788Y0158750D01*
X0396787Y0160262D02*
X0396787Y0160262D01*
X0396787Y0161835D02*
X0396787Y0161835D01*
X0384957Y0153969D02*
X0382056Y0153969D01*
X0382056Y0155542D02*
X0382757Y0155542D01*
X0350856Y0146403D02*
X0350856Y0146403D01*
X0307319Y0097329D02*
X0275356Y0097329D01*
X0275356Y0095756D02*
X0307319Y0095756D01*
X0307319Y0094183D02*
X0275356Y0094183D01*
X0275356Y0092609D02*
X0307319Y0092609D01*
X0307319Y0091036D02*
X0275356Y0091036D01*
X0275356Y0089463D02*
X0307319Y0089463D01*
X0307319Y0087889D02*
X0275356Y0087889D01*
X0281768Y0086316D02*
X0307319Y0086316D01*
X0307319Y0084743D02*
X0283341Y0084743D01*
X0284855Y0083169D02*
X0307319Y0083169D01*
X0307319Y0081596D02*
X0285356Y0081596D01*
X0285356Y0080023D02*
X0307319Y0080023D01*
X0307319Y0078449D02*
X0286416Y0078449D01*
X0286905Y0076876D02*
X0307319Y0076876D01*
X0307319Y0075303D02*
X0286905Y0075303D01*
X0286283Y0073729D02*
X0307319Y0073729D01*
X0307319Y0072156D02*
X0284932Y0072156D01*
X0278643Y0072156D02*
X0167296Y0072156D01*
X0167056Y0073729D02*
X0277292Y0073729D01*
X0276669Y0075303D02*
X0167056Y0075303D01*
X0167056Y0076876D02*
X0276669Y0076876D01*
X0277159Y0078449D02*
X0167056Y0078449D01*
X0167056Y0080023D02*
X0277968Y0080023D01*
X0268219Y0087889D02*
X0192856Y0087889D01*
X0192856Y0089463D02*
X0268219Y0089463D01*
X0268219Y0091036D02*
X0192856Y0091036D01*
X0192856Y0092609D02*
X0268219Y0092609D01*
X0268219Y0094183D02*
X0192856Y0094183D01*
X0192856Y0095756D02*
X0268219Y0095756D01*
X0268219Y0097329D02*
X0192856Y0097329D01*
X0192856Y0098903D02*
X0268219Y0098903D01*
X0268219Y0100476D02*
X0192856Y0100476D01*
X0192858Y0102049D02*
X0268219Y0102049D01*
X0268219Y0103622D02*
X0193237Y0103622D01*
X0192964Y0105196D02*
X0268219Y0105196D01*
X0268219Y0106769D02*
X0191854Y0106769D01*
X0186721Y0106769D02*
X0182734Y0106769D01*
X0182874Y0108342D02*
X0268219Y0108342D01*
X0268219Y0109916D02*
X0182874Y0109916D01*
X0182531Y0111489D02*
X0268219Y0111489D01*
X0268219Y0113062D02*
X0182099Y0113062D01*
X0181191Y0114636D02*
X0268219Y0114636D01*
X0268219Y0116209D02*
X0180007Y0116209D01*
X0178316Y0117782D02*
X0268219Y0117782D01*
X0307319Y0070583D02*
X0168870Y0070583D01*
X0172113Y0069010D02*
X0307319Y0069010D01*
X0307319Y0067436D02*
X0173071Y0067436D01*
X0173237Y0065863D02*
X0307319Y0065863D01*
X0308464Y0064290D02*
X0172750Y0064290D01*
X0171395Y0081596D02*
X0167056Y0081596D01*
X0167056Y0083169D02*
X0169821Y0083169D01*
X0168248Y0084743D02*
X0167056Y0084743D01*
X0172048Y0091036D02*
X0185719Y0091036D01*
X0185719Y0092609D02*
X0170475Y0092609D01*
X0168901Y0094183D02*
X0185719Y0094183D01*
X0185719Y0095756D02*
X0167328Y0095756D01*
X0165755Y0097329D02*
X0185719Y0097329D01*
X0185719Y0098903D02*
X0176904Y0098903D01*
X0179192Y0100476D02*
X0185719Y0100476D01*
X0185717Y0102049D02*
X0180720Y0102049D01*
X0181629Y0103622D02*
X0185338Y0103622D01*
X0185611Y0105196D02*
X0182313Y0105196D01*
X0166670Y0098903D02*
X0164181Y0098903D01*
X0164383Y0100476D02*
X0162608Y0100476D01*
X0162854Y0102049D02*
X0160647Y0102049D01*
X0161946Y0103622D02*
X0070356Y0103622D01*
X0070356Y0105196D02*
X0161262Y0105196D01*
X0160840Y0106769D02*
X0070356Y0106769D01*
X0070356Y0108342D02*
X0160701Y0108342D01*
X0137416Y0120929D02*
X0079552Y0120929D01*
X0044019Y0108342D02*
X0006575Y0108342D01*
X0006575Y0106769D02*
X0044019Y0106769D01*
X0044019Y0105196D02*
X0006575Y0105196D01*
X0006575Y0103622D02*
X0044019Y0103622D01*
X0044019Y0102049D02*
X0006575Y0102049D01*
X0006575Y0100476D02*
X0044019Y0100476D01*
X0044019Y0098903D02*
X0006575Y0098903D01*
X0006575Y0097329D02*
X0017040Y0097329D01*
X0013185Y0095756D02*
X0006575Y0095756D01*
X0006575Y0094183D02*
X0011263Y0094183D01*
X0009930Y0092609D02*
X0006575Y0092609D01*
X0006575Y0091036D02*
X0009022Y0091036D01*
X0008467Y0089463D02*
X0006575Y0089463D01*
X0006575Y0087889D02*
X0008045Y0087889D01*
X0008004Y0086316D02*
X0006575Y0086316D01*
X0006575Y0084743D02*
X0008010Y0084743D01*
X0008431Y0083169D02*
X0006575Y0083169D01*
X0006575Y0081596D02*
X0008945Y0081596D01*
X0009854Y0080023D02*
X0006575Y0080023D01*
X0006575Y0078449D02*
X0011131Y0078449D01*
X0012956Y0076876D02*
X0006575Y0076876D01*
X0029629Y0081596D02*
X0055026Y0081596D01*
X0053453Y0083169D02*
X0030143Y0083169D01*
X0030565Y0084743D02*
X0051879Y0084743D01*
X0050306Y0086316D02*
X0030571Y0086316D01*
X0030530Y0087889D02*
X0048733Y0087889D01*
X0047160Y0089463D02*
X0030108Y0089463D01*
X0029553Y0091036D02*
X0045586Y0091036D01*
X0044263Y0092609D02*
X0028645Y0092609D01*
X0027312Y0094183D02*
X0044019Y0094183D01*
X0044019Y0095756D02*
X0025390Y0095756D01*
X0021535Y0097329D02*
X0044019Y0097329D01*
X0038384Y0109916D02*
X0006575Y0109916D01*
X0006575Y0111489D02*
X0037184Y0111489D01*
X0036669Y0113062D02*
X0006575Y0113062D01*
X0006575Y0114636D02*
X0036669Y0114636D01*
X0037266Y0116209D02*
X0006575Y0116209D01*
X0006575Y0117782D02*
X0038582Y0117782D01*
X0039022Y0119356D02*
X0006575Y0119356D01*
X0006575Y0120929D02*
X0037416Y0120929D01*
X0036764Y0122502D02*
X0006575Y0122502D01*
X0006575Y0124076D02*
X0036669Y0124076D01*
X0037034Y0125649D02*
X0006575Y0125649D01*
X0006575Y0127222D02*
X0038021Y0127222D01*
X0040374Y0128795D02*
X0006575Y0128795D01*
X0006575Y0130369D02*
X0037930Y0130369D01*
X0036996Y0131942D02*
X0006575Y0131942D01*
X0006575Y0133515D02*
X0036669Y0133515D01*
X0036802Y0135089D02*
X0006575Y0135089D01*
X0006575Y0136662D02*
X0037461Y0136662D01*
X0039242Y0138235D02*
X0006575Y0138235D01*
X0006575Y0139809D02*
X0038491Y0139809D01*
X0037228Y0141382D02*
X0006575Y0141382D01*
X0006575Y0142955D02*
X0036669Y0142955D01*
X0036669Y0144529D02*
X0006575Y0144529D01*
X0006575Y0146102D02*
X0037222Y0146102D01*
X0038475Y0147675D02*
X0006575Y0147675D01*
X0006575Y0149249D02*
X0039280Y0149249D01*
X0037477Y0150822D02*
X0006575Y0150822D01*
X0006575Y0152395D02*
X0036809Y0152395D01*
X0036669Y0153969D02*
X0006575Y0153969D01*
X0006575Y0155542D02*
X0036990Y0155542D01*
X0037914Y0157115D02*
X0006575Y0157115D01*
X0006575Y0158688D02*
X0040336Y0158688D01*
X0038038Y0160262D02*
X0006575Y0160262D01*
X0006575Y0161835D02*
X0037041Y0161835D01*
X0036669Y0163408D02*
X0006575Y0163408D01*
X0006575Y0164982D02*
X0036758Y0164982D01*
X0037409Y0166555D02*
X0006575Y0166555D01*
X0006575Y0168128D02*
X0038983Y0168128D01*
X0038598Y0169702D02*
X0006575Y0169702D01*
X0006575Y0171275D02*
X0037273Y0171275D01*
X0036669Y0172848D02*
X0006575Y0172848D01*
X0006575Y0174422D02*
X0036669Y0174422D01*
X0037177Y0175995D02*
X0006575Y0175995D01*
X0006575Y0177568D02*
X0038368Y0177568D01*
X0039539Y0179142D02*
X0006575Y0179142D01*
X0006575Y0180715D02*
X0037584Y0180715D01*
X0036853Y0182288D02*
X0006575Y0182288D01*
X0006575Y0183862D02*
X0036669Y0183862D01*
X0036945Y0185435D02*
X0022521Y0185435D01*
X0025847Y0187008D02*
X0037807Y0187008D01*
X0040077Y0188581D02*
X0027576Y0188581D01*
X0028797Y0190155D02*
X0038145Y0190155D01*
X0037085Y0191728D02*
X0029706Y0191728D01*
X0030179Y0193301D02*
X0036669Y0193301D01*
X0036713Y0194875D02*
X0030571Y0194875D01*
X0030571Y0196448D02*
X0037365Y0196448D01*
X0038821Y0198021D02*
X0030494Y0198021D01*
X0030073Y0199595D02*
X0039107Y0199595D01*
X0037562Y0201168D02*
X0029477Y0201168D01*
X0028569Y0202741D02*
X0036949Y0202741D01*
X0036878Y0204315D02*
X0027180Y0204315D01*
X0025161Y0205888D02*
X0037336Y0205888D01*
X0038517Y0207461D02*
X0021042Y0207461D01*
X0023733Y0209035D02*
X0113986Y0209035D01*
X0113014Y0207461D02*
X0055314Y0207461D01*
X0056442Y0205888D02*
X0112838Y0205888D01*
X0113314Y0204315D02*
X0056905Y0204315D01*
X0056905Y0202741D02*
X0114937Y0202741D01*
X0118637Y0202741D02*
X0128121Y0202741D01*
X0130454Y0202741D02*
X0136669Y0202741D01*
X0136669Y0204315D02*
X0120261Y0204315D01*
X0120737Y0205888D02*
X0137133Y0205888D01*
X0128756Y0212181D02*
X0165322Y0212181D01*
X0163604Y0213754D02*
X0128756Y0213754D01*
X0128756Y0215328D02*
X0162405Y0215328D01*
X0161497Y0216901D02*
X0128756Y0216901D01*
X0128756Y0218474D02*
X0161053Y0218474D01*
X0160701Y0220048D02*
X0128756Y0220048D01*
X0128756Y0221621D02*
X0160701Y0221621D01*
X0160831Y0223194D02*
X0128756Y0223194D01*
X0128756Y0224768D02*
X0161252Y0224768D01*
X0161925Y0226341D02*
X0128756Y0226341D01*
X0128756Y0227914D02*
X0162833Y0227914D01*
X0164346Y0229488D02*
X0128756Y0229488D01*
X0128756Y0231061D02*
X0166607Y0231061D01*
X0176968Y0231061D02*
X0210940Y0231061D01*
X0222634Y0231061D02*
X0223219Y0231061D01*
X0223219Y0232634D02*
X0128756Y0232634D01*
X0128756Y0234208D02*
X0223219Y0234208D01*
X0223772Y0235781D02*
X0128756Y0235781D01*
X0128756Y0237354D02*
X0225345Y0237354D01*
X0197779Y0229488D02*
X0179229Y0229488D01*
X0180741Y0227914D02*
X0195905Y0227914D01*
X0194332Y0226341D02*
X0181650Y0226341D01*
X0182323Y0224768D02*
X0193346Y0224768D01*
X0193219Y0223194D02*
X0182744Y0223194D01*
X0182874Y0221621D02*
X0193219Y0221621D01*
X0191150Y0220048D02*
X0190425Y0220048D01*
X0190425Y0218474D02*
X0191150Y0218474D01*
X0191150Y0216901D02*
X0190425Y0216901D01*
X0186700Y0216901D02*
X0182078Y0216901D01*
X0182521Y0218474D02*
X0186700Y0218474D01*
X0186811Y0220048D02*
X0182874Y0220048D01*
X0181170Y0215328D02*
X0186700Y0215328D01*
X0186700Y0213754D02*
X0179971Y0213754D01*
X0178253Y0212181D02*
X0186954Y0212181D01*
X0164363Y0202741D02*
X0156626Y0202741D01*
X0136713Y0194875D02*
X0130734Y0194875D01*
X0127841Y0194875D02*
X0056861Y0194875D01*
X0056905Y0193301D02*
X0136669Y0193301D01*
X0137085Y0191728D02*
X0056490Y0191728D01*
X0055430Y0190155D02*
X0138145Y0190155D01*
X0140077Y0188581D02*
X0053498Y0188581D01*
X0055767Y0187008D02*
X0086960Y0187008D01*
X0091615Y0187008D02*
X0137807Y0187008D01*
X0136945Y0185435D02*
X0092865Y0185435D01*
X0093237Y0183862D02*
X0136669Y0183862D01*
X0136853Y0182288D02*
X0092957Y0182288D01*
X0091838Y0180715D02*
X0124837Y0180715D01*
X0123264Y0179142D02*
X0054036Y0179142D01*
X0055207Y0177568D02*
X0121690Y0177568D01*
X0125766Y0196448D02*
X0056210Y0196448D01*
X0054754Y0198021D02*
X0125154Y0198021D01*
X0125163Y0199595D02*
X0054870Y0199595D01*
X0056258Y0201168D02*
X0125859Y0201168D01*
X0086737Y0180715D02*
X0055990Y0180715D01*
X0041984Y0204315D02*
X0041591Y0204315D01*
X0041591Y0205888D02*
X0041984Y0205888D01*
X0041984Y0207461D02*
X0041591Y0207461D01*
X0045058Y0207461D02*
X0048261Y0207461D01*
X0047133Y0205888D02*
X0046239Y0205888D01*
X0033697Y0216901D02*
X0062319Y0216901D01*
X0062319Y0215328D02*
X0032313Y0215328D01*
X0032529Y0215509D02*
X0032529Y0215509D01*
X0030438Y0213754D02*
X0062319Y0213754D01*
X0062319Y0212181D02*
X0028563Y0212181D01*
X0026458Y0210608D02*
X0062319Y0210608D01*
X0062319Y0218474D02*
X0035017Y0218474D01*
X0036338Y0220048D02*
X0062319Y0220048D01*
X0062319Y0221621D02*
X0037454Y0221621D01*
X0038362Y0223194D02*
X0062319Y0223194D01*
X0062319Y0224768D02*
X0039270Y0224768D01*
X0040179Y0226341D02*
X0062319Y0226341D01*
X0062319Y0227914D02*
X0040865Y0227914D01*
X0041437Y0229488D02*
X0062319Y0229488D01*
X0062319Y0231061D02*
X0042010Y0231061D01*
X0042582Y0232634D02*
X0062319Y0232634D01*
X0062319Y0234208D02*
X0043006Y0234208D01*
X0042866Y0233413D02*
X0042866Y0233413D01*
X0043283Y0235781D02*
X0062319Y0235781D01*
X0062319Y0237354D02*
X0043561Y0237354D01*
X0043838Y0238928D02*
X0062319Y0238928D01*
X0062319Y0240501D02*
X0044075Y0240501D01*
X0011395Y0204315D02*
X0009765Y0204315D01*
X0010006Y0202741D02*
X0006575Y0202741D01*
X0006575Y0201168D02*
X0009098Y0201168D01*
X0008502Y0199595D02*
X0006575Y0199595D01*
X0006575Y0198021D02*
X0008081Y0198021D01*
X0008004Y0196448D02*
X0006575Y0196448D01*
X0006575Y0194875D02*
X0008004Y0194875D01*
X0008396Y0193301D02*
X0006575Y0193301D01*
X0006575Y0191728D02*
X0008869Y0191728D01*
X0009777Y0190155D02*
X0006575Y0190155D01*
X0006575Y0188581D02*
X0010999Y0188581D01*
X0012728Y0187008D02*
X0006575Y0187008D01*
X0006575Y0185435D02*
X0016054Y0185435D01*
X0054294Y0149249D02*
X0064874Y0149249D01*
X0066447Y0147675D02*
X0055100Y0147675D01*
X0056097Y0150822D02*
X0063300Y0150822D01*
X0065844Y0146102D02*
X0068446Y0146102D01*
X0126955Y0122502D02*
X0136764Y0122502D01*
X0136669Y0124076D02*
X0128528Y0124076D01*
X0130102Y0125649D02*
X0137034Y0125649D01*
X0173621Y0089463D02*
X0185719Y0089463D01*
X0185719Y0087889D02*
X0175195Y0087889D01*
M02*
