G75*
%MOIN*%
%OFA0B0*%
%FSLAX25Y25*%
%IPPOS*%
%LPD*%
%AMOC8*
5,1,8,0,0,1.08239X$1,22.5*
%
%ADD10C,0.01500*%
%ADD11C,0.00800*%
%ADD12C,0.01575*%
%ADD13C,0.00600*%
%ADD14C,0.00500*%
%ADD15C,0.00400*%
%ADD16C,0.01000*%
%ADD17C,0.00984*%
%ADD18C,0.00700*%
%ADD19R,0.20000X0.05000*%
%ADD20C,0.00983*%
%ADD21C,0.00394*%
%ADD22C,0.00300*%
%ADD23C,0.00200*%
D10*
X0016448Y0114500D02*
X0022120Y0114500D01*
X0023537Y0115918D01*
X0023537Y0118754D01*
X0022120Y0120172D01*
X0016448Y0120172D01*
X0015030Y0118754D01*
X0015030Y0115918D01*
X0016448Y0114500D01*
X0017866Y0123708D02*
X0017866Y0127961D01*
X0019284Y0129379D01*
X0022120Y0129379D01*
X0023537Y0127961D01*
X0023537Y0123708D01*
X0026373Y0123708D02*
X0017866Y0123708D01*
X0019284Y0132916D02*
X0017866Y0134334D01*
X0017866Y0137169D01*
X0019284Y0138587D01*
X0020702Y0138587D01*
X0020702Y0132916D01*
X0022120Y0132916D02*
X0019284Y0132916D01*
X0022120Y0132916D02*
X0023537Y0134334D01*
X0023537Y0137169D01*
X0023537Y0142124D02*
X0017866Y0142124D01*
X0017866Y0146377D01*
X0019284Y0147795D01*
X0023537Y0147795D01*
X0023537Y0151331D02*
X0015030Y0151331D01*
X0015030Y0155585D01*
X0016448Y0157003D01*
X0022120Y0157003D01*
X0023537Y0155585D01*
X0023537Y0151331D01*
X0015030Y0160539D02*
X0015030Y0166211D01*
X0015030Y0169747D02*
X0022120Y0169747D01*
X0023537Y0171165D01*
X0023537Y0174001D01*
X0022120Y0175419D01*
X0015030Y0175419D01*
X0015030Y0163375D02*
X0023537Y0163375D01*
D11*
X0107187Y0064008D02*
X0110331Y0064008D01*
X0112263Y0064008D02*
X0113835Y0064794D01*
X0114621Y0064794D01*
X0115406Y0064008D01*
X0115406Y0062436D01*
X0114621Y0061650D01*
X0113049Y0061650D01*
X0112263Y0062436D01*
X0112263Y0064008D02*
X0112263Y0066366D01*
X0115406Y0066366D01*
X0117338Y0066366D02*
X0117338Y0063222D01*
X0118910Y0061650D01*
X0120482Y0063222D01*
X0120482Y0066366D01*
X0124687Y0064008D02*
X0127831Y0064008D01*
X0126259Y0065580D02*
X0126259Y0062436D01*
X0108759Y0062436D02*
X0108759Y0065580D01*
X0111787Y0078750D02*
X0111787Y0098750D01*
X0081787Y0098750D01*
X0081787Y0078750D01*
X0111787Y0078750D01*
X0126529Y0049794D02*
X0126529Y0046650D01*
X0066787Y0083750D02*
X0066787Y0103750D01*
X0051787Y0103750D01*
X0051787Y0083750D01*
X0066787Y0083750D01*
X0199687Y0139936D02*
X0200473Y0139150D01*
X0202045Y0139150D01*
X0202831Y0139936D01*
X0202831Y0143080D01*
X0202045Y0143866D01*
X0200473Y0143866D01*
X0199687Y0143080D01*
X0199687Y0139936D01*
X0204763Y0139150D02*
X0206335Y0139150D01*
X0205549Y0139150D02*
X0205549Y0143866D01*
X0204763Y0143866D01*
X0208146Y0141508D02*
X0208932Y0142294D01*
X0210504Y0142294D01*
X0211290Y0141508D01*
X0211290Y0140722D01*
X0208146Y0140722D01*
X0208146Y0139936D02*
X0208146Y0141508D01*
X0208146Y0139936D02*
X0208932Y0139150D01*
X0210504Y0139150D01*
X0213221Y0139936D02*
X0213221Y0141508D01*
X0214007Y0142294D01*
X0216365Y0142294D01*
X0216365Y0143866D02*
X0216365Y0139150D01*
X0214007Y0139150D01*
X0213221Y0139936D01*
X0223372Y0139150D02*
X0225730Y0139150D01*
X0226516Y0139936D01*
X0226516Y0143080D01*
X0225730Y0143866D01*
X0223372Y0143866D01*
X0223372Y0139150D01*
X0228447Y0139150D02*
X0230019Y0139150D01*
X0229233Y0139150D02*
X0229233Y0142294D01*
X0228447Y0142294D01*
X0229233Y0143866D02*
X0229233Y0144652D01*
X0231830Y0141508D02*
X0232616Y0142294D01*
X0234974Y0142294D01*
X0234188Y0140722D02*
X0232616Y0140722D01*
X0231830Y0141508D01*
X0231830Y0139150D02*
X0234188Y0139150D01*
X0234974Y0139936D01*
X0234188Y0140722D01*
X0236906Y0142294D02*
X0236906Y0137578D01*
X0236906Y0139150D02*
X0239263Y0139150D01*
X0240049Y0139936D01*
X0240049Y0141508D01*
X0239263Y0142294D01*
X0236906Y0142294D01*
X0241981Y0143866D02*
X0242767Y0143866D01*
X0242767Y0139150D01*
X0241981Y0139150D02*
X0243553Y0139150D01*
X0245364Y0139936D02*
X0246150Y0140722D01*
X0248508Y0140722D01*
X0248508Y0141508D02*
X0248508Y0139150D01*
X0246150Y0139150D01*
X0245364Y0139936D01*
X0246150Y0142294D02*
X0247722Y0142294D01*
X0248508Y0141508D01*
X0250439Y0142294D02*
X0250439Y0139936D01*
X0251225Y0139150D01*
X0253583Y0139150D01*
X0253583Y0138364D02*
X0252797Y0137578D01*
X0252011Y0137578D01*
X0253583Y0138364D02*
X0253583Y0142294D01*
X0339172Y0142026D02*
X0343887Y0142026D01*
X0343887Y0145170D01*
X0343101Y0147101D02*
X0339958Y0150245D01*
X0343101Y0150245D01*
X0343887Y0149459D01*
X0343887Y0147887D01*
X0343101Y0147101D01*
X0339958Y0147101D01*
X0339172Y0147887D01*
X0339172Y0149459D01*
X0339958Y0150245D01*
X0340744Y0152176D02*
X0339172Y0153748D01*
X0343887Y0153748D01*
X0343887Y0152176D02*
X0343887Y0155320D01*
X0341529Y0157252D02*
X0341529Y0160395D01*
X0339958Y0158824D02*
X0343101Y0158824D01*
X0341529Y0140095D02*
X0341529Y0136951D01*
X0339172Y0139309D01*
X0343887Y0139309D01*
X0343887Y0135019D02*
X0343887Y0131876D01*
X0340744Y0135019D01*
X0339958Y0135019D01*
X0339172Y0134234D01*
X0339172Y0132662D01*
X0339958Y0131876D01*
X0339172Y0129944D02*
X0339172Y0126800D01*
X0343887Y0126800D01*
X0343887Y0124869D02*
X0342315Y0123297D01*
X0342315Y0124083D02*
X0342315Y0121725D01*
X0343887Y0121725D02*
X0339172Y0121725D01*
X0339172Y0124083D01*
X0339958Y0124869D01*
X0341529Y0124869D01*
X0342315Y0124083D01*
X0341529Y0126800D02*
X0341529Y0128372D01*
X0339172Y0119794D02*
X0343887Y0119794D01*
X0339172Y0116650D01*
X0343887Y0116650D01*
X0247045Y0214150D02*
X0247045Y0218866D01*
X0244687Y0216508D01*
X0247831Y0216508D01*
X0237831Y0217294D02*
X0237045Y0216508D01*
X0237831Y0215722D01*
X0237831Y0214936D01*
X0237045Y0214150D01*
X0235473Y0214150D01*
X0234687Y0214936D01*
X0236259Y0216508D02*
X0237045Y0216508D01*
X0237831Y0217294D02*
X0237831Y0218080D01*
X0237045Y0218866D01*
X0235473Y0218866D01*
X0234687Y0218080D01*
X0227831Y0218080D02*
X0227045Y0218866D01*
X0225473Y0218866D01*
X0224687Y0218080D01*
X0227831Y0218080D02*
X0227831Y0217294D01*
X0224687Y0214150D01*
X0227831Y0214150D01*
X0217831Y0214150D02*
X0214687Y0214150D01*
X0216259Y0214150D02*
X0216259Y0218866D01*
X0214687Y0217294D01*
X0110858Y0194918D02*
X0107714Y0194918D01*
X0109286Y0194918D02*
X0109286Y0199634D01*
X0107714Y0198062D01*
X0105782Y0198848D02*
X0105782Y0195704D01*
X0104996Y0194918D01*
X0102639Y0194918D01*
X0102639Y0199634D01*
X0104996Y0199634D01*
X0105782Y0198848D01*
X0095632Y0198062D02*
X0093274Y0198062D01*
X0092488Y0197276D01*
X0093274Y0196490D01*
X0094846Y0196490D01*
X0095632Y0195704D01*
X0094846Y0194918D01*
X0092488Y0194918D01*
X0090557Y0195704D02*
X0090557Y0197276D01*
X0089771Y0198062D01*
X0088199Y0198062D01*
X0087413Y0197276D01*
X0087413Y0195704D01*
X0088199Y0194918D01*
X0089771Y0194918D01*
X0090557Y0195704D01*
X0089771Y0191366D02*
X0090557Y0190580D01*
X0090557Y0189794D01*
X0089771Y0189008D01*
X0090557Y0188222D01*
X0090557Y0187436D01*
X0089771Y0186650D01*
X0088199Y0186650D01*
X0087413Y0187436D01*
X0088985Y0189008D02*
X0089771Y0189008D01*
X0089771Y0191366D02*
X0088199Y0191366D01*
X0087413Y0190580D01*
X0085482Y0190580D02*
X0084696Y0191366D01*
X0082338Y0191366D01*
X0082338Y0186650D01*
X0082338Y0188222D02*
X0084696Y0188222D01*
X0085482Y0189008D01*
X0085482Y0190580D01*
X0080406Y0190580D02*
X0079621Y0191366D01*
X0078049Y0191366D01*
X0077263Y0190580D01*
X0077263Y0189794D01*
X0078049Y0189008D01*
X0079621Y0189008D01*
X0080406Y0188222D01*
X0080406Y0187436D01*
X0079621Y0186650D01*
X0078049Y0186650D01*
X0077263Y0187436D01*
X0075331Y0186650D02*
X0072187Y0186650D01*
X0072187Y0191366D01*
X0075331Y0191366D01*
X0073759Y0189008D02*
X0072187Y0189008D01*
X0072187Y0194918D02*
X0073759Y0196490D01*
X0075331Y0194918D01*
X0075331Y0199634D01*
X0077263Y0197276D02*
X0078049Y0198062D01*
X0079621Y0198062D01*
X0080406Y0197276D01*
X0080406Y0196490D01*
X0077263Y0196490D01*
X0077263Y0195704D02*
X0077263Y0197276D01*
X0077263Y0195704D02*
X0078049Y0194918D01*
X0079621Y0194918D01*
X0082338Y0194918D02*
X0082338Y0198062D01*
X0083124Y0198062D01*
X0083910Y0197276D01*
X0084696Y0198062D01*
X0085482Y0197276D01*
X0085482Y0194918D01*
X0083910Y0194918D02*
X0083910Y0197276D01*
X0092488Y0190580D02*
X0093274Y0191366D01*
X0094846Y0191366D01*
X0095632Y0190580D01*
X0095632Y0189794D01*
X0092488Y0186650D01*
X0095632Y0186650D01*
X0072187Y0194918D02*
X0072187Y0199634D01*
D12*
X0314287Y0078750D02*
X0324287Y0078750D01*
X0324287Y0093750D01*
X0329287Y0093750D01*
X0329287Y0078750D01*
X0334287Y0078750D01*
X0334287Y0093750D01*
X0339287Y0093750D01*
X0339287Y0078750D01*
X0344287Y0078750D01*
X0344287Y0093750D01*
X0349287Y0093750D01*
X0349287Y0078750D01*
X0354287Y0078750D01*
X0354287Y0098750D01*
X0329287Y0098750D01*
X0354287Y0098750D02*
X0354287Y0103750D01*
D13*
X0389587Y0110118D02*
X0390655Y0109050D01*
X0392790Y0109050D01*
X0393858Y0110118D01*
X0393858Y0114388D01*
X0389587Y0110118D01*
X0389587Y0114388D01*
X0390655Y0115455D01*
X0392790Y0115455D01*
X0393858Y0114388D01*
X0393858Y0141550D02*
X0389587Y0141550D01*
X0391723Y0141550D02*
X0391723Y0147955D01*
X0389587Y0145820D01*
X0266487Y0070648D02*
X0266487Y0069180D01*
X0265753Y0068446D01*
X0262818Y0071382D01*
X0265753Y0071382D01*
X0266487Y0070648D01*
X0265753Y0068446D02*
X0262818Y0068446D01*
X0262084Y0069180D01*
X0262084Y0070648D01*
X0262818Y0071382D01*
X0266487Y0066778D02*
X0266487Y0063842D01*
X0266487Y0065310D02*
X0262084Y0065310D01*
X0263552Y0063842D01*
X0263552Y0062174D02*
X0266487Y0059238D01*
X0265753Y0059238D02*
X0266487Y0059972D01*
X0266487Y0061440D01*
X0265753Y0062174D01*
X0264286Y0062174D01*
X0263552Y0061440D01*
X0263552Y0059972D01*
X0264286Y0059238D01*
X0265753Y0059238D01*
D14*
X0254287Y0041250D02*
X0254287Y0096250D01*
X0174287Y0096250D01*
X0174287Y0041250D01*
X0254287Y0041250D01*
X0314287Y0031250D02*
X0334287Y0031250D01*
X0334287Y0021250D01*
X0331787Y0021250D01*
X0331787Y0003750D01*
X0334287Y0003750D01*
X0334287Y0001250D01*
X0354287Y0001250D01*
X0354287Y0003750D01*
X0356787Y0003750D01*
X0356787Y0021250D01*
X0354287Y0021250D01*
X0354287Y0031250D01*
X0374287Y0031250D01*
X0374287Y0191250D01*
X0314287Y0191250D01*
X0314287Y0031250D01*
X0331787Y0033750D02*
X0331787Y0058750D01*
X0356787Y0058750D01*
X0356787Y0033750D01*
X0354287Y0033750D01*
X0354287Y0031250D01*
X0354287Y0033750D02*
X0334287Y0033750D01*
X0334287Y0031250D01*
X0334287Y0033750D02*
X0331787Y0033750D01*
X0300787Y0100187D02*
X0266787Y0100187D01*
X0256787Y0117687D01*
X0206787Y0117687D01*
X0196787Y0100187D01*
X0162787Y0100187D01*
X0162787Y0231250D01*
X0300787Y0231250D01*
X0300787Y0100187D01*
X0266787Y0100187D02*
X0196787Y0100187D01*
X0156787Y0078750D02*
X0036787Y0078750D01*
X0036787Y0223750D01*
X0036790Y0223992D01*
X0036799Y0224233D01*
X0036813Y0224474D01*
X0036834Y0224715D01*
X0036860Y0224955D01*
X0036892Y0225195D01*
X0036930Y0225434D01*
X0036973Y0225671D01*
X0037023Y0225908D01*
X0037078Y0226143D01*
X0037138Y0226377D01*
X0037205Y0226609D01*
X0037276Y0226840D01*
X0037354Y0227069D01*
X0037437Y0227296D01*
X0037525Y0227521D01*
X0037619Y0227744D01*
X0037718Y0227964D01*
X0037823Y0228182D01*
X0037932Y0228397D01*
X0038047Y0228610D01*
X0038167Y0228820D01*
X0038292Y0229026D01*
X0038422Y0229230D01*
X0038557Y0229431D01*
X0038697Y0229628D01*
X0038841Y0229822D01*
X0038990Y0230012D01*
X0039144Y0230198D01*
X0039302Y0230381D01*
X0039464Y0230560D01*
X0039631Y0230735D01*
X0039802Y0230906D01*
X0039977Y0231073D01*
X0040156Y0231235D01*
X0040339Y0231393D01*
X0040525Y0231547D01*
X0040715Y0231696D01*
X0040909Y0231840D01*
X0041106Y0231980D01*
X0041307Y0232115D01*
X0041511Y0232245D01*
X0041717Y0232370D01*
X0041927Y0232490D01*
X0042140Y0232605D01*
X0042355Y0232714D01*
X0042573Y0232819D01*
X0042793Y0232918D01*
X0043016Y0233012D01*
X0043241Y0233100D01*
X0043468Y0233183D01*
X0043697Y0233261D01*
X0043928Y0233332D01*
X0044160Y0233399D01*
X0044394Y0233459D01*
X0044629Y0233514D01*
X0044866Y0233564D01*
X0045103Y0233607D01*
X0045342Y0233645D01*
X0045582Y0233677D01*
X0045822Y0233703D01*
X0046063Y0233724D01*
X0046304Y0233738D01*
X0046545Y0233747D01*
X0046787Y0233750D01*
X0146787Y0233750D01*
X0147029Y0233747D01*
X0147270Y0233738D01*
X0147511Y0233724D01*
X0147752Y0233703D01*
X0147992Y0233677D01*
X0148232Y0233645D01*
X0148471Y0233607D01*
X0148708Y0233564D01*
X0148945Y0233514D01*
X0149180Y0233459D01*
X0149414Y0233399D01*
X0149646Y0233332D01*
X0149877Y0233261D01*
X0150106Y0233183D01*
X0150333Y0233100D01*
X0150558Y0233012D01*
X0150781Y0232918D01*
X0151001Y0232819D01*
X0151219Y0232714D01*
X0151434Y0232605D01*
X0151647Y0232490D01*
X0151857Y0232370D01*
X0152063Y0232245D01*
X0152267Y0232115D01*
X0152468Y0231980D01*
X0152665Y0231840D01*
X0152859Y0231696D01*
X0153049Y0231547D01*
X0153235Y0231393D01*
X0153418Y0231235D01*
X0153597Y0231073D01*
X0153772Y0230906D01*
X0153943Y0230735D01*
X0154110Y0230560D01*
X0154272Y0230381D01*
X0154430Y0230198D01*
X0154584Y0230012D01*
X0154733Y0229822D01*
X0154877Y0229628D01*
X0155017Y0229431D01*
X0155152Y0229230D01*
X0155282Y0229026D01*
X0155407Y0228820D01*
X0155527Y0228610D01*
X0155642Y0228397D01*
X0155751Y0228182D01*
X0155856Y0227964D01*
X0155955Y0227744D01*
X0156049Y0227521D01*
X0156137Y0227296D01*
X0156220Y0227069D01*
X0156298Y0226840D01*
X0156369Y0226609D01*
X0156436Y0226377D01*
X0156496Y0226143D01*
X0156551Y0225908D01*
X0156601Y0225671D01*
X0156644Y0225434D01*
X0156682Y0225195D01*
X0156714Y0224955D01*
X0156740Y0224715D01*
X0156761Y0224474D01*
X0156775Y0224233D01*
X0156784Y0223992D01*
X0156787Y0223750D01*
X0156787Y0078750D01*
X0171787Y0129250D02*
X0171787Y0208250D01*
X0291787Y0208250D01*
X0291787Y0129250D01*
X0171787Y0129250D01*
X0127887Y0138750D02*
X0127887Y0210850D01*
X0127787Y0210850D01*
X0127890Y0210821D02*
X0064898Y0210821D01*
X0064898Y0233656D01*
X0127890Y0233656D01*
X0127890Y0210821D01*
X0064887Y0210850D02*
X0064887Y0138750D01*
X0127787Y0138750D01*
X0211787Y0223750D02*
X0214287Y0221250D01*
X0219287Y0221250D01*
X0221787Y0223750D01*
X0224287Y0221250D01*
X0229287Y0221250D01*
X0231787Y0223750D01*
X0234287Y0221250D01*
X0239287Y0221250D01*
X0241787Y0223750D01*
X0244287Y0221250D01*
X0249287Y0221250D01*
X0251787Y0223750D01*
X0251787Y0228750D01*
X0249287Y0231250D01*
X0244287Y0231250D02*
X0241787Y0228750D01*
X0239287Y0231250D01*
X0234287Y0231250D02*
X0231787Y0228750D01*
X0229287Y0231250D01*
X0224287Y0231250D02*
X0221787Y0228750D01*
X0219287Y0231250D01*
X0214287Y0231250D02*
X0211787Y0228750D01*
X0211787Y0223750D01*
X0324287Y0186250D02*
X0324287Y0181250D01*
X0326787Y0178750D01*
X0324287Y0176250D01*
X0324287Y0171250D01*
X0326787Y0168750D01*
X0331787Y0168750D01*
X0334287Y0171250D01*
X0336787Y0168750D01*
X0341787Y0168750D01*
X0344287Y0171250D01*
X0346787Y0168750D01*
X0351787Y0168750D01*
X0354287Y0171250D01*
X0356787Y0168750D01*
X0361787Y0168750D01*
X0364287Y0171250D01*
X0364287Y0186250D01*
X0361787Y0188750D01*
X0356787Y0188750D01*
X0354287Y0186250D01*
X0351787Y0188750D01*
X0346787Y0188750D01*
X0344287Y0186250D01*
X0341787Y0188750D01*
X0336787Y0188750D01*
X0334287Y0186250D01*
X0331787Y0188750D01*
X0326787Y0188750D01*
X0324287Y0186250D01*
X0327935Y0197700D02*
X0327935Y0203505D01*
X0330838Y0203505D01*
X0331805Y0202537D01*
X0331805Y0200602D01*
X0330838Y0199635D01*
X0327935Y0199635D01*
X0329870Y0199635D02*
X0331805Y0197700D01*
X0333736Y0197700D02*
X0337606Y0197700D01*
X0335671Y0197700D02*
X0335671Y0203505D01*
X0333736Y0201570D01*
X0333736Y0207700D02*
X0337606Y0211570D01*
X0337606Y0212537D01*
X0336639Y0213505D01*
X0334704Y0213505D01*
X0333736Y0212537D01*
X0331805Y0212537D02*
X0331805Y0210602D01*
X0330838Y0209635D01*
X0327935Y0209635D01*
X0327935Y0207700D02*
X0327935Y0213505D01*
X0330838Y0213505D01*
X0331805Y0212537D01*
X0329870Y0209635D02*
X0331805Y0207700D01*
X0333736Y0207700D02*
X0337606Y0207700D01*
D15*
X0377909Y0189148D02*
X0377909Y0187613D01*
X0378676Y0186846D01*
X0377909Y0185311D02*
X0382513Y0185311D01*
X0381745Y0186846D02*
X0382513Y0187613D01*
X0382513Y0189148D01*
X0381745Y0189915D01*
X0380978Y0189915D01*
X0380211Y0189148D01*
X0380211Y0188381D01*
X0380211Y0189148D02*
X0379443Y0189915D01*
X0378676Y0189915D01*
X0377909Y0189148D01*
X0377909Y0185311D02*
X0379443Y0183777D01*
X0377909Y0182242D01*
X0382513Y0182242D01*
X0379470Y0158554D02*
X0377765Y0158554D01*
X0376912Y0157702D01*
X0375248Y0157702D02*
X0375248Y0154291D01*
X0374395Y0153438D01*
X0371837Y0153438D01*
X0371837Y0158554D01*
X0374395Y0158554D01*
X0375248Y0157702D01*
X0379470Y0158554D02*
X0380323Y0157702D01*
X0380323Y0156849D01*
X0376912Y0153438D01*
X0380323Y0153438D01*
X0370173Y0153438D02*
X0366762Y0153438D01*
X0366762Y0158554D01*
X0370173Y0158554D01*
X0368467Y0155996D02*
X0366762Y0155996D01*
X0365097Y0153438D02*
X0361687Y0153438D01*
X0361687Y0158554D01*
X0361687Y0126054D02*
X0361687Y0120938D01*
X0365097Y0120938D01*
X0366762Y0120938D02*
X0370173Y0120938D01*
X0371837Y0120938D02*
X0374395Y0120938D01*
X0375248Y0121791D01*
X0375248Y0125202D01*
X0374395Y0126054D01*
X0371837Y0126054D01*
X0371837Y0120938D01*
X0368467Y0123496D02*
X0366762Y0123496D01*
X0366762Y0126054D02*
X0366762Y0120938D01*
X0366762Y0126054D02*
X0370173Y0126054D01*
X0376912Y0124349D02*
X0378618Y0126054D01*
X0378618Y0120938D01*
X0380323Y0120938D02*
X0376912Y0120938D01*
X0234087Y0084915D02*
X0234087Y0082613D01*
X0233320Y0081846D01*
X0232553Y0082613D01*
X0232553Y0084915D01*
X0231785Y0084915D02*
X0234087Y0084915D01*
X0231785Y0084915D02*
X0231018Y0084148D01*
X0231018Y0082613D01*
X0230251Y0080311D02*
X0233320Y0077242D01*
X0234087Y0078009D01*
X0234087Y0079544D01*
X0233320Y0080311D01*
X0230251Y0080311D01*
X0229483Y0079544D01*
X0229483Y0078009D01*
X0230251Y0077242D01*
X0233320Y0077242D01*
X0233320Y0075707D02*
X0230251Y0075707D01*
X0233320Y0072638D01*
X0234087Y0073405D01*
X0234087Y0074940D01*
X0233320Y0075707D01*
X0233320Y0072638D02*
X0230251Y0072638D01*
X0229483Y0073405D01*
X0229483Y0074940D01*
X0230251Y0075707D01*
X0230251Y0071104D02*
X0231018Y0071104D01*
X0231785Y0070336D01*
X0232553Y0071104D01*
X0233320Y0071104D01*
X0234087Y0070336D01*
X0234087Y0068802D01*
X0233320Y0068034D01*
X0234087Y0066500D02*
X0234087Y0063430D01*
X0231018Y0066500D01*
X0230251Y0066500D01*
X0229483Y0065732D01*
X0229483Y0064198D01*
X0230251Y0063430D01*
X0229483Y0061896D02*
X0229483Y0058826D01*
X0229483Y0057292D02*
X0234087Y0057292D01*
X0234087Y0060361D02*
X0229483Y0060361D01*
X0229483Y0057292D02*
X0231018Y0055757D01*
X0229483Y0054222D01*
X0234087Y0054222D01*
X0233320Y0052688D02*
X0234087Y0051920D01*
X0234087Y0050386D01*
X0233320Y0049619D01*
X0230251Y0049619D01*
X0229483Y0050386D01*
X0229483Y0051920D01*
X0230251Y0052688D01*
X0230251Y0068034D02*
X0229483Y0068802D01*
X0229483Y0070336D01*
X0230251Y0071104D01*
X0231785Y0070336D02*
X0231785Y0069569D01*
X0159599Y0067286D02*
X0159599Y0063875D01*
X0159599Y0062210D02*
X0154483Y0058800D01*
X0154483Y0062210D02*
X0159599Y0058800D01*
X0156188Y0063875D02*
X0154483Y0065580D01*
X0159599Y0065580D01*
X0140301Y0083950D02*
X0136831Y0083950D01*
X0140301Y0087420D01*
X0140301Y0088287D01*
X0139433Y0089154D01*
X0137698Y0089154D01*
X0136831Y0088287D01*
X0135144Y0088287D02*
X0135144Y0087420D01*
X0134277Y0086552D01*
X0135144Y0085685D01*
X0135144Y0084817D01*
X0134277Y0083950D01*
X0132542Y0083950D01*
X0131675Y0084817D01*
X0129988Y0086552D02*
X0129120Y0085685D01*
X0126518Y0085685D01*
X0124831Y0085685D02*
X0124831Y0084817D01*
X0123964Y0083950D01*
X0122229Y0083950D01*
X0121362Y0084817D01*
X0119675Y0083950D02*
X0116205Y0083950D01*
X0116205Y0089154D01*
X0119675Y0089154D01*
X0121362Y0088287D02*
X0121362Y0087420D01*
X0122229Y0086552D01*
X0123964Y0086552D01*
X0124831Y0085685D01*
X0126518Y0083950D02*
X0126518Y0089154D01*
X0129120Y0089154D01*
X0129988Y0088287D01*
X0129988Y0086552D01*
X0131675Y0088287D02*
X0132542Y0089154D01*
X0134277Y0089154D01*
X0135144Y0088287D01*
X0134277Y0086552D02*
X0133409Y0086552D01*
X0124831Y0088287D02*
X0123964Y0089154D01*
X0122229Y0089154D01*
X0121362Y0088287D01*
X0117940Y0086552D02*
X0116205Y0086552D01*
X0106083Y0148950D02*
X0102613Y0148950D01*
X0106083Y0152420D01*
X0106083Y0153287D01*
X0105215Y0154154D01*
X0103480Y0154154D01*
X0102613Y0153287D01*
X0100926Y0153287D02*
X0100926Y0152420D01*
X0100059Y0151552D01*
X0100926Y0150685D01*
X0100926Y0149817D01*
X0100059Y0148950D01*
X0098324Y0148950D01*
X0097457Y0149817D01*
X0095770Y0151552D02*
X0094902Y0150685D01*
X0092300Y0150685D01*
X0090613Y0150685D02*
X0089746Y0151552D01*
X0088011Y0151552D01*
X0087144Y0152420D01*
X0087144Y0153287D01*
X0088011Y0154154D01*
X0089746Y0154154D01*
X0090613Y0153287D01*
X0092300Y0154154D02*
X0092300Y0148950D01*
X0090613Y0149817D02*
X0089746Y0148950D01*
X0088011Y0148950D01*
X0087144Y0149817D01*
X0085457Y0148950D02*
X0081987Y0148950D01*
X0081987Y0154154D01*
X0085457Y0154154D01*
X0083722Y0151552D02*
X0081987Y0151552D01*
X0081987Y0157350D02*
X0083722Y0159085D01*
X0085457Y0157350D01*
X0085457Y0162554D01*
X0088011Y0160820D02*
X0089746Y0160820D01*
X0090613Y0159952D01*
X0090613Y0159085D01*
X0087144Y0159085D01*
X0087144Y0159952D02*
X0088011Y0160820D01*
X0087144Y0159952D02*
X0087144Y0158217D01*
X0088011Y0157350D01*
X0089746Y0157350D01*
X0092300Y0157350D02*
X0092300Y0162554D01*
X0094035Y0160820D01*
X0095770Y0162554D01*
X0095770Y0157350D01*
X0097457Y0158217D02*
X0098324Y0157350D01*
X0100059Y0157350D01*
X0100926Y0158217D01*
X0100926Y0159952D01*
X0100059Y0160820D01*
X0098324Y0160820D01*
X0097457Y0159952D01*
X0097457Y0158217D01*
X0098324Y0154154D02*
X0100059Y0154154D01*
X0100926Y0153287D01*
X0100059Y0151552D02*
X0099191Y0151552D01*
X0097457Y0153287D02*
X0098324Y0154154D01*
X0095770Y0153287D02*
X0095770Y0151552D01*
X0095770Y0153287D02*
X0094902Y0154154D01*
X0092300Y0154154D01*
X0090613Y0150685D02*
X0090613Y0149817D01*
X0081987Y0157350D02*
X0081987Y0162554D01*
X0102613Y0159952D02*
X0103480Y0160820D01*
X0106083Y0160820D01*
X0105215Y0159085D02*
X0103480Y0159085D01*
X0102613Y0159952D01*
X0102613Y0157350D02*
X0105215Y0157350D01*
X0106083Y0158217D01*
X0105215Y0159085D01*
X0105613Y0216950D02*
X0102144Y0216950D01*
X0102144Y0222154D01*
X0100457Y0221287D02*
X0099590Y0222154D01*
X0097855Y0222154D01*
X0096987Y0221287D01*
X0096987Y0217817D01*
X0097855Y0216950D01*
X0099590Y0216950D01*
X0100457Y0217817D01*
X0107300Y0216950D02*
X0110770Y0216950D01*
X0112457Y0216950D02*
X0112457Y0220420D01*
X0114191Y0222154D01*
X0115926Y0220420D01*
X0115926Y0216950D01*
X0117613Y0216950D02*
X0117613Y0222154D01*
X0120215Y0222154D01*
X0121083Y0221287D01*
X0121083Y0219552D01*
X0120215Y0218685D01*
X0117613Y0218685D01*
X0119348Y0218685D02*
X0121083Y0216950D01*
X0115926Y0219552D02*
X0112457Y0219552D01*
X0110770Y0222154D02*
X0107300Y0222154D01*
X0107300Y0216950D01*
X0107300Y0219552D02*
X0109035Y0219552D01*
X0109878Y0225350D02*
X0109878Y0228820D01*
X0111613Y0230554D01*
X0113348Y0228820D01*
X0113348Y0225350D01*
X0113348Y0227952D02*
X0109878Y0227952D01*
X0108192Y0225350D02*
X0104722Y0230554D01*
X0104722Y0225350D01*
X0103035Y0225350D02*
X0103035Y0230554D01*
X0099566Y0230554D02*
X0103035Y0225350D01*
X0099566Y0225350D02*
X0099566Y0230554D01*
X0097879Y0230554D02*
X0094409Y0230554D01*
X0094409Y0225350D01*
X0097879Y0225350D01*
X0096144Y0227952D02*
X0094409Y0227952D01*
X0092722Y0230554D02*
X0089253Y0230554D01*
X0087566Y0230554D02*
X0087566Y0225350D01*
X0084096Y0230554D01*
X0084096Y0225350D01*
X0082410Y0225350D02*
X0082410Y0228820D01*
X0080675Y0230554D01*
X0078940Y0228820D01*
X0078940Y0225350D01*
X0078940Y0227952D02*
X0082410Y0227952D01*
X0081518Y0222154D02*
X0081518Y0216950D01*
X0084988Y0216950D01*
X0086675Y0216950D02*
X0086675Y0222154D01*
X0089277Y0222154D01*
X0090144Y0221287D01*
X0090144Y0219552D01*
X0089277Y0218685D01*
X0086675Y0218685D01*
X0083253Y0219552D02*
X0081518Y0219552D01*
X0081518Y0222154D02*
X0084988Y0222154D01*
X0079831Y0222154D02*
X0076362Y0222154D01*
X0076362Y0216950D01*
X0079831Y0216950D01*
X0078097Y0219552D02*
X0076362Y0219552D01*
X0074675Y0216950D02*
X0072073Y0219552D01*
X0071205Y0218685D02*
X0074675Y0222154D01*
X0071205Y0222154D02*
X0071205Y0216950D01*
X0090988Y0225350D02*
X0090988Y0230554D01*
X0108192Y0230554D02*
X0108192Y0225350D01*
X0162889Y0236270D02*
X0162889Y0240874D01*
X0164424Y0239339D01*
X0165958Y0240874D01*
X0165958Y0236270D01*
X0167493Y0236270D02*
X0170562Y0236270D01*
X0169027Y0236270D02*
X0169027Y0240874D01*
X0167493Y0239339D01*
D16*
X0306787Y0211250D02*
X0311787Y0211250D01*
X0311787Y0206250D01*
X0341787Y0206250D01*
X0341787Y0211250D01*
X0341787Y0216250D01*
X0311787Y0216250D01*
X0311787Y0211250D01*
X0311787Y0206250D02*
X0311787Y0201250D01*
X0311787Y0196250D01*
X0341787Y0196250D01*
X0341787Y0201250D01*
X0341787Y0206250D01*
X0311787Y0206250D01*
X0311787Y0201250D02*
X0306787Y0201250D01*
X0341787Y0201250D02*
X0346787Y0201250D01*
X0346787Y0211250D02*
X0341787Y0211250D01*
X0286787Y0079750D02*
X0286787Y0074750D01*
X0289287Y0072450D02*
X0289287Y0067950D01*
X0269287Y0067950D01*
X0269287Y0072450D01*
X0279287Y0072450D01*
X0289287Y0072450D01*
X0289287Y0077250D02*
X0284287Y0077250D01*
X0279287Y0076250D02*
X0279287Y0072450D01*
X0279287Y0063750D02*
X0279287Y0056250D01*
D17*
X0259287Y0066250D02*
X0259293Y0066741D01*
X0259311Y0067231D01*
X0259341Y0067721D01*
X0259383Y0068210D01*
X0259437Y0068698D01*
X0259503Y0069185D01*
X0259581Y0069669D01*
X0259671Y0070152D01*
X0259773Y0070632D01*
X0259886Y0071110D01*
X0260011Y0071584D01*
X0260148Y0072056D01*
X0260296Y0072524D01*
X0260456Y0072988D01*
X0260627Y0073448D01*
X0260809Y0073904D01*
X0261003Y0074355D01*
X0261207Y0074801D01*
X0261423Y0075242D01*
X0261649Y0075678D01*
X0261885Y0076108D01*
X0262132Y0076532D01*
X0262390Y0076950D01*
X0262658Y0077361D01*
X0262935Y0077766D01*
X0263223Y0078164D01*
X0263520Y0078555D01*
X0263827Y0078938D01*
X0264143Y0079313D01*
X0264468Y0079681D01*
X0264802Y0080041D01*
X0265145Y0080392D01*
X0265496Y0080735D01*
X0265856Y0081069D01*
X0266224Y0081394D01*
X0266599Y0081710D01*
X0266982Y0082017D01*
X0267373Y0082314D01*
X0267771Y0082602D01*
X0268176Y0082879D01*
X0268587Y0083147D01*
X0269005Y0083405D01*
X0269429Y0083652D01*
X0269859Y0083888D01*
X0270295Y0084114D01*
X0270736Y0084330D01*
X0271182Y0084534D01*
X0271633Y0084728D01*
X0272089Y0084910D01*
X0272549Y0085081D01*
X0273013Y0085241D01*
X0273481Y0085389D01*
X0273953Y0085526D01*
X0274427Y0085651D01*
X0274905Y0085764D01*
X0275385Y0085866D01*
X0275868Y0085956D01*
X0276352Y0086034D01*
X0276839Y0086100D01*
X0277327Y0086154D01*
X0277816Y0086196D01*
X0278306Y0086226D01*
X0278796Y0086244D01*
X0279287Y0086250D01*
X0279778Y0086244D01*
X0280268Y0086226D01*
X0280758Y0086196D01*
X0281247Y0086154D01*
X0281735Y0086100D01*
X0282222Y0086034D01*
X0282706Y0085956D01*
X0283189Y0085866D01*
X0283669Y0085764D01*
X0284147Y0085651D01*
X0284621Y0085526D01*
X0285093Y0085389D01*
X0285561Y0085241D01*
X0286025Y0085081D01*
X0286485Y0084910D01*
X0286941Y0084728D01*
X0287392Y0084534D01*
X0287838Y0084330D01*
X0288279Y0084114D01*
X0288715Y0083888D01*
X0289145Y0083652D01*
X0289569Y0083405D01*
X0289987Y0083147D01*
X0290398Y0082879D01*
X0290803Y0082602D01*
X0291201Y0082314D01*
X0291592Y0082017D01*
X0291975Y0081710D01*
X0292350Y0081394D01*
X0292718Y0081069D01*
X0293078Y0080735D01*
X0293429Y0080392D01*
X0293772Y0080041D01*
X0294106Y0079681D01*
X0294431Y0079313D01*
X0294747Y0078938D01*
X0295054Y0078555D01*
X0295351Y0078164D01*
X0295639Y0077766D01*
X0295916Y0077361D01*
X0296184Y0076950D01*
X0296442Y0076532D01*
X0296689Y0076108D01*
X0296925Y0075678D01*
X0297151Y0075242D01*
X0297367Y0074801D01*
X0297571Y0074355D01*
X0297765Y0073904D01*
X0297947Y0073448D01*
X0298118Y0072988D01*
X0298278Y0072524D01*
X0298426Y0072056D01*
X0298563Y0071584D01*
X0298688Y0071110D01*
X0298801Y0070632D01*
X0298903Y0070152D01*
X0298993Y0069669D01*
X0299071Y0069185D01*
X0299137Y0068698D01*
X0299191Y0068210D01*
X0299233Y0067721D01*
X0299263Y0067231D01*
X0299281Y0066741D01*
X0299287Y0066250D01*
X0299281Y0065759D01*
X0299263Y0065269D01*
X0299233Y0064779D01*
X0299191Y0064290D01*
X0299137Y0063802D01*
X0299071Y0063315D01*
X0298993Y0062831D01*
X0298903Y0062348D01*
X0298801Y0061868D01*
X0298688Y0061390D01*
X0298563Y0060916D01*
X0298426Y0060444D01*
X0298278Y0059976D01*
X0298118Y0059512D01*
X0297947Y0059052D01*
X0297765Y0058596D01*
X0297571Y0058145D01*
X0297367Y0057699D01*
X0297151Y0057258D01*
X0296925Y0056822D01*
X0296689Y0056392D01*
X0296442Y0055968D01*
X0296184Y0055550D01*
X0295916Y0055139D01*
X0295639Y0054734D01*
X0295351Y0054336D01*
X0295054Y0053945D01*
X0294747Y0053562D01*
X0294431Y0053187D01*
X0294106Y0052819D01*
X0293772Y0052459D01*
X0293429Y0052108D01*
X0293078Y0051765D01*
X0292718Y0051431D01*
X0292350Y0051106D01*
X0291975Y0050790D01*
X0291592Y0050483D01*
X0291201Y0050186D01*
X0290803Y0049898D01*
X0290398Y0049621D01*
X0289987Y0049353D01*
X0289569Y0049095D01*
X0289145Y0048848D01*
X0288715Y0048612D01*
X0288279Y0048386D01*
X0287838Y0048170D01*
X0287392Y0047966D01*
X0286941Y0047772D01*
X0286485Y0047590D01*
X0286025Y0047419D01*
X0285561Y0047259D01*
X0285093Y0047111D01*
X0284621Y0046974D01*
X0284147Y0046849D01*
X0283669Y0046736D01*
X0283189Y0046634D01*
X0282706Y0046544D01*
X0282222Y0046466D01*
X0281735Y0046400D01*
X0281247Y0046346D01*
X0280758Y0046304D01*
X0280268Y0046274D01*
X0279778Y0046256D01*
X0279287Y0046250D01*
X0278796Y0046256D01*
X0278306Y0046274D01*
X0277816Y0046304D01*
X0277327Y0046346D01*
X0276839Y0046400D01*
X0276352Y0046466D01*
X0275868Y0046544D01*
X0275385Y0046634D01*
X0274905Y0046736D01*
X0274427Y0046849D01*
X0273953Y0046974D01*
X0273481Y0047111D01*
X0273013Y0047259D01*
X0272549Y0047419D01*
X0272089Y0047590D01*
X0271633Y0047772D01*
X0271182Y0047966D01*
X0270736Y0048170D01*
X0270295Y0048386D01*
X0269859Y0048612D01*
X0269429Y0048848D01*
X0269005Y0049095D01*
X0268587Y0049353D01*
X0268176Y0049621D01*
X0267771Y0049898D01*
X0267373Y0050186D01*
X0266982Y0050483D01*
X0266599Y0050790D01*
X0266224Y0051106D01*
X0265856Y0051431D01*
X0265496Y0051765D01*
X0265145Y0052108D01*
X0264802Y0052459D01*
X0264468Y0052819D01*
X0264143Y0053187D01*
X0263827Y0053562D01*
X0263520Y0053945D01*
X0263223Y0054336D01*
X0262935Y0054734D01*
X0262658Y0055139D01*
X0262390Y0055550D01*
X0262132Y0055968D01*
X0261885Y0056392D01*
X0261649Y0056822D01*
X0261423Y0057258D01*
X0261207Y0057699D01*
X0261003Y0058145D01*
X0260809Y0058596D01*
X0260627Y0059052D01*
X0260456Y0059512D01*
X0260296Y0059976D01*
X0260148Y0060444D01*
X0260011Y0060916D01*
X0259886Y0061390D01*
X0259773Y0061868D01*
X0259671Y0062348D01*
X0259581Y0062831D01*
X0259503Y0063315D01*
X0259437Y0063802D01*
X0259383Y0064290D01*
X0259341Y0064779D01*
X0259311Y0065269D01*
X0259293Y0065759D01*
X0259287Y0066250D01*
X0385537Y0126250D02*
X0385539Y0126408D01*
X0385545Y0126565D01*
X0385555Y0126723D01*
X0385569Y0126880D01*
X0385587Y0127036D01*
X0385608Y0127193D01*
X0385634Y0127348D01*
X0385664Y0127503D01*
X0385697Y0127657D01*
X0385735Y0127810D01*
X0385776Y0127963D01*
X0385821Y0128114D01*
X0385870Y0128264D01*
X0385923Y0128412D01*
X0385979Y0128560D01*
X0386040Y0128705D01*
X0386103Y0128850D01*
X0386171Y0128992D01*
X0386242Y0129133D01*
X0386316Y0129272D01*
X0386394Y0129409D01*
X0386476Y0129544D01*
X0386560Y0129677D01*
X0386649Y0129808D01*
X0386740Y0129936D01*
X0386835Y0130063D01*
X0386932Y0130186D01*
X0387033Y0130308D01*
X0387137Y0130426D01*
X0387244Y0130542D01*
X0387354Y0130655D01*
X0387466Y0130766D01*
X0387582Y0130873D01*
X0387700Y0130978D01*
X0387820Y0131080D01*
X0387943Y0131178D01*
X0388069Y0131274D01*
X0388197Y0131366D01*
X0388327Y0131455D01*
X0388459Y0131541D01*
X0388594Y0131623D01*
X0388731Y0131702D01*
X0388869Y0131777D01*
X0389009Y0131849D01*
X0389152Y0131917D01*
X0389295Y0131982D01*
X0389441Y0132043D01*
X0389588Y0132100D01*
X0389736Y0132154D01*
X0389886Y0132204D01*
X0390036Y0132250D01*
X0390188Y0132292D01*
X0390341Y0132331D01*
X0390495Y0132365D01*
X0390650Y0132396D01*
X0390805Y0132422D01*
X0390961Y0132445D01*
X0391118Y0132464D01*
X0391275Y0132479D01*
X0391432Y0132490D01*
X0391590Y0132497D01*
X0391748Y0132500D01*
X0391905Y0132499D01*
X0392063Y0132494D01*
X0392220Y0132485D01*
X0392378Y0132472D01*
X0392534Y0132455D01*
X0392691Y0132434D01*
X0392846Y0132410D01*
X0393001Y0132381D01*
X0393156Y0132348D01*
X0393309Y0132312D01*
X0393462Y0132271D01*
X0393613Y0132227D01*
X0393763Y0132179D01*
X0393912Y0132128D01*
X0394060Y0132072D01*
X0394206Y0132013D01*
X0394351Y0131950D01*
X0394494Y0131883D01*
X0394635Y0131813D01*
X0394774Y0131740D01*
X0394912Y0131663D01*
X0395048Y0131582D01*
X0395181Y0131498D01*
X0395312Y0131411D01*
X0395441Y0131320D01*
X0395568Y0131226D01*
X0395693Y0131129D01*
X0395814Y0131029D01*
X0395934Y0130926D01*
X0396050Y0130820D01*
X0396164Y0130711D01*
X0396276Y0130599D01*
X0396384Y0130485D01*
X0396489Y0130367D01*
X0396592Y0130247D01*
X0396691Y0130125D01*
X0396787Y0130000D01*
X0396880Y0129872D01*
X0396970Y0129743D01*
X0397056Y0129611D01*
X0397140Y0129477D01*
X0397219Y0129341D01*
X0397296Y0129203D01*
X0397368Y0129063D01*
X0397437Y0128921D01*
X0397503Y0128778D01*
X0397565Y0128633D01*
X0397623Y0128486D01*
X0397678Y0128338D01*
X0397729Y0128189D01*
X0397776Y0128038D01*
X0397819Y0127887D01*
X0397858Y0127734D01*
X0397894Y0127580D01*
X0397925Y0127426D01*
X0397953Y0127271D01*
X0397977Y0127115D01*
X0397997Y0126958D01*
X0398013Y0126801D01*
X0398025Y0126644D01*
X0398033Y0126487D01*
X0398037Y0126329D01*
X0398037Y0126171D01*
X0398033Y0126013D01*
X0398025Y0125856D01*
X0398013Y0125699D01*
X0397997Y0125542D01*
X0397977Y0125385D01*
X0397953Y0125229D01*
X0397925Y0125074D01*
X0397894Y0124920D01*
X0397858Y0124766D01*
X0397819Y0124613D01*
X0397776Y0124462D01*
X0397729Y0124311D01*
X0397678Y0124162D01*
X0397623Y0124014D01*
X0397565Y0123867D01*
X0397503Y0123722D01*
X0397437Y0123579D01*
X0397368Y0123437D01*
X0397296Y0123297D01*
X0397219Y0123159D01*
X0397140Y0123023D01*
X0397056Y0122889D01*
X0396970Y0122757D01*
X0396880Y0122628D01*
X0396787Y0122500D01*
X0396691Y0122375D01*
X0396592Y0122253D01*
X0396489Y0122133D01*
X0396384Y0122015D01*
X0396276Y0121901D01*
X0396164Y0121789D01*
X0396050Y0121680D01*
X0395934Y0121574D01*
X0395814Y0121471D01*
X0395693Y0121371D01*
X0395568Y0121274D01*
X0395441Y0121180D01*
X0395312Y0121089D01*
X0395181Y0121002D01*
X0395048Y0120918D01*
X0394912Y0120837D01*
X0394774Y0120760D01*
X0394635Y0120687D01*
X0394494Y0120617D01*
X0394351Y0120550D01*
X0394206Y0120487D01*
X0394060Y0120428D01*
X0393912Y0120372D01*
X0393763Y0120321D01*
X0393613Y0120273D01*
X0393462Y0120229D01*
X0393309Y0120188D01*
X0393156Y0120152D01*
X0393001Y0120119D01*
X0392846Y0120090D01*
X0392691Y0120066D01*
X0392534Y0120045D01*
X0392378Y0120028D01*
X0392220Y0120015D01*
X0392063Y0120006D01*
X0391905Y0120001D01*
X0391748Y0120000D01*
X0391590Y0120003D01*
X0391432Y0120010D01*
X0391275Y0120021D01*
X0391118Y0120036D01*
X0390961Y0120055D01*
X0390805Y0120078D01*
X0390650Y0120104D01*
X0390495Y0120135D01*
X0390341Y0120169D01*
X0390188Y0120208D01*
X0390036Y0120250D01*
X0389886Y0120296D01*
X0389736Y0120346D01*
X0389588Y0120400D01*
X0389441Y0120457D01*
X0389295Y0120518D01*
X0389152Y0120583D01*
X0389009Y0120651D01*
X0388869Y0120723D01*
X0388731Y0120798D01*
X0388594Y0120877D01*
X0388459Y0120959D01*
X0388327Y0121045D01*
X0388197Y0121134D01*
X0388069Y0121226D01*
X0387943Y0121322D01*
X0387820Y0121420D01*
X0387700Y0121522D01*
X0387582Y0121627D01*
X0387466Y0121734D01*
X0387354Y0121845D01*
X0387244Y0121958D01*
X0387137Y0122074D01*
X0387033Y0122192D01*
X0386932Y0122314D01*
X0386835Y0122437D01*
X0386740Y0122564D01*
X0386649Y0122692D01*
X0386560Y0122823D01*
X0386476Y0122956D01*
X0386394Y0123091D01*
X0386316Y0123228D01*
X0386242Y0123367D01*
X0386171Y0123508D01*
X0386103Y0123650D01*
X0386040Y0123795D01*
X0385979Y0123940D01*
X0385923Y0124088D01*
X0385870Y0124236D01*
X0385821Y0124386D01*
X0385776Y0124537D01*
X0385735Y0124690D01*
X0385697Y0124843D01*
X0385664Y0124997D01*
X0385634Y0125152D01*
X0385608Y0125307D01*
X0385587Y0125464D01*
X0385569Y0125620D01*
X0385555Y0125777D01*
X0385545Y0125935D01*
X0385539Y0126092D01*
X0385537Y0126250D01*
X0394287Y0121250D02*
X0394287Y0131250D01*
X0394287Y0153750D02*
X0394287Y0163750D01*
X0385537Y0158750D02*
X0385539Y0158908D01*
X0385545Y0159065D01*
X0385555Y0159223D01*
X0385569Y0159380D01*
X0385587Y0159536D01*
X0385608Y0159693D01*
X0385634Y0159848D01*
X0385664Y0160003D01*
X0385697Y0160157D01*
X0385735Y0160310D01*
X0385776Y0160463D01*
X0385821Y0160614D01*
X0385870Y0160764D01*
X0385923Y0160912D01*
X0385979Y0161060D01*
X0386040Y0161205D01*
X0386103Y0161350D01*
X0386171Y0161492D01*
X0386242Y0161633D01*
X0386316Y0161772D01*
X0386394Y0161909D01*
X0386476Y0162044D01*
X0386560Y0162177D01*
X0386649Y0162308D01*
X0386740Y0162436D01*
X0386835Y0162563D01*
X0386932Y0162686D01*
X0387033Y0162808D01*
X0387137Y0162926D01*
X0387244Y0163042D01*
X0387354Y0163155D01*
X0387466Y0163266D01*
X0387582Y0163373D01*
X0387700Y0163478D01*
X0387820Y0163580D01*
X0387943Y0163678D01*
X0388069Y0163774D01*
X0388197Y0163866D01*
X0388327Y0163955D01*
X0388459Y0164041D01*
X0388594Y0164123D01*
X0388731Y0164202D01*
X0388869Y0164277D01*
X0389009Y0164349D01*
X0389152Y0164417D01*
X0389295Y0164482D01*
X0389441Y0164543D01*
X0389588Y0164600D01*
X0389736Y0164654D01*
X0389886Y0164704D01*
X0390036Y0164750D01*
X0390188Y0164792D01*
X0390341Y0164831D01*
X0390495Y0164865D01*
X0390650Y0164896D01*
X0390805Y0164922D01*
X0390961Y0164945D01*
X0391118Y0164964D01*
X0391275Y0164979D01*
X0391432Y0164990D01*
X0391590Y0164997D01*
X0391748Y0165000D01*
X0391905Y0164999D01*
X0392063Y0164994D01*
X0392220Y0164985D01*
X0392378Y0164972D01*
X0392534Y0164955D01*
X0392691Y0164934D01*
X0392846Y0164910D01*
X0393001Y0164881D01*
X0393156Y0164848D01*
X0393309Y0164812D01*
X0393462Y0164771D01*
X0393613Y0164727D01*
X0393763Y0164679D01*
X0393912Y0164628D01*
X0394060Y0164572D01*
X0394206Y0164513D01*
X0394351Y0164450D01*
X0394494Y0164383D01*
X0394635Y0164313D01*
X0394774Y0164240D01*
X0394912Y0164163D01*
X0395048Y0164082D01*
X0395181Y0163998D01*
X0395312Y0163911D01*
X0395441Y0163820D01*
X0395568Y0163726D01*
X0395693Y0163629D01*
X0395814Y0163529D01*
X0395934Y0163426D01*
X0396050Y0163320D01*
X0396164Y0163211D01*
X0396276Y0163099D01*
X0396384Y0162985D01*
X0396489Y0162867D01*
X0396592Y0162747D01*
X0396691Y0162625D01*
X0396787Y0162500D01*
X0396880Y0162372D01*
X0396970Y0162243D01*
X0397056Y0162111D01*
X0397140Y0161977D01*
X0397219Y0161841D01*
X0397296Y0161703D01*
X0397368Y0161563D01*
X0397437Y0161421D01*
X0397503Y0161278D01*
X0397565Y0161133D01*
X0397623Y0160986D01*
X0397678Y0160838D01*
X0397729Y0160689D01*
X0397776Y0160538D01*
X0397819Y0160387D01*
X0397858Y0160234D01*
X0397894Y0160080D01*
X0397925Y0159926D01*
X0397953Y0159771D01*
X0397977Y0159615D01*
X0397997Y0159458D01*
X0398013Y0159301D01*
X0398025Y0159144D01*
X0398033Y0158987D01*
X0398037Y0158829D01*
X0398037Y0158671D01*
X0398033Y0158513D01*
X0398025Y0158356D01*
X0398013Y0158199D01*
X0397997Y0158042D01*
X0397977Y0157885D01*
X0397953Y0157729D01*
X0397925Y0157574D01*
X0397894Y0157420D01*
X0397858Y0157266D01*
X0397819Y0157113D01*
X0397776Y0156962D01*
X0397729Y0156811D01*
X0397678Y0156662D01*
X0397623Y0156514D01*
X0397565Y0156367D01*
X0397503Y0156222D01*
X0397437Y0156079D01*
X0397368Y0155937D01*
X0397296Y0155797D01*
X0397219Y0155659D01*
X0397140Y0155523D01*
X0397056Y0155389D01*
X0396970Y0155257D01*
X0396880Y0155128D01*
X0396787Y0155000D01*
X0396691Y0154875D01*
X0396592Y0154753D01*
X0396489Y0154633D01*
X0396384Y0154515D01*
X0396276Y0154401D01*
X0396164Y0154289D01*
X0396050Y0154180D01*
X0395934Y0154074D01*
X0395814Y0153971D01*
X0395693Y0153871D01*
X0395568Y0153774D01*
X0395441Y0153680D01*
X0395312Y0153589D01*
X0395181Y0153502D01*
X0395048Y0153418D01*
X0394912Y0153337D01*
X0394774Y0153260D01*
X0394635Y0153187D01*
X0394494Y0153117D01*
X0394351Y0153050D01*
X0394206Y0152987D01*
X0394060Y0152928D01*
X0393912Y0152872D01*
X0393763Y0152821D01*
X0393613Y0152773D01*
X0393462Y0152729D01*
X0393309Y0152688D01*
X0393156Y0152652D01*
X0393001Y0152619D01*
X0392846Y0152590D01*
X0392691Y0152566D01*
X0392534Y0152545D01*
X0392378Y0152528D01*
X0392220Y0152515D01*
X0392063Y0152506D01*
X0391905Y0152501D01*
X0391748Y0152500D01*
X0391590Y0152503D01*
X0391432Y0152510D01*
X0391275Y0152521D01*
X0391118Y0152536D01*
X0390961Y0152555D01*
X0390805Y0152578D01*
X0390650Y0152604D01*
X0390495Y0152635D01*
X0390341Y0152669D01*
X0390188Y0152708D01*
X0390036Y0152750D01*
X0389886Y0152796D01*
X0389736Y0152846D01*
X0389588Y0152900D01*
X0389441Y0152957D01*
X0389295Y0153018D01*
X0389152Y0153083D01*
X0389009Y0153151D01*
X0388869Y0153223D01*
X0388731Y0153298D01*
X0388594Y0153377D01*
X0388459Y0153459D01*
X0388327Y0153545D01*
X0388197Y0153634D01*
X0388069Y0153726D01*
X0387943Y0153822D01*
X0387820Y0153920D01*
X0387700Y0154022D01*
X0387582Y0154127D01*
X0387466Y0154234D01*
X0387354Y0154345D01*
X0387244Y0154458D01*
X0387137Y0154574D01*
X0387033Y0154692D01*
X0386932Y0154814D01*
X0386835Y0154937D01*
X0386740Y0155064D01*
X0386649Y0155192D01*
X0386560Y0155323D01*
X0386476Y0155456D01*
X0386394Y0155591D01*
X0386316Y0155728D01*
X0386242Y0155867D01*
X0386171Y0156008D01*
X0386103Y0156150D01*
X0386040Y0156295D01*
X0385979Y0156440D01*
X0385923Y0156588D01*
X0385870Y0156736D01*
X0385821Y0156886D01*
X0385776Y0157037D01*
X0385735Y0157190D01*
X0385697Y0157343D01*
X0385664Y0157497D01*
X0385634Y0157652D01*
X0385608Y0157807D01*
X0385587Y0157964D01*
X0385569Y0158120D01*
X0385555Y0158277D01*
X0385545Y0158435D01*
X0385539Y0158592D01*
X0385537Y0158750D01*
D18*
X0308437Y0074258D02*
X0308437Y0070054D01*
X0308437Y0072156D02*
X0302132Y0072156D01*
X0304234Y0070054D01*
X0303183Y0067813D02*
X0302132Y0066762D01*
X0302132Y0064660D01*
X0303183Y0063609D01*
X0307387Y0063609D01*
X0308437Y0064660D01*
X0308437Y0066762D01*
X0307387Y0067813D01*
D19*
X0279287Y0062450D03*
D20*
X0151098Y0073986D02*
X0151098Y0038514D01*
X0124976Y0038514D01*
X0124976Y0073986D01*
X0151098Y0073986D01*
D21*
X0149287Y0071250D02*
X0149287Y0067500D01*
X0148037Y0065000D01*
X0148037Y0062500D01*
X0149287Y0060000D01*
X0149287Y0056250D01*
X0149287Y0052500D01*
X0148037Y0050000D01*
X0148037Y0047500D01*
X0149287Y0045000D01*
X0149287Y0041250D01*
X0130537Y0041250D01*
X0130537Y0046250D01*
X0129287Y0046250D01*
X0129287Y0043750D01*
X0128037Y0042500D01*
X0126787Y0042500D01*
X0126787Y0055000D01*
X0128037Y0055000D01*
X0129287Y0053750D01*
X0129287Y0051250D01*
X0130537Y0051250D01*
X0130537Y0056250D01*
X0130537Y0061250D01*
X0129287Y0061250D01*
X0129287Y0058750D01*
X0128037Y0057500D01*
X0126787Y0057500D01*
X0126787Y0070000D01*
X0128037Y0070000D01*
X0129287Y0068750D01*
X0129287Y0066250D01*
X0130537Y0066250D01*
X0130537Y0071250D01*
X0149287Y0071250D01*
X0149287Y0056250D02*
X0130537Y0056250D01*
D22*
X0103700Y0083900D02*
X0102465Y0083900D01*
X0101848Y0084517D01*
X0101848Y0086986D01*
X0102465Y0087603D01*
X0103700Y0087603D01*
X0104317Y0086986D01*
X0104317Y0084517D01*
X0103700Y0083900D01*
X0100634Y0083900D02*
X0099399Y0085134D01*
X0100017Y0085134D02*
X0098165Y0085134D01*
X0098165Y0083900D02*
X0098165Y0087603D01*
X0100017Y0087603D01*
X0100634Y0086986D01*
X0100634Y0085752D01*
X0100017Y0085134D01*
X0096951Y0084517D02*
X0096334Y0083900D01*
X0095099Y0083900D01*
X0094482Y0084517D01*
X0094482Y0086986D01*
X0095099Y0087603D01*
X0096334Y0087603D01*
X0096951Y0086986D01*
X0096947Y0089900D02*
X0095713Y0089900D01*
X0095096Y0090517D01*
X0093881Y0090517D02*
X0093881Y0093603D01*
X0095096Y0092986D02*
X0095096Y0092369D01*
X0095713Y0091752D01*
X0096947Y0091752D01*
X0097565Y0091134D01*
X0097565Y0090517D01*
X0096947Y0089900D01*
X0098779Y0089900D02*
X0100631Y0089900D01*
X0101248Y0090517D01*
X0101248Y0091134D01*
X0100631Y0091752D01*
X0098779Y0091752D01*
X0097565Y0092986D02*
X0096947Y0093603D01*
X0095713Y0093603D01*
X0095096Y0092986D01*
X0093881Y0090517D02*
X0093264Y0089900D01*
X0092030Y0089900D01*
X0091413Y0090517D01*
X0091413Y0093603D01*
X0098779Y0093603D02*
X0098779Y0089900D01*
X0100631Y0091752D02*
X0101248Y0092369D01*
X0101248Y0092986D01*
X0100631Y0093603D01*
X0098779Y0093603D01*
X0093261Y0087603D02*
X0092027Y0087603D01*
X0092644Y0087603D02*
X0092644Y0083900D01*
X0092027Y0083900D02*
X0093261Y0083900D01*
X0090812Y0083900D02*
X0090812Y0087603D01*
X0089578Y0086369D01*
X0088343Y0087603D01*
X0088343Y0083900D01*
X0184435Y0084012D02*
X0184435Y0083044D01*
X0184919Y0082560D01*
X0186854Y0082560D01*
X0187337Y0083044D01*
X0187337Y0084012D01*
X0186854Y0084495D01*
X0185886Y0084495D01*
X0185886Y0083528D01*
X0184919Y0084495D02*
X0184435Y0084012D01*
X0184435Y0085507D02*
X0187337Y0087442D01*
X0184435Y0087442D01*
X0184435Y0088453D02*
X0184435Y0089905D01*
X0184919Y0090388D01*
X0186854Y0090388D01*
X0187337Y0089905D01*
X0187337Y0088453D01*
X0184435Y0088453D01*
X0184435Y0085507D02*
X0187337Y0085507D01*
X0189435Y0085991D02*
X0189435Y0086958D01*
X0189919Y0087442D01*
X0190402Y0087442D01*
X0190886Y0086958D01*
X0191370Y0087442D01*
X0191854Y0087442D01*
X0192337Y0086958D01*
X0192337Y0085991D01*
X0191854Y0085507D01*
X0191854Y0084517D02*
X0192337Y0084517D01*
X0192337Y0084034D01*
X0191854Y0084034D01*
X0191854Y0084517D01*
X0191854Y0083022D02*
X0192337Y0082538D01*
X0192337Y0081571D01*
X0191854Y0081087D01*
X0190886Y0082055D02*
X0190886Y0082538D01*
X0191370Y0083022D01*
X0191854Y0083022D01*
X0190886Y0082538D02*
X0190402Y0083022D01*
X0189919Y0083022D01*
X0189435Y0082538D01*
X0189435Y0081571D01*
X0189919Y0081087D01*
X0189919Y0085507D02*
X0189435Y0085991D01*
X0190886Y0086474D02*
X0190886Y0086958D01*
X0191370Y0088453D02*
X0192337Y0089421D01*
X0191370Y0090388D01*
X0189435Y0090388D01*
X0189435Y0088453D02*
X0191370Y0088453D01*
X0194435Y0088937D02*
X0194435Y0089905D01*
X0194919Y0090388D01*
X0195402Y0090388D01*
X0195886Y0089905D01*
X0196370Y0090388D01*
X0196854Y0090388D01*
X0197337Y0089905D01*
X0197337Y0088937D01*
X0196854Y0088453D01*
X0196854Y0087442D02*
X0194919Y0087442D01*
X0194435Y0086958D01*
X0194435Y0085991D01*
X0194919Y0085507D01*
X0196854Y0085507D01*
X0197337Y0085991D01*
X0197337Y0086958D01*
X0196854Y0087442D01*
X0194919Y0088453D02*
X0194435Y0088937D01*
X0195886Y0089421D02*
X0195886Y0089905D01*
X0199435Y0089905D02*
X0199435Y0088937D01*
X0199919Y0088453D01*
X0199919Y0087442D02*
X0199435Y0086958D01*
X0199435Y0085991D01*
X0199919Y0085507D01*
X0201854Y0085507D01*
X0202337Y0085991D01*
X0202337Y0086958D01*
X0201854Y0087442D01*
X0199919Y0087442D01*
X0199435Y0089905D02*
X0199919Y0090388D01*
X0200402Y0090388D01*
X0202337Y0088453D01*
X0202337Y0090388D01*
X0204435Y0089421D02*
X0205402Y0088453D01*
X0204919Y0087442D02*
X0204435Y0086958D01*
X0204435Y0085991D01*
X0204919Y0085507D01*
X0206854Y0085507D01*
X0207337Y0085991D01*
X0207337Y0086958D01*
X0206854Y0087442D01*
X0204919Y0087442D01*
X0204435Y0089421D02*
X0207337Y0089421D01*
X0207337Y0090388D02*
X0207337Y0088453D01*
X0209435Y0088453D02*
X0209435Y0089905D01*
X0209919Y0090388D01*
X0211854Y0090388D01*
X0212337Y0089905D01*
X0212337Y0088453D01*
X0209435Y0088453D01*
X0209435Y0087442D02*
X0212337Y0087442D01*
X0209435Y0085507D01*
X0212337Y0085507D01*
X0211854Y0084495D02*
X0210886Y0084495D01*
X0210886Y0083528D01*
X0209919Y0084495D02*
X0209435Y0084012D01*
X0209435Y0083044D01*
X0209919Y0082560D01*
X0211854Y0082560D01*
X0212337Y0083044D01*
X0212337Y0084012D01*
X0211854Y0084495D01*
X0207337Y0084510D02*
X0207337Y0083543D01*
X0207337Y0084026D02*
X0204435Y0084026D01*
X0204435Y0083543D02*
X0204435Y0084510D01*
X0204919Y0082531D02*
X0205886Y0082531D01*
X0206370Y0082047D01*
X0206370Y0080596D01*
X0207337Y0080596D02*
X0204435Y0080596D01*
X0204435Y0082047D01*
X0204919Y0082531D01*
X0202337Y0083543D02*
X0202337Y0084510D01*
X0202337Y0084026D02*
X0199435Y0084026D01*
X0199435Y0083543D02*
X0199435Y0084510D01*
X0199919Y0082531D02*
X0200886Y0082531D01*
X0201370Y0082047D01*
X0201370Y0080596D01*
X0202337Y0080596D02*
X0199435Y0080596D01*
X0199435Y0082047D01*
X0199919Y0082531D01*
X0197337Y0083543D02*
X0197337Y0084510D01*
X0197337Y0084026D02*
X0194435Y0084026D01*
X0194435Y0083543D02*
X0194435Y0084510D01*
X0194919Y0082531D02*
X0195886Y0082531D01*
X0196370Y0082047D01*
X0196370Y0080596D01*
X0197337Y0080596D02*
X0194435Y0080596D01*
X0194435Y0082047D01*
X0194919Y0082531D01*
X0194919Y0079585D02*
X0194435Y0079101D01*
X0194435Y0078133D01*
X0194919Y0077650D01*
X0196854Y0077650D01*
X0197337Y0078133D01*
X0197337Y0079101D01*
X0196854Y0079585D01*
X0195886Y0079585D01*
X0195886Y0078617D01*
X0199435Y0078133D02*
X0199919Y0077650D01*
X0201854Y0077650D01*
X0202337Y0078133D01*
X0202337Y0079101D01*
X0201854Y0079585D01*
X0200886Y0079585D01*
X0200886Y0078617D01*
X0199919Y0079585D02*
X0199435Y0079101D01*
X0199435Y0078133D01*
X0204435Y0078133D02*
X0204919Y0077650D01*
X0206854Y0077650D01*
X0207337Y0078133D01*
X0207337Y0079101D01*
X0206854Y0079585D01*
X0205886Y0079585D01*
X0205886Y0078617D01*
X0204919Y0079585D02*
X0204435Y0079101D01*
X0204435Y0078133D01*
X0239435Y0083044D02*
X0239919Y0082560D01*
X0241854Y0082560D01*
X0242337Y0083044D01*
X0242337Y0084012D01*
X0241854Y0084495D01*
X0240886Y0084495D01*
X0240886Y0083528D01*
X0239919Y0084495D02*
X0239435Y0084012D01*
X0239435Y0083044D01*
X0239435Y0085507D02*
X0242337Y0087442D01*
X0239435Y0087442D01*
X0239435Y0088453D02*
X0239435Y0089905D01*
X0239919Y0090388D01*
X0241854Y0090388D01*
X0242337Y0089905D01*
X0242337Y0088453D01*
X0239435Y0088453D01*
X0239435Y0085507D02*
X0242337Y0085507D01*
X0244435Y0085507D02*
X0247337Y0087442D01*
X0244435Y0087442D01*
X0244435Y0088453D02*
X0244435Y0089905D01*
X0244919Y0090388D01*
X0246854Y0090388D01*
X0247337Y0089905D01*
X0247337Y0088453D01*
X0244435Y0088453D01*
X0244435Y0085507D02*
X0247337Y0085507D01*
X0246854Y0084495D02*
X0245886Y0084495D01*
X0245886Y0083528D01*
X0244919Y0084495D02*
X0244435Y0084012D01*
X0244435Y0083044D01*
X0244919Y0082560D01*
X0246854Y0082560D01*
X0247337Y0083044D01*
X0247337Y0084012D01*
X0246854Y0084495D01*
X0249435Y0084012D02*
X0249435Y0083044D01*
X0249919Y0082560D01*
X0251854Y0082560D01*
X0252337Y0083044D01*
X0252337Y0084012D01*
X0251854Y0084495D01*
X0250886Y0084495D01*
X0250886Y0083528D01*
X0249919Y0084495D02*
X0249435Y0084012D01*
X0249435Y0085507D02*
X0252337Y0087442D01*
X0249435Y0087442D01*
X0249435Y0088453D02*
X0249435Y0089905D01*
X0249919Y0090388D01*
X0251854Y0090388D01*
X0252337Y0089905D01*
X0252337Y0088453D01*
X0249435Y0088453D01*
X0249435Y0085507D02*
X0252337Y0085507D01*
X0251854Y0050388D02*
X0249919Y0050388D01*
X0249435Y0049905D01*
X0249435Y0048453D01*
X0252337Y0048453D01*
X0252337Y0049905D01*
X0251854Y0050388D01*
X0252337Y0047442D02*
X0249435Y0047442D01*
X0249435Y0045507D02*
X0252337Y0047442D01*
X0252337Y0045507D02*
X0249435Y0045507D01*
X0249919Y0044495D02*
X0249435Y0044012D01*
X0249435Y0043044D01*
X0249919Y0042560D01*
X0251854Y0042560D01*
X0252337Y0043044D01*
X0252337Y0044012D01*
X0251854Y0044495D01*
X0250886Y0044495D01*
X0250886Y0043528D01*
X0247337Y0044495D02*
X0245402Y0044495D01*
X0244435Y0043528D01*
X0245402Y0042560D01*
X0247337Y0042560D01*
X0245886Y0042560D02*
X0245886Y0044495D01*
X0244435Y0045507D02*
X0247337Y0047442D01*
X0244435Y0047442D01*
X0244435Y0048453D02*
X0244435Y0050388D01*
X0244435Y0049421D02*
X0247337Y0049421D01*
X0247337Y0045507D02*
X0244435Y0045507D01*
X0242337Y0045507D02*
X0239435Y0045507D01*
X0242337Y0047442D01*
X0239435Y0047442D01*
X0239435Y0048453D02*
X0239435Y0049905D01*
X0239919Y0050388D01*
X0241854Y0050388D01*
X0242337Y0049905D01*
X0242337Y0048453D01*
X0239435Y0048453D01*
X0239919Y0044495D02*
X0239435Y0044012D01*
X0239435Y0043044D01*
X0239919Y0042560D01*
X0241854Y0042560D01*
X0242337Y0043044D01*
X0242337Y0044012D01*
X0241854Y0044495D01*
X0240886Y0044495D01*
X0240886Y0043528D01*
X0212337Y0044012D02*
X0211854Y0044495D01*
X0210886Y0044495D01*
X0210886Y0043528D01*
X0209919Y0044495D02*
X0209435Y0044012D01*
X0209435Y0043044D01*
X0209919Y0042560D01*
X0211854Y0042560D01*
X0212337Y0043044D01*
X0212337Y0044012D01*
X0212337Y0045507D02*
X0209435Y0045507D01*
X0212337Y0047442D01*
X0209435Y0047442D01*
X0209435Y0048453D02*
X0209435Y0049905D01*
X0209919Y0050388D01*
X0211854Y0050388D01*
X0212337Y0049905D01*
X0212337Y0048453D01*
X0209435Y0048453D01*
X0207337Y0048453D02*
X0207337Y0049905D01*
X0206854Y0050388D01*
X0206370Y0050388D01*
X0205886Y0049905D01*
X0205886Y0048453D01*
X0206370Y0047442D02*
X0206854Y0047442D01*
X0207337Y0046958D01*
X0207337Y0045991D01*
X0206854Y0045507D01*
X0206854Y0044495D02*
X0207337Y0044012D01*
X0207337Y0043044D01*
X0206854Y0042560D01*
X0204919Y0042560D01*
X0204435Y0043044D01*
X0204435Y0044012D01*
X0204919Y0044495D01*
X0204919Y0045507D02*
X0205402Y0045507D01*
X0205886Y0045991D01*
X0205886Y0046958D01*
X0206370Y0047442D01*
X0207337Y0048453D02*
X0204435Y0048453D01*
X0204435Y0049905D01*
X0204919Y0050388D01*
X0205402Y0050388D01*
X0205886Y0049905D01*
X0204919Y0047442D02*
X0204435Y0046958D01*
X0204435Y0045991D01*
X0204919Y0045507D01*
X0202337Y0045991D02*
X0201854Y0045507D01*
X0202337Y0045991D02*
X0202337Y0046958D01*
X0201854Y0047442D01*
X0201370Y0047442D01*
X0200886Y0046958D01*
X0200886Y0045991D01*
X0200402Y0045507D01*
X0199919Y0045507D01*
X0199435Y0045991D01*
X0199435Y0046958D01*
X0199919Y0047442D01*
X0199435Y0048453D02*
X0199435Y0049905D01*
X0199919Y0050388D01*
X0200402Y0050388D01*
X0200886Y0049905D01*
X0200886Y0048453D01*
X0202337Y0048453D02*
X0199435Y0048453D01*
X0200886Y0049905D02*
X0201370Y0050388D01*
X0201854Y0050388D01*
X0202337Y0049905D01*
X0202337Y0048453D01*
X0197337Y0048937D02*
X0197337Y0049905D01*
X0196854Y0050388D01*
X0194919Y0050388D01*
X0194435Y0049905D01*
X0194435Y0048937D01*
X0194919Y0048453D01*
X0196854Y0048453D01*
X0197337Y0048937D01*
X0197337Y0047457D02*
X0197337Y0046489D01*
X0197337Y0046973D02*
X0194435Y0046973D01*
X0194435Y0046489D02*
X0194435Y0047457D01*
X0194919Y0045478D02*
X0194435Y0044994D01*
X0194435Y0043543D01*
X0197337Y0043543D01*
X0197337Y0044994D01*
X0196854Y0045478D01*
X0194919Y0045478D01*
X0192337Y0045507D02*
X0192337Y0047442D01*
X0192337Y0048453D02*
X0189435Y0048453D01*
X0190886Y0048937D02*
X0192337Y0050388D01*
X0191370Y0048453D02*
X0189435Y0050388D01*
X0187337Y0049905D02*
X0186854Y0050388D01*
X0184919Y0050388D01*
X0184435Y0049905D01*
X0184435Y0048453D01*
X0187337Y0048453D01*
X0187337Y0049905D01*
X0187337Y0047442D02*
X0184435Y0047442D01*
X0184435Y0045507D02*
X0187337Y0047442D01*
X0187337Y0045507D02*
X0184435Y0045507D01*
X0184919Y0044495D02*
X0184435Y0044012D01*
X0184435Y0043044D01*
X0184919Y0042560D01*
X0186854Y0042560D01*
X0187337Y0043044D01*
X0187337Y0044012D01*
X0186854Y0044495D01*
X0185886Y0044495D01*
X0185886Y0043528D01*
X0189435Y0044012D02*
X0189435Y0043044D01*
X0189919Y0042560D01*
X0191854Y0042560D01*
X0192337Y0043044D01*
X0192337Y0044012D01*
X0191854Y0044495D01*
X0192337Y0045507D02*
X0189435Y0045507D01*
X0189919Y0044495D02*
X0189435Y0044012D01*
X0189919Y0041549D02*
X0189435Y0041065D01*
X0189435Y0040098D01*
X0189919Y0039614D01*
X0190402Y0039614D01*
X0190886Y0040098D01*
X0190886Y0041065D01*
X0191370Y0041549D01*
X0191854Y0041549D01*
X0192337Y0041065D01*
X0192337Y0040098D01*
X0191854Y0039614D01*
X0194435Y0041080D02*
X0194919Y0040596D01*
X0195402Y0040596D01*
X0195886Y0041080D01*
X0195886Y0042047D01*
X0196370Y0042531D01*
X0196854Y0042531D01*
X0197337Y0042047D01*
X0197337Y0041080D01*
X0196854Y0040596D01*
X0194435Y0041080D02*
X0194435Y0042047D01*
X0194919Y0042531D01*
X0199435Y0043044D02*
X0199919Y0042560D01*
X0201854Y0042560D01*
X0202337Y0043044D01*
X0202337Y0044012D01*
X0201854Y0044495D01*
X0199919Y0044495D02*
X0199435Y0044012D01*
X0199435Y0043044D01*
X0204435Y0041549D02*
X0204435Y0039614D01*
X0207337Y0039614D01*
X0205886Y0039614D02*
X0205886Y0040581D01*
D23*
X0065142Y0090725D02*
X0065142Y0093027D01*
X0065142Y0091876D02*
X0063608Y0091876D01*
X0062840Y0092643D02*
X0062457Y0093027D01*
X0061689Y0093027D01*
X0061306Y0092643D01*
X0061306Y0091109D01*
X0061689Y0090725D01*
X0062457Y0090725D01*
X0062840Y0091109D01*
X0063608Y0090725D02*
X0063608Y0093027D01*
X0063608Y0094475D02*
X0063608Y0096777D01*
X0064375Y0096777D02*
X0062840Y0096777D01*
X0062073Y0096777D02*
X0060538Y0096777D01*
X0060538Y0094475D01*
X0062073Y0094475D01*
X0061306Y0095626D02*
X0060538Y0095626D01*
X0059771Y0095242D02*
X0059771Y0094859D01*
X0059387Y0094475D01*
X0058620Y0094475D01*
X0058236Y0094859D01*
X0057469Y0094475D02*
X0055934Y0094475D01*
X0055934Y0096777D01*
X0057469Y0096777D01*
X0058236Y0096393D02*
X0058236Y0096010D01*
X0058620Y0095626D01*
X0059387Y0095626D01*
X0059771Y0095242D01*
X0059771Y0096393D02*
X0059387Y0096777D01*
X0058620Y0096777D01*
X0058236Y0096393D01*
X0056702Y0095626D02*
X0055934Y0095626D01*
X0055167Y0095626D02*
X0054783Y0095242D01*
X0053632Y0095242D01*
X0053632Y0094475D02*
X0053632Y0096777D01*
X0054783Y0096777D01*
X0055167Y0096393D01*
X0055167Y0095626D01*
X0054400Y0095242D02*
X0055167Y0094475D01*
X0055167Y0093027D02*
X0055167Y0090725D01*
X0055934Y0091492D01*
X0056702Y0090725D01*
X0056702Y0093027D01*
X0057469Y0093027D02*
X0058236Y0093027D01*
X0057853Y0093027D02*
X0057853Y0090725D01*
X0058236Y0090725D02*
X0057469Y0090725D01*
X0059771Y0090725D02*
X0059771Y0093027D01*
X0059004Y0093027D02*
X0060538Y0093027D01*
X0054400Y0092643D02*
X0054016Y0093027D01*
X0053249Y0093027D01*
X0052865Y0092643D01*
X0052865Y0092260D01*
X0053249Y0091876D01*
X0054016Y0091876D01*
X0054400Y0091492D01*
X0054400Y0091109D01*
X0054016Y0090725D01*
X0053249Y0090725D01*
X0052865Y0091109D01*
M02*
