G75*
%MOIN*%
%OFA0B0*%
%FSLAX25Y25*%
%IPPOS*%
%LPD*%
%AMOC8*
5,1,8,0,0,1.08239X$1,22.5*
%
%ADD10C,0.13792*%
%ADD11R,0.07800X0.07800*%
%ADD12C,0.07800*%
%ADD13R,0.08674X0.08674*%
%ADD14C,0.08674*%
%ADD15C,0.07099*%
%ADD16R,0.05400X0.07100*%
%ADD17C,0.06800*%
%ADD18C,0.07885*%
%ADD19C,0.05131*%
D10*
X0019287Y0086250D03*
X0019287Y0196250D03*
X0394287Y0196250D03*
X0394287Y0086250D03*
D11*
X0359287Y0183750D03*
D12*
X0349287Y0183750D03*
X0339287Y0183750D03*
X0329287Y0183750D03*
X0329287Y0173750D03*
X0339287Y0173750D03*
X0349287Y0173750D03*
X0359287Y0173750D03*
D13*
X0216787Y0226250D03*
D14*
X0226787Y0226250D03*
X0236787Y0226250D03*
X0246787Y0226250D03*
D15*
X0291787Y0176250D03*
X0291787Y0166250D03*
X0291787Y0156250D03*
X0291787Y0146250D03*
X0279287Y0076250D03*
X0279287Y0056250D03*
D16*
X0245287Y0101250D03*
X0239287Y0101250D03*
X0233287Y0101250D03*
X0217787Y0101250D03*
X0211787Y0101250D03*
X0205787Y0101250D03*
D17*
X0141787Y0133750D03*
X0141787Y0143750D03*
X0141787Y0153750D03*
X0141787Y0163750D03*
X0141787Y0173750D03*
X0141787Y0183750D03*
X0141787Y0193750D03*
X0141787Y0203750D03*
X0051787Y0203750D03*
X0051787Y0193750D03*
X0051787Y0183750D03*
X0051787Y0173750D03*
X0051787Y0163750D03*
X0051787Y0153750D03*
X0051787Y0143750D03*
X0051787Y0133750D03*
D18*
X0146787Y0063750D03*
X0146787Y0048750D03*
D19*
X0081787Y0043750D03*
X0184287Y0043750D03*
X0259287Y0043750D03*
X0284287Y0106250D03*
X0239287Y0113750D03*
X0214287Y0113750D03*
X0179287Y0106250D03*
X0176787Y0138750D03*
X0226787Y0166250D03*
X0216787Y0176250D03*
X0236787Y0193750D03*
X0259287Y0191250D03*
X0264287Y0196250D03*
X0276787Y0183750D03*
X0264287Y0158750D03*
X0246787Y0153750D03*
X0259287Y0148750D03*
X0129287Y0198750D03*
X0141787Y0236250D03*
X0051787Y0236250D03*
X0019287Y0173750D03*
X0019287Y0108750D03*
X0326787Y0236250D03*
X0394287Y0176250D03*
X0394287Y0106250D03*
X0364287Y0043750D03*
M02*
