G75*
%MOIN*%
%OFA0B0*%
%FSLAX25Y25*%
%IPPOS*%
%LPD*%
%AMOC8*
5,1,8,0,0,1.08239X$1,22.5*
%
%ADD10R,0.04600X0.06300*%
%ADD11OC8,0.05600*%
%ADD12C,0.06299*%
%ADD13C,0.01575*%
%ADD14C,0.03150*%
%ADD15C,0.04331*%
D10*
X0023787Y0081787D03*
X0029787Y0081787D03*
X0051287Y0081787D03*
X0057287Y0081787D03*
D11*
X0059287Y0146787D03*
X0059287Y0156787D03*
X0049287Y0156787D03*
X0049287Y0146787D03*
X0039287Y0146787D03*
X0039287Y0156787D03*
X0029287Y0156787D03*
X0029287Y0146787D03*
X0019287Y0146787D03*
X0019287Y0156787D03*
D12*
X0051787Y0124287D03*
X0051787Y0104287D03*
D13*
X0003953Y0164622D02*
X0003953Y0003953D01*
X0074622Y0003953D01*
X0074622Y0164622D01*
X0003953Y0164622D01*
X0003953Y0163839D02*
X0074622Y0163839D01*
X0074622Y0162265D02*
X0003953Y0162265D01*
X0003953Y0160692D02*
X0016448Y0160692D01*
X0017312Y0161556D02*
X0014519Y0158763D01*
X0014519Y0158416D01*
X0010226Y0154124D01*
X0009451Y0153348D01*
X0009031Y0152336D01*
X0009031Y0083739D01*
X0009451Y0082726D01*
X0011951Y0080226D01*
X0012726Y0079451D01*
X0013739Y0079031D01*
X0019519Y0079031D01*
X0019519Y0077822D01*
X0020672Y0076669D01*
X0027031Y0076669D01*
X0027031Y0075739D01*
X0027451Y0074726D01*
X0041951Y0060226D01*
X0042726Y0059451D01*
X0043739Y0059031D01*
X0046197Y0059031D01*
X0046946Y0058283D01*
X0048465Y0057654D01*
X0050110Y0057654D01*
X0051629Y0058283D01*
X0052792Y0059446D01*
X0053421Y0060965D01*
X0053421Y0062610D01*
X0052792Y0064129D01*
X0051629Y0065292D01*
X0050110Y0065921D01*
X0048465Y0065921D01*
X0046946Y0065292D01*
X0046197Y0064543D01*
X0045429Y0064543D01*
X0033103Y0076869D01*
X0034056Y0077822D01*
X0034056Y0085753D01*
X0032903Y0086906D01*
X0020672Y0086906D01*
X0019519Y0085753D01*
X0019519Y0084543D01*
X0015429Y0084543D01*
X0014543Y0085429D01*
X0014543Y0144788D01*
X0016531Y0142800D01*
X0016531Y0106239D01*
X0016951Y0105226D01*
X0017726Y0104451D01*
X0042726Y0079451D01*
X0043739Y0079031D01*
X0047019Y0079031D01*
X0047019Y0077822D01*
X0048172Y0076669D01*
X0054031Y0076669D01*
X0054031Y0069878D01*
X0053283Y0069129D01*
X0052654Y0067610D01*
X0052654Y0065965D01*
X0053283Y0064446D01*
X0054446Y0063283D01*
X0055965Y0062654D01*
X0057610Y0062654D01*
X0059129Y0063283D01*
X0060292Y0064446D01*
X0060921Y0065965D01*
X0060921Y0067610D01*
X0060292Y0069129D01*
X0059543Y0069878D01*
X0059543Y0076669D01*
X0060403Y0076669D01*
X0061556Y0077822D01*
X0061556Y0085753D01*
X0060403Y0086906D01*
X0048172Y0086906D01*
X0047019Y0085753D01*
X0047019Y0084543D01*
X0045429Y0084543D01*
X0022043Y0107929D01*
X0022043Y0142800D01*
X0024056Y0144812D01*
X0024056Y0148763D01*
X0021263Y0151556D01*
X0017312Y0151556D01*
X0014543Y0148787D01*
X0014543Y0150646D01*
X0016614Y0152717D01*
X0017312Y0152019D01*
X0021263Y0152019D01*
X0024056Y0154812D01*
X0024056Y0158763D01*
X0021263Y0161556D01*
X0017312Y0161556D01*
X0016787Y0156787D02*
X0011787Y0151787D01*
X0011787Y0084287D01*
X0014287Y0081787D01*
X0023787Y0081787D01*
X0020513Y0086746D02*
X0014543Y0086746D01*
X0014543Y0088320D02*
X0033858Y0088320D01*
X0033062Y0086746D02*
X0035431Y0086746D01*
X0034056Y0085173D02*
X0037004Y0085173D01*
X0038578Y0083600D02*
X0034056Y0083600D01*
X0034056Y0082026D02*
X0040151Y0082026D01*
X0041724Y0080453D02*
X0034056Y0080453D01*
X0034056Y0078880D02*
X0047019Y0078880D01*
X0047534Y0077306D02*
X0033540Y0077306D01*
X0034239Y0075733D02*
X0054031Y0075733D01*
X0054031Y0074160D02*
X0035812Y0074160D01*
X0037386Y0072587D02*
X0054031Y0072587D01*
X0054031Y0071013D02*
X0038959Y0071013D01*
X0040532Y0069440D02*
X0053594Y0069440D01*
X0052760Y0067867D02*
X0042106Y0067867D01*
X0043679Y0066293D02*
X0052654Y0066293D01*
X0052201Y0064720D02*
X0053169Y0064720D01*
X0053199Y0063147D02*
X0054775Y0063147D01*
X0053421Y0061573D02*
X0074622Y0061573D01*
X0074622Y0060000D02*
X0053021Y0060000D01*
X0051773Y0058427D02*
X0074622Y0058427D01*
X0074622Y0056853D02*
X0003953Y0056853D01*
X0003953Y0055280D02*
X0074622Y0055280D01*
X0074622Y0053707D02*
X0003953Y0053707D01*
X0003953Y0052133D02*
X0074622Y0052133D01*
X0074622Y0050560D02*
X0003953Y0050560D01*
X0003953Y0048987D02*
X0074622Y0048987D01*
X0074622Y0047414D02*
X0003953Y0047414D01*
X0003953Y0045840D02*
X0074622Y0045840D01*
X0074622Y0044267D02*
X0003953Y0044267D01*
X0003953Y0042694D02*
X0074622Y0042694D01*
X0074622Y0041120D02*
X0003953Y0041120D01*
X0003953Y0039547D02*
X0074622Y0039547D01*
X0074622Y0037974D02*
X0003953Y0037974D01*
X0003953Y0036400D02*
X0074622Y0036400D01*
X0074622Y0034827D02*
X0003953Y0034827D01*
X0003953Y0033254D02*
X0074622Y0033254D01*
X0074622Y0031680D02*
X0003953Y0031680D01*
X0003953Y0030107D02*
X0074622Y0030107D01*
X0074622Y0028534D02*
X0003953Y0028534D01*
X0003953Y0026960D02*
X0074622Y0026960D01*
X0074622Y0025387D02*
X0003953Y0025387D01*
X0003953Y0023814D02*
X0074622Y0023814D01*
X0074622Y0022240D02*
X0003953Y0022240D01*
X0003953Y0020667D02*
X0074622Y0020667D01*
X0074622Y0019094D02*
X0003953Y0019094D01*
X0003953Y0017521D02*
X0074622Y0017521D01*
X0074622Y0015947D02*
X0003953Y0015947D01*
X0003953Y0014374D02*
X0074622Y0014374D01*
X0074622Y0012801D02*
X0003953Y0012801D01*
X0003953Y0011227D02*
X0074622Y0011227D01*
X0074622Y0009654D02*
X0003953Y0009654D01*
X0003953Y0008081D02*
X0074622Y0008081D01*
X0074622Y0006507D02*
X0003953Y0006507D01*
X0003953Y0004934D02*
X0074622Y0004934D01*
X0049287Y0061787D02*
X0044287Y0061787D01*
X0029787Y0076287D01*
X0029787Y0081787D01*
X0027034Y0075733D02*
X0003953Y0075733D01*
X0003953Y0074160D02*
X0028017Y0074160D01*
X0029591Y0072587D02*
X0003953Y0072587D01*
X0003953Y0071013D02*
X0031164Y0071013D01*
X0032737Y0069440D02*
X0003953Y0069440D01*
X0003953Y0067867D02*
X0034311Y0067867D01*
X0035884Y0066293D02*
X0003953Y0066293D01*
X0003953Y0064720D02*
X0037457Y0064720D01*
X0039031Y0063147D02*
X0003953Y0063147D01*
X0003953Y0061573D02*
X0040604Y0061573D01*
X0042177Y0060000D02*
X0003953Y0060000D01*
X0003953Y0058427D02*
X0046802Y0058427D01*
X0046374Y0064720D02*
X0045252Y0064720D01*
X0044287Y0081787D02*
X0019287Y0106787D01*
X0019287Y0146787D01*
X0017009Y0151252D02*
X0015150Y0151252D01*
X0015435Y0149679D02*
X0014543Y0149679D01*
X0014543Y0143386D02*
X0015945Y0143386D01*
X0016531Y0141812D02*
X0014543Y0141812D01*
X0014543Y0140239D02*
X0016531Y0140239D01*
X0016531Y0138666D02*
X0014543Y0138666D01*
X0014543Y0137092D02*
X0016531Y0137092D01*
X0016531Y0135519D02*
X0014543Y0135519D01*
X0014543Y0133946D02*
X0016531Y0133946D01*
X0016531Y0132373D02*
X0014543Y0132373D01*
X0014543Y0130799D02*
X0016531Y0130799D01*
X0016531Y0129226D02*
X0014543Y0129226D01*
X0014543Y0127653D02*
X0016531Y0127653D01*
X0016531Y0126079D02*
X0014543Y0126079D01*
X0014543Y0124506D02*
X0016531Y0124506D01*
X0016531Y0122933D02*
X0014543Y0122933D01*
X0014543Y0121359D02*
X0016531Y0121359D01*
X0016531Y0119786D02*
X0014543Y0119786D01*
X0014543Y0118213D02*
X0016531Y0118213D01*
X0016531Y0116639D02*
X0014543Y0116639D01*
X0014543Y0115066D02*
X0016531Y0115066D01*
X0016531Y0113493D02*
X0014543Y0113493D01*
X0014543Y0111919D02*
X0016531Y0111919D01*
X0016531Y0110346D02*
X0014543Y0110346D01*
X0014543Y0108773D02*
X0016531Y0108773D01*
X0016531Y0107199D02*
X0014543Y0107199D01*
X0014543Y0105626D02*
X0016785Y0105626D01*
X0018125Y0104053D02*
X0014543Y0104053D01*
X0014543Y0102480D02*
X0019698Y0102480D01*
X0021271Y0100906D02*
X0014543Y0100906D01*
X0014543Y0099333D02*
X0022844Y0099333D01*
X0024418Y0097760D02*
X0014543Y0097760D01*
X0014543Y0096186D02*
X0025991Y0096186D01*
X0027564Y0094613D02*
X0014543Y0094613D01*
X0014543Y0093040D02*
X0029138Y0093040D01*
X0030711Y0091466D02*
X0014543Y0091466D01*
X0014543Y0089893D02*
X0032284Y0089893D01*
X0035359Y0094613D02*
X0074622Y0094613D01*
X0074622Y0096186D02*
X0033786Y0096186D01*
X0032213Y0097760D02*
X0074622Y0097760D01*
X0074622Y0099333D02*
X0030639Y0099333D01*
X0029066Y0100906D02*
X0048187Y0100906D01*
X0048022Y0101071D02*
X0048571Y0100522D01*
X0049200Y0100065D01*
X0049892Y0099712D01*
X0050631Y0099472D01*
X0051399Y0099350D01*
X0051689Y0099350D01*
X0051689Y0104189D01*
X0046850Y0104189D01*
X0046850Y0103899D01*
X0046972Y0103131D01*
X0047212Y0102392D01*
X0047565Y0101700D01*
X0048022Y0101071D01*
X0047184Y0102480D02*
X0027493Y0102480D01*
X0025919Y0104053D02*
X0046850Y0104053D01*
X0046850Y0104386D02*
X0051689Y0104386D01*
X0051689Y0109224D01*
X0051399Y0109224D01*
X0050631Y0109103D01*
X0049892Y0108863D01*
X0049200Y0108510D01*
X0048571Y0108053D01*
X0048022Y0107504D01*
X0047565Y0106875D01*
X0047212Y0106183D01*
X0046972Y0105443D01*
X0046850Y0104676D01*
X0046850Y0104386D01*
X0047031Y0105626D02*
X0024346Y0105626D01*
X0022773Y0107199D02*
X0047801Y0107199D01*
X0049716Y0108773D02*
X0022043Y0108773D01*
X0022043Y0110346D02*
X0074622Y0110346D01*
X0074622Y0108773D02*
X0053859Y0108773D01*
X0053683Y0108863D02*
X0052943Y0109103D01*
X0052176Y0109224D01*
X0051886Y0109224D01*
X0051886Y0104386D01*
X0051689Y0104386D01*
X0051689Y0104189D01*
X0051886Y0104189D01*
X0051886Y0104386D01*
X0056724Y0104386D01*
X0056724Y0104676D01*
X0056603Y0105443D01*
X0056363Y0106183D01*
X0056010Y0106875D01*
X0055553Y0107504D01*
X0055004Y0108053D01*
X0054375Y0108510D01*
X0053683Y0108863D01*
X0051886Y0108773D02*
X0051689Y0108773D01*
X0051689Y0107199D02*
X0051886Y0107199D01*
X0051886Y0105626D02*
X0051689Y0105626D01*
X0051886Y0104189D02*
X0056724Y0104189D01*
X0056724Y0103899D01*
X0056603Y0103131D01*
X0056363Y0102392D01*
X0056010Y0101700D01*
X0055553Y0101071D01*
X0055004Y0100522D01*
X0054375Y0100065D01*
X0053683Y0099712D01*
X0052943Y0099472D01*
X0052176Y0099350D01*
X0051886Y0099350D01*
X0051886Y0104189D01*
X0051886Y0104053D02*
X0051689Y0104053D01*
X0051689Y0102480D02*
X0051886Y0102480D01*
X0051886Y0100906D02*
X0051689Y0100906D01*
X0055388Y0100906D02*
X0074622Y0100906D01*
X0074622Y0102480D02*
X0056391Y0102480D01*
X0056724Y0104053D02*
X0074622Y0104053D01*
X0074622Y0105626D02*
X0056543Y0105626D01*
X0055774Y0107199D02*
X0074622Y0107199D01*
X0074622Y0111919D02*
X0022043Y0111919D01*
X0022043Y0113493D02*
X0074622Y0113493D01*
X0074622Y0115066D02*
X0022043Y0115066D01*
X0022043Y0116639D02*
X0074622Y0116639D01*
X0074622Y0118213D02*
X0022043Y0118213D01*
X0022043Y0119786D02*
X0049280Y0119786D01*
X0048888Y0119948D02*
X0050769Y0119169D01*
X0052805Y0119169D01*
X0054687Y0119948D01*
X0055482Y0120744D01*
X0067492Y0120744D01*
X0068795Y0121284D01*
X0069791Y0122280D01*
X0072291Y0124780D01*
X0072831Y0126083D01*
X0072831Y0152492D01*
X0072291Y0153795D01*
X0071295Y0154791D01*
X0066295Y0159791D01*
X0064992Y0160331D01*
X0062488Y0160331D01*
X0061263Y0161556D01*
X0057312Y0161556D01*
X0054519Y0158763D01*
X0054519Y0154812D01*
X0057312Y0152019D01*
X0061263Y0152019D01*
X0062488Y0153244D01*
X0062820Y0153244D01*
X0065744Y0150320D01*
X0065744Y0128255D01*
X0065320Y0127831D01*
X0055482Y0127831D01*
X0054687Y0128626D01*
X0052805Y0129405D01*
X0050769Y0129405D01*
X0048888Y0128626D01*
X0047448Y0127187D01*
X0046669Y0125305D01*
X0046669Y0123269D01*
X0047448Y0121388D01*
X0048888Y0119948D01*
X0047477Y0121359D02*
X0022043Y0121359D01*
X0022043Y0122933D02*
X0046809Y0122933D01*
X0046669Y0124506D02*
X0022043Y0124506D01*
X0022043Y0126079D02*
X0046990Y0126079D01*
X0047914Y0127653D02*
X0022043Y0127653D01*
X0022043Y0129226D02*
X0050336Y0129226D01*
X0053239Y0129226D02*
X0065744Y0129226D01*
X0065744Y0130799D02*
X0022043Y0130799D01*
X0022043Y0132373D02*
X0065744Y0132373D01*
X0065744Y0133946D02*
X0022043Y0133946D01*
X0022043Y0135519D02*
X0065744Y0135519D01*
X0065744Y0137092D02*
X0022043Y0137092D01*
X0022043Y0138666D02*
X0065744Y0138666D01*
X0065744Y0140239D02*
X0022043Y0140239D01*
X0022043Y0141812D02*
X0065744Y0141812D01*
X0065744Y0143386D02*
X0062373Y0143386D01*
X0061188Y0142200D02*
X0063875Y0144887D01*
X0063875Y0146675D01*
X0059400Y0146675D01*
X0059400Y0146900D01*
X0063875Y0146900D01*
X0063875Y0148688D01*
X0061188Y0151375D01*
X0059400Y0151375D01*
X0059400Y0146900D01*
X0059175Y0146900D01*
X0059175Y0151375D01*
X0057387Y0151375D01*
X0054700Y0148688D01*
X0054700Y0146900D01*
X0059175Y0146900D01*
X0059175Y0146675D01*
X0059400Y0146675D01*
X0059400Y0142200D01*
X0061188Y0142200D01*
X0059175Y0142200D02*
X0059175Y0146675D01*
X0054700Y0146675D01*
X0054700Y0144887D01*
X0057387Y0142200D01*
X0059175Y0142200D01*
X0059175Y0143386D02*
X0059400Y0143386D01*
X0059400Y0144959D02*
X0059175Y0144959D01*
X0059175Y0146532D02*
X0059400Y0146532D01*
X0059400Y0148106D02*
X0059175Y0148106D01*
X0059175Y0149679D02*
X0059400Y0149679D01*
X0059400Y0151252D02*
X0059175Y0151252D01*
X0057265Y0151252D02*
X0051566Y0151252D01*
X0051263Y0151556D02*
X0047312Y0151556D01*
X0044519Y0148763D01*
X0044519Y0144812D01*
X0047312Y0142019D01*
X0051263Y0142019D01*
X0054056Y0144812D01*
X0054056Y0148763D01*
X0051263Y0151556D01*
X0051263Y0152019D02*
X0054056Y0154812D01*
X0054056Y0158763D01*
X0051263Y0161556D01*
X0047312Y0161556D01*
X0044519Y0158763D01*
X0044519Y0154812D01*
X0047312Y0152019D01*
X0051263Y0152019D01*
X0052069Y0152826D02*
X0056506Y0152826D01*
X0054932Y0154399D02*
X0053643Y0154399D01*
X0054056Y0155972D02*
X0054519Y0155972D01*
X0054519Y0157546D02*
X0054056Y0157546D01*
X0053700Y0159119D02*
X0054875Y0159119D01*
X0056448Y0160692D02*
X0052126Y0160692D01*
X0046448Y0160692D02*
X0042126Y0160692D01*
X0041263Y0161556D02*
X0037312Y0161556D01*
X0034519Y0158763D01*
X0034519Y0154812D01*
X0037312Y0152019D01*
X0041263Y0152019D01*
X0044056Y0154812D01*
X0044056Y0158763D01*
X0041263Y0161556D01*
X0043700Y0159119D02*
X0044875Y0159119D01*
X0044519Y0157546D02*
X0044056Y0157546D01*
X0044056Y0155972D02*
X0044519Y0155972D01*
X0044932Y0154399D02*
X0043643Y0154399D01*
X0042069Y0152826D02*
X0046506Y0152826D01*
X0047009Y0151252D02*
X0041566Y0151252D01*
X0041263Y0151556D02*
X0037312Y0151556D01*
X0034519Y0148763D01*
X0034519Y0144812D01*
X0037312Y0142019D01*
X0041263Y0142019D01*
X0044056Y0144812D01*
X0044056Y0148763D01*
X0041263Y0151556D01*
X0043140Y0149679D02*
X0045435Y0149679D01*
X0044519Y0148106D02*
X0044056Y0148106D01*
X0044056Y0146532D02*
X0044519Y0146532D01*
X0044519Y0144959D02*
X0044056Y0144959D01*
X0042629Y0143386D02*
X0045945Y0143386D01*
X0052629Y0143386D02*
X0056202Y0143386D01*
X0054700Y0144959D02*
X0054056Y0144959D01*
X0054056Y0146532D02*
X0054700Y0146532D01*
X0054700Y0148106D02*
X0054056Y0148106D01*
X0053140Y0149679D02*
X0055691Y0149679D01*
X0061310Y0151252D02*
X0064812Y0151252D01*
X0065744Y0149679D02*
X0062883Y0149679D01*
X0063875Y0148106D02*
X0065744Y0148106D01*
X0065744Y0146532D02*
X0063875Y0146532D01*
X0063875Y0144959D02*
X0065744Y0144959D01*
X0063238Y0152826D02*
X0062069Y0152826D01*
X0062126Y0160692D02*
X0074622Y0160692D01*
X0074622Y0159119D02*
X0066967Y0159119D01*
X0068540Y0157546D02*
X0074622Y0157546D01*
X0074622Y0155972D02*
X0070114Y0155972D01*
X0071687Y0154399D02*
X0074622Y0154399D01*
X0074622Y0152826D02*
X0072693Y0152826D01*
X0072831Y0151252D02*
X0074622Y0151252D01*
X0074622Y0149679D02*
X0072831Y0149679D01*
X0072831Y0148106D02*
X0074622Y0148106D01*
X0074622Y0146532D02*
X0072831Y0146532D01*
X0072831Y0144959D02*
X0074622Y0144959D01*
X0074622Y0143386D02*
X0072831Y0143386D01*
X0072831Y0141812D02*
X0074622Y0141812D01*
X0074622Y0140239D02*
X0072831Y0140239D01*
X0072831Y0138666D02*
X0074622Y0138666D01*
X0074622Y0137092D02*
X0072831Y0137092D01*
X0072831Y0135519D02*
X0074622Y0135519D01*
X0074622Y0133946D02*
X0072831Y0133946D01*
X0072831Y0132373D02*
X0074622Y0132373D01*
X0074622Y0130799D02*
X0072831Y0130799D01*
X0072831Y0129226D02*
X0074622Y0129226D01*
X0074622Y0127653D02*
X0072831Y0127653D01*
X0072829Y0126079D02*
X0074622Y0126079D01*
X0074622Y0124506D02*
X0072017Y0124506D01*
X0070444Y0122933D02*
X0074622Y0122933D01*
X0074622Y0121359D02*
X0068870Y0121359D01*
X0074622Y0119786D02*
X0054294Y0119786D01*
X0040079Y0089893D02*
X0074622Y0089893D01*
X0074622Y0088320D02*
X0041653Y0088320D01*
X0043226Y0086746D02*
X0048012Y0086746D01*
X0047019Y0085173D02*
X0044799Y0085173D01*
X0044287Y0081787D02*
X0051287Y0081787D01*
X0056787Y0081287D02*
X0057287Y0081787D01*
X0056787Y0081287D02*
X0056787Y0066787D01*
X0058800Y0063147D02*
X0074622Y0063147D01*
X0074622Y0064720D02*
X0060405Y0064720D01*
X0060921Y0066293D02*
X0074622Y0066293D01*
X0074622Y0067867D02*
X0060815Y0067867D01*
X0059981Y0069440D02*
X0074622Y0069440D01*
X0074622Y0071013D02*
X0059543Y0071013D01*
X0059543Y0072587D02*
X0074622Y0072587D01*
X0074622Y0074160D02*
X0059543Y0074160D01*
X0059543Y0075733D02*
X0074622Y0075733D01*
X0074622Y0077306D02*
X0061040Y0077306D01*
X0061556Y0078880D02*
X0074622Y0078880D01*
X0074622Y0080453D02*
X0061556Y0080453D01*
X0061556Y0082026D02*
X0074622Y0082026D01*
X0074622Y0083600D02*
X0061556Y0083600D01*
X0061556Y0085173D02*
X0074622Y0085173D01*
X0074622Y0086746D02*
X0060562Y0086746D01*
X0074622Y0091466D02*
X0038506Y0091466D01*
X0036933Y0093040D02*
X0074622Y0093040D01*
X0037009Y0151252D02*
X0031566Y0151252D01*
X0031263Y0151556D02*
X0027312Y0151556D01*
X0024519Y0148763D01*
X0024519Y0144812D01*
X0027312Y0142019D01*
X0031263Y0142019D01*
X0034056Y0144812D01*
X0034056Y0148763D01*
X0031263Y0151556D01*
X0031263Y0152019D02*
X0034056Y0154812D01*
X0034056Y0158763D01*
X0031263Y0161556D01*
X0027312Y0161556D01*
X0024519Y0158763D01*
X0024519Y0154812D01*
X0027312Y0152019D01*
X0031263Y0152019D01*
X0032069Y0152826D02*
X0036506Y0152826D01*
X0034932Y0154399D02*
X0033643Y0154399D01*
X0034056Y0155972D02*
X0034519Y0155972D01*
X0034519Y0157546D02*
X0034056Y0157546D01*
X0033700Y0159119D02*
X0034875Y0159119D01*
X0036448Y0160692D02*
X0032126Y0160692D01*
X0027009Y0151252D02*
X0021566Y0151252D01*
X0022069Y0152826D02*
X0026506Y0152826D01*
X0024932Y0154399D02*
X0023643Y0154399D01*
X0024056Y0155972D02*
X0024519Y0155972D01*
X0024519Y0157546D02*
X0024056Y0157546D01*
X0023700Y0159119D02*
X0024875Y0159119D01*
X0026448Y0160692D02*
X0022126Y0160692D01*
X0019287Y0156787D02*
X0016787Y0156787D01*
X0014875Y0159119D02*
X0003953Y0159119D01*
X0003953Y0157546D02*
X0013648Y0157546D01*
X0012075Y0155972D02*
X0003953Y0155972D01*
X0003953Y0154399D02*
X0010501Y0154399D01*
X0009234Y0152826D02*
X0003953Y0152826D01*
X0003953Y0151252D02*
X0009031Y0151252D01*
X0009031Y0149679D02*
X0003953Y0149679D01*
X0003953Y0148106D02*
X0009031Y0148106D01*
X0009031Y0146532D02*
X0003953Y0146532D01*
X0003953Y0144959D02*
X0009031Y0144959D01*
X0009031Y0143386D02*
X0003953Y0143386D01*
X0003953Y0141812D02*
X0009031Y0141812D01*
X0009031Y0140239D02*
X0003953Y0140239D01*
X0003953Y0138666D02*
X0009031Y0138666D01*
X0009031Y0137092D02*
X0003953Y0137092D01*
X0003953Y0135519D02*
X0009031Y0135519D01*
X0009031Y0133946D02*
X0003953Y0133946D01*
X0003953Y0132373D02*
X0009031Y0132373D01*
X0009031Y0130799D02*
X0003953Y0130799D01*
X0003953Y0129226D02*
X0009031Y0129226D01*
X0009031Y0127653D02*
X0003953Y0127653D01*
X0003953Y0126079D02*
X0009031Y0126079D01*
X0009031Y0124506D02*
X0003953Y0124506D01*
X0003953Y0122933D02*
X0009031Y0122933D01*
X0009031Y0121359D02*
X0003953Y0121359D01*
X0003953Y0119786D02*
X0009031Y0119786D01*
X0009031Y0118213D02*
X0003953Y0118213D01*
X0003953Y0116639D02*
X0009031Y0116639D01*
X0009031Y0115066D02*
X0003953Y0115066D01*
X0003953Y0113493D02*
X0009031Y0113493D01*
X0009031Y0111919D02*
X0003953Y0111919D01*
X0003953Y0110346D02*
X0009031Y0110346D01*
X0009031Y0108773D02*
X0003953Y0108773D01*
X0003953Y0107199D02*
X0009031Y0107199D01*
X0009031Y0105626D02*
X0003953Y0105626D01*
X0003953Y0104053D02*
X0009031Y0104053D01*
X0009031Y0102480D02*
X0003953Y0102480D01*
X0003953Y0100906D02*
X0009031Y0100906D01*
X0009031Y0099333D02*
X0003953Y0099333D01*
X0003953Y0097760D02*
X0009031Y0097760D01*
X0009031Y0096186D02*
X0003953Y0096186D01*
X0003953Y0094613D02*
X0009031Y0094613D01*
X0009031Y0093040D02*
X0003953Y0093040D01*
X0003953Y0091466D02*
X0009031Y0091466D01*
X0009031Y0089893D02*
X0003953Y0089893D01*
X0003953Y0088320D02*
X0009031Y0088320D01*
X0009031Y0086746D02*
X0003953Y0086746D01*
X0003953Y0085173D02*
X0009031Y0085173D01*
X0009089Y0083600D02*
X0003953Y0083600D01*
X0003953Y0082026D02*
X0010151Y0082026D01*
X0011724Y0080453D02*
X0003953Y0080453D01*
X0003953Y0078880D02*
X0019519Y0078880D01*
X0020034Y0077306D02*
X0003953Y0077306D01*
X0014799Y0085173D02*
X0019519Y0085173D01*
X0022629Y0143386D02*
X0025945Y0143386D01*
X0024519Y0144959D02*
X0024056Y0144959D01*
X0024056Y0146532D02*
X0024519Y0146532D01*
X0024519Y0148106D02*
X0024056Y0148106D01*
X0023140Y0149679D02*
X0025435Y0149679D01*
X0032629Y0143386D02*
X0035945Y0143386D01*
X0034519Y0144959D02*
X0034056Y0144959D01*
X0034056Y0146532D02*
X0034519Y0146532D01*
X0034519Y0148106D02*
X0034056Y0148106D01*
X0033140Y0149679D02*
X0035435Y0149679D01*
D14*
X0051787Y0124287D02*
X0066787Y0124287D01*
X0069287Y0126787D01*
X0069287Y0151787D01*
X0064287Y0156787D01*
X0059287Y0156787D01*
D15*
X0056787Y0066787D03*
X0049287Y0061787D03*
M02*
