G75*
%MOIN*%
%OFA0B0*%
%FSLAX25Y25*%
%IPPOS*%
%LPD*%
%AMOC8*
5,1,8,0,0,1.08239X$1,22.5*
%
%ADD10C,0.00800*%
%ADD11C,0.00600*%
%ADD12C,0.00500*%
%ADD13C,0.01000*%
%ADD14C,0.00984*%
%ADD15C,0.00700*%
%ADD16R,0.20000X0.05000*%
D10*
X0007973Y0012187D02*
X0007187Y0012973D01*
X0007187Y0014545D01*
X0007973Y0015331D01*
X0007973Y0017263D02*
X0007187Y0018049D01*
X0007187Y0019621D01*
X0007973Y0020406D01*
X0007973Y0017263D02*
X0011117Y0017263D01*
X0011903Y0018049D01*
X0011903Y0019621D01*
X0011117Y0020406D01*
X0011117Y0015331D02*
X0011903Y0014545D01*
X0011903Y0012973D01*
X0011117Y0012187D01*
X0007973Y0012187D01*
X0007187Y0027413D02*
X0007187Y0029771D01*
X0007973Y0030557D01*
X0008759Y0030557D01*
X0009545Y0029771D01*
X0009545Y0027413D01*
X0009545Y0029771D02*
X0010331Y0030557D01*
X0011117Y0030557D01*
X0011903Y0029771D01*
X0011903Y0027413D01*
X0007187Y0027413D01*
X0011117Y0032488D02*
X0009545Y0034060D01*
X0007187Y0034060D01*
X0009545Y0034060D02*
X0011117Y0035632D01*
X0011903Y0035632D01*
X0011903Y0032488D02*
X0011117Y0032488D01*
X0009545Y0037563D02*
X0009545Y0040707D01*
X0007187Y0042639D02*
X0011903Y0042639D01*
X0007187Y0045782D01*
X0011903Y0045782D01*
X0011117Y0047714D02*
X0007973Y0047714D01*
X0007187Y0048500D01*
X0007187Y0050072D01*
X0007973Y0050858D01*
X0009545Y0052789D02*
X0009545Y0055933D01*
X0010331Y0057864D02*
X0009545Y0058650D01*
X0009545Y0060222D01*
X0008759Y0061008D01*
X0007973Y0061008D01*
X0007187Y0060222D01*
X0007187Y0058650D01*
X0007973Y0057864D01*
X0010331Y0057864D02*
X0011117Y0057864D01*
X0011903Y0058650D01*
X0011903Y0060222D01*
X0011117Y0061008D01*
X0010331Y0062939D02*
X0011903Y0064511D01*
X0010331Y0066083D01*
X0007187Y0066083D01*
X0007187Y0062939D02*
X0010331Y0062939D01*
X0009545Y0062939D02*
X0009545Y0066083D01*
X0009545Y0073090D02*
X0009545Y0076234D01*
X0011903Y0075448D02*
X0009545Y0073090D01*
X0007187Y0075448D02*
X0011903Y0075448D01*
X0011117Y0080703D02*
X0011903Y0081489D01*
X0011903Y0083060D01*
X0011117Y0083846D01*
X0007973Y0080703D01*
X0007187Y0081489D01*
X0007187Y0083060D01*
X0007973Y0083846D01*
X0011117Y0083846D01*
X0011117Y0080703D02*
X0007973Y0080703D01*
X0007973Y0078951D02*
X0007187Y0078951D01*
X0007187Y0078165D01*
X0007973Y0078165D01*
X0007973Y0078951D01*
X0011117Y0050858D02*
X0011903Y0050072D01*
X0011903Y0048500D01*
X0011117Y0047714D01*
X0038686Y0073936D02*
X0043402Y0073936D01*
X0043402Y0076294D01*
X0042616Y0077080D01*
X0041044Y0077080D01*
X0040258Y0076294D01*
X0040258Y0073936D01*
X0041044Y0072004D02*
X0040258Y0071218D01*
X0040258Y0069646D01*
X0041044Y0068860D01*
X0042616Y0068860D01*
X0043402Y0069646D01*
X0043402Y0071218D01*
X0042616Y0072004D01*
X0041044Y0072004D01*
X0041044Y0066929D02*
X0040258Y0066143D01*
X0040258Y0064571D01*
X0041044Y0063785D01*
X0042616Y0063785D01*
X0043402Y0064571D01*
X0043402Y0066143D01*
X0042616Y0066929D01*
X0041044Y0066929D01*
X0040258Y0061854D02*
X0042616Y0061854D01*
X0043402Y0061068D01*
X0043402Y0059496D01*
X0042616Y0058710D01*
X0043402Y0056779D02*
X0043402Y0054421D01*
X0042616Y0053635D01*
X0041044Y0053635D01*
X0040258Y0054421D01*
X0040258Y0056779D01*
X0040258Y0058710D02*
X0044974Y0058710D01*
X0048526Y0055147D02*
X0048526Y0053575D01*
X0049312Y0052789D01*
X0048526Y0050858D02*
X0048526Y0047714D01*
X0051670Y0050858D01*
X0052456Y0050858D01*
X0053242Y0050072D01*
X0053242Y0048500D01*
X0052456Y0047714D01*
X0052456Y0045782D02*
X0049312Y0042639D01*
X0048526Y0043425D01*
X0048526Y0044996D01*
X0049312Y0045782D01*
X0052456Y0045782D01*
X0053242Y0044996D01*
X0053242Y0043425D01*
X0052456Y0042639D01*
X0049312Y0042639D01*
X0048526Y0040707D02*
X0048526Y0037563D01*
X0051670Y0040707D01*
X0052456Y0040707D01*
X0053242Y0039921D01*
X0053242Y0038349D01*
X0052456Y0037563D01*
X0052456Y0033094D02*
X0051670Y0033094D01*
X0050884Y0032309D01*
X0050884Y0030737D01*
X0051670Y0029951D01*
X0052456Y0029951D01*
X0053242Y0030737D01*
X0053242Y0032309D01*
X0052456Y0033094D01*
X0050884Y0032309D02*
X0050098Y0033094D01*
X0049312Y0033094D01*
X0048526Y0032309D01*
X0048526Y0030737D01*
X0049312Y0029951D01*
X0050098Y0029951D01*
X0050884Y0030737D01*
X0052456Y0028019D02*
X0049312Y0028019D01*
X0048526Y0027233D01*
X0048526Y0025661D01*
X0049312Y0024875D01*
X0052456Y0028019D01*
X0053242Y0027233D01*
X0053242Y0025661D01*
X0052456Y0024875D01*
X0049312Y0024875D01*
X0049312Y0023124D02*
X0048526Y0023124D01*
X0048526Y0022338D01*
X0049312Y0022338D01*
X0049312Y0023124D01*
X0049312Y0020406D02*
X0048526Y0019621D01*
X0048526Y0018049D01*
X0049312Y0017263D01*
X0048526Y0015331D02*
X0048526Y0012187D01*
X0048526Y0013759D02*
X0053242Y0013759D01*
X0051670Y0012187D01*
X0050884Y0017263D02*
X0051670Y0018835D01*
X0051670Y0019621D01*
X0050884Y0020406D01*
X0049312Y0020406D01*
X0050884Y0017263D02*
X0053242Y0017263D01*
X0053242Y0020406D01*
X0055222Y0017263D02*
X0059938Y0017263D01*
X0059938Y0019621D01*
X0059152Y0020406D01*
X0057580Y0020406D01*
X0056794Y0019621D01*
X0056794Y0017263D01*
X0057580Y0015331D02*
X0060724Y0015331D01*
X0061510Y0014545D01*
X0061510Y0012973D01*
X0060724Y0012187D01*
X0057580Y0012187D01*
X0056794Y0012973D01*
X0056794Y0014545D01*
X0057580Y0015331D01*
X0057580Y0022338D02*
X0056794Y0023124D01*
X0056794Y0024696D01*
X0057580Y0022338D02*
X0059152Y0022338D01*
X0059938Y0023124D01*
X0059938Y0024696D01*
X0059152Y0025482D01*
X0058366Y0025482D01*
X0058366Y0022338D01*
X0056794Y0027413D02*
X0059938Y0027413D01*
X0059938Y0029771D01*
X0059152Y0030557D01*
X0056794Y0030557D01*
X0056794Y0032488D02*
X0056794Y0034846D01*
X0057580Y0035632D01*
X0060724Y0035632D01*
X0061510Y0034846D01*
X0061510Y0032488D01*
X0056794Y0032488D01*
X0056794Y0039135D02*
X0061510Y0039135D01*
X0061510Y0037563D02*
X0061510Y0040707D01*
X0061510Y0042639D02*
X0057580Y0042639D01*
X0056794Y0043425D01*
X0056794Y0044996D01*
X0057580Y0045782D01*
X0061510Y0045782D01*
X0065061Y0045116D02*
X0065061Y0046688D01*
X0065847Y0047474D01*
X0065061Y0049406D02*
X0069777Y0049406D01*
X0068205Y0050977D01*
X0069777Y0052549D01*
X0065061Y0052549D01*
X0065061Y0056053D02*
X0069777Y0056053D01*
X0069777Y0054481D02*
X0069777Y0057625D01*
X0068991Y0059556D02*
X0069777Y0060342D01*
X0069777Y0061914D01*
X0068991Y0062700D01*
X0068205Y0062700D01*
X0065061Y0059556D01*
X0065061Y0062700D01*
X0065847Y0064631D02*
X0065061Y0065417D01*
X0065061Y0066989D01*
X0065847Y0067775D01*
X0066633Y0067775D01*
X0067419Y0066989D01*
X0067419Y0066203D01*
X0067419Y0066989D02*
X0068205Y0067775D01*
X0068991Y0067775D01*
X0069777Y0066989D01*
X0069777Y0065417D01*
X0068991Y0064631D01*
X0068991Y0069706D02*
X0069777Y0070492D01*
X0069777Y0072064D01*
X0068991Y0072850D01*
X0065847Y0069706D01*
X0065061Y0070492D01*
X0065061Y0072064D01*
X0065847Y0072850D01*
X0068991Y0072850D01*
X0068991Y0074781D02*
X0069777Y0075567D01*
X0069777Y0077139D01*
X0068991Y0077925D01*
X0065847Y0074781D01*
X0065061Y0075567D01*
X0065061Y0077139D01*
X0065847Y0077925D01*
X0068991Y0077925D01*
X0068205Y0080643D02*
X0068205Y0082215D01*
X0067419Y0083001D01*
X0065061Y0083001D01*
X0065061Y0080643D01*
X0065847Y0079857D01*
X0066633Y0080643D01*
X0066633Y0083001D01*
X0065847Y0074781D02*
X0068991Y0074781D01*
X0068991Y0069706D02*
X0065847Y0069706D01*
X0068991Y0047474D02*
X0069777Y0046688D01*
X0069777Y0045116D01*
X0068991Y0044330D01*
X0065847Y0044330D01*
X0065061Y0045116D01*
X0065061Y0037324D02*
X0068205Y0034180D01*
X0067419Y0032249D02*
X0066633Y0032249D01*
X0066633Y0029105D01*
X0065847Y0029105D02*
X0067419Y0029105D01*
X0068205Y0029891D01*
X0068205Y0031463D01*
X0067419Y0032249D01*
X0065061Y0029891D02*
X0065847Y0029105D01*
X0065061Y0029891D02*
X0065061Y0031463D01*
X0065061Y0034180D02*
X0068205Y0037324D01*
X0067419Y0027173D02*
X0065061Y0027173D01*
X0065061Y0025601D02*
X0067419Y0025601D01*
X0068205Y0026387D01*
X0067419Y0027173D01*
X0067419Y0025601D02*
X0068205Y0024815D01*
X0068205Y0024030D01*
X0065061Y0024030D01*
X0065061Y0022218D02*
X0065061Y0020646D01*
X0065061Y0021432D02*
X0068205Y0021432D01*
X0068205Y0020646D01*
X0069777Y0021432D02*
X0070563Y0021432D01*
X0069777Y0018049D02*
X0065061Y0018049D01*
X0065061Y0017263D02*
X0065061Y0018835D01*
X0065847Y0015331D02*
X0068991Y0015331D01*
X0069777Y0014545D01*
X0069777Y0012973D01*
X0068991Y0012187D01*
X0065847Y0012187D01*
X0065061Y0012973D01*
X0065061Y0014545D01*
X0065847Y0015331D01*
X0069777Y0017263D02*
X0069777Y0018049D01*
X0052456Y0052789D02*
X0053242Y0053575D01*
X0053242Y0055147D01*
X0052456Y0055933D01*
X0051670Y0055933D01*
X0050884Y0055147D01*
X0050098Y0055933D01*
X0049312Y0055933D01*
X0048526Y0055147D01*
X0050884Y0055147D02*
X0050884Y0054361D01*
X0044974Y0050918D02*
X0044974Y0049346D01*
X0044188Y0048560D01*
X0043402Y0048560D01*
X0042616Y0049346D01*
X0042616Y0050918D01*
X0041830Y0051704D01*
X0041044Y0051704D01*
X0040258Y0050918D01*
X0040258Y0049346D01*
X0041044Y0048560D01*
X0044188Y0051704D02*
X0044974Y0050918D01*
X0042616Y0041553D02*
X0040258Y0041553D01*
X0040258Y0038409D02*
X0043402Y0038409D01*
X0043402Y0040767D01*
X0042616Y0041553D01*
X0042616Y0036478D02*
X0040258Y0036478D01*
X0040258Y0034120D01*
X0041044Y0033334D01*
X0041830Y0034120D01*
X0041830Y0036478D01*
X0042616Y0036478D02*
X0043402Y0035692D01*
X0043402Y0034120D01*
X0043402Y0030737D02*
X0040258Y0030737D01*
X0040258Y0029951D02*
X0040258Y0031523D01*
X0043402Y0027293D02*
X0041830Y0025721D01*
X0041044Y0023790D02*
X0042616Y0023790D01*
X0043402Y0023004D01*
X0043402Y0021432D01*
X0042616Y0020646D01*
X0041044Y0020646D01*
X0040258Y0021432D01*
X0040258Y0023004D01*
X0041044Y0023790D01*
X0040258Y0025721D02*
X0043402Y0025721D01*
X0043402Y0027293D02*
X0043402Y0028079D01*
X0043402Y0029951D02*
X0043402Y0030737D01*
X0044974Y0030737D02*
X0045760Y0030737D01*
X0048526Y0035026D02*
X0048526Y0035812D01*
X0049312Y0035812D01*
X0049312Y0035026D01*
X0048526Y0035026D01*
X0044974Y0018049D02*
X0040258Y0018049D01*
X0040258Y0017263D02*
X0040258Y0018835D01*
X0042616Y0013759D02*
X0042616Y0012187D01*
X0040258Y0012187D02*
X0044974Y0012187D01*
X0044974Y0015331D01*
X0044974Y0017263D02*
X0044974Y0018049D01*
D11*
X0048787Y0077787D02*
X0059787Y0077787D01*
X0059847Y0077789D01*
X0059908Y0077794D01*
X0059967Y0077803D01*
X0060026Y0077816D01*
X0060085Y0077832D01*
X0060142Y0077852D01*
X0060197Y0077875D01*
X0060252Y0077902D01*
X0060304Y0077931D01*
X0060355Y0077964D01*
X0060404Y0078000D01*
X0060450Y0078038D01*
X0060494Y0078080D01*
X0060536Y0078124D01*
X0060574Y0078170D01*
X0060610Y0078219D01*
X0060643Y0078270D01*
X0060672Y0078322D01*
X0060699Y0078377D01*
X0060722Y0078432D01*
X0060742Y0078489D01*
X0060758Y0078548D01*
X0060771Y0078607D01*
X0060780Y0078666D01*
X0060785Y0078727D01*
X0060787Y0078787D01*
X0060787Y0084787D01*
X0060785Y0084847D01*
X0060780Y0084908D01*
X0060771Y0084967D01*
X0060758Y0085026D01*
X0060742Y0085085D01*
X0060722Y0085142D01*
X0060699Y0085197D01*
X0060672Y0085252D01*
X0060643Y0085304D01*
X0060610Y0085355D01*
X0060574Y0085404D01*
X0060536Y0085450D01*
X0060494Y0085494D01*
X0060450Y0085536D01*
X0060404Y0085574D01*
X0060355Y0085610D01*
X0060304Y0085643D01*
X0060252Y0085672D01*
X0060197Y0085699D01*
X0060142Y0085722D01*
X0060085Y0085742D01*
X0060026Y0085758D01*
X0059967Y0085771D01*
X0059908Y0085780D01*
X0059847Y0085785D01*
X0059787Y0085787D01*
X0048787Y0085787D01*
X0048727Y0085785D01*
X0048666Y0085780D01*
X0048607Y0085771D01*
X0048548Y0085758D01*
X0048489Y0085742D01*
X0048432Y0085722D01*
X0048377Y0085699D01*
X0048322Y0085672D01*
X0048270Y0085643D01*
X0048219Y0085610D01*
X0048170Y0085574D01*
X0048124Y0085536D01*
X0048080Y0085494D01*
X0048038Y0085450D01*
X0048000Y0085404D01*
X0047964Y0085355D01*
X0047931Y0085304D01*
X0047902Y0085252D01*
X0047875Y0085197D01*
X0047852Y0085142D01*
X0047832Y0085085D01*
X0047816Y0085026D01*
X0047803Y0084967D01*
X0047794Y0084908D01*
X0047789Y0084847D01*
X0047787Y0084787D01*
X0047787Y0078787D01*
X0047789Y0078727D01*
X0047794Y0078666D01*
X0047803Y0078607D01*
X0047816Y0078548D01*
X0047832Y0078489D01*
X0047852Y0078432D01*
X0047875Y0078377D01*
X0047902Y0078322D01*
X0047931Y0078270D01*
X0047964Y0078219D01*
X0048000Y0078170D01*
X0048038Y0078124D01*
X0048080Y0078080D01*
X0048124Y0078038D01*
X0048170Y0078000D01*
X0048219Y0077964D01*
X0048270Y0077931D01*
X0048322Y0077902D01*
X0048377Y0077875D01*
X0048432Y0077852D01*
X0048489Y0077832D01*
X0048548Y0077816D01*
X0048607Y0077803D01*
X0048666Y0077794D01*
X0048727Y0077789D01*
X0048787Y0077787D01*
X0033287Y0078787D02*
X0033287Y0084787D01*
X0033285Y0084847D01*
X0033280Y0084908D01*
X0033271Y0084967D01*
X0033258Y0085026D01*
X0033242Y0085085D01*
X0033222Y0085142D01*
X0033199Y0085197D01*
X0033172Y0085252D01*
X0033143Y0085304D01*
X0033110Y0085355D01*
X0033074Y0085404D01*
X0033036Y0085450D01*
X0032994Y0085494D01*
X0032950Y0085536D01*
X0032904Y0085574D01*
X0032855Y0085610D01*
X0032804Y0085643D01*
X0032752Y0085672D01*
X0032697Y0085699D01*
X0032642Y0085722D01*
X0032585Y0085742D01*
X0032526Y0085758D01*
X0032467Y0085771D01*
X0032408Y0085780D01*
X0032347Y0085785D01*
X0032287Y0085787D01*
X0021287Y0085787D01*
X0021227Y0085785D01*
X0021166Y0085780D01*
X0021107Y0085771D01*
X0021048Y0085758D01*
X0020989Y0085742D01*
X0020932Y0085722D01*
X0020877Y0085699D01*
X0020822Y0085672D01*
X0020770Y0085643D01*
X0020719Y0085610D01*
X0020670Y0085574D01*
X0020624Y0085536D01*
X0020580Y0085494D01*
X0020538Y0085450D01*
X0020500Y0085404D01*
X0020464Y0085355D01*
X0020431Y0085304D01*
X0020402Y0085252D01*
X0020375Y0085197D01*
X0020352Y0085142D01*
X0020332Y0085085D01*
X0020316Y0085026D01*
X0020303Y0084967D01*
X0020294Y0084908D01*
X0020289Y0084847D01*
X0020287Y0084787D01*
X0020287Y0078787D01*
X0020289Y0078727D01*
X0020294Y0078666D01*
X0020303Y0078607D01*
X0020316Y0078548D01*
X0020332Y0078489D01*
X0020352Y0078432D01*
X0020375Y0078377D01*
X0020402Y0078322D01*
X0020431Y0078270D01*
X0020464Y0078219D01*
X0020500Y0078170D01*
X0020538Y0078124D01*
X0020580Y0078080D01*
X0020624Y0078038D01*
X0020670Y0078000D01*
X0020719Y0077964D01*
X0020770Y0077931D01*
X0020822Y0077902D01*
X0020877Y0077875D01*
X0020932Y0077852D01*
X0020989Y0077832D01*
X0021048Y0077816D01*
X0021107Y0077803D01*
X0021166Y0077794D01*
X0021227Y0077789D01*
X0021287Y0077787D01*
X0032287Y0077787D01*
X0032347Y0077789D01*
X0032408Y0077794D01*
X0032467Y0077803D01*
X0032526Y0077816D01*
X0032585Y0077832D01*
X0032642Y0077852D01*
X0032697Y0077875D01*
X0032752Y0077902D01*
X0032804Y0077931D01*
X0032855Y0077964D01*
X0032904Y0078000D01*
X0032950Y0078038D01*
X0032994Y0078080D01*
X0033036Y0078124D01*
X0033074Y0078170D01*
X0033110Y0078219D01*
X0033143Y0078270D01*
X0033172Y0078322D01*
X0033199Y0078377D01*
X0033222Y0078432D01*
X0033242Y0078489D01*
X0033258Y0078548D01*
X0033271Y0078607D01*
X0033280Y0078666D01*
X0033285Y0078727D01*
X0033287Y0078787D01*
X0064587Y0107276D02*
X0067523Y0110211D01*
X0066789Y0110211D02*
X0067523Y0109477D01*
X0067523Y0108010D01*
X0066789Y0107276D01*
X0065321Y0107276D01*
X0064587Y0108010D01*
X0064587Y0109477D01*
X0065321Y0110211D01*
X0066789Y0110211D01*
X0067523Y0111880D02*
X0068991Y0113347D01*
X0064587Y0113347D01*
X0064587Y0111880D02*
X0064587Y0114815D01*
X0065321Y0116483D02*
X0064587Y0117217D01*
X0064587Y0118685D01*
X0065321Y0119419D01*
X0068257Y0119419D01*
X0065321Y0116483D01*
X0068257Y0116483D01*
X0068991Y0117217D01*
X0068991Y0118685D01*
X0068257Y0119419D01*
D12*
X0059787Y0091041D02*
X0058285Y0091041D01*
X0057535Y0090291D01*
X0057535Y0088789D02*
X0059036Y0088789D01*
X0057535Y0087288D02*
X0058285Y0086537D01*
X0059787Y0086537D01*
X0060537Y0087288D01*
X0060537Y0090291D01*
X0059787Y0091041D01*
X0057535Y0088789D02*
X0057535Y0087288D01*
X0055933Y0086537D02*
X0055933Y0091041D01*
X0053682Y0091041D01*
X0052931Y0090291D01*
X0052931Y0088789D01*
X0053682Y0088039D01*
X0055933Y0088039D01*
X0051330Y0086537D02*
X0049828Y0086537D01*
X0050579Y0086537D02*
X0050579Y0091041D01*
X0051330Y0091041D02*
X0049828Y0091041D01*
X0048260Y0090291D02*
X0048260Y0087288D01*
X0047510Y0086537D01*
X0046008Y0086537D01*
X0045258Y0087288D01*
X0045258Y0090291D01*
X0046008Y0091041D01*
X0047510Y0091041D01*
X0048260Y0090291D01*
X0043656Y0090291D02*
X0042906Y0091041D01*
X0041404Y0091041D01*
X0040654Y0090291D01*
X0040654Y0089540D01*
X0041404Y0088789D01*
X0040654Y0088039D01*
X0040654Y0087288D01*
X0041404Y0086537D01*
X0042906Y0086537D01*
X0043656Y0087288D01*
X0042155Y0088789D02*
X0041404Y0088789D01*
X0033037Y0087288D02*
X0032287Y0086537D01*
X0030785Y0086537D01*
X0030035Y0087288D01*
X0030035Y0088789D01*
X0031536Y0088789D01*
X0033037Y0087288D02*
X0033037Y0090291D01*
X0032287Y0091041D01*
X0030785Y0091041D01*
X0030035Y0090291D01*
X0028433Y0091041D02*
X0028433Y0086537D01*
X0028433Y0088039D02*
X0026182Y0088039D01*
X0025431Y0088789D01*
X0025431Y0090291D01*
X0026182Y0091041D01*
X0028433Y0091041D01*
X0023830Y0091041D02*
X0022328Y0091041D01*
X0023079Y0091041D02*
X0023079Y0086537D01*
X0023830Y0086537D02*
X0022328Y0086537D01*
X0020760Y0087288D02*
X0020760Y0090291D01*
X0020010Y0091041D01*
X0018508Y0091041D01*
X0017758Y0090291D01*
X0017758Y0087288D01*
X0018508Y0086537D01*
X0020010Y0086537D01*
X0020760Y0087288D01*
X0016156Y0086537D02*
X0013154Y0089540D01*
X0013154Y0090291D01*
X0013904Y0091041D01*
X0015406Y0091041D01*
X0016156Y0090291D01*
X0016156Y0086537D02*
X0013154Y0086537D01*
D13*
X0041787Y0115987D02*
X0061787Y0115987D01*
X0061787Y0120487D01*
X0051787Y0120487D01*
X0041787Y0120487D01*
X0041787Y0115987D01*
X0044287Y0122787D02*
X0044287Y0127787D01*
X0041787Y0125287D02*
X0046787Y0125287D01*
X0051787Y0124287D02*
X0051787Y0120487D01*
X0051787Y0111787D02*
X0051787Y0104287D01*
D14*
X0031787Y0114287D02*
X0031793Y0114778D01*
X0031811Y0115268D01*
X0031841Y0115758D01*
X0031883Y0116247D01*
X0031937Y0116735D01*
X0032003Y0117222D01*
X0032081Y0117706D01*
X0032171Y0118189D01*
X0032273Y0118669D01*
X0032386Y0119147D01*
X0032511Y0119621D01*
X0032648Y0120093D01*
X0032796Y0120561D01*
X0032956Y0121025D01*
X0033127Y0121485D01*
X0033309Y0121941D01*
X0033503Y0122392D01*
X0033707Y0122838D01*
X0033923Y0123279D01*
X0034149Y0123715D01*
X0034385Y0124145D01*
X0034632Y0124569D01*
X0034890Y0124987D01*
X0035158Y0125398D01*
X0035435Y0125803D01*
X0035723Y0126201D01*
X0036020Y0126592D01*
X0036327Y0126975D01*
X0036643Y0127350D01*
X0036968Y0127718D01*
X0037302Y0128078D01*
X0037645Y0128429D01*
X0037996Y0128772D01*
X0038356Y0129106D01*
X0038724Y0129431D01*
X0039099Y0129747D01*
X0039482Y0130054D01*
X0039873Y0130351D01*
X0040271Y0130639D01*
X0040676Y0130916D01*
X0041087Y0131184D01*
X0041505Y0131442D01*
X0041929Y0131689D01*
X0042359Y0131925D01*
X0042795Y0132151D01*
X0043236Y0132367D01*
X0043682Y0132571D01*
X0044133Y0132765D01*
X0044589Y0132947D01*
X0045049Y0133118D01*
X0045513Y0133278D01*
X0045981Y0133426D01*
X0046453Y0133563D01*
X0046927Y0133688D01*
X0047405Y0133801D01*
X0047885Y0133903D01*
X0048368Y0133993D01*
X0048852Y0134071D01*
X0049339Y0134137D01*
X0049827Y0134191D01*
X0050316Y0134233D01*
X0050806Y0134263D01*
X0051296Y0134281D01*
X0051787Y0134287D01*
X0052278Y0134281D01*
X0052768Y0134263D01*
X0053258Y0134233D01*
X0053747Y0134191D01*
X0054235Y0134137D01*
X0054722Y0134071D01*
X0055206Y0133993D01*
X0055689Y0133903D01*
X0056169Y0133801D01*
X0056647Y0133688D01*
X0057121Y0133563D01*
X0057593Y0133426D01*
X0058061Y0133278D01*
X0058525Y0133118D01*
X0058985Y0132947D01*
X0059441Y0132765D01*
X0059892Y0132571D01*
X0060338Y0132367D01*
X0060779Y0132151D01*
X0061215Y0131925D01*
X0061645Y0131689D01*
X0062069Y0131442D01*
X0062487Y0131184D01*
X0062898Y0130916D01*
X0063303Y0130639D01*
X0063701Y0130351D01*
X0064092Y0130054D01*
X0064475Y0129747D01*
X0064850Y0129431D01*
X0065218Y0129106D01*
X0065578Y0128772D01*
X0065929Y0128429D01*
X0066272Y0128078D01*
X0066606Y0127718D01*
X0066931Y0127350D01*
X0067247Y0126975D01*
X0067554Y0126592D01*
X0067851Y0126201D01*
X0068139Y0125803D01*
X0068416Y0125398D01*
X0068684Y0124987D01*
X0068942Y0124569D01*
X0069189Y0124145D01*
X0069425Y0123715D01*
X0069651Y0123279D01*
X0069867Y0122838D01*
X0070071Y0122392D01*
X0070265Y0121941D01*
X0070447Y0121485D01*
X0070618Y0121025D01*
X0070778Y0120561D01*
X0070926Y0120093D01*
X0071063Y0119621D01*
X0071188Y0119147D01*
X0071301Y0118669D01*
X0071403Y0118189D01*
X0071493Y0117706D01*
X0071571Y0117222D01*
X0071637Y0116735D01*
X0071691Y0116247D01*
X0071733Y0115758D01*
X0071763Y0115268D01*
X0071781Y0114778D01*
X0071787Y0114287D01*
X0071781Y0113796D01*
X0071763Y0113306D01*
X0071733Y0112816D01*
X0071691Y0112327D01*
X0071637Y0111839D01*
X0071571Y0111352D01*
X0071493Y0110868D01*
X0071403Y0110385D01*
X0071301Y0109905D01*
X0071188Y0109427D01*
X0071063Y0108953D01*
X0070926Y0108481D01*
X0070778Y0108013D01*
X0070618Y0107549D01*
X0070447Y0107089D01*
X0070265Y0106633D01*
X0070071Y0106182D01*
X0069867Y0105736D01*
X0069651Y0105295D01*
X0069425Y0104859D01*
X0069189Y0104429D01*
X0068942Y0104005D01*
X0068684Y0103587D01*
X0068416Y0103176D01*
X0068139Y0102771D01*
X0067851Y0102373D01*
X0067554Y0101982D01*
X0067247Y0101599D01*
X0066931Y0101224D01*
X0066606Y0100856D01*
X0066272Y0100496D01*
X0065929Y0100145D01*
X0065578Y0099802D01*
X0065218Y0099468D01*
X0064850Y0099143D01*
X0064475Y0098827D01*
X0064092Y0098520D01*
X0063701Y0098223D01*
X0063303Y0097935D01*
X0062898Y0097658D01*
X0062487Y0097390D01*
X0062069Y0097132D01*
X0061645Y0096885D01*
X0061215Y0096649D01*
X0060779Y0096423D01*
X0060338Y0096207D01*
X0059892Y0096003D01*
X0059441Y0095809D01*
X0058985Y0095627D01*
X0058525Y0095456D01*
X0058061Y0095296D01*
X0057593Y0095148D01*
X0057121Y0095011D01*
X0056647Y0094886D01*
X0056169Y0094773D01*
X0055689Y0094671D01*
X0055206Y0094581D01*
X0054722Y0094503D01*
X0054235Y0094437D01*
X0053747Y0094383D01*
X0053258Y0094341D01*
X0052768Y0094311D01*
X0052278Y0094293D01*
X0051787Y0094287D01*
X0051296Y0094293D01*
X0050806Y0094311D01*
X0050316Y0094341D01*
X0049827Y0094383D01*
X0049339Y0094437D01*
X0048852Y0094503D01*
X0048368Y0094581D01*
X0047885Y0094671D01*
X0047405Y0094773D01*
X0046927Y0094886D01*
X0046453Y0095011D01*
X0045981Y0095148D01*
X0045513Y0095296D01*
X0045049Y0095456D01*
X0044589Y0095627D01*
X0044133Y0095809D01*
X0043682Y0096003D01*
X0043236Y0096207D01*
X0042795Y0096423D01*
X0042359Y0096649D01*
X0041929Y0096885D01*
X0041505Y0097132D01*
X0041087Y0097390D01*
X0040676Y0097658D01*
X0040271Y0097935D01*
X0039873Y0098223D01*
X0039482Y0098520D01*
X0039099Y0098827D01*
X0038724Y0099143D01*
X0038356Y0099468D01*
X0037996Y0099802D01*
X0037645Y0100145D01*
X0037302Y0100496D01*
X0036968Y0100856D01*
X0036643Y0101224D01*
X0036327Y0101599D01*
X0036020Y0101982D01*
X0035723Y0102373D01*
X0035435Y0102771D01*
X0035158Y0103176D01*
X0034890Y0103587D01*
X0034632Y0104005D01*
X0034385Y0104429D01*
X0034149Y0104859D01*
X0033923Y0105295D01*
X0033707Y0105736D01*
X0033503Y0106182D01*
X0033309Y0106633D01*
X0033127Y0107089D01*
X0032956Y0107549D01*
X0032796Y0108013D01*
X0032648Y0108481D01*
X0032511Y0108953D01*
X0032386Y0109427D01*
X0032273Y0109905D01*
X0032171Y0110385D01*
X0032081Y0110868D01*
X0032003Y0111352D01*
X0031937Y0111839D01*
X0031883Y0112327D01*
X0031841Y0112816D01*
X0031811Y0113306D01*
X0031793Y0113796D01*
X0031787Y0114287D01*
D15*
X0028943Y0114799D02*
X0028943Y0112697D01*
X0027892Y0111646D01*
X0023688Y0111646D01*
X0022637Y0112697D01*
X0022637Y0114799D01*
X0023688Y0115850D01*
X0022637Y0118092D02*
X0022637Y0122295D01*
X0022637Y0120194D02*
X0028943Y0120194D01*
X0026841Y0118092D01*
X0027892Y0115850D02*
X0028943Y0114799D01*
D16*
X0051787Y0110487D03*
M02*
