%
M48
METRIC,000.000
T01C0.50
T02C0.90
T03C0.91
%
T01
X017519Y018694
X019424Y019964
X039519Y018694
X041424Y019964
X061519Y018694
X063424Y019964
X083519Y018694
X085424Y019964
X017519Y063694
X019424Y064964
X039519Y063694
X041424Y064964
X061519Y063694
X063424Y064964
X083519Y063694
X085424Y064964
T02
X018154Y029489
X018154Y034569
X040154Y029489
X040154Y034569
X062154Y029489
X062154Y034569
X084154Y029489
X084154Y034569
X018154Y074489
X018154Y079569
X040154Y074489
X040154Y079569
X062154Y074489
X062154Y079569
X084154Y074489
X084154Y079569
T03
X017519Y040284
X017519Y042824
X014979Y042824
X014979Y040284
X012439Y040284
X012439Y042824
X009899Y042824
X009899Y040284
X020059Y040284
X020059Y042824
X039519Y040284
X039519Y042824
X036979Y042824
X036979Y040284
X034439Y040284
X034439Y042824
X031899Y042824
X031899Y040284
X042059Y040284
X042059Y042824
X061519Y040284
X061519Y042824
X058979Y042824
X058979Y040284
X056439Y040284
X056439Y042824
X053899Y042824
X053899Y040284
X064059Y040284
X064059Y042824
X083519Y040284
X083519Y042824
X080979Y042824
X080979Y040284
X078439Y040284
X078439Y042824
X075899Y042824
X075899Y040284
X086059Y040284
X086059Y042824
X017519Y085284
X017519Y087824
X014979Y087824
X014979Y085284
X012439Y085284
X012439Y087824
X009899Y087824
X009899Y085284
X020059Y085284
X020059Y087824
X039519Y085284
X039519Y087824
X036979Y087824
X036979Y085284
X034439Y085284
X034439Y087824
X031899Y087824
X031899Y085284
X042059Y085284
X042059Y087824
X061519Y085284
X061519Y087824
X058979Y087824
X058979Y085284
X056439Y085284
X056439Y087824
X053899Y087824
X053899Y085284
X064059Y085284
X064059Y087824
X083519Y085284
X083519Y087824
X080979Y087824
X080979Y085284
X078439Y085284
X078439Y087824
X075899Y087824
X075899Y085284
X086059Y085284
X086059Y087824
M30