%MOIN*%
%OFA0B0*%
%FSLAX36Y36*%
%IPPOS*%
%LPD*%
%ADD10C,0*%
D10*
X002813145Y003282513D02*
X002813145Y003282513D01*
X002813145Y002189927D01*
X002813027Y002186887D01*
X002812675Y002183866D01*
X002812091Y002180880D01*
X002811278Y002177949D01*
X002810242Y002175089D01*
X002808987Y002172318D01*
X002807523Y002169652D01*
X002805856Y002167107D01*
X002803999Y002164698D01*
X002801961Y002162440D01*
X002799754Y002160345D01*
X002797393Y002158428D01*
X002794890Y002156698D01*
X002792262Y002155167D01*
X002789523Y002153844D01*
X002786690Y002152736D01*
X002783780Y002151849D01*
X002780810Y002151191D01*
X002777798Y002150763D01*
X002774762Y002150569D01*
X002737361Y002149631D01*
X002734220Y002149677D01*
X002731094Y002149974D01*
X002728001Y002150519D01*
X002724961Y002151309D01*
X002721994Y002152338D01*
X002719118Y002153601D01*
X002716352Y002155089D01*
X002713714Y002156793D01*
X002711220Y002158701D01*
X002708886Y002160803D01*
X002706726Y002163083D01*
X002704756Y002165529D01*
X002702987Y002168124D01*
X002701430Y002170851D01*
X002700095Y002173694D01*
X002698991Y002176635D01*
X002698126Y002179654D01*
X002697503Y002182732D01*
X002697128Y002185850D01*
X002697003Y002188988D01*
X002697003Y003283452D01*
X002697128Y003286590D01*
X002697503Y003289708D01*
X002698126Y003292786D01*
X002698991Y003295805D01*
X002700095Y003298746D01*
X002701430Y003301589D01*
X002702987Y003304316D01*
X002704756Y003306911D01*
X002706726Y003309357D01*
X002708886Y003311637D01*
X002711220Y003313739D01*
X002713714Y003315647D01*
X002716352Y003317351D01*
X002719118Y003318839D01*
X002721994Y003320102D01*
X002724961Y003321131D01*
X002728001Y003321921D01*
X002731094Y003322466D01*
X002734220Y003322763D01*
X002737361Y003322809D01*
X002774762Y003321871D01*
X002777798Y003321677D01*
X002780810Y003321249D01*
X002783780Y003320591D01*
X002786690Y003319704D01*
X002789523Y003318596D01*
X002792262Y003317273D01*
X002794890Y003315742D01*
X002797393Y003314012D01*
X002799754Y003312095D01*
X002801961Y003310000D01*
X002803999Y003307742D01*
X002805856Y003305333D01*
X002807523Y003302788D01*
X002808987Y003300122D01*
X002810242Y003297351D01*
X002811278Y003294491D01*
X002812091Y003291560D01*
X002812675Y003288574D01*
X002813027Y003285553D01*
X002813145Y003282513D01*
X002813145Y001785979D02*
X002813145Y001785979D01*
X002813145Y001717486D01*
X002813027Y001714446D01*
X002812675Y001711425D01*
X002812091Y001708439D01*
X002811278Y001705508D01*
X002810242Y001702648D01*
X002808987Y001699877D01*
X002807523Y001697211D01*
X002805856Y001694666D01*
X002803999Y001692257D01*
X002801961Y001689999D01*
X002799754Y001687904D01*
X002797393Y001685987D01*
X002794890Y001684257D01*
X002792262Y001682726D01*
X002789523Y001681403D01*
X002786690Y001680295D01*
X002783780Y001679408D01*
X002780810Y001678750D01*
X002777798Y001678322D01*
X002774762Y001678128D01*
X002737361Y001677190D01*
X002734220Y001677236D01*
X002731094Y001677533D01*
X002728001Y001678078D01*
X002724961Y001678868D01*
X002721994Y001679897D01*
X002719118Y001681160D01*
X002716352Y001682648D01*
X002713714Y001684352D01*
X002711220Y001686260D01*
X002708886Y001688362D01*
X002706726Y001690642D01*
X002704756Y001693088D01*
X002702987Y001695683D01*
X002701430Y001698410D01*
X002700095Y001701253D01*
X002698991Y001704194D01*
X002698126Y001707213D01*
X002697503Y001710291D01*
X002697128Y001713409D01*
X002697003Y001716547D01*
X002697003Y001785979D01*
X002421834Y001785979D01*
X002418548Y001786117D01*
X002415286Y001786528D01*
X002412069Y001787210D01*
X002408920Y001788158D01*
X002405861Y001789365D01*
X002402914Y001790824D01*
X002400099Y001792523D01*
X002397435Y001794451D01*
X002394942Y001796595D01*
X002392636Y001798940D01*
X002390534Y001801468D01*
X002388650Y001804164D01*
X002386998Y001807007D01*
X002385588Y001809978D01*
X002384432Y001813056D01*
X002383537Y001816220D01*
X002382908Y001819448D01*
X002382552Y001822717D01*
X002382469Y001826005D01*
X002382661Y001829287D01*
X002386975Y001872201D01*
X002387370Y001875068D01*
X002387975Y001877898D01*
X002388786Y001880676D01*
X002389799Y001883388D01*
X002391008Y001886017D01*
X002392407Y001888551D01*
X002393989Y001890975D01*
X002395744Y001893276D01*
X002397664Y001895442D01*
X002399737Y001897461D01*
X002401954Y001899322D01*
X002404301Y001901016D01*
X002406766Y001902532D01*
X002409336Y001903863D01*
X002411997Y001905002D01*
X002414734Y001905942D01*
X002417533Y001906679D01*
X002420378Y001907208D01*
X002423255Y001907527D01*
X002426147Y001907633D01*
X002697003Y001907633D01*
X002697003Y001984239D01*
X002697128Y001987377D01*
X002697503Y001990495D01*
X002698126Y001993574D01*
X002698991Y001996593D01*
X002700095Y001999533D01*
X002701430Y002002376D01*
X002702987Y002005104D01*
X002704756Y002007699D01*
X002706726Y002010144D01*
X002708886Y002012425D01*
X002711220Y002014526D01*
X002713714Y002016435D01*
X002716352Y002018138D01*
X002719118Y002019626D01*
X002721994Y002020889D01*
X002724961Y002021919D01*
X002728001Y002022709D01*
X002731094Y002023253D01*
X002734220Y002023550D01*
X002737361Y002023597D01*
X002774762Y002022658D01*
X002777798Y002022464D01*
X002780810Y002022037D01*
X002783780Y002021378D01*
X002786690Y002020492D01*
X002789523Y002019384D01*
X002792262Y002018060D01*
X002794890Y002016529D01*
X002797393Y002014799D01*
X002799754Y002012882D01*
X002801961Y002010788D01*
X002803999Y002008530D01*
X002805856Y002006121D01*
X002807523Y002003576D01*
X002808987Y002000909D01*
X002810242Y001998138D01*
X002811278Y001995278D01*
X002812091Y001992347D01*
X002812675Y001989362D01*
X002813027Y001986340D01*
X002813145Y001983300D01*
X002813145Y001907633D01*
X003046293Y001907633D01*
X003049185Y001907527D01*
X003052061Y001907208D01*
X003054907Y001906679D01*
X003057706Y001905942D01*
X003060443Y001905002D01*
X003063104Y001903863D01*
X003065674Y001902532D01*
X003068139Y001901016D01*
X003070486Y001899322D01*
X003072702Y001897461D01*
X003074776Y001895442D01*
X003076696Y001893276D01*
X003078451Y001890975D01*
X003080033Y001888551D01*
X003081432Y001886017D01*
X003082641Y001883388D01*
X003083654Y001880676D01*
X003084465Y001877898D01*
X003085070Y001875068D01*
X003085465Y001872201D01*
X003089779Y001829287D01*
X003089971Y001826005D01*
X003089888Y001822717D01*
X003089532Y001819448D01*
X003088903Y001816220D01*
X003088008Y001813056D01*
X003086852Y001809978D01*
X003085442Y001807007D01*
X003083790Y001804164D01*
X003081906Y001801468D01*
X003079804Y001798940D01*
X003077498Y001796595D01*
X003075005Y001794451D01*
X003072341Y001792523D01*
X003069526Y001790824D01*
X003066579Y001789365D01*
X003063520Y001788158D01*
X003060371Y001787210D01*
X003057154Y001786528D01*
X003053892Y001786117D01*
X003050606Y001785979D01*
X002813145Y001785979D01*
X001830861Y001716547D02*
X001830861Y001716547D01*
X001830861Y001785979D01*
X001516322Y001785979D01*
X001513036Y001786117D01*
X001509774Y001786528D01*
X001506557Y001787210D01*
X001503408Y001788158D01*
X001500349Y001789365D01*
X001497402Y001790824D01*
X001494587Y001792523D01*
X001491923Y001794451D01*
X001489430Y001796595D01*
X001487124Y001798940D01*
X001485022Y001801468D01*
X001483138Y001804164D01*
X001481486Y001807007D01*
X001480077Y001809978D01*
X001478920Y001813056D01*
X001478025Y001816220D01*
X001477397Y001819448D01*
X001477040Y001822717D01*
X001476957Y001826005D01*
X001477149Y001829287D01*
X001481463Y001872201D01*
X001481858Y001875068D01*
X001482463Y001877898D01*
X001483274Y001880676D01*
X001484287Y001883388D01*
X001485496Y001886017D01*
X001486895Y001888551D01*
X001488477Y001890975D01*
X001490232Y001893276D01*
X001492152Y001895442D01*
X001494226Y001897461D01*
X001496442Y001899322D01*
X001498789Y001901016D01*
X001501254Y001902532D01*
X001503824Y001903863D01*
X001506485Y001905002D01*
X001509222Y001905942D01*
X001512021Y001906679D01*
X001514867Y001907208D01*
X001517743Y001907527D01*
X001520636Y001907633D01*
X001830861Y001907633D01*
X001830861Y001984239D01*
X001830987Y001987377D01*
X001831362Y001990495D01*
X001831984Y001993574D01*
X001832850Y001996593D01*
X001833953Y001999533D01*
X001835288Y002002376D01*
X001836845Y002005104D01*
X001838614Y002007699D01*
X001840585Y002010144D01*
X001842744Y002012425D01*
X001845078Y002014526D01*
X001847572Y002016435D01*
X001850211Y002018138D01*
X001852977Y002019626D01*
X001855852Y002020889D01*
X001858819Y002021919D01*
X001861859Y002022709D01*
X001864952Y002023253D01*
X001868079Y002023550D01*
X001871219Y002023597D01*
X001908621Y002022658D01*
X001911656Y002022464D01*
X001914668Y002022037D01*
X001917638Y002021378D01*
X001920548Y002020492D01*
X001923381Y002019384D01*
X001926120Y002018060D01*
X001928748Y002016529D01*
X001931251Y002014799D01*
X001933612Y002012882D01*
X001935819Y002010788D01*
X001937857Y002008530D01*
X001939715Y002006121D01*
X001941381Y002003576D01*
X001942845Y002000909D01*
X001944100Y001998138D01*
X001945137Y001995278D01*
X001945950Y001992347D01*
X001946534Y001989362D01*
X001946886Y001986340D01*
X001947003Y001983300D01*
X001947003Y001907633D01*
X002219521Y001907633D01*
X002222413Y001907527D01*
X002225290Y001907208D01*
X002228135Y001906679D01*
X002230934Y001905942D01*
X002233671Y001905002D01*
X002236332Y001903863D01*
X002238902Y001902532D01*
X002241367Y001901016D01*
X002243714Y001899322D01*
X002245931Y001897461D01*
X002248004Y001895442D01*
X002249924Y001893276D01*
X002251680Y001890975D01*
X002253261Y001888551D01*
X002254660Y001886017D01*
X002255870Y001883388D01*
X002256883Y001880676D01*
X002257694Y001877898D01*
X002258298Y001875068D01*
X002258694Y001872201D01*
X002263007Y001829287D01*
X002263199Y001826005D01*
X002263117Y001822717D01*
X002262760Y001819448D01*
X002262132Y001816220D01*
X002261236Y001813056D01*
X002260080Y001809978D01*
X002258671Y001807007D01*
X002257018Y001804164D01*
X002255135Y001801468D01*
X002253033Y001798940D01*
X002250727Y001796595D01*
X002248233Y001794451D01*
X002245570Y001792523D01*
X002242754Y001790824D01*
X002239807Y001789365D01*
X002236748Y001788158D01*
X002233600Y001787210D01*
X002230383Y001786528D01*
X002227120Y001786117D01*
X002223835Y001785979D01*
X001947003Y001785979D01*
X001947003Y001717486D01*
X001946886Y001714446D01*
X001946534Y001711425D01*
X001945950Y001708439D01*
X001945137Y001705508D01*
X001944100Y001702648D01*
X001942845Y001699877D01*
X001941381Y001697211D01*
X001939715Y001694666D01*
X001937857Y001692257D01*
X001935819Y001689999D01*
X001933612Y001687904D01*
X001931251Y001685987D01*
X001928748Y001684257D01*
X001926120Y001682726D01*
X001923381Y001681403D01*
X001920548Y001680295D01*
X001917638Y001679408D01*
X001914668Y001678750D01*
X001911656Y001678322D01*
X001908621Y001678128D01*
X001871219Y001677190D01*
X001868079Y001677236D01*
X001864952Y001677533D01*
X001861859Y001678078D01*
X001858819Y001678868D01*
X001855852Y001679897D01*
X001852977Y001681160D01*
X001850211Y001682648D01*
X001847572Y001684352D01*
X001845078Y001686260D01*
X001842744Y001688362D01*
X001840585Y001690642D01*
X001838614Y001693088D01*
X001836845Y001695683D01*
X001835288Y001698410D01*
X001833953Y001701253D01*
X001832850Y001704194D01*
X001831984Y001707213D01*
X001831362Y001710291D01*
X001830987Y001713409D01*
X001830861Y001716547D01*
X000964720Y000456705D02*
X000964720Y000456705D01*
X000964720Y001511798D01*
X000964845Y001514936D01*
X000965220Y001518054D01*
X000965842Y001521133D01*
X000966708Y001524152D01*
X000967812Y001527092D01*
X000969146Y001529935D01*
X000970703Y001532663D01*
X000972472Y001535258D01*
X000974443Y001537703D01*
X000976602Y001539984D01*
X000978936Y001542085D01*
X000981431Y001543994D01*
X000984069Y001545698D01*
X000986835Y001547185D01*
X000989710Y001548448D01*
X000992678Y001549478D01*
X000995717Y001550268D01*
X000998810Y001550813D01*
X001001937Y001551109D01*
X001005077Y001551156D01*
X001042479Y001550217D01*
X001045515Y001550023D01*
X001048526Y001549596D01*
X001051496Y001548937D01*
X001054406Y001548051D01*
X001057239Y001546943D01*
X001059978Y001545619D01*
X001062607Y001544088D01*
X001065109Y001542359D01*
X001067471Y001540441D01*
X001069677Y001538347D01*
X001071715Y001536089D01*
X001073573Y001533680D01*
X001075239Y001531135D01*
X001076704Y001528469D01*
X001077958Y001525697D01*
X001078995Y001522837D01*
X001079808Y001519906D01*
X001080392Y001516921D01*
X001080744Y001513899D01*
X001080861Y001510859D01*
X001080861Y000457644D01*
X001080744Y000454604D01*
X001080392Y000451582D01*
X001079808Y000448597D01*
X001078995Y000445666D01*
X001077958Y000442806D01*
X001076704Y000440034D01*
X001075239Y000437368D01*
X001073573Y000434823D01*
X001071715Y000432414D01*
X001069677Y000430156D01*
X001067471Y000428062D01*
X001065109Y000426144D01*
X001062607Y000424415D01*
X001059978Y000422884D01*
X001057239Y000421560D01*
X001054406Y000420452D01*
X001051496Y000419566D01*
X001048526Y000418907D01*
X001045515Y000418480D01*
X001042479Y000418286D01*
X001005077Y000417347D01*
X001001937Y000417394D01*
X000998810Y000417690D01*
X000995717Y000418235D01*
X000992678Y000419025D01*
X000989710Y000420055D01*
X000986835Y000421317D01*
X000984069Y000422805D01*
X000981431Y000424509D01*
X000978936Y000426418D01*
X000976602Y000428519D01*
X000974443Y000430800D01*
X000972472Y000433245D01*
X000970703Y000435840D01*
X000969146Y000438568D01*
X000967812Y000441411D01*
X000966708Y000444351D01*
X000965842Y000447370D01*
X000965220Y000450449D01*
X000964845Y000453567D01*
X000964720Y000456705D01*
X000964720Y001716547D02*
X000964720Y001716547D01*
X000964720Y001785979D01*
X000650180Y001785979D01*
X000646895Y001786117D01*
X000643632Y001786528D01*
X000640415Y001787210D01*
X000637266Y001788158D01*
X000634208Y001789365D01*
X000631260Y001790824D01*
X000628445Y001792523D01*
X000625781Y001794451D01*
X000623288Y001796595D01*
X000620982Y001798940D01*
X000618880Y001801468D01*
X000616996Y001804164D01*
X000615344Y001807007D01*
X000613935Y001809978D01*
X000612779Y001813056D01*
X000611883Y001816220D01*
X000611255Y001819448D01*
X000610898Y001822717D01*
X000610815Y001826005D01*
X000611007Y001829287D01*
X000615321Y001872201D01*
X000615716Y001875068D01*
X000616321Y001877898D01*
X000617132Y001880676D01*
X000618145Y001883388D01*
X000619354Y001886017D01*
X000620754Y001888551D01*
X000622335Y001890975D01*
X000624091Y001893276D01*
X000626010Y001895442D01*
X000628084Y001897461D01*
X000630300Y001899322D01*
X000632647Y001901016D01*
X000635113Y001902532D01*
X000637683Y001903863D01*
X000640343Y001905002D01*
X000643081Y001905942D01*
X000645879Y001906679D01*
X000648725Y001907208D01*
X000651602Y001907527D01*
X000654494Y001907633D01*
X000964720Y001907633D01*
X000964720Y001984239D01*
X000964845Y001987377D01*
X000965220Y001990495D01*
X000965842Y001993574D01*
X000966708Y001996593D01*
X000967812Y001999533D01*
X000969146Y002002376D01*
X000970703Y002005104D01*
X000972472Y002007699D01*
X000974443Y002010144D01*
X000976602Y002012425D01*
X000978936Y002014526D01*
X000981431Y002016435D01*
X000984069Y002018138D01*
X000986835Y002019626D01*
X000989710Y002020889D01*
X000992678Y002021919D01*
X000995717Y002022709D01*
X000998810Y002023253D01*
X001001937Y002023550D01*
X001005077Y002023597D01*
X001042479Y002022658D01*
X001045515Y002022464D01*
X001048526Y002022037D01*
X001051496Y002021378D01*
X001054406Y002020492D01*
X001057239Y002019384D01*
X001059978Y002018060D01*
X001062607Y002016529D01*
X001065109Y002014799D01*
X001067471Y002012882D01*
X001069677Y002010788D01*
X001071715Y002008530D01*
X001073573Y002006121D01*
X001075239Y002003576D01*
X001076704Y002000909D01*
X001077958Y001998138D01*
X001078995Y001995278D01*
X001079808Y001992347D01*
X001080392Y001989362D01*
X001080744Y001986340D01*
X001080861Y001983300D01*
X001080861Y001907633D01*
X001314009Y001907633D01*
X001316901Y001907527D01*
X001319778Y001907208D01*
X001322623Y001906679D01*
X001325422Y001905942D01*
X001328160Y001905002D01*
X001330820Y001903863D01*
X001333390Y001902532D01*
X001335856Y001901016D01*
X001338203Y001899322D01*
X001340419Y001897461D01*
X001342493Y001895442D01*
X001344412Y001893276D01*
X001346168Y001890975D01*
X001347749Y001888551D01*
X001349149Y001886017D01*
X001350358Y001883388D01*
X001351371Y001880676D01*
X001352182Y001877898D01*
X001352787Y001875068D01*
X001353182Y001872201D01*
X001357495Y001829287D01*
X001357687Y001826005D01*
X001357605Y001822717D01*
X001357248Y001819448D01*
X001356620Y001816220D01*
X001355724Y001813056D01*
X001354568Y001809978D01*
X001353159Y001807007D01*
X001351507Y001804164D01*
X001349623Y001801468D01*
X001347521Y001798940D01*
X001345215Y001796595D01*
X001342721Y001794451D01*
X001340058Y001792523D01*
X001337243Y001790824D01*
X001334295Y001789365D01*
X001331237Y001788158D01*
X001328088Y001787210D01*
X001324871Y001786528D01*
X001321608Y001786117D01*
X001318323Y001785979D01*
X001080861Y001785979D01*
X001080861Y001717486D01*
X001080744Y001714446D01*
X001080392Y001711425D01*
X001079808Y001708439D01*
X001078995Y001705508D01*
X001077958Y001702648D01*
X001076704Y001699877D01*
X001075239Y001697211D01*
X001073573Y001694666D01*
X001071715Y001692257D01*
X001069677Y001689999D01*
X001067471Y001687904D01*
X001065109Y001685987D01*
X001062607Y001684257D01*
X001059978Y001682726D01*
X001057239Y001681403D01*
X001054406Y001680295D01*
X001051496Y001679408D01*
X001048526Y001678750D01*
X001045515Y001678322D01*
X001042479Y001678128D01*
X001005077Y001677190D01*
X001001937Y001677236D01*
X000998810Y001677533D01*
X000995717Y001678078D01*
X000992678Y001678868D01*
X000989710Y001679897D01*
X000986835Y001681160D01*
X000984069Y001682648D01*
X000981431Y001684352D01*
X000978936Y001686260D01*
X000976602Y001688362D01*
X000974443Y001690642D01*
X000972472Y001693088D01*
X000970703Y001695683D01*
X000969146Y001698410D01*
X000967812Y001701253D01*
X000966708Y001704194D01*
X000965842Y001707213D01*
X000965220Y001710291D01*
X000964845Y001713409D01*
X000964720Y001716547D01*
X001830861Y001511798D02*
X001830861Y001511798D01*
X001830987Y001514936D01*
X001831362Y001518054D01*
X001831984Y001521133D01*
X001832850Y001524152D01*
X001833953Y001527092D01*
X001835288Y001529935D01*
X001836845Y001532663D01*
X001838614Y001535258D01*
X001840585Y001537703D01*
X001842744Y001539984D01*
X001845078Y001542085D01*
X001847572Y001543994D01*
X001850211Y001545698D01*
X001852977Y001547185D01*
X001855852Y001548448D01*
X001858819Y001549478D01*
X001861859Y001550268D01*
X001864952Y001550813D01*
X001868079Y001551109D01*
X001871219Y001551156D01*
X001908621Y001550217D01*
X001911656Y001550023D01*
X001914668Y001549596D01*
X001917638Y001548937D01*
X001920548Y001548051D01*
X001923381Y001546943D01*
X001926120Y001545619D01*
X001928748Y001544088D01*
X001931251Y001542359D01*
X001933612Y001540441D01*
X001935819Y001538347D01*
X001937857Y001536089D01*
X001939715Y001533680D01*
X001941381Y001531135D01*
X001942845Y001528469D01*
X001944100Y001525697D01*
X001945137Y001522837D01*
X001945950Y001519906D01*
X001946534Y001516921D01*
X001946886Y001513899D01*
X001947003Y001510859D01*
X001947003Y000457644D01*
X001946886Y000454604D01*
X001946534Y000451582D01*
X001945950Y000448597D01*
X001945137Y000445666D01*
X001944100Y000442806D01*
X001942845Y000440034D01*
X001941381Y000437368D01*
X001939715Y000434823D01*
X001937857Y000432414D01*
X001935819Y000430156D01*
X001933612Y000428062D01*
X001931251Y000426144D01*
X001928748Y000424415D01*
X001926120Y000422884D01*
X001923381Y000421560D01*
X001920548Y000420452D01*
X001917638Y000419566D01*
X001914668Y000418907D01*
X001911656Y000418480D01*
X001908621Y000418286D01*
X001871219Y000417347D01*
X001868079Y000417394D01*
X001864952Y000417690D01*
X001861859Y000418235D01*
X001858819Y000419025D01*
X001855852Y000420055D01*
X001852977Y000421317D01*
X001850211Y000422805D01*
X001847572Y000424509D01*
X001845078Y000426418D01*
X001842744Y000428519D01*
X001840585Y000430800D01*
X001838614Y000433245D01*
X001836845Y000435840D01*
X001835288Y000438568D01*
X001833953Y000441411D01*
X001832850Y000444351D01*
X001831984Y000447370D01*
X001831362Y000450449D01*
X001830987Y000453567D01*
X001830861Y000456705D01*
X001830861Y001511798D01*
X002697003Y001511798D02*
X002697003Y001511798D01*
X002697128Y001514936D01*
X002697503Y001518054D01*
X002698126Y001521133D01*
X002698991Y001524152D01*
X002700095Y001527092D01*
X002701430Y001529935D01*
X002702987Y001532663D01*
X002704756Y001535258D01*
X002706726Y001537703D01*
X002708886Y001539984D01*
X002711220Y001542085D01*
X002713714Y001543994D01*
X002716352Y001545698D01*
X002719118Y001547185D01*
X002721994Y001548448D01*
X002724961Y001549478D01*
X002728001Y001550268D01*
X002731094Y001550813D01*
X002734220Y001551109D01*
X002737361Y001551156D01*
X002774762Y001550217D01*
X002777798Y001550023D01*
X002780810Y001549596D01*
X002783780Y001548937D01*
X002786690Y001548051D01*
X002789523Y001546943D01*
X002792262Y001545619D01*
X002794890Y001544088D01*
X002797393Y001542359D01*
X002799754Y001540441D01*
X002801961Y001538347D01*
X002803999Y001536089D01*
X002805856Y001533680D01*
X002807523Y001531135D01*
X002808987Y001528469D01*
X002810242Y001525697D01*
X002811278Y001522837D01*
X002812091Y001519906D01*
X002812675Y001516921D01*
X002813027Y001513899D01*
X002813145Y001510859D01*
X002813145Y000457644D01*
X002813027Y000454604D01*
X002812675Y000451582D01*
X002812091Y000448597D01*
X002811278Y000445666D01*
X002810242Y000442806D01*
X002808987Y000440034D01*
X002807523Y000437368D01*
X002805856Y000434823D01*
X002803999Y000432414D01*
X002801961Y000430156D01*
X002799754Y000428062D01*
X002797393Y000426144D01*
X002794890Y000424415D01*
X002792262Y000422884D01*
X002789523Y000421560D01*
X002786690Y000420452D01*
X002783780Y000419566D01*
X002780810Y000418907D01*
X002777798Y000418480D01*
X002774762Y000418286D01*
X002737361Y000417347D01*
X002734220Y000417394D01*
X002731094Y000417690D01*
X002728001Y000418235D01*
X002724961Y000419025D01*
X002721994Y000420055D01*
X002719118Y000421317D01*
X002716352Y000422805D01*
X002713714Y000424509D01*
X002711220Y000426418D01*
X002708886Y000428519D01*
X002706726Y000430800D01*
X002704756Y000433245D01*
X002702987Y000435840D01*
X002701430Y000438568D01*
X002700095Y000441411D01*
X002698991Y000444351D01*
X002698126Y000447370D01*
X002697503Y000450449D01*
X002697128Y000453567D01*
X002697003Y000456705D01*
X002697003Y001511798D01*
X001080861Y002189927D02*
X001080861Y002189927D01*
X001080744Y002186887D01*
X001080392Y002183866D01*
X001079808Y002180880D01*
X001078995Y002177949D01*
X001077958Y002175089D01*
X001076704Y002172318D01*
X001075239Y002169652D01*
X001073573Y002167107D01*
X001071715Y002164698D01*
X001069677Y002162440D01*
X001067471Y002160345D01*
X001065109Y002158428D01*
X001062607Y002156698D01*
X001059978Y002155167D01*
X001057239Y002153844D01*
X001054406Y002152736D01*
X001051496Y002151849D01*
X001048526Y002151191D01*
X001045515Y002150763D01*
X001042479Y002150569D01*
X001005077Y002149631D01*
X001001937Y002149677D01*
X000998810Y002149974D01*
X000995717Y002150519D01*
X000992678Y002151309D01*
X000989710Y002152338D01*
X000986835Y002153601D01*
X000984069Y002155089D01*
X000981431Y002156793D01*
X000978936Y002158701D01*
X000976602Y002160803D01*
X000974443Y002163083D01*
X000972472Y002165529D01*
X000970703Y002168124D01*
X000969146Y002170851D01*
X000967812Y002173694D01*
X000966708Y002176635D01*
X000965842Y002179654D01*
X000965220Y002182732D01*
X000964845Y002185850D01*
X000964720Y002188988D01*
X000964720Y003283452D01*
X000964845Y003286590D01*
X000965220Y003289708D01*
X000965842Y003292786D01*
X000966708Y003295805D01*
X000967812Y003298746D01*
X000969146Y003301589D01*
X000970703Y003304316D01*
X000972472Y003306911D01*
X000974443Y003309357D01*
X000976602Y003311637D01*
X000978936Y003313739D01*
X000981431Y003315647D01*
X000984069Y003317351D01*
X000986835Y003318839D01*
X000989710Y003320102D01*
X000992678Y003321131D01*
X000995717Y003321921D01*
X000998810Y003322466D01*
X001001937Y003322763D01*
X001005077Y003322809D01*
X001042479Y003321871D01*
X001045515Y003321677D01*
X001048526Y003321249D01*
X001051496Y003320591D01*
X001054406Y003319704D01*
X001057239Y003318596D01*
X001059978Y003317273D01*
X001062607Y003315742D01*
X001065109Y003314012D01*
X001067471Y003312095D01*
X001069677Y003310000D01*
X001071715Y003307742D01*
X001073573Y003305333D01*
X001075239Y003302788D01*
X001076704Y003300122D01*
X001077958Y003297351D01*
X001078995Y003294491D01*
X001079808Y003291560D01*
X001080392Y003288574D01*
X001080744Y003285553D01*
X001080861Y003282513D01*
X001080861Y002189927D01*
X001947003Y002189927D02*
X001947003Y002189927D01*
X001946886Y002186887D01*
X001946534Y002183866D01*
X001945950Y002180880D01*
X001945137Y002177949D01*
X001944100Y002175089D01*
X001942845Y002172318D01*
X001941381Y002169652D01*
X001939715Y002167107D01*
X001937857Y002164698D01*
X001935819Y002162440D01*
X001933612Y002160345D01*
X001931251Y002158428D01*
X001928748Y002156698D01*
X001926120Y002155167D01*
X001923381Y002153844D01*
X001920548Y002152736D01*
X001917638Y002151849D01*
X001914668Y002151191D01*
X001911656Y002150763D01*
X001908621Y002150569D01*
X001871219Y002149631D01*
X001868079Y002149677D01*
X001864952Y002149974D01*
X001861859Y002150519D01*
X001858819Y002151309D01*
X001855852Y002152338D01*
X001852977Y002153601D01*
X001850211Y002155089D01*
X001847572Y002156793D01*
X001845078Y002158701D01*
X001842744Y002160803D01*
X001840585Y002163083D01*
X001838614Y002165529D01*
X001836845Y002168124D01*
X001835288Y002170851D01*
X001833953Y002173694D01*
X001832850Y002176635D01*
X001831984Y002179654D01*
X001831362Y002182732D01*
X001830987Y002185850D01*
X001830861Y002188988D01*
X001830861Y003283452D01*
X001830987Y003286590D01*
X001831362Y003289708D01*
X001831984Y003292786D01*
X001832850Y003295805D01*
X001833953Y003298746D01*
X001835288Y003301589D01*
X001836845Y003304316D01*
X001838614Y003306911D01*
X001840585Y003309357D01*
X001842744Y003311637D01*
X001845078Y003313739D01*
X001847572Y003315647D01*
X001850211Y003317351D01*
X001852977Y003318839D01*
X001855852Y003320102D01*
X001858819Y003321131D01*
X001861859Y003321921D01*
X001864952Y003322466D01*
X001868079Y003322763D01*
X001871219Y003322809D01*
X001908621Y003321871D01*
X001911656Y003321677D01*
X001914668Y003321249D01*
X001917638Y003320591D01*
X001920548Y003319704D01*
X001923381Y003318596D01*
X001926120Y003317273D01*
X001928748Y003315742D01*
X001931251Y003314012D01*
X001933612Y003312095D01*
X001935819Y003310000D01*
X001937857Y003307742D01*
X001939715Y003305333D01*
X001941381Y003302788D01*
X001942845Y003300122D01*
X001944100Y003297351D01*
X001945137Y003294491D01*
X001945950Y003291560D01*
X001946534Y003288574D01*
X001946886Y003285553D01*
X001947003Y003282513D01*
X001947003Y002189927D01*
X002813145Y003489140D02*
X002813145Y003489140D01*
X002813027Y003486100D01*
X002812675Y003483078D01*
X002812091Y003480093D01*
X002811278Y003477162D01*
X002810242Y003474302D01*
X002808987Y003471530D01*
X002807523Y003468864D01*
X002805856Y003466319D01*
X002803999Y003463910D01*
X002801961Y003461652D01*
X002799754Y003459558D01*
X002797393Y003457640D01*
X002794890Y003455911D01*
X002792262Y003454380D01*
X002789523Y003453056D01*
X002786690Y003451948D01*
X002783780Y003451062D01*
X002780810Y003450403D01*
X002777798Y003449976D01*
X002774762Y003449782D01*
X002737361Y003448843D01*
X002734220Y003448890D01*
X002731094Y003449186D01*
X002728001Y003449731D01*
X002724961Y003450521D01*
X002721994Y003451551D01*
X002719118Y003452814D01*
X002716352Y003454301D01*
X002713714Y003456005D01*
X002711220Y003457914D01*
X002708886Y003460015D01*
X002706726Y003462296D01*
X002704756Y003464741D01*
X002702987Y003467336D01*
X002701430Y003470064D01*
X002700095Y003472907D01*
X002698991Y003475847D01*
X002698126Y003478866D01*
X002697503Y003481945D01*
X002697128Y003485063D01*
X002697003Y003488201D01*
X002697003Y003557633D01*
X001947003Y003557633D01*
X001947003Y003489140D01*
X001946886Y003486100D01*
X001946534Y003483078D01*
X001945950Y003480093D01*
X001945137Y003477162D01*
X001944100Y003474302D01*
X001942845Y003471530D01*
X001941381Y003468864D01*
X001939715Y003466319D01*
X001937857Y003463910D01*
X001935819Y003461652D01*
X001933612Y003459558D01*
X001931251Y003457640D01*
X001928748Y003455911D01*
X001926120Y003454380D01*
X001923381Y003453056D01*
X001920548Y003451948D01*
X001917638Y003451062D01*
X001914668Y003450403D01*
X001911656Y003449976D01*
X001908621Y003449782D01*
X001871219Y003448843D01*
X001868079Y003448890D01*
X001864952Y003449186D01*
X001861859Y003449731D01*
X001858819Y003450521D01*
X001855852Y003451551D01*
X001852977Y003452814D01*
X001850211Y003454301D01*
X001847572Y003456005D01*
X001845078Y003457914D01*
X001842744Y003460015D01*
X001840585Y003462296D01*
X001838614Y003464741D01*
X001836845Y003467336D01*
X001835288Y003470064D01*
X001833953Y003472907D01*
X001832850Y003475847D01*
X001831984Y003478866D01*
X001831362Y003481945D01*
X001830987Y003485063D01*
X001830861Y003488201D01*
X001830861Y003557633D01*
X001080861Y003557633D01*
X001080861Y003489140D01*
X001080744Y003486100D01*
X001080392Y003483078D01*
X001079808Y003480093D01*
X001078995Y003477162D01*
X001077958Y003474302D01*
X001076704Y003471530D01*
X001075239Y003468864D01*
X001073573Y003466319D01*
X001071715Y003463910D01*
X001069677Y003461652D01*
X001067471Y003459558D01*
X001065109Y003457640D01*
X001062607Y003455911D01*
X001059978Y003454380D01*
X001057239Y003453056D01*
X001054406Y003451948D01*
X001051496Y003451062D01*
X001048526Y003450403D01*
X001045515Y003449976D01*
X001042479Y003449782D01*
X001005077Y003448843D01*
X001001937Y003448890D01*
X000998810Y003449186D01*
X000995717Y003449731D01*
X000992678Y003450521D01*
X000989710Y003451551D01*
X000986835Y003452814D01*
X000984069Y003454301D01*
X000981431Y003456005D01*
X000978936Y003457914D01*
X000976602Y003460015D01*
X000974443Y003462296D01*
X000972472Y003464741D01*
X000970703Y003467336D01*
X000969146Y003470064D01*
X000967812Y003472907D01*
X000966708Y003475847D01*
X000965842Y003478866D01*
X000965220Y003481945D01*
X000964845Y003485063D01*
X000964720Y003488201D01*
X000964720Y003557633D01*
X000214720Y003557633D01*
X000214720Y001907633D01*
X000447867Y001907633D01*
X000450760Y001907527D01*
X000453636Y001907208D01*
X000456482Y001906679D01*
X000459281Y001905942D01*
X000462018Y001905002D01*
X000464679Y001903863D01*
X000467249Y001902532D01*
X000469714Y001901016D01*
X000472061Y001899322D01*
X000474277Y001897461D01*
X000476351Y001895442D01*
X000478271Y001893276D01*
X000480026Y001890975D01*
X000481608Y001888551D01*
X000483007Y001886017D01*
X000484216Y001883388D01*
X000485229Y001880676D01*
X000486040Y001877898D01*
X000486645Y001875068D01*
X000487040Y001872201D01*
X000491354Y001829287D01*
X000491546Y001826005D01*
X000491463Y001822717D01*
X000491106Y001819448D01*
X000490478Y001816220D01*
X000489583Y001813056D01*
X000488426Y001809978D01*
X000487017Y001807007D01*
X000485365Y001804164D01*
X000483481Y001801468D01*
X000481379Y001798940D01*
X000479073Y001796595D01*
X000476580Y001794451D01*
X000473916Y001792523D01*
X000471101Y001790824D01*
X000468154Y001789365D01*
X000465095Y001788158D01*
X000461946Y001787210D01*
X000458729Y001786528D01*
X000455467Y001786117D01*
X000452181Y001785979D01*
X000214720Y001785979D01*
X000214720Y000135979D01*
X000964720Y000135979D01*
X000964720Y000251955D01*
X000964845Y000255094D01*
X000965220Y000258212D01*
X000965842Y000261290D01*
X000966708Y000264309D01*
X000967812Y000267250D01*
X000969146Y000270093D01*
X000970703Y000272820D01*
X000972472Y000275415D01*
X000974443Y000277861D01*
X000976602Y000280141D01*
X000978936Y000282243D01*
X000981431Y000284151D01*
X000984069Y000285855D01*
X000986835Y000287343D01*
X000989710Y000288606D01*
X000992678Y000289635D01*
X000995717Y000290425D01*
X000998810Y000290970D01*
X001001937Y000291267D01*
X001005077Y000291313D01*
X001042479Y000290375D01*
X001045515Y000290181D01*
X001048526Y000289753D01*
X001051496Y000289094D01*
X001054406Y000288208D01*
X001057239Y000287100D01*
X001059978Y000285777D01*
X001062607Y000284246D01*
X001065109Y000282516D01*
X001067471Y000280598D01*
X001069677Y000278504D01*
X001071715Y000276246D01*
X001073573Y000273837D01*
X001075239Y000271292D01*
X001076704Y000268626D01*
X001077958Y000265855D01*
X001078995Y000262995D01*
X001079808Y000260064D01*
X001080392Y000257078D01*
X001080744Y000254057D01*
X001080861Y000251017D01*
X001080861Y000135979D01*
X001830861Y000135979D01*
X001830861Y000251955D01*
X001830987Y000255094D01*
X001831362Y000258212D01*
X001831984Y000261290D01*
X001832850Y000264309D01*
X001833953Y000267250D01*
X001835288Y000270093D01*
X001836845Y000272820D01*
X001838614Y000275415D01*
X001840585Y000277861D01*
X001842744Y000280141D01*
X001845078Y000282243D01*
X001847572Y000284151D01*
X001850211Y000285855D01*
X001852977Y000287343D01*
X001855852Y000288606D01*
X001858819Y000289635D01*
X001861859Y000290425D01*
X001864952Y000290970D01*
X001868079Y000291267D01*
X001871219Y000291313D01*
X001908621Y000290375D01*
X001911656Y000290181D01*
X001914668Y000289753D01*
X001917638Y000289094D01*
X001920548Y000288208D01*
X001923381Y000287100D01*
X001926120Y000285777D01*
X001928748Y000284246D01*
X001931251Y000282516D01*
X001933612Y000280598D01*
X001935819Y000278504D01*
X001937857Y000276246D01*
X001939715Y000273837D01*
X001941381Y000271292D01*
X001942845Y000268626D01*
X001944100Y000265855D01*
X001945137Y000262995D01*
X001945950Y000260064D01*
X001946534Y000257078D01*
X001946886Y000254057D01*
X001947003Y000251017D01*
X001947003Y000135979D01*
X002697003Y000135979D01*
X002697003Y000251955D01*
X002697128Y000255094D01*
X002697503Y000258212D01*
X002698126Y000261290D01*
X002698991Y000264309D01*
X002700095Y000267250D01*
X002701430Y000270093D01*
X002702987Y000272820D01*
X002704756Y000275415D01*
X002706726Y000277861D01*
X002708886Y000280141D01*
X002711220Y000282243D01*
X002713714Y000284151D01*
X002716352Y000285855D01*
X002719118Y000287343D01*
X002721994Y000288606D01*
X002724961Y000289635D01*
X002728001Y000290425D01*
X002731094Y000290970D01*
X002734220Y000291267D01*
X002737361Y000291313D01*
X002774762Y000290375D01*
X002777798Y000290181D01*
X002780810Y000289753D01*
X002783780Y000289094D01*
X002786690Y000288208D01*
X002789523Y000287100D01*
X002792262Y000285777D01*
X002794890Y000284246D01*
X002797393Y000282516D01*
X002799754Y000280598D01*
X002801961Y000278504D01*
X002803999Y000276246D01*
X002805856Y000273837D01*
X002807523Y000271292D01*
X002808987Y000268626D01*
X002810242Y000265855D01*
X002811278Y000262995D01*
X002812091Y000260064D01*
X002812675Y000257078D01*
X002813027Y000254057D01*
X002813145Y000251017D01*
X002813145Y000135979D01*
X003563145Y000135979D01*
X003563145Y001785979D01*
X003248605Y001785979D01*
X003245320Y001786117D01*
X003242057Y001786528D01*
X003238840Y001787210D01*
X003235692Y001788158D01*
X003232633Y001789365D01*
X003229686Y001790824D01*
X003226870Y001792523D01*
X003224207Y001794451D01*
X003221713Y001796595D01*
X003219407Y001798940D01*
X003217305Y001801468D01*
X003215422Y001804164D01*
X003213769Y001807007D01*
X003212360Y001809978D01*
X003211204Y001813056D01*
X003210308Y001816220D01*
X003209680Y001819448D01*
X003209323Y001822717D01*
X003209241Y001826005D01*
X003209433Y001829287D01*
X003213746Y001872201D01*
X003214142Y001875068D01*
X003214746Y001877898D01*
X003215557Y001880676D01*
X003216570Y001883388D01*
X003217780Y001886017D01*
X003219179Y001888551D01*
X003220760Y001890975D01*
X003222516Y001893276D01*
X003224435Y001895442D01*
X003226509Y001897461D01*
X003228725Y001899322D01*
X003231073Y001901016D01*
X003233538Y001902532D01*
X003236108Y001903863D01*
X003238768Y001905002D01*
X003241506Y001905942D01*
X003244305Y001906679D01*
X003247150Y001907208D01*
X003250027Y001907527D01*
X003252919Y001907633D01*
X003563145Y001907633D01*
X003563145Y003557633D01*
X002813145Y003557633D01*
X002813145Y003489140D01*
M02*