%
M48
METRIC,000.000
T01C0.50
%
T01
X068753Y084061
X068753Y085061
X068753Y086061
X068753Y087061
X068753Y088061
X071203Y088501
X071203Y087501
X071203Y086501
X071203Y085501
X071203Y084501
X071203Y083501
X068753Y051061
X068753Y052061
X068753Y053061
X068753Y054061
X068753Y055061
X071203Y055501
X071203Y054501
X071203Y053501
X071203Y052501
X071203Y051501
X071203Y050501
X046753Y051061
X046753Y052061
X046753Y053061
X046753Y054061
X046753Y055061
X049203Y055501
X049203Y054501
X049203Y053501
X049203Y052501
X049203Y051501
X049203Y050501
X024753Y051061
X024753Y052061
X024753Y053061
X024753Y054061
X024753Y055061
X027203Y055501
X027203Y054501
X027203Y053501
X027203Y052501
X027203Y051501
X027203Y050501
X024753Y084061
X024753Y085061
X024753Y086061
X024753Y087061
X024753Y088061
X027203Y088501
X027203Y087501
X027203Y086501
X027203Y085501
X027203Y084501
X027203Y083501
X046753Y084061
X046753Y085061
X046753Y086061
X046753Y087061
X046753Y088061
X049203Y088501
X049203Y087501
X049203Y086501
X049203Y085501
X049203Y084501
X049203Y083501
X068753Y039061
X068753Y040061
X068753Y041061
X068753Y042061
X068753Y043061
X071203Y043501
X071203Y042501
X071203Y041501
X071203Y040501
X071203Y039501
X071203Y038501
X046753Y039061
X046753Y040061
X046753Y041061
X046753Y042061
X046753Y043061
X049203Y043501
X049203Y042501
X049203Y041501
X049203Y040501
X049203Y039501
X049203Y038501
X024753Y039061
X024753Y040061
X024753Y041061
X024753Y042061
X024753Y043061
X027203Y043501
X027203Y042501
X027203Y041501
X027203Y040501
X027203Y039501
X027203Y038501
X068753Y007061
X068753Y008061
X068753Y009061
X068753Y010061
X068753Y011061
X071203Y011501
X071203Y010501
X071203Y009501
X071203Y008501
X071203Y007501
X071203Y006501
X046753Y007061
X046753Y008061
X046753Y009061
X046753Y010061
X046753Y011061
X049203Y011501
X049203Y010501
X049203Y009501
X049203Y008501
X049203Y007501
X049203Y006501
X024753Y007061
X024753Y008061
X024753Y009061
X024753Y010061
X024753Y011061
X027203Y011501
X027203Y010501
X027203Y009501
X027203Y008501
X027203Y007501
X027203Y006501
X082199Y045613
X081199Y045613
X080199Y045613
X079199Y045613
X078199Y045613
X078013Y048203
X079013Y048203
X080013Y048203
X081013Y048203
X082013Y048203
X061199Y045613
X060199Y045613
X059199Y045613
X058199Y045613
X057199Y045613
X057013Y048203
X058013Y048203
X059013Y048203
X060013Y048203
X061013Y048203
X038199Y045613
X037199Y045613
X036199Y045613
X035199Y045613
X034199Y045613
X034013Y048203
X035013Y048203
X036013Y048203
X037013Y048203
X038013Y048203
X016199Y045613
X015199Y045613
X014199Y045613
X013199Y045613
X012199Y045613
X012013Y048203
X013013Y048203
X014013Y048203
X015013Y048203
X016013Y048203
M30