%MOIN*%
%OFA0B0*%
%FSLAX25Y25*%
%IPPOS*%
%LPD*%
%AMOC8*
5,1,8,0,0,$1,22.5*%
%AMCOMP65*
4,1,7,
-0.013254807051444783,0.031999934950236529,
0.013254807051444779,0.031999934950236529,
0.031999934950236529,0.013254807051444786,
0.031999934950236529,-0.013254807051444779,
0.013254807051444788,-0.031999934950236529,
-0.013254807051444778,-0.031999934950236536,
-0.031999934950236522,-0.01325480705144479,
-0.031999934950236536,0.013254807051444778,
0*%
%AMOC80*
5,1,8,0,0,$1,22.5*%
%AMCOMP690*
4,1,7,
-0.013254807051444783,0.031999934950236529,
0.013254807051444779,0.031999934950236529,
0.031999934950236529,0.013254807051444786,
0.031999934950236529,-0.013254807051444779,
0.013254807051444788,-0.031999934950236529,
-0.013254807051444778,-0.031999934950236536,
-0.031999934950236522,-0.01325480705144479,
-0.031999934950236536,0.013254807051444778,
0*%
%AMOC81*
5,1,8,0,0,$1,22.5*%
%AMCOMP730*
4,1,7,
-0.013254807051444783,0.031999934950236529,
0.013254807051444779,0.031999934950236529,
0.031999934950236529,0.013254807051444786,
0.031999934950236529,-0.013254807051444779,
0.013254807051444788,-0.031999934950236529,
-0.013254807051444778,-0.031999934950236536,
-0.031999934950236522,-0.01325480705144479,
-0.031999934950236536,0.013254807051444778,
0*%
%AMOC80*
5,1,8,0,0,$1,22.5*%
%AMCOMP770*
4,1,7,
-0.013254807051444783,0.031999934950236529,
0.013254807051444779,0.031999934950236529,
0.031999934950236529,0.013254807051444786,
0.031999934950236529,-0.013254807051444779,
0.013254807051444788,-0.031999934950236529,
-0.013254807051444778,-0.031999934950236536,
-0.031999934950236522,-0.01325480705144479,
-0.031999934950236536,0.013254807051444778,
0*%
%AMOC81*
5,1,8,0,0,$1,22.5*%
%AMCOMP810*
4,1,7,
-0.013254807051444783,0.031999934950236529,
0.013254807051444779,0.031999934950236529,
0.031999934950236529,0.013254807051444786,
0.031999934950236529,-0.013254807051444779,
0.013254807051444788,-0.031999934950236529,
-0.013254807051444778,-0.031999934950236536,
-0.031999934950236522,-0.01325480705144479,
-0.031999934950236536,0.013254807051444778,
0*%
%AMOC80*
5,1,8,0,0,$1,22.5*%
%AMCOMP850*
4,1,7,
-0.013254807051444783,0.031999934950236529,
0.013254807051444779,0.031999934950236529,
0.031999934950236529,0.013254807051444786,
0.031999934950236529,-0.013254807051444779,
0.013254807051444788,-0.031999934950236529,
-0.013254807051444778,-0.031999934950236536,
-0.031999934950236522,-0.01325480705144479,
-0.031999934950236536,0.013254807051444778,
0*%
%AMOC81*
5,1,8,0,0,$1,22.5*%
%AMCOMP890*
4,1,7,
-0.013254807051444783,0.031999934950236529,
0.013254807051444779,0.031999934950236529,
0.031999934950236529,0.013254807051444786,
0.031999934950236529,-0.013254807051444779,
0.013254807051444788,-0.031999934950236529,
-0.013254807051444778,-0.031999934950236536,
-0.031999934950236522,-0.01325480705144479,
-0.031999934950236536,0.013254807051444778,
0*%
%AMOC80*
5,1,8,0,0,$1,22.5*%
%AMCOMP930*
4,1,7,
-0.013254807051444783,0.031999934950236529,
0.013254807051444779,0.031999934950236529,
0.031999934950236529,0.013254807051444786,
0.031999934950236529,-0.013254807051444779,
0.013254807051444788,-0.031999934950236529,
-0.013254807051444778,-0.031999934950236536,
-0.031999934950236522,-0.01325480705144479,
-0.031999934950236536,0.013254807051444778,
0*%
%ADD10R,0.054X0.071*%
%ADD11R,0.006000000000000001X0.072*%
%AMCOMP97*
4,1,7,
-0.013254807051444783,0.031999934950236529,
0.013254807051444779,0.031999934950236529,
0.031999934950236529,0.013254807051444786,
0.031999934950236529,-0.013254807051444779,
0.013254807051444788,-0.031999934950236529,
-0.013254807051444778,-0.031999934950236536,
-0.031999934950236522,-0.01325480705144479,
-0.031999934950236536,0.013254807051444778,
0*%
%ADD12COMP97,0.064*%
%ADD13C,0.07099*%
%ADD24R,0.054X0.071*%
%ADD25R,0.006000000000000001X0.072*%
%AMCOMP98*
4,1,7,
-0.013254807051444783,0.031999934950236529,
0.013254807051444779,0.031999934950236529,
0.031999934950236529,0.013254807051444786,
0.031999934950236529,-0.013254807051444779,
0.013254807051444788,-0.031999934950236529,
-0.013254807051444778,-0.031999934950236536,
-0.031999934950236522,-0.01325480705144479,
-0.031999934950236536,0.013254807051444778,
0*%
%ADD26COMP98,0.064*%
%ADD27C,0.07099*%
%ADD28R,0.054X0.071*%
%ADD29R,0.006000000000000001X0.072*%
%AMCOMP99*
4,1,7,
-0.013254807051444783,0.031999934950236529,
0.013254807051444779,0.031999934950236529,
0.031999934950236529,0.013254807051444786,
0.031999934950236529,-0.013254807051444779,
0.013254807051444788,-0.031999934950236529,
-0.013254807051444778,-0.031999934950236536,
-0.031999934950236522,-0.01325480705144479,
-0.031999934950236536,0.013254807051444778,
0*%
%ADD30COMP99,0.064*%
%ADD31C,0.07099*%
%ADD32R,0.054X0.071*%
%ADD33R,0.006000000000000001X0.072*%
%AMCOMP100*
4,1,7,
-0.013254807051444783,0.031999934950236529,
0.013254807051444779,0.031999934950236529,
0.031999934950236529,0.013254807051444786,
0.031999934950236529,-0.013254807051444779,
0.013254807051444788,-0.031999934950236529,
-0.013254807051444778,-0.031999934950236536,
-0.031999934950236522,-0.01325480705144479,
-0.031999934950236536,0.013254807051444778,
0*%
%ADD34COMP100,0.064*%
%ADD35C,0.07099*%
%ADD36R,0.054X0.071*%
%ADD37R,0.006000000000000001X0.072*%
%AMCOMP101*
4,1,7,
-0.013254807051444783,0.031999934950236529,
0.013254807051444779,0.031999934950236529,
0.031999934950236529,0.013254807051444786,
0.031999934950236529,-0.013254807051444779,
0.013254807051444788,-0.031999934950236529,
-0.013254807051444778,-0.031999934950236536,
-0.031999934950236522,-0.01325480705144479,
-0.031999934950236536,0.013254807051444778,
0*%
%ADD38COMP101,0.064*%
%ADD39C,0.07099*%
%ADD40R,0.054X0.071*%
%ADD41R,0.006000000000000001X0.072*%
%AMCOMP102*
4,1,7,
-0.013254807051444783,0.031999934950236529,
0.013254807051444779,0.031999934950236529,
0.031999934950236529,0.013254807051444786,
0.031999934950236529,-0.013254807051444779,
0.013254807051444788,-0.031999934950236529,
-0.013254807051444778,-0.031999934950236536,
-0.031999934950236522,-0.01325480705144479,
-0.031999934950236536,0.013254807051444778,
0*%
%ADD42COMP102,0.064*%
%ADD43C,0.07099*%
%ADD44R,0.054X0.071*%
%ADD45R,0.006000000000000001X0.072*%
%AMCOMP103*
4,1,7,
-0.013254807051444783,0.031999934950236529,
0.013254807051444779,0.031999934950236529,
0.031999934950236529,0.013254807051444786,
0.031999934950236529,-0.013254807051444779,
0.013254807051444788,-0.031999934950236529,
-0.013254807051444778,-0.031999934950236536,
-0.031999934950236522,-0.01325480705144479,
-0.031999934950236536,0.013254807051444778,
0*%
%ADD46COMP103,0.064*%
%ADD47C,0.07099*%
%ADD48R,0.054X0.071*%
%ADD49R,0.006000000000000001X0.072*%
%AMCOMP104*
4,1,7,
-0.013254807051444783,0.031999934950236529,
0.013254807051444779,0.031999934950236529,
0.031999934950236529,0.013254807051444786,
0.031999934950236529,-0.013254807051444779,
0.013254807051444788,-0.031999934950236529,
-0.013254807051444778,-0.031999934950236536,
-0.031999934950236522,-0.01325480705144479,
-0.031999934950236536,0.013254807051444778,
0*%
%ADD50COMP104,0.064*%
%ADD51C,0.07099*%
G75*
D10*
X0019685Y0011811D02*
X0043472Y0093598D03*
X0049472Y0093598D03*
X0070972Y0093598D03*
X0076972Y0093598D03*
D11*
X0073972Y0093598D03*
X0046472Y0093598D03*
D12*
X0048972Y0158598D03*
X0048972Y0168598D03*
X0038972Y0168598D03*
X0038972Y0158598D03*
X0058972Y0158598D03*
X0058972Y0168598D03*
X0068972Y0168598D03*
X0068972Y0158598D03*
X0078972Y0158598D03*
X0078972Y0168598D03*
D13*
X0071472Y0136098D03*
X0071472Y0116097D03*
G04 next file*
G75*
D24*
X0106299Y0011811D02*
X0130085Y0093598D03*
X0136086Y0093598D03*
X0157586Y0093598D03*
X0163586Y0093598D03*
D25*
X0160586Y0093598D03*
X0133086Y0093598D03*
D26*
X0135586Y0158598D03*
X0135586Y0168598D03*
X0125586Y0168598D03*
X0125586Y0158598D03*
X0145586Y0158598D03*
X0145586Y0168598D03*
X0155586Y0168598D03*
X0155586Y0158598D03*
X0165586Y0158598D03*
X0165586Y0168598D03*
D27*
X0158086Y0136098D03*
X0158086Y0116097D03*
G04 next file*
G75*
D28*
X0192913Y0011811D02*
X0216699Y0093598D03*
X0222700Y0093598D03*
X0244200Y0093598D03*
X0250199Y0093598D03*
D29*
X0247200Y0093598D03*
X0219700Y0093598D03*
D30*
X0222200Y0158598D03*
X0222200Y0168598D03*
X0212200Y0168598D03*
X0212200Y0158598D03*
X0232200Y0158598D03*
X0232200Y0168598D03*
X0242200Y0168598D03*
X0242200Y0158598D03*
X0252199Y0158598D03*
X0252199Y0168598D03*
D31*
X0244700Y0136098D03*
X0244700Y0116097D03*
G04 next file*
G75*
D32*
X0279527Y0011811D02*
X0303314Y0093598D03*
X0309314Y0093598D03*
X0330814Y0093598D03*
X0336814Y0093598D03*
D33*
X0333813Y0093598D03*
X0306314Y0093598D03*
D34*
X0308814Y0158598D03*
X0308814Y0168598D03*
X0298814Y0168598D03*
X0298814Y0158598D03*
X0318814Y0158598D03*
X0318814Y0168598D03*
X0328814Y0168598D03*
X0328814Y0158598D03*
X0338814Y0158598D03*
X0338814Y0168598D03*
D35*
X0331314Y0136098D03*
X0331314Y0116097D03*
G04 next file*
G75*
D36*
X0019685Y0188976D02*
X0043472Y0270762D03*
X0049472Y0270762D03*
X0070972Y0270762D03*
X0076972Y0270762D03*
D37*
X0073972Y0270762D03*
X0046472Y0270762D03*
D38*
X0048972Y0335763D03*
X0048972Y0345763D03*
X0038972Y0345763D03*
X0038972Y0335763D03*
X0058972Y0335763D03*
X0058972Y0345763D03*
X0068972Y0345763D03*
X0068972Y0335763D03*
X0078972Y0335763D03*
X0078972Y0345763D03*
D39*
X0071472Y0313263D03*
X0071472Y0293263D03*
G04 next file*
G75*
D40*
X0106299Y0188976D02*
X0130085Y0270762D03*
X0136086Y0270762D03*
X0157586Y0270762D03*
X0163586Y0270762D03*
D41*
X0160586Y0270762D03*
X0133086Y0270762D03*
D42*
X0135586Y0335763D03*
X0135586Y0345763D03*
X0125586Y0345763D03*
X0125586Y0335763D03*
X0145586Y0335763D03*
X0145586Y0345763D03*
X0155586Y0345763D03*
X0155586Y0335763D03*
X0165586Y0335763D03*
X0165586Y0345763D03*
D43*
X0158086Y0313263D03*
X0158086Y0293263D03*
G04 next file*
G75*
D44*
X0192913Y0188976D02*
X0216699Y0270762D03*
X0222700Y0270762D03*
X0244200Y0270762D03*
X0250199Y0270762D03*
D45*
X0247200Y0270762D03*
X0219700Y0270762D03*
D46*
X0222200Y0335763D03*
X0222200Y0345763D03*
X0212200Y0345763D03*
X0212200Y0335763D03*
X0232200Y0335763D03*
X0232200Y0345763D03*
X0242200Y0345763D03*
X0242200Y0335763D03*
X0252199Y0335763D03*
X0252199Y0345763D03*
D47*
X0244700Y0313263D03*
X0244700Y0293263D03*
G04 next file*
G75*
D48*
X0279527Y0188976D02*
X0303314Y0270762D03*
X0309314Y0270762D03*
X0330814Y0270762D03*
X0336814Y0270762D03*
D49*
X0333813Y0270762D03*
X0306314Y0270762D03*
D50*
X0308814Y0335763D03*
X0308814Y0345763D03*
X0298814Y0345763D03*
X0298814Y0335763D03*
X0318814Y0335763D03*
X0318814Y0345763D03*
X0328814Y0345763D03*
X0328814Y0335763D03*
X0338814Y0335763D03*
X0338814Y0345763D03*
D51*
X0331314Y0313263D03*
X0331314Y0293263D03*
M02*