%MOIN*%
%OFA0B0*%
%FSLAX25Y25*%
%IPPOS*%
%LPD*%
%AMOC8*
5,1,8,0,0,$1,22.5*%
%AMCOMP67*
4,1,7,
-0.013254807051444783,0.031999934950236529,
0.013254807051444779,0.031999934950236529,
0.031999934950236529,0.013254807051444786,
0.031999934950236529,-0.013254807051444779,
0.013254807051444788,-0.031999934950236529,
-0.013254807051444778,-0.031999934950236536,
-0.031999934950236522,-0.01325480705144479,
-0.031999934950236536,0.013254807051444778,
0*%
%AMOC80*
5,1,8,0,0,$1,22.5*%
%AMCOMP710*
4,1,7,
-0.013254807051444783,0.031999934950236529,
0.013254807051444779,0.031999934950236529,
0.031999934950236529,0.013254807051444786,
0.031999934950236529,-0.013254807051444779,
0.013254807051444788,-0.031999934950236529,
-0.013254807051444778,-0.031999934950236536,
-0.031999934950236522,-0.01325480705144479,
-0.031999934950236536,0.013254807051444778,
0*%
%AMOC81*
5,1,8,0,0,$1,22.5*%
%AMCOMP750*
4,1,7,
-0.013254807051444783,0.031999934950236529,
0.013254807051444779,0.031999934950236529,
0.031999934950236529,0.013254807051444786,
0.031999934950236529,-0.013254807051444779,
0.013254807051444788,-0.031999934950236529,
-0.013254807051444778,-0.031999934950236536,
-0.031999934950236522,-0.01325480705144479,
-0.031999934950236536,0.013254807051444778,
0*%
%AMOC80*
5,1,8,0,0,$1,22.5*%
%AMCOMP790*
4,1,7,
-0.013254807051444783,0.031999934950236529,
0.013254807051444779,0.031999934950236529,
0.031999934950236529,0.013254807051444786,
0.031999934950236529,-0.013254807051444779,
0.013254807051444788,-0.031999934950236529,
-0.013254807051444778,-0.031999934950236536,
-0.031999934950236522,-0.01325480705144479,
-0.031999934950236536,0.013254807051444778,
0*%
%AMOC81*
5,1,8,0,0,$1,22.5*%
%AMCOMP830*
4,1,7,
-0.013254807051444783,0.031999934950236529,
0.013254807051444779,0.031999934950236529,
0.031999934950236529,0.013254807051444786,
0.031999934950236529,-0.013254807051444779,
0.013254807051444788,-0.031999934950236529,
-0.013254807051444778,-0.031999934950236536,
-0.031999934950236522,-0.01325480705144479,
-0.031999934950236536,0.013254807051444778,
0*%
%AMOC80*
5,1,8,0,0,$1,22.5*%
%AMCOMP870*
4,1,7,
-0.013254807051444783,0.031999934950236529,
0.013254807051444779,0.031999934950236529,
0.031999934950236529,0.013254807051444786,
0.031999934950236529,-0.013254807051444779,
0.013254807051444788,-0.031999934950236529,
-0.013254807051444778,-0.031999934950236536,
-0.031999934950236522,-0.01325480705144479,
-0.031999934950236536,0.013254807051444778,
0*%
%AMOC81*
5,1,8,0,0,$1,22.5*%
%AMCOMP910*
4,1,7,
-0.013254807051444783,0.031999934950236529,
0.013254807051444779,0.031999934950236529,
0.031999934950236529,0.013254807051444786,
0.031999934950236529,-0.013254807051444779,
0.013254807051444788,-0.031999934950236529,
-0.013254807051444778,-0.031999934950236536,
-0.031999934950236522,-0.01325480705144479,
-0.031999934950236536,0.013254807051444778,
0*%
%AMOC80*
5,1,8,0,0,$1,22.5*%
%AMCOMP950*
4,1,7,
-0.013254807051444783,0.031999934950236529,
0.013254807051444779,0.031999934950236529,
0.031999934950236529,0.013254807051444786,
0.031999934950236529,-0.013254807051444779,
0.013254807051444788,-0.031999934950236529,
-0.013254807051444778,-0.031999934950236536,
-0.031999934950236522,-0.01325480705144479,
-0.031999934950236536,0.013254807051444778,
0*%
%ADD10R,0.058X0.033*%
%AMCOMP105*
4,1,7,
-0.013254807051444783,0.031999934950236529,
0.013254807051444779,0.031999934950236529,
0.031999934950236529,0.013254807051444786,
0.031999934950236529,-0.013254807051444779,
0.013254807051444788,-0.031999934950236529,
-0.013254807051444778,-0.031999934950236536,
-0.031999934950236522,-0.01325480705144479,
-0.031999934950236536,0.013254807051444778,
0*%
%ADD11COMP105,0.064*%
%ADD12C,0.07099*%
%ADD23R,0.058X0.033*%
%AMCOMP106*
4,1,7,
-0.013254807051444783,0.031999934950236529,
0.013254807051444779,0.031999934950236529,
0.031999934950236529,0.013254807051444786,
0.031999934950236529,-0.013254807051444779,
0.013254807051444788,-0.031999934950236529,
-0.013254807051444778,-0.031999934950236536,
-0.031999934950236522,-0.01325480705144479,
-0.031999934950236536,0.013254807051444778,
0*%
%ADD24COMP106,0.064*%
%ADD25C,0.07099*%
%ADD26R,0.058X0.033*%
%AMCOMP107*
4,1,7,
-0.013254807051444783,0.031999934950236529,
0.013254807051444779,0.031999934950236529,
0.031999934950236529,0.013254807051444786,
0.031999934950236529,-0.013254807051444779,
0.013254807051444788,-0.031999934950236529,
-0.013254807051444778,-0.031999934950236536,
-0.031999934950236522,-0.01325480705144479,
-0.031999934950236536,0.013254807051444778,
0*%
%ADD27COMP107,0.064*%
%ADD28C,0.07099*%
%ADD29R,0.058X0.033*%
%AMCOMP108*
4,1,7,
-0.013254807051444783,0.031999934950236529,
0.013254807051444779,0.031999934950236529,
0.031999934950236529,0.013254807051444786,
0.031999934950236529,-0.013254807051444779,
0.013254807051444788,-0.031999934950236529,
-0.013254807051444778,-0.031999934950236536,
-0.031999934950236522,-0.01325480705144479,
-0.031999934950236536,0.013254807051444778,
0*%
%ADD30COMP108,0.064*%
%ADD31C,0.07099*%
%ADD32R,0.058X0.033*%
%AMCOMP109*
4,1,7,
-0.013254807051444783,0.031999934950236529,
0.013254807051444779,0.031999934950236529,
0.031999934950236529,0.013254807051444786,
0.031999934950236529,-0.013254807051444779,
0.013254807051444788,-0.031999934950236529,
-0.013254807051444778,-0.031999934950236536,
-0.031999934950236522,-0.01325480705144479,
-0.031999934950236536,0.013254807051444778,
0*%
%ADD33COMP109,0.064*%
%ADD34C,0.07099*%
%ADD35R,0.058X0.033*%
%AMCOMP110*
4,1,7,
-0.013254807051444783,0.031999934950236529,
0.013254807051444779,0.031999934950236529,
0.031999934950236529,0.013254807051444786,
0.031999934950236529,-0.013254807051444779,
0.013254807051444788,-0.031999934950236529,
-0.013254807051444778,-0.031999934950236536,
-0.031999934950236522,-0.01325480705144479,
-0.031999934950236536,0.013254807051444778,
0*%
%ADD36COMP110,0.064*%
%ADD37C,0.07099*%
%ADD38R,0.058X0.033*%
%AMCOMP111*
4,1,7,
-0.013254807051444783,0.031999934950236529,
0.013254807051444779,0.031999934950236529,
0.031999934950236529,0.013254807051444786,
0.031999934950236529,-0.013254807051444779,
0.013254807051444788,-0.031999934950236529,
-0.013254807051444778,-0.031999934950236536,
-0.031999934950236522,-0.01325480705144479,
-0.031999934950236536,0.013254807051444778,
0*%
%ADD39COMP111,0.064*%
%ADD40C,0.07099*%
%ADD41R,0.058X0.033*%
%AMCOMP112*
4,1,7,
-0.013254807051444783,0.031999934950236529,
0.013254807051444779,0.031999934950236529,
0.031999934950236529,0.013254807051444786,
0.031999934950236529,-0.013254807051444779,
0.013254807051444788,-0.031999934950236529,
-0.013254807051444778,-0.031999934950236536,
-0.031999934950236522,-0.01325480705144479,
-0.031999934950236536,0.013254807051444778,
0*%
%ADD42COMP112,0.064*%
%ADD43C,0.07099*%
G75*
D10*
X0019685Y0011811D02*
X0029504Y0021394D03*
X0029504Y0026394D03*
X0029504Y0031787D03*
X0029504Y0063598D03*
X0029504Y0068598D03*
X0029504Y0073598D03*
X0029504Y0078597D03*
X0029504Y0083598D03*
X0029504Y0088597D03*
X0088441Y0088597D03*
X0088441Y0083598D03*
X0088441Y0078597D03*
X0088441Y0073598D03*
X0088441Y0068598D03*
X0088441Y0063598D03*
X0088441Y0031787D03*
X0088441Y0026394D03*
X0088441Y0021394D03*
D11*
X0078972Y0158598D03*
X0078972Y0168598D03*
X0068972Y0168598D03*
X0068972Y0158598D03*
X0058972Y0158598D03*
X0058972Y0168598D03*
X0048972Y0168598D03*
X0048972Y0158598D03*
X0038972Y0158598D03*
X0038972Y0168598D03*
D12*
X0071472Y0136098D03*
X0071472Y0116097D03*
G04 next file*
G75*
D23*
X0106299Y0011811D02*
X0116118Y0021394D03*
X0116118Y0026394D03*
X0116118Y0031787D03*
X0116118Y0063598D03*
X0116118Y0068598D03*
X0116118Y0073598D03*
X0116118Y0078597D03*
X0116118Y0083598D03*
X0116118Y0088597D03*
X0175055Y0088597D03*
X0175055Y0083598D03*
X0175055Y0078597D03*
X0175055Y0073598D03*
X0175055Y0068598D03*
X0175055Y0063598D03*
X0175055Y0031787D03*
X0175055Y0026394D03*
X0175055Y0021394D03*
D24*
X0165586Y0158598D03*
X0165586Y0168598D03*
X0155586Y0168598D03*
X0155586Y0158598D03*
X0145586Y0158598D03*
X0145586Y0168598D03*
X0135586Y0168598D03*
X0135586Y0158598D03*
X0125586Y0158598D03*
X0125586Y0168598D03*
D25*
X0158086Y0136098D03*
X0158086Y0116097D03*
G04 next file*
G75*
D26*
X0192913Y0011811D02*
X0202732Y0021394D03*
X0202732Y0026394D03*
X0202732Y0031787D03*
X0202732Y0063598D03*
X0202732Y0068598D03*
X0202732Y0073598D03*
X0202732Y0078597D03*
X0202732Y0083598D03*
X0202732Y0088597D03*
X0261669Y0088597D03*
X0261669Y0083598D03*
X0261669Y0078597D03*
X0261669Y0073598D03*
X0261669Y0068598D03*
X0261669Y0063598D03*
X0261669Y0031787D03*
X0261669Y0026394D03*
X0261669Y0021394D03*
D27*
X0252199Y0158598D03*
X0252199Y0168598D03*
X0242200Y0168598D03*
X0242200Y0158598D03*
X0232200Y0158598D03*
X0232200Y0168598D03*
X0222200Y0168598D03*
X0222200Y0158598D03*
X0212200Y0158598D03*
X0212200Y0168598D03*
D28*
X0244700Y0136098D03*
X0244700Y0116097D03*
G04 next file*
G75*
D29*
X0279527Y0011811D02*
X0289346Y0021394D03*
X0289346Y0026394D03*
X0289346Y0031787D03*
X0289346Y0063598D03*
X0289346Y0068598D03*
X0289346Y0073598D03*
X0289346Y0078597D03*
X0289346Y0083598D03*
X0289346Y0088597D03*
X0348283Y0088597D03*
X0348283Y0083598D03*
X0348283Y0078597D03*
X0348283Y0073598D03*
X0348283Y0068598D03*
X0348283Y0063598D03*
X0348283Y0031787D03*
X0348283Y0026394D03*
X0348283Y0021394D03*
D30*
X0338814Y0158598D03*
X0338814Y0168598D03*
X0328814Y0168598D03*
X0328814Y0158598D03*
X0318814Y0158598D03*
X0318814Y0168598D03*
X0308814Y0168598D03*
X0308814Y0158598D03*
X0298814Y0158598D03*
X0298814Y0168598D03*
D31*
X0331314Y0136098D03*
X0331314Y0116097D03*
G04 next file*
G75*
D32*
X0019685Y0188976D02*
X0029504Y0198559D03*
X0029504Y0203559D03*
X0029504Y0208951D03*
X0029504Y0240763D03*
X0029504Y0245763D03*
X0029504Y0250762D03*
X0029504Y0255763D03*
X0029504Y0260763D03*
X0029504Y0265763D03*
X0088441Y0265763D03*
X0088441Y0260763D03*
X0088441Y0255763D03*
X0088441Y0250762D03*
X0088441Y0245763D03*
X0088441Y0240763D03*
X0088441Y0208951D03*
X0088441Y0203559D03*
X0088441Y0198559D03*
D33*
X0078972Y0335763D03*
X0078972Y0345763D03*
X0068972Y0345763D03*
X0068972Y0335763D03*
X0058972Y0335763D03*
X0058972Y0345763D03*
X0048972Y0345763D03*
X0048972Y0335763D03*
X0038972Y0335763D03*
X0038972Y0345763D03*
D34*
X0071472Y0313263D03*
X0071472Y0293263D03*
G04 next file*
G75*
D35*
X0106299Y0188976D02*
X0116118Y0198559D03*
X0116118Y0203559D03*
X0116118Y0208951D03*
X0116118Y0240763D03*
X0116118Y0245763D03*
X0116118Y0250762D03*
X0116118Y0255763D03*
X0116118Y0260763D03*
X0116118Y0265763D03*
X0175055Y0265763D03*
X0175055Y0260763D03*
X0175055Y0255763D03*
X0175055Y0250762D03*
X0175055Y0245763D03*
X0175055Y0240763D03*
X0175055Y0208951D03*
X0175055Y0203559D03*
X0175055Y0198559D03*
D36*
X0165586Y0335763D03*
X0165586Y0345763D03*
X0155586Y0345763D03*
X0155586Y0335763D03*
X0145586Y0335763D03*
X0145586Y0345763D03*
X0135586Y0345763D03*
X0135586Y0335763D03*
X0125586Y0335763D03*
X0125586Y0345763D03*
D37*
X0158086Y0313263D03*
X0158086Y0293263D03*
G04 next file*
G75*
D38*
X0192913Y0188976D02*
X0202732Y0198559D03*
X0202732Y0203559D03*
X0202732Y0208951D03*
X0202732Y0240763D03*
X0202732Y0245763D03*
X0202732Y0250762D03*
X0202732Y0255763D03*
X0202732Y0260763D03*
X0202732Y0265763D03*
X0261669Y0265763D03*
X0261669Y0260763D03*
X0261669Y0255763D03*
X0261669Y0250762D03*
X0261669Y0245763D03*
X0261669Y0240763D03*
X0261669Y0208951D03*
X0261669Y0203559D03*
X0261669Y0198559D03*
D39*
X0252199Y0335763D03*
X0252199Y0345763D03*
X0242200Y0345763D03*
X0242200Y0335763D03*
X0232200Y0335763D03*
X0232200Y0345763D03*
X0222200Y0345763D03*
X0222200Y0335763D03*
X0212200Y0335763D03*
X0212200Y0345763D03*
D40*
X0244700Y0313263D03*
X0244700Y0293263D03*
G04 next file*
G75*
D41*
X0279527Y0188976D02*
X0289346Y0198559D03*
X0289346Y0203559D03*
X0289346Y0208951D03*
X0289346Y0240763D03*
X0289346Y0245763D03*
X0289346Y0250762D03*
X0289346Y0255763D03*
X0289346Y0260763D03*
X0289346Y0265763D03*
X0348283Y0265763D03*
X0348283Y0260763D03*
X0348283Y0255763D03*
X0348283Y0250762D03*
X0348283Y0245763D03*
X0348283Y0240763D03*
X0348283Y0208951D03*
X0348283Y0203559D03*
X0348283Y0198559D03*
D42*
X0338814Y0335763D03*
X0338814Y0345763D03*
X0328814Y0345763D03*
X0328814Y0335763D03*
X0318814Y0335763D03*
X0318814Y0345763D03*
X0308814Y0345763D03*
X0308814Y0335763D03*
X0298814Y0335763D03*
X0298814Y0345763D03*
D43*
X0331314Y0313263D03*
X0331314Y0293263D03*
M02*