%MOIN*%
%OFA0B0*%
%FSLAX25Y25*%
%IPPOS*%
%LPD*%
%AMOC8*
5,1,8,0,0,$1,22.5*%
%AMOC80*
5,1,8,0,0,$1,22.5*%
%AMOC81*
5,1,8,0,0,$1,22.5*%
%AMOC80*
5,1,8,0,0,$1,22.5*%
%AMOC81*
5,1,8,0,0,$1,22.5*%
%AMOC80*
5,1,8,0,0,$1,22.5*%
%AMOC81*
5,1,8,0,0,$1,22.5*%
%AMOC80*
5,1,8,0,0,$1,22.5*%
%ADD10C,0.005*%
%ADD11C,0.004*%
%ADD12C,0.0030000000000000005*%
%ADD13C,0.006000000000000001*%
%ADD24C,0.005*%
%ADD25C,0.004*%
%ADD26C,0.0030000000000000005*%
%ADD27C,0.006000000000000001*%
%ADD28C,0.005*%
%ADD29C,0.004*%
%ADD30C,0.0030000000000000005*%
%ADD31C,0.006000000000000001*%
%ADD32C,0.005*%
%ADD33C,0.004*%
%ADD34C,0.0030000000000000005*%
%ADD35C,0.006000000000000001*%
%ADD36C,0.005*%
%ADD37C,0.004*%
%ADD38C,0.0030000000000000005*%
%ADD39C,0.006000000000000001*%
%ADD40C,0.005*%
%ADD41C,0.004*%
%ADD42C,0.0030000000000000005*%
%ADD43C,0.006000000000000001*%
%ADD44C,0.005*%
%ADD45C,0.004*%
%ADD46C,0.0030000000000000005*%
%ADD47C,0.006000000000000001*%
%ADD48C,0.005*%
%ADD49C,0.004*%
%ADD50C,0.0030000000000000005*%
%ADD51C,0.006000000000000001*%
G75*
D10*
X0031472Y0018598D02*
X0086472Y0018598D01*
X0086472Y0098597D01*
X0031472Y0098597D01*
X0031472Y0018598D01*
X0071161Y0146848D02*
X0070411Y0147599D01*
X0071161Y0146848D02*
X0071912Y0146848D01*
X0072663Y0147599D01*
X0072663Y0151352D01*
X0073413Y0151352D02*
X0071912Y0151352D01*
X0075015Y0151352D02*
X0075015Y0146848D01*
X0075015Y0148350D02*
X0077266Y0148350D01*
X0078017Y0149100D01*
X0078017Y0150602D01*
X0077266Y0151352D01*
X0075015Y0151352D01*
X0079618Y0149851D02*
X0081120Y0151352D01*
X0081120Y0146848D01*
X0082620Y0146848D02*
X0079618Y0146848D01*
D11*
X0069765Y0043402D02*
X0068232Y0043402D01*
X0067464Y0042635D01*
X0067464Y0039566D01*
X0070534Y0042635D01*
X0070534Y0039566D01*
X0069765Y0038798D01*
X0068232Y0038798D01*
X0067464Y0039566D01*
X0065929Y0039566D02*
X0065929Y0042635D01*
X0062861Y0039566D01*
X0063627Y0038798D01*
X0065163Y0038798D01*
X0065929Y0039566D01*
X0065929Y0042635D02*
X0065163Y0043402D01*
X0063627Y0043402D01*
X0062861Y0042635D01*
X0062861Y0039566D01*
X0061326Y0039566D02*
X0060558Y0038798D01*
X0059024Y0038798D01*
X0058257Y0039566D01*
X0056721Y0038798D02*
X0053652Y0038798D01*
X0056721Y0041868D01*
X0056721Y0042635D01*
X0055955Y0043402D01*
X0054420Y0043402D01*
X0053652Y0042635D01*
X0052118Y0043402D02*
X0049049Y0043402D01*
X0050583Y0043402D02*
X0050583Y0038798D01*
X0047514Y0038798D02*
X0047514Y0043402D01*
X0045978Y0041868D01*
X0044445Y0043402D01*
X0044445Y0038798D01*
X0042910Y0039566D02*
X0042143Y0038798D01*
X0040608Y0038798D01*
X0039841Y0039566D01*
X0039841Y0042635D01*
X0040608Y0043402D01*
X0042143Y0043402D01*
X0042910Y0042635D01*
X0058257Y0042635D02*
X0059024Y0043402D01*
X0060558Y0043402D01*
X0061326Y0042635D01*
X0061326Y0041868D01*
X0060558Y0041100D01*
X0061326Y0040333D01*
X0061326Y0039566D01*
X0060558Y0041100D02*
X0059791Y0041100D01*
X0069765Y0043402D02*
X0070534Y0042635D01*
X0072836Y0040333D02*
X0072068Y0039566D01*
X0072836Y0038798D01*
X0075138Y0038798D01*
X0075138Y0041100D01*
X0074370Y0041868D01*
X0072836Y0041868D01*
X0072836Y0040333D02*
X0075138Y0040333D01*
D12*
X0075729Y0033451D02*
X0077664Y0030547D01*
X0077664Y0033451D01*
X0078676Y0033451D02*
X0078676Y0030547D01*
X0080127Y0030547D01*
X0080611Y0031032D01*
X0080611Y0032967D01*
X0080127Y0033451D01*
X0078676Y0033451D01*
X0078676Y0028451D02*
X0080127Y0028451D01*
X0080611Y0027966D01*
X0080611Y0026032D01*
X0080127Y0025548D01*
X0078676Y0025548D01*
X0078676Y0028451D01*
X0077664Y0028451D02*
X0077664Y0025548D01*
X0075729Y0028451D01*
X0075729Y0025548D01*
X0074718Y0026032D02*
X0074718Y0027000D01*
X0073750Y0027000D01*
X0072783Y0027966D02*
X0073267Y0028451D01*
X0074233Y0028451D01*
X0074718Y0027966D01*
X0074718Y0026032D02*
X0074233Y0025548D01*
X0073267Y0025548D01*
X0072783Y0026032D01*
X0072783Y0027966D01*
X0073267Y0030547D02*
X0072783Y0031032D01*
X0072783Y0032967D01*
X0073267Y0033451D01*
X0074233Y0033451D01*
X0074718Y0032967D01*
X0074718Y0032000D02*
X0073750Y0032000D01*
X0074718Y0031032D02*
X0074233Y0030547D01*
X0073267Y0030547D01*
X0074718Y0031032D02*
X0074718Y0032000D01*
X0075729Y0033451D02*
X0075729Y0030547D01*
X0075729Y0023451D02*
X0077664Y0020548D01*
X0077664Y0023451D01*
X0078676Y0023451D02*
X0078676Y0020548D01*
X0080127Y0020548D01*
X0080611Y0021032D01*
X0080611Y0022967D01*
X0080127Y0023451D01*
X0078676Y0023451D01*
X0075729Y0023451D02*
X0075729Y0020548D01*
X0074718Y0021032D02*
X0074718Y0022000D01*
X0073750Y0022000D01*
X0072783Y0022967D02*
X0073267Y0023451D01*
X0074233Y0023451D01*
X0074718Y0022967D01*
X0074718Y0021032D02*
X0074233Y0020548D01*
X0073267Y0020548D01*
X0072783Y0021032D01*
X0072783Y0022967D01*
X0073267Y0060548D02*
X0074233Y0060548D01*
X0074718Y0061032D01*
X0074718Y0062000D01*
X0073750Y0062000D01*
X0072783Y0062966D02*
X0072783Y0061032D01*
X0073267Y0060548D01*
X0072783Y0062966D02*
X0073267Y0063451D01*
X0074233Y0063451D01*
X0074718Y0062966D01*
X0075729Y0063451D02*
X0077664Y0060548D01*
X0077664Y0063451D01*
X0077180Y0065548D02*
X0077664Y0066032D01*
X0077664Y0067966D01*
X0077180Y0068451D01*
X0076213Y0068451D01*
X0075729Y0067966D01*
X0075729Y0066032D01*
X0076213Y0065548D01*
X0077180Y0065548D01*
X0078676Y0065548D02*
X0080611Y0065548D01*
X0079643Y0065548D02*
X0079643Y0068451D01*
X0078676Y0067483D01*
X0078676Y0070548D02*
X0080611Y0072483D01*
X0080611Y0072967D01*
X0080127Y0073451D01*
X0079160Y0073451D01*
X0078676Y0072967D01*
X0079160Y0075548D02*
X0078676Y0076032D01*
X0079160Y0075548D02*
X0080127Y0075548D01*
X0080611Y0076032D01*
X0080611Y0076516D01*
X0080127Y0077000D01*
X0079643Y0077000D01*
X0080127Y0077000D02*
X0080611Y0077483D01*
X0080611Y0077966D01*
X0080127Y0078451D01*
X0079160Y0078451D01*
X0078676Y0077966D01*
X0079643Y0080548D02*
X0080611Y0081516D01*
X0080611Y0083451D01*
X0080127Y0085547D02*
X0080611Y0086032D01*
X0080611Y0087966D01*
X0080127Y0088451D01*
X0078676Y0088451D01*
X0078676Y0085547D01*
X0080127Y0085547D01*
X0078676Y0083451D02*
X0078676Y0081516D01*
X0079643Y0080548D01*
X0077664Y0081032D02*
X0077180Y0080548D01*
X0076213Y0080548D01*
X0075729Y0081032D01*
X0074739Y0081032D02*
X0074739Y0080548D01*
X0074256Y0080548D01*
X0074256Y0081032D01*
X0074739Y0081032D01*
X0075729Y0082967D02*
X0076213Y0083451D01*
X0077180Y0083451D01*
X0077664Y0082967D01*
X0077664Y0082483D01*
X0077180Y0081999D01*
X0077664Y0081516D01*
X0077664Y0081032D01*
X0077180Y0081999D02*
X0076697Y0081999D01*
X0077180Y0078451D02*
X0076213Y0078451D01*
X0075729Y0077966D01*
X0075729Y0076032D01*
X0076213Y0075548D01*
X0077180Y0075548D01*
X0077664Y0076032D01*
X0077664Y0077966D01*
X0077180Y0078451D01*
X0074733Y0078451D02*
X0073765Y0078451D01*
X0074249Y0078451D02*
X0074249Y0075548D01*
X0073765Y0075548D02*
X0074733Y0075548D01*
X0074733Y0073451D02*
X0073765Y0073451D01*
X0074249Y0073451D02*
X0074249Y0070548D01*
X0073765Y0070548D02*
X0074733Y0070548D01*
X0075729Y0071032D02*
X0076213Y0070548D01*
X0077180Y0070548D01*
X0077664Y0071032D01*
X0077664Y0072967D01*
X0077180Y0073451D01*
X0076213Y0073451D01*
X0075729Y0072967D01*
X0075729Y0071032D01*
X0074733Y0068451D02*
X0073765Y0068451D01*
X0074249Y0068451D02*
X0074249Y0065548D01*
X0073765Y0065548D02*
X0074733Y0065548D01*
X0075729Y0063451D02*
X0075729Y0060548D01*
X0078676Y0060548D02*
X0080127Y0060548D01*
X0080611Y0061032D01*
X0080611Y0062966D01*
X0080127Y0063451D01*
X0078676Y0063451D01*
X0078676Y0060548D01*
X0078676Y0070548D02*
X0080611Y0070548D01*
X0072761Y0080548D02*
X0073245Y0081032D01*
X0073245Y0081516D01*
X0072761Y0081999D01*
X0072277Y0081999D01*
X0072761Y0081999D02*
X0073245Y0082483D01*
X0073245Y0082967D01*
X0072761Y0083451D01*
X0071792Y0083451D01*
X0071310Y0082967D01*
X0071310Y0081032D02*
X0071792Y0080548D01*
X0072761Y0080548D01*
X0072269Y0078451D02*
X0072753Y0077966D01*
X0072753Y0077000D01*
X0072269Y0076516D01*
X0070819Y0076516D01*
X0070819Y0075548D02*
X0070819Y0078451D01*
X0072269Y0078451D01*
X0069807Y0077966D02*
X0069323Y0078451D01*
X0068356Y0078451D01*
X0067872Y0077966D01*
X0067872Y0076032D01*
X0068356Y0075548D01*
X0069323Y0075548D01*
X0069807Y0076032D01*
X0069807Y0077000D01*
X0068839Y0077000D01*
X0068356Y0073451D02*
X0067872Y0072967D01*
X0067872Y0071032D01*
X0068356Y0070548D01*
X0069323Y0070548D01*
X0069807Y0071032D01*
X0069807Y0071999D01*
X0068839Y0071999D01*
X0069807Y0072967D02*
X0069323Y0073451D01*
X0068356Y0073451D01*
X0068356Y0068451D02*
X0067872Y0067966D01*
X0067872Y0066032D01*
X0068356Y0065548D01*
X0069323Y0065548D01*
X0069807Y0066032D01*
X0069807Y0067000D01*
X0068839Y0067000D01*
X0069807Y0067966D02*
X0069323Y0068451D01*
X0068356Y0068451D01*
X0070819Y0068451D02*
X0070819Y0065548D01*
X0070819Y0066516D02*
X0072269Y0066516D01*
X0072753Y0067000D01*
X0072753Y0067966D01*
X0072269Y0068451D01*
X0070819Y0068451D01*
X0070819Y0070548D02*
X0070819Y0073451D01*
X0072269Y0073451D01*
X0072753Y0072967D01*
X0072753Y0071999D01*
X0072269Y0071516D01*
X0070819Y0071516D01*
X0073267Y0085547D02*
X0074233Y0085547D01*
X0074718Y0086032D01*
X0074718Y0087000D01*
X0073750Y0087000D01*
X0072783Y0087966D02*
X0072783Y0086032D01*
X0073267Y0085547D01*
X0072783Y0087966D02*
X0073267Y0088451D01*
X0074233Y0088451D01*
X0074718Y0087966D01*
X0075729Y0088451D02*
X0077664Y0085547D01*
X0077664Y0088451D01*
X0075729Y0088451D02*
X0075729Y0085547D01*
X0045611Y0086032D02*
X0045127Y0085547D01*
X0043676Y0085547D01*
X0043676Y0088451D01*
X0045127Y0088451D01*
X0045611Y0087966D01*
X0045611Y0086032D01*
X0045611Y0083451D02*
X0043676Y0081516D01*
X0044160Y0081999D02*
X0045611Y0080548D01*
X0045127Y0078451D02*
X0044160Y0078451D01*
X0043676Y0077966D01*
X0043676Y0076032D01*
X0044160Y0075548D01*
X0045127Y0075548D01*
X0045611Y0076032D01*
X0045611Y0077966D01*
X0045127Y0078451D01*
X0043676Y0080548D02*
X0043676Y0083451D01*
X0042664Y0085547D02*
X0042664Y0088451D01*
X0040729Y0088451D02*
X0042664Y0085547D01*
X0040729Y0085547D02*
X0040729Y0088451D01*
X0039718Y0087966D02*
X0039234Y0088451D01*
X0038267Y0088451D01*
X0037783Y0087966D01*
X0037783Y0086032D01*
X0038267Y0085547D01*
X0039234Y0085547D01*
X0039718Y0086032D01*
X0039718Y0087000D01*
X0038750Y0087000D01*
X0038267Y0083451D02*
X0037783Y0082967D01*
X0037783Y0081032D01*
X0038267Y0080548D01*
X0039234Y0080548D01*
X0039718Y0081032D01*
X0040729Y0080548D02*
X0042664Y0080548D01*
X0042679Y0078451D02*
X0041712Y0078451D01*
X0042195Y0078451D02*
X0042195Y0075548D01*
X0041712Y0075548D02*
X0042679Y0075548D01*
X0042181Y0073451D02*
X0041213Y0073451D01*
X0040729Y0072967D01*
X0040729Y0072483D01*
X0041213Y0071999D01*
X0042181Y0071999D01*
X0042664Y0071516D01*
X0042664Y0071032D01*
X0042181Y0070548D01*
X0041213Y0070548D01*
X0040729Y0071032D01*
X0039718Y0071032D02*
X0039234Y0070548D01*
X0038267Y0070548D01*
X0037783Y0071032D01*
X0037783Y0072967D01*
X0038267Y0073451D01*
X0039234Y0073451D01*
X0039718Y0072967D01*
X0040216Y0075548D02*
X0038765Y0075548D01*
X0038765Y0078451D01*
X0040216Y0078451D01*
X0040699Y0077966D01*
X0040699Y0076032D01*
X0040216Y0075548D01*
X0042181Y0073451D02*
X0042664Y0072967D01*
X0043676Y0073451D02*
X0045127Y0073451D01*
X0045611Y0072967D01*
X0045611Y0072483D01*
X0045127Y0071999D01*
X0043676Y0071999D01*
X0043676Y0073451D02*
X0043676Y0070548D01*
X0045127Y0070548D01*
X0045611Y0071032D01*
X0045611Y0071516D01*
X0045127Y0071999D01*
X0045127Y0068451D02*
X0043676Y0068451D01*
X0043676Y0065548D01*
X0045127Y0065548D01*
X0045611Y0066032D01*
X0045611Y0066516D01*
X0045127Y0067000D01*
X0043676Y0067000D01*
X0042664Y0066516D02*
X0042664Y0066032D01*
X0042181Y0065548D01*
X0041213Y0065548D01*
X0040729Y0066032D01*
X0039718Y0066032D02*
X0039234Y0065548D01*
X0038267Y0065548D01*
X0037783Y0066032D01*
X0037783Y0067966D01*
X0038267Y0068451D01*
X0039234Y0068451D01*
X0039718Y0067966D01*
X0040729Y0067966D02*
X0040729Y0067483D01*
X0041213Y0067000D01*
X0042181Y0067000D01*
X0042664Y0066516D01*
X0042664Y0067966D02*
X0042181Y0068451D01*
X0041213Y0068451D01*
X0040729Y0067966D01*
X0040729Y0063451D02*
X0042664Y0060548D01*
X0042664Y0063451D01*
X0043676Y0063451D02*
X0045127Y0063451D01*
X0045611Y0062966D01*
X0045611Y0061032D01*
X0045127Y0060548D01*
X0043676Y0060548D01*
X0043676Y0063451D01*
X0045127Y0067000D02*
X0045611Y0067483D01*
X0045611Y0067966D01*
X0045127Y0068451D01*
X0040729Y0063451D02*
X0040729Y0060548D01*
X0039718Y0061032D02*
X0039718Y0062000D01*
X0038750Y0062000D01*
X0037783Y0062966D02*
X0037783Y0061032D01*
X0038267Y0060548D01*
X0039234Y0060548D01*
X0039718Y0061032D01*
X0039718Y0062966D02*
X0039234Y0063451D01*
X0038267Y0063451D01*
X0037783Y0062966D01*
X0035804Y0067000D02*
X0034836Y0067000D01*
X0034836Y0068451D02*
X0034836Y0065548D01*
X0034836Y0068451D02*
X0036771Y0068451D01*
X0036302Y0075548D02*
X0035819Y0076032D01*
X0036302Y0075548D02*
X0037270Y0075548D01*
X0037753Y0076032D01*
X0037753Y0076516D01*
X0037270Y0077000D01*
X0036302Y0077000D01*
X0035819Y0077483D01*
X0035819Y0077966D01*
X0036302Y0078451D01*
X0037270Y0078451D01*
X0037753Y0077966D01*
X0036288Y0080548D02*
X0035320Y0080548D01*
X0034836Y0081032D01*
X0035320Y0081999D02*
X0036288Y0081999D01*
X0036771Y0081516D01*
X0036771Y0081032D01*
X0036288Y0080548D01*
X0035320Y0081999D02*
X0034836Y0082483D01*
X0034836Y0082967D01*
X0035320Y0083451D01*
X0036288Y0083451D01*
X0036771Y0082967D01*
X0038267Y0083451D02*
X0039234Y0083451D01*
X0039718Y0082967D01*
X0040729Y0083451D02*
X0040729Y0080548D01*
X0040729Y0033451D02*
X0042664Y0030547D01*
X0042664Y0033451D01*
X0043676Y0033451D02*
X0043676Y0030547D01*
X0045127Y0030547D01*
X0045611Y0031032D01*
X0045611Y0032967D01*
X0045127Y0033451D01*
X0043676Y0033451D01*
X0043676Y0028451D02*
X0045611Y0028451D01*
X0044643Y0028451D02*
X0044643Y0025548D01*
X0042664Y0025548D02*
X0042664Y0028451D01*
X0040729Y0028451D02*
X0042664Y0025548D01*
X0042664Y0023451D02*
X0042664Y0020548D01*
X0040729Y0023451D01*
X0040729Y0020548D01*
X0039718Y0021032D02*
X0039718Y0022000D01*
X0038750Y0022000D01*
X0037783Y0022967D02*
X0037783Y0021032D01*
X0038267Y0020548D01*
X0039234Y0020548D01*
X0039718Y0021032D01*
X0039718Y0022967D02*
X0039234Y0023451D01*
X0038267Y0023451D01*
X0037783Y0022967D01*
X0037783Y0025548D02*
X0037783Y0027483D01*
X0038750Y0028451D01*
X0039718Y0027483D01*
X0039718Y0025548D01*
X0040729Y0025548D02*
X0040729Y0028451D01*
X0039718Y0027000D02*
X0037783Y0027000D01*
X0038267Y0030547D02*
X0039234Y0030547D01*
X0039718Y0031032D01*
X0039718Y0032000D01*
X0038750Y0032000D01*
X0037783Y0032967D02*
X0037783Y0031032D01*
X0038267Y0030547D01*
X0037783Y0032967D02*
X0038267Y0033451D01*
X0039234Y0033451D01*
X0039718Y0032967D01*
X0040729Y0033451D02*
X0040729Y0030547D01*
X0043676Y0023451D02*
X0045127Y0023451D01*
X0045611Y0022967D01*
X0045611Y0021032D01*
X0045127Y0020548D01*
X0043676Y0020548D01*
X0043676Y0023451D01*
D13*
X0042472Y0153598D02*
X0035472Y0153598D01*
X0033972Y0155098D01*
X0033972Y0172098D01*
X0035472Y0173598D01*
X0042472Y0173598D01*
X0043972Y0172098D01*
X0045472Y0173598D01*
X0052472Y0173598D01*
X0053972Y0172098D01*
X0055472Y0173598D01*
X0062472Y0173598D01*
X0063971Y0172098D01*
X0065472Y0173598D01*
X0072472Y0173598D01*
X0073972Y0172098D01*
X0075472Y0173598D01*
X0082472Y0173598D01*
X0083972Y0172098D01*
X0083972Y0155098D01*
X0082472Y0153598D01*
X0075472Y0153598D01*
X0073972Y0155098D01*
X0072472Y0153598D01*
X0065472Y0153598D01*
X0063971Y0155098D01*
X0062472Y0153598D01*
X0055472Y0153598D01*
X0053972Y0155098D01*
X0052472Y0153598D01*
X0045472Y0153598D01*
X0043972Y0155098D01*
X0042472Y0153598D01*
G04 next file*
G75*
D24*
X0118086Y0018598D02*
X0173086Y0018598D01*
X0173086Y0098597D01*
X0118086Y0098597D01*
X0118086Y0018598D01*
X0157775Y0146848D02*
X0157025Y0147599D01*
X0157775Y0146848D02*
X0158526Y0146848D01*
X0159277Y0147599D01*
X0159277Y0151352D01*
X0160027Y0151352D02*
X0158526Y0151352D01*
X0161629Y0151352D02*
X0161629Y0146848D01*
X0161629Y0148350D02*
X0163880Y0148350D01*
X0164630Y0149100D01*
X0164630Y0150602D01*
X0163880Y0151352D01*
X0161629Y0151352D01*
X0166232Y0149851D02*
X0167734Y0151352D01*
X0167734Y0146848D01*
X0169235Y0146848D02*
X0166232Y0146848D01*
D25*
X0156380Y0043402D02*
X0154846Y0043402D01*
X0154078Y0042635D01*
X0154078Y0039566D01*
X0157148Y0042635D01*
X0157148Y0039566D01*
X0156380Y0038798D01*
X0154846Y0038798D01*
X0154078Y0039566D01*
X0152544Y0039566D02*
X0152544Y0042635D01*
X0149475Y0039566D01*
X0150242Y0038798D01*
X0151777Y0038798D01*
X0152544Y0039566D01*
X0152544Y0042635D02*
X0151777Y0043402D01*
X0150242Y0043402D01*
X0149475Y0042635D01*
X0149475Y0039566D01*
X0147940Y0039566D02*
X0147173Y0038798D01*
X0145638Y0038798D01*
X0144871Y0039566D01*
X0143336Y0038798D02*
X0140267Y0038798D01*
X0143336Y0041868D01*
X0143336Y0042635D01*
X0142569Y0043402D01*
X0141034Y0043402D01*
X0140267Y0042635D01*
X0138732Y0043402D02*
X0135663Y0043402D01*
X0137197Y0043402D02*
X0137197Y0038798D01*
X0134128Y0038798D02*
X0134128Y0043402D01*
X0132593Y0041868D01*
X0131058Y0043402D01*
X0131058Y0038798D01*
X0129524Y0039566D02*
X0128757Y0038798D01*
X0127221Y0038798D01*
X0126455Y0039566D01*
X0126455Y0042635D01*
X0127221Y0043402D01*
X0128757Y0043402D01*
X0129524Y0042635D01*
X0144871Y0042635D02*
X0145638Y0043402D01*
X0147173Y0043402D01*
X0147940Y0042635D01*
X0147940Y0041868D01*
X0147173Y0041100D01*
X0147940Y0040333D01*
X0147940Y0039566D01*
X0147173Y0041100D02*
X0146405Y0041100D01*
X0156380Y0043402D02*
X0157148Y0042635D01*
X0159450Y0040333D02*
X0158682Y0039566D01*
X0159450Y0038798D01*
X0161752Y0038798D01*
X0161752Y0041100D01*
X0160984Y0041868D01*
X0159450Y0041868D01*
X0159450Y0040333D02*
X0161752Y0040333D01*
D26*
X0162343Y0033451D02*
X0164278Y0030547D01*
X0164278Y0033451D01*
X0165290Y0033451D02*
X0165290Y0030547D01*
X0166741Y0030547D01*
X0167225Y0031032D01*
X0167225Y0032967D01*
X0166741Y0033451D01*
X0165290Y0033451D01*
X0165290Y0028451D02*
X0166741Y0028451D01*
X0167225Y0027966D01*
X0167225Y0026032D01*
X0166741Y0025548D01*
X0165290Y0025548D01*
X0165290Y0028451D01*
X0164278Y0028451D02*
X0164278Y0025548D01*
X0162343Y0028451D01*
X0162343Y0025548D01*
X0161332Y0026032D02*
X0161332Y0027000D01*
X0160364Y0027000D01*
X0159397Y0027966D02*
X0159881Y0028451D01*
X0160848Y0028451D01*
X0161332Y0027966D01*
X0161332Y0026032D02*
X0160848Y0025548D01*
X0159881Y0025548D01*
X0159397Y0026032D01*
X0159397Y0027966D01*
X0159881Y0030547D02*
X0159397Y0031032D01*
X0159397Y0032967D01*
X0159881Y0033451D01*
X0160848Y0033451D01*
X0161332Y0032967D01*
X0161332Y0032000D02*
X0160364Y0032000D01*
X0161332Y0031032D02*
X0160848Y0030547D01*
X0159881Y0030547D01*
X0161332Y0031032D02*
X0161332Y0032000D01*
X0162343Y0033451D02*
X0162343Y0030547D01*
X0162343Y0023451D02*
X0164278Y0020548D01*
X0164278Y0023451D01*
X0165290Y0023451D02*
X0165290Y0020548D01*
X0166741Y0020548D01*
X0167225Y0021032D01*
X0167225Y0022967D01*
X0166741Y0023451D01*
X0165290Y0023451D01*
X0162343Y0023451D02*
X0162343Y0020548D01*
X0161332Y0021032D02*
X0161332Y0022000D01*
X0160364Y0022000D01*
X0159397Y0022967D02*
X0159881Y0023451D01*
X0160848Y0023451D01*
X0161332Y0022967D01*
X0161332Y0021032D02*
X0160848Y0020548D01*
X0159881Y0020548D01*
X0159397Y0021032D01*
X0159397Y0022967D01*
X0159881Y0060548D02*
X0160848Y0060548D01*
X0161332Y0061032D01*
X0161332Y0062000D01*
X0160364Y0062000D01*
X0159397Y0062966D02*
X0159397Y0061032D01*
X0159881Y0060548D01*
X0159397Y0062966D02*
X0159881Y0063451D01*
X0160848Y0063451D01*
X0161332Y0062966D01*
X0162343Y0063451D02*
X0164278Y0060548D01*
X0164278Y0063451D01*
X0163795Y0065548D02*
X0164278Y0066032D01*
X0164278Y0067966D01*
X0163795Y0068451D01*
X0162827Y0068451D01*
X0162343Y0067966D01*
X0162343Y0066032D01*
X0162827Y0065548D01*
X0163795Y0065548D01*
X0165290Y0065548D02*
X0167225Y0065548D01*
X0166257Y0065548D02*
X0166257Y0068451D01*
X0165290Y0067483D01*
X0165290Y0070548D02*
X0167225Y0072483D01*
X0167225Y0072967D01*
X0166741Y0073451D01*
X0165774Y0073451D01*
X0165290Y0072967D01*
X0165774Y0075548D02*
X0165290Y0076032D01*
X0165774Y0075548D02*
X0166741Y0075548D01*
X0167225Y0076032D01*
X0167225Y0076516D01*
X0166741Y0077000D01*
X0166257Y0077000D01*
X0166741Y0077000D02*
X0167225Y0077483D01*
X0167225Y0077966D01*
X0166741Y0078451D01*
X0165774Y0078451D01*
X0165290Y0077966D01*
X0166257Y0080548D02*
X0167225Y0081516D01*
X0167225Y0083451D01*
X0166741Y0085547D02*
X0167225Y0086032D01*
X0167225Y0087966D01*
X0166741Y0088451D01*
X0165290Y0088451D01*
X0165290Y0085547D01*
X0166741Y0085547D01*
X0165290Y0083451D02*
X0165290Y0081516D01*
X0166257Y0080548D01*
X0164278Y0081032D02*
X0163795Y0080548D01*
X0162827Y0080548D01*
X0162343Y0081032D01*
X0161353Y0081032D02*
X0161353Y0080548D01*
X0160870Y0080548D01*
X0160870Y0081032D01*
X0161353Y0081032D01*
X0162343Y0082967D02*
X0162827Y0083451D01*
X0163795Y0083451D01*
X0164278Y0082967D01*
X0164278Y0082483D01*
X0163795Y0081999D01*
X0164278Y0081516D01*
X0164278Y0081032D01*
X0163795Y0081999D02*
X0163311Y0081999D01*
X0163795Y0078451D02*
X0162827Y0078451D01*
X0162343Y0077966D01*
X0162343Y0076032D01*
X0162827Y0075548D01*
X0163795Y0075548D01*
X0164278Y0076032D01*
X0164278Y0077966D01*
X0163795Y0078451D01*
X0161347Y0078451D02*
X0160379Y0078451D01*
X0160863Y0078451D02*
X0160863Y0075548D01*
X0160379Y0075548D02*
X0161347Y0075548D01*
X0161347Y0073451D02*
X0160379Y0073451D01*
X0160863Y0073451D02*
X0160863Y0070548D01*
X0160379Y0070548D02*
X0161347Y0070548D01*
X0162343Y0071032D02*
X0162827Y0070548D01*
X0163795Y0070548D01*
X0164278Y0071032D01*
X0164278Y0072967D01*
X0163795Y0073451D01*
X0162827Y0073451D01*
X0162343Y0072967D01*
X0162343Y0071032D01*
X0161347Y0068451D02*
X0160379Y0068451D01*
X0160863Y0068451D02*
X0160863Y0065548D01*
X0160379Y0065548D02*
X0161347Y0065548D01*
X0162343Y0063451D02*
X0162343Y0060548D01*
X0165290Y0060548D02*
X0166741Y0060548D01*
X0167225Y0061032D01*
X0167225Y0062966D01*
X0166741Y0063451D01*
X0165290Y0063451D01*
X0165290Y0060548D01*
X0165290Y0070548D02*
X0167225Y0070548D01*
X0159375Y0080548D02*
X0159859Y0081032D01*
X0159859Y0081516D01*
X0159375Y0081999D01*
X0158891Y0081999D01*
X0159375Y0081999D02*
X0159859Y0082483D01*
X0159859Y0082967D01*
X0159375Y0083451D01*
X0158407Y0083451D01*
X0157924Y0082967D01*
X0157924Y0081032D02*
X0158407Y0080548D01*
X0159375Y0080548D01*
X0158884Y0078451D02*
X0159367Y0077966D01*
X0159367Y0077000D01*
X0158884Y0076516D01*
X0157433Y0076516D01*
X0157433Y0075548D02*
X0157433Y0078451D01*
X0158884Y0078451D01*
X0156421Y0077966D02*
X0155937Y0078451D01*
X0154970Y0078451D01*
X0154485Y0077966D01*
X0154485Y0076032D01*
X0154970Y0075548D01*
X0155937Y0075548D01*
X0156421Y0076032D01*
X0156421Y0077000D01*
X0155453Y0077000D01*
X0154970Y0073451D02*
X0154485Y0072967D01*
X0154485Y0071032D01*
X0154970Y0070548D01*
X0155937Y0070548D01*
X0156421Y0071032D01*
X0156421Y0071999D01*
X0155453Y0071999D01*
X0156421Y0072967D02*
X0155937Y0073451D01*
X0154970Y0073451D01*
X0154970Y0068451D02*
X0154485Y0067966D01*
X0154485Y0066032D01*
X0154970Y0065548D01*
X0155937Y0065548D01*
X0156421Y0066032D01*
X0156421Y0067000D01*
X0155453Y0067000D01*
X0156421Y0067966D02*
X0155937Y0068451D01*
X0154970Y0068451D01*
X0157433Y0068451D02*
X0157433Y0065548D01*
X0157433Y0066516D02*
X0158884Y0066516D01*
X0159367Y0067000D01*
X0159367Y0067966D01*
X0158884Y0068451D01*
X0157433Y0068451D01*
X0157433Y0070548D02*
X0157433Y0073451D01*
X0158884Y0073451D01*
X0159367Y0072967D01*
X0159367Y0071999D01*
X0158884Y0071516D01*
X0157433Y0071516D01*
X0159881Y0085547D02*
X0160848Y0085547D01*
X0161332Y0086032D01*
X0161332Y0087000D01*
X0160364Y0087000D01*
X0159397Y0087966D02*
X0159397Y0086032D01*
X0159881Y0085547D01*
X0159397Y0087966D02*
X0159881Y0088451D01*
X0160848Y0088451D01*
X0161332Y0087966D01*
X0162343Y0088451D02*
X0164278Y0085547D01*
X0164278Y0088451D01*
X0162343Y0088451D02*
X0162343Y0085547D01*
X0132225Y0086032D02*
X0131741Y0085547D01*
X0130290Y0085547D01*
X0130290Y0088451D01*
X0131741Y0088451D01*
X0132225Y0087966D01*
X0132225Y0086032D01*
X0132225Y0083451D02*
X0130290Y0081516D01*
X0130773Y0081999D02*
X0132225Y0080548D01*
X0131741Y0078451D02*
X0130773Y0078451D01*
X0130290Y0077966D01*
X0130290Y0076032D01*
X0130773Y0075548D01*
X0131741Y0075548D01*
X0132225Y0076032D01*
X0132225Y0077966D01*
X0131741Y0078451D01*
X0130290Y0080548D02*
X0130290Y0083451D01*
X0129278Y0085547D02*
X0129278Y0088451D01*
X0127342Y0088451D02*
X0129278Y0085547D01*
X0127342Y0085547D02*
X0127342Y0088451D01*
X0126332Y0087966D02*
X0125848Y0088451D01*
X0124881Y0088451D01*
X0124397Y0087966D01*
X0124397Y0086032D01*
X0124881Y0085547D01*
X0125848Y0085547D01*
X0126332Y0086032D01*
X0126332Y0087000D01*
X0125364Y0087000D01*
X0124881Y0083451D02*
X0124397Y0082967D01*
X0124397Y0081032D01*
X0124881Y0080548D01*
X0125848Y0080548D01*
X0126332Y0081032D01*
X0127342Y0080548D02*
X0129278Y0080548D01*
X0129292Y0078451D02*
X0128325Y0078451D01*
X0128808Y0078451D02*
X0128808Y0075548D01*
X0128325Y0075548D02*
X0129292Y0075548D01*
X0128795Y0073451D02*
X0127827Y0073451D01*
X0127342Y0072967D01*
X0127342Y0072483D01*
X0127827Y0071999D01*
X0128795Y0071999D01*
X0129278Y0071516D01*
X0129278Y0071032D01*
X0128795Y0070548D01*
X0127827Y0070548D01*
X0127342Y0071032D01*
X0126332Y0071032D02*
X0125848Y0070548D01*
X0124881Y0070548D01*
X0124397Y0071032D01*
X0124397Y0072967D01*
X0124881Y0073451D01*
X0125848Y0073451D01*
X0126332Y0072967D01*
X0126830Y0075548D02*
X0125379Y0075548D01*
X0125379Y0078451D01*
X0126830Y0078451D01*
X0127314Y0077966D01*
X0127314Y0076032D01*
X0126830Y0075548D01*
X0128795Y0073451D02*
X0129278Y0072967D01*
X0130290Y0073451D02*
X0131741Y0073451D01*
X0132225Y0072967D01*
X0132225Y0072483D01*
X0131741Y0071999D01*
X0130290Y0071999D01*
X0130290Y0073451D02*
X0130290Y0070548D01*
X0131741Y0070548D01*
X0132225Y0071032D01*
X0132225Y0071516D01*
X0131741Y0071999D01*
X0131741Y0068451D02*
X0130290Y0068451D01*
X0130290Y0065548D01*
X0131741Y0065548D01*
X0132225Y0066032D01*
X0132225Y0066516D01*
X0131741Y0067000D01*
X0130290Y0067000D01*
X0129278Y0066516D02*
X0129278Y0066032D01*
X0128795Y0065548D01*
X0127827Y0065548D01*
X0127342Y0066032D01*
X0126332Y0066032D02*
X0125848Y0065548D01*
X0124881Y0065548D01*
X0124397Y0066032D01*
X0124397Y0067966D01*
X0124881Y0068451D01*
X0125848Y0068451D01*
X0126332Y0067966D01*
X0127342Y0067966D02*
X0127342Y0067483D01*
X0127827Y0067000D01*
X0128795Y0067000D01*
X0129278Y0066516D01*
X0129278Y0067966D02*
X0128795Y0068451D01*
X0127827Y0068451D01*
X0127342Y0067966D01*
X0127342Y0063451D02*
X0129278Y0060548D01*
X0129278Y0063451D01*
X0130290Y0063451D02*
X0131741Y0063451D01*
X0132225Y0062966D01*
X0132225Y0061032D01*
X0131741Y0060548D01*
X0130290Y0060548D01*
X0130290Y0063451D01*
X0131741Y0067000D02*
X0132225Y0067483D01*
X0132225Y0067966D01*
X0131741Y0068451D01*
X0127342Y0063451D02*
X0127342Y0060548D01*
X0126332Y0061032D02*
X0126332Y0062000D01*
X0125364Y0062000D01*
X0124397Y0062966D02*
X0124397Y0061032D01*
X0124881Y0060548D01*
X0125848Y0060548D01*
X0126332Y0061032D01*
X0126332Y0062966D02*
X0125848Y0063451D01*
X0124881Y0063451D01*
X0124397Y0062966D01*
X0122418Y0067000D02*
X0121449Y0067000D01*
X0121449Y0068451D02*
X0121449Y0065548D01*
X0121449Y0068451D02*
X0123384Y0068451D01*
X0122916Y0075548D02*
X0122432Y0076032D01*
X0122916Y0075548D02*
X0123884Y0075548D01*
X0124367Y0076032D01*
X0124367Y0076516D01*
X0123884Y0077000D01*
X0122916Y0077000D01*
X0122432Y0077483D01*
X0122432Y0077966D01*
X0122916Y0078451D01*
X0123884Y0078451D01*
X0124367Y0077966D01*
X0122902Y0080548D02*
X0121934Y0080548D01*
X0121449Y0081032D01*
X0121934Y0081999D02*
X0122902Y0081999D01*
X0123384Y0081516D01*
X0123384Y0081032D01*
X0122902Y0080548D01*
X0121934Y0081999D02*
X0121449Y0082483D01*
X0121449Y0082967D01*
X0121934Y0083451D01*
X0122902Y0083451D01*
X0123384Y0082967D01*
X0124881Y0083451D02*
X0125848Y0083451D01*
X0126332Y0082967D01*
X0127342Y0083451D02*
X0127342Y0080548D01*
X0127342Y0033451D02*
X0129278Y0030547D01*
X0129278Y0033451D01*
X0130290Y0033451D02*
X0130290Y0030547D01*
X0131741Y0030547D01*
X0132225Y0031032D01*
X0132225Y0032967D01*
X0131741Y0033451D01*
X0130290Y0033451D01*
X0130290Y0028451D02*
X0132225Y0028451D01*
X0131257Y0028451D02*
X0131257Y0025548D01*
X0129278Y0025548D02*
X0129278Y0028451D01*
X0127342Y0028451D02*
X0129278Y0025548D01*
X0129278Y0023451D02*
X0129278Y0020548D01*
X0127342Y0023451D01*
X0127342Y0020548D01*
X0126332Y0021032D02*
X0126332Y0022000D01*
X0125364Y0022000D01*
X0124397Y0022967D02*
X0124397Y0021032D01*
X0124881Y0020548D01*
X0125848Y0020548D01*
X0126332Y0021032D01*
X0126332Y0022967D02*
X0125848Y0023451D01*
X0124881Y0023451D01*
X0124397Y0022967D01*
X0124397Y0025548D02*
X0124397Y0027483D01*
X0125364Y0028451D01*
X0126332Y0027483D01*
X0126332Y0025548D01*
X0127342Y0025548D02*
X0127342Y0028451D01*
X0126332Y0027000D02*
X0124397Y0027000D01*
X0124881Y0030547D02*
X0125848Y0030547D01*
X0126332Y0031032D01*
X0126332Y0032000D01*
X0125364Y0032000D01*
X0124397Y0032967D02*
X0124397Y0031032D01*
X0124881Y0030547D01*
X0124397Y0032967D02*
X0124881Y0033451D01*
X0125848Y0033451D01*
X0126332Y0032967D01*
X0127342Y0033451D02*
X0127342Y0030547D01*
X0130290Y0023451D02*
X0131741Y0023451D01*
X0132225Y0022967D01*
X0132225Y0021032D01*
X0131741Y0020548D01*
X0130290Y0020548D01*
X0130290Y0023451D01*
D27*
X0129085Y0153598D02*
X0122086Y0153598D01*
X0120586Y0155098D01*
X0120586Y0172098D01*
X0122086Y0173598D01*
X0129085Y0173598D01*
X0130586Y0172098D01*
X0132085Y0173598D01*
X0139086Y0173598D01*
X0140586Y0172098D01*
X0142086Y0173598D01*
X0149086Y0173598D01*
X0150586Y0172098D01*
X0152086Y0173598D01*
X0159086Y0173598D01*
X0160586Y0172098D01*
X0162086Y0173598D01*
X0169086Y0173598D01*
X0170586Y0172098D01*
X0170586Y0155098D01*
X0169086Y0153598D01*
X0162086Y0153598D01*
X0160586Y0155098D01*
X0159086Y0153598D01*
X0152086Y0153598D01*
X0150586Y0155098D01*
X0149086Y0153598D01*
X0142086Y0153598D01*
X0140586Y0155098D01*
X0139086Y0153598D01*
X0132085Y0153598D01*
X0130586Y0155098D01*
X0129085Y0153598D01*
G04 next file*
G75*
D28*
X0204700Y0018598D02*
X0259700Y0018598D01*
X0259700Y0098597D01*
X0204700Y0098597D01*
X0204700Y0018598D01*
X0244389Y0146848D02*
X0243638Y0147599D01*
X0244389Y0146848D02*
X0245140Y0146848D01*
X0245891Y0147599D01*
X0245891Y0151352D01*
X0246641Y0151352D02*
X0245140Y0151352D01*
X0248243Y0151352D02*
X0248243Y0146848D01*
X0248243Y0148350D02*
X0250494Y0148350D01*
X0251244Y0149100D01*
X0251244Y0150602D01*
X0250494Y0151352D01*
X0248243Y0151352D01*
X0252846Y0149851D02*
X0254348Y0151352D01*
X0254348Y0146848D01*
X0255848Y0146848D02*
X0252846Y0146848D01*
D29*
X0242994Y0043402D02*
X0241460Y0043402D01*
X0240692Y0042635D01*
X0240692Y0039566D01*
X0243762Y0042635D01*
X0243762Y0039566D01*
X0242994Y0038798D01*
X0241460Y0038798D01*
X0240692Y0039566D01*
X0239157Y0039566D02*
X0239157Y0042635D01*
X0236089Y0039566D01*
X0236856Y0038798D01*
X0238391Y0038798D01*
X0239157Y0039566D01*
X0239157Y0042635D02*
X0238391Y0043402D01*
X0236856Y0043402D01*
X0236089Y0042635D01*
X0236089Y0039566D01*
X0234554Y0039566D02*
X0233787Y0038798D01*
X0232252Y0038798D01*
X0231484Y0039566D01*
X0229950Y0038798D02*
X0226881Y0038798D01*
X0229950Y0041868D01*
X0229950Y0042635D01*
X0229183Y0043402D01*
X0227647Y0043402D01*
X0226881Y0042635D01*
X0225346Y0043402D02*
X0222277Y0043402D01*
X0223810Y0043402D02*
X0223810Y0038798D01*
X0220742Y0038798D02*
X0220742Y0043402D01*
X0219207Y0041868D01*
X0217673Y0043402D01*
X0217673Y0038798D01*
X0216138Y0039566D02*
X0215370Y0038798D01*
X0213836Y0038798D01*
X0213069Y0039566D01*
X0213069Y0042635D01*
X0213836Y0043402D01*
X0215370Y0043402D01*
X0216138Y0042635D01*
X0231484Y0042635D02*
X0232252Y0043402D01*
X0233787Y0043402D01*
X0234554Y0042635D01*
X0234554Y0041868D01*
X0233787Y0041100D01*
X0234554Y0040333D01*
X0234554Y0039566D01*
X0233787Y0041100D02*
X0233019Y0041100D01*
X0242994Y0043402D02*
X0243762Y0042635D01*
X0246064Y0040333D02*
X0245296Y0039566D01*
X0246064Y0038798D01*
X0248366Y0038798D01*
X0248366Y0041100D01*
X0247597Y0041868D01*
X0246064Y0041868D01*
X0246064Y0040333D02*
X0248366Y0040333D01*
D30*
X0248957Y0033451D02*
X0250891Y0030547D01*
X0250891Y0033451D01*
X0251904Y0033451D02*
X0251904Y0030547D01*
X0253355Y0030547D01*
X0253839Y0031032D01*
X0253839Y0032967D01*
X0253355Y0033451D01*
X0251904Y0033451D01*
X0251904Y0028451D02*
X0253355Y0028451D01*
X0253839Y0027966D01*
X0253839Y0026032D01*
X0253355Y0025548D01*
X0251904Y0025548D01*
X0251904Y0028451D01*
X0250891Y0028451D02*
X0250891Y0025548D01*
X0248957Y0028451D01*
X0248957Y0025548D01*
X0247946Y0026032D02*
X0247946Y0027000D01*
X0246978Y0027000D01*
X0246010Y0027966D02*
X0246495Y0028451D01*
X0247461Y0028451D01*
X0247946Y0027966D01*
X0247946Y0026032D02*
X0247461Y0025548D01*
X0246495Y0025548D01*
X0246010Y0026032D01*
X0246010Y0027966D01*
X0246495Y0030547D02*
X0246010Y0031032D01*
X0246010Y0032967D01*
X0246495Y0033451D01*
X0247461Y0033451D01*
X0247946Y0032967D01*
X0247946Y0032000D02*
X0246978Y0032000D01*
X0247946Y0031032D02*
X0247461Y0030547D01*
X0246495Y0030547D01*
X0247946Y0031032D02*
X0247946Y0032000D01*
X0248957Y0033451D02*
X0248957Y0030547D01*
X0248957Y0023451D02*
X0250891Y0020548D01*
X0250891Y0023451D01*
X0251904Y0023451D02*
X0251904Y0020548D01*
X0253355Y0020548D01*
X0253839Y0021032D01*
X0253839Y0022967D01*
X0253355Y0023451D01*
X0251904Y0023451D01*
X0248957Y0023451D02*
X0248957Y0020548D01*
X0247946Y0021032D02*
X0247946Y0022000D01*
X0246978Y0022000D01*
X0246010Y0022967D02*
X0246495Y0023451D01*
X0247461Y0023451D01*
X0247946Y0022967D01*
X0247946Y0021032D02*
X0247461Y0020548D01*
X0246495Y0020548D01*
X0246010Y0021032D01*
X0246010Y0022967D01*
X0246495Y0060548D02*
X0247461Y0060548D01*
X0247946Y0061032D01*
X0247946Y0062000D01*
X0246978Y0062000D01*
X0246010Y0062966D02*
X0246010Y0061032D01*
X0246495Y0060548D01*
X0246010Y0062966D02*
X0246495Y0063451D01*
X0247461Y0063451D01*
X0247946Y0062966D01*
X0248957Y0063451D02*
X0250891Y0060548D01*
X0250891Y0063451D01*
X0250409Y0065548D02*
X0250891Y0066032D01*
X0250891Y0067966D01*
X0250409Y0068451D01*
X0249440Y0068451D01*
X0248957Y0067966D01*
X0248957Y0066032D01*
X0249440Y0065548D01*
X0250409Y0065548D01*
X0251904Y0065548D02*
X0253839Y0065548D01*
X0252870Y0065548D02*
X0252870Y0068451D01*
X0251904Y0067483D01*
X0251904Y0070548D02*
X0253839Y0072483D01*
X0253839Y0072967D01*
X0253355Y0073451D01*
X0252387Y0073451D01*
X0251904Y0072967D01*
X0252387Y0075548D02*
X0251904Y0076032D01*
X0252387Y0075548D02*
X0253355Y0075548D01*
X0253839Y0076032D01*
X0253839Y0076516D01*
X0253355Y0077000D01*
X0252870Y0077000D01*
X0253355Y0077000D02*
X0253839Y0077483D01*
X0253839Y0077966D01*
X0253355Y0078451D01*
X0252387Y0078451D01*
X0251904Y0077966D01*
X0252870Y0080548D02*
X0253839Y0081516D01*
X0253839Y0083451D01*
X0253355Y0085547D02*
X0253839Y0086032D01*
X0253839Y0087966D01*
X0253355Y0088451D01*
X0251904Y0088451D01*
X0251904Y0085547D01*
X0253355Y0085547D01*
X0251904Y0083451D02*
X0251904Y0081516D01*
X0252870Y0080548D01*
X0250891Y0081032D02*
X0250409Y0080548D01*
X0249440Y0080548D01*
X0248957Y0081032D01*
X0247968Y0081032D02*
X0247968Y0080548D01*
X0247484Y0080548D01*
X0247484Y0081032D01*
X0247968Y0081032D01*
X0248957Y0082967D02*
X0249440Y0083451D01*
X0250409Y0083451D01*
X0250891Y0082967D01*
X0250891Y0082483D01*
X0250409Y0081999D01*
X0250891Y0081516D01*
X0250891Y0081032D01*
X0250409Y0081999D02*
X0249925Y0081999D01*
X0250409Y0078451D02*
X0249440Y0078451D01*
X0248957Y0077966D01*
X0248957Y0076032D01*
X0249440Y0075548D01*
X0250409Y0075548D01*
X0250891Y0076032D01*
X0250891Y0077966D01*
X0250409Y0078451D01*
X0247961Y0078451D02*
X0246993Y0078451D01*
X0247477Y0078451D02*
X0247477Y0075548D01*
X0246993Y0075548D02*
X0247961Y0075548D01*
X0247961Y0073451D02*
X0246993Y0073451D01*
X0247477Y0073451D02*
X0247477Y0070548D01*
X0246993Y0070548D02*
X0247961Y0070548D01*
X0248957Y0071032D02*
X0249440Y0070548D01*
X0250409Y0070548D01*
X0250891Y0071032D01*
X0250891Y0072967D01*
X0250409Y0073451D01*
X0249440Y0073451D01*
X0248957Y0072967D01*
X0248957Y0071032D01*
X0247961Y0068451D02*
X0246993Y0068451D01*
X0247477Y0068451D02*
X0247477Y0065548D01*
X0246993Y0065548D02*
X0247961Y0065548D01*
X0248957Y0063451D02*
X0248957Y0060548D01*
X0251904Y0060548D02*
X0253355Y0060548D01*
X0253839Y0061032D01*
X0253839Y0062966D01*
X0253355Y0063451D01*
X0251904Y0063451D01*
X0251904Y0060548D01*
X0251904Y0070548D02*
X0253839Y0070548D01*
X0245989Y0080548D02*
X0246473Y0081032D01*
X0246473Y0081516D01*
X0245989Y0081999D01*
X0245505Y0081999D01*
X0245989Y0081999D02*
X0246473Y0082483D01*
X0246473Y0082967D01*
X0245989Y0083451D01*
X0245021Y0083451D01*
X0244538Y0082967D01*
X0244538Y0081032D02*
X0245021Y0080548D01*
X0245989Y0080548D01*
X0245498Y0078451D02*
X0245981Y0077966D01*
X0245981Y0077000D01*
X0245498Y0076516D01*
X0244047Y0076516D01*
X0244047Y0075548D02*
X0244047Y0078451D01*
X0245498Y0078451D01*
X0243034Y0077966D02*
X0242551Y0078451D01*
X0241584Y0078451D01*
X0241100Y0077966D01*
X0241100Y0076032D01*
X0241584Y0075548D01*
X0242551Y0075548D01*
X0243034Y0076032D01*
X0243034Y0077000D01*
X0242067Y0077000D01*
X0241584Y0073451D02*
X0241100Y0072967D01*
X0241100Y0071032D01*
X0241584Y0070548D01*
X0242551Y0070548D01*
X0243034Y0071032D01*
X0243034Y0071999D01*
X0242067Y0071999D01*
X0243034Y0072967D02*
X0242551Y0073451D01*
X0241584Y0073451D01*
X0241584Y0068451D02*
X0241100Y0067966D01*
X0241100Y0066032D01*
X0241584Y0065548D01*
X0242551Y0065548D01*
X0243034Y0066032D01*
X0243034Y0067000D01*
X0242067Y0067000D01*
X0243034Y0067966D02*
X0242551Y0068451D01*
X0241584Y0068451D01*
X0244047Y0068451D02*
X0244047Y0065548D01*
X0244047Y0066516D02*
X0245498Y0066516D01*
X0245981Y0067000D01*
X0245981Y0067966D01*
X0245498Y0068451D01*
X0244047Y0068451D01*
X0244047Y0070548D02*
X0244047Y0073451D01*
X0245498Y0073451D01*
X0245981Y0072967D01*
X0245981Y0071999D01*
X0245498Y0071516D01*
X0244047Y0071516D01*
X0246495Y0085547D02*
X0247461Y0085547D01*
X0247946Y0086032D01*
X0247946Y0087000D01*
X0246978Y0087000D01*
X0246010Y0087966D02*
X0246010Y0086032D01*
X0246495Y0085547D01*
X0246010Y0087966D02*
X0246495Y0088451D01*
X0247461Y0088451D01*
X0247946Y0087966D01*
X0248957Y0088451D02*
X0250891Y0085547D01*
X0250891Y0088451D01*
X0248957Y0088451D02*
X0248957Y0085547D01*
X0218839Y0086032D02*
X0218355Y0085547D01*
X0216904Y0085547D01*
X0216904Y0088451D01*
X0218355Y0088451D01*
X0218839Y0087966D01*
X0218839Y0086032D01*
X0218839Y0083451D02*
X0216904Y0081516D01*
X0217388Y0081999D02*
X0218839Y0080548D01*
X0218355Y0078451D02*
X0217388Y0078451D01*
X0216904Y0077966D01*
X0216904Y0076032D01*
X0217388Y0075548D01*
X0218355Y0075548D01*
X0218839Y0076032D01*
X0218839Y0077966D01*
X0218355Y0078451D01*
X0216904Y0080548D02*
X0216904Y0083451D01*
X0215892Y0085547D02*
X0215892Y0088451D01*
X0213957Y0088451D02*
X0215892Y0085547D01*
X0213957Y0085547D02*
X0213957Y0088451D01*
X0212946Y0087966D02*
X0212462Y0088451D01*
X0211495Y0088451D01*
X0211011Y0087966D01*
X0211011Y0086032D01*
X0211495Y0085547D01*
X0212462Y0085547D01*
X0212946Y0086032D01*
X0212946Y0087000D01*
X0211978Y0087000D01*
X0211495Y0083451D02*
X0211011Y0082967D01*
X0211011Y0081032D01*
X0211495Y0080548D01*
X0212462Y0080548D01*
X0212946Y0081032D01*
X0213957Y0080548D02*
X0215892Y0080548D01*
X0215906Y0078451D02*
X0214940Y0078451D01*
X0215423Y0078451D02*
X0215423Y0075548D01*
X0214940Y0075548D02*
X0215906Y0075548D01*
X0215409Y0073451D02*
X0214441Y0073451D01*
X0213957Y0072967D01*
X0213957Y0072483D01*
X0214441Y0071999D01*
X0215409Y0071999D01*
X0215892Y0071516D01*
X0215892Y0071032D01*
X0215409Y0070548D01*
X0214441Y0070548D01*
X0213957Y0071032D01*
X0212946Y0071032D02*
X0212462Y0070548D01*
X0211495Y0070548D01*
X0211011Y0071032D01*
X0211011Y0072967D01*
X0211495Y0073451D01*
X0212462Y0073451D01*
X0212946Y0072967D01*
X0213444Y0075548D02*
X0211993Y0075548D01*
X0211993Y0078451D01*
X0213444Y0078451D01*
X0213927Y0077966D01*
X0213927Y0076032D01*
X0213444Y0075548D01*
X0215409Y0073451D02*
X0215892Y0072967D01*
X0216904Y0073451D02*
X0218355Y0073451D01*
X0218839Y0072967D01*
X0218839Y0072483D01*
X0218355Y0071999D01*
X0216904Y0071999D01*
X0216904Y0073451D02*
X0216904Y0070548D01*
X0218355Y0070548D01*
X0218839Y0071032D01*
X0218839Y0071516D01*
X0218355Y0071999D01*
X0218355Y0068451D02*
X0216904Y0068451D01*
X0216904Y0065548D01*
X0218355Y0065548D01*
X0218839Y0066032D01*
X0218839Y0066516D01*
X0218355Y0067000D01*
X0216904Y0067000D01*
X0215892Y0066516D02*
X0215892Y0066032D01*
X0215409Y0065548D01*
X0214441Y0065548D01*
X0213957Y0066032D01*
X0212946Y0066032D02*
X0212462Y0065548D01*
X0211495Y0065548D01*
X0211011Y0066032D01*
X0211011Y0067966D01*
X0211495Y0068451D01*
X0212462Y0068451D01*
X0212946Y0067966D01*
X0213957Y0067966D02*
X0213957Y0067483D01*
X0214441Y0067000D01*
X0215409Y0067000D01*
X0215892Y0066516D01*
X0215892Y0067966D02*
X0215409Y0068451D01*
X0214441Y0068451D01*
X0213957Y0067966D01*
X0213957Y0063451D02*
X0215892Y0060548D01*
X0215892Y0063451D01*
X0216904Y0063451D02*
X0218355Y0063451D01*
X0218839Y0062966D01*
X0218839Y0061032D01*
X0218355Y0060548D01*
X0216904Y0060548D01*
X0216904Y0063451D01*
X0218355Y0067000D02*
X0218839Y0067483D01*
X0218839Y0067966D01*
X0218355Y0068451D01*
X0213957Y0063451D02*
X0213957Y0060548D01*
X0212946Y0061032D02*
X0212946Y0062000D01*
X0211978Y0062000D01*
X0211011Y0062966D02*
X0211011Y0061032D01*
X0211495Y0060548D01*
X0212462Y0060548D01*
X0212946Y0061032D01*
X0212946Y0062966D02*
X0212462Y0063451D01*
X0211495Y0063451D01*
X0211011Y0062966D01*
X0209032Y0067000D02*
X0208063Y0067000D01*
X0208063Y0068451D02*
X0208063Y0065548D01*
X0208063Y0068451D02*
X0209999Y0068451D01*
X0209530Y0075548D02*
X0209046Y0076032D01*
X0209530Y0075548D02*
X0210497Y0075548D01*
X0210981Y0076032D01*
X0210981Y0076516D01*
X0210497Y0077000D01*
X0209530Y0077000D01*
X0209046Y0077483D01*
X0209046Y0077966D01*
X0209530Y0078451D01*
X0210497Y0078451D01*
X0210981Y0077966D01*
X0209516Y0080548D02*
X0208548Y0080548D01*
X0208063Y0081032D01*
X0208548Y0081999D02*
X0209516Y0081999D01*
X0209999Y0081516D01*
X0209999Y0081032D01*
X0209516Y0080548D01*
X0208548Y0081999D02*
X0208063Y0082483D01*
X0208063Y0082967D01*
X0208548Y0083451D01*
X0209516Y0083451D01*
X0209999Y0082967D01*
X0211495Y0083451D02*
X0212462Y0083451D01*
X0212946Y0082967D01*
X0213957Y0083451D02*
X0213957Y0080548D01*
X0213957Y0033451D02*
X0215892Y0030547D01*
X0215892Y0033451D01*
X0216904Y0033451D02*
X0216904Y0030547D01*
X0218355Y0030547D01*
X0218839Y0031032D01*
X0218839Y0032967D01*
X0218355Y0033451D01*
X0216904Y0033451D01*
X0216904Y0028451D02*
X0218839Y0028451D01*
X0217871Y0028451D02*
X0217871Y0025548D01*
X0215892Y0025548D02*
X0215892Y0028451D01*
X0213957Y0028451D02*
X0215892Y0025548D01*
X0215892Y0023451D02*
X0215892Y0020548D01*
X0213957Y0023451D01*
X0213957Y0020548D01*
X0212946Y0021032D02*
X0212946Y0022000D01*
X0211978Y0022000D01*
X0211011Y0022967D02*
X0211011Y0021032D01*
X0211495Y0020548D01*
X0212462Y0020548D01*
X0212946Y0021032D01*
X0212946Y0022967D02*
X0212462Y0023451D01*
X0211495Y0023451D01*
X0211011Y0022967D01*
X0211011Y0025548D02*
X0211011Y0027483D01*
X0211978Y0028451D01*
X0212946Y0027483D01*
X0212946Y0025548D01*
X0213957Y0025548D02*
X0213957Y0028451D01*
X0212946Y0027000D02*
X0211011Y0027000D01*
X0211495Y0030547D02*
X0212462Y0030547D01*
X0212946Y0031032D01*
X0212946Y0032000D01*
X0211978Y0032000D01*
X0211011Y0032967D02*
X0211011Y0031032D01*
X0211495Y0030547D01*
X0211011Y0032967D02*
X0211495Y0033451D01*
X0212462Y0033451D01*
X0212946Y0032967D01*
X0213957Y0033451D02*
X0213957Y0030547D01*
X0216904Y0023451D02*
X0218355Y0023451D01*
X0218839Y0022967D01*
X0218839Y0021032D01*
X0218355Y0020548D01*
X0216904Y0020548D01*
X0216904Y0023451D01*
D31*
X0215700Y0153598D02*
X0208700Y0153598D01*
X0207200Y0155098D01*
X0207200Y0172098D01*
X0208700Y0173598D01*
X0215700Y0173598D01*
X0217200Y0172098D01*
X0218699Y0173598D01*
X0225700Y0173598D01*
X0227199Y0172098D01*
X0228700Y0173598D01*
X0235700Y0173598D01*
X0237200Y0172098D01*
X0238700Y0173598D01*
X0245699Y0173598D01*
X0247200Y0172098D01*
X0248700Y0173598D01*
X0255700Y0173598D01*
X0257200Y0172098D01*
X0257200Y0155098D01*
X0255700Y0153598D01*
X0248700Y0153598D01*
X0247200Y0155098D01*
X0245699Y0153598D01*
X0238700Y0153598D01*
X0237200Y0155098D01*
X0235700Y0153598D01*
X0228700Y0153598D01*
X0227199Y0155098D01*
X0225700Y0153598D01*
X0218699Y0153598D01*
X0217200Y0155098D01*
X0215700Y0153598D01*
G04 next file*
G75*
D32*
X0291314Y0018598D02*
X0346314Y0018598D01*
X0346314Y0098597D01*
X0291314Y0098597D01*
X0291314Y0018598D01*
X0331003Y0146848D02*
X0330253Y0147599D01*
X0331003Y0146848D02*
X0331754Y0146848D01*
X0332505Y0147599D01*
X0332505Y0151352D01*
X0333255Y0151352D02*
X0331754Y0151352D01*
X0334857Y0151352D02*
X0334857Y0146848D01*
X0334857Y0148350D02*
X0337108Y0148350D01*
X0337858Y0149100D01*
X0337858Y0150602D01*
X0337108Y0151352D01*
X0334857Y0151352D01*
X0339459Y0149851D02*
X0340962Y0151352D01*
X0340962Y0146848D01*
X0342463Y0146848D02*
X0339459Y0146848D01*
D33*
X0329608Y0043402D02*
X0328074Y0043402D01*
X0327306Y0042635D01*
X0327306Y0039566D01*
X0330376Y0042635D01*
X0330376Y0039566D01*
X0329608Y0038798D01*
X0328074Y0038798D01*
X0327306Y0039566D01*
X0325772Y0039566D02*
X0325772Y0042635D01*
X0322703Y0039566D01*
X0323470Y0038798D01*
X0325005Y0038798D01*
X0325772Y0039566D01*
X0325772Y0042635D02*
X0325005Y0043402D01*
X0323470Y0043402D01*
X0322703Y0042635D01*
X0322703Y0039566D01*
X0321168Y0039566D02*
X0320401Y0038798D01*
X0318866Y0038798D01*
X0318099Y0039566D01*
X0316564Y0038798D02*
X0313495Y0038798D01*
X0316564Y0041868D01*
X0316564Y0042635D01*
X0315797Y0043402D01*
X0314262Y0043402D01*
X0313495Y0042635D01*
X0311960Y0043402D02*
X0308891Y0043402D01*
X0310425Y0043402D02*
X0310425Y0038798D01*
X0307356Y0038798D02*
X0307356Y0043402D01*
X0305821Y0041868D01*
X0304287Y0043402D01*
X0304287Y0038798D01*
X0302752Y0039566D02*
X0301985Y0038798D01*
X0300450Y0038798D01*
X0299683Y0039566D01*
X0299683Y0042635D01*
X0300450Y0043402D01*
X0301985Y0043402D01*
X0302752Y0042635D01*
X0318099Y0042635D02*
X0318866Y0043402D01*
X0320401Y0043402D01*
X0321168Y0042635D01*
X0321168Y0041868D01*
X0320401Y0041100D01*
X0321168Y0040333D01*
X0321168Y0039566D01*
X0320401Y0041100D02*
X0319633Y0041100D01*
X0329608Y0043402D02*
X0330376Y0042635D01*
X0332678Y0040333D02*
X0331910Y0039566D01*
X0332678Y0038798D01*
X0334980Y0038798D01*
X0334980Y0041100D01*
X0334212Y0041868D01*
X0332678Y0041868D01*
X0332678Y0040333D02*
X0334980Y0040333D01*
D34*
X0335571Y0033451D02*
X0337506Y0030547D01*
X0337506Y0033451D01*
X0338518Y0033451D02*
X0338518Y0030547D01*
X0339969Y0030547D01*
X0340453Y0031032D01*
X0340453Y0032967D01*
X0339969Y0033451D01*
X0338518Y0033451D01*
X0338518Y0028451D02*
X0339969Y0028451D01*
X0340453Y0027966D01*
X0340453Y0026032D01*
X0339969Y0025548D01*
X0338518Y0025548D01*
X0338518Y0028451D01*
X0337506Y0028451D02*
X0337506Y0025548D01*
X0335571Y0028451D01*
X0335571Y0025548D01*
X0334560Y0026032D02*
X0334560Y0027000D01*
X0333592Y0027000D01*
X0332624Y0027966D02*
X0333109Y0028451D01*
X0334076Y0028451D01*
X0334560Y0027966D01*
X0334560Y0026032D02*
X0334076Y0025548D01*
X0333109Y0025548D01*
X0332624Y0026032D01*
X0332624Y0027966D01*
X0333109Y0030547D02*
X0332624Y0031032D01*
X0332624Y0032967D01*
X0333109Y0033451D01*
X0334076Y0033451D01*
X0334560Y0032967D01*
X0334560Y0032000D02*
X0333592Y0032000D01*
X0334560Y0031032D02*
X0334076Y0030547D01*
X0333109Y0030547D01*
X0334560Y0031032D02*
X0334560Y0032000D01*
X0335571Y0033451D02*
X0335571Y0030547D01*
X0335571Y0023451D02*
X0337506Y0020548D01*
X0337506Y0023451D01*
X0338518Y0023451D02*
X0338518Y0020548D01*
X0339969Y0020548D01*
X0340453Y0021032D01*
X0340453Y0022967D01*
X0339969Y0023451D01*
X0338518Y0023451D01*
X0335571Y0023451D02*
X0335571Y0020548D01*
X0334560Y0021032D02*
X0334560Y0022000D01*
X0333592Y0022000D01*
X0332624Y0022967D02*
X0333109Y0023451D01*
X0334076Y0023451D01*
X0334560Y0022967D01*
X0334560Y0021032D02*
X0334076Y0020548D01*
X0333109Y0020548D01*
X0332624Y0021032D01*
X0332624Y0022967D01*
X0333109Y0060548D02*
X0334076Y0060548D01*
X0334560Y0061032D01*
X0334560Y0062000D01*
X0333592Y0062000D01*
X0332624Y0062966D02*
X0332624Y0061032D01*
X0333109Y0060548D01*
X0332624Y0062966D02*
X0333109Y0063451D01*
X0334076Y0063451D01*
X0334560Y0062966D01*
X0335571Y0063451D02*
X0337506Y0060548D01*
X0337506Y0063451D01*
X0337023Y0065548D02*
X0337506Y0066032D01*
X0337506Y0067966D01*
X0337023Y0068451D01*
X0336055Y0068451D01*
X0335571Y0067966D01*
X0335571Y0066032D01*
X0336055Y0065548D01*
X0337023Y0065548D01*
X0338518Y0065548D02*
X0340453Y0065548D01*
X0339485Y0065548D02*
X0339485Y0068451D01*
X0338518Y0067483D01*
X0338518Y0070548D02*
X0340453Y0072483D01*
X0340453Y0072967D01*
X0339969Y0073451D01*
X0339002Y0073451D01*
X0338518Y0072967D01*
X0339002Y0075548D02*
X0338518Y0076032D01*
X0339002Y0075548D02*
X0339969Y0075548D01*
X0340453Y0076032D01*
X0340453Y0076516D01*
X0339969Y0077000D01*
X0339485Y0077000D01*
X0339969Y0077000D02*
X0340453Y0077483D01*
X0340453Y0077966D01*
X0339969Y0078451D01*
X0339002Y0078451D01*
X0338518Y0077966D01*
X0339485Y0080548D02*
X0340453Y0081516D01*
X0340453Y0083451D01*
X0339969Y0085547D02*
X0340453Y0086032D01*
X0340453Y0087966D01*
X0339969Y0088451D01*
X0338518Y0088451D01*
X0338518Y0085547D01*
X0339969Y0085547D01*
X0338518Y0083451D02*
X0338518Y0081516D01*
X0339485Y0080548D01*
X0337506Y0081032D02*
X0337023Y0080548D01*
X0336055Y0080548D01*
X0335571Y0081032D01*
X0334582Y0081032D02*
X0334582Y0080548D01*
X0334098Y0080548D01*
X0334098Y0081032D01*
X0334582Y0081032D01*
X0335571Y0082967D02*
X0336055Y0083451D01*
X0337023Y0083451D01*
X0337506Y0082967D01*
X0337506Y0082483D01*
X0337023Y0081999D01*
X0337506Y0081516D01*
X0337506Y0081032D01*
X0337023Y0081999D02*
X0336539Y0081999D01*
X0337023Y0078451D02*
X0336055Y0078451D01*
X0335571Y0077966D01*
X0335571Y0076032D01*
X0336055Y0075548D01*
X0337023Y0075548D01*
X0337506Y0076032D01*
X0337506Y0077966D01*
X0337023Y0078451D01*
X0334575Y0078451D02*
X0333607Y0078451D01*
X0334091Y0078451D02*
X0334091Y0075548D01*
X0333607Y0075548D02*
X0334575Y0075548D01*
X0334575Y0073451D02*
X0333607Y0073451D01*
X0334091Y0073451D02*
X0334091Y0070548D01*
X0333607Y0070548D02*
X0334575Y0070548D01*
X0335571Y0071032D02*
X0336055Y0070548D01*
X0337023Y0070548D01*
X0337506Y0071032D01*
X0337506Y0072967D01*
X0337023Y0073451D01*
X0336055Y0073451D01*
X0335571Y0072967D01*
X0335571Y0071032D01*
X0334575Y0068451D02*
X0333607Y0068451D01*
X0334091Y0068451D02*
X0334091Y0065548D01*
X0333607Y0065548D02*
X0334575Y0065548D01*
X0335571Y0063451D02*
X0335571Y0060548D01*
X0338518Y0060548D02*
X0339969Y0060548D01*
X0340453Y0061032D01*
X0340453Y0062966D01*
X0339969Y0063451D01*
X0338518Y0063451D01*
X0338518Y0060548D01*
X0338518Y0070548D02*
X0340453Y0070548D01*
X0332603Y0080548D02*
X0333087Y0081032D01*
X0333087Y0081516D01*
X0332603Y0081999D01*
X0332119Y0081999D01*
X0332603Y0081999D02*
X0333087Y0082483D01*
X0333087Y0082967D01*
X0332603Y0083451D01*
X0331635Y0083451D01*
X0331152Y0082967D01*
X0331152Y0081032D02*
X0331635Y0080548D01*
X0332603Y0080548D01*
X0332112Y0078451D02*
X0332595Y0077966D01*
X0332595Y0077000D01*
X0332112Y0076516D01*
X0330661Y0076516D01*
X0330661Y0075548D02*
X0330661Y0078451D01*
X0332112Y0078451D01*
X0329649Y0077966D02*
X0329165Y0078451D01*
X0328198Y0078451D01*
X0327714Y0077966D01*
X0327714Y0076032D01*
X0328198Y0075548D01*
X0329165Y0075548D01*
X0329649Y0076032D01*
X0329649Y0077000D01*
X0328681Y0077000D01*
X0328198Y0073451D02*
X0327714Y0072967D01*
X0327714Y0071032D01*
X0328198Y0070548D01*
X0329165Y0070548D01*
X0329649Y0071032D01*
X0329649Y0071999D01*
X0328681Y0071999D01*
X0329649Y0072967D02*
X0329165Y0073451D01*
X0328198Y0073451D01*
X0328198Y0068451D02*
X0327714Y0067966D01*
X0327714Y0066032D01*
X0328198Y0065548D01*
X0329165Y0065548D01*
X0329649Y0066032D01*
X0329649Y0067000D01*
X0328681Y0067000D01*
X0329649Y0067966D02*
X0329165Y0068451D01*
X0328198Y0068451D01*
X0330661Y0068451D02*
X0330661Y0065548D01*
X0330661Y0066516D02*
X0332112Y0066516D01*
X0332595Y0067000D01*
X0332595Y0067966D01*
X0332112Y0068451D01*
X0330661Y0068451D01*
X0330661Y0070548D02*
X0330661Y0073451D01*
X0332112Y0073451D01*
X0332595Y0072967D01*
X0332595Y0071999D01*
X0332112Y0071516D01*
X0330661Y0071516D01*
X0333109Y0085547D02*
X0334076Y0085547D01*
X0334560Y0086032D01*
X0334560Y0087000D01*
X0333592Y0087000D01*
X0332624Y0087966D02*
X0332624Y0086032D01*
X0333109Y0085547D01*
X0332624Y0087966D02*
X0333109Y0088451D01*
X0334076Y0088451D01*
X0334560Y0087966D01*
X0335571Y0088451D02*
X0337506Y0085547D01*
X0337506Y0088451D01*
X0335571Y0088451D02*
X0335571Y0085547D01*
X0305453Y0086032D02*
X0304969Y0085547D01*
X0303518Y0085547D01*
X0303518Y0088451D01*
X0304969Y0088451D01*
X0305453Y0087966D01*
X0305453Y0086032D01*
X0305453Y0083451D02*
X0303518Y0081516D01*
X0304002Y0081999D02*
X0305453Y0080548D01*
X0304969Y0078451D02*
X0304002Y0078451D01*
X0303518Y0077966D01*
X0303518Y0076032D01*
X0304002Y0075548D01*
X0304969Y0075548D01*
X0305453Y0076032D01*
X0305453Y0077966D01*
X0304969Y0078451D01*
X0303518Y0080548D02*
X0303518Y0083451D01*
X0302506Y0085547D02*
X0302506Y0088451D01*
X0300571Y0088451D02*
X0302506Y0085547D01*
X0300571Y0085547D02*
X0300571Y0088451D01*
X0299560Y0087966D02*
X0299076Y0088451D01*
X0298109Y0088451D01*
X0297624Y0087966D01*
X0297624Y0086032D01*
X0298109Y0085547D01*
X0299076Y0085547D01*
X0299560Y0086032D01*
X0299560Y0087000D01*
X0298591Y0087000D01*
X0298109Y0083451D02*
X0297624Y0082967D01*
X0297624Y0081032D01*
X0298109Y0080548D01*
X0299076Y0080548D01*
X0299560Y0081032D01*
X0300571Y0080548D02*
X0302506Y0080548D01*
X0302521Y0078451D02*
X0301554Y0078451D01*
X0302037Y0078451D02*
X0302037Y0075548D01*
X0301554Y0075548D02*
X0302521Y0075548D01*
X0302023Y0073451D02*
X0301055Y0073451D01*
X0300571Y0072967D01*
X0300571Y0072483D01*
X0301055Y0071999D01*
X0302023Y0071999D01*
X0302506Y0071516D01*
X0302506Y0071032D01*
X0302023Y0070548D01*
X0301055Y0070548D01*
X0300571Y0071032D01*
X0299560Y0071032D02*
X0299076Y0070548D01*
X0298109Y0070548D01*
X0297624Y0071032D01*
X0297624Y0072967D01*
X0298109Y0073451D01*
X0299076Y0073451D01*
X0299560Y0072967D01*
X0300057Y0075548D02*
X0298607Y0075548D01*
X0298607Y0078451D01*
X0300057Y0078451D01*
X0300542Y0077966D01*
X0300542Y0076032D01*
X0300057Y0075548D01*
X0302023Y0073451D02*
X0302506Y0072967D01*
X0303518Y0073451D02*
X0304969Y0073451D01*
X0305453Y0072967D01*
X0305453Y0072483D01*
X0304969Y0071999D01*
X0303518Y0071999D01*
X0303518Y0073451D02*
X0303518Y0070548D01*
X0304969Y0070548D01*
X0305453Y0071032D01*
X0305453Y0071516D01*
X0304969Y0071999D01*
X0304969Y0068451D02*
X0303518Y0068451D01*
X0303518Y0065548D01*
X0304969Y0065548D01*
X0305453Y0066032D01*
X0305453Y0066516D01*
X0304969Y0067000D01*
X0303518Y0067000D01*
X0302506Y0066516D02*
X0302506Y0066032D01*
X0302023Y0065548D01*
X0301055Y0065548D01*
X0300571Y0066032D01*
X0299560Y0066032D02*
X0299076Y0065548D01*
X0298109Y0065548D01*
X0297624Y0066032D01*
X0297624Y0067966D01*
X0298109Y0068451D01*
X0299076Y0068451D01*
X0299560Y0067966D01*
X0300571Y0067966D02*
X0300571Y0067483D01*
X0301055Y0067000D01*
X0302023Y0067000D01*
X0302506Y0066516D01*
X0302506Y0067966D02*
X0302023Y0068451D01*
X0301055Y0068451D01*
X0300571Y0067966D01*
X0300571Y0063451D02*
X0302506Y0060548D01*
X0302506Y0063451D01*
X0303518Y0063451D02*
X0304969Y0063451D01*
X0305453Y0062966D01*
X0305453Y0061032D01*
X0304969Y0060548D01*
X0303518Y0060548D01*
X0303518Y0063451D01*
X0304969Y0067000D02*
X0305453Y0067483D01*
X0305453Y0067966D01*
X0304969Y0068451D01*
X0300571Y0063451D02*
X0300571Y0060548D01*
X0299560Y0061032D02*
X0299560Y0062000D01*
X0298591Y0062000D01*
X0297624Y0062966D02*
X0297624Y0061032D01*
X0298109Y0060548D01*
X0299076Y0060548D01*
X0299560Y0061032D01*
X0299560Y0062966D02*
X0299076Y0063451D01*
X0298109Y0063451D01*
X0297624Y0062966D01*
X0295646Y0067000D02*
X0294678Y0067000D01*
X0294678Y0068451D02*
X0294678Y0065548D01*
X0294678Y0068451D02*
X0296613Y0068451D01*
X0296144Y0075548D02*
X0295661Y0076032D01*
X0296144Y0075548D02*
X0297112Y0075548D01*
X0297595Y0076032D01*
X0297595Y0076516D01*
X0297112Y0077000D01*
X0296144Y0077000D01*
X0295661Y0077483D01*
X0295661Y0077966D01*
X0296144Y0078451D01*
X0297112Y0078451D01*
X0297595Y0077966D01*
X0296129Y0080548D02*
X0295162Y0080548D01*
X0294678Y0081032D01*
X0295162Y0081999D02*
X0296129Y0081999D01*
X0296613Y0081516D01*
X0296613Y0081032D01*
X0296129Y0080548D01*
X0295162Y0081999D02*
X0294678Y0082483D01*
X0294678Y0082967D01*
X0295162Y0083451D01*
X0296129Y0083451D01*
X0296613Y0082967D01*
X0298109Y0083451D02*
X0299076Y0083451D01*
X0299560Y0082967D01*
X0300571Y0083451D02*
X0300571Y0080548D01*
X0300571Y0033451D02*
X0302506Y0030547D01*
X0302506Y0033451D01*
X0303518Y0033451D02*
X0303518Y0030547D01*
X0304969Y0030547D01*
X0305453Y0031032D01*
X0305453Y0032967D01*
X0304969Y0033451D01*
X0303518Y0033451D01*
X0303518Y0028451D02*
X0305453Y0028451D01*
X0304485Y0028451D02*
X0304485Y0025548D01*
X0302506Y0025548D02*
X0302506Y0028451D01*
X0300571Y0028451D02*
X0302506Y0025548D01*
X0302506Y0023451D02*
X0302506Y0020548D01*
X0300571Y0023451D01*
X0300571Y0020548D01*
X0299560Y0021032D02*
X0299560Y0022000D01*
X0298591Y0022000D01*
X0297624Y0022967D02*
X0297624Y0021032D01*
X0298109Y0020548D01*
X0299076Y0020548D01*
X0299560Y0021032D01*
X0299560Y0022967D02*
X0299076Y0023451D01*
X0298109Y0023451D01*
X0297624Y0022967D01*
X0297624Y0025548D02*
X0297624Y0027483D01*
X0298591Y0028451D01*
X0299560Y0027483D01*
X0299560Y0025548D01*
X0300571Y0025548D02*
X0300571Y0028451D01*
X0299560Y0027000D02*
X0297624Y0027000D01*
X0298109Y0030547D02*
X0299076Y0030547D01*
X0299560Y0031032D01*
X0299560Y0032000D01*
X0298591Y0032000D01*
X0297624Y0032967D02*
X0297624Y0031032D01*
X0298109Y0030547D01*
X0297624Y0032967D02*
X0298109Y0033451D01*
X0299076Y0033451D01*
X0299560Y0032967D01*
X0300571Y0033451D02*
X0300571Y0030547D01*
X0303518Y0023451D02*
X0304969Y0023451D01*
X0305453Y0022967D01*
X0305453Y0021032D01*
X0304969Y0020548D01*
X0303518Y0020548D01*
X0303518Y0023451D01*
D35*
X0302314Y0153598D02*
X0295314Y0153598D01*
X0293814Y0155098D01*
X0293814Y0172098D01*
X0295314Y0173598D01*
X0302314Y0173598D01*
X0303814Y0172098D01*
X0305313Y0173598D01*
X0312314Y0173598D01*
X0313814Y0172098D01*
X0315314Y0173598D01*
X0322313Y0173598D01*
X0323814Y0172098D01*
X0325314Y0173598D01*
X0332314Y0173598D01*
X0333813Y0172098D01*
X0335314Y0173598D01*
X0342314Y0173598D01*
X0343814Y0172098D01*
X0343814Y0155098D01*
X0342314Y0153598D01*
X0335314Y0153598D01*
X0333813Y0155098D01*
X0332314Y0153598D01*
X0325314Y0153598D01*
X0323814Y0155098D01*
X0322313Y0153598D01*
X0315314Y0153598D01*
X0313814Y0155098D01*
X0312314Y0153598D01*
X0305313Y0153598D01*
X0303814Y0155098D01*
X0302314Y0153598D01*
G04 next file*
G75*
D36*
X0031472Y0195763D02*
X0086472Y0195763D01*
X0086472Y0275762D01*
X0031472Y0275762D01*
X0031472Y0195763D01*
X0071161Y0324013D02*
X0070411Y0324764D01*
X0071161Y0324013D02*
X0071912Y0324013D01*
X0072663Y0324764D01*
X0072663Y0328517D01*
X0073413Y0328517D02*
X0071912Y0328517D01*
X0075015Y0328517D02*
X0075015Y0324013D01*
X0075015Y0325515D02*
X0077266Y0325515D01*
X0078017Y0326265D01*
X0078017Y0327766D01*
X0077266Y0328517D01*
X0075015Y0328517D01*
X0079618Y0327016D02*
X0081120Y0328517D01*
X0081120Y0324013D01*
X0082620Y0324013D02*
X0079618Y0324013D01*
D37*
X0069765Y0220567D02*
X0068232Y0220567D01*
X0067464Y0219800D01*
X0067464Y0216731D01*
X0070534Y0219800D01*
X0070534Y0216731D01*
X0069765Y0215963D01*
X0068232Y0215963D01*
X0067464Y0216731D01*
X0065929Y0216731D02*
X0065929Y0219800D01*
X0062861Y0216731D01*
X0063627Y0215963D01*
X0065163Y0215963D01*
X0065929Y0216731D01*
X0065929Y0219800D02*
X0065163Y0220567D01*
X0063627Y0220567D01*
X0062861Y0219800D01*
X0062861Y0216731D01*
X0061326Y0216731D02*
X0060558Y0215963D01*
X0059024Y0215963D01*
X0058257Y0216731D01*
X0056721Y0215963D02*
X0053652Y0215963D01*
X0056721Y0219033D01*
X0056721Y0219800D01*
X0055955Y0220567D01*
X0054420Y0220567D01*
X0053652Y0219800D01*
X0052118Y0220567D02*
X0049049Y0220567D01*
X0050583Y0220567D02*
X0050583Y0215963D01*
X0047514Y0215963D02*
X0047514Y0220567D01*
X0045978Y0219033D01*
X0044445Y0220567D01*
X0044445Y0215963D01*
X0042910Y0216731D02*
X0042143Y0215963D01*
X0040608Y0215963D01*
X0039841Y0216731D01*
X0039841Y0219800D01*
X0040608Y0220567D01*
X0042143Y0220567D01*
X0042910Y0219800D01*
X0058257Y0219800D02*
X0059024Y0220567D01*
X0060558Y0220567D01*
X0061326Y0219800D01*
X0061326Y0219033D01*
X0060558Y0218265D01*
X0061326Y0217498D01*
X0061326Y0216731D01*
X0060558Y0218265D02*
X0059791Y0218265D01*
X0069765Y0220567D02*
X0070534Y0219800D01*
X0072836Y0217498D02*
X0072068Y0216731D01*
X0072836Y0215963D01*
X0075138Y0215963D01*
X0075138Y0218265D01*
X0074370Y0219033D01*
X0072836Y0219033D01*
X0072836Y0217498D02*
X0075138Y0217498D01*
D38*
X0075729Y0210616D02*
X0077664Y0207713D01*
X0077664Y0210616D01*
X0078676Y0210616D02*
X0078676Y0207713D01*
X0080127Y0207713D01*
X0080611Y0208197D01*
X0080611Y0210132D01*
X0080127Y0210616D01*
X0078676Y0210616D01*
X0078676Y0205616D02*
X0080127Y0205616D01*
X0080611Y0205132D01*
X0080611Y0203196D01*
X0080127Y0202713D01*
X0078676Y0202713D01*
X0078676Y0205616D01*
X0077664Y0205616D02*
X0077664Y0202713D01*
X0075729Y0205616D01*
X0075729Y0202713D01*
X0074718Y0203196D02*
X0074718Y0204165D01*
X0073750Y0204165D01*
X0072783Y0205132D02*
X0073267Y0205616D01*
X0074233Y0205616D01*
X0074718Y0205132D01*
X0074718Y0203196D02*
X0074233Y0202713D01*
X0073267Y0202713D01*
X0072783Y0203196D01*
X0072783Y0205132D01*
X0073267Y0207713D02*
X0072783Y0208197D01*
X0072783Y0210132D01*
X0073267Y0210616D01*
X0074233Y0210616D01*
X0074718Y0210132D01*
X0074718Y0209165D02*
X0073750Y0209165D01*
X0074718Y0208197D02*
X0074233Y0207713D01*
X0073267Y0207713D01*
X0074718Y0208197D02*
X0074718Y0209165D01*
X0075729Y0210616D02*
X0075729Y0207713D01*
X0075729Y0200616D02*
X0077664Y0197713D01*
X0077664Y0200616D01*
X0078676Y0200616D02*
X0078676Y0197713D01*
X0080127Y0197713D01*
X0080611Y0198197D01*
X0080611Y0200132D01*
X0080127Y0200616D01*
X0078676Y0200616D01*
X0075729Y0200616D02*
X0075729Y0197713D01*
X0074718Y0198197D02*
X0074718Y0199165D01*
X0073750Y0199165D01*
X0072783Y0200132D02*
X0073267Y0200616D01*
X0074233Y0200616D01*
X0074718Y0200132D01*
X0074718Y0198197D02*
X0074233Y0197713D01*
X0073267Y0197713D01*
X0072783Y0198197D01*
X0072783Y0200132D01*
X0073267Y0237713D02*
X0074233Y0237713D01*
X0074718Y0238197D01*
X0074718Y0239164D01*
X0073750Y0239164D01*
X0072783Y0240132D02*
X0072783Y0238197D01*
X0073267Y0237713D01*
X0072783Y0240132D02*
X0073267Y0240616D01*
X0074233Y0240616D01*
X0074718Y0240132D01*
X0075729Y0240616D02*
X0077664Y0237713D01*
X0077664Y0240616D01*
X0077180Y0242713D02*
X0077664Y0243197D01*
X0077664Y0245132D01*
X0077180Y0245616D01*
X0076213Y0245616D01*
X0075729Y0245132D01*
X0075729Y0243197D01*
X0076213Y0242713D01*
X0077180Y0242713D01*
X0078676Y0242713D02*
X0080611Y0242713D01*
X0079643Y0242713D02*
X0079643Y0245616D01*
X0078676Y0244648D01*
X0078676Y0247712D02*
X0080611Y0249648D01*
X0080611Y0250132D01*
X0080127Y0250616D01*
X0079160Y0250616D01*
X0078676Y0250132D01*
X0079160Y0252713D02*
X0078676Y0253196D01*
X0079160Y0252713D02*
X0080127Y0252713D01*
X0080611Y0253196D01*
X0080611Y0253681D01*
X0080127Y0254165D01*
X0079643Y0254165D01*
X0080127Y0254165D02*
X0080611Y0254648D01*
X0080611Y0255132D01*
X0080127Y0255615D01*
X0079160Y0255615D01*
X0078676Y0255132D01*
X0079643Y0257712D02*
X0080611Y0258680D01*
X0080611Y0260616D01*
X0080127Y0262713D02*
X0080611Y0263197D01*
X0080611Y0265132D01*
X0080127Y0265616D01*
X0078676Y0265616D01*
X0078676Y0262713D01*
X0080127Y0262713D01*
X0078676Y0260616D02*
X0078676Y0258680D01*
X0079643Y0257712D01*
X0077664Y0258197D02*
X0077180Y0257712D01*
X0076213Y0257712D01*
X0075729Y0258197D01*
X0074739Y0258197D02*
X0074739Y0257712D01*
X0074256Y0257712D01*
X0074256Y0258197D01*
X0074739Y0258197D01*
X0075729Y0260132D02*
X0076213Y0260616D01*
X0077180Y0260616D01*
X0077664Y0260132D01*
X0077664Y0259648D01*
X0077180Y0259165D01*
X0077664Y0258680D01*
X0077664Y0258197D01*
X0077180Y0259165D02*
X0076697Y0259165D01*
X0077180Y0255615D02*
X0076213Y0255615D01*
X0075729Y0255132D01*
X0075729Y0253196D01*
X0076213Y0252713D01*
X0077180Y0252713D01*
X0077664Y0253196D01*
X0077664Y0255132D01*
X0077180Y0255615D01*
X0074733Y0255615D02*
X0073765Y0255615D01*
X0074249Y0255615D02*
X0074249Y0252713D01*
X0073765Y0252713D02*
X0074733Y0252713D01*
X0074733Y0250616D02*
X0073765Y0250616D01*
X0074249Y0250616D02*
X0074249Y0247712D01*
X0073765Y0247712D02*
X0074733Y0247712D01*
X0075729Y0248197D02*
X0076213Y0247712D01*
X0077180Y0247712D01*
X0077664Y0248197D01*
X0077664Y0250132D01*
X0077180Y0250616D01*
X0076213Y0250616D01*
X0075729Y0250132D01*
X0075729Y0248197D01*
X0074733Y0245616D02*
X0073765Y0245616D01*
X0074249Y0245616D02*
X0074249Y0242713D01*
X0073765Y0242713D02*
X0074733Y0242713D01*
X0075729Y0240616D02*
X0075729Y0237713D01*
X0078676Y0237713D02*
X0080127Y0237713D01*
X0080611Y0238197D01*
X0080611Y0240132D01*
X0080127Y0240616D01*
X0078676Y0240616D01*
X0078676Y0237713D01*
X0078676Y0247712D02*
X0080611Y0247712D01*
X0072761Y0257712D02*
X0073245Y0258197D01*
X0073245Y0258680D01*
X0072761Y0259165D01*
X0072277Y0259165D01*
X0072761Y0259165D02*
X0073245Y0259648D01*
X0073245Y0260132D01*
X0072761Y0260616D01*
X0071792Y0260616D01*
X0071310Y0260132D01*
X0071310Y0258197D02*
X0071792Y0257712D01*
X0072761Y0257712D01*
X0072269Y0255615D02*
X0072753Y0255132D01*
X0072753Y0254165D01*
X0072269Y0253681D01*
X0070819Y0253681D01*
X0070819Y0252713D02*
X0070819Y0255615D01*
X0072269Y0255615D01*
X0069807Y0255132D02*
X0069323Y0255615D01*
X0068356Y0255615D01*
X0067872Y0255132D01*
X0067872Y0253196D01*
X0068356Y0252713D01*
X0069323Y0252713D01*
X0069807Y0253196D01*
X0069807Y0254165D01*
X0068839Y0254165D01*
X0068356Y0250616D02*
X0067872Y0250132D01*
X0067872Y0248197D01*
X0068356Y0247712D01*
X0069323Y0247712D01*
X0069807Y0248197D01*
X0069807Y0249165D01*
X0068839Y0249165D01*
X0069807Y0250132D02*
X0069323Y0250616D01*
X0068356Y0250616D01*
X0068356Y0245616D02*
X0067872Y0245132D01*
X0067872Y0243197D01*
X0068356Y0242713D01*
X0069323Y0242713D01*
X0069807Y0243197D01*
X0069807Y0244165D01*
X0068839Y0244165D01*
X0069807Y0245132D02*
X0069323Y0245616D01*
X0068356Y0245616D01*
X0070819Y0245616D02*
X0070819Y0242713D01*
X0070819Y0243681D02*
X0072269Y0243681D01*
X0072753Y0244165D01*
X0072753Y0245132D01*
X0072269Y0245616D01*
X0070819Y0245616D01*
X0070819Y0247712D02*
X0070819Y0250616D01*
X0072269Y0250616D01*
X0072753Y0250132D01*
X0072753Y0249165D01*
X0072269Y0248681D01*
X0070819Y0248681D01*
X0073267Y0262713D02*
X0074233Y0262713D01*
X0074718Y0263197D01*
X0074718Y0264165D01*
X0073750Y0264165D01*
X0072783Y0265132D02*
X0072783Y0263197D01*
X0073267Y0262713D01*
X0072783Y0265132D02*
X0073267Y0265616D01*
X0074233Y0265616D01*
X0074718Y0265132D01*
X0075729Y0265616D02*
X0077664Y0262713D01*
X0077664Y0265616D01*
X0075729Y0265616D02*
X0075729Y0262713D01*
X0045611Y0263197D02*
X0045127Y0262713D01*
X0043676Y0262713D01*
X0043676Y0265616D01*
X0045127Y0265616D01*
X0045611Y0265132D01*
X0045611Y0263197D01*
X0045611Y0260616D02*
X0043676Y0258680D01*
X0044160Y0259165D02*
X0045611Y0257712D01*
X0045127Y0255615D02*
X0044160Y0255615D01*
X0043676Y0255132D01*
X0043676Y0253196D01*
X0044160Y0252713D01*
X0045127Y0252713D01*
X0045611Y0253196D01*
X0045611Y0255132D01*
X0045127Y0255615D01*
X0043676Y0257712D02*
X0043676Y0260616D01*
X0042664Y0262713D02*
X0042664Y0265616D01*
X0040729Y0265616D02*
X0042664Y0262713D01*
X0040729Y0262713D02*
X0040729Y0265616D01*
X0039718Y0265132D02*
X0039234Y0265616D01*
X0038267Y0265616D01*
X0037783Y0265132D01*
X0037783Y0263197D01*
X0038267Y0262713D01*
X0039234Y0262713D01*
X0039718Y0263197D01*
X0039718Y0264165D01*
X0038750Y0264165D01*
X0038267Y0260616D02*
X0037783Y0260132D01*
X0037783Y0258197D01*
X0038267Y0257712D01*
X0039234Y0257712D01*
X0039718Y0258197D01*
X0040729Y0257712D02*
X0042664Y0257712D01*
X0042679Y0255615D02*
X0041712Y0255615D01*
X0042195Y0255615D02*
X0042195Y0252713D01*
X0041712Y0252713D02*
X0042679Y0252713D01*
X0042181Y0250616D02*
X0041213Y0250616D01*
X0040729Y0250132D01*
X0040729Y0249648D01*
X0041213Y0249165D01*
X0042181Y0249165D01*
X0042664Y0248681D01*
X0042664Y0248197D01*
X0042181Y0247712D01*
X0041213Y0247712D01*
X0040729Y0248197D01*
X0039718Y0248197D02*
X0039234Y0247712D01*
X0038267Y0247712D01*
X0037783Y0248197D01*
X0037783Y0250132D01*
X0038267Y0250616D01*
X0039234Y0250616D01*
X0039718Y0250132D01*
X0040216Y0252713D02*
X0038765Y0252713D01*
X0038765Y0255615D01*
X0040216Y0255615D01*
X0040699Y0255132D01*
X0040699Y0253196D01*
X0040216Y0252713D01*
X0042181Y0250616D02*
X0042664Y0250132D01*
X0043676Y0250616D02*
X0045127Y0250616D01*
X0045611Y0250132D01*
X0045611Y0249648D01*
X0045127Y0249165D01*
X0043676Y0249165D01*
X0043676Y0250616D02*
X0043676Y0247712D01*
X0045127Y0247712D01*
X0045611Y0248197D01*
X0045611Y0248681D01*
X0045127Y0249165D01*
X0045127Y0245616D02*
X0043676Y0245616D01*
X0043676Y0242713D01*
X0045127Y0242713D01*
X0045611Y0243197D01*
X0045611Y0243681D01*
X0045127Y0244165D01*
X0043676Y0244165D01*
X0042664Y0243681D02*
X0042664Y0243197D01*
X0042181Y0242713D01*
X0041213Y0242713D01*
X0040729Y0243197D01*
X0039718Y0243197D02*
X0039234Y0242713D01*
X0038267Y0242713D01*
X0037783Y0243197D01*
X0037783Y0245132D01*
X0038267Y0245616D01*
X0039234Y0245616D01*
X0039718Y0245132D01*
X0040729Y0245132D02*
X0040729Y0244648D01*
X0041213Y0244165D01*
X0042181Y0244165D01*
X0042664Y0243681D01*
X0042664Y0245132D02*
X0042181Y0245616D01*
X0041213Y0245616D01*
X0040729Y0245132D01*
X0040729Y0240616D02*
X0042664Y0237713D01*
X0042664Y0240616D01*
X0043676Y0240616D02*
X0045127Y0240616D01*
X0045611Y0240132D01*
X0045611Y0238197D01*
X0045127Y0237713D01*
X0043676Y0237713D01*
X0043676Y0240616D01*
X0045127Y0244165D02*
X0045611Y0244648D01*
X0045611Y0245132D01*
X0045127Y0245616D01*
X0040729Y0240616D02*
X0040729Y0237713D01*
X0039718Y0238197D02*
X0039718Y0239164D01*
X0038750Y0239164D01*
X0037783Y0240132D02*
X0037783Y0238197D01*
X0038267Y0237713D01*
X0039234Y0237713D01*
X0039718Y0238197D01*
X0039718Y0240132D02*
X0039234Y0240616D01*
X0038267Y0240616D01*
X0037783Y0240132D01*
X0035804Y0244165D02*
X0034836Y0244165D01*
X0034836Y0245616D02*
X0034836Y0242713D01*
X0034836Y0245616D02*
X0036771Y0245616D01*
X0036302Y0252713D02*
X0035819Y0253196D01*
X0036302Y0252713D02*
X0037270Y0252713D01*
X0037753Y0253196D01*
X0037753Y0253681D01*
X0037270Y0254165D01*
X0036302Y0254165D01*
X0035819Y0254648D01*
X0035819Y0255132D01*
X0036302Y0255615D01*
X0037270Y0255615D01*
X0037753Y0255132D01*
X0036288Y0257712D02*
X0035320Y0257712D01*
X0034836Y0258197D01*
X0035320Y0259165D02*
X0036288Y0259165D01*
X0036771Y0258680D01*
X0036771Y0258197D01*
X0036288Y0257712D01*
X0035320Y0259165D02*
X0034836Y0259648D01*
X0034836Y0260132D01*
X0035320Y0260616D01*
X0036288Y0260616D01*
X0036771Y0260132D01*
X0038267Y0260616D02*
X0039234Y0260616D01*
X0039718Y0260132D01*
X0040729Y0260616D02*
X0040729Y0257712D01*
X0040729Y0210616D02*
X0042664Y0207713D01*
X0042664Y0210616D01*
X0043676Y0210616D02*
X0043676Y0207713D01*
X0045127Y0207713D01*
X0045611Y0208197D01*
X0045611Y0210132D01*
X0045127Y0210616D01*
X0043676Y0210616D01*
X0043676Y0205616D02*
X0045611Y0205616D01*
X0044643Y0205616D02*
X0044643Y0202713D01*
X0042664Y0202713D02*
X0042664Y0205616D01*
X0040729Y0205616D02*
X0042664Y0202713D01*
X0042664Y0200616D02*
X0042664Y0197713D01*
X0040729Y0200616D01*
X0040729Y0197713D01*
X0039718Y0198197D02*
X0039718Y0199165D01*
X0038750Y0199165D01*
X0037783Y0200132D02*
X0037783Y0198197D01*
X0038267Y0197713D01*
X0039234Y0197713D01*
X0039718Y0198197D01*
X0039718Y0200132D02*
X0039234Y0200616D01*
X0038267Y0200616D01*
X0037783Y0200132D01*
X0037783Y0202713D02*
X0037783Y0204648D01*
X0038750Y0205616D01*
X0039718Y0204648D01*
X0039718Y0202713D01*
X0040729Y0202713D02*
X0040729Y0205616D01*
X0039718Y0204165D02*
X0037783Y0204165D01*
X0038267Y0207713D02*
X0039234Y0207713D01*
X0039718Y0208197D01*
X0039718Y0209165D01*
X0038750Y0209165D01*
X0037783Y0210132D02*
X0037783Y0208197D01*
X0038267Y0207713D01*
X0037783Y0210132D02*
X0038267Y0210616D01*
X0039234Y0210616D01*
X0039718Y0210132D01*
X0040729Y0210616D02*
X0040729Y0207713D01*
X0043676Y0200616D02*
X0045127Y0200616D01*
X0045611Y0200132D01*
X0045611Y0198197D01*
X0045127Y0197713D01*
X0043676Y0197713D01*
X0043676Y0200616D01*
D39*
X0042472Y0330763D02*
X0035472Y0330763D01*
X0033972Y0332263D01*
X0033972Y0349263D01*
X0035472Y0350763D01*
X0042472Y0350763D01*
X0043972Y0349263D01*
X0045472Y0350763D01*
X0052472Y0350763D01*
X0053972Y0349263D01*
X0055472Y0350763D01*
X0062472Y0350763D01*
X0063971Y0349263D01*
X0065472Y0350763D01*
X0072472Y0350763D01*
X0073972Y0349263D01*
X0075472Y0350763D01*
X0082472Y0350763D01*
X0083972Y0349263D01*
X0083972Y0332263D01*
X0082472Y0330763D01*
X0075472Y0330763D01*
X0073972Y0332263D01*
X0072472Y0330763D01*
X0065472Y0330763D01*
X0063971Y0332263D01*
X0062472Y0330763D01*
X0055472Y0330763D01*
X0053972Y0332263D01*
X0052472Y0330763D01*
X0045472Y0330763D01*
X0043972Y0332263D01*
X0042472Y0330763D01*
G04 next file*
G75*
D40*
X0118086Y0195763D02*
X0173086Y0195763D01*
X0173086Y0275762D01*
X0118086Y0275762D01*
X0118086Y0195763D01*
X0157775Y0324013D02*
X0157025Y0324764D01*
X0157775Y0324013D02*
X0158526Y0324013D01*
X0159277Y0324764D01*
X0159277Y0328517D01*
X0160027Y0328517D02*
X0158526Y0328517D01*
X0161629Y0328517D02*
X0161629Y0324013D01*
X0161629Y0325515D02*
X0163880Y0325515D01*
X0164630Y0326265D01*
X0164630Y0327766D01*
X0163880Y0328517D01*
X0161629Y0328517D01*
X0166232Y0327016D02*
X0167734Y0328517D01*
X0167734Y0324013D01*
X0169235Y0324013D02*
X0166232Y0324013D01*
D41*
X0156380Y0220567D02*
X0154846Y0220567D01*
X0154078Y0219800D01*
X0154078Y0216731D01*
X0157148Y0219800D01*
X0157148Y0216731D01*
X0156380Y0215963D01*
X0154846Y0215963D01*
X0154078Y0216731D01*
X0152544Y0216731D02*
X0152544Y0219800D01*
X0149475Y0216731D01*
X0150242Y0215963D01*
X0151777Y0215963D01*
X0152544Y0216731D01*
X0152544Y0219800D02*
X0151777Y0220567D01*
X0150242Y0220567D01*
X0149475Y0219800D01*
X0149475Y0216731D01*
X0147940Y0216731D02*
X0147173Y0215963D01*
X0145638Y0215963D01*
X0144871Y0216731D01*
X0143336Y0215963D02*
X0140267Y0215963D01*
X0143336Y0219033D01*
X0143336Y0219800D01*
X0142569Y0220567D01*
X0141034Y0220567D01*
X0140267Y0219800D01*
X0138732Y0220567D02*
X0135663Y0220567D01*
X0137197Y0220567D02*
X0137197Y0215963D01*
X0134128Y0215963D02*
X0134128Y0220567D01*
X0132593Y0219033D01*
X0131058Y0220567D01*
X0131058Y0215963D01*
X0129524Y0216731D02*
X0128757Y0215963D01*
X0127221Y0215963D01*
X0126455Y0216731D01*
X0126455Y0219800D01*
X0127221Y0220567D01*
X0128757Y0220567D01*
X0129524Y0219800D01*
X0144871Y0219800D02*
X0145638Y0220567D01*
X0147173Y0220567D01*
X0147940Y0219800D01*
X0147940Y0219033D01*
X0147173Y0218265D01*
X0147940Y0217498D01*
X0147940Y0216731D01*
X0147173Y0218265D02*
X0146405Y0218265D01*
X0156380Y0220567D02*
X0157148Y0219800D01*
X0159450Y0217498D02*
X0158682Y0216731D01*
X0159450Y0215963D01*
X0161752Y0215963D01*
X0161752Y0218265D01*
X0160984Y0219033D01*
X0159450Y0219033D01*
X0159450Y0217498D02*
X0161752Y0217498D01*
D42*
X0162343Y0210616D02*
X0164278Y0207713D01*
X0164278Y0210616D01*
X0165290Y0210616D02*
X0165290Y0207713D01*
X0166741Y0207713D01*
X0167225Y0208197D01*
X0167225Y0210132D01*
X0166741Y0210616D01*
X0165290Y0210616D01*
X0165290Y0205616D02*
X0166741Y0205616D01*
X0167225Y0205132D01*
X0167225Y0203196D01*
X0166741Y0202713D01*
X0165290Y0202713D01*
X0165290Y0205616D01*
X0164278Y0205616D02*
X0164278Y0202713D01*
X0162343Y0205616D01*
X0162343Y0202713D01*
X0161332Y0203196D02*
X0161332Y0204165D01*
X0160364Y0204165D01*
X0159397Y0205132D02*
X0159881Y0205616D01*
X0160848Y0205616D01*
X0161332Y0205132D01*
X0161332Y0203196D02*
X0160848Y0202713D01*
X0159881Y0202713D01*
X0159397Y0203196D01*
X0159397Y0205132D01*
X0159881Y0207713D02*
X0159397Y0208197D01*
X0159397Y0210132D01*
X0159881Y0210616D01*
X0160848Y0210616D01*
X0161332Y0210132D01*
X0161332Y0209165D02*
X0160364Y0209165D01*
X0161332Y0208197D02*
X0160848Y0207713D01*
X0159881Y0207713D01*
X0161332Y0208197D02*
X0161332Y0209165D01*
X0162343Y0210616D02*
X0162343Y0207713D01*
X0162343Y0200616D02*
X0164278Y0197713D01*
X0164278Y0200616D01*
X0165290Y0200616D02*
X0165290Y0197713D01*
X0166741Y0197713D01*
X0167225Y0198197D01*
X0167225Y0200132D01*
X0166741Y0200616D01*
X0165290Y0200616D01*
X0162343Y0200616D02*
X0162343Y0197713D01*
X0161332Y0198197D02*
X0161332Y0199165D01*
X0160364Y0199165D01*
X0159397Y0200132D02*
X0159881Y0200616D01*
X0160848Y0200616D01*
X0161332Y0200132D01*
X0161332Y0198197D02*
X0160848Y0197713D01*
X0159881Y0197713D01*
X0159397Y0198197D01*
X0159397Y0200132D01*
X0159881Y0237713D02*
X0160848Y0237713D01*
X0161332Y0238197D01*
X0161332Y0239164D01*
X0160364Y0239164D01*
X0159397Y0240132D02*
X0159397Y0238197D01*
X0159881Y0237713D01*
X0159397Y0240132D02*
X0159881Y0240616D01*
X0160848Y0240616D01*
X0161332Y0240132D01*
X0162343Y0240616D02*
X0164278Y0237713D01*
X0164278Y0240616D01*
X0163795Y0242713D02*
X0164278Y0243197D01*
X0164278Y0245132D01*
X0163795Y0245616D01*
X0162827Y0245616D01*
X0162343Y0245132D01*
X0162343Y0243197D01*
X0162827Y0242713D01*
X0163795Y0242713D01*
X0165290Y0242713D02*
X0167225Y0242713D01*
X0166257Y0242713D02*
X0166257Y0245616D01*
X0165290Y0244648D01*
X0165290Y0247712D02*
X0167225Y0249648D01*
X0167225Y0250132D01*
X0166741Y0250616D01*
X0165774Y0250616D01*
X0165290Y0250132D01*
X0165774Y0252713D02*
X0165290Y0253196D01*
X0165774Y0252713D02*
X0166741Y0252713D01*
X0167225Y0253196D01*
X0167225Y0253681D01*
X0166741Y0254165D01*
X0166257Y0254165D01*
X0166741Y0254165D02*
X0167225Y0254648D01*
X0167225Y0255132D01*
X0166741Y0255615D01*
X0165774Y0255615D01*
X0165290Y0255132D01*
X0166257Y0257712D02*
X0167225Y0258680D01*
X0167225Y0260616D01*
X0166741Y0262713D02*
X0167225Y0263197D01*
X0167225Y0265132D01*
X0166741Y0265616D01*
X0165290Y0265616D01*
X0165290Y0262713D01*
X0166741Y0262713D01*
X0165290Y0260616D02*
X0165290Y0258680D01*
X0166257Y0257712D01*
X0164278Y0258197D02*
X0163795Y0257712D01*
X0162827Y0257712D01*
X0162343Y0258197D01*
X0161353Y0258197D02*
X0161353Y0257712D01*
X0160870Y0257712D01*
X0160870Y0258197D01*
X0161353Y0258197D01*
X0162343Y0260132D02*
X0162827Y0260616D01*
X0163795Y0260616D01*
X0164278Y0260132D01*
X0164278Y0259648D01*
X0163795Y0259165D01*
X0164278Y0258680D01*
X0164278Y0258197D01*
X0163795Y0259165D02*
X0163311Y0259165D01*
X0163795Y0255615D02*
X0162827Y0255615D01*
X0162343Y0255132D01*
X0162343Y0253196D01*
X0162827Y0252713D01*
X0163795Y0252713D01*
X0164278Y0253196D01*
X0164278Y0255132D01*
X0163795Y0255615D01*
X0161347Y0255615D02*
X0160379Y0255615D01*
X0160863Y0255615D02*
X0160863Y0252713D01*
X0160379Y0252713D02*
X0161347Y0252713D01*
X0161347Y0250616D02*
X0160379Y0250616D01*
X0160863Y0250616D02*
X0160863Y0247712D01*
X0160379Y0247712D02*
X0161347Y0247712D01*
X0162343Y0248197D02*
X0162827Y0247712D01*
X0163795Y0247712D01*
X0164278Y0248197D01*
X0164278Y0250132D01*
X0163795Y0250616D01*
X0162827Y0250616D01*
X0162343Y0250132D01*
X0162343Y0248197D01*
X0161347Y0245616D02*
X0160379Y0245616D01*
X0160863Y0245616D02*
X0160863Y0242713D01*
X0160379Y0242713D02*
X0161347Y0242713D01*
X0162343Y0240616D02*
X0162343Y0237713D01*
X0165290Y0237713D02*
X0166741Y0237713D01*
X0167225Y0238197D01*
X0167225Y0240132D01*
X0166741Y0240616D01*
X0165290Y0240616D01*
X0165290Y0237713D01*
X0165290Y0247712D02*
X0167225Y0247712D01*
X0159375Y0257712D02*
X0159859Y0258197D01*
X0159859Y0258680D01*
X0159375Y0259165D01*
X0158891Y0259165D01*
X0159375Y0259165D02*
X0159859Y0259648D01*
X0159859Y0260132D01*
X0159375Y0260616D01*
X0158407Y0260616D01*
X0157924Y0260132D01*
X0157924Y0258197D02*
X0158407Y0257712D01*
X0159375Y0257712D01*
X0158884Y0255615D02*
X0159367Y0255132D01*
X0159367Y0254165D01*
X0158884Y0253681D01*
X0157433Y0253681D01*
X0157433Y0252713D02*
X0157433Y0255615D01*
X0158884Y0255615D01*
X0156421Y0255132D02*
X0155937Y0255615D01*
X0154970Y0255615D01*
X0154485Y0255132D01*
X0154485Y0253196D01*
X0154970Y0252713D01*
X0155937Y0252713D01*
X0156421Y0253196D01*
X0156421Y0254165D01*
X0155453Y0254165D01*
X0154970Y0250616D02*
X0154485Y0250132D01*
X0154485Y0248197D01*
X0154970Y0247712D01*
X0155937Y0247712D01*
X0156421Y0248197D01*
X0156421Y0249165D01*
X0155453Y0249165D01*
X0156421Y0250132D02*
X0155937Y0250616D01*
X0154970Y0250616D01*
X0154970Y0245616D02*
X0154485Y0245132D01*
X0154485Y0243197D01*
X0154970Y0242713D01*
X0155937Y0242713D01*
X0156421Y0243197D01*
X0156421Y0244165D01*
X0155453Y0244165D01*
X0156421Y0245132D02*
X0155937Y0245616D01*
X0154970Y0245616D01*
X0157433Y0245616D02*
X0157433Y0242713D01*
X0157433Y0243681D02*
X0158884Y0243681D01*
X0159367Y0244165D01*
X0159367Y0245132D01*
X0158884Y0245616D01*
X0157433Y0245616D01*
X0157433Y0247712D02*
X0157433Y0250616D01*
X0158884Y0250616D01*
X0159367Y0250132D01*
X0159367Y0249165D01*
X0158884Y0248681D01*
X0157433Y0248681D01*
X0159881Y0262713D02*
X0160848Y0262713D01*
X0161332Y0263197D01*
X0161332Y0264165D01*
X0160364Y0264165D01*
X0159397Y0265132D02*
X0159397Y0263197D01*
X0159881Y0262713D01*
X0159397Y0265132D02*
X0159881Y0265616D01*
X0160848Y0265616D01*
X0161332Y0265132D01*
X0162343Y0265616D02*
X0164278Y0262713D01*
X0164278Y0265616D01*
X0162343Y0265616D02*
X0162343Y0262713D01*
X0132225Y0263197D02*
X0131741Y0262713D01*
X0130290Y0262713D01*
X0130290Y0265616D01*
X0131741Y0265616D01*
X0132225Y0265132D01*
X0132225Y0263197D01*
X0132225Y0260616D02*
X0130290Y0258680D01*
X0130773Y0259165D02*
X0132225Y0257712D01*
X0131741Y0255615D02*
X0130773Y0255615D01*
X0130290Y0255132D01*
X0130290Y0253196D01*
X0130773Y0252713D01*
X0131741Y0252713D01*
X0132225Y0253196D01*
X0132225Y0255132D01*
X0131741Y0255615D01*
X0130290Y0257712D02*
X0130290Y0260616D01*
X0129278Y0262713D02*
X0129278Y0265616D01*
X0127342Y0265616D02*
X0129278Y0262713D01*
X0127342Y0262713D02*
X0127342Y0265616D01*
X0126332Y0265132D02*
X0125848Y0265616D01*
X0124881Y0265616D01*
X0124397Y0265132D01*
X0124397Y0263197D01*
X0124881Y0262713D01*
X0125848Y0262713D01*
X0126332Y0263197D01*
X0126332Y0264165D01*
X0125364Y0264165D01*
X0124881Y0260616D02*
X0124397Y0260132D01*
X0124397Y0258197D01*
X0124881Y0257712D01*
X0125848Y0257712D01*
X0126332Y0258197D01*
X0127342Y0257712D02*
X0129278Y0257712D01*
X0129292Y0255615D02*
X0128325Y0255615D01*
X0128808Y0255615D02*
X0128808Y0252713D01*
X0128325Y0252713D02*
X0129292Y0252713D01*
X0128795Y0250616D02*
X0127827Y0250616D01*
X0127342Y0250132D01*
X0127342Y0249648D01*
X0127827Y0249165D01*
X0128795Y0249165D01*
X0129278Y0248681D01*
X0129278Y0248197D01*
X0128795Y0247712D01*
X0127827Y0247712D01*
X0127342Y0248197D01*
X0126332Y0248197D02*
X0125848Y0247712D01*
X0124881Y0247712D01*
X0124397Y0248197D01*
X0124397Y0250132D01*
X0124881Y0250616D01*
X0125848Y0250616D01*
X0126332Y0250132D01*
X0126830Y0252713D02*
X0125379Y0252713D01*
X0125379Y0255615D01*
X0126830Y0255615D01*
X0127314Y0255132D01*
X0127314Y0253196D01*
X0126830Y0252713D01*
X0128795Y0250616D02*
X0129278Y0250132D01*
X0130290Y0250616D02*
X0131741Y0250616D01*
X0132225Y0250132D01*
X0132225Y0249648D01*
X0131741Y0249165D01*
X0130290Y0249165D01*
X0130290Y0250616D02*
X0130290Y0247712D01*
X0131741Y0247712D01*
X0132225Y0248197D01*
X0132225Y0248681D01*
X0131741Y0249165D01*
X0131741Y0245616D02*
X0130290Y0245616D01*
X0130290Y0242713D01*
X0131741Y0242713D01*
X0132225Y0243197D01*
X0132225Y0243681D01*
X0131741Y0244165D01*
X0130290Y0244165D01*
X0129278Y0243681D02*
X0129278Y0243197D01*
X0128795Y0242713D01*
X0127827Y0242713D01*
X0127342Y0243197D01*
X0126332Y0243197D02*
X0125848Y0242713D01*
X0124881Y0242713D01*
X0124397Y0243197D01*
X0124397Y0245132D01*
X0124881Y0245616D01*
X0125848Y0245616D01*
X0126332Y0245132D01*
X0127342Y0245132D02*
X0127342Y0244648D01*
X0127827Y0244165D01*
X0128795Y0244165D01*
X0129278Y0243681D01*
X0129278Y0245132D02*
X0128795Y0245616D01*
X0127827Y0245616D01*
X0127342Y0245132D01*
X0127342Y0240616D02*
X0129278Y0237713D01*
X0129278Y0240616D01*
X0130290Y0240616D02*
X0131741Y0240616D01*
X0132225Y0240132D01*
X0132225Y0238197D01*
X0131741Y0237713D01*
X0130290Y0237713D01*
X0130290Y0240616D01*
X0131741Y0244165D02*
X0132225Y0244648D01*
X0132225Y0245132D01*
X0131741Y0245616D01*
X0127342Y0240616D02*
X0127342Y0237713D01*
X0126332Y0238197D02*
X0126332Y0239164D01*
X0125364Y0239164D01*
X0124397Y0240132D02*
X0124397Y0238197D01*
X0124881Y0237713D01*
X0125848Y0237713D01*
X0126332Y0238197D01*
X0126332Y0240132D02*
X0125848Y0240616D01*
X0124881Y0240616D01*
X0124397Y0240132D01*
X0122418Y0244165D02*
X0121449Y0244165D01*
X0121449Y0245616D02*
X0121449Y0242713D01*
X0121449Y0245616D02*
X0123384Y0245616D01*
X0122916Y0252713D02*
X0122432Y0253196D01*
X0122916Y0252713D02*
X0123884Y0252713D01*
X0124367Y0253196D01*
X0124367Y0253681D01*
X0123884Y0254165D01*
X0122916Y0254165D01*
X0122432Y0254648D01*
X0122432Y0255132D01*
X0122916Y0255615D01*
X0123884Y0255615D01*
X0124367Y0255132D01*
X0122902Y0257712D02*
X0121934Y0257712D01*
X0121449Y0258197D01*
X0121934Y0259165D02*
X0122902Y0259165D01*
X0123384Y0258680D01*
X0123384Y0258197D01*
X0122902Y0257712D01*
X0121934Y0259165D02*
X0121449Y0259648D01*
X0121449Y0260132D01*
X0121934Y0260616D01*
X0122902Y0260616D01*
X0123384Y0260132D01*
X0124881Y0260616D02*
X0125848Y0260616D01*
X0126332Y0260132D01*
X0127342Y0260616D02*
X0127342Y0257712D01*
X0127342Y0210616D02*
X0129278Y0207713D01*
X0129278Y0210616D01*
X0130290Y0210616D02*
X0130290Y0207713D01*
X0131741Y0207713D01*
X0132225Y0208197D01*
X0132225Y0210132D01*
X0131741Y0210616D01*
X0130290Y0210616D01*
X0130290Y0205616D02*
X0132225Y0205616D01*
X0131257Y0205616D02*
X0131257Y0202713D01*
X0129278Y0202713D02*
X0129278Y0205616D01*
X0127342Y0205616D02*
X0129278Y0202713D01*
X0129278Y0200616D02*
X0129278Y0197713D01*
X0127342Y0200616D01*
X0127342Y0197713D01*
X0126332Y0198197D02*
X0126332Y0199165D01*
X0125364Y0199165D01*
X0124397Y0200132D02*
X0124397Y0198197D01*
X0124881Y0197713D01*
X0125848Y0197713D01*
X0126332Y0198197D01*
X0126332Y0200132D02*
X0125848Y0200616D01*
X0124881Y0200616D01*
X0124397Y0200132D01*
X0124397Y0202713D02*
X0124397Y0204648D01*
X0125364Y0205616D01*
X0126332Y0204648D01*
X0126332Y0202713D01*
X0127342Y0202713D02*
X0127342Y0205616D01*
X0126332Y0204165D02*
X0124397Y0204165D01*
X0124881Y0207713D02*
X0125848Y0207713D01*
X0126332Y0208197D01*
X0126332Y0209165D01*
X0125364Y0209165D01*
X0124397Y0210132D02*
X0124397Y0208197D01*
X0124881Y0207713D01*
X0124397Y0210132D02*
X0124881Y0210616D01*
X0125848Y0210616D01*
X0126332Y0210132D01*
X0127342Y0210616D02*
X0127342Y0207713D01*
X0130290Y0200616D02*
X0131741Y0200616D01*
X0132225Y0200132D01*
X0132225Y0198197D01*
X0131741Y0197713D01*
X0130290Y0197713D01*
X0130290Y0200616D01*
D43*
X0129085Y0330763D02*
X0122086Y0330763D01*
X0120586Y0332263D01*
X0120586Y0349263D01*
X0122086Y0350763D01*
X0129085Y0350763D01*
X0130586Y0349263D01*
X0132085Y0350763D01*
X0139086Y0350763D01*
X0140586Y0349263D01*
X0142086Y0350763D01*
X0149086Y0350763D01*
X0150586Y0349263D01*
X0152086Y0350763D01*
X0159086Y0350763D01*
X0160586Y0349263D01*
X0162086Y0350763D01*
X0169086Y0350763D01*
X0170586Y0349263D01*
X0170586Y0332263D01*
X0169086Y0330763D01*
X0162086Y0330763D01*
X0160586Y0332263D01*
X0159086Y0330763D01*
X0152086Y0330763D01*
X0150586Y0332263D01*
X0149086Y0330763D01*
X0142086Y0330763D01*
X0140586Y0332263D01*
X0139086Y0330763D01*
X0132085Y0330763D01*
X0130586Y0332263D01*
X0129085Y0330763D01*
G04 next file*
G75*
D44*
X0204700Y0195763D02*
X0259700Y0195763D01*
X0259700Y0275762D01*
X0204700Y0275762D01*
X0204700Y0195763D01*
X0244389Y0324013D02*
X0243638Y0324764D01*
X0244389Y0324013D02*
X0245140Y0324013D01*
X0245891Y0324764D01*
X0245891Y0328517D01*
X0246641Y0328517D02*
X0245140Y0328517D01*
X0248243Y0328517D02*
X0248243Y0324013D01*
X0248243Y0325515D02*
X0250494Y0325515D01*
X0251244Y0326265D01*
X0251244Y0327766D01*
X0250494Y0328517D01*
X0248243Y0328517D01*
X0252846Y0327016D02*
X0254348Y0328517D01*
X0254348Y0324013D01*
X0255848Y0324013D02*
X0252846Y0324013D01*
D45*
X0242994Y0220567D02*
X0241460Y0220567D01*
X0240692Y0219800D01*
X0240692Y0216731D01*
X0243762Y0219800D01*
X0243762Y0216731D01*
X0242994Y0215963D01*
X0241460Y0215963D01*
X0240692Y0216731D01*
X0239157Y0216731D02*
X0239157Y0219800D01*
X0236089Y0216731D01*
X0236856Y0215963D01*
X0238391Y0215963D01*
X0239157Y0216731D01*
X0239157Y0219800D02*
X0238391Y0220567D01*
X0236856Y0220567D01*
X0236089Y0219800D01*
X0236089Y0216731D01*
X0234554Y0216731D02*
X0233787Y0215963D01*
X0232252Y0215963D01*
X0231484Y0216731D01*
X0229950Y0215963D02*
X0226881Y0215963D01*
X0229950Y0219033D01*
X0229950Y0219800D01*
X0229183Y0220567D01*
X0227647Y0220567D01*
X0226881Y0219800D01*
X0225346Y0220567D02*
X0222277Y0220567D01*
X0223810Y0220567D02*
X0223810Y0215963D01*
X0220742Y0215963D02*
X0220742Y0220567D01*
X0219207Y0219033D01*
X0217673Y0220567D01*
X0217673Y0215963D01*
X0216138Y0216731D02*
X0215370Y0215963D01*
X0213836Y0215963D01*
X0213069Y0216731D01*
X0213069Y0219800D01*
X0213836Y0220567D01*
X0215370Y0220567D01*
X0216138Y0219800D01*
X0231484Y0219800D02*
X0232252Y0220567D01*
X0233787Y0220567D01*
X0234554Y0219800D01*
X0234554Y0219033D01*
X0233787Y0218265D01*
X0234554Y0217498D01*
X0234554Y0216731D01*
X0233787Y0218265D02*
X0233019Y0218265D01*
X0242994Y0220567D02*
X0243762Y0219800D01*
X0246064Y0217498D02*
X0245296Y0216731D01*
X0246064Y0215963D01*
X0248366Y0215963D01*
X0248366Y0218265D01*
X0247597Y0219033D01*
X0246064Y0219033D01*
X0246064Y0217498D02*
X0248366Y0217498D01*
D46*
X0248957Y0210616D02*
X0250891Y0207713D01*
X0250891Y0210616D01*
X0251904Y0210616D02*
X0251904Y0207713D01*
X0253355Y0207713D01*
X0253839Y0208197D01*
X0253839Y0210132D01*
X0253355Y0210616D01*
X0251904Y0210616D01*
X0251904Y0205616D02*
X0253355Y0205616D01*
X0253839Y0205132D01*
X0253839Y0203196D01*
X0253355Y0202713D01*
X0251904Y0202713D01*
X0251904Y0205616D01*
X0250891Y0205616D02*
X0250891Y0202713D01*
X0248957Y0205616D01*
X0248957Y0202713D01*
X0247946Y0203196D02*
X0247946Y0204165D01*
X0246978Y0204165D01*
X0246010Y0205132D02*
X0246495Y0205616D01*
X0247461Y0205616D01*
X0247946Y0205132D01*
X0247946Y0203196D02*
X0247461Y0202713D01*
X0246495Y0202713D01*
X0246010Y0203196D01*
X0246010Y0205132D01*
X0246495Y0207713D02*
X0246010Y0208197D01*
X0246010Y0210132D01*
X0246495Y0210616D01*
X0247461Y0210616D01*
X0247946Y0210132D01*
X0247946Y0209165D02*
X0246978Y0209165D01*
X0247946Y0208197D02*
X0247461Y0207713D01*
X0246495Y0207713D01*
X0247946Y0208197D02*
X0247946Y0209165D01*
X0248957Y0210616D02*
X0248957Y0207713D01*
X0248957Y0200616D02*
X0250891Y0197713D01*
X0250891Y0200616D01*
X0251904Y0200616D02*
X0251904Y0197713D01*
X0253355Y0197713D01*
X0253839Y0198197D01*
X0253839Y0200132D01*
X0253355Y0200616D01*
X0251904Y0200616D01*
X0248957Y0200616D02*
X0248957Y0197713D01*
X0247946Y0198197D02*
X0247946Y0199165D01*
X0246978Y0199165D01*
X0246010Y0200132D02*
X0246495Y0200616D01*
X0247461Y0200616D01*
X0247946Y0200132D01*
X0247946Y0198197D02*
X0247461Y0197713D01*
X0246495Y0197713D01*
X0246010Y0198197D01*
X0246010Y0200132D01*
X0246495Y0237713D02*
X0247461Y0237713D01*
X0247946Y0238197D01*
X0247946Y0239164D01*
X0246978Y0239164D01*
X0246010Y0240132D02*
X0246010Y0238197D01*
X0246495Y0237713D01*
X0246010Y0240132D02*
X0246495Y0240616D01*
X0247461Y0240616D01*
X0247946Y0240132D01*
X0248957Y0240616D02*
X0250891Y0237713D01*
X0250891Y0240616D01*
X0250409Y0242713D02*
X0250891Y0243197D01*
X0250891Y0245132D01*
X0250409Y0245616D01*
X0249440Y0245616D01*
X0248957Y0245132D01*
X0248957Y0243197D01*
X0249440Y0242713D01*
X0250409Y0242713D01*
X0251904Y0242713D02*
X0253839Y0242713D01*
X0252870Y0242713D02*
X0252870Y0245616D01*
X0251904Y0244648D01*
X0251904Y0247712D02*
X0253839Y0249648D01*
X0253839Y0250132D01*
X0253355Y0250616D01*
X0252387Y0250616D01*
X0251904Y0250132D01*
X0252387Y0252713D02*
X0251904Y0253196D01*
X0252387Y0252713D02*
X0253355Y0252713D01*
X0253839Y0253196D01*
X0253839Y0253681D01*
X0253355Y0254165D01*
X0252870Y0254165D01*
X0253355Y0254165D02*
X0253839Y0254648D01*
X0253839Y0255132D01*
X0253355Y0255615D01*
X0252387Y0255615D01*
X0251904Y0255132D01*
X0252870Y0257712D02*
X0253839Y0258680D01*
X0253839Y0260616D01*
X0253355Y0262713D02*
X0253839Y0263197D01*
X0253839Y0265132D01*
X0253355Y0265616D01*
X0251904Y0265616D01*
X0251904Y0262713D01*
X0253355Y0262713D01*
X0251904Y0260616D02*
X0251904Y0258680D01*
X0252870Y0257712D01*
X0250891Y0258197D02*
X0250409Y0257712D01*
X0249440Y0257712D01*
X0248957Y0258197D01*
X0247968Y0258197D02*
X0247968Y0257712D01*
X0247484Y0257712D01*
X0247484Y0258197D01*
X0247968Y0258197D01*
X0248957Y0260132D02*
X0249440Y0260616D01*
X0250409Y0260616D01*
X0250891Y0260132D01*
X0250891Y0259648D01*
X0250409Y0259165D01*
X0250891Y0258680D01*
X0250891Y0258197D01*
X0250409Y0259165D02*
X0249925Y0259165D01*
X0250409Y0255615D02*
X0249440Y0255615D01*
X0248957Y0255132D01*
X0248957Y0253196D01*
X0249440Y0252713D01*
X0250409Y0252713D01*
X0250891Y0253196D01*
X0250891Y0255132D01*
X0250409Y0255615D01*
X0247961Y0255615D02*
X0246993Y0255615D01*
X0247477Y0255615D02*
X0247477Y0252713D01*
X0246993Y0252713D02*
X0247961Y0252713D01*
X0247961Y0250616D02*
X0246993Y0250616D01*
X0247477Y0250616D02*
X0247477Y0247712D01*
X0246993Y0247712D02*
X0247961Y0247712D01*
X0248957Y0248197D02*
X0249440Y0247712D01*
X0250409Y0247712D01*
X0250891Y0248197D01*
X0250891Y0250132D01*
X0250409Y0250616D01*
X0249440Y0250616D01*
X0248957Y0250132D01*
X0248957Y0248197D01*
X0247961Y0245616D02*
X0246993Y0245616D01*
X0247477Y0245616D02*
X0247477Y0242713D01*
X0246993Y0242713D02*
X0247961Y0242713D01*
X0248957Y0240616D02*
X0248957Y0237713D01*
X0251904Y0237713D02*
X0253355Y0237713D01*
X0253839Y0238197D01*
X0253839Y0240132D01*
X0253355Y0240616D01*
X0251904Y0240616D01*
X0251904Y0237713D01*
X0251904Y0247712D02*
X0253839Y0247712D01*
X0245989Y0257712D02*
X0246473Y0258197D01*
X0246473Y0258680D01*
X0245989Y0259165D01*
X0245505Y0259165D01*
X0245989Y0259165D02*
X0246473Y0259648D01*
X0246473Y0260132D01*
X0245989Y0260616D01*
X0245021Y0260616D01*
X0244538Y0260132D01*
X0244538Y0258197D02*
X0245021Y0257712D01*
X0245989Y0257712D01*
X0245498Y0255615D02*
X0245981Y0255132D01*
X0245981Y0254165D01*
X0245498Y0253681D01*
X0244047Y0253681D01*
X0244047Y0252713D02*
X0244047Y0255615D01*
X0245498Y0255615D01*
X0243034Y0255132D02*
X0242551Y0255615D01*
X0241584Y0255615D01*
X0241100Y0255132D01*
X0241100Y0253196D01*
X0241584Y0252713D01*
X0242551Y0252713D01*
X0243034Y0253196D01*
X0243034Y0254165D01*
X0242067Y0254165D01*
X0241584Y0250616D02*
X0241100Y0250132D01*
X0241100Y0248197D01*
X0241584Y0247712D01*
X0242551Y0247712D01*
X0243034Y0248197D01*
X0243034Y0249165D01*
X0242067Y0249165D01*
X0243034Y0250132D02*
X0242551Y0250616D01*
X0241584Y0250616D01*
X0241584Y0245616D02*
X0241100Y0245132D01*
X0241100Y0243197D01*
X0241584Y0242713D01*
X0242551Y0242713D01*
X0243034Y0243197D01*
X0243034Y0244165D01*
X0242067Y0244165D01*
X0243034Y0245132D02*
X0242551Y0245616D01*
X0241584Y0245616D01*
X0244047Y0245616D02*
X0244047Y0242713D01*
X0244047Y0243681D02*
X0245498Y0243681D01*
X0245981Y0244165D01*
X0245981Y0245132D01*
X0245498Y0245616D01*
X0244047Y0245616D01*
X0244047Y0247712D02*
X0244047Y0250616D01*
X0245498Y0250616D01*
X0245981Y0250132D01*
X0245981Y0249165D01*
X0245498Y0248681D01*
X0244047Y0248681D01*
X0246495Y0262713D02*
X0247461Y0262713D01*
X0247946Y0263197D01*
X0247946Y0264165D01*
X0246978Y0264165D01*
X0246010Y0265132D02*
X0246010Y0263197D01*
X0246495Y0262713D01*
X0246010Y0265132D02*
X0246495Y0265616D01*
X0247461Y0265616D01*
X0247946Y0265132D01*
X0248957Y0265616D02*
X0250891Y0262713D01*
X0250891Y0265616D01*
X0248957Y0265616D02*
X0248957Y0262713D01*
X0218839Y0263197D02*
X0218355Y0262713D01*
X0216904Y0262713D01*
X0216904Y0265616D01*
X0218355Y0265616D01*
X0218839Y0265132D01*
X0218839Y0263197D01*
X0218839Y0260616D02*
X0216904Y0258680D01*
X0217388Y0259165D02*
X0218839Y0257712D01*
X0218355Y0255615D02*
X0217388Y0255615D01*
X0216904Y0255132D01*
X0216904Y0253196D01*
X0217388Y0252713D01*
X0218355Y0252713D01*
X0218839Y0253196D01*
X0218839Y0255132D01*
X0218355Y0255615D01*
X0216904Y0257712D02*
X0216904Y0260616D01*
X0215892Y0262713D02*
X0215892Y0265616D01*
X0213957Y0265616D02*
X0215892Y0262713D01*
X0213957Y0262713D02*
X0213957Y0265616D01*
X0212946Y0265132D02*
X0212462Y0265616D01*
X0211495Y0265616D01*
X0211011Y0265132D01*
X0211011Y0263197D01*
X0211495Y0262713D01*
X0212462Y0262713D01*
X0212946Y0263197D01*
X0212946Y0264165D01*
X0211978Y0264165D01*
X0211495Y0260616D02*
X0211011Y0260132D01*
X0211011Y0258197D01*
X0211495Y0257712D01*
X0212462Y0257712D01*
X0212946Y0258197D01*
X0213957Y0257712D02*
X0215892Y0257712D01*
X0215906Y0255615D02*
X0214940Y0255615D01*
X0215423Y0255615D02*
X0215423Y0252713D01*
X0214940Y0252713D02*
X0215906Y0252713D01*
X0215409Y0250616D02*
X0214441Y0250616D01*
X0213957Y0250132D01*
X0213957Y0249648D01*
X0214441Y0249165D01*
X0215409Y0249165D01*
X0215892Y0248681D01*
X0215892Y0248197D01*
X0215409Y0247712D01*
X0214441Y0247712D01*
X0213957Y0248197D01*
X0212946Y0248197D02*
X0212462Y0247712D01*
X0211495Y0247712D01*
X0211011Y0248197D01*
X0211011Y0250132D01*
X0211495Y0250616D01*
X0212462Y0250616D01*
X0212946Y0250132D01*
X0213444Y0252713D02*
X0211993Y0252713D01*
X0211993Y0255615D01*
X0213444Y0255615D01*
X0213927Y0255132D01*
X0213927Y0253196D01*
X0213444Y0252713D01*
X0215409Y0250616D02*
X0215892Y0250132D01*
X0216904Y0250616D02*
X0218355Y0250616D01*
X0218839Y0250132D01*
X0218839Y0249648D01*
X0218355Y0249165D01*
X0216904Y0249165D01*
X0216904Y0250616D02*
X0216904Y0247712D01*
X0218355Y0247712D01*
X0218839Y0248197D01*
X0218839Y0248681D01*
X0218355Y0249165D01*
X0218355Y0245616D02*
X0216904Y0245616D01*
X0216904Y0242713D01*
X0218355Y0242713D01*
X0218839Y0243197D01*
X0218839Y0243681D01*
X0218355Y0244165D01*
X0216904Y0244165D01*
X0215892Y0243681D02*
X0215892Y0243197D01*
X0215409Y0242713D01*
X0214441Y0242713D01*
X0213957Y0243197D01*
X0212946Y0243197D02*
X0212462Y0242713D01*
X0211495Y0242713D01*
X0211011Y0243197D01*
X0211011Y0245132D01*
X0211495Y0245616D01*
X0212462Y0245616D01*
X0212946Y0245132D01*
X0213957Y0245132D02*
X0213957Y0244648D01*
X0214441Y0244165D01*
X0215409Y0244165D01*
X0215892Y0243681D01*
X0215892Y0245132D02*
X0215409Y0245616D01*
X0214441Y0245616D01*
X0213957Y0245132D01*
X0213957Y0240616D02*
X0215892Y0237713D01*
X0215892Y0240616D01*
X0216904Y0240616D02*
X0218355Y0240616D01*
X0218839Y0240132D01*
X0218839Y0238197D01*
X0218355Y0237713D01*
X0216904Y0237713D01*
X0216904Y0240616D01*
X0218355Y0244165D02*
X0218839Y0244648D01*
X0218839Y0245132D01*
X0218355Y0245616D01*
X0213957Y0240616D02*
X0213957Y0237713D01*
X0212946Y0238197D02*
X0212946Y0239164D01*
X0211978Y0239164D01*
X0211011Y0240132D02*
X0211011Y0238197D01*
X0211495Y0237713D01*
X0212462Y0237713D01*
X0212946Y0238197D01*
X0212946Y0240132D02*
X0212462Y0240616D01*
X0211495Y0240616D01*
X0211011Y0240132D01*
X0209032Y0244165D02*
X0208063Y0244165D01*
X0208063Y0245616D02*
X0208063Y0242713D01*
X0208063Y0245616D02*
X0209999Y0245616D01*
X0209530Y0252713D02*
X0209046Y0253196D01*
X0209530Y0252713D02*
X0210497Y0252713D01*
X0210981Y0253196D01*
X0210981Y0253681D01*
X0210497Y0254165D01*
X0209530Y0254165D01*
X0209046Y0254648D01*
X0209046Y0255132D01*
X0209530Y0255615D01*
X0210497Y0255615D01*
X0210981Y0255132D01*
X0209516Y0257712D02*
X0208548Y0257712D01*
X0208063Y0258197D01*
X0208548Y0259165D02*
X0209516Y0259165D01*
X0209999Y0258680D01*
X0209999Y0258197D01*
X0209516Y0257712D01*
X0208548Y0259165D02*
X0208063Y0259648D01*
X0208063Y0260132D01*
X0208548Y0260616D01*
X0209516Y0260616D01*
X0209999Y0260132D01*
X0211495Y0260616D02*
X0212462Y0260616D01*
X0212946Y0260132D01*
X0213957Y0260616D02*
X0213957Y0257712D01*
X0213957Y0210616D02*
X0215892Y0207713D01*
X0215892Y0210616D01*
X0216904Y0210616D02*
X0216904Y0207713D01*
X0218355Y0207713D01*
X0218839Y0208197D01*
X0218839Y0210132D01*
X0218355Y0210616D01*
X0216904Y0210616D01*
X0216904Y0205616D02*
X0218839Y0205616D01*
X0217871Y0205616D02*
X0217871Y0202713D01*
X0215892Y0202713D02*
X0215892Y0205616D01*
X0213957Y0205616D02*
X0215892Y0202713D01*
X0215892Y0200616D02*
X0215892Y0197713D01*
X0213957Y0200616D01*
X0213957Y0197713D01*
X0212946Y0198197D02*
X0212946Y0199165D01*
X0211978Y0199165D01*
X0211011Y0200132D02*
X0211011Y0198197D01*
X0211495Y0197713D01*
X0212462Y0197713D01*
X0212946Y0198197D01*
X0212946Y0200132D02*
X0212462Y0200616D01*
X0211495Y0200616D01*
X0211011Y0200132D01*
X0211011Y0202713D02*
X0211011Y0204648D01*
X0211978Y0205616D01*
X0212946Y0204648D01*
X0212946Y0202713D01*
X0213957Y0202713D02*
X0213957Y0205616D01*
X0212946Y0204165D02*
X0211011Y0204165D01*
X0211495Y0207713D02*
X0212462Y0207713D01*
X0212946Y0208197D01*
X0212946Y0209165D01*
X0211978Y0209165D01*
X0211011Y0210132D02*
X0211011Y0208197D01*
X0211495Y0207713D01*
X0211011Y0210132D02*
X0211495Y0210616D01*
X0212462Y0210616D01*
X0212946Y0210132D01*
X0213957Y0210616D02*
X0213957Y0207713D01*
X0216904Y0200616D02*
X0218355Y0200616D01*
X0218839Y0200132D01*
X0218839Y0198197D01*
X0218355Y0197713D01*
X0216904Y0197713D01*
X0216904Y0200616D01*
D47*
X0215700Y0330763D02*
X0208700Y0330763D01*
X0207200Y0332263D01*
X0207200Y0349263D01*
X0208700Y0350763D01*
X0215700Y0350763D01*
X0217200Y0349263D01*
X0218699Y0350763D01*
X0225700Y0350763D01*
X0227199Y0349263D01*
X0228700Y0350763D01*
X0235700Y0350763D01*
X0237200Y0349263D01*
X0238700Y0350763D01*
X0245699Y0350763D01*
X0247200Y0349263D01*
X0248700Y0350763D01*
X0255700Y0350763D01*
X0257200Y0349263D01*
X0257200Y0332263D01*
X0255700Y0330763D01*
X0248700Y0330763D01*
X0247200Y0332263D01*
X0245699Y0330763D01*
X0238700Y0330763D01*
X0237200Y0332263D01*
X0235700Y0330763D01*
X0228700Y0330763D01*
X0227199Y0332263D01*
X0225700Y0330763D01*
X0218699Y0330763D01*
X0217200Y0332263D01*
X0215700Y0330763D01*
G04 next file*
G75*
D48*
X0291314Y0195763D02*
X0346314Y0195763D01*
X0346314Y0275762D01*
X0291314Y0275762D01*
X0291314Y0195763D01*
X0331003Y0324013D02*
X0330253Y0324764D01*
X0331003Y0324013D02*
X0331754Y0324013D01*
X0332505Y0324764D01*
X0332505Y0328517D01*
X0333255Y0328517D02*
X0331754Y0328517D01*
X0334857Y0328517D02*
X0334857Y0324013D01*
X0334857Y0325515D02*
X0337108Y0325515D01*
X0337858Y0326265D01*
X0337858Y0327766D01*
X0337108Y0328517D01*
X0334857Y0328517D01*
X0339459Y0327016D02*
X0340962Y0328517D01*
X0340962Y0324013D01*
X0342463Y0324013D02*
X0339459Y0324013D01*
D49*
X0329608Y0220567D02*
X0328074Y0220567D01*
X0327306Y0219800D01*
X0327306Y0216731D01*
X0330376Y0219800D01*
X0330376Y0216731D01*
X0329608Y0215963D01*
X0328074Y0215963D01*
X0327306Y0216731D01*
X0325772Y0216731D02*
X0325772Y0219800D01*
X0322703Y0216731D01*
X0323470Y0215963D01*
X0325005Y0215963D01*
X0325772Y0216731D01*
X0325772Y0219800D02*
X0325005Y0220567D01*
X0323470Y0220567D01*
X0322703Y0219800D01*
X0322703Y0216731D01*
X0321168Y0216731D02*
X0320401Y0215963D01*
X0318866Y0215963D01*
X0318099Y0216731D01*
X0316564Y0215963D02*
X0313495Y0215963D01*
X0316564Y0219033D01*
X0316564Y0219800D01*
X0315797Y0220567D01*
X0314262Y0220567D01*
X0313495Y0219800D01*
X0311960Y0220567D02*
X0308891Y0220567D01*
X0310425Y0220567D02*
X0310425Y0215963D01*
X0307356Y0215963D02*
X0307356Y0220567D01*
X0305821Y0219033D01*
X0304287Y0220567D01*
X0304287Y0215963D01*
X0302752Y0216731D02*
X0301985Y0215963D01*
X0300450Y0215963D01*
X0299683Y0216731D01*
X0299683Y0219800D01*
X0300450Y0220567D01*
X0301985Y0220567D01*
X0302752Y0219800D01*
X0318099Y0219800D02*
X0318866Y0220567D01*
X0320401Y0220567D01*
X0321168Y0219800D01*
X0321168Y0219033D01*
X0320401Y0218265D01*
X0321168Y0217498D01*
X0321168Y0216731D01*
X0320401Y0218265D02*
X0319633Y0218265D01*
X0329608Y0220567D02*
X0330376Y0219800D01*
X0332678Y0217498D02*
X0331910Y0216731D01*
X0332678Y0215963D01*
X0334980Y0215963D01*
X0334980Y0218265D01*
X0334212Y0219033D01*
X0332678Y0219033D01*
X0332678Y0217498D02*
X0334980Y0217498D01*
D50*
X0335571Y0210616D02*
X0337506Y0207713D01*
X0337506Y0210616D01*
X0338518Y0210616D02*
X0338518Y0207713D01*
X0339969Y0207713D01*
X0340453Y0208197D01*
X0340453Y0210132D01*
X0339969Y0210616D01*
X0338518Y0210616D01*
X0338518Y0205616D02*
X0339969Y0205616D01*
X0340453Y0205132D01*
X0340453Y0203196D01*
X0339969Y0202713D01*
X0338518Y0202713D01*
X0338518Y0205616D01*
X0337506Y0205616D02*
X0337506Y0202713D01*
X0335571Y0205616D01*
X0335571Y0202713D01*
X0334560Y0203196D02*
X0334560Y0204165D01*
X0333592Y0204165D01*
X0332624Y0205132D02*
X0333109Y0205616D01*
X0334076Y0205616D01*
X0334560Y0205132D01*
X0334560Y0203196D02*
X0334076Y0202713D01*
X0333109Y0202713D01*
X0332624Y0203196D01*
X0332624Y0205132D01*
X0333109Y0207713D02*
X0332624Y0208197D01*
X0332624Y0210132D01*
X0333109Y0210616D01*
X0334076Y0210616D01*
X0334560Y0210132D01*
X0334560Y0209165D02*
X0333592Y0209165D01*
X0334560Y0208197D02*
X0334076Y0207713D01*
X0333109Y0207713D01*
X0334560Y0208197D02*
X0334560Y0209165D01*
X0335571Y0210616D02*
X0335571Y0207713D01*
X0335571Y0200616D02*
X0337506Y0197713D01*
X0337506Y0200616D01*
X0338518Y0200616D02*
X0338518Y0197713D01*
X0339969Y0197713D01*
X0340453Y0198197D01*
X0340453Y0200132D01*
X0339969Y0200616D01*
X0338518Y0200616D01*
X0335571Y0200616D02*
X0335571Y0197713D01*
X0334560Y0198197D02*
X0334560Y0199165D01*
X0333592Y0199165D01*
X0332624Y0200132D02*
X0333109Y0200616D01*
X0334076Y0200616D01*
X0334560Y0200132D01*
X0334560Y0198197D02*
X0334076Y0197713D01*
X0333109Y0197713D01*
X0332624Y0198197D01*
X0332624Y0200132D01*
X0333109Y0237713D02*
X0334076Y0237713D01*
X0334560Y0238197D01*
X0334560Y0239164D01*
X0333592Y0239164D01*
X0332624Y0240132D02*
X0332624Y0238197D01*
X0333109Y0237713D01*
X0332624Y0240132D02*
X0333109Y0240616D01*
X0334076Y0240616D01*
X0334560Y0240132D01*
X0335571Y0240616D02*
X0337506Y0237713D01*
X0337506Y0240616D01*
X0337023Y0242713D02*
X0337506Y0243197D01*
X0337506Y0245132D01*
X0337023Y0245616D01*
X0336055Y0245616D01*
X0335571Y0245132D01*
X0335571Y0243197D01*
X0336055Y0242713D01*
X0337023Y0242713D01*
X0338518Y0242713D02*
X0340453Y0242713D01*
X0339485Y0242713D02*
X0339485Y0245616D01*
X0338518Y0244648D01*
X0338518Y0247712D02*
X0340453Y0249648D01*
X0340453Y0250132D01*
X0339969Y0250616D01*
X0339002Y0250616D01*
X0338518Y0250132D01*
X0339002Y0252713D02*
X0338518Y0253196D01*
X0339002Y0252713D02*
X0339969Y0252713D01*
X0340453Y0253196D01*
X0340453Y0253681D01*
X0339969Y0254165D01*
X0339485Y0254165D01*
X0339969Y0254165D02*
X0340453Y0254648D01*
X0340453Y0255132D01*
X0339969Y0255615D01*
X0339002Y0255615D01*
X0338518Y0255132D01*
X0339485Y0257712D02*
X0340453Y0258680D01*
X0340453Y0260616D01*
X0339969Y0262713D02*
X0340453Y0263197D01*
X0340453Y0265132D01*
X0339969Y0265616D01*
X0338518Y0265616D01*
X0338518Y0262713D01*
X0339969Y0262713D01*
X0338518Y0260616D02*
X0338518Y0258680D01*
X0339485Y0257712D01*
X0337506Y0258197D02*
X0337023Y0257712D01*
X0336055Y0257712D01*
X0335571Y0258197D01*
X0334582Y0258197D02*
X0334582Y0257712D01*
X0334098Y0257712D01*
X0334098Y0258197D01*
X0334582Y0258197D01*
X0335571Y0260132D02*
X0336055Y0260616D01*
X0337023Y0260616D01*
X0337506Y0260132D01*
X0337506Y0259648D01*
X0337023Y0259165D01*
X0337506Y0258680D01*
X0337506Y0258197D01*
X0337023Y0259165D02*
X0336539Y0259165D01*
X0337023Y0255615D02*
X0336055Y0255615D01*
X0335571Y0255132D01*
X0335571Y0253196D01*
X0336055Y0252713D01*
X0337023Y0252713D01*
X0337506Y0253196D01*
X0337506Y0255132D01*
X0337023Y0255615D01*
X0334575Y0255615D02*
X0333607Y0255615D01*
X0334091Y0255615D02*
X0334091Y0252713D01*
X0333607Y0252713D02*
X0334575Y0252713D01*
X0334575Y0250616D02*
X0333607Y0250616D01*
X0334091Y0250616D02*
X0334091Y0247712D01*
X0333607Y0247712D02*
X0334575Y0247712D01*
X0335571Y0248197D02*
X0336055Y0247712D01*
X0337023Y0247712D01*
X0337506Y0248197D01*
X0337506Y0250132D01*
X0337023Y0250616D01*
X0336055Y0250616D01*
X0335571Y0250132D01*
X0335571Y0248197D01*
X0334575Y0245616D02*
X0333607Y0245616D01*
X0334091Y0245616D02*
X0334091Y0242713D01*
X0333607Y0242713D02*
X0334575Y0242713D01*
X0335571Y0240616D02*
X0335571Y0237713D01*
X0338518Y0237713D02*
X0339969Y0237713D01*
X0340453Y0238197D01*
X0340453Y0240132D01*
X0339969Y0240616D01*
X0338518Y0240616D01*
X0338518Y0237713D01*
X0338518Y0247712D02*
X0340453Y0247712D01*
X0332603Y0257712D02*
X0333087Y0258197D01*
X0333087Y0258680D01*
X0332603Y0259165D01*
X0332119Y0259165D01*
X0332603Y0259165D02*
X0333087Y0259648D01*
X0333087Y0260132D01*
X0332603Y0260616D01*
X0331635Y0260616D01*
X0331152Y0260132D01*
X0331152Y0258197D02*
X0331635Y0257712D01*
X0332603Y0257712D01*
X0332112Y0255615D02*
X0332595Y0255132D01*
X0332595Y0254165D01*
X0332112Y0253681D01*
X0330661Y0253681D01*
X0330661Y0252713D02*
X0330661Y0255615D01*
X0332112Y0255615D01*
X0329649Y0255132D02*
X0329165Y0255615D01*
X0328198Y0255615D01*
X0327714Y0255132D01*
X0327714Y0253196D01*
X0328198Y0252713D01*
X0329165Y0252713D01*
X0329649Y0253196D01*
X0329649Y0254165D01*
X0328681Y0254165D01*
X0328198Y0250616D02*
X0327714Y0250132D01*
X0327714Y0248197D01*
X0328198Y0247712D01*
X0329165Y0247712D01*
X0329649Y0248197D01*
X0329649Y0249165D01*
X0328681Y0249165D01*
X0329649Y0250132D02*
X0329165Y0250616D01*
X0328198Y0250616D01*
X0328198Y0245616D02*
X0327714Y0245132D01*
X0327714Y0243197D01*
X0328198Y0242713D01*
X0329165Y0242713D01*
X0329649Y0243197D01*
X0329649Y0244165D01*
X0328681Y0244165D01*
X0329649Y0245132D02*
X0329165Y0245616D01*
X0328198Y0245616D01*
X0330661Y0245616D02*
X0330661Y0242713D01*
X0330661Y0243681D02*
X0332112Y0243681D01*
X0332595Y0244165D01*
X0332595Y0245132D01*
X0332112Y0245616D01*
X0330661Y0245616D01*
X0330661Y0247712D02*
X0330661Y0250616D01*
X0332112Y0250616D01*
X0332595Y0250132D01*
X0332595Y0249165D01*
X0332112Y0248681D01*
X0330661Y0248681D01*
X0333109Y0262713D02*
X0334076Y0262713D01*
X0334560Y0263197D01*
X0334560Y0264165D01*
X0333592Y0264165D01*
X0332624Y0265132D02*
X0332624Y0263197D01*
X0333109Y0262713D01*
X0332624Y0265132D02*
X0333109Y0265616D01*
X0334076Y0265616D01*
X0334560Y0265132D01*
X0335571Y0265616D02*
X0337506Y0262713D01*
X0337506Y0265616D01*
X0335571Y0265616D02*
X0335571Y0262713D01*
X0305453Y0263197D02*
X0304969Y0262713D01*
X0303518Y0262713D01*
X0303518Y0265616D01*
X0304969Y0265616D01*
X0305453Y0265132D01*
X0305453Y0263197D01*
X0305453Y0260616D02*
X0303518Y0258680D01*
X0304002Y0259165D02*
X0305453Y0257712D01*
X0304969Y0255615D02*
X0304002Y0255615D01*
X0303518Y0255132D01*
X0303518Y0253196D01*
X0304002Y0252713D01*
X0304969Y0252713D01*
X0305453Y0253196D01*
X0305453Y0255132D01*
X0304969Y0255615D01*
X0303518Y0257712D02*
X0303518Y0260616D01*
X0302506Y0262713D02*
X0302506Y0265616D01*
X0300571Y0265616D02*
X0302506Y0262713D01*
X0300571Y0262713D02*
X0300571Y0265616D01*
X0299560Y0265132D02*
X0299076Y0265616D01*
X0298109Y0265616D01*
X0297624Y0265132D01*
X0297624Y0263197D01*
X0298109Y0262713D01*
X0299076Y0262713D01*
X0299560Y0263197D01*
X0299560Y0264165D01*
X0298591Y0264165D01*
X0298109Y0260616D02*
X0297624Y0260132D01*
X0297624Y0258197D01*
X0298109Y0257712D01*
X0299076Y0257712D01*
X0299560Y0258197D01*
X0300571Y0257712D02*
X0302506Y0257712D01*
X0302521Y0255615D02*
X0301554Y0255615D01*
X0302037Y0255615D02*
X0302037Y0252713D01*
X0301554Y0252713D02*
X0302521Y0252713D01*
X0302023Y0250616D02*
X0301055Y0250616D01*
X0300571Y0250132D01*
X0300571Y0249648D01*
X0301055Y0249165D01*
X0302023Y0249165D01*
X0302506Y0248681D01*
X0302506Y0248197D01*
X0302023Y0247712D01*
X0301055Y0247712D01*
X0300571Y0248197D01*
X0299560Y0248197D02*
X0299076Y0247712D01*
X0298109Y0247712D01*
X0297624Y0248197D01*
X0297624Y0250132D01*
X0298109Y0250616D01*
X0299076Y0250616D01*
X0299560Y0250132D01*
X0300057Y0252713D02*
X0298607Y0252713D01*
X0298607Y0255615D01*
X0300057Y0255615D01*
X0300542Y0255132D01*
X0300542Y0253196D01*
X0300057Y0252713D01*
X0302023Y0250616D02*
X0302506Y0250132D01*
X0303518Y0250616D02*
X0304969Y0250616D01*
X0305453Y0250132D01*
X0305453Y0249648D01*
X0304969Y0249165D01*
X0303518Y0249165D01*
X0303518Y0250616D02*
X0303518Y0247712D01*
X0304969Y0247712D01*
X0305453Y0248197D01*
X0305453Y0248681D01*
X0304969Y0249165D01*
X0304969Y0245616D02*
X0303518Y0245616D01*
X0303518Y0242713D01*
X0304969Y0242713D01*
X0305453Y0243197D01*
X0305453Y0243681D01*
X0304969Y0244165D01*
X0303518Y0244165D01*
X0302506Y0243681D02*
X0302506Y0243197D01*
X0302023Y0242713D01*
X0301055Y0242713D01*
X0300571Y0243197D01*
X0299560Y0243197D02*
X0299076Y0242713D01*
X0298109Y0242713D01*
X0297624Y0243197D01*
X0297624Y0245132D01*
X0298109Y0245616D01*
X0299076Y0245616D01*
X0299560Y0245132D01*
X0300571Y0245132D02*
X0300571Y0244648D01*
X0301055Y0244165D01*
X0302023Y0244165D01*
X0302506Y0243681D01*
X0302506Y0245132D02*
X0302023Y0245616D01*
X0301055Y0245616D01*
X0300571Y0245132D01*
X0300571Y0240616D02*
X0302506Y0237713D01*
X0302506Y0240616D01*
X0303518Y0240616D02*
X0304969Y0240616D01*
X0305453Y0240132D01*
X0305453Y0238197D01*
X0304969Y0237713D01*
X0303518Y0237713D01*
X0303518Y0240616D01*
X0304969Y0244165D02*
X0305453Y0244648D01*
X0305453Y0245132D01*
X0304969Y0245616D01*
X0300571Y0240616D02*
X0300571Y0237713D01*
X0299560Y0238197D02*
X0299560Y0239164D01*
X0298591Y0239164D01*
X0297624Y0240132D02*
X0297624Y0238197D01*
X0298109Y0237713D01*
X0299076Y0237713D01*
X0299560Y0238197D01*
X0299560Y0240132D02*
X0299076Y0240616D01*
X0298109Y0240616D01*
X0297624Y0240132D01*
X0295646Y0244165D02*
X0294678Y0244165D01*
X0294678Y0245616D02*
X0294678Y0242713D01*
X0294678Y0245616D02*
X0296613Y0245616D01*
X0296144Y0252713D02*
X0295661Y0253196D01*
X0296144Y0252713D02*
X0297112Y0252713D01*
X0297595Y0253196D01*
X0297595Y0253681D01*
X0297112Y0254165D01*
X0296144Y0254165D01*
X0295661Y0254648D01*
X0295661Y0255132D01*
X0296144Y0255615D01*
X0297112Y0255615D01*
X0297595Y0255132D01*
X0296129Y0257712D02*
X0295162Y0257712D01*
X0294678Y0258197D01*
X0295162Y0259165D02*
X0296129Y0259165D01*
X0296613Y0258680D01*
X0296613Y0258197D01*
X0296129Y0257712D01*
X0295162Y0259165D02*
X0294678Y0259648D01*
X0294678Y0260132D01*
X0295162Y0260616D01*
X0296129Y0260616D01*
X0296613Y0260132D01*
X0298109Y0260616D02*
X0299076Y0260616D01*
X0299560Y0260132D01*
X0300571Y0260616D02*
X0300571Y0257712D01*
X0300571Y0210616D02*
X0302506Y0207713D01*
X0302506Y0210616D01*
X0303518Y0210616D02*
X0303518Y0207713D01*
X0304969Y0207713D01*
X0305453Y0208197D01*
X0305453Y0210132D01*
X0304969Y0210616D01*
X0303518Y0210616D01*
X0303518Y0205616D02*
X0305453Y0205616D01*
X0304485Y0205616D02*
X0304485Y0202713D01*
X0302506Y0202713D02*
X0302506Y0205616D01*
X0300571Y0205616D02*
X0302506Y0202713D01*
X0302506Y0200616D02*
X0302506Y0197713D01*
X0300571Y0200616D01*
X0300571Y0197713D01*
X0299560Y0198197D02*
X0299560Y0199165D01*
X0298591Y0199165D01*
X0297624Y0200132D02*
X0297624Y0198197D01*
X0298109Y0197713D01*
X0299076Y0197713D01*
X0299560Y0198197D01*
X0299560Y0200132D02*
X0299076Y0200616D01*
X0298109Y0200616D01*
X0297624Y0200132D01*
X0297624Y0202713D02*
X0297624Y0204648D01*
X0298591Y0205616D01*
X0299560Y0204648D01*
X0299560Y0202713D01*
X0300571Y0202713D02*
X0300571Y0205616D01*
X0299560Y0204165D02*
X0297624Y0204165D01*
X0298109Y0207713D02*
X0299076Y0207713D01*
X0299560Y0208197D01*
X0299560Y0209165D01*
X0298591Y0209165D01*
X0297624Y0210132D02*
X0297624Y0208197D01*
X0298109Y0207713D01*
X0297624Y0210132D02*
X0298109Y0210616D01*
X0299076Y0210616D01*
X0299560Y0210132D01*
X0300571Y0210616D02*
X0300571Y0207713D01*
X0303518Y0200616D02*
X0304969Y0200616D01*
X0305453Y0200132D01*
X0305453Y0198197D01*
X0304969Y0197713D01*
X0303518Y0197713D01*
X0303518Y0200616D01*
D51*
X0302314Y0330763D02*
X0295314Y0330763D01*
X0293814Y0332263D01*
X0293814Y0349263D01*
X0295314Y0350763D01*
X0302314Y0350763D01*
X0303814Y0349263D01*
X0305313Y0350763D01*
X0312314Y0350763D01*
X0313814Y0349263D01*
X0315314Y0350763D01*
X0322313Y0350763D01*
X0323814Y0349263D01*
X0325314Y0350763D01*
X0332314Y0350763D01*
X0333813Y0349263D01*
X0335314Y0350763D01*
X0342314Y0350763D01*
X0343814Y0349263D01*
X0343814Y0332263D01*
X0342314Y0330763D01*
X0335314Y0330763D01*
X0333813Y0332263D01*
X0332314Y0330763D01*
X0325314Y0330763D01*
X0323814Y0332263D01*
X0322313Y0330763D01*
X0315314Y0330763D01*
X0313814Y0332263D01*
X0312314Y0330763D01*
X0305313Y0330763D01*
X0303814Y0332263D01*
X0302314Y0330763D01*
M02*