%MOIN*%
%OFA0B0*%
%FSLAX25Y25*%
%IPPOS*%
%LPD*%
%AMOC8*
5,1,8,0,0,$1,22.5*%
%AMCOMP66*
4,1,7,
-0.011597956170014188,0.027999943081456966,
0.011597956170014185,0.027999943081456966,
0.027999943081456966,0.01159795617001419,
0.027999943081456966,-0.011597956170014185,
0.011597956170014192,-0.027999943081456966,
-0.011597956170014185,-0.027999943081456966,
-0.027999943081456966,-0.011597956170014192,
-0.027999943081456966,0.011597956170014181,
0*%
%AMOC80*
5,1,8,0,0,$1,22.5*%
%AMCOMP700*
4,1,7,
-0.011597956170014188,0.027999943081456966,
0.011597956170014185,0.027999943081456966,
0.027999943081456966,0.01159795617001419,
0.027999943081456966,-0.011597956170014185,
0.011597956170014192,-0.027999943081456966,
-0.011597956170014185,-0.027999943081456966,
-0.027999943081456966,-0.011597956170014192,
-0.027999943081456966,0.011597956170014181,
0*%
%AMOC81*
5,1,8,0,0,$1,22.5*%
%AMCOMP740*
4,1,7,
-0.011597956170014188,0.027999943081456966,
0.011597956170014185,0.027999943081456966,
0.027999943081456966,0.01159795617001419,
0.027999943081456966,-0.011597956170014185,
0.011597956170014192,-0.027999943081456966,
-0.011597956170014185,-0.027999943081456966,
-0.027999943081456966,-0.011597956170014192,
-0.027999943081456966,0.011597956170014181,
0*%
%AMOC80*
5,1,8,0,0,$1,22.5*%
%AMCOMP780*
4,1,7,
-0.011597956170014188,0.027999943081456966,
0.011597956170014185,0.027999943081456966,
0.027999943081456966,0.01159795617001419,
0.027999943081456966,-0.011597956170014185,
0.011597956170014192,-0.027999943081456966,
-0.011597956170014185,-0.027999943081456966,
-0.027999943081456966,-0.011597956170014192,
-0.027999943081456966,0.011597956170014181,
0*%
%AMOC81*
5,1,8,0,0,$1,22.5*%
%AMCOMP820*
4,1,7,
-0.011597956170014188,0.027999943081456966,
0.011597956170014185,0.027999943081456966,
0.027999943081456966,0.01159795617001419,
0.027999943081456966,-0.011597956170014185,
0.011597956170014192,-0.027999943081456966,
-0.011597956170014185,-0.027999943081456966,
-0.027999943081456966,-0.011597956170014192,
-0.027999943081456966,0.011597956170014181,
0*%
%AMOC80*
5,1,8,0,0,$1,22.5*%
%AMCOMP860*
4,1,7,
-0.011597956170014188,0.027999943081456966,
0.011597956170014185,0.027999943081456966,
0.027999943081456966,0.01159795617001419,
0.027999943081456966,-0.011597956170014185,
0.011597956170014192,-0.027999943081456966,
-0.011597956170014185,-0.027999943081456966,
-0.027999943081456966,-0.011597956170014192,
-0.027999943081456966,0.011597956170014181,
0*%
%AMOC81*
5,1,8,0,0,$1,22.5*%
%AMCOMP900*
4,1,7,
-0.011597956170014188,0.027999943081456966,
0.011597956170014185,0.027999943081456966,
0.027999943081456966,0.01159795617001419,
0.027999943081456966,-0.011597956170014185,
0.011597956170014192,-0.027999943081456966,
-0.011597956170014185,-0.027999943081456966,
-0.027999943081456966,-0.011597956170014192,
-0.027999943081456966,0.011597956170014181,
0*%
%AMOC80*
5,1,8,0,0,$1,22.5*%
%AMCOMP940*
4,1,7,
-0.011597956170014188,0.027999943081456966,
0.011597956170014185,0.027999943081456966,
0.027999943081456966,0.01159795617001419,
0.027999943081456966,-0.011597956170014185,
0.011597956170014192,-0.027999943081456966,
-0.011597956170014185,-0.027999943081456966,
-0.027999943081456966,-0.011597956170014192,
-0.027999943081456966,0.011597956170014181,
0*%
%ADD10R,0.046X0.063*%
%AMCOMP113*
4,1,7,
-0.011597956170014188,0.027999943081456966,
0.011597956170014185,0.027999943081456966,
0.027999943081456966,0.01159795617001419,
0.027999943081456966,-0.011597956170014185,
0.011597956170014192,-0.027999943081456966,
-0.011597956170014185,-0.027999943081456966,
-0.027999943081456966,-0.011597956170014192,
-0.027999943081456966,0.011597956170014181,
0*%
%ADD11COMP113,0.056*%
%ADD12C,0.06299*%
%ADD13C,0.01575*%
%ADD14C,0.0315*%
%ADD15C,0.04331*%
%ADD26R,0.046X0.063*%
%AMCOMP114*
4,1,7,
-0.011597956170014188,0.027999943081456966,
0.011597956170014185,0.027999943081456966,
0.027999943081456966,0.01159795617001419,
0.027999943081456966,-0.011597956170014185,
0.011597956170014192,-0.027999943081456966,
-0.011597956170014185,-0.027999943081456966,
-0.027999943081456966,-0.011597956170014192,
-0.027999943081456966,0.011597956170014181,
0*%
%ADD27COMP114,0.056*%
%ADD28C,0.06299*%
%ADD29C,0.01575*%
%ADD30C,0.0315*%
%ADD31C,0.04331*%
%ADD32R,0.046X0.063*%
%AMCOMP115*
4,1,7,
-0.011597956170014188,0.027999943081456966,
0.011597956170014185,0.027999943081456966,
0.027999943081456966,0.01159795617001419,
0.027999943081456966,-0.011597956170014185,
0.011597956170014192,-0.027999943081456966,
-0.011597956170014185,-0.027999943081456966,
-0.027999943081456966,-0.011597956170014192,
-0.027999943081456966,0.011597956170014181,
0*%
%ADD33COMP115,0.056*%
%ADD34C,0.06299*%
%ADD35C,0.01575*%
%ADD36C,0.0315*%
%ADD37C,0.04331*%
%ADD38R,0.046X0.063*%
%AMCOMP116*
4,1,7,
-0.011597956170014188,0.027999943081456966,
0.011597956170014185,0.027999943081456966,
0.027999943081456966,0.01159795617001419,
0.027999943081456966,-0.011597956170014185,
0.011597956170014192,-0.027999943081456966,
-0.011597956170014185,-0.027999943081456966,
-0.027999943081456966,-0.011597956170014192,
-0.027999943081456966,0.011597956170014181,
0*%
%ADD39COMP116,0.056*%
%ADD40C,0.06299*%
%ADD41C,0.01575*%
%ADD42C,0.0315*%
%ADD43C,0.04331*%
%ADD44R,0.046X0.063*%
%AMCOMP117*
4,1,7,
-0.011597956170014188,0.027999943081456966,
0.011597956170014185,0.027999943081456966,
0.027999943081456966,0.01159795617001419,
0.027999943081456966,-0.011597956170014185,
0.011597956170014192,-0.027999943081456966,
-0.011597956170014185,-0.027999943081456966,
-0.027999943081456966,-0.011597956170014192,
-0.027999943081456966,0.011597956170014181,
0*%
%ADD45COMP117,0.056*%
%ADD46C,0.06299*%
%ADD47C,0.01575*%
%ADD48C,0.0315*%
%ADD49C,0.04331*%
%ADD50R,0.046X0.063*%
%AMCOMP118*
4,1,7,
-0.011597956170014188,0.027999943081456966,
0.011597956170014185,0.027999943081456966,
0.027999943081456966,0.01159795617001419,
0.027999943081456966,-0.011597956170014185,
0.011597956170014192,-0.027999943081456966,
-0.011597956170014185,-0.027999943081456966,
-0.027999943081456966,-0.011597956170014192,
-0.027999943081456966,0.011597956170014181,
0*%
%ADD51COMP118,0.056*%
%ADD52C,0.06299*%
%ADD53C,0.01575*%
%ADD54C,0.0315*%
%ADD55C,0.04331*%
%ADD56R,0.046X0.063*%
%AMCOMP119*
4,1,7,
-0.011597956170014188,0.027999943081456966,
0.011597956170014185,0.027999943081456966,
0.027999943081456966,0.01159795617001419,
0.027999943081456966,-0.011597956170014185,
0.011597956170014192,-0.027999943081456966,
-0.011597956170014185,-0.027999943081456966,
-0.027999943081456966,-0.011597956170014192,
-0.027999943081456966,0.011597956170014181,
0*%
%ADD57COMP119,0.056*%
%ADD58C,0.06299*%
%ADD59C,0.01575*%
%ADD60C,0.0315*%
%ADD61C,0.04331*%
%ADD62R,0.046X0.063*%
%AMCOMP120*
4,1,7,
-0.011597956170014188,0.027999943081456966,
0.011597956170014185,0.027999943081456966,
0.027999943081456966,0.01159795617001419,
0.027999943081456966,-0.011597956170014185,
0.011597956170014192,-0.027999943081456966,
-0.011597956170014185,-0.027999943081456966,
-0.027999943081456966,-0.011597956170014192,
-0.027999943081456966,0.011597956170014181,
0*%
%ADD63COMP120,0.056*%
%ADD64C,0.06299*%
%ADD65C,0.01575*%
%ADD66C,0.0315*%
%ADD67C,0.04331*%
G75*
D10*
X0019685Y0011811D02*
X0043472Y0093598D03*
X0049472Y0093598D03*
X0070972Y0093598D03*
X0076972Y0093598D03*
D11*
X0078972Y0158598D03*
X0078972Y0168598D03*
X0068972Y0168598D03*
X0068972Y0158598D03*
X0058972Y0158598D03*
X0058972Y0168598D03*
X0048972Y0168598D03*
X0048972Y0158598D03*
X0038972Y0158598D03*
X0038972Y0168598D03*
D12*
X0071472Y0136098D03*
X0071472Y0116097D03*
D13*
X0023638Y0176433D02*
X0023638Y0015763D01*
X0094307Y0015763D01*
X0094307Y0176433D01*
X0023638Y0176433D01*
X0023638Y0175650D02*
X0094307Y0175650D01*
X0094307Y0174076D02*
X0023638Y0174076D01*
X0023638Y0172503D02*
X0036133Y0172503D01*
X0036997Y0173367D02*
X0034204Y0170574D01*
X0034204Y0170227D01*
X0029911Y0165935D01*
X0029136Y0165159D01*
X0028716Y0164147D01*
X0028716Y0095550D01*
X0029136Y0094537D01*
X0031635Y0092037D01*
X0032411Y0091262D01*
X0033424Y0090841D01*
X0039204Y0090841D01*
X0039204Y0089633D01*
X0040357Y0088480D01*
X0046716Y0088480D01*
X0046716Y0087550D01*
X0047136Y0086537D01*
X0061636Y0072037D01*
X0062411Y0071262D01*
X0063424Y0070842D01*
X0065882Y0070842D01*
X0066631Y0070094D01*
X0068150Y0069465D01*
X0069795Y0069465D01*
X0071314Y0070094D01*
X0072476Y0071256D01*
X0073106Y0072776D01*
X0073106Y0074420D01*
X0072476Y0075939D01*
X0071314Y0077103D01*
X0069795Y0077732D01*
X0068150Y0077732D01*
X0066631Y0077103D01*
X0065882Y0076353D01*
X0065113Y0076353D01*
X0052788Y0088680D01*
X0053741Y0089633D01*
X0053741Y0097564D01*
X0052588Y0098717D01*
X0040357Y0098717D01*
X0039204Y0097564D01*
X0039204Y0096354D01*
X0035114Y0096354D01*
X0034228Y0097240D01*
X0034228Y0156599D01*
X0036216Y0154611D01*
X0036216Y0118050D01*
X0036636Y0117036D01*
X0037411Y0116262D01*
X0062411Y0091262D01*
X0063424Y0090841D01*
X0066704Y0090841D01*
X0066704Y0089633D01*
X0067857Y0088480D01*
X0073716Y0088480D01*
X0073716Y0081689D01*
X0072968Y0080940D01*
X0072339Y0079421D01*
X0072339Y0077776D01*
X0072968Y0076257D01*
X0074130Y0075094D01*
X0075649Y0074465D01*
X0077295Y0074465D01*
X0078813Y0075094D01*
X0079977Y0076257D01*
X0080606Y0077776D01*
X0080606Y0079421D01*
X0079977Y0080940D01*
X0079228Y0081689D01*
X0079228Y0088480D01*
X0080087Y0088480D01*
X0081241Y0089633D01*
X0081241Y0097564D01*
X0080087Y0098717D01*
X0067857Y0098717D01*
X0066704Y0097564D01*
X0066704Y0096354D01*
X0065113Y0096354D01*
X0041728Y0119740D01*
X0041728Y0154611D01*
X0043741Y0156623D01*
X0043741Y0160574D01*
X0040948Y0163367D01*
X0036997Y0163367D01*
X0034228Y0160598D01*
X0034228Y0162457D01*
X0036299Y0164528D01*
X0036997Y0163830D01*
X0040948Y0163830D01*
X0043741Y0166623D01*
X0043741Y0170574D01*
X0040948Y0173367D01*
X0036997Y0173367D01*
X0036472Y0168598D02*
X0031472Y0163598D01*
X0031472Y0096098D01*
X0033972Y0093598D01*
X0043472Y0093598D01*
X0040198Y0098557D02*
X0034228Y0098557D01*
X0034228Y0100130D02*
X0053542Y0100130D01*
X0052747Y0098557D02*
X0055116Y0098557D01*
X0053741Y0096984D02*
X0056689Y0096984D01*
X0058263Y0095411D02*
X0053741Y0095411D01*
X0053741Y0093837D02*
X0059836Y0093837D01*
X0061409Y0092264D02*
X0053741Y0092264D01*
X0053741Y0090691D02*
X0066704Y0090691D01*
X0067219Y0089117D02*
X0053225Y0089117D01*
X0053924Y0087544D02*
X0073716Y0087544D01*
X0073716Y0085970D02*
X0055496Y0085970D01*
X0057071Y0084398D02*
X0073716Y0084398D01*
X0073716Y0082824D02*
X0058643Y0082824D01*
X0060217Y0081251D02*
X0073279Y0081251D01*
X0072445Y0079678D02*
X0061790Y0079678D01*
X0063364Y0078104D02*
X0072339Y0078104D01*
X0071886Y0076531D02*
X0072854Y0076531D01*
X0072884Y0074958D02*
X0074460Y0074958D01*
X0073106Y0073384D02*
X0094307Y0073384D01*
X0094307Y0071811D02*
X0072706Y0071811D01*
X0071458Y0070238D02*
X0094307Y0070238D01*
X0094307Y0068664D02*
X0023638Y0068664D01*
X0023638Y0067091D02*
X0094307Y0067091D01*
X0094307Y0065518D02*
X0023638Y0065518D01*
X0023638Y0063944D02*
X0094307Y0063944D01*
X0094307Y0062371D02*
X0023638Y0062371D01*
X0023638Y0060798D02*
X0094307Y0060798D01*
X0094307Y0059225D02*
X0023638Y0059225D01*
X0023638Y0057651D02*
X0094307Y0057651D01*
X0094307Y0056077D02*
X0023638Y0056077D01*
X0023638Y0054505D02*
X0094307Y0054505D01*
X0094307Y0052930D02*
X0023638Y0052930D01*
X0023638Y0051358D02*
X0094307Y0051358D01*
X0094307Y0049785D02*
X0023638Y0049785D01*
X0023638Y0048211D02*
X0094307Y0048211D01*
X0094307Y0046638D02*
X0023638Y0046638D01*
X0023638Y0045065D02*
X0094307Y0045065D01*
X0094307Y0043491D02*
X0023638Y0043491D01*
X0023638Y0041918D02*
X0094307Y0041918D01*
X0094307Y0040345D02*
X0023638Y0040345D01*
X0023638Y0038771D02*
X0094307Y0038771D01*
X0094307Y0037198D02*
X0023638Y0037198D01*
X0023638Y0035625D02*
X0094307Y0035625D01*
X0094307Y0034051D02*
X0023638Y0034051D01*
X0023638Y0032478D02*
X0094307Y0032478D01*
X0094307Y0030905D02*
X0023638Y0030905D01*
X0023638Y0029332D02*
X0094307Y0029332D01*
X0094307Y0027758D02*
X0023638Y0027758D01*
X0023638Y0026185D02*
X0094307Y0026185D01*
X0094307Y0024612D02*
X0023638Y0024612D01*
X0023638Y0023038D02*
X0094307Y0023038D01*
X0094307Y0021465D02*
X0023638Y0021465D01*
X0023638Y0019892D02*
X0094307Y0019892D01*
X0094307Y0018318D02*
X0023638Y0018318D01*
X0023638Y0016745D02*
X0094307Y0016745D01*
X0068972Y0073598D02*
X0063971Y0073598D01*
X0049472Y0088098D01*
X0049472Y0093598D01*
X0046718Y0087544D02*
X0023638Y0087544D01*
X0023638Y0085970D02*
X0047702Y0085970D01*
X0049276Y0084398D02*
X0023638Y0084398D01*
X0023638Y0082824D02*
X0050849Y0082824D01*
X0052422Y0081251D02*
X0023638Y0081251D01*
X0023638Y0079678D02*
X0053996Y0079678D01*
X0055569Y0078104D02*
X0023638Y0078104D01*
X0023638Y0076531D02*
X0057142Y0076531D01*
X0058716Y0074958D02*
X0023638Y0074958D01*
X0023638Y0073384D02*
X0060289Y0073384D01*
X0061861Y0071811D02*
X0023638Y0071811D01*
X0023638Y0070238D02*
X0066487Y0070238D01*
X0066059Y0076531D02*
X0064936Y0076531D01*
X0063971Y0093598D02*
X0038972Y0118598D01*
X0038972Y0158598D01*
X0036694Y0163063D02*
X0034835Y0163063D01*
X0035120Y0161490D02*
X0034228Y0161490D01*
X0034228Y0155197D02*
X0035630Y0155197D01*
X0036216Y0153623D02*
X0034228Y0153623D01*
X0034228Y0152050D02*
X0036216Y0152050D01*
X0036216Y0150477D02*
X0034228Y0150477D01*
X0034228Y0148903D02*
X0036216Y0148903D01*
X0036216Y0147330D02*
X0034228Y0147330D01*
X0034228Y0145757D02*
X0036216Y0145757D01*
X0036216Y0144184D02*
X0034228Y0144184D01*
X0034228Y0142610D02*
X0036216Y0142610D01*
X0036216Y0141037D02*
X0034228Y0141037D01*
X0034228Y0139464D02*
X0036216Y0139464D01*
X0036216Y0137890D02*
X0034228Y0137890D01*
X0034228Y0136316D02*
X0036216Y0136316D01*
X0036216Y0134744D02*
X0034228Y0134744D01*
X0034228Y0133170D02*
X0036216Y0133170D01*
X0036216Y0131597D02*
X0034228Y0131597D01*
X0034228Y0130024D02*
X0036216Y0130024D01*
X0036216Y0128450D02*
X0034228Y0128450D01*
X0034228Y0126877D02*
X0036216Y0126877D01*
X0036216Y0125304D02*
X0034228Y0125304D01*
X0034228Y0123730D02*
X0036216Y0123730D01*
X0036216Y0122157D02*
X0034228Y0122157D01*
X0034228Y0120584D02*
X0036216Y0120584D01*
X0036216Y0119010D02*
X0034228Y0119010D01*
X0034228Y0117436D02*
X0036470Y0117436D01*
X0037809Y0115863D02*
X0034228Y0115863D01*
X0034228Y0114291D02*
X0039383Y0114291D01*
X0040956Y0112717D02*
X0034228Y0112717D01*
X0034228Y0111144D02*
X0042529Y0111144D01*
X0044103Y0109571D02*
X0034228Y0109571D01*
X0034228Y0107997D02*
X0045676Y0107997D01*
X0047249Y0106424D02*
X0034228Y0106424D01*
X0034228Y0104851D02*
X0048823Y0104851D01*
X0050395Y0103277D02*
X0034228Y0103277D01*
X0034228Y0101704D02*
X0051969Y0101704D01*
X0055044Y0106424D02*
X0094307Y0106424D01*
X0094307Y0107997D02*
X0053471Y0107997D01*
X0051898Y0109571D02*
X0094307Y0109571D01*
X0094307Y0111144D02*
X0050324Y0111144D01*
X0048750Y0112717D02*
X0067872Y0112717D01*
X0067707Y0112882D02*
X0068255Y0112333D01*
X0068885Y0111876D01*
X0069577Y0111523D01*
X0070316Y0111283D01*
X0071084Y0111161D01*
X0071374Y0111161D01*
X0071374Y0115999D01*
X0066535Y0115999D01*
X0066535Y0115710D01*
X0066657Y0114942D01*
X0066897Y0114203D01*
X0067250Y0113511D01*
X0067707Y0112882D01*
X0066869Y0114291D02*
X0047178Y0114291D01*
X0045604Y0115863D02*
X0066535Y0115863D01*
X0066535Y0116197D02*
X0071374Y0116197D01*
X0071374Y0121035D01*
X0071084Y0121035D01*
X0070316Y0120914D01*
X0069577Y0120673D01*
X0068885Y0120320D01*
X0068255Y0119864D01*
X0067707Y0119315D01*
X0067250Y0118686D01*
X0066897Y0117994D01*
X0066657Y0117253D01*
X0066535Y0116487D01*
X0066535Y0116197D01*
X0066715Y0117436D02*
X0044031Y0117436D01*
X0042458Y0119010D02*
X0067486Y0119010D01*
X0069401Y0120584D02*
X0041728Y0120584D01*
X0041728Y0122157D02*
X0094307Y0122157D01*
X0094307Y0120584D02*
X0073544Y0120584D01*
X0073368Y0120673D02*
X0072628Y0120914D01*
X0071861Y0121035D01*
X0071571Y0121035D01*
X0071571Y0116197D01*
X0071374Y0116197D01*
X0071374Y0115999D01*
X0071571Y0115999D01*
X0071571Y0116197D01*
X0076409Y0116197D01*
X0076409Y0116487D01*
X0076288Y0117253D01*
X0076048Y0117994D01*
X0075695Y0118686D01*
X0075238Y0119315D01*
X0074689Y0119864D01*
X0074060Y0120320D01*
X0073368Y0120673D01*
X0071571Y0120584D02*
X0071374Y0120584D01*
X0071374Y0119010D02*
X0071571Y0119010D01*
X0071571Y0117436D02*
X0071374Y0117436D01*
X0071571Y0115999D02*
X0076409Y0115999D01*
X0076409Y0115710D01*
X0076288Y0114942D01*
X0076048Y0114203D01*
X0075695Y0113511D01*
X0075238Y0112882D01*
X0074689Y0112333D01*
X0074060Y0111876D01*
X0073368Y0111523D01*
X0072628Y0111283D01*
X0071861Y0111161D01*
X0071571Y0111161D01*
X0071571Y0115999D01*
X0071571Y0115863D02*
X0071374Y0115863D01*
X0071374Y0114291D02*
X0071571Y0114291D01*
X0071571Y0112717D02*
X0071374Y0112717D01*
X0075073Y0112717D02*
X0094307Y0112717D01*
X0094307Y0114291D02*
X0076076Y0114291D01*
X0076409Y0115863D02*
X0094307Y0115863D01*
X0094307Y0117436D02*
X0076228Y0117436D01*
X0075459Y0119010D02*
X0094307Y0119010D01*
X0094307Y0123730D02*
X0041728Y0123730D01*
X0041728Y0125304D02*
X0094307Y0125304D01*
X0094307Y0126877D02*
X0041728Y0126877D01*
X0041728Y0128450D02*
X0094307Y0128450D01*
X0094307Y0130024D02*
X0041728Y0130024D01*
X0041728Y0131597D02*
X0068965Y0131597D01*
X0068573Y0131759D02*
X0070454Y0130980D01*
X0072490Y0130980D01*
X0074372Y0131759D01*
X0075167Y0132555D01*
X0087177Y0132555D01*
X0088480Y0133095D01*
X0089476Y0134091D01*
X0091976Y0136591D01*
X0092516Y0137894D01*
X0092516Y0164303D01*
X0091976Y0165606D01*
X0090980Y0166602D01*
X0085980Y0171602D01*
X0084677Y0172142D01*
X0082173Y0172142D01*
X0080948Y0173367D01*
X0076997Y0173367D01*
X0074203Y0170574D01*
X0074203Y0166623D01*
X0076997Y0163830D01*
X0080948Y0163830D01*
X0082173Y0165055D01*
X0082505Y0165055D01*
X0085429Y0162131D01*
X0085429Y0140066D01*
X0085005Y0139642D01*
X0075167Y0139642D01*
X0074372Y0140437D01*
X0072490Y0141216D01*
X0070454Y0141216D01*
X0068573Y0140437D01*
X0067133Y0138998D01*
X0066353Y0137116D01*
X0066353Y0135080D01*
X0067133Y0133199D01*
X0068573Y0131759D01*
X0067162Y0133170D02*
X0041728Y0133170D01*
X0041728Y0134744D02*
X0066494Y0134744D01*
X0066353Y0136316D02*
X0041728Y0136316D01*
X0041728Y0137890D02*
X0066675Y0137890D01*
X0067599Y0139464D02*
X0041728Y0139464D01*
X0041728Y0141037D02*
X0070021Y0141037D01*
X0072924Y0141037D02*
X0085429Y0141037D01*
X0085429Y0142610D02*
X0041728Y0142610D01*
X0041728Y0144184D02*
X0085429Y0144184D01*
X0085429Y0145757D02*
X0041728Y0145757D01*
X0041728Y0147330D02*
X0085429Y0147330D01*
X0085429Y0148903D02*
X0041728Y0148903D01*
X0041728Y0150477D02*
X0085429Y0150477D01*
X0085429Y0152050D02*
X0041728Y0152050D01*
X0041728Y0153623D02*
X0085429Y0153623D01*
X0085429Y0155197D02*
X0082058Y0155197D01*
X0080873Y0154011D02*
X0083560Y0156698D01*
X0083560Y0158486D01*
X0079085Y0158486D01*
X0079085Y0158711D01*
X0083560Y0158711D01*
X0083560Y0160499D01*
X0080873Y0163186D01*
X0079085Y0163186D01*
X0079085Y0158711D01*
X0078860Y0158711D01*
X0078860Y0163186D01*
X0077072Y0163186D01*
X0074385Y0160499D01*
X0074385Y0158711D01*
X0078860Y0158711D01*
X0078860Y0158486D01*
X0079085Y0158486D01*
X0079085Y0154011D01*
X0080873Y0154011D01*
X0078860Y0154011D02*
X0078860Y0158486D01*
X0074385Y0158486D01*
X0074385Y0156698D01*
X0077072Y0154011D01*
X0078860Y0154011D01*
X0078860Y0155197D02*
X0079085Y0155197D01*
X0079085Y0156770D02*
X0078860Y0156770D01*
X0078860Y0158342D02*
X0079085Y0158342D01*
X0079085Y0159917D02*
X0078860Y0159917D01*
X0078860Y0161490D02*
X0079085Y0161490D01*
X0079085Y0163063D02*
X0078860Y0163063D01*
X0076950Y0163063D02*
X0071251Y0163063D01*
X0070948Y0163367D02*
X0066997Y0163367D01*
X0064203Y0160574D01*
X0064203Y0156623D01*
X0066997Y0153830D01*
X0070948Y0153830D01*
X0073741Y0156623D01*
X0073741Y0160574D01*
X0070948Y0163367D01*
X0070948Y0163830D02*
X0073741Y0166623D01*
X0073741Y0170574D01*
X0070948Y0173367D01*
X0066997Y0173367D01*
X0064203Y0170574D01*
X0064203Y0166623D01*
X0066997Y0163830D01*
X0070948Y0163830D01*
X0071754Y0164637D02*
X0076191Y0164637D01*
X0074616Y0166210D02*
X0073328Y0166210D01*
X0073741Y0167783D02*
X0074203Y0167783D01*
X0074203Y0169357D02*
X0073741Y0169357D01*
X0073385Y0170929D02*
X0074560Y0170929D01*
X0076133Y0172503D02*
X0071811Y0172503D01*
X0066133Y0172503D02*
X0061811Y0172503D01*
X0060948Y0173367D02*
X0056997Y0173367D01*
X0054204Y0170574D01*
X0054204Y0166623D01*
X0056997Y0163830D01*
X0060948Y0163830D01*
X0063741Y0166623D01*
X0063741Y0170574D01*
X0060948Y0173367D01*
X0063385Y0170929D02*
X0064559Y0170929D01*
X0064203Y0169357D02*
X0063741Y0169357D01*
X0063741Y0167783D02*
X0064203Y0167783D01*
X0064616Y0166210D02*
X0063327Y0166210D01*
X0061754Y0164637D02*
X0066191Y0164637D01*
X0066694Y0163063D02*
X0061251Y0163063D01*
X0060948Y0163367D02*
X0056997Y0163367D01*
X0054204Y0160574D01*
X0054204Y0156623D01*
X0056997Y0153830D01*
X0060948Y0153830D01*
X0063741Y0156623D01*
X0063741Y0160574D01*
X0060948Y0163367D01*
X0062825Y0161490D02*
X0065120Y0161490D01*
X0064203Y0159917D02*
X0063741Y0159917D01*
X0063741Y0158342D02*
X0064203Y0158342D01*
X0064203Y0156770D02*
X0063741Y0156770D01*
X0062314Y0155197D02*
X0065629Y0155197D01*
X0072314Y0155197D02*
X0075887Y0155197D01*
X0074385Y0156770D02*
X0073741Y0156770D01*
X0073741Y0158342D02*
X0074385Y0158342D01*
X0074385Y0159917D02*
X0073741Y0159917D01*
X0072825Y0161490D02*
X0075376Y0161490D01*
X0080995Y0163063D02*
X0084497Y0163063D01*
X0085429Y0161490D02*
X0082568Y0161490D01*
X0083560Y0159917D02*
X0085429Y0159917D01*
X0085429Y0158342D02*
X0083560Y0158342D01*
X0083560Y0156770D02*
X0085429Y0156770D01*
X0082923Y0164637D02*
X0081754Y0164637D01*
X0081811Y0172503D02*
X0094307Y0172503D01*
X0094307Y0170929D02*
X0086652Y0170929D01*
X0088224Y0169357D02*
X0094307Y0169357D01*
X0094307Y0167783D02*
X0089799Y0167783D01*
X0091372Y0166210D02*
X0094307Y0166210D01*
X0094307Y0164637D02*
X0092378Y0164637D01*
X0092516Y0163063D02*
X0094307Y0163063D01*
X0094307Y0161490D02*
X0092516Y0161490D01*
X0092516Y0159917D02*
X0094307Y0159917D01*
X0094307Y0158342D02*
X0092516Y0158342D01*
X0092516Y0156770D02*
X0094307Y0156770D01*
X0094307Y0155197D02*
X0092516Y0155197D01*
X0092516Y0153623D02*
X0094307Y0153623D01*
X0094307Y0152050D02*
X0092516Y0152050D01*
X0092516Y0150477D02*
X0094307Y0150477D01*
X0094307Y0148903D02*
X0092516Y0148903D01*
X0092516Y0147330D02*
X0094307Y0147330D01*
X0094307Y0145757D02*
X0092516Y0145757D01*
X0092516Y0144184D02*
X0094307Y0144184D01*
X0094307Y0142610D02*
X0092516Y0142610D01*
X0092516Y0141037D02*
X0094307Y0141037D01*
X0094307Y0139464D02*
X0092516Y0139464D01*
X0092514Y0137890D02*
X0094307Y0137890D01*
X0094307Y0136316D02*
X0091702Y0136316D01*
X0090128Y0134744D02*
X0094307Y0134744D01*
X0094307Y0133170D02*
X0088555Y0133170D01*
X0094307Y0131597D02*
X0073979Y0131597D01*
X0059763Y0101704D02*
X0094307Y0101704D01*
X0094307Y0100130D02*
X0061338Y0100130D01*
X0062910Y0098557D02*
X0067697Y0098557D01*
X0066704Y0096984D02*
X0064484Y0096984D01*
X0063971Y0093598D02*
X0070972Y0093598D01*
X0076472Y0093098D02*
X0076972Y0093598D01*
X0076472Y0093098D02*
X0076472Y0078597D01*
X0078485Y0074958D02*
X0094307Y0074958D01*
X0094307Y0076531D02*
X0080090Y0076531D01*
X0080606Y0078104D02*
X0094307Y0078104D01*
X0094307Y0079678D02*
X0080500Y0079678D01*
X0079666Y0081251D02*
X0094307Y0081251D01*
X0094307Y0082824D02*
X0079228Y0082824D01*
X0079228Y0084398D02*
X0094307Y0084398D01*
X0094307Y0085970D02*
X0079228Y0085970D01*
X0079228Y0087544D02*
X0094307Y0087544D01*
X0094307Y0089117D02*
X0080725Y0089117D01*
X0081241Y0090691D02*
X0094307Y0090691D01*
X0094307Y0092264D02*
X0081241Y0092264D01*
X0081241Y0093837D02*
X0094307Y0093837D01*
X0094307Y0095411D02*
X0081241Y0095411D01*
X0081241Y0096984D02*
X0094307Y0096984D01*
X0094307Y0098557D02*
X0080247Y0098557D01*
X0094307Y0103277D02*
X0058191Y0103277D01*
X0056618Y0104851D02*
X0094307Y0104851D01*
X0056694Y0163063D02*
X0051251Y0163063D01*
X0050948Y0163367D02*
X0046997Y0163367D01*
X0044204Y0160574D01*
X0044204Y0156623D01*
X0046997Y0153830D01*
X0050948Y0153830D01*
X0053741Y0156623D01*
X0053741Y0160574D01*
X0050948Y0163367D01*
X0050948Y0163830D02*
X0053741Y0166623D01*
X0053741Y0170574D01*
X0050948Y0173367D01*
X0046997Y0173367D01*
X0044204Y0170574D01*
X0044204Y0166623D01*
X0046997Y0163830D01*
X0050948Y0163830D01*
X0051754Y0164637D02*
X0056191Y0164637D01*
X0054617Y0166210D02*
X0053328Y0166210D01*
X0053741Y0167783D02*
X0054204Y0167783D01*
X0054204Y0169357D02*
X0053741Y0169357D01*
X0053385Y0170929D02*
X0054560Y0170929D01*
X0056133Y0172503D02*
X0051810Y0172503D01*
X0046694Y0163063D02*
X0041251Y0163063D01*
X0041754Y0164637D02*
X0046191Y0164637D01*
X0044617Y0166210D02*
X0043328Y0166210D01*
X0043741Y0167783D02*
X0044204Y0167783D01*
X0044204Y0169357D02*
X0043741Y0169357D01*
X0043385Y0170929D02*
X0044560Y0170929D01*
X0046133Y0172503D02*
X0041811Y0172503D01*
X0038972Y0168598D02*
X0036472Y0168598D01*
X0034560Y0170929D02*
X0023638Y0170929D01*
X0023638Y0169357D02*
X0033333Y0169357D01*
X0031759Y0167783D02*
X0023638Y0167783D01*
X0023638Y0166210D02*
X0030186Y0166210D01*
X0028919Y0164637D02*
X0023638Y0164637D01*
X0023638Y0163063D02*
X0028716Y0163063D01*
X0028716Y0161490D02*
X0023638Y0161490D01*
X0023638Y0159917D02*
X0028716Y0159917D01*
X0028716Y0158342D02*
X0023638Y0158342D01*
X0023638Y0156770D02*
X0028716Y0156770D01*
X0028716Y0155197D02*
X0023638Y0155197D01*
X0023638Y0153623D02*
X0028716Y0153623D01*
X0028716Y0152050D02*
X0023638Y0152050D01*
X0023638Y0150477D02*
X0028716Y0150477D01*
X0028716Y0148903D02*
X0023638Y0148903D01*
X0023638Y0147330D02*
X0028716Y0147330D01*
X0028716Y0145757D02*
X0023638Y0145757D01*
X0023638Y0144184D02*
X0028716Y0144184D01*
X0028716Y0142610D02*
X0023638Y0142610D01*
X0023638Y0141037D02*
X0028716Y0141037D01*
X0028716Y0139464D02*
X0023638Y0139464D01*
X0023638Y0137890D02*
X0028716Y0137890D01*
X0028716Y0136316D02*
X0023638Y0136316D01*
X0023638Y0134744D02*
X0028716Y0134744D01*
X0028716Y0133170D02*
X0023638Y0133170D01*
X0023638Y0131597D02*
X0028716Y0131597D01*
X0028716Y0130024D02*
X0023638Y0130024D01*
X0023638Y0128450D02*
X0028716Y0128450D01*
X0028716Y0126877D02*
X0023638Y0126877D01*
X0023638Y0125304D02*
X0028716Y0125304D01*
X0028716Y0123730D02*
X0023638Y0123730D01*
X0023638Y0122157D02*
X0028716Y0122157D01*
X0028716Y0120584D02*
X0023638Y0120584D01*
X0023638Y0119010D02*
X0028716Y0119010D01*
X0028716Y0117436D02*
X0023638Y0117436D01*
X0023638Y0115863D02*
X0028716Y0115863D01*
X0028716Y0114291D02*
X0023638Y0114291D01*
X0023638Y0112717D02*
X0028716Y0112717D01*
X0028716Y0111144D02*
X0023638Y0111144D01*
X0023638Y0109571D02*
X0028716Y0109571D01*
X0028716Y0107997D02*
X0023638Y0107997D01*
X0023638Y0106424D02*
X0028716Y0106424D01*
X0028716Y0104851D02*
X0023638Y0104851D01*
X0023638Y0103277D02*
X0028716Y0103277D01*
X0028716Y0101704D02*
X0023638Y0101704D01*
X0023638Y0100130D02*
X0028716Y0100130D01*
X0028716Y0098557D02*
X0023638Y0098557D01*
X0023638Y0096984D02*
X0028716Y0096984D01*
X0028774Y0095411D02*
X0023638Y0095411D01*
X0023638Y0093837D02*
X0029836Y0093837D01*
X0031408Y0092264D02*
X0023638Y0092264D01*
X0023638Y0090691D02*
X0039204Y0090691D01*
X0039719Y0089117D02*
X0023638Y0089117D01*
X0034484Y0096984D02*
X0039204Y0096984D01*
X0042313Y0155197D02*
X0045630Y0155197D01*
X0044204Y0156770D02*
X0043741Y0156770D01*
X0043741Y0158342D02*
X0044204Y0158342D01*
X0044204Y0159917D02*
X0043741Y0159917D01*
X0042825Y0161490D02*
X0045120Y0161490D01*
X0052314Y0155197D02*
X0055630Y0155197D01*
X0054204Y0156770D02*
X0053741Y0156770D01*
X0053741Y0158342D02*
X0054204Y0158342D01*
X0054204Y0159917D02*
X0053741Y0159917D01*
X0052825Y0161490D02*
X0055120Y0161490D01*
D14*
X0071472Y0136098D02*
X0086472Y0136098D01*
X0088972Y0138598D01*
X0088972Y0163598D01*
X0083972Y0168598D01*
X0078972Y0168598D01*
D15*
X0076472Y0078597D03*
X0068972Y0073598D03*
G04 next file*
G75*
D26*
X0106299Y0011811D02*
X0130085Y0093598D03*
X0136086Y0093598D03*
X0157586Y0093598D03*
X0163586Y0093598D03*
D27*
X0165586Y0158598D03*
X0165586Y0168598D03*
X0155586Y0168598D03*
X0155586Y0158598D03*
X0145586Y0158598D03*
X0145586Y0168598D03*
X0135586Y0168598D03*
X0135586Y0158598D03*
X0125586Y0158598D03*
X0125586Y0168598D03*
D28*
X0158086Y0136098D03*
X0158086Y0116097D03*
D29*
X0110252Y0176433D02*
X0110252Y0015763D01*
X0180921Y0015763D01*
X0180921Y0176433D01*
X0110252Y0176433D01*
X0110252Y0175650D02*
X0180921Y0175650D01*
X0180921Y0174076D02*
X0110252Y0174076D01*
X0110252Y0172503D02*
X0122747Y0172503D01*
X0123611Y0173367D02*
X0120818Y0170574D01*
X0120818Y0170227D01*
X0116524Y0165935D01*
X0115750Y0165159D01*
X0115330Y0164147D01*
X0115330Y0095550D01*
X0115750Y0094537D01*
X0118250Y0092037D01*
X0119025Y0091262D01*
X0120038Y0090841D01*
X0125818Y0090841D01*
X0125818Y0089633D01*
X0126970Y0088480D01*
X0133330Y0088480D01*
X0133330Y0087550D01*
X0133750Y0086537D01*
X0148250Y0072037D01*
X0149025Y0071262D01*
X0150038Y0070842D01*
X0152496Y0070842D01*
X0153245Y0070094D01*
X0154764Y0069465D01*
X0156409Y0069465D01*
X0157928Y0070094D01*
X0159091Y0071256D01*
X0159720Y0072776D01*
X0159720Y0074420D01*
X0159091Y0075939D01*
X0157928Y0077103D01*
X0156409Y0077732D01*
X0154764Y0077732D01*
X0153245Y0077103D01*
X0152496Y0076353D01*
X0151728Y0076353D01*
X0139402Y0088680D01*
X0140355Y0089633D01*
X0140355Y0097564D01*
X0139202Y0098717D01*
X0126970Y0098717D01*
X0125818Y0097564D01*
X0125818Y0096354D01*
X0121727Y0096354D01*
X0120842Y0097240D01*
X0120842Y0156599D01*
X0122830Y0154611D01*
X0122830Y0118050D01*
X0123250Y0117036D01*
X0124025Y0116262D01*
X0149025Y0091262D01*
X0150038Y0090841D01*
X0153318Y0090841D01*
X0153318Y0089633D01*
X0154471Y0088480D01*
X0160330Y0088480D01*
X0160330Y0081689D01*
X0159582Y0080940D01*
X0158953Y0079421D01*
X0158953Y0077776D01*
X0159582Y0076257D01*
X0160744Y0075094D01*
X0162264Y0074465D01*
X0163909Y0074465D01*
X0165427Y0075094D01*
X0166591Y0076257D01*
X0167220Y0077776D01*
X0167220Y0079421D01*
X0166591Y0080940D01*
X0165841Y0081689D01*
X0165841Y0088480D01*
X0166702Y0088480D01*
X0167855Y0089633D01*
X0167855Y0097564D01*
X0166702Y0098717D01*
X0154471Y0098717D01*
X0153318Y0097564D01*
X0153318Y0096354D01*
X0151728Y0096354D01*
X0128342Y0119740D01*
X0128342Y0154611D01*
X0130355Y0156623D01*
X0130355Y0160574D01*
X0127562Y0163367D01*
X0123611Y0163367D01*
X0120842Y0160598D01*
X0120842Y0162457D01*
X0122913Y0164528D01*
X0123611Y0163830D01*
X0127562Y0163830D01*
X0130355Y0166623D01*
X0130355Y0170574D01*
X0127562Y0173367D01*
X0123611Y0173367D01*
X0123086Y0168598D02*
X0118086Y0163598D01*
X0118086Y0096098D01*
X0120586Y0093598D01*
X0130085Y0093598D01*
X0126811Y0098557D02*
X0120842Y0098557D01*
X0120842Y0100130D02*
X0140157Y0100130D01*
X0139361Y0098557D02*
X0141730Y0098557D01*
X0140355Y0096984D02*
X0143303Y0096984D01*
X0144876Y0095411D02*
X0140355Y0095411D01*
X0140355Y0093837D02*
X0146450Y0093837D01*
X0148022Y0092264D02*
X0140355Y0092264D01*
X0140355Y0090691D02*
X0153318Y0090691D01*
X0153833Y0089117D02*
X0139839Y0089117D01*
X0140538Y0087544D02*
X0160330Y0087544D01*
X0160330Y0085970D02*
X0142111Y0085970D01*
X0143685Y0084398D02*
X0160330Y0084398D01*
X0160330Y0082824D02*
X0145258Y0082824D01*
X0146831Y0081251D02*
X0159893Y0081251D01*
X0159059Y0079678D02*
X0148405Y0079678D01*
X0149978Y0078104D02*
X0158953Y0078104D01*
X0158500Y0076531D02*
X0159468Y0076531D01*
X0159498Y0074958D02*
X0161074Y0074958D01*
X0159720Y0073384D02*
X0180921Y0073384D01*
X0180921Y0071811D02*
X0159320Y0071811D01*
X0158072Y0070238D02*
X0180921Y0070238D01*
X0180921Y0068664D02*
X0110252Y0068664D01*
X0110252Y0067091D02*
X0180921Y0067091D01*
X0180921Y0065518D02*
X0110252Y0065518D01*
X0110252Y0063944D02*
X0180921Y0063944D01*
X0180921Y0062371D02*
X0110252Y0062371D01*
X0110252Y0060798D02*
X0180921Y0060798D01*
X0180921Y0059225D02*
X0110252Y0059225D01*
X0110252Y0057651D02*
X0180921Y0057651D01*
X0180921Y0056077D02*
X0110252Y0056077D01*
X0110252Y0054505D02*
X0180921Y0054505D01*
X0180921Y0052930D02*
X0110252Y0052930D01*
X0110252Y0051358D02*
X0180921Y0051358D01*
X0180921Y0049785D02*
X0110252Y0049785D01*
X0110252Y0048211D02*
X0180921Y0048211D01*
X0180921Y0046638D02*
X0110252Y0046638D01*
X0110252Y0045065D02*
X0180921Y0045065D01*
X0180921Y0043491D02*
X0110252Y0043491D01*
X0110252Y0041918D02*
X0180921Y0041918D01*
X0180921Y0040345D02*
X0110252Y0040345D01*
X0110252Y0038771D02*
X0180921Y0038771D01*
X0180921Y0037198D02*
X0110252Y0037198D01*
X0110252Y0035625D02*
X0180921Y0035625D01*
X0180921Y0034051D02*
X0110252Y0034051D01*
X0110252Y0032478D02*
X0180921Y0032478D01*
X0180921Y0030905D02*
X0110252Y0030905D01*
X0110252Y0029332D02*
X0180921Y0029332D01*
X0180921Y0027758D02*
X0110252Y0027758D01*
X0110252Y0026185D02*
X0180921Y0026185D01*
X0180921Y0024612D02*
X0110252Y0024612D01*
X0110252Y0023038D02*
X0180921Y0023038D01*
X0180921Y0021465D02*
X0110252Y0021465D01*
X0110252Y0019892D02*
X0180921Y0019892D01*
X0180921Y0018318D02*
X0110252Y0018318D01*
X0110252Y0016745D02*
X0180921Y0016745D01*
X0155586Y0073598D02*
X0150586Y0073598D01*
X0136086Y0088098D01*
X0136086Y0093598D01*
X0133333Y0087544D02*
X0110252Y0087544D01*
X0110252Y0085970D02*
X0134316Y0085970D01*
X0135890Y0084398D02*
X0110252Y0084398D01*
X0110252Y0082824D02*
X0137463Y0082824D01*
X0139036Y0081251D02*
X0110252Y0081251D01*
X0110252Y0079678D02*
X0140610Y0079678D01*
X0142183Y0078104D02*
X0110252Y0078104D01*
X0110252Y0076531D02*
X0143756Y0076531D01*
X0145330Y0074958D02*
X0110252Y0074958D01*
X0110252Y0073384D02*
X0146903Y0073384D01*
X0148476Y0071811D02*
X0110252Y0071811D01*
X0110252Y0070238D02*
X0153101Y0070238D01*
X0152673Y0076531D02*
X0151551Y0076531D01*
X0150586Y0093598D02*
X0125586Y0118598D01*
X0125586Y0158598D01*
X0123308Y0163063D02*
X0121449Y0163063D01*
X0121734Y0161490D02*
X0120842Y0161490D01*
X0120842Y0155197D02*
X0122244Y0155197D01*
X0122830Y0153623D02*
X0120842Y0153623D01*
X0120842Y0152050D02*
X0122830Y0152050D01*
X0122830Y0150477D02*
X0120842Y0150477D01*
X0120842Y0148903D02*
X0122830Y0148903D01*
X0122830Y0147330D02*
X0120842Y0147330D01*
X0120842Y0145757D02*
X0122830Y0145757D01*
X0122830Y0144184D02*
X0120842Y0144184D01*
X0120842Y0142610D02*
X0122830Y0142610D01*
X0122830Y0141037D02*
X0120842Y0141037D01*
X0120842Y0139464D02*
X0122830Y0139464D01*
X0122830Y0137890D02*
X0120842Y0137890D01*
X0120842Y0136316D02*
X0122830Y0136316D01*
X0122830Y0134744D02*
X0120842Y0134744D01*
X0120842Y0133170D02*
X0122830Y0133170D01*
X0122830Y0131597D02*
X0120842Y0131597D01*
X0120842Y0130024D02*
X0122830Y0130024D01*
X0122830Y0128450D02*
X0120842Y0128450D01*
X0120842Y0126877D02*
X0122830Y0126877D01*
X0122830Y0125304D02*
X0120842Y0125304D01*
X0120842Y0123730D02*
X0122830Y0123730D01*
X0122830Y0122157D02*
X0120842Y0122157D01*
X0120842Y0120584D02*
X0122830Y0120584D01*
X0122830Y0119010D02*
X0120842Y0119010D01*
X0120842Y0117436D02*
X0123084Y0117436D01*
X0124424Y0115863D02*
X0120842Y0115863D01*
X0120842Y0114291D02*
X0125996Y0114291D01*
X0127570Y0112717D02*
X0120842Y0112717D01*
X0120842Y0111144D02*
X0129142Y0111144D01*
X0130717Y0109571D02*
X0120842Y0109571D01*
X0120842Y0107997D02*
X0132290Y0107997D01*
X0133863Y0106424D02*
X0120842Y0106424D01*
X0120842Y0104851D02*
X0135437Y0104851D01*
X0137010Y0103277D02*
X0120842Y0103277D01*
X0120842Y0101704D02*
X0138583Y0101704D01*
X0141658Y0106424D02*
X0180921Y0106424D01*
X0180921Y0107997D02*
X0140085Y0107997D01*
X0138512Y0109571D02*
X0180921Y0109571D01*
X0180921Y0111144D02*
X0136938Y0111144D01*
X0135365Y0112717D02*
X0154485Y0112717D01*
X0154321Y0112882D02*
X0154870Y0112333D01*
X0155499Y0111876D01*
X0156190Y0111523D01*
X0156930Y0111283D01*
X0157698Y0111161D01*
X0157988Y0111161D01*
X0157988Y0115999D01*
X0153149Y0115999D01*
X0153149Y0115710D01*
X0153271Y0114942D01*
X0153511Y0114203D01*
X0153864Y0113511D01*
X0154321Y0112882D01*
X0153482Y0114291D02*
X0133792Y0114291D01*
X0132218Y0115863D02*
X0153149Y0115863D01*
X0153149Y0116197D02*
X0157988Y0116197D01*
X0157988Y0121035D01*
X0157698Y0121035D01*
X0156930Y0120914D01*
X0156190Y0120673D01*
X0155499Y0120320D01*
X0154870Y0119864D01*
X0154321Y0119315D01*
X0153864Y0118686D01*
X0153511Y0117994D01*
X0153271Y0117253D01*
X0153149Y0116487D01*
X0153149Y0116197D01*
X0153330Y0117436D02*
X0130644Y0117436D01*
X0129072Y0119010D02*
X0154100Y0119010D01*
X0156015Y0120584D02*
X0128342Y0120584D01*
X0128342Y0122157D02*
X0180921Y0122157D01*
X0180921Y0120584D02*
X0160158Y0120584D01*
X0159982Y0120673D02*
X0159241Y0120914D01*
X0158475Y0121035D01*
X0158185Y0121035D01*
X0158185Y0116197D01*
X0157988Y0116197D01*
X0157988Y0115999D01*
X0158185Y0115999D01*
X0158185Y0116197D01*
X0163023Y0116197D01*
X0163023Y0116487D01*
X0162902Y0117253D01*
X0162662Y0117994D01*
X0162309Y0118686D01*
X0161852Y0119315D01*
X0161303Y0119864D01*
X0160674Y0120320D01*
X0159982Y0120673D01*
X0158185Y0120584D02*
X0157988Y0120584D01*
X0157988Y0119010D02*
X0158185Y0119010D01*
X0158185Y0117436D02*
X0157988Y0117436D01*
X0158185Y0115999D02*
X0163023Y0115999D01*
X0163023Y0115710D01*
X0162902Y0114942D01*
X0162662Y0114203D01*
X0162309Y0113511D01*
X0161852Y0112882D01*
X0161303Y0112333D01*
X0160674Y0111876D01*
X0159982Y0111523D01*
X0159241Y0111283D01*
X0158475Y0111161D01*
X0158185Y0111161D01*
X0158185Y0115999D01*
X0158185Y0115863D02*
X0157988Y0115863D01*
X0157988Y0114291D02*
X0158185Y0114291D01*
X0158185Y0112717D02*
X0157988Y0112717D01*
X0161687Y0112717D02*
X0180921Y0112717D01*
X0180921Y0114291D02*
X0162690Y0114291D01*
X0163023Y0115863D02*
X0180921Y0115863D01*
X0180921Y0117436D02*
X0162841Y0117436D01*
X0162073Y0119010D02*
X0180921Y0119010D01*
X0180921Y0123730D02*
X0128342Y0123730D01*
X0128342Y0125304D02*
X0180921Y0125304D01*
X0180921Y0126877D02*
X0128342Y0126877D01*
X0128342Y0128450D02*
X0180921Y0128450D01*
X0180921Y0130024D02*
X0128342Y0130024D01*
X0128342Y0131597D02*
X0155579Y0131597D01*
X0155187Y0131759D02*
X0157068Y0130980D01*
X0159104Y0130980D01*
X0160986Y0131759D01*
X0161781Y0132555D01*
X0173791Y0132555D01*
X0175094Y0133095D01*
X0176090Y0134091D01*
X0178590Y0136591D01*
X0179130Y0137894D01*
X0179130Y0164303D01*
X0178590Y0165606D01*
X0177594Y0166602D01*
X0172594Y0171602D01*
X0171290Y0172142D01*
X0168787Y0172142D01*
X0167562Y0173367D01*
X0163611Y0173367D01*
X0160818Y0170574D01*
X0160818Y0166623D01*
X0163611Y0163830D01*
X0167562Y0163830D01*
X0168787Y0165055D01*
X0169118Y0165055D01*
X0172043Y0162131D01*
X0172043Y0140066D01*
X0171619Y0139642D01*
X0161781Y0139642D01*
X0160986Y0140437D01*
X0159104Y0141216D01*
X0157068Y0141216D01*
X0155187Y0140437D01*
X0153747Y0138998D01*
X0152968Y0137116D01*
X0152968Y0135080D01*
X0153747Y0133199D01*
X0155187Y0131759D01*
X0153776Y0133170D02*
X0128342Y0133170D01*
X0128342Y0134744D02*
X0153108Y0134744D01*
X0152968Y0136316D02*
X0128342Y0136316D01*
X0128342Y0137890D02*
X0153289Y0137890D01*
X0154213Y0139464D02*
X0128342Y0139464D01*
X0128342Y0141037D02*
X0156635Y0141037D01*
X0159538Y0141037D02*
X0172043Y0141037D01*
X0172043Y0142610D02*
X0128342Y0142610D01*
X0128342Y0144184D02*
X0172043Y0144184D01*
X0172043Y0145757D02*
X0128342Y0145757D01*
X0128342Y0147330D02*
X0172043Y0147330D01*
X0172043Y0148903D02*
X0128342Y0148903D01*
X0128342Y0150477D02*
X0172043Y0150477D01*
X0172043Y0152050D02*
X0128342Y0152050D01*
X0128342Y0153623D02*
X0172043Y0153623D01*
X0172043Y0155197D02*
X0168672Y0155197D01*
X0167487Y0154011D02*
X0170174Y0156698D01*
X0170174Y0158486D01*
X0165699Y0158486D01*
X0165699Y0158711D01*
X0170174Y0158711D01*
X0170174Y0160499D01*
X0167487Y0163186D01*
X0165699Y0163186D01*
X0165699Y0158711D01*
X0165474Y0158711D01*
X0165474Y0163186D01*
X0163686Y0163186D01*
X0160999Y0160499D01*
X0160999Y0158711D01*
X0165474Y0158711D01*
X0165474Y0158486D01*
X0165699Y0158486D01*
X0165699Y0154011D01*
X0167487Y0154011D01*
X0165474Y0154011D02*
X0165474Y0158486D01*
X0160999Y0158486D01*
X0160999Y0156698D01*
X0163686Y0154011D01*
X0165474Y0154011D01*
X0165474Y0155197D02*
X0165699Y0155197D01*
X0165699Y0156770D02*
X0165474Y0156770D01*
X0165474Y0158342D02*
X0165699Y0158342D01*
X0165699Y0159917D02*
X0165474Y0159917D01*
X0165474Y0161490D02*
X0165699Y0161490D01*
X0165699Y0163063D02*
X0165474Y0163063D01*
X0163564Y0163063D02*
X0157865Y0163063D01*
X0157562Y0163367D02*
X0153611Y0163367D01*
X0150818Y0160574D01*
X0150818Y0156623D01*
X0153611Y0153830D01*
X0157562Y0153830D01*
X0160355Y0156623D01*
X0160355Y0160574D01*
X0157562Y0163367D01*
X0157562Y0163830D02*
X0160355Y0166623D01*
X0160355Y0170574D01*
X0157562Y0173367D01*
X0153611Y0173367D01*
X0150818Y0170574D01*
X0150818Y0166623D01*
X0153611Y0163830D01*
X0157562Y0163830D01*
X0158368Y0164637D02*
X0162805Y0164637D01*
X0161231Y0166210D02*
X0159942Y0166210D01*
X0160355Y0167783D02*
X0160818Y0167783D01*
X0160818Y0169357D02*
X0160355Y0169357D01*
X0159998Y0170929D02*
X0161174Y0170929D01*
X0162747Y0172503D02*
X0158424Y0172503D01*
X0152747Y0172503D02*
X0148425Y0172503D01*
X0147562Y0173367D02*
X0143611Y0173367D01*
X0140818Y0170574D01*
X0140818Y0166623D01*
X0143611Y0163830D01*
X0147562Y0163830D01*
X0150355Y0166623D01*
X0150355Y0170574D01*
X0147562Y0173367D01*
X0149999Y0170929D02*
X0151174Y0170929D01*
X0150818Y0169357D02*
X0150355Y0169357D01*
X0150355Y0167783D02*
X0150818Y0167783D01*
X0151230Y0166210D02*
X0149942Y0166210D01*
X0148368Y0164637D02*
X0152805Y0164637D01*
X0153307Y0163063D02*
X0147865Y0163063D01*
X0147562Y0163367D02*
X0143611Y0163367D01*
X0140818Y0160574D01*
X0140818Y0156623D01*
X0143611Y0153830D01*
X0147562Y0153830D01*
X0150355Y0156623D01*
X0150355Y0160574D01*
X0147562Y0163367D01*
X0149439Y0161490D02*
X0151733Y0161490D01*
X0150818Y0159917D02*
X0150355Y0159917D01*
X0150355Y0158342D02*
X0150818Y0158342D01*
X0150818Y0156770D02*
X0150355Y0156770D01*
X0148928Y0155197D02*
X0152244Y0155197D01*
X0158928Y0155197D02*
X0162501Y0155197D01*
X0160999Y0156770D02*
X0160355Y0156770D01*
X0160355Y0158342D02*
X0160999Y0158342D01*
X0160999Y0159917D02*
X0160355Y0159917D01*
X0159438Y0161490D02*
X0161990Y0161490D01*
X0167609Y0163063D02*
X0171111Y0163063D01*
X0172043Y0161490D02*
X0169182Y0161490D01*
X0170174Y0159917D02*
X0172043Y0159917D01*
X0172043Y0158342D02*
X0170174Y0158342D01*
X0170174Y0156770D02*
X0172043Y0156770D01*
X0169537Y0164637D02*
X0168368Y0164637D01*
X0168425Y0172503D02*
X0180921Y0172503D01*
X0180921Y0170929D02*
X0173266Y0170929D01*
X0174839Y0169357D02*
X0180921Y0169357D01*
X0180921Y0167783D02*
X0176413Y0167783D01*
X0177986Y0166210D02*
X0180921Y0166210D01*
X0180921Y0164637D02*
X0178992Y0164637D01*
X0179130Y0163063D02*
X0180921Y0163063D01*
X0180921Y0161490D02*
X0179130Y0161490D01*
X0179130Y0159917D02*
X0180921Y0159917D01*
X0180921Y0158342D02*
X0179130Y0158342D01*
X0179130Y0156770D02*
X0180921Y0156770D01*
X0180921Y0155197D02*
X0179130Y0155197D01*
X0179130Y0153623D02*
X0180921Y0153623D01*
X0180921Y0152050D02*
X0179130Y0152050D01*
X0179130Y0150477D02*
X0180921Y0150477D01*
X0180921Y0148903D02*
X0179130Y0148903D01*
X0179130Y0147330D02*
X0180921Y0147330D01*
X0180921Y0145757D02*
X0179130Y0145757D01*
X0179130Y0144184D02*
X0180921Y0144184D01*
X0180921Y0142610D02*
X0179130Y0142610D01*
X0179130Y0141037D02*
X0180921Y0141037D01*
X0180921Y0139464D02*
X0179130Y0139464D01*
X0179128Y0137890D02*
X0180921Y0137890D01*
X0180921Y0136316D02*
X0178316Y0136316D01*
X0176743Y0134744D02*
X0180921Y0134744D01*
X0180921Y0133170D02*
X0175169Y0133170D01*
X0180921Y0131597D02*
X0160593Y0131597D01*
X0146378Y0101704D02*
X0180921Y0101704D01*
X0180921Y0100130D02*
X0147952Y0100130D01*
X0149525Y0098557D02*
X0154310Y0098557D01*
X0153318Y0096984D02*
X0151098Y0096984D01*
X0150586Y0093598D02*
X0157586Y0093598D01*
X0163086Y0093098D02*
X0163586Y0093598D01*
X0163086Y0093098D02*
X0163086Y0078597D01*
X0165099Y0074958D02*
X0180921Y0074958D01*
X0180921Y0076531D02*
X0166704Y0076531D01*
X0167220Y0078104D02*
X0180921Y0078104D01*
X0180921Y0079678D02*
X0167114Y0079678D01*
X0166280Y0081251D02*
X0180921Y0081251D01*
X0180921Y0082824D02*
X0165841Y0082824D01*
X0165841Y0084398D02*
X0180921Y0084398D01*
X0180921Y0085970D02*
X0165841Y0085970D01*
X0165841Y0087544D02*
X0180921Y0087544D01*
X0180921Y0089117D02*
X0167338Y0089117D01*
X0167855Y0090691D02*
X0180921Y0090691D01*
X0180921Y0092264D02*
X0167855Y0092264D01*
X0167855Y0093837D02*
X0180921Y0093837D01*
X0180921Y0095411D02*
X0167855Y0095411D01*
X0167855Y0096984D02*
X0180921Y0096984D01*
X0180921Y0098557D02*
X0166861Y0098557D01*
X0180921Y0103277D02*
X0144805Y0103277D01*
X0143232Y0104851D02*
X0180921Y0104851D01*
X0143308Y0163063D02*
X0137865Y0163063D01*
X0137562Y0163367D02*
X0133611Y0163367D01*
X0130817Y0160574D01*
X0130817Y0156623D01*
X0133611Y0153830D01*
X0137562Y0153830D01*
X0140355Y0156623D01*
X0140355Y0160574D01*
X0137562Y0163367D01*
X0137562Y0163830D02*
X0140355Y0166623D01*
X0140355Y0170574D01*
X0137562Y0173367D01*
X0133611Y0173367D01*
X0130817Y0170574D01*
X0130817Y0166623D01*
X0133611Y0163830D01*
X0137562Y0163830D01*
X0138368Y0164637D02*
X0142805Y0164637D01*
X0141231Y0166210D02*
X0139942Y0166210D01*
X0140355Y0167783D02*
X0140818Y0167783D01*
X0140818Y0169357D02*
X0140355Y0169357D01*
X0139999Y0170929D02*
X0141174Y0170929D01*
X0142747Y0172503D02*
X0138425Y0172503D01*
X0133307Y0163063D02*
X0127865Y0163063D01*
X0128368Y0164637D02*
X0132805Y0164637D01*
X0131231Y0166210D02*
X0129942Y0166210D01*
X0130355Y0167783D02*
X0130817Y0167783D01*
X0130817Y0169357D02*
X0130355Y0169357D01*
X0129999Y0170929D02*
X0131174Y0170929D01*
X0132747Y0172503D02*
X0128424Y0172503D01*
X0125586Y0168598D02*
X0123086Y0168598D01*
X0121174Y0170929D02*
X0110252Y0170929D01*
X0110252Y0169357D02*
X0119947Y0169357D01*
X0118374Y0167783D02*
X0110252Y0167783D01*
X0110252Y0166210D02*
X0116799Y0166210D01*
X0115533Y0164637D02*
X0110252Y0164637D01*
X0110252Y0163063D02*
X0115330Y0163063D01*
X0115330Y0161490D02*
X0110252Y0161490D01*
X0110252Y0159917D02*
X0115330Y0159917D01*
X0115330Y0158342D02*
X0110252Y0158342D01*
X0110252Y0156770D02*
X0115330Y0156770D01*
X0115330Y0155197D02*
X0110252Y0155197D01*
X0110252Y0153623D02*
X0115330Y0153623D01*
X0115330Y0152050D02*
X0110252Y0152050D01*
X0110252Y0150477D02*
X0115330Y0150477D01*
X0115330Y0148903D02*
X0110252Y0148903D01*
X0110252Y0147330D02*
X0115330Y0147330D01*
X0115330Y0145757D02*
X0110252Y0145757D01*
X0110252Y0144184D02*
X0115330Y0144184D01*
X0115330Y0142610D02*
X0110252Y0142610D01*
X0110252Y0141037D02*
X0115330Y0141037D01*
X0115330Y0139464D02*
X0110252Y0139464D01*
X0110252Y0137890D02*
X0115330Y0137890D01*
X0115330Y0136316D02*
X0110252Y0136316D01*
X0110252Y0134744D02*
X0115330Y0134744D01*
X0115330Y0133170D02*
X0110252Y0133170D01*
X0110252Y0131597D02*
X0115330Y0131597D01*
X0115330Y0130024D02*
X0110252Y0130024D01*
X0110252Y0128450D02*
X0115330Y0128450D01*
X0115330Y0126877D02*
X0110252Y0126877D01*
X0110252Y0125304D02*
X0115330Y0125304D01*
X0115330Y0123730D02*
X0110252Y0123730D01*
X0110252Y0122157D02*
X0115330Y0122157D01*
X0115330Y0120584D02*
X0110252Y0120584D01*
X0110252Y0119010D02*
X0115330Y0119010D01*
X0115330Y0117436D02*
X0110252Y0117436D01*
X0110252Y0115863D02*
X0115330Y0115863D01*
X0115330Y0114291D02*
X0110252Y0114291D01*
X0110252Y0112717D02*
X0115330Y0112717D01*
X0115330Y0111144D02*
X0110252Y0111144D01*
X0110252Y0109571D02*
X0115330Y0109571D01*
X0115330Y0107997D02*
X0110252Y0107997D01*
X0110252Y0106424D02*
X0115330Y0106424D01*
X0115330Y0104851D02*
X0110252Y0104851D01*
X0110252Y0103277D02*
X0115330Y0103277D01*
X0115330Y0101704D02*
X0110252Y0101704D01*
X0110252Y0100130D02*
X0115330Y0100130D01*
X0115330Y0098557D02*
X0110252Y0098557D01*
X0110252Y0096984D02*
X0115330Y0096984D01*
X0115388Y0095411D02*
X0110252Y0095411D01*
X0110252Y0093837D02*
X0116450Y0093837D01*
X0118022Y0092264D02*
X0110252Y0092264D01*
X0110252Y0090691D02*
X0125818Y0090691D01*
X0126333Y0089117D02*
X0110252Y0089117D01*
X0121098Y0096984D02*
X0125818Y0096984D01*
X0128928Y0155197D02*
X0132244Y0155197D01*
X0130817Y0156770D02*
X0130355Y0156770D01*
X0130355Y0158342D02*
X0130817Y0158342D01*
X0130817Y0159917D02*
X0130355Y0159917D01*
X0129439Y0161490D02*
X0131734Y0161490D01*
X0138928Y0155197D02*
X0142244Y0155197D01*
X0140818Y0156770D02*
X0140355Y0156770D01*
X0140355Y0158342D02*
X0140818Y0158342D01*
X0140818Y0159917D02*
X0140355Y0159917D01*
X0139439Y0161490D02*
X0141734Y0161490D01*
D30*
X0158086Y0136098D02*
X0173086Y0136098D01*
X0175586Y0138598D01*
X0175586Y0163598D01*
X0170586Y0168598D01*
X0165586Y0168598D01*
D31*
X0163086Y0078597D03*
X0155586Y0073598D03*
G04 next file*
G75*
D32*
X0192913Y0011811D02*
X0216699Y0093598D03*
X0222700Y0093598D03*
X0244200Y0093598D03*
X0250199Y0093598D03*
D33*
X0252199Y0158598D03*
X0252199Y0168598D03*
X0242200Y0168598D03*
X0242200Y0158598D03*
X0232200Y0158598D03*
X0232200Y0168598D03*
X0222200Y0168598D03*
X0222200Y0158598D03*
X0212200Y0158598D03*
X0212200Y0168598D03*
D34*
X0244700Y0136098D03*
X0244700Y0116097D03*
D35*
X0196866Y0176433D02*
X0196866Y0015763D01*
X0267534Y0015763D01*
X0267534Y0176433D01*
X0196866Y0176433D01*
X0196866Y0175650D02*
X0267534Y0175650D01*
X0267534Y0174076D02*
X0196866Y0174076D01*
X0196866Y0172503D02*
X0209361Y0172503D01*
X0210225Y0173367D02*
X0207432Y0170574D01*
X0207432Y0170227D01*
X0203139Y0165935D01*
X0202364Y0165159D01*
X0201944Y0164147D01*
X0201944Y0095550D01*
X0202364Y0094537D01*
X0204863Y0092037D01*
X0205639Y0091262D01*
X0206652Y0090841D01*
X0212432Y0090841D01*
X0212432Y0089633D01*
X0213585Y0088480D01*
X0219944Y0088480D01*
X0219944Y0087550D01*
X0220364Y0086537D01*
X0234864Y0072037D01*
X0235639Y0071262D01*
X0236652Y0070842D01*
X0239109Y0070842D01*
X0239859Y0070094D01*
X0241378Y0069465D01*
X0243023Y0069465D01*
X0244542Y0070094D01*
X0245705Y0071256D01*
X0246334Y0072776D01*
X0246334Y0074420D01*
X0245705Y0075939D01*
X0244542Y0077103D01*
X0243023Y0077732D01*
X0241378Y0077732D01*
X0239859Y0077103D01*
X0239109Y0076353D01*
X0238342Y0076353D01*
X0226016Y0088680D01*
X0226969Y0089633D01*
X0226969Y0097564D01*
X0225816Y0098717D01*
X0213585Y0098717D01*
X0212432Y0097564D01*
X0212432Y0096354D01*
X0208341Y0096354D01*
X0207456Y0097240D01*
X0207456Y0156599D01*
X0209444Y0154611D01*
X0209444Y0118050D01*
X0209864Y0117036D01*
X0210639Y0116262D01*
X0235639Y0091262D01*
X0236652Y0090841D01*
X0239932Y0090841D01*
X0239932Y0089633D01*
X0241085Y0088480D01*
X0246944Y0088480D01*
X0246944Y0081689D01*
X0246196Y0080940D01*
X0245567Y0079421D01*
X0245567Y0077776D01*
X0246196Y0076257D01*
X0247359Y0075094D01*
X0248878Y0074465D01*
X0250523Y0074465D01*
X0252042Y0075094D01*
X0253205Y0076257D01*
X0253833Y0077776D01*
X0253833Y0079421D01*
X0253205Y0080940D01*
X0252456Y0081689D01*
X0252456Y0088480D01*
X0253316Y0088480D01*
X0254469Y0089633D01*
X0254469Y0097564D01*
X0253316Y0098717D01*
X0241085Y0098717D01*
X0239932Y0097564D01*
X0239932Y0096354D01*
X0238342Y0096354D01*
X0214956Y0119740D01*
X0214956Y0154611D01*
X0216969Y0156623D01*
X0216969Y0160574D01*
X0214176Y0163367D01*
X0210225Y0163367D01*
X0207456Y0160598D01*
X0207456Y0162457D01*
X0209527Y0164528D01*
X0210225Y0163830D01*
X0214176Y0163830D01*
X0216969Y0166623D01*
X0216969Y0170574D01*
X0214176Y0173367D01*
X0210225Y0173367D01*
X0209700Y0168598D02*
X0204700Y0163598D01*
X0204700Y0096098D01*
X0207200Y0093598D01*
X0216699Y0093598D01*
X0213425Y0098557D02*
X0207456Y0098557D01*
X0207456Y0100130D02*
X0226771Y0100130D01*
X0225975Y0098557D02*
X0228344Y0098557D01*
X0226969Y0096984D02*
X0229917Y0096984D01*
X0231490Y0095411D02*
X0226969Y0095411D01*
X0226969Y0093837D02*
X0233063Y0093837D01*
X0234636Y0092264D02*
X0226969Y0092264D01*
X0226969Y0090691D02*
X0239932Y0090691D01*
X0240447Y0089117D02*
X0226453Y0089117D01*
X0227152Y0087544D02*
X0246944Y0087544D01*
X0246944Y0085970D02*
X0228724Y0085970D01*
X0230299Y0084398D02*
X0246944Y0084398D01*
X0246944Y0082824D02*
X0231872Y0082824D01*
X0233445Y0081251D02*
X0246507Y0081251D01*
X0245673Y0079678D02*
X0235019Y0079678D01*
X0236592Y0078104D02*
X0245567Y0078104D01*
X0245114Y0076531D02*
X0246082Y0076531D01*
X0246112Y0074958D02*
X0247688Y0074958D01*
X0246334Y0073384D02*
X0267534Y0073384D01*
X0267534Y0071811D02*
X0245934Y0071811D01*
X0244686Y0070238D02*
X0267534Y0070238D01*
X0267534Y0068664D02*
X0196866Y0068664D01*
X0196866Y0067091D02*
X0267534Y0067091D01*
X0267534Y0065518D02*
X0196866Y0065518D01*
X0196866Y0063944D02*
X0267534Y0063944D01*
X0267534Y0062371D02*
X0196866Y0062371D01*
X0196866Y0060798D02*
X0267534Y0060798D01*
X0267534Y0059225D02*
X0196866Y0059225D01*
X0196866Y0057651D02*
X0267534Y0057651D01*
X0267534Y0056077D02*
X0196866Y0056077D01*
X0196866Y0054505D02*
X0267534Y0054505D01*
X0267534Y0052930D02*
X0196866Y0052930D01*
X0196866Y0051358D02*
X0267534Y0051358D01*
X0267534Y0049785D02*
X0196866Y0049785D01*
X0196866Y0048211D02*
X0267534Y0048211D01*
X0267534Y0046638D02*
X0196866Y0046638D01*
X0196866Y0045065D02*
X0267534Y0045065D01*
X0267534Y0043491D02*
X0196866Y0043491D01*
X0196866Y0041918D02*
X0267534Y0041918D01*
X0267534Y0040345D02*
X0196866Y0040345D01*
X0196866Y0038771D02*
X0267534Y0038771D01*
X0267534Y0037198D02*
X0196866Y0037198D01*
X0196866Y0035625D02*
X0267534Y0035625D01*
X0267534Y0034051D02*
X0196866Y0034051D01*
X0196866Y0032478D02*
X0267534Y0032478D01*
X0267534Y0030905D02*
X0196866Y0030905D01*
X0196866Y0029332D02*
X0267534Y0029332D01*
X0267534Y0027758D02*
X0196866Y0027758D01*
X0196866Y0026185D02*
X0267534Y0026185D01*
X0267534Y0024612D02*
X0196866Y0024612D01*
X0196866Y0023038D02*
X0267534Y0023038D01*
X0267534Y0021465D02*
X0196866Y0021465D01*
X0196866Y0019892D02*
X0267534Y0019892D01*
X0267534Y0018318D02*
X0196866Y0018318D01*
X0196866Y0016745D02*
X0267534Y0016745D01*
X0242200Y0073598D02*
X0237200Y0073598D01*
X0222700Y0088098D01*
X0222700Y0093598D01*
X0219946Y0087544D02*
X0196866Y0087544D01*
X0196866Y0085970D02*
X0220929Y0085970D01*
X0222504Y0084398D02*
X0196866Y0084398D01*
X0196866Y0082824D02*
X0224077Y0082824D01*
X0225650Y0081251D02*
X0196866Y0081251D01*
X0196866Y0079678D02*
X0227224Y0079678D01*
X0228797Y0078104D02*
X0196866Y0078104D01*
X0196866Y0076531D02*
X0230370Y0076531D01*
X0231944Y0074958D02*
X0196866Y0074958D01*
X0196866Y0073384D02*
X0233517Y0073384D01*
X0235090Y0071811D02*
X0196866Y0071811D01*
X0196866Y0070238D02*
X0239715Y0070238D01*
X0239286Y0076531D02*
X0238165Y0076531D01*
X0237200Y0093598D02*
X0212200Y0118598D01*
X0212200Y0158598D01*
X0209922Y0163063D02*
X0208063Y0163063D01*
X0208348Y0161490D02*
X0207456Y0161490D01*
X0207456Y0155197D02*
X0208858Y0155197D01*
X0209444Y0153623D02*
X0207456Y0153623D01*
X0207456Y0152050D02*
X0209444Y0152050D01*
X0209444Y0150477D02*
X0207456Y0150477D01*
X0207456Y0148903D02*
X0209444Y0148903D01*
X0209444Y0147330D02*
X0207456Y0147330D01*
X0207456Y0145757D02*
X0209444Y0145757D01*
X0209444Y0144184D02*
X0207456Y0144184D01*
X0207456Y0142610D02*
X0209444Y0142610D01*
X0209444Y0141037D02*
X0207456Y0141037D01*
X0207456Y0139464D02*
X0209444Y0139464D01*
X0209444Y0137890D02*
X0207456Y0137890D01*
X0207456Y0136316D02*
X0209444Y0136316D01*
X0209444Y0134744D02*
X0207456Y0134744D01*
X0207456Y0133170D02*
X0209444Y0133170D01*
X0209444Y0131597D02*
X0207456Y0131597D01*
X0207456Y0130024D02*
X0209444Y0130024D01*
X0209444Y0128450D02*
X0207456Y0128450D01*
X0207456Y0126877D02*
X0209444Y0126877D01*
X0209444Y0125304D02*
X0207456Y0125304D01*
X0207456Y0123730D02*
X0209444Y0123730D01*
X0209444Y0122157D02*
X0207456Y0122157D01*
X0207456Y0120584D02*
X0209444Y0120584D01*
X0209444Y0119010D02*
X0207456Y0119010D01*
X0207456Y0117436D02*
X0209697Y0117436D01*
X0211038Y0115863D02*
X0207456Y0115863D01*
X0207456Y0114291D02*
X0212611Y0114291D01*
X0214184Y0112717D02*
X0207456Y0112717D01*
X0207456Y0111144D02*
X0215757Y0111144D01*
X0217330Y0109571D02*
X0207456Y0109571D01*
X0207456Y0107997D02*
X0218904Y0107997D01*
X0220477Y0106424D02*
X0207456Y0106424D01*
X0207456Y0104851D02*
X0222051Y0104851D01*
X0223624Y0103277D02*
X0207456Y0103277D01*
X0207456Y0101704D02*
X0225197Y0101704D01*
X0228272Y0106424D02*
X0267534Y0106424D01*
X0267534Y0107997D02*
X0226698Y0107997D01*
X0225125Y0109571D02*
X0267534Y0109571D01*
X0267534Y0111144D02*
X0223552Y0111144D01*
X0221979Y0112717D02*
X0241100Y0112717D01*
X0240935Y0112882D02*
X0241484Y0112333D01*
X0242112Y0111876D01*
X0242804Y0111523D01*
X0243543Y0111283D01*
X0244312Y0111161D01*
X0244602Y0111161D01*
X0244602Y0115999D01*
X0239763Y0115999D01*
X0239763Y0115710D01*
X0239885Y0114942D01*
X0240125Y0114203D01*
X0240478Y0113511D01*
X0240935Y0112882D01*
X0240097Y0114291D02*
X0220406Y0114291D01*
X0218832Y0115863D02*
X0239763Y0115863D01*
X0239763Y0116197D02*
X0244602Y0116197D01*
X0244602Y0121035D01*
X0244312Y0121035D01*
X0243543Y0120914D01*
X0242804Y0120673D01*
X0242112Y0120320D01*
X0241484Y0119864D01*
X0240935Y0119315D01*
X0240478Y0118686D01*
X0240125Y0117994D01*
X0239885Y0117253D01*
X0239763Y0116487D01*
X0239763Y0116197D01*
X0239943Y0117436D02*
X0217259Y0117436D01*
X0215686Y0119010D02*
X0240714Y0119010D01*
X0242628Y0120584D02*
X0214956Y0120584D01*
X0214956Y0122157D02*
X0267534Y0122157D01*
X0267534Y0120584D02*
X0246772Y0120584D01*
X0246596Y0120673D02*
X0245856Y0120914D01*
X0245088Y0121035D01*
X0244799Y0121035D01*
X0244799Y0116197D01*
X0244602Y0116197D01*
X0244602Y0115999D01*
X0244799Y0115999D01*
X0244799Y0116197D01*
X0249637Y0116197D01*
X0249637Y0116487D01*
X0249515Y0117253D01*
X0249276Y0117994D01*
X0248923Y0118686D01*
X0248466Y0119315D01*
X0247917Y0119864D01*
X0247288Y0120320D01*
X0246596Y0120673D01*
X0244799Y0120584D02*
X0244602Y0120584D01*
X0244602Y0119010D02*
X0244799Y0119010D01*
X0244799Y0117436D02*
X0244602Y0117436D01*
X0244799Y0115999D02*
X0249637Y0115999D01*
X0249637Y0115710D01*
X0249515Y0114942D01*
X0249276Y0114203D01*
X0248923Y0113511D01*
X0248466Y0112882D01*
X0247917Y0112333D01*
X0247288Y0111876D01*
X0246596Y0111523D01*
X0245856Y0111283D01*
X0245088Y0111161D01*
X0244799Y0111161D01*
X0244799Y0115999D01*
X0244799Y0115863D02*
X0244602Y0115863D01*
X0244602Y0114291D02*
X0244799Y0114291D01*
X0244799Y0112717D02*
X0244602Y0112717D01*
X0248301Y0112717D02*
X0267534Y0112717D01*
X0267534Y0114291D02*
X0249304Y0114291D01*
X0249637Y0115863D02*
X0267534Y0115863D01*
X0267534Y0117436D02*
X0249456Y0117436D01*
X0248687Y0119010D02*
X0267534Y0119010D01*
X0267534Y0123730D02*
X0214956Y0123730D01*
X0214956Y0125304D02*
X0267534Y0125304D01*
X0267534Y0126877D02*
X0214956Y0126877D01*
X0214956Y0128450D02*
X0267534Y0128450D01*
X0267534Y0130024D02*
X0214956Y0130024D01*
X0214956Y0131597D02*
X0242193Y0131597D01*
X0241801Y0131759D02*
X0243682Y0130980D01*
X0245718Y0130980D01*
X0247600Y0131759D01*
X0248395Y0132555D01*
X0260405Y0132555D01*
X0261708Y0133095D01*
X0262704Y0134091D01*
X0265204Y0136591D01*
X0265743Y0137894D01*
X0265743Y0164303D01*
X0265204Y0165606D01*
X0264208Y0166602D01*
X0259208Y0171602D01*
X0257905Y0172142D01*
X0255401Y0172142D01*
X0254176Y0173367D01*
X0250225Y0173367D01*
X0247432Y0170574D01*
X0247432Y0166623D01*
X0250225Y0163830D01*
X0254176Y0163830D01*
X0255401Y0165055D01*
X0255733Y0165055D01*
X0258657Y0162131D01*
X0258657Y0140066D01*
X0258232Y0139642D01*
X0248395Y0139642D01*
X0247600Y0140437D01*
X0245718Y0141216D01*
X0243682Y0141216D01*
X0241801Y0140437D01*
X0240361Y0138998D01*
X0239582Y0137116D01*
X0239582Y0135080D01*
X0240361Y0133199D01*
X0241801Y0131759D01*
X0240390Y0133170D02*
X0214956Y0133170D01*
X0214956Y0134744D02*
X0239722Y0134744D01*
X0239582Y0136316D02*
X0214956Y0136316D01*
X0214956Y0137890D02*
X0239903Y0137890D01*
X0240827Y0139464D02*
X0214956Y0139464D01*
X0214956Y0141037D02*
X0243249Y0141037D01*
X0246152Y0141037D02*
X0258657Y0141037D01*
X0258657Y0142610D02*
X0214956Y0142610D01*
X0214956Y0144184D02*
X0258657Y0144184D01*
X0258657Y0145757D02*
X0214956Y0145757D01*
X0214956Y0147330D02*
X0258657Y0147330D01*
X0258657Y0148903D02*
X0214956Y0148903D01*
X0214956Y0150477D02*
X0258657Y0150477D01*
X0258657Y0152050D02*
X0214956Y0152050D01*
X0214956Y0153623D02*
X0258657Y0153623D01*
X0258657Y0155197D02*
X0255286Y0155197D01*
X0254101Y0154011D02*
X0256788Y0156698D01*
X0256788Y0158486D01*
X0252313Y0158486D01*
X0252313Y0158711D01*
X0256788Y0158711D01*
X0256788Y0160499D01*
X0254101Y0163186D01*
X0252313Y0163186D01*
X0252313Y0158711D01*
X0252088Y0158711D01*
X0252088Y0163186D01*
X0250300Y0163186D01*
X0247613Y0160499D01*
X0247613Y0158711D01*
X0252088Y0158711D01*
X0252088Y0158486D01*
X0252313Y0158486D01*
X0252313Y0154011D01*
X0254101Y0154011D01*
X0252088Y0154011D02*
X0252088Y0158486D01*
X0247613Y0158486D01*
X0247613Y0156698D01*
X0250300Y0154011D01*
X0252088Y0154011D01*
X0252088Y0155197D02*
X0252313Y0155197D01*
X0252313Y0156770D02*
X0252088Y0156770D01*
X0252088Y0158342D02*
X0252313Y0158342D01*
X0252313Y0159917D02*
X0252088Y0159917D01*
X0252088Y0161490D02*
X0252313Y0161490D01*
X0252313Y0163063D02*
X0252088Y0163063D01*
X0250178Y0163063D02*
X0244478Y0163063D01*
X0244176Y0163367D02*
X0240225Y0163367D01*
X0237432Y0160574D01*
X0237432Y0156623D01*
X0240225Y0153830D01*
X0244176Y0153830D01*
X0246969Y0156623D01*
X0246969Y0160574D01*
X0244176Y0163367D01*
X0244176Y0163830D02*
X0246969Y0166623D01*
X0246969Y0170574D01*
X0244176Y0173367D01*
X0240225Y0173367D01*
X0237432Y0170574D01*
X0237432Y0166623D01*
X0240225Y0163830D01*
X0244176Y0163830D01*
X0244982Y0164637D02*
X0249419Y0164637D01*
X0247845Y0166210D02*
X0246556Y0166210D01*
X0246969Y0167783D02*
X0247432Y0167783D01*
X0247432Y0169357D02*
X0246969Y0169357D01*
X0246613Y0170929D02*
X0247788Y0170929D01*
X0249361Y0172503D02*
X0245039Y0172503D01*
X0239360Y0172503D02*
X0235039Y0172503D01*
X0234175Y0173367D02*
X0230225Y0173367D01*
X0227432Y0170574D01*
X0227432Y0166623D01*
X0230225Y0163830D01*
X0234175Y0163830D01*
X0236968Y0166623D01*
X0236968Y0170574D01*
X0234175Y0173367D01*
X0236613Y0170929D02*
X0237788Y0170929D01*
X0237432Y0169357D02*
X0236968Y0169357D01*
X0236968Y0167783D02*
X0237432Y0167783D01*
X0237845Y0166210D02*
X0236556Y0166210D01*
X0234981Y0164637D02*
X0239419Y0164637D01*
X0239922Y0163063D02*
X0234479Y0163063D01*
X0234175Y0163367D02*
X0230225Y0163367D01*
X0227432Y0160574D01*
X0227432Y0156623D01*
X0230225Y0153830D01*
X0234175Y0153830D01*
X0236968Y0156623D01*
X0236968Y0160574D01*
X0234175Y0163367D01*
X0236052Y0161490D02*
X0238348Y0161490D01*
X0237432Y0159917D02*
X0236968Y0159917D01*
X0236968Y0158342D02*
X0237432Y0158342D01*
X0237432Y0156770D02*
X0236968Y0156770D01*
X0235542Y0155197D02*
X0238858Y0155197D01*
X0245542Y0155197D02*
X0249115Y0155197D01*
X0247613Y0156770D02*
X0246969Y0156770D01*
X0246969Y0158342D02*
X0247613Y0158342D01*
X0247613Y0159917D02*
X0246969Y0159917D01*
X0246053Y0161490D02*
X0248604Y0161490D01*
X0254223Y0163063D02*
X0257724Y0163063D01*
X0258657Y0161490D02*
X0255796Y0161490D01*
X0256788Y0159917D02*
X0258657Y0159917D01*
X0258657Y0158342D02*
X0256788Y0158342D01*
X0256788Y0156770D02*
X0258657Y0156770D01*
X0256151Y0164637D02*
X0254982Y0164637D01*
X0255039Y0172503D02*
X0267534Y0172503D01*
X0267534Y0170929D02*
X0259879Y0170929D01*
X0261452Y0169357D02*
X0267534Y0169357D01*
X0267534Y0167783D02*
X0263026Y0167783D01*
X0264600Y0166210D02*
X0267534Y0166210D01*
X0267534Y0164637D02*
X0265605Y0164637D01*
X0265743Y0163063D02*
X0267534Y0163063D01*
X0267534Y0161490D02*
X0265743Y0161490D01*
X0265743Y0159917D02*
X0267534Y0159917D01*
X0267534Y0158342D02*
X0265743Y0158342D01*
X0265743Y0156770D02*
X0267534Y0156770D01*
X0267534Y0155197D02*
X0265743Y0155197D01*
X0265743Y0153623D02*
X0267534Y0153623D01*
X0267534Y0152050D02*
X0265743Y0152050D01*
X0265743Y0150477D02*
X0267534Y0150477D01*
X0267534Y0148903D02*
X0265743Y0148903D01*
X0265743Y0147330D02*
X0267534Y0147330D01*
X0267534Y0145757D02*
X0265743Y0145757D01*
X0265743Y0144184D02*
X0267534Y0144184D01*
X0267534Y0142610D02*
X0265743Y0142610D01*
X0265743Y0141037D02*
X0267534Y0141037D01*
X0267534Y0139464D02*
X0265743Y0139464D01*
X0265742Y0137890D02*
X0267534Y0137890D01*
X0267534Y0136316D02*
X0264930Y0136316D01*
X0263357Y0134744D02*
X0267534Y0134744D01*
X0267534Y0133170D02*
X0261783Y0133170D01*
X0267534Y0131597D02*
X0247207Y0131597D01*
X0232992Y0101704D02*
X0267534Y0101704D01*
X0267534Y0100130D02*
X0234566Y0100130D01*
X0236139Y0098557D02*
X0240925Y0098557D01*
X0239932Y0096984D02*
X0237712Y0096984D01*
X0237200Y0093598D02*
X0244200Y0093598D01*
X0249700Y0093098D02*
X0250199Y0093598D01*
X0249700Y0093098D02*
X0249700Y0078597D01*
X0251713Y0074958D02*
X0267534Y0074958D01*
X0267534Y0076531D02*
X0253318Y0076531D01*
X0253833Y0078104D02*
X0267534Y0078104D01*
X0267534Y0079678D02*
X0253728Y0079678D01*
X0252894Y0081251D02*
X0267534Y0081251D01*
X0267534Y0082824D02*
X0252456Y0082824D01*
X0252456Y0084398D02*
X0267534Y0084398D01*
X0267534Y0085970D02*
X0252456Y0085970D01*
X0252456Y0087544D02*
X0267534Y0087544D01*
X0267534Y0089117D02*
X0253953Y0089117D01*
X0254469Y0090691D02*
X0267534Y0090691D01*
X0267534Y0092264D02*
X0254469Y0092264D01*
X0254469Y0093837D02*
X0267534Y0093837D01*
X0267534Y0095411D02*
X0254469Y0095411D01*
X0254469Y0096984D02*
X0267534Y0096984D01*
X0267534Y0098557D02*
X0253475Y0098557D01*
X0267534Y0103277D02*
X0231419Y0103277D01*
X0229846Y0104851D02*
X0267534Y0104851D01*
X0229922Y0163063D02*
X0224479Y0163063D01*
X0224176Y0163367D02*
X0220224Y0163367D01*
X0217431Y0160574D01*
X0217431Y0156623D01*
X0220224Y0153830D01*
X0224176Y0153830D01*
X0226969Y0156623D01*
X0226969Y0160574D01*
X0224176Y0163367D01*
X0224176Y0163830D02*
X0226969Y0166623D01*
X0226969Y0170574D01*
X0224176Y0173367D01*
X0220224Y0173367D01*
X0217431Y0170574D01*
X0217431Y0166623D01*
X0220224Y0163830D01*
X0224176Y0163830D01*
X0224982Y0164637D02*
X0229419Y0164637D01*
X0227845Y0166210D02*
X0226555Y0166210D01*
X0226969Y0167783D02*
X0227432Y0167783D01*
X0227432Y0169357D02*
X0226969Y0169357D01*
X0226613Y0170929D02*
X0227788Y0170929D01*
X0229361Y0172503D02*
X0225039Y0172503D01*
X0219922Y0163063D02*
X0214479Y0163063D01*
X0214982Y0164637D02*
X0219419Y0164637D01*
X0217845Y0166210D02*
X0216556Y0166210D01*
X0216969Y0167783D02*
X0217431Y0167783D01*
X0217431Y0169357D02*
X0216969Y0169357D01*
X0216613Y0170929D02*
X0217788Y0170929D01*
X0219361Y0172503D02*
X0215038Y0172503D01*
X0212200Y0168598D02*
X0209700Y0168598D01*
X0207788Y0170929D02*
X0196866Y0170929D01*
X0196866Y0169357D02*
X0206561Y0169357D01*
X0204988Y0167783D02*
X0196866Y0167783D01*
X0196866Y0166210D02*
X0203413Y0166210D01*
X0202147Y0164637D02*
X0196866Y0164637D01*
X0196866Y0163063D02*
X0201944Y0163063D01*
X0201944Y0161490D02*
X0196866Y0161490D01*
X0196866Y0159917D02*
X0201944Y0159917D01*
X0201944Y0158342D02*
X0196866Y0158342D01*
X0196866Y0156770D02*
X0201944Y0156770D01*
X0201944Y0155197D02*
X0196866Y0155197D01*
X0196866Y0153623D02*
X0201944Y0153623D01*
X0201944Y0152050D02*
X0196866Y0152050D01*
X0196866Y0150477D02*
X0201944Y0150477D01*
X0201944Y0148903D02*
X0196866Y0148903D01*
X0196866Y0147330D02*
X0201944Y0147330D01*
X0201944Y0145757D02*
X0196866Y0145757D01*
X0196866Y0144184D02*
X0201944Y0144184D01*
X0201944Y0142610D02*
X0196866Y0142610D01*
X0196866Y0141037D02*
X0201944Y0141037D01*
X0201944Y0139464D02*
X0196866Y0139464D01*
X0196866Y0137890D02*
X0201944Y0137890D01*
X0201944Y0136316D02*
X0196866Y0136316D01*
X0196866Y0134744D02*
X0201944Y0134744D01*
X0201944Y0133170D02*
X0196866Y0133170D01*
X0196866Y0131597D02*
X0201944Y0131597D01*
X0201944Y0130024D02*
X0196866Y0130024D01*
X0196866Y0128450D02*
X0201944Y0128450D01*
X0201944Y0126877D02*
X0196866Y0126877D01*
X0196866Y0125304D02*
X0201944Y0125304D01*
X0201944Y0123730D02*
X0196866Y0123730D01*
X0196866Y0122157D02*
X0201944Y0122157D01*
X0201944Y0120584D02*
X0196866Y0120584D01*
X0196866Y0119010D02*
X0201944Y0119010D01*
X0201944Y0117436D02*
X0196866Y0117436D01*
X0196866Y0115863D02*
X0201944Y0115863D01*
X0201944Y0114291D02*
X0196866Y0114291D01*
X0196866Y0112717D02*
X0201944Y0112717D01*
X0201944Y0111144D02*
X0196866Y0111144D01*
X0196866Y0109571D02*
X0201944Y0109571D01*
X0201944Y0107997D02*
X0196866Y0107997D01*
X0196866Y0106424D02*
X0201944Y0106424D01*
X0201944Y0104851D02*
X0196866Y0104851D01*
X0196866Y0103277D02*
X0201944Y0103277D01*
X0201944Y0101704D02*
X0196866Y0101704D01*
X0196866Y0100130D02*
X0201944Y0100130D01*
X0201944Y0098557D02*
X0196866Y0098557D01*
X0196866Y0096984D02*
X0201944Y0096984D01*
X0202002Y0095411D02*
X0196866Y0095411D01*
X0196866Y0093837D02*
X0203064Y0093837D01*
X0204637Y0092264D02*
X0196866Y0092264D01*
X0196866Y0090691D02*
X0212432Y0090691D01*
X0212947Y0089117D02*
X0196866Y0089117D01*
X0207712Y0096984D02*
X0212432Y0096984D01*
X0215542Y0155197D02*
X0218858Y0155197D01*
X0217431Y0156770D02*
X0216969Y0156770D01*
X0216969Y0158342D02*
X0217431Y0158342D01*
X0217431Y0159917D02*
X0216969Y0159917D01*
X0216053Y0161490D02*
X0218348Y0161490D01*
X0225542Y0155197D02*
X0228858Y0155197D01*
X0227432Y0156770D02*
X0226969Y0156770D01*
X0226969Y0158342D02*
X0227432Y0158342D01*
X0227432Y0159917D02*
X0226969Y0159917D01*
X0226053Y0161490D02*
X0228348Y0161490D01*
D36*
X0244700Y0136098D02*
X0259700Y0136098D01*
X0262200Y0138598D01*
X0262200Y0163598D01*
X0257200Y0168598D01*
X0252199Y0168598D01*
D37*
X0249700Y0078597D03*
X0242200Y0073598D03*
G04 next file*
G75*
D38*
X0279527Y0011811D02*
X0303314Y0093598D03*
X0309314Y0093598D03*
X0330814Y0093598D03*
X0336814Y0093598D03*
D39*
X0338814Y0158598D03*
X0338814Y0168598D03*
X0328814Y0168598D03*
X0328814Y0158598D03*
X0318814Y0158598D03*
X0318814Y0168598D03*
X0308814Y0168598D03*
X0308814Y0158598D03*
X0298814Y0158598D03*
X0298814Y0168598D03*
D40*
X0331314Y0136098D03*
X0331314Y0116097D03*
D41*
X0283480Y0176433D02*
X0283480Y0015763D01*
X0354149Y0015763D01*
X0354149Y0176433D01*
X0283480Y0176433D01*
X0283480Y0175650D02*
X0354149Y0175650D01*
X0354149Y0174076D02*
X0283480Y0174076D01*
X0283480Y0172503D02*
X0295975Y0172503D01*
X0296839Y0173367D02*
X0294046Y0170574D01*
X0294046Y0170227D01*
X0289753Y0165935D01*
X0288978Y0165159D01*
X0288558Y0164147D01*
X0288558Y0095550D01*
X0288978Y0094537D01*
X0291478Y0092037D01*
X0292252Y0091262D01*
X0293266Y0090841D01*
X0299046Y0090841D01*
X0299046Y0089633D01*
X0300199Y0088480D01*
X0306558Y0088480D01*
X0306558Y0087550D01*
X0306978Y0086537D01*
X0321478Y0072037D01*
X0322253Y0071262D01*
X0323265Y0070842D01*
X0325723Y0070842D01*
X0326473Y0070094D01*
X0327992Y0069465D01*
X0329637Y0069465D01*
X0331156Y0070094D01*
X0332319Y0071256D01*
X0332948Y0072776D01*
X0332948Y0074420D01*
X0332319Y0075939D01*
X0331156Y0077103D01*
X0329637Y0077732D01*
X0327992Y0077732D01*
X0326473Y0077103D01*
X0325723Y0076353D01*
X0324956Y0076353D01*
X0312630Y0088680D01*
X0313583Y0089633D01*
X0313583Y0097564D01*
X0312430Y0098717D01*
X0300199Y0098717D01*
X0299046Y0097564D01*
X0299046Y0096354D01*
X0294956Y0096354D01*
X0294070Y0097240D01*
X0294070Y0156599D01*
X0296058Y0154611D01*
X0296058Y0118050D01*
X0296478Y0117036D01*
X0297253Y0116262D01*
X0322253Y0091262D01*
X0323265Y0090841D01*
X0326546Y0090841D01*
X0326546Y0089633D01*
X0327699Y0088480D01*
X0333558Y0088480D01*
X0333558Y0081689D01*
X0332810Y0080940D01*
X0332181Y0079421D01*
X0332181Y0077776D01*
X0332810Y0076257D01*
X0333973Y0075094D01*
X0335492Y0074465D01*
X0337137Y0074465D01*
X0338656Y0075094D01*
X0339819Y0076257D01*
X0340448Y0077776D01*
X0340448Y0079421D01*
X0339819Y0080940D01*
X0339070Y0081689D01*
X0339070Y0088480D01*
X0339930Y0088480D01*
X0341083Y0089633D01*
X0341083Y0097564D01*
X0339930Y0098717D01*
X0327699Y0098717D01*
X0326546Y0097564D01*
X0326546Y0096354D01*
X0324956Y0096354D01*
X0301570Y0119740D01*
X0301570Y0154611D01*
X0303583Y0156623D01*
X0303583Y0160574D01*
X0300790Y0163367D01*
X0296839Y0163367D01*
X0294070Y0160598D01*
X0294070Y0162457D01*
X0296141Y0164528D01*
X0296839Y0163830D01*
X0300790Y0163830D01*
X0303583Y0166623D01*
X0303583Y0170574D01*
X0300790Y0173367D01*
X0296839Y0173367D01*
X0296314Y0168598D02*
X0291314Y0163598D01*
X0291314Y0096098D01*
X0293814Y0093598D01*
X0303314Y0093598D01*
X0300039Y0098557D02*
X0294070Y0098557D01*
X0294070Y0100130D02*
X0313384Y0100130D01*
X0312589Y0098557D02*
X0314958Y0098557D01*
X0313583Y0096984D02*
X0316531Y0096984D01*
X0318104Y0095411D02*
X0313583Y0095411D01*
X0313583Y0093837D02*
X0319678Y0093837D01*
X0321251Y0092264D02*
X0313583Y0092264D01*
X0313583Y0090691D02*
X0326546Y0090691D01*
X0327061Y0089117D02*
X0313067Y0089117D01*
X0313766Y0087544D02*
X0333558Y0087544D01*
X0333558Y0085970D02*
X0315339Y0085970D01*
X0316913Y0084398D02*
X0333558Y0084398D01*
X0333558Y0082824D02*
X0318486Y0082824D01*
X0320059Y0081251D02*
X0333120Y0081251D01*
X0332287Y0079678D02*
X0321633Y0079678D01*
X0323206Y0078104D02*
X0332181Y0078104D01*
X0331728Y0076531D02*
X0332696Y0076531D01*
X0332726Y0074958D02*
X0334302Y0074958D01*
X0332948Y0073384D02*
X0354149Y0073384D01*
X0354149Y0071811D02*
X0332548Y0071811D01*
X0331300Y0070238D02*
X0354149Y0070238D01*
X0354149Y0068664D02*
X0283480Y0068664D01*
X0283480Y0067091D02*
X0354149Y0067091D01*
X0354149Y0065518D02*
X0283480Y0065518D01*
X0283480Y0063944D02*
X0354149Y0063944D01*
X0354149Y0062371D02*
X0283480Y0062371D01*
X0283480Y0060798D02*
X0354149Y0060798D01*
X0354149Y0059225D02*
X0283480Y0059225D01*
X0283480Y0057651D02*
X0354149Y0057651D01*
X0354149Y0056077D02*
X0283480Y0056077D01*
X0283480Y0054505D02*
X0354149Y0054505D01*
X0354149Y0052930D02*
X0283480Y0052930D01*
X0283480Y0051358D02*
X0354149Y0051358D01*
X0354149Y0049785D02*
X0283480Y0049785D01*
X0283480Y0048211D02*
X0354149Y0048211D01*
X0354149Y0046638D02*
X0283480Y0046638D01*
X0283480Y0045065D02*
X0354149Y0045065D01*
X0354149Y0043491D02*
X0283480Y0043491D01*
X0283480Y0041918D02*
X0354149Y0041918D01*
X0354149Y0040345D02*
X0283480Y0040345D01*
X0283480Y0038771D02*
X0354149Y0038771D01*
X0354149Y0037198D02*
X0283480Y0037198D01*
X0283480Y0035625D02*
X0354149Y0035625D01*
X0354149Y0034051D02*
X0283480Y0034051D01*
X0283480Y0032478D02*
X0354149Y0032478D01*
X0354149Y0030905D02*
X0283480Y0030905D01*
X0283480Y0029332D02*
X0354149Y0029332D01*
X0354149Y0027758D02*
X0283480Y0027758D01*
X0283480Y0026185D02*
X0354149Y0026185D01*
X0354149Y0024612D02*
X0283480Y0024612D01*
X0283480Y0023038D02*
X0354149Y0023038D01*
X0354149Y0021465D02*
X0283480Y0021465D01*
X0283480Y0019892D02*
X0354149Y0019892D01*
X0354149Y0018318D02*
X0283480Y0018318D01*
X0283480Y0016745D02*
X0354149Y0016745D01*
X0328814Y0073598D02*
X0323814Y0073598D01*
X0309314Y0088098D01*
X0309314Y0093598D01*
X0306561Y0087544D02*
X0283480Y0087544D01*
X0283480Y0085970D02*
X0307544Y0085970D01*
X0309117Y0084398D02*
X0283480Y0084398D01*
X0283480Y0082824D02*
X0310691Y0082824D01*
X0312264Y0081251D02*
X0283480Y0081251D01*
X0283480Y0079678D02*
X0313838Y0079678D01*
X0315411Y0078104D02*
X0283480Y0078104D01*
X0283480Y0076531D02*
X0316984Y0076531D01*
X0318558Y0074958D02*
X0283480Y0074958D01*
X0283480Y0073384D02*
X0320131Y0073384D01*
X0321704Y0071811D02*
X0283480Y0071811D01*
X0283480Y0070238D02*
X0326329Y0070238D01*
X0325901Y0076531D02*
X0324779Y0076531D01*
X0323814Y0093598D02*
X0298814Y0118598D01*
X0298814Y0158598D01*
X0296536Y0163063D02*
X0294677Y0163063D01*
X0294962Y0161490D02*
X0294070Y0161490D01*
X0294070Y0155197D02*
X0295472Y0155197D01*
X0296058Y0153623D02*
X0294070Y0153623D01*
X0294070Y0152050D02*
X0296058Y0152050D01*
X0296058Y0150477D02*
X0294070Y0150477D01*
X0294070Y0148903D02*
X0296058Y0148903D01*
X0296058Y0147330D02*
X0294070Y0147330D01*
X0294070Y0145757D02*
X0296058Y0145757D01*
X0296058Y0144184D02*
X0294070Y0144184D01*
X0294070Y0142610D02*
X0296058Y0142610D01*
X0296058Y0141037D02*
X0294070Y0141037D01*
X0294070Y0139464D02*
X0296058Y0139464D01*
X0296058Y0137890D02*
X0294070Y0137890D01*
X0294070Y0136316D02*
X0296058Y0136316D01*
X0296058Y0134744D02*
X0294070Y0134744D01*
X0294070Y0133170D02*
X0296058Y0133170D01*
X0296058Y0131597D02*
X0294070Y0131597D01*
X0294070Y0130024D02*
X0296058Y0130024D01*
X0296058Y0128450D02*
X0294070Y0128450D01*
X0294070Y0126877D02*
X0296058Y0126877D01*
X0296058Y0125304D02*
X0294070Y0125304D01*
X0294070Y0123730D02*
X0296058Y0123730D01*
X0296058Y0122157D02*
X0294070Y0122157D01*
X0294070Y0120584D02*
X0296058Y0120584D01*
X0296058Y0119010D02*
X0294070Y0119010D01*
X0294070Y0117436D02*
X0296312Y0117436D01*
X0297652Y0115863D02*
X0294070Y0115863D01*
X0294070Y0114291D02*
X0299225Y0114291D01*
X0300798Y0112717D02*
X0294070Y0112717D01*
X0294070Y0111144D02*
X0302371Y0111144D01*
X0303945Y0109571D02*
X0294070Y0109571D01*
X0294070Y0107997D02*
X0305518Y0107997D01*
X0307091Y0106424D02*
X0294070Y0106424D01*
X0294070Y0104851D02*
X0308665Y0104851D01*
X0310237Y0103277D02*
X0294070Y0103277D01*
X0294070Y0101704D02*
X0311811Y0101704D01*
X0314886Y0106424D02*
X0354149Y0106424D01*
X0354149Y0107997D02*
X0313313Y0107997D01*
X0311740Y0109571D02*
X0354149Y0109571D01*
X0354149Y0111144D02*
X0310166Y0111144D01*
X0308593Y0112717D02*
X0327714Y0112717D01*
X0327549Y0112882D02*
X0328098Y0112333D01*
X0328727Y0111876D01*
X0329418Y0111523D01*
X0330158Y0111283D01*
X0330926Y0111161D01*
X0331216Y0111161D01*
X0331216Y0115999D01*
X0326377Y0115999D01*
X0326377Y0115710D01*
X0326499Y0114942D01*
X0326739Y0114203D01*
X0327092Y0113511D01*
X0327549Y0112882D01*
X0326711Y0114291D02*
X0307020Y0114291D01*
X0305446Y0115863D02*
X0326377Y0115863D01*
X0326377Y0116197D02*
X0331216Y0116197D01*
X0331216Y0121035D01*
X0330926Y0121035D01*
X0330158Y0120914D01*
X0329418Y0120673D01*
X0328727Y0120320D01*
X0328098Y0119864D01*
X0327549Y0119315D01*
X0327092Y0118686D01*
X0326739Y0117994D01*
X0326499Y0117253D01*
X0326377Y0116487D01*
X0326377Y0116197D01*
X0326558Y0117436D02*
X0303873Y0117436D01*
X0302300Y0119010D02*
X0327328Y0119010D01*
X0329243Y0120584D02*
X0301570Y0120584D01*
X0301570Y0122157D02*
X0354149Y0122157D01*
X0354149Y0120584D02*
X0333386Y0120584D01*
X0333210Y0120673D02*
X0332470Y0120914D01*
X0331703Y0121035D01*
X0331413Y0121035D01*
X0331413Y0116197D01*
X0331216Y0116197D01*
X0331216Y0115999D01*
X0331413Y0115999D01*
X0331413Y0116197D01*
X0336251Y0116197D01*
X0336251Y0116487D01*
X0336129Y0117253D01*
X0335890Y0117994D01*
X0335537Y0118686D01*
X0335080Y0119315D01*
X0334531Y0119864D01*
X0333902Y0120320D01*
X0333210Y0120673D01*
X0331413Y0120584D02*
X0331216Y0120584D01*
X0331216Y0119010D02*
X0331413Y0119010D01*
X0331413Y0117436D02*
X0331216Y0117436D01*
X0331413Y0115999D02*
X0336251Y0115999D01*
X0336251Y0115710D01*
X0336129Y0114942D01*
X0335890Y0114203D01*
X0335537Y0113511D01*
X0335080Y0112882D01*
X0334531Y0112333D01*
X0333902Y0111876D01*
X0333210Y0111523D01*
X0332470Y0111283D01*
X0331703Y0111161D01*
X0331413Y0111161D01*
X0331413Y0115999D01*
X0331413Y0115863D02*
X0331216Y0115863D01*
X0331216Y0114291D02*
X0331413Y0114291D01*
X0331413Y0112717D02*
X0331216Y0112717D01*
X0334915Y0112717D02*
X0354149Y0112717D01*
X0354149Y0114291D02*
X0335918Y0114291D01*
X0336251Y0115863D02*
X0354149Y0115863D01*
X0354149Y0117436D02*
X0336070Y0117436D01*
X0335301Y0119010D02*
X0354149Y0119010D01*
X0354149Y0123730D02*
X0301570Y0123730D01*
X0301570Y0125304D02*
X0354149Y0125304D01*
X0354149Y0126877D02*
X0301570Y0126877D01*
X0301570Y0128450D02*
X0354149Y0128450D01*
X0354149Y0130024D02*
X0301570Y0130024D01*
X0301570Y0131597D02*
X0328807Y0131597D01*
X0328415Y0131759D02*
X0330296Y0130980D01*
X0332332Y0130980D01*
X0334214Y0131759D01*
X0335009Y0132555D01*
X0347019Y0132555D01*
X0348322Y0133095D01*
X0349318Y0134091D01*
X0351818Y0136591D01*
X0352358Y0137894D01*
X0352358Y0164303D01*
X0351818Y0165606D01*
X0350822Y0166602D01*
X0345822Y0171602D01*
X0344519Y0172142D01*
X0342015Y0172142D01*
X0340790Y0173367D01*
X0336839Y0173367D01*
X0334046Y0170574D01*
X0334046Y0166623D01*
X0336839Y0163830D01*
X0340790Y0163830D01*
X0342015Y0165055D01*
X0342347Y0165055D01*
X0345271Y0162131D01*
X0345271Y0140066D01*
X0344846Y0139642D01*
X0335009Y0139642D01*
X0334214Y0140437D01*
X0332332Y0141216D01*
X0330296Y0141216D01*
X0328415Y0140437D01*
X0326975Y0138998D01*
X0326196Y0137116D01*
X0326196Y0135080D01*
X0326975Y0133199D01*
X0328415Y0131759D01*
X0327003Y0133170D02*
X0301570Y0133170D01*
X0301570Y0134744D02*
X0326336Y0134744D01*
X0326196Y0136316D02*
X0301570Y0136316D01*
X0301570Y0137890D02*
X0326517Y0137890D01*
X0327441Y0139464D02*
X0301570Y0139464D01*
X0301570Y0141037D02*
X0329863Y0141037D01*
X0332766Y0141037D02*
X0345271Y0141037D01*
X0345271Y0142610D02*
X0301570Y0142610D01*
X0301570Y0144184D02*
X0345271Y0144184D01*
X0345271Y0145757D02*
X0301570Y0145757D01*
X0301570Y0147330D02*
X0345271Y0147330D01*
X0345271Y0148903D02*
X0301570Y0148903D01*
X0301570Y0150477D02*
X0345271Y0150477D01*
X0345271Y0152050D02*
X0301570Y0152050D01*
X0301570Y0153623D02*
X0345271Y0153623D01*
X0345271Y0155197D02*
X0341899Y0155197D01*
X0340714Y0154011D02*
X0343402Y0156698D01*
X0343402Y0158486D01*
X0338926Y0158486D01*
X0338926Y0158711D01*
X0343402Y0158711D01*
X0343402Y0160499D01*
X0340714Y0163186D01*
X0338926Y0163186D01*
X0338926Y0158711D01*
X0338702Y0158711D01*
X0338702Y0163186D01*
X0336913Y0163186D01*
X0334227Y0160499D01*
X0334227Y0158711D01*
X0338702Y0158711D01*
X0338702Y0158486D01*
X0338926Y0158486D01*
X0338926Y0154011D01*
X0340714Y0154011D01*
X0338702Y0154011D02*
X0338702Y0158486D01*
X0334227Y0158486D01*
X0334227Y0156698D01*
X0336913Y0154011D01*
X0338702Y0154011D01*
X0338702Y0155197D02*
X0338926Y0155197D01*
X0338926Y0156770D02*
X0338702Y0156770D01*
X0338702Y0158342D02*
X0338926Y0158342D01*
X0338926Y0159917D02*
X0338702Y0159917D01*
X0338702Y0161490D02*
X0338926Y0161490D01*
X0338926Y0163063D02*
X0338702Y0163063D01*
X0336792Y0163063D02*
X0331092Y0163063D01*
X0330790Y0163367D02*
X0326839Y0163367D01*
X0324046Y0160574D01*
X0324046Y0156623D01*
X0326839Y0153830D01*
X0330790Y0153830D01*
X0333583Y0156623D01*
X0333583Y0160574D01*
X0330790Y0163367D01*
X0330790Y0163830D02*
X0333583Y0166623D01*
X0333583Y0170574D01*
X0330790Y0173367D01*
X0326839Y0173367D01*
X0324046Y0170574D01*
X0324046Y0166623D01*
X0326839Y0163830D01*
X0330790Y0163830D01*
X0331596Y0164637D02*
X0336033Y0164637D01*
X0334459Y0166210D02*
X0333170Y0166210D01*
X0333583Y0167783D02*
X0334046Y0167783D01*
X0334046Y0169357D02*
X0333583Y0169357D01*
X0333227Y0170929D02*
X0334402Y0170929D01*
X0335975Y0172503D02*
X0331653Y0172503D01*
X0325975Y0172503D02*
X0321653Y0172503D01*
X0320790Y0173367D02*
X0316839Y0173367D01*
X0314046Y0170574D01*
X0314046Y0166623D01*
X0316839Y0163830D01*
X0320790Y0163830D01*
X0323583Y0166623D01*
X0323583Y0170574D01*
X0320790Y0173367D01*
X0323227Y0170929D02*
X0324402Y0170929D01*
X0324046Y0169357D02*
X0323583Y0169357D01*
X0323583Y0167783D02*
X0324046Y0167783D01*
X0324459Y0166210D02*
X0323170Y0166210D01*
X0321596Y0164637D02*
X0326033Y0164637D01*
X0326536Y0163063D02*
X0321093Y0163063D01*
X0320790Y0163367D02*
X0316839Y0163367D01*
X0314046Y0160574D01*
X0314046Y0156623D01*
X0316839Y0153830D01*
X0320790Y0153830D01*
X0323583Y0156623D01*
X0323583Y0160574D01*
X0320790Y0163367D01*
X0322667Y0161490D02*
X0324962Y0161490D01*
X0324046Y0159917D02*
X0323583Y0159917D01*
X0323583Y0158342D02*
X0324046Y0158342D01*
X0324046Y0156770D02*
X0323583Y0156770D01*
X0322156Y0155197D02*
X0325472Y0155197D01*
X0332156Y0155197D02*
X0335729Y0155197D01*
X0334227Y0156770D02*
X0333583Y0156770D01*
X0333583Y0158342D02*
X0334227Y0158342D01*
X0334227Y0159917D02*
X0333583Y0159917D01*
X0332667Y0161490D02*
X0335218Y0161490D01*
X0340837Y0163063D02*
X0344339Y0163063D01*
X0345271Y0161490D02*
X0342410Y0161490D01*
X0343402Y0159917D02*
X0345271Y0159917D01*
X0345271Y0158342D02*
X0343402Y0158342D01*
X0343402Y0156770D02*
X0345271Y0156770D01*
X0342765Y0164637D02*
X0341596Y0164637D01*
X0341653Y0172503D02*
X0354149Y0172503D01*
X0354149Y0170929D02*
X0346494Y0170929D01*
X0348067Y0169357D02*
X0354149Y0169357D01*
X0354149Y0167783D02*
X0349641Y0167783D01*
X0351214Y0166210D02*
X0354149Y0166210D01*
X0354149Y0164637D02*
X0352220Y0164637D01*
X0352358Y0163063D02*
X0354149Y0163063D01*
X0354149Y0161490D02*
X0352358Y0161490D01*
X0352358Y0159917D02*
X0354149Y0159917D01*
X0354149Y0158342D02*
X0352358Y0158342D01*
X0352358Y0156770D02*
X0354149Y0156770D01*
X0354149Y0155197D02*
X0352358Y0155197D01*
X0352358Y0153623D02*
X0354149Y0153623D01*
X0354149Y0152050D02*
X0352358Y0152050D01*
X0352358Y0150477D02*
X0354149Y0150477D01*
X0354149Y0148903D02*
X0352358Y0148903D01*
X0352358Y0147330D02*
X0354149Y0147330D01*
X0354149Y0145757D02*
X0352358Y0145757D01*
X0352358Y0144184D02*
X0354149Y0144184D01*
X0354149Y0142610D02*
X0352358Y0142610D01*
X0352358Y0141037D02*
X0354149Y0141037D01*
X0354149Y0139464D02*
X0352358Y0139464D01*
X0352356Y0137890D02*
X0354149Y0137890D01*
X0354149Y0136316D02*
X0351544Y0136316D01*
X0349971Y0134744D02*
X0354149Y0134744D01*
X0354149Y0133170D02*
X0348397Y0133170D01*
X0354149Y0131597D02*
X0333821Y0131597D01*
X0319606Y0101704D02*
X0354149Y0101704D01*
X0354149Y0100130D02*
X0321180Y0100130D01*
X0322753Y0098557D02*
X0327539Y0098557D01*
X0326546Y0096984D02*
X0324326Y0096984D01*
X0323814Y0093598D02*
X0330814Y0093598D01*
X0336314Y0093098D02*
X0336814Y0093598D01*
X0336314Y0093098D02*
X0336314Y0078597D01*
X0338327Y0074958D02*
X0354149Y0074958D01*
X0354149Y0076531D02*
X0339932Y0076531D01*
X0340448Y0078104D02*
X0354149Y0078104D01*
X0354149Y0079678D02*
X0340342Y0079678D01*
X0339508Y0081251D02*
X0354149Y0081251D01*
X0354149Y0082824D02*
X0339070Y0082824D01*
X0339070Y0084398D02*
X0354149Y0084398D01*
X0354149Y0085970D02*
X0339070Y0085970D01*
X0339070Y0087544D02*
X0354149Y0087544D01*
X0354149Y0089117D02*
X0340567Y0089117D01*
X0341083Y0090691D02*
X0354149Y0090691D01*
X0354149Y0092264D02*
X0341083Y0092264D01*
X0341083Y0093837D02*
X0354149Y0093837D01*
X0354149Y0095411D02*
X0341083Y0095411D01*
X0341083Y0096984D02*
X0354149Y0096984D01*
X0354149Y0098557D02*
X0340089Y0098557D01*
X0354149Y0103277D02*
X0318033Y0103277D01*
X0316460Y0104851D02*
X0354149Y0104851D01*
X0316536Y0163063D02*
X0311093Y0163063D01*
X0310790Y0163367D02*
X0306839Y0163367D01*
X0304046Y0160574D01*
X0304046Y0156623D01*
X0306839Y0153830D01*
X0310790Y0153830D01*
X0313583Y0156623D01*
X0313583Y0160574D01*
X0310790Y0163367D01*
X0310790Y0163830D02*
X0313583Y0166623D01*
X0313583Y0170574D01*
X0310790Y0173367D01*
X0306839Y0173367D01*
X0304046Y0170574D01*
X0304046Y0166623D01*
X0306839Y0163830D01*
X0310790Y0163830D01*
X0311596Y0164637D02*
X0316033Y0164637D01*
X0314459Y0166210D02*
X0313169Y0166210D01*
X0313583Y0167783D02*
X0314046Y0167783D01*
X0314046Y0169357D02*
X0313583Y0169357D01*
X0313227Y0170929D02*
X0314402Y0170929D01*
X0315975Y0172503D02*
X0311652Y0172503D01*
X0306535Y0163063D02*
X0301093Y0163063D01*
X0301596Y0164637D02*
X0306033Y0164637D01*
X0304459Y0166210D02*
X0303170Y0166210D01*
X0303583Y0167783D02*
X0304046Y0167783D01*
X0304046Y0169357D02*
X0303583Y0169357D01*
X0303227Y0170929D02*
X0304402Y0170929D01*
X0305975Y0172503D02*
X0301653Y0172503D01*
X0298814Y0168598D02*
X0296314Y0168598D01*
X0294402Y0170929D02*
X0283480Y0170929D01*
X0283480Y0169357D02*
X0293175Y0169357D01*
X0291602Y0167783D02*
X0283480Y0167783D01*
X0283480Y0166210D02*
X0290027Y0166210D01*
X0288761Y0164637D02*
X0283480Y0164637D01*
X0283480Y0163063D02*
X0288558Y0163063D01*
X0288558Y0161490D02*
X0283480Y0161490D01*
X0283480Y0159917D02*
X0288558Y0159917D01*
X0288558Y0158342D02*
X0283480Y0158342D01*
X0283480Y0156770D02*
X0288558Y0156770D01*
X0288558Y0155197D02*
X0283480Y0155197D01*
X0283480Y0153623D02*
X0288558Y0153623D01*
X0288558Y0152050D02*
X0283480Y0152050D01*
X0283480Y0150477D02*
X0288558Y0150477D01*
X0288558Y0148903D02*
X0283480Y0148903D01*
X0283480Y0147330D02*
X0288558Y0147330D01*
X0288558Y0145757D02*
X0283480Y0145757D01*
X0283480Y0144184D02*
X0288558Y0144184D01*
X0288558Y0142610D02*
X0283480Y0142610D01*
X0283480Y0141037D02*
X0288558Y0141037D01*
X0288558Y0139464D02*
X0283480Y0139464D01*
X0283480Y0137890D02*
X0288558Y0137890D01*
X0288558Y0136316D02*
X0283480Y0136316D01*
X0283480Y0134744D02*
X0288558Y0134744D01*
X0288558Y0133170D02*
X0283480Y0133170D01*
X0283480Y0131597D02*
X0288558Y0131597D01*
X0288558Y0130024D02*
X0283480Y0130024D01*
X0283480Y0128450D02*
X0288558Y0128450D01*
X0288558Y0126877D02*
X0283480Y0126877D01*
X0283480Y0125304D02*
X0288558Y0125304D01*
X0288558Y0123730D02*
X0283480Y0123730D01*
X0283480Y0122157D02*
X0288558Y0122157D01*
X0288558Y0120584D02*
X0283480Y0120584D01*
X0283480Y0119010D02*
X0288558Y0119010D01*
X0288558Y0117436D02*
X0283480Y0117436D01*
X0283480Y0115863D02*
X0288558Y0115863D01*
X0288558Y0114291D02*
X0283480Y0114291D01*
X0283480Y0112717D02*
X0288558Y0112717D01*
X0288558Y0111144D02*
X0283480Y0111144D01*
X0283480Y0109571D02*
X0288558Y0109571D01*
X0288558Y0107997D02*
X0283480Y0107997D01*
X0283480Y0106424D02*
X0288558Y0106424D01*
X0288558Y0104851D02*
X0283480Y0104851D01*
X0283480Y0103277D02*
X0288558Y0103277D01*
X0288558Y0101704D02*
X0283480Y0101704D01*
X0283480Y0100130D02*
X0288558Y0100130D01*
X0288558Y0098557D02*
X0283480Y0098557D01*
X0283480Y0096984D02*
X0288558Y0096984D01*
X0288616Y0095411D02*
X0283480Y0095411D01*
X0283480Y0093837D02*
X0289677Y0093837D01*
X0291251Y0092264D02*
X0283480Y0092264D01*
X0283480Y0090691D02*
X0299046Y0090691D01*
X0299561Y0089117D02*
X0283480Y0089117D01*
X0294326Y0096984D02*
X0299046Y0096984D01*
X0302156Y0155197D02*
X0305472Y0155197D01*
X0304046Y0156770D02*
X0303583Y0156770D01*
X0303583Y0158342D02*
X0304046Y0158342D01*
X0304046Y0159917D02*
X0303583Y0159917D01*
X0302667Y0161490D02*
X0304962Y0161490D01*
X0312156Y0155197D02*
X0315472Y0155197D01*
X0314046Y0156770D02*
X0313583Y0156770D01*
X0313583Y0158342D02*
X0314046Y0158342D01*
X0314046Y0159917D02*
X0313583Y0159917D01*
X0312667Y0161490D02*
X0314962Y0161490D01*
D42*
X0331314Y0136098D02*
X0346314Y0136098D01*
X0348814Y0138598D01*
X0348814Y0163598D01*
X0343814Y0168598D01*
X0338814Y0168598D01*
D43*
X0336314Y0078597D03*
X0328814Y0073598D03*
G04 next file*
G75*
D44*
X0019685Y0188976D02*
X0043472Y0270762D03*
X0049472Y0270762D03*
X0070972Y0270762D03*
X0076972Y0270762D03*
D45*
X0078972Y0335763D03*
X0078972Y0345763D03*
X0068972Y0345763D03*
X0068972Y0335763D03*
X0058972Y0335763D03*
X0058972Y0345763D03*
X0048972Y0345763D03*
X0048972Y0335763D03*
X0038972Y0335763D03*
X0038972Y0345763D03*
D46*
X0071472Y0313263D03*
X0071472Y0293263D03*
D47*
X0023638Y0353598D02*
X0023638Y0192929D01*
X0094307Y0192929D01*
X0094307Y0353598D01*
X0023638Y0353598D01*
X0023638Y0352815D02*
X0094307Y0352815D01*
X0094307Y0351240D02*
X0023638Y0351240D01*
X0023638Y0349668D02*
X0036133Y0349668D01*
X0036997Y0350532D02*
X0034204Y0347739D01*
X0034204Y0347392D01*
X0029911Y0343099D01*
X0029136Y0342324D01*
X0028716Y0341312D01*
X0028716Y0272715D01*
X0029136Y0271702D01*
X0031635Y0269202D01*
X0032411Y0268427D01*
X0033424Y0268007D01*
X0039204Y0268007D01*
X0039204Y0266798D01*
X0040357Y0265645D01*
X0046716Y0265645D01*
X0046716Y0264715D01*
X0047136Y0263701D01*
X0061636Y0249202D01*
X0062411Y0248427D01*
X0063424Y0248007D01*
X0065882Y0248007D01*
X0066631Y0247258D01*
X0068150Y0246630D01*
X0069795Y0246630D01*
X0071314Y0247258D01*
X0072476Y0248422D01*
X0073106Y0249941D01*
X0073106Y0251586D01*
X0072476Y0253105D01*
X0071314Y0254267D01*
X0069795Y0254897D01*
X0068150Y0254897D01*
X0066631Y0254267D01*
X0065882Y0253519D01*
X0065113Y0253519D01*
X0052788Y0265845D01*
X0053741Y0266798D01*
X0053741Y0274729D01*
X0052588Y0275882D01*
X0040357Y0275882D01*
X0039204Y0274729D01*
X0039204Y0273519D01*
X0035114Y0273519D01*
X0034228Y0274405D01*
X0034228Y0333764D01*
X0036216Y0331776D01*
X0036216Y0295215D01*
X0036636Y0294202D01*
X0037411Y0293427D01*
X0062411Y0268427D01*
X0063424Y0268007D01*
X0066704Y0268007D01*
X0066704Y0266798D01*
X0067857Y0265645D01*
X0073716Y0265645D01*
X0073716Y0258854D01*
X0072968Y0258104D01*
X0072339Y0256586D01*
X0072339Y0254940D01*
X0072968Y0253422D01*
X0074130Y0252259D01*
X0075649Y0251630D01*
X0077295Y0251630D01*
X0078813Y0252259D01*
X0079977Y0253422D01*
X0080606Y0254940D01*
X0080606Y0256586D01*
X0079977Y0258104D01*
X0079228Y0258854D01*
X0079228Y0265645D01*
X0080087Y0265645D01*
X0081241Y0266798D01*
X0081241Y0274729D01*
X0080087Y0275882D01*
X0067857Y0275882D01*
X0066704Y0274729D01*
X0066704Y0273519D01*
X0065113Y0273519D01*
X0041728Y0296905D01*
X0041728Y0331776D01*
X0043741Y0333788D01*
X0043741Y0337739D01*
X0040948Y0340532D01*
X0036997Y0340532D01*
X0034228Y0337763D01*
X0034228Y0339622D01*
X0036299Y0341693D01*
X0036997Y0340995D01*
X0040948Y0340995D01*
X0043741Y0343788D01*
X0043741Y0347739D01*
X0040948Y0350532D01*
X0036997Y0350532D01*
X0036472Y0345763D02*
X0031472Y0340763D01*
X0031472Y0273263D01*
X0033972Y0270762D01*
X0043472Y0270762D01*
X0040198Y0275722D02*
X0034228Y0275722D01*
X0034228Y0277296D02*
X0053542Y0277296D01*
X0052747Y0275722D02*
X0055116Y0275722D01*
X0053741Y0274149D02*
X0056689Y0274149D01*
X0058263Y0272576D02*
X0053741Y0272576D01*
X0053741Y0271002D02*
X0059836Y0271002D01*
X0061409Y0269429D02*
X0053741Y0269429D01*
X0053741Y0267856D02*
X0066704Y0267856D01*
X0067219Y0266282D02*
X0053225Y0266282D01*
X0053924Y0264709D02*
X0073716Y0264709D01*
X0073716Y0263136D02*
X0055496Y0263136D01*
X0057071Y0261563D02*
X0073716Y0261563D01*
X0073716Y0259989D02*
X0058643Y0259989D01*
X0060217Y0258415D02*
X0073279Y0258415D01*
X0072445Y0256843D02*
X0061790Y0256843D01*
X0063364Y0255269D02*
X0072339Y0255269D01*
X0071886Y0253696D02*
X0072854Y0253696D01*
X0072884Y0252123D02*
X0074460Y0252123D01*
X0073106Y0250549D02*
X0094307Y0250549D01*
X0094307Y0248976D02*
X0072706Y0248976D01*
X0071458Y0247403D02*
X0094307Y0247403D01*
X0094307Y0245829D02*
X0023638Y0245829D01*
X0023638Y0244255D02*
X0094307Y0244255D01*
X0094307Y0242682D02*
X0023638Y0242682D01*
X0023638Y0241109D02*
X0094307Y0241109D01*
X0094307Y0239536D02*
X0023638Y0239536D01*
X0023638Y0237963D02*
X0094307Y0237963D01*
X0094307Y0236390D02*
X0023638Y0236390D01*
X0023638Y0234816D02*
X0094307Y0234816D01*
X0094307Y0233243D02*
X0023638Y0233243D01*
X0023638Y0231670D02*
X0094307Y0231670D01*
X0094307Y0230096D02*
X0023638Y0230096D01*
X0023638Y0228523D02*
X0094307Y0228523D01*
X0094307Y0226949D02*
X0023638Y0226949D01*
X0023638Y0225376D02*
X0094307Y0225376D01*
X0094307Y0223803D02*
X0023638Y0223803D01*
X0023638Y0222230D02*
X0094307Y0222230D01*
X0094307Y0220656D02*
X0023638Y0220656D01*
X0023638Y0219083D02*
X0094307Y0219083D01*
X0094307Y0217510D02*
X0023638Y0217510D01*
X0023638Y0215936D02*
X0094307Y0215936D01*
X0094307Y0214363D02*
X0023638Y0214363D01*
X0023638Y0212790D02*
X0094307Y0212790D01*
X0094307Y0211215D02*
X0023638Y0211215D01*
X0023638Y0209642D02*
X0094307Y0209642D01*
X0094307Y0208070D02*
X0023638Y0208070D01*
X0023638Y0206497D02*
X0094307Y0206497D01*
X0094307Y0204923D02*
X0023638Y0204923D01*
X0023638Y0203350D02*
X0094307Y0203350D01*
X0094307Y0201777D02*
X0023638Y0201777D01*
X0023638Y0200203D02*
X0094307Y0200203D01*
X0094307Y0198630D02*
X0023638Y0198630D01*
X0023638Y0197057D02*
X0094307Y0197057D01*
X0094307Y0195483D02*
X0023638Y0195483D01*
X0023638Y0193910D02*
X0094307Y0193910D01*
X0068972Y0250762D02*
X0063971Y0250762D01*
X0049472Y0265263D01*
X0049472Y0270762D01*
X0046718Y0264709D02*
X0023638Y0264709D01*
X0023638Y0263136D02*
X0047702Y0263136D01*
X0049276Y0261563D02*
X0023638Y0261563D01*
X0023638Y0259989D02*
X0050849Y0259989D01*
X0052422Y0258415D02*
X0023638Y0258415D01*
X0023638Y0256843D02*
X0053996Y0256843D01*
X0055569Y0255269D02*
X0023638Y0255269D01*
X0023638Y0253696D02*
X0057142Y0253696D01*
X0058716Y0252123D02*
X0023638Y0252123D01*
X0023638Y0250549D02*
X0060289Y0250549D01*
X0061861Y0248976D02*
X0023638Y0248976D01*
X0023638Y0247403D02*
X0066487Y0247403D01*
X0066059Y0253696D02*
X0064936Y0253696D01*
X0063971Y0270762D02*
X0038972Y0295763D01*
X0038972Y0335763D01*
X0036694Y0340228D02*
X0034835Y0340228D01*
X0035120Y0338655D02*
X0034228Y0338655D01*
X0034228Y0332362D02*
X0035630Y0332362D01*
X0036216Y0330788D02*
X0034228Y0330788D01*
X0034228Y0329215D02*
X0036216Y0329215D01*
X0036216Y0327642D02*
X0034228Y0327642D01*
X0034228Y0326068D02*
X0036216Y0326068D01*
X0036216Y0324495D02*
X0034228Y0324495D01*
X0034228Y0322922D02*
X0036216Y0322922D01*
X0036216Y0321349D02*
X0034228Y0321349D01*
X0034228Y0319775D02*
X0036216Y0319775D01*
X0036216Y0318202D02*
X0034228Y0318202D01*
X0034228Y0316629D02*
X0036216Y0316629D01*
X0036216Y0315055D02*
X0034228Y0315055D01*
X0034228Y0313482D02*
X0036216Y0313482D01*
X0036216Y0311909D02*
X0034228Y0311909D01*
X0034228Y0310335D02*
X0036216Y0310335D01*
X0036216Y0308762D02*
X0034228Y0308762D01*
X0034228Y0307189D02*
X0036216Y0307189D01*
X0036216Y0305615D02*
X0034228Y0305615D01*
X0034228Y0304042D02*
X0036216Y0304042D01*
X0036216Y0302469D02*
X0034228Y0302469D01*
X0034228Y0300895D02*
X0036216Y0300895D01*
X0036216Y0299322D02*
X0034228Y0299322D01*
X0034228Y0297749D02*
X0036216Y0297749D01*
X0036216Y0296175D02*
X0034228Y0296175D01*
X0034228Y0294602D02*
X0036470Y0294602D01*
X0037809Y0293029D02*
X0034228Y0293029D01*
X0034228Y0291456D02*
X0039383Y0291456D01*
X0040956Y0289882D02*
X0034228Y0289882D01*
X0034228Y0288309D02*
X0042529Y0288309D01*
X0044103Y0286736D02*
X0034228Y0286736D01*
X0034228Y0285162D02*
X0045676Y0285162D01*
X0047249Y0283589D02*
X0034228Y0283589D01*
X0034228Y0282016D02*
X0048823Y0282016D01*
X0050395Y0280442D02*
X0034228Y0280442D01*
X0034228Y0278869D02*
X0051969Y0278869D01*
X0055044Y0283589D02*
X0094307Y0283589D01*
X0094307Y0285162D02*
X0053471Y0285162D01*
X0051898Y0286736D02*
X0094307Y0286736D01*
X0094307Y0288309D02*
X0050324Y0288309D01*
X0048750Y0289882D02*
X0067872Y0289882D01*
X0067707Y0290047D02*
X0068255Y0289498D01*
X0068885Y0289041D01*
X0069577Y0288688D01*
X0070316Y0288448D01*
X0071084Y0288326D01*
X0071374Y0288326D01*
X0071374Y0293165D01*
X0066535Y0293165D01*
X0066535Y0292875D01*
X0066657Y0292107D01*
X0066897Y0291368D01*
X0067250Y0290676D01*
X0067707Y0290047D01*
X0066869Y0291456D02*
X0047178Y0291456D01*
X0045604Y0293029D02*
X0066535Y0293029D01*
X0066535Y0293362D02*
X0071374Y0293362D01*
X0071374Y0298200D01*
X0071084Y0298200D01*
X0070316Y0298079D01*
X0069577Y0297839D01*
X0068885Y0297486D01*
X0068255Y0297029D01*
X0067707Y0296479D01*
X0067250Y0295851D01*
X0066897Y0295159D01*
X0066657Y0294419D01*
X0066535Y0293652D01*
X0066535Y0293362D01*
X0066715Y0294602D02*
X0044031Y0294602D01*
X0042458Y0296175D02*
X0067486Y0296175D01*
X0069401Y0297749D02*
X0041728Y0297749D01*
X0041728Y0299322D02*
X0094307Y0299322D01*
X0094307Y0297749D02*
X0073544Y0297749D01*
X0073368Y0297839D02*
X0072628Y0298079D01*
X0071861Y0298200D01*
X0071571Y0298200D01*
X0071571Y0293362D01*
X0071374Y0293362D01*
X0071374Y0293165D01*
X0071571Y0293165D01*
X0071571Y0293362D01*
X0076409Y0293362D01*
X0076409Y0293652D01*
X0076288Y0294419D01*
X0076048Y0295159D01*
X0075695Y0295851D01*
X0075238Y0296479D01*
X0074689Y0297029D01*
X0074060Y0297486D01*
X0073368Y0297839D01*
X0071571Y0297749D02*
X0071374Y0297749D01*
X0071374Y0296175D02*
X0071571Y0296175D01*
X0071571Y0294602D02*
X0071374Y0294602D01*
X0071571Y0293165D02*
X0076409Y0293165D01*
X0076409Y0292875D01*
X0076288Y0292107D01*
X0076048Y0291368D01*
X0075695Y0290676D01*
X0075238Y0290047D01*
X0074689Y0289498D01*
X0074060Y0289041D01*
X0073368Y0288688D01*
X0072628Y0288448D01*
X0071861Y0288326D01*
X0071571Y0288326D01*
X0071571Y0293165D01*
X0071571Y0293029D02*
X0071374Y0293029D01*
X0071374Y0291456D02*
X0071571Y0291456D01*
X0071571Y0289882D02*
X0071374Y0289882D01*
X0075073Y0289882D02*
X0094307Y0289882D01*
X0094307Y0291456D02*
X0076076Y0291456D01*
X0076409Y0293029D02*
X0094307Y0293029D01*
X0094307Y0294602D02*
X0076228Y0294602D01*
X0075459Y0296175D02*
X0094307Y0296175D01*
X0094307Y0300895D02*
X0041728Y0300895D01*
X0041728Y0302469D02*
X0094307Y0302469D01*
X0094307Y0304042D02*
X0041728Y0304042D01*
X0041728Y0305615D02*
X0094307Y0305615D01*
X0094307Y0307189D02*
X0041728Y0307189D01*
X0041728Y0308762D02*
X0068965Y0308762D01*
X0068573Y0308924D02*
X0070454Y0308145D01*
X0072490Y0308145D01*
X0074372Y0308924D01*
X0075167Y0309720D01*
X0087177Y0309720D01*
X0088480Y0310260D01*
X0089476Y0311256D01*
X0091976Y0313756D01*
X0092516Y0315058D01*
X0092516Y0341468D01*
X0091976Y0342771D01*
X0090980Y0343766D01*
X0085980Y0348767D01*
X0084677Y0349307D01*
X0082173Y0349307D01*
X0080948Y0350532D01*
X0076997Y0350532D01*
X0074203Y0347739D01*
X0074203Y0343788D01*
X0076997Y0340995D01*
X0080948Y0340995D01*
X0082173Y0342220D01*
X0082505Y0342220D01*
X0085429Y0339295D01*
X0085429Y0317231D01*
X0085005Y0316807D01*
X0075167Y0316807D01*
X0074372Y0317602D01*
X0072490Y0318381D01*
X0070454Y0318381D01*
X0068573Y0317602D01*
X0067133Y0316163D01*
X0066353Y0314281D01*
X0066353Y0312245D01*
X0067133Y0310364D01*
X0068573Y0308924D01*
X0067162Y0310335D02*
X0041728Y0310335D01*
X0041728Y0311909D02*
X0066494Y0311909D01*
X0066353Y0313482D02*
X0041728Y0313482D01*
X0041728Y0315055D02*
X0066675Y0315055D01*
X0067599Y0316629D02*
X0041728Y0316629D01*
X0041728Y0318202D02*
X0070021Y0318202D01*
X0072924Y0318202D02*
X0085429Y0318202D01*
X0085429Y0319775D02*
X0041728Y0319775D01*
X0041728Y0321349D02*
X0085429Y0321349D01*
X0085429Y0322922D02*
X0041728Y0322922D01*
X0041728Y0324495D02*
X0085429Y0324495D01*
X0085429Y0326068D02*
X0041728Y0326068D01*
X0041728Y0327642D02*
X0085429Y0327642D01*
X0085429Y0329215D02*
X0041728Y0329215D01*
X0041728Y0330788D02*
X0085429Y0330788D01*
X0085429Y0332362D02*
X0082058Y0332362D01*
X0080873Y0331176D02*
X0083560Y0333863D01*
X0083560Y0335651D01*
X0079085Y0335651D01*
X0079085Y0335876D01*
X0083560Y0335876D01*
X0083560Y0337664D01*
X0080873Y0340351D01*
X0079085Y0340351D01*
X0079085Y0335876D01*
X0078860Y0335876D01*
X0078860Y0340351D01*
X0077072Y0340351D01*
X0074385Y0337664D01*
X0074385Y0335876D01*
X0078860Y0335876D01*
X0078860Y0335651D01*
X0079085Y0335651D01*
X0079085Y0331176D01*
X0080873Y0331176D01*
X0078860Y0331176D02*
X0078860Y0335651D01*
X0074385Y0335651D01*
X0074385Y0333863D01*
X0077072Y0331176D01*
X0078860Y0331176D01*
X0078860Y0332362D02*
X0079085Y0332362D01*
X0079085Y0333935D02*
X0078860Y0333935D01*
X0078860Y0335508D02*
X0079085Y0335508D01*
X0079085Y0337082D02*
X0078860Y0337082D01*
X0078860Y0338655D02*
X0079085Y0338655D01*
X0079085Y0340228D02*
X0078860Y0340228D01*
X0076950Y0340228D02*
X0071251Y0340228D01*
X0070948Y0340532D02*
X0066997Y0340532D01*
X0064203Y0337739D01*
X0064203Y0333788D01*
X0066997Y0330995D01*
X0070948Y0330995D01*
X0073741Y0333788D01*
X0073741Y0337739D01*
X0070948Y0340532D01*
X0070948Y0340995D02*
X0073741Y0343788D01*
X0073741Y0347739D01*
X0070948Y0350532D01*
X0066997Y0350532D01*
X0064203Y0347739D01*
X0064203Y0343788D01*
X0066997Y0340995D01*
X0070948Y0340995D01*
X0071754Y0341802D02*
X0076191Y0341802D01*
X0074616Y0343375D02*
X0073328Y0343375D01*
X0073741Y0344948D02*
X0074203Y0344948D01*
X0074203Y0346522D02*
X0073741Y0346522D01*
X0073385Y0348095D02*
X0074560Y0348095D01*
X0076133Y0349668D02*
X0071811Y0349668D01*
X0066133Y0349668D02*
X0061811Y0349668D01*
X0060948Y0350532D02*
X0056997Y0350532D01*
X0054204Y0347739D01*
X0054204Y0343788D01*
X0056997Y0340995D01*
X0060948Y0340995D01*
X0063741Y0343788D01*
X0063741Y0347739D01*
X0060948Y0350532D01*
X0063385Y0348095D02*
X0064559Y0348095D01*
X0064203Y0346522D02*
X0063741Y0346522D01*
X0063741Y0344948D02*
X0064203Y0344948D01*
X0064616Y0343375D02*
X0063327Y0343375D01*
X0061754Y0341802D02*
X0066191Y0341802D01*
X0066694Y0340228D02*
X0061251Y0340228D01*
X0060948Y0340532D02*
X0056997Y0340532D01*
X0054204Y0337739D01*
X0054204Y0333788D01*
X0056997Y0330995D01*
X0060948Y0330995D01*
X0063741Y0333788D01*
X0063741Y0337739D01*
X0060948Y0340532D01*
X0062825Y0338655D02*
X0065120Y0338655D01*
X0064203Y0337082D02*
X0063741Y0337082D01*
X0063741Y0335508D02*
X0064203Y0335508D01*
X0064203Y0333935D02*
X0063741Y0333935D01*
X0062314Y0332362D02*
X0065629Y0332362D01*
X0072314Y0332362D02*
X0075887Y0332362D01*
X0074385Y0333935D02*
X0073741Y0333935D01*
X0073741Y0335508D02*
X0074385Y0335508D01*
X0074385Y0337082D02*
X0073741Y0337082D01*
X0072825Y0338655D02*
X0075376Y0338655D01*
X0080995Y0340228D02*
X0084497Y0340228D01*
X0085429Y0338655D02*
X0082568Y0338655D01*
X0083560Y0337082D02*
X0085429Y0337082D01*
X0085429Y0335508D02*
X0083560Y0335508D01*
X0083560Y0333935D02*
X0085429Y0333935D01*
X0082923Y0341802D02*
X0081754Y0341802D01*
X0081811Y0349668D02*
X0094307Y0349668D01*
X0094307Y0348095D02*
X0086652Y0348095D01*
X0088224Y0346522D02*
X0094307Y0346522D01*
X0094307Y0344948D02*
X0089799Y0344948D01*
X0091372Y0343375D02*
X0094307Y0343375D01*
X0094307Y0341802D02*
X0092378Y0341802D01*
X0092516Y0340228D02*
X0094307Y0340228D01*
X0094307Y0338655D02*
X0092516Y0338655D01*
X0092516Y0337082D02*
X0094307Y0337082D01*
X0094307Y0335508D02*
X0092516Y0335508D01*
X0092516Y0333935D02*
X0094307Y0333935D01*
X0094307Y0332362D02*
X0092516Y0332362D01*
X0092516Y0330788D02*
X0094307Y0330788D01*
X0094307Y0329215D02*
X0092516Y0329215D01*
X0092516Y0327642D02*
X0094307Y0327642D01*
X0094307Y0326068D02*
X0092516Y0326068D01*
X0092516Y0324495D02*
X0094307Y0324495D01*
X0094307Y0322922D02*
X0092516Y0322922D01*
X0092516Y0321349D02*
X0094307Y0321349D01*
X0094307Y0319775D02*
X0092516Y0319775D01*
X0092516Y0318202D02*
X0094307Y0318202D01*
X0094307Y0316629D02*
X0092516Y0316629D01*
X0092514Y0315055D02*
X0094307Y0315055D01*
X0094307Y0313482D02*
X0091702Y0313482D01*
X0090128Y0311909D02*
X0094307Y0311909D01*
X0094307Y0310335D02*
X0088555Y0310335D01*
X0094307Y0308762D02*
X0073979Y0308762D01*
X0059763Y0278869D02*
X0094307Y0278869D01*
X0094307Y0277296D02*
X0061338Y0277296D01*
X0062910Y0275722D02*
X0067697Y0275722D01*
X0066704Y0274149D02*
X0064484Y0274149D01*
X0063971Y0270762D02*
X0070972Y0270762D01*
X0076472Y0270263D02*
X0076972Y0270762D01*
X0076472Y0270263D02*
X0076472Y0255763D01*
X0078485Y0252123D02*
X0094307Y0252123D01*
X0094307Y0253696D02*
X0080090Y0253696D01*
X0080606Y0255269D02*
X0094307Y0255269D01*
X0094307Y0256843D02*
X0080500Y0256843D01*
X0079666Y0258415D02*
X0094307Y0258415D01*
X0094307Y0259989D02*
X0079228Y0259989D01*
X0079228Y0261563D02*
X0094307Y0261563D01*
X0094307Y0263136D02*
X0079228Y0263136D01*
X0079228Y0264709D02*
X0094307Y0264709D01*
X0094307Y0266282D02*
X0080725Y0266282D01*
X0081241Y0267856D02*
X0094307Y0267856D01*
X0094307Y0269429D02*
X0081241Y0269429D01*
X0081241Y0271002D02*
X0094307Y0271002D01*
X0094307Y0272576D02*
X0081241Y0272576D01*
X0081241Y0274149D02*
X0094307Y0274149D01*
X0094307Y0275722D02*
X0080247Y0275722D01*
X0094307Y0280442D02*
X0058191Y0280442D01*
X0056618Y0282016D02*
X0094307Y0282016D01*
X0056694Y0340228D02*
X0051251Y0340228D01*
X0050948Y0340532D02*
X0046997Y0340532D01*
X0044204Y0337739D01*
X0044204Y0333788D01*
X0046997Y0330995D01*
X0050948Y0330995D01*
X0053741Y0333788D01*
X0053741Y0337739D01*
X0050948Y0340532D01*
X0050948Y0340995D02*
X0053741Y0343788D01*
X0053741Y0347739D01*
X0050948Y0350532D01*
X0046997Y0350532D01*
X0044204Y0347739D01*
X0044204Y0343788D01*
X0046997Y0340995D01*
X0050948Y0340995D01*
X0051754Y0341802D02*
X0056191Y0341802D01*
X0054617Y0343375D02*
X0053328Y0343375D01*
X0053741Y0344948D02*
X0054204Y0344948D01*
X0054204Y0346522D02*
X0053741Y0346522D01*
X0053385Y0348095D02*
X0054560Y0348095D01*
X0056133Y0349668D02*
X0051810Y0349668D01*
X0046694Y0340228D02*
X0041251Y0340228D01*
X0041754Y0341802D02*
X0046191Y0341802D01*
X0044617Y0343375D02*
X0043328Y0343375D01*
X0043741Y0344948D02*
X0044204Y0344948D01*
X0044204Y0346522D02*
X0043741Y0346522D01*
X0043385Y0348095D02*
X0044560Y0348095D01*
X0046133Y0349668D02*
X0041811Y0349668D01*
X0038972Y0345763D02*
X0036472Y0345763D01*
X0034560Y0348095D02*
X0023638Y0348095D01*
X0023638Y0346522D02*
X0033333Y0346522D01*
X0031759Y0344948D02*
X0023638Y0344948D01*
X0023638Y0343375D02*
X0030186Y0343375D01*
X0028919Y0341802D02*
X0023638Y0341802D01*
X0023638Y0340228D02*
X0028716Y0340228D01*
X0028716Y0338655D02*
X0023638Y0338655D01*
X0023638Y0337082D02*
X0028716Y0337082D01*
X0028716Y0335508D02*
X0023638Y0335508D01*
X0023638Y0333935D02*
X0028716Y0333935D01*
X0028716Y0332362D02*
X0023638Y0332362D01*
X0023638Y0330788D02*
X0028716Y0330788D01*
X0028716Y0329215D02*
X0023638Y0329215D01*
X0023638Y0327642D02*
X0028716Y0327642D01*
X0028716Y0326068D02*
X0023638Y0326068D01*
X0023638Y0324495D02*
X0028716Y0324495D01*
X0028716Y0322922D02*
X0023638Y0322922D01*
X0023638Y0321349D02*
X0028716Y0321349D01*
X0028716Y0319775D02*
X0023638Y0319775D01*
X0023638Y0318202D02*
X0028716Y0318202D01*
X0028716Y0316629D02*
X0023638Y0316629D01*
X0023638Y0315055D02*
X0028716Y0315055D01*
X0028716Y0313482D02*
X0023638Y0313482D01*
X0023638Y0311909D02*
X0028716Y0311909D01*
X0028716Y0310335D02*
X0023638Y0310335D01*
X0023638Y0308762D02*
X0028716Y0308762D01*
X0028716Y0307189D02*
X0023638Y0307189D01*
X0023638Y0305615D02*
X0028716Y0305615D01*
X0028716Y0304042D02*
X0023638Y0304042D01*
X0023638Y0302469D02*
X0028716Y0302469D01*
X0028716Y0300895D02*
X0023638Y0300895D01*
X0023638Y0299322D02*
X0028716Y0299322D01*
X0028716Y0297749D02*
X0023638Y0297749D01*
X0023638Y0296175D02*
X0028716Y0296175D01*
X0028716Y0294602D02*
X0023638Y0294602D01*
X0023638Y0293029D02*
X0028716Y0293029D01*
X0028716Y0291456D02*
X0023638Y0291456D01*
X0023638Y0289882D02*
X0028716Y0289882D01*
X0028716Y0288309D02*
X0023638Y0288309D01*
X0023638Y0286736D02*
X0028716Y0286736D01*
X0028716Y0285162D02*
X0023638Y0285162D01*
X0023638Y0283589D02*
X0028716Y0283589D01*
X0028716Y0282016D02*
X0023638Y0282016D01*
X0023638Y0280442D02*
X0028716Y0280442D01*
X0028716Y0278869D02*
X0023638Y0278869D01*
X0023638Y0277296D02*
X0028716Y0277296D01*
X0028716Y0275722D02*
X0023638Y0275722D01*
X0023638Y0274149D02*
X0028716Y0274149D01*
X0028774Y0272576D02*
X0023638Y0272576D01*
X0023638Y0271002D02*
X0029836Y0271002D01*
X0031408Y0269429D02*
X0023638Y0269429D01*
X0023638Y0267856D02*
X0039204Y0267856D01*
X0039719Y0266282D02*
X0023638Y0266282D01*
X0034484Y0274149D02*
X0039204Y0274149D01*
X0042313Y0332362D02*
X0045630Y0332362D01*
X0044204Y0333935D02*
X0043741Y0333935D01*
X0043741Y0335508D02*
X0044204Y0335508D01*
X0044204Y0337082D02*
X0043741Y0337082D01*
X0042825Y0338655D02*
X0045120Y0338655D01*
X0052314Y0332362D02*
X0055630Y0332362D01*
X0054204Y0333935D02*
X0053741Y0333935D01*
X0053741Y0335508D02*
X0054204Y0335508D01*
X0054204Y0337082D02*
X0053741Y0337082D01*
X0052825Y0338655D02*
X0055120Y0338655D01*
D48*
X0071472Y0313263D02*
X0086472Y0313263D01*
X0088972Y0315763D01*
X0088972Y0340763D01*
X0083972Y0345763D01*
X0078972Y0345763D01*
D49*
X0076472Y0255763D03*
X0068972Y0250762D03*
G04 next file*
G75*
D50*
X0106299Y0188976D02*
X0130085Y0270762D03*
X0136086Y0270762D03*
X0157586Y0270762D03*
X0163586Y0270762D03*
D51*
X0165586Y0335763D03*
X0165586Y0345763D03*
X0155586Y0345763D03*
X0155586Y0335763D03*
X0145586Y0335763D03*
X0145586Y0345763D03*
X0135586Y0345763D03*
X0135586Y0335763D03*
X0125586Y0335763D03*
X0125586Y0345763D03*
D52*
X0158086Y0313263D03*
X0158086Y0293263D03*
D53*
X0110252Y0353598D02*
X0110252Y0192929D01*
X0180921Y0192929D01*
X0180921Y0353598D01*
X0110252Y0353598D01*
X0110252Y0352815D02*
X0180921Y0352815D01*
X0180921Y0351240D02*
X0110252Y0351240D01*
X0110252Y0349668D02*
X0122747Y0349668D01*
X0123611Y0350532D02*
X0120818Y0347739D01*
X0120818Y0347392D01*
X0116524Y0343099D01*
X0115750Y0342324D01*
X0115330Y0341312D01*
X0115330Y0272715D01*
X0115750Y0271702D01*
X0118250Y0269202D01*
X0119025Y0268427D01*
X0120038Y0268007D01*
X0125818Y0268007D01*
X0125818Y0266798D01*
X0126970Y0265645D01*
X0133330Y0265645D01*
X0133330Y0264715D01*
X0133750Y0263701D01*
X0148250Y0249202D01*
X0149025Y0248427D01*
X0150038Y0248007D01*
X0152496Y0248007D01*
X0153245Y0247258D01*
X0154764Y0246630D01*
X0156409Y0246630D01*
X0157928Y0247258D01*
X0159091Y0248422D01*
X0159720Y0249941D01*
X0159720Y0251586D01*
X0159091Y0253105D01*
X0157928Y0254267D01*
X0156409Y0254897D01*
X0154764Y0254897D01*
X0153245Y0254267D01*
X0152496Y0253519D01*
X0151728Y0253519D01*
X0139402Y0265845D01*
X0140355Y0266798D01*
X0140355Y0274729D01*
X0139202Y0275882D01*
X0126970Y0275882D01*
X0125818Y0274729D01*
X0125818Y0273519D01*
X0121727Y0273519D01*
X0120842Y0274405D01*
X0120842Y0333764D01*
X0122830Y0331776D01*
X0122830Y0295215D01*
X0123250Y0294202D01*
X0124025Y0293427D01*
X0149025Y0268427D01*
X0150038Y0268007D01*
X0153318Y0268007D01*
X0153318Y0266798D01*
X0154471Y0265645D01*
X0160330Y0265645D01*
X0160330Y0258854D01*
X0159582Y0258104D01*
X0158953Y0256586D01*
X0158953Y0254940D01*
X0159582Y0253422D01*
X0160744Y0252259D01*
X0162264Y0251630D01*
X0163909Y0251630D01*
X0165427Y0252259D01*
X0166591Y0253422D01*
X0167220Y0254940D01*
X0167220Y0256586D01*
X0166591Y0258104D01*
X0165841Y0258854D01*
X0165841Y0265645D01*
X0166702Y0265645D01*
X0167855Y0266798D01*
X0167855Y0274729D01*
X0166702Y0275882D01*
X0154471Y0275882D01*
X0153318Y0274729D01*
X0153318Y0273519D01*
X0151728Y0273519D01*
X0128342Y0296905D01*
X0128342Y0331776D01*
X0130355Y0333788D01*
X0130355Y0337739D01*
X0127562Y0340532D01*
X0123611Y0340532D01*
X0120842Y0337763D01*
X0120842Y0339622D01*
X0122913Y0341693D01*
X0123611Y0340995D01*
X0127562Y0340995D01*
X0130355Y0343788D01*
X0130355Y0347739D01*
X0127562Y0350532D01*
X0123611Y0350532D01*
X0123086Y0345763D02*
X0118086Y0340763D01*
X0118086Y0273263D01*
X0120586Y0270762D01*
X0130085Y0270762D01*
X0126811Y0275722D02*
X0120842Y0275722D01*
X0120842Y0277296D02*
X0140157Y0277296D01*
X0139361Y0275722D02*
X0141730Y0275722D01*
X0140355Y0274149D02*
X0143303Y0274149D01*
X0144876Y0272576D02*
X0140355Y0272576D01*
X0140355Y0271002D02*
X0146450Y0271002D01*
X0148022Y0269429D02*
X0140355Y0269429D01*
X0140355Y0267856D02*
X0153318Y0267856D01*
X0153833Y0266282D02*
X0139839Y0266282D01*
X0140538Y0264709D02*
X0160330Y0264709D01*
X0160330Y0263136D02*
X0142111Y0263136D01*
X0143685Y0261563D02*
X0160330Y0261563D01*
X0160330Y0259989D02*
X0145258Y0259989D01*
X0146831Y0258415D02*
X0159893Y0258415D01*
X0159059Y0256843D02*
X0148405Y0256843D01*
X0149978Y0255269D02*
X0158953Y0255269D01*
X0158500Y0253696D02*
X0159468Y0253696D01*
X0159498Y0252123D02*
X0161074Y0252123D01*
X0159720Y0250549D02*
X0180921Y0250549D01*
X0180921Y0248976D02*
X0159320Y0248976D01*
X0158072Y0247403D02*
X0180921Y0247403D01*
X0180921Y0245829D02*
X0110252Y0245829D01*
X0110252Y0244255D02*
X0180921Y0244255D01*
X0180921Y0242682D02*
X0110252Y0242682D01*
X0110252Y0241109D02*
X0180921Y0241109D01*
X0180921Y0239536D02*
X0110252Y0239536D01*
X0110252Y0237963D02*
X0180921Y0237963D01*
X0180921Y0236390D02*
X0110252Y0236390D01*
X0110252Y0234816D02*
X0180921Y0234816D01*
X0180921Y0233243D02*
X0110252Y0233243D01*
X0110252Y0231670D02*
X0180921Y0231670D01*
X0180921Y0230096D02*
X0110252Y0230096D01*
X0110252Y0228523D02*
X0180921Y0228523D01*
X0180921Y0226949D02*
X0110252Y0226949D01*
X0110252Y0225376D02*
X0180921Y0225376D01*
X0180921Y0223803D02*
X0110252Y0223803D01*
X0110252Y0222230D02*
X0180921Y0222230D01*
X0180921Y0220656D02*
X0110252Y0220656D01*
X0110252Y0219083D02*
X0180921Y0219083D01*
X0180921Y0217510D02*
X0110252Y0217510D01*
X0110252Y0215936D02*
X0180921Y0215936D01*
X0180921Y0214363D02*
X0110252Y0214363D01*
X0110252Y0212790D02*
X0180921Y0212790D01*
X0180921Y0211215D02*
X0110252Y0211215D01*
X0110252Y0209642D02*
X0180921Y0209642D01*
X0180921Y0208070D02*
X0110252Y0208070D01*
X0110252Y0206497D02*
X0180921Y0206497D01*
X0180921Y0204923D02*
X0110252Y0204923D01*
X0110252Y0203350D02*
X0180921Y0203350D01*
X0180921Y0201777D02*
X0110252Y0201777D01*
X0110252Y0200203D02*
X0180921Y0200203D01*
X0180921Y0198630D02*
X0110252Y0198630D01*
X0110252Y0197057D02*
X0180921Y0197057D01*
X0180921Y0195483D02*
X0110252Y0195483D01*
X0110252Y0193910D02*
X0180921Y0193910D01*
X0155586Y0250762D02*
X0150586Y0250762D01*
X0136086Y0265263D01*
X0136086Y0270762D01*
X0133333Y0264709D02*
X0110252Y0264709D01*
X0110252Y0263136D02*
X0134316Y0263136D01*
X0135890Y0261563D02*
X0110252Y0261563D01*
X0110252Y0259989D02*
X0137463Y0259989D01*
X0139036Y0258415D02*
X0110252Y0258415D01*
X0110252Y0256843D02*
X0140610Y0256843D01*
X0142183Y0255269D02*
X0110252Y0255269D01*
X0110252Y0253696D02*
X0143756Y0253696D01*
X0145330Y0252123D02*
X0110252Y0252123D01*
X0110252Y0250549D02*
X0146903Y0250549D01*
X0148476Y0248976D02*
X0110252Y0248976D01*
X0110252Y0247403D02*
X0153101Y0247403D01*
X0152673Y0253696D02*
X0151551Y0253696D01*
X0150586Y0270762D02*
X0125586Y0295763D01*
X0125586Y0335763D01*
X0123308Y0340228D02*
X0121449Y0340228D01*
X0121734Y0338655D02*
X0120842Y0338655D01*
X0120842Y0332362D02*
X0122244Y0332362D01*
X0122830Y0330788D02*
X0120842Y0330788D01*
X0120842Y0329215D02*
X0122830Y0329215D01*
X0122830Y0327642D02*
X0120842Y0327642D01*
X0120842Y0326068D02*
X0122830Y0326068D01*
X0122830Y0324495D02*
X0120842Y0324495D01*
X0120842Y0322922D02*
X0122830Y0322922D01*
X0122830Y0321349D02*
X0120842Y0321349D01*
X0120842Y0319775D02*
X0122830Y0319775D01*
X0122830Y0318202D02*
X0120842Y0318202D01*
X0120842Y0316629D02*
X0122830Y0316629D01*
X0122830Y0315055D02*
X0120842Y0315055D01*
X0120842Y0313482D02*
X0122830Y0313482D01*
X0122830Y0311909D02*
X0120842Y0311909D01*
X0120842Y0310335D02*
X0122830Y0310335D01*
X0122830Y0308762D02*
X0120842Y0308762D01*
X0120842Y0307189D02*
X0122830Y0307189D01*
X0122830Y0305615D02*
X0120842Y0305615D01*
X0120842Y0304042D02*
X0122830Y0304042D01*
X0122830Y0302469D02*
X0120842Y0302469D01*
X0120842Y0300895D02*
X0122830Y0300895D01*
X0122830Y0299322D02*
X0120842Y0299322D01*
X0120842Y0297749D02*
X0122830Y0297749D01*
X0122830Y0296175D02*
X0120842Y0296175D01*
X0120842Y0294602D02*
X0123084Y0294602D01*
X0124424Y0293029D02*
X0120842Y0293029D01*
X0120842Y0291456D02*
X0125996Y0291456D01*
X0127570Y0289882D02*
X0120842Y0289882D01*
X0120842Y0288309D02*
X0129142Y0288309D01*
X0130717Y0286736D02*
X0120842Y0286736D01*
X0120842Y0285162D02*
X0132290Y0285162D01*
X0133863Y0283589D02*
X0120842Y0283589D01*
X0120842Y0282016D02*
X0135437Y0282016D01*
X0137010Y0280442D02*
X0120842Y0280442D01*
X0120842Y0278869D02*
X0138583Y0278869D01*
X0141658Y0283589D02*
X0180921Y0283589D01*
X0180921Y0285162D02*
X0140085Y0285162D01*
X0138512Y0286736D02*
X0180921Y0286736D01*
X0180921Y0288309D02*
X0136938Y0288309D01*
X0135365Y0289882D02*
X0154485Y0289882D01*
X0154321Y0290047D02*
X0154870Y0289498D01*
X0155499Y0289041D01*
X0156190Y0288688D01*
X0156930Y0288448D01*
X0157698Y0288326D01*
X0157988Y0288326D01*
X0157988Y0293165D01*
X0153149Y0293165D01*
X0153149Y0292875D01*
X0153271Y0292107D01*
X0153511Y0291368D01*
X0153864Y0290676D01*
X0154321Y0290047D01*
X0153482Y0291456D02*
X0133792Y0291456D01*
X0132218Y0293029D02*
X0153149Y0293029D01*
X0153149Y0293362D02*
X0157988Y0293362D01*
X0157988Y0298200D01*
X0157698Y0298200D01*
X0156930Y0298079D01*
X0156190Y0297839D01*
X0155499Y0297486D01*
X0154870Y0297029D01*
X0154321Y0296479D01*
X0153864Y0295851D01*
X0153511Y0295159D01*
X0153271Y0294419D01*
X0153149Y0293652D01*
X0153149Y0293362D01*
X0153330Y0294602D02*
X0130644Y0294602D01*
X0129072Y0296175D02*
X0154100Y0296175D01*
X0156015Y0297749D02*
X0128342Y0297749D01*
X0128342Y0299322D02*
X0180921Y0299322D01*
X0180921Y0297749D02*
X0160158Y0297749D01*
X0159982Y0297839D02*
X0159241Y0298079D01*
X0158475Y0298200D01*
X0158185Y0298200D01*
X0158185Y0293362D01*
X0157988Y0293362D01*
X0157988Y0293165D01*
X0158185Y0293165D01*
X0158185Y0293362D01*
X0163023Y0293362D01*
X0163023Y0293652D01*
X0162902Y0294419D01*
X0162662Y0295159D01*
X0162309Y0295851D01*
X0161852Y0296479D01*
X0161303Y0297029D01*
X0160674Y0297486D01*
X0159982Y0297839D01*
X0158185Y0297749D02*
X0157988Y0297749D01*
X0157988Y0296175D02*
X0158185Y0296175D01*
X0158185Y0294602D02*
X0157988Y0294602D01*
X0158185Y0293165D02*
X0163023Y0293165D01*
X0163023Y0292875D01*
X0162902Y0292107D01*
X0162662Y0291368D01*
X0162309Y0290676D01*
X0161852Y0290047D01*
X0161303Y0289498D01*
X0160674Y0289041D01*
X0159982Y0288688D01*
X0159241Y0288448D01*
X0158475Y0288326D01*
X0158185Y0288326D01*
X0158185Y0293165D01*
X0158185Y0293029D02*
X0157988Y0293029D01*
X0157988Y0291456D02*
X0158185Y0291456D01*
X0158185Y0289882D02*
X0157988Y0289882D01*
X0161687Y0289882D02*
X0180921Y0289882D01*
X0180921Y0291456D02*
X0162690Y0291456D01*
X0163023Y0293029D02*
X0180921Y0293029D01*
X0180921Y0294602D02*
X0162841Y0294602D01*
X0162073Y0296175D02*
X0180921Y0296175D01*
X0180921Y0300895D02*
X0128342Y0300895D01*
X0128342Y0302469D02*
X0180921Y0302469D01*
X0180921Y0304042D02*
X0128342Y0304042D01*
X0128342Y0305615D02*
X0180921Y0305615D01*
X0180921Y0307189D02*
X0128342Y0307189D01*
X0128342Y0308762D02*
X0155579Y0308762D01*
X0155187Y0308924D02*
X0157068Y0308145D01*
X0159104Y0308145D01*
X0160986Y0308924D01*
X0161781Y0309720D01*
X0173791Y0309720D01*
X0175094Y0310260D01*
X0176090Y0311256D01*
X0178590Y0313756D01*
X0179130Y0315058D01*
X0179130Y0341468D01*
X0178590Y0342771D01*
X0177594Y0343766D01*
X0172594Y0348767D01*
X0171290Y0349307D01*
X0168787Y0349307D01*
X0167562Y0350532D01*
X0163611Y0350532D01*
X0160818Y0347739D01*
X0160818Y0343788D01*
X0163611Y0340995D01*
X0167562Y0340995D01*
X0168787Y0342220D01*
X0169118Y0342220D01*
X0172043Y0339295D01*
X0172043Y0317231D01*
X0171619Y0316807D01*
X0161781Y0316807D01*
X0160986Y0317602D01*
X0159104Y0318381D01*
X0157068Y0318381D01*
X0155187Y0317602D01*
X0153747Y0316163D01*
X0152968Y0314281D01*
X0152968Y0312245D01*
X0153747Y0310364D01*
X0155187Y0308924D01*
X0153776Y0310335D02*
X0128342Y0310335D01*
X0128342Y0311909D02*
X0153108Y0311909D01*
X0152968Y0313482D02*
X0128342Y0313482D01*
X0128342Y0315055D02*
X0153289Y0315055D01*
X0154213Y0316629D02*
X0128342Y0316629D01*
X0128342Y0318202D02*
X0156635Y0318202D01*
X0159538Y0318202D02*
X0172043Y0318202D01*
X0172043Y0319775D02*
X0128342Y0319775D01*
X0128342Y0321349D02*
X0172043Y0321349D01*
X0172043Y0322922D02*
X0128342Y0322922D01*
X0128342Y0324495D02*
X0172043Y0324495D01*
X0172043Y0326068D02*
X0128342Y0326068D01*
X0128342Y0327642D02*
X0172043Y0327642D01*
X0172043Y0329215D02*
X0128342Y0329215D01*
X0128342Y0330788D02*
X0172043Y0330788D01*
X0172043Y0332362D02*
X0168672Y0332362D01*
X0167487Y0331176D02*
X0170174Y0333863D01*
X0170174Y0335651D01*
X0165699Y0335651D01*
X0165699Y0335876D01*
X0170174Y0335876D01*
X0170174Y0337664D01*
X0167487Y0340351D01*
X0165699Y0340351D01*
X0165699Y0335876D01*
X0165474Y0335876D01*
X0165474Y0340351D01*
X0163686Y0340351D01*
X0160999Y0337664D01*
X0160999Y0335876D01*
X0165474Y0335876D01*
X0165474Y0335651D01*
X0165699Y0335651D01*
X0165699Y0331176D01*
X0167487Y0331176D01*
X0165474Y0331176D02*
X0165474Y0335651D01*
X0160999Y0335651D01*
X0160999Y0333863D01*
X0163686Y0331176D01*
X0165474Y0331176D01*
X0165474Y0332362D02*
X0165699Y0332362D01*
X0165699Y0333935D02*
X0165474Y0333935D01*
X0165474Y0335508D02*
X0165699Y0335508D01*
X0165699Y0337082D02*
X0165474Y0337082D01*
X0165474Y0338655D02*
X0165699Y0338655D01*
X0165699Y0340228D02*
X0165474Y0340228D01*
X0163564Y0340228D02*
X0157865Y0340228D01*
X0157562Y0340532D02*
X0153611Y0340532D01*
X0150818Y0337739D01*
X0150818Y0333788D01*
X0153611Y0330995D01*
X0157562Y0330995D01*
X0160355Y0333788D01*
X0160355Y0337739D01*
X0157562Y0340532D01*
X0157562Y0340995D02*
X0160355Y0343788D01*
X0160355Y0347739D01*
X0157562Y0350532D01*
X0153611Y0350532D01*
X0150818Y0347739D01*
X0150818Y0343788D01*
X0153611Y0340995D01*
X0157562Y0340995D01*
X0158368Y0341802D02*
X0162805Y0341802D01*
X0161231Y0343375D02*
X0159942Y0343375D01*
X0160355Y0344948D02*
X0160818Y0344948D01*
X0160818Y0346522D02*
X0160355Y0346522D01*
X0159998Y0348095D02*
X0161174Y0348095D01*
X0162747Y0349668D02*
X0158424Y0349668D01*
X0152747Y0349668D02*
X0148425Y0349668D01*
X0147562Y0350532D02*
X0143611Y0350532D01*
X0140818Y0347739D01*
X0140818Y0343788D01*
X0143611Y0340995D01*
X0147562Y0340995D01*
X0150355Y0343788D01*
X0150355Y0347739D01*
X0147562Y0350532D01*
X0149999Y0348095D02*
X0151174Y0348095D01*
X0150818Y0346522D02*
X0150355Y0346522D01*
X0150355Y0344948D02*
X0150818Y0344948D01*
X0151230Y0343375D02*
X0149942Y0343375D01*
X0148368Y0341802D02*
X0152805Y0341802D01*
X0153307Y0340228D02*
X0147865Y0340228D01*
X0147562Y0340532D02*
X0143611Y0340532D01*
X0140818Y0337739D01*
X0140818Y0333788D01*
X0143611Y0330995D01*
X0147562Y0330995D01*
X0150355Y0333788D01*
X0150355Y0337739D01*
X0147562Y0340532D01*
X0149439Y0338655D02*
X0151733Y0338655D01*
X0150818Y0337082D02*
X0150355Y0337082D01*
X0150355Y0335508D02*
X0150818Y0335508D01*
X0150818Y0333935D02*
X0150355Y0333935D01*
X0148928Y0332362D02*
X0152244Y0332362D01*
X0158928Y0332362D02*
X0162501Y0332362D01*
X0160999Y0333935D02*
X0160355Y0333935D01*
X0160355Y0335508D02*
X0160999Y0335508D01*
X0160999Y0337082D02*
X0160355Y0337082D01*
X0159438Y0338655D02*
X0161990Y0338655D01*
X0167609Y0340228D02*
X0171111Y0340228D01*
X0172043Y0338655D02*
X0169182Y0338655D01*
X0170174Y0337082D02*
X0172043Y0337082D01*
X0172043Y0335508D02*
X0170174Y0335508D01*
X0170174Y0333935D02*
X0172043Y0333935D01*
X0169537Y0341802D02*
X0168368Y0341802D01*
X0168425Y0349668D02*
X0180921Y0349668D01*
X0180921Y0348095D02*
X0173266Y0348095D01*
X0174839Y0346522D02*
X0180921Y0346522D01*
X0180921Y0344948D02*
X0176413Y0344948D01*
X0177986Y0343375D02*
X0180921Y0343375D01*
X0180921Y0341802D02*
X0178992Y0341802D01*
X0179130Y0340228D02*
X0180921Y0340228D01*
X0180921Y0338655D02*
X0179130Y0338655D01*
X0179130Y0337082D02*
X0180921Y0337082D01*
X0180921Y0335508D02*
X0179130Y0335508D01*
X0179130Y0333935D02*
X0180921Y0333935D01*
X0180921Y0332362D02*
X0179130Y0332362D01*
X0179130Y0330788D02*
X0180921Y0330788D01*
X0180921Y0329215D02*
X0179130Y0329215D01*
X0179130Y0327642D02*
X0180921Y0327642D01*
X0180921Y0326068D02*
X0179130Y0326068D01*
X0179130Y0324495D02*
X0180921Y0324495D01*
X0180921Y0322922D02*
X0179130Y0322922D01*
X0179130Y0321349D02*
X0180921Y0321349D01*
X0180921Y0319775D02*
X0179130Y0319775D01*
X0179130Y0318202D02*
X0180921Y0318202D01*
X0180921Y0316629D02*
X0179130Y0316629D01*
X0179128Y0315055D02*
X0180921Y0315055D01*
X0180921Y0313482D02*
X0178316Y0313482D01*
X0176743Y0311909D02*
X0180921Y0311909D01*
X0180921Y0310335D02*
X0175169Y0310335D01*
X0180921Y0308762D02*
X0160593Y0308762D01*
X0146378Y0278869D02*
X0180921Y0278869D01*
X0180921Y0277296D02*
X0147952Y0277296D01*
X0149525Y0275722D02*
X0154310Y0275722D01*
X0153318Y0274149D02*
X0151098Y0274149D01*
X0150586Y0270762D02*
X0157586Y0270762D01*
X0163086Y0270263D02*
X0163586Y0270762D01*
X0163086Y0270263D02*
X0163086Y0255763D01*
X0165099Y0252123D02*
X0180921Y0252123D01*
X0180921Y0253696D02*
X0166704Y0253696D01*
X0167220Y0255269D02*
X0180921Y0255269D01*
X0180921Y0256843D02*
X0167114Y0256843D01*
X0166280Y0258415D02*
X0180921Y0258415D01*
X0180921Y0259989D02*
X0165841Y0259989D01*
X0165841Y0261563D02*
X0180921Y0261563D01*
X0180921Y0263136D02*
X0165841Y0263136D01*
X0165841Y0264709D02*
X0180921Y0264709D01*
X0180921Y0266282D02*
X0167338Y0266282D01*
X0167855Y0267856D02*
X0180921Y0267856D01*
X0180921Y0269429D02*
X0167855Y0269429D01*
X0167855Y0271002D02*
X0180921Y0271002D01*
X0180921Y0272576D02*
X0167855Y0272576D01*
X0167855Y0274149D02*
X0180921Y0274149D01*
X0180921Y0275722D02*
X0166861Y0275722D01*
X0180921Y0280442D02*
X0144805Y0280442D01*
X0143232Y0282016D02*
X0180921Y0282016D01*
X0143308Y0340228D02*
X0137865Y0340228D01*
X0137562Y0340532D02*
X0133611Y0340532D01*
X0130817Y0337739D01*
X0130817Y0333788D01*
X0133611Y0330995D01*
X0137562Y0330995D01*
X0140355Y0333788D01*
X0140355Y0337739D01*
X0137562Y0340532D01*
X0137562Y0340995D02*
X0140355Y0343788D01*
X0140355Y0347739D01*
X0137562Y0350532D01*
X0133611Y0350532D01*
X0130817Y0347739D01*
X0130817Y0343788D01*
X0133611Y0340995D01*
X0137562Y0340995D01*
X0138368Y0341802D02*
X0142805Y0341802D01*
X0141231Y0343375D02*
X0139942Y0343375D01*
X0140355Y0344948D02*
X0140818Y0344948D01*
X0140818Y0346522D02*
X0140355Y0346522D01*
X0139999Y0348095D02*
X0141174Y0348095D01*
X0142747Y0349668D02*
X0138425Y0349668D01*
X0133307Y0340228D02*
X0127865Y0340228D01*
X0128368Y0341802D02*
X0132805Y0341802D01*
X0131231Y0343375D02*
X0129942Y0343375D01*
X0130355Y0344948D02*
X0130817Y0344948D01*
X0130817Y0346522D02*
X0130355Y0346522D01*
X0129999Y0348095D02*
X0131174Y0348095D01*
X0132747Y0349668D02*
X0128424Y0349668D01*
X0125586Y0345763D02*
X0123086Y0345763D01*
X0121174Y0348095D02*
X0110252Y0348095D01*
X0110252Y0346522D02*
X0119947Y0346522D01*
X0118374Y0344948D02*
X0110252Y0344948D01*
X0110252Y0343375D02*
X0116799Y0343375D01*
X0115533Y0341802D02*
X0110252Y0341802D01*
X0110252Y0340228D02*
X0115330Y0340228D01*
X0115330Y0338655D02*
X0110252Y0338655D01*
X0110252Y0337082D02*
X0115330Y0337082D01*
X0115330Y0335508D02*
X0110252Y0335508D01*
X0110252Y0333935D02*
X0115330Y0333935D01*
X0115330Y0332362D02*
X0110252Y0332362D01*
X0110252Y0330788D02*
X0115330Y0330788D01*
X0115330Y0329215D02*
X0110252Y0329215D01*
X0110252Y0327642D02*
X0115330Y0327642D01*
X0115330Y0326068D02*
X0110252Y0326068D01*
X0110252Y0324495D02*
X0115330Y0324495D01*
X0115330Y0322922D02*
X0110252Y0322922D01*
X0110252Y0321349D02*
X0115330Y0321349D01*
X0115330Y0319775D02*
X0110252Y0319775D01*
X0110252Y0318202D02*
X0115330Y0318202D01*
X0115330Y0316629D02*
X0110252Y0316629D01*
X0110252Y0315055D02*
X0115330Y0315055D01*
X0115330Y0313482D02*
X0110252Y0313482D01*
X0110252Y0311909D02*
X0115330Y0311909D01*
X0115330Y0310335D02*
X0110252Y0310335D01*
X0110252Y0308762D02*
X0115330Y0308762D01*
X0115330Y0307189D02*
X0110252Y0307189D01*
X0110252Y0305615D02*
X0115330Y0305615D01*
X0115330Y0304042D02*
X0110252Y0304042D01*
X0110252Y0302469D02*
X0115330Y0302469D01*
X0115330Y0300895D02*
X0110252Y0300895D01*
X0110252Y0299322D02*
X0115330Y0299322D01*
X0115330Y0297749D02*
X0110252Y0297749D01*
X0110252Y0296175D02*
X0115330Y0296175D01*
X0115330Y0294602D02*
X0110252Y0294602D01*
X0110252Y0293029D02*
X0115330Y0293029D01*
X0115330Y0291456D02*
X0110252Y0291456D01*
X0110252Y0289882D02*
X0115330Y0289882D01*
X0115330Y0288309D02*
X0110252Y0288309D01*
X0110252Y0286736D02*
X0115330Y0286736D01*
X0115330Y0285162D02*
X0110252Y0285162D01*
X0110252Y0283589D02*
X0115330Y0283589D01*
X0115330Y0282016D02*
X0110252Y0282016D01*
X0110252Y0280442D02*
X0115330Y0280442D01*
X0115330Y0278869D02*
X0110252Y0278869D01*
X0110252Y0277296D02*
X0115330Y0277296D01*
X0115330Y0275722D02*
X0110252Y0275722D01*
X0110252Y0274149D02*
X0115330Y0274149D01*
X0115388Y0272576D02*
X0110252Y0272576D01*
X0110252Y0271002D02*
X0116450Y0271002D01*
X0118022Y0269429D02*
X0110252Y0269429D01*
X0110252Y0267856D02*
X0125818Y0267856D01*
X0126333Y0266282D02*
X0110252Y0266282D01*
X0121098Y0274149D02*
X0125818Y0274149D01*
X0128928Y0332362D02*
X0132244Y0332362D01*
X0130817Y0333935D02*
X0130355Y0333935D01*
X0130355Y0335508D02*
X0130817Y0335508D01*
X0130817Y0337082D02*
X0130355Y0337082D01*
X0129439Y0338655D02*
X0131734Y0338655D01*
X0138928Y0332362D02*
X0142244Y0332362D01*
X0140818Y0333935D02*
X0140355Y0333935D01*
X0140355Y0335508D02*
X0140818Y0335508D01*
X0140818Y0337082D02*
X0140355Y0337082D01*
X0139439Y0338655D02*
X0141734Y0338655D01*
D54*
X0158086Y0313263D02*
X0173086Y0313263D01*
X0175586Y0315763D01*
X0175586Y0340763D01*
X0170586Y0345763D01*
X0165586Y0345763D01*
D55*
X0163086Y0255763D03*
X0155586Y0250762D03*
G04 next file*
G75*
D56*
X0192913Y0188976D02*
X0216699Y0270762D03*
X0222700Y0270762D03*
X0244200Y0270762D03*
X0250199Y0270762D03*
D57*
X0252199Y0335763D03*
X0252199Y0345763D03*
X0242200Y0345763D03*
X0242200Y0335763D03*
X0232200Y0335763D03*
X0232200Y0345763D03*
X0222200Y0345763D03*
X0222200Y0335763D03*
X0212200Y0335763D03*
X0212200Y0345763D03*
D58*
X0244700Y0313263D03*
X0244700Y0293263D03*
D59*
X0196866Y0353598D02*
X0196866Y0192929D01*
X0267534Y0192929D01*
X0267534Y0353598D01*
X0196866Y0353598D01*
X0196866Y0352815D02*
X0267534Y0352815D01*
X0267534Y0351240D02*
X0196866Y0351240D01*
X0196866Y0349668D02*
X0209361Y0349668D01*
X0210225Y0350532D02*
X0207432Y0347739D01*
X0207432Y0347392D01*
X0203139Y0343099D01*
X0202364Y0342324D01*
X0201944Y0341312D01*
X0201944Y0272715D01*
X0202364Y0271702D01*
X0204863Y0269202D01*
X0205639Y0268427D01*
X0206652Y0268007D01*
X0212432Y0268007D01*
X0212432Y0266798D01*
X0213585Y0265645D01*
X0219944Y0265645D01*
X0219944Y0264715D01*
X0220364Y0263701D01*
X0234864Y0249202D01*
X0235639Y0248427D01*
X0236652Y0248007D01*
X0239109Y0248007D01*
X0239859Y0247258D01*
X0241378Y0246630D01*
X0243023Y0246630D01*
X0244542Y0247258D01*
X0245705Y0248422D01*
X0246334Y0249941D01*
X0246334Y0251586D01*
X0245705Y0253105D01*
X0244542Y0254267D01*
X0243023Y0254897D01*
X0241378Y0254897D01*
X0239859Y0254267D01*
X0239109Y0253519D01*
X0238342Y0253519D01*
X0226016Y0265845D01*
X0226969Y0266798D01*
X0226969Y0274729D01*
X0225816Y0275882D01*
X0213585Y0275882D01*
X0212432Y0274729D01*
X0212432Y0273519D01*
X0208341Y0273519D01*
X0207456Y0274405D01*
X0207456Y0333764D01*
X0209444Y0331776D01*
X0209444Y0295215D01*
X0209864Y0294202D01*
X0210639Y0293427D01*
X0235639Y0268427D01*
X0236652Y0268007D01*
X0239932Y0268007D01*
X0239932Y0266798D01*
X0241085Y0265645D01*
X0246944Y0265645D01*
X0246944Y0258854D01*
X0246196Y0258104D01*
X0245567Y0256586D01*
X0245567Y0254940D01*
X0246196Y0253422D01*
X0247359Y0252259D01*
X0248878Y0251630D01*
X0250523Y0251630D01*
X0252042Y0252259D01*
X0253205Y0253422D01*
X0253833Y0254940D01*
X0253833Y0256586D01*
X0253205Y0258104D01*
X0252456Y0258854D01*
X0252456Y0265645D01*
X0253316Y0265645D01*
X0254469Y0266798D01*
X0254469Y0274729D01*
X0253316Y0275882D01*
X0241085Y0275882D01*
X0239932Y0274729D01*
X0239932Y0273519D01*
X0238342Y0273519D01*
X0214956Y0296905D01*
X0214956Y0331776D01*
X0216969Y0333788D01*
X0216969Y0337739D01*
X0214176Y0340532D01*
X0210225Y0340532D01*
X0207456Y0337763D01*
X0207456Y0339622D01*
X0209527Y0341693D01*
X0210225Y0340995D01*
X0214176Y0340995D01*
X0216969Y0343788D01*
X0216969Y0347739D01*
X0214176Y0350532D01*
X0210225Y0350532D01*
X0209700Y0345763D02*
X0204700Y0340763D01*
X0204700Y0273263D01*
X0207200Y0270762D01*
X0216699Y0270762D01*
X0213425Y0275722D02*
X0207456Y0275722D01*
X0207456Y0277296D02*
X0226771Y0277296D01*
X0225975Y0275722D02*
X0228344Y0275722D01*
X0226969Y0274149D02*
X0229917Y0274149D01*
X0231490Y0272576D02*
X0226969Y0272576D01*
X0226969Y0271002D02*
X0233063Y0271002D01*
X0234636Y0269429D02*
X0226969Y0269429D01*
X0226969Y0267856D02*
X0239932Y0267856D01*
X0240447Y0266282D02*
X0226453Y0266282D01*
X0227152Y0264709D02*
X0246944Y0264709D01*
X0246944Y0263136D02*
X0228724Y0263136D01*
X0230299Y0261563D02*
X0246944Y0261563D01*
X0246944Y0259989D02*
X0231872Y0259989D01*
X0233445Y0258415D02*
X0246507Y0258415D01*
X0245673Y0256843D02*
X0235019Y0256843D01*
X0236592Y0255269D02*
X0245567Y0255269D01*
X0245114Y0253696D02*
X0246082Y0253696D01*
X0246112Y0252123D02*
X0247688Y0252123D01*
X0246334Y0250549D02*
X0267534Y0250549D01*
X0267534Y0248976D02*
X0245934Y0248976D01*
X0244686Y0247403D02*
X0267534Y0247403D01*
X0267534Y0245829D02*
X0196866Y0245829D01*
X0196866Y0244255D02*
X0267534Y0244255D01*
X0267534Y0242682D02*
X0196866Y0242682D01*
X0196866Y0241109D02*
X0267534Y0241109D01*
X0267534Y0239536D02*
X0196866Y0239536D01*
X0196866Y0237963D02*
X0267534Y0237963D01*
X0267534Y0236390D02*
X0196866Y0236390D01*
X0196866Y0234816D02*
X0267534Y0234816D01*
X0267534Y0233243D02*
X0196866Y0233243D01*
X0196866Y0231670D02*
X0267534Y0231670D01*
X0267534Y0230096D02*
X0196866Y0230096D01*
X0196866Y0228523D02*
X0267534Y0228523D01*
X0267534Y0226949D02*
X0196866Y0226949D01*
X0196866Y0225376D02*
X0267534Y0225376D01*
X0267534Y0223803D02*
X0196866Y0223803D01*
X0196866Y0222230D02*
X0267534Y0222230D01*
X0267534Y0220656D02*
X0196866Y0220656D01*
X0196866Y0219083D02*
X0267534Y0219083D01*
X0267534Y0217510D02*
X0196866Y0217510D01*
X0196866Y0215936D02*
X0267534Y0215936D01*
X0267534Y0214363D02*
X0196866Y0214363D01*
X0196866Y0212790D02*
X0267534Y0212790D01*
X0267534Y0211215D02*
X0196866Y0211215D01*
X0196866Y0209642D02*
X0267534Y0209642D01*
X0267534Y0208070D02*
X0196866Y0208070D01*
X0196866Y0206497D02*
X0267534Y0206497D01*
X0267534Y0204923D02*
X0196866Y0204923D01*
X0196866Y0203350D02*
X0267534Y0203350D01*
X0267534Y0201777D02*
X0196866Y0201777D01*
X0196866Y0200203D02*
X0267534Y0200203D01*
X0267534Y0198630D02*
X0196866Y0198630D01*
X0196866Y0197057D02*
X0267534Y0197057D01*
X0267534Y0195483D02*
X0196866Y0195483D01*
X0196866Y0193910D02*
X0267534Y0193910D01*
X0242200Y0250762D02*
X0237200Y0250762D01*
X0222700Y0265263D01*
X0222700Y0270762D01*
X0219946Y0264709D02*
X0196866Y0264709D01*
X0196866Y0263136D02*
X0220929Y0263136D01*
X0222504Y0261563D02*
X0196866Y0261563D01*
X0196866Y0259989D02*
X0224077Y0259989D01*
X0225650Y0258415D02*
X0196866Y0258415D01*
X0196866Y0256843D02*
X0227224Y0256843D01*
X0228797Y0255269D02*
X0196866Y0255269D01*
X0196866Y0253696D02*
X0230370Y0253696D01*
X0231944Y0252123D02*
X0196866Y0252123D01*
X0196866Y0250549D02*
X0233517Y0250549D01*
X0235090Y0248976D02*
X0196866Y0248976D01*
X0196866Y0247403D02*
X0239715Y0247403D01*
X0239286Y0253696D02*
X0238165Y0253696D01*
X0237200Y0270762D02*
X0212200Y0295763D01*
X0212200Y0335763D01*
X0209922Y0340228D02*
X0208063Y0340228D01*
X0208348Y0338655D02*
X0207456Y0338655D01*
X0207456Y0332362D02*
X0208858Y0332362D01*
X0209444Y0330788D02*
X0207456Y0330788D01*
X0207456Y0329215D02*
X0209444Y0329215D01*
X0209444Y0327642D02*
X0207456Y0327642D01*
X0207456Y0326068D02*
X0209444Y0326068D01*
X0209444Y0324495D02*
X0207456Y0324495D01*
X0207456Y0322922D02*
X0209444Y0322922D01*
X0209444Y0321349D02*
X0207456Y0321349D01*
X0207456Y0319775D02*
X0209444Y0319775D01*
X0209444Y0318202D02*
X0207456Y0318202D01*
X0207456Y0316629D02*
X0209444Y0316629D01*
X0209444Y0315055D02*
X0207456Y0315055D01*
X0207456Y0313482D02*
X0209444Y0313482D01*
X0209444Y0311909D02*
X0207456Y0311909D01*
X0207456Y0310335D02*
X0209444Y0310335D01*
X0209444Y0308762D02*
X0207456Y0308762D01*
X0207456Y0307189D02*
X0209444Y0307189D01*
X0209444Y0305615D02*
X0207456Y0305615D01*
X0207456Y0304042D02*
X0209444Y0304042D01*
X0209444Y0302469D02*
X0207456Y0302469D01*
X0207456Y0300895D02*
X0209444Y0300895D01*
X0209444Y0299322D02*
X0207456Y0299322D01*
X0207456Y0297749D02*
X0209444Y0297749D01*
X0209444Y0296175D02*
X0207456Y0296175D01*
X0207456Y0294602D02*
X0209697Y0294602D01*
X0211038Y0293029D02*
X0207456Y0293029D01*
X0207456Y0291456D02*
X0212611Y0291456D01*
X0214184Y0289882D02*
X0207456Y0289882D01*
X0207456Y0288309D02*
X0215757Y0288309D01*
X0217330Y0286736D02*
X0207456Y0286736D01*
X0207456Y0285162D02*
X0218904Y0285162D01*
X0220477Y0283589D02*
X0207456Y0283589D01*
X0207456Y0282016D02*
X0222051Y0282016D01*
X0223624Y0280442D02*
X0207456Y0280442D01*
X0207456Y0278869D02*
X0225197Y0278869D01*
X0228272Y0283589D02*
X0267534Y0283589D01*
X0267534Y0285162D02*
X0226698Y0285162D01*
X0225125Y0286736D02*
X0267534Y0286736D01*
X0267534Y0288309D02*
X0223552Y0288309D01*
X0221979Y0289882D02*
X0241100Y0289882D01*
X0240935Y0290047D02*
X0241484Y0289498D01*
X0242112Y0289041D01*
X0242804Y0288688D01*
X0243543Y0288448D01*
X0244312Y0288326D01*
X0244602Y0288326D01*
X0244602Y0293165D01*
X0239763Y0293165D01*
X0239763Y0292875D01*
X0239885Y0292107D01*
X0240125Y0291368D01*
X0240478Y0290676D01*
X0240935Y0290047D01*
X0240097Y0291456D02*
X0220406Y0291456D01*
X0218832Y0293029D02*
X0239763Y0293029D01*
X0239763Y0293362D02*
X0244602Y0293362D01*
X0244602Y0298200D01*
X0244312Y0298200D01*
X0243543Y0298079D01*
X0242804Y0297839D01*
X0242112Y0297486D01*
X0241484Y0297029D01*
X0240935Y0296479D01*
X0240478Y0295851D01*
X0240125Y0295159D01*
X0239885Y0294419D01*
X0239763Y0293652D01*
X0239763Y0293362D01*
X0239943Y0294602D02*
X0217259Y0294602D01*
X0215686Y0296175D02*
X0240714Y0296175D01*
X0242628Y0297749D02*
X0214956Y0297749D01*
X0214956Y0299322D02*
X0267534Y0299322D01*
X0267534Y0297749D02*
X0246772Y0297749D01*
X0246596Y0297839D02*
X0245856Y0298079D01*
X0245088Y0298200D01*
X0244799Y0298200D01*
X0244799Y0293362D01*
X0244602Y0293362D01*
X0244602Y0293165D01*
X0244799Y0293165D01*
X0244799Y0293362D01*
X0249637Y0293362D01*
X0249637Y0293652D01*
X0249515Y0294419D01*
X0249276Y0295159D01*
X0248923Y0295851D01*
X0248466Y0296479D01*
X0247917Y0297029D01*
X0247288Y0297486D01*
X0246596Y0297839D01*
X0244799Y0297749D02*
X0244602Y0297749D01*
X0244602Y0296175D02*
X0244799Y0296175D01*
X0244799Y0294602D02*
X0244602Y0294602D01*
X0244799Y0293165D02*
X0249637Y0293165D01*
X0249637Y0292875D01*
X0249515Y0292107D01*
X0249276Y0291368D01*
X0248923Y0290676D01*
X0248466Y0290047D01*
X0247917Y0289498D01*
X0247288Y0289041D01*
X0246596Y0288688D01*
X0245856Y0288448D01*
X0245088Y0288326D01*
X0244799Y0288326D01*
X0244799Y0293165D01*
X0244799Y0293029D02*
X0244602Y0293029D01*
X0244602Y0291456D02*
X0244799Y0291456D01*
X0244799Y0289882D02*
X0244602Y0289882D01*
X0248301Y0289882D02*
X0267534Y0289882D01*
X0267534Y0291456D02*
X0249304Y0291456D01*
X0249637Y0293029D02*
X0267534Y0293029D01*
X0267534Y0294602D02*
X0249456Y0294602D01*
X0248687Y0296175D02*
X0267534Y0296175D01*
X0267534Y0300895D02*
X0214956Y0300895D01*
X0214956Y0302469D02*
X0267534Y0302469D01*
X0267534Y0304042D02*
X0214956Y0304042D01*
X0214956Y0305615D02*
X0267534Y0305615D01*
X0267534Y0307189D02*
X0214956Y0307189D01*
X0214956Y0308762D02*
X0242193Y0308762D01*
X0241801Y0308924D02*
X0243682Y0308145D01*
X0245718Y0308145D01*
X0247600Y0308924D01*
X0248395Y0309720D01*
X0260405Y0309720D01*
X0261708Y0310260D01*
X0262704Y0311256D01*
X0265204Y0313756D01*
X0265743Y0315058D01*
X0265743Y0341468D01*
X0265204Y0342771D01*
X0264208Y0343766D01*
X0259208Y0348767D01*
X0257905Y0349307D01*
X0255401Y0349307D01*
X0254176Y0350532D01*
X0250225Y0350532D01*
X0247432Y0347739D01*
X0247432Y0343788D01*
X0250225Y0340995D01*
X0254176Y0340995D01*
X0255401Y0342220D01*
X0255733Y0342220D01*
X0258657Y0339295D01*
X0258657Y0317231D01*
X0258232Y0316807D01*
X0248395Y0316807D01*
X0247600Y0317602D01*
X0245718Y0318381D01*
X0243682Y0318381D01*
X0241801Y0317602D01*
X0240361Y0316163D01*
X0239582Y0314281D01*
X0239582Y0312245D01*
X0240361Y0310364D01*
X0241801Y0308924D01*
X0240390Y0310335D02*
X0214956Y0310335D01*
X0214956Y0311909D02*
X0239722Y0311909D01*
X0239582Y0313482D02*
X0214956Y0313482D01*
X0214956Y0315055D02*
X0239903Y0315055D01*
X0240827Y0316629D02*
X0214956Y0316629D01*
X0214956Y0318202D02*
X0243249Y0318202D01*
X0246152Y0318202D02*
X0258657Y0318202D01*
X0258657Y0319775D02*
X0214956Y0319775D01*
X0214956Y0321349D02*
X0258657Y0321349D01*
X0258657Y0322922D02*
X0214956Y0322922D01*
X0214956Y0324495D02*
X0258657Y0324495D01*
X0258657Y0326068D02*
X0214956Y0326068D01*
X0214956Y0327642D02*
X0258657Y0327642D01*
X0258657Y0329215D02*
X0214956Y0329215D01*
X0214956Y0330788D02*
X0258657Y0330788D01*
X0258657Y0332362D02*
X0255286Y0332362D01*
X0254101Y0331176D02*
X0256788Y0333863D01*
X0256788Y0335651D01*
X0252313Y0335651D01*
X0252313Y0335876D01*
X0256788Y0335876D01*
X0256788Y0337664D01*
X0254101Y0340351D01*
X0252313Y0340351D01*
X0252313Y0335876D01*
X0252088Y0335876D01*
X0252088Y0340351D01*
X0250300Y0340351D01*
X0247613Y0337664D01*
X0247613Y0335876D01*
X0252088Y0335876D01*
X0252088Y0335651D01*
X0252313Y0335651D01*
X0252313Y0331176D01*
X0254101Y0331176D01*
X0252088Y0331176D02*
X0252088Y0335651D01*
X0247613Y0335651D01*
X0247613Y0333863D01*
X0250300Y0331176D01*
X0252088Y0331176D01*
X0252088Y0332362D02*
X0252313Y0332362D01*
X0252313Y0333935D02*
X0252088Y0333935D01*
X0252088Y0335508D02*
X0252313Y0335508D01*
X0252313Y0337082D02*
X0252088Y0337082D01*
X0252088Y0338655D02*
X0252313Y0338655D01*
X0252313Y0340228D02*
X0252088Y0340228D01*
X0250178Y0340228D02*
X0244478Y0340228D01*
X0244176Y0340532D02*
X0240225Y0340532D01*
X0237432Y0337739D01*
X0237432Y0333788D01*
X0240225Y0330995D01*
X0244176Y0330995D01*
X0246969Y0333788D01*
X0246969Y0337739D01*
X0244176Y0340532D01*
X0244176Y0340995D02*
X0246969Y0343788D01*
X0246969Y0347739D01*
X0244176Y0350532D01*
X0240225Y0350532D01*
X0237432Y0347739D01*
X0237432Y0343788D01*
X0240225Y0340995D01*
X0244176Y0340995D01*
X0244982Y0341802D02*
X0249419Y0341802D01*
X0247845Y0343375D02*
X0246556Y0343375D01*
X0246969Y0344948D02*
X0247432Y0344948D01*
X0247432Y0346522D02*
X0246969Y0346522D01*
X0246613Y0348095D02*
X0247788Y0348095D01*
X0249361Y0349668D02*
X0245039Y0349668D01*
X0239360Y0349668D02*
X0235039Y0349668D01*
X0234175Y0350532D02*
X0230225Y0350532D01*
X0227432Y0347739D01*
X0227432Y0343788D01*
X0230225Y0340995D01*
X0234175Y0340995D01*
X0236968Y0343788D01*
X0236968Y0347739D01*
X0234175Y0350532D01*
X0236613Y0348095D02*
X0237788Y0348095D01*
X0237432Y0346522D02*
X0236968Y0346522D01*
X0236968Y0344948D02*
X0237432Y0344948D01*
X0237845Y0343375D02*
X0236556Y0343375D01*
X0234981Y0341802D02*
X0239419Y0341802D01*
X0239922Y0340228D02*
X0234479Y0340228D01*
X0234175Y0340532D02*
X0230225Y0340532D01*
X0227432Y0337739D01*
X0227432Y0333788D01*
X0230225Y0330995D01*
X0234175Y0330995D01*
X0236968Y0333788D01*
X0236968Y0337739D01*
X0234175Y0340532D01*
X0236052Y0338655D02*
X0238348Y0338655D01*
X0237432Y0337082D02*
X0236968Y0337082D01*
X0236968Y0335508D02*
X0237432Y0335508D01*
X0237432Y0333935D02*
X0236968Y0333935D01*
X0235542Y0332362D02*
X0238858Y0332362D01*
X0245542Y0332362D02*
X0249115Y0332362D01*
X0247613Y0333935D02*
X0246969Y0333935D01*
X0246969Y0335508D02*
X0247613Y0335508D01*
X0247613Y0337082D02*
X0246969Y0337082D01*
X0246053Y0338655D02*
X0248604Y0338655D01*
X0254223Y0340228D02*
X0257724Y0340228D01*
X0258657Y0338655D02*
X0255796Y0338655D01*
X0256788Y0337082D02*
X0258657Y0337082D01*
X0258657Y0335508D02*
X0256788Y0335508D01*
X0256788Y0333935D02*
X0258657Y0333935D01*
X0256151Y0341802D02*
X0254982Y0341802D01*
X0255039Y0349668D02*
X0267534Y0349668D01*
X0267534Y0348095D02*
X0259879Y0348095D01*
X0261452Y0346522D02*
X0267534Y0346522D01*
X0267534Y0344948D02*
X0263026Y0344948D01*
X0264600Y0343375D02*
X0267534Y0343375D01*
X0267534Y0341802D02*
X0265605Y0341802D01*
X0265743Y0340228D02*
X0267534Y0340228D01*
X0267534Y0338655D02*
X0265743Y0338655D01*
X0265743Y0337082D02*
X0267534Y0337082D01*
X0267534Y0335508D02*
X0265743Y0335508D01*
X0265743Y0333935D02*
X0267534Y0333935D01*
X0267534Y0332362D02*
X0265743Y0332362D01*
X0265743Y0330788D02*
X0267534Y0330788D01*
X0267534Y0329215D02*
X0265743Y0329215D01*
X0265743Y0327642D02*
X0267534Y0327642D01*
X0267534Y0326068D02*
X0265743Y0326068D01*
X0265743Y0324495D02*
X0267534Y0324495D01*
X0267534Y0322922D02*
X0265743Y0322922D01*
X0265743Y0321349D02*
X0267534Y0321349D01*
X0267534Y0319775D02*
X0265743Y0319775D01*
X0265743Y0318202D02*
X0267534Y0318202D01*
X0267534Y0316629D02*
X0265743Y0316629D01*
X0265742Y0315055D02*
X0267534Y0315055D01*
X0267534Y0313482D02*
X0264930Y0313482D01*
X0263357Y0311909D02*
X0267534Y0311909D01*
X0267534Y0310335D02*
X0261783Y0310335D01*
X0267534Y0308762D02*
X0247207Y0308762D01*
X0232992Y0278869D02*
X0267534Y0278869D01*
X0267534Y0277296D02*
X0234566Y0277296D01*
X0236139Y0275722D02*
X0240925Y0275722D01*
X0239932Y0274149D02*
X0237712Y0274149D01*
X0237200Y0270762D02*
X0244200Y0270762D01*
X0249700Y0270263D02*
X0250199Y0270762D01*
X0249700Y0270263D02*
X0249700Y0255763D01*
X0251713Y0252123D02*
X0267534Y0252123D01*
X0267534Y0253696D02*
X0253318Y0253696D01*
X0253833Y0255269D02*
X0267534Y0255269D01*
X0267534Y0256843D02*
X0253728Y0256843D01*
X0252894Y0258415D02*
X0267534Y0258415D01*
X0267534Y0259989D02*
X0252456Y0259989D01*
X0252456Y0261563D02*
X0267534Y0261563D01*
X0267534Y0263136D02*
X0252456Y0263136D01*
X0252456Y0264709D02*
X0267534Y0264709D01*
X0267534Y0266282D02*
X0253953Y0266282D01*
X0254469Y0267856D02*
X0267534Y0267856D01*
X0267534Y0269429D02*
X0254469Y0269429D01*
X0254469Y0271002D02*
X0267534Y0271002D01*
X0267534Y0272576D02*
X0254469Y0272576D01*
X0254469Y0274149D02*
X0267534Y0274149D01*
X0267534Y0275722D02*
X0253475Y0275722D01*
X0267534Y0280442D02*
X0231419Y0280442D01*
X0229846Y0282016D02*
X0267534Y0282016D01*
X0229922Y0340228D02*
X0224479Y0340228D01*
X0224176Y0340532D02*
X0220224Y0340532D01*
X0217431Y0337739D01*
X0217431Y0333788D01*
X0220224Y0330995D01*
X0224176Y0330995D01*
X0226969Y0333788D01*
X0226969Y0337739D01*
X0224176Y0340532D01*
X0224176Y0340995D02*
X0226969Y0343788D01*
X0226969Y0347739D01*
X0224176Y0350532D01*
X0220224Y0350532D01*
X0217431Y0347739D01*
X0217431Y0343788D01*
X0220224Y0340995D01*
X0224176Y0340995D01*
X0224982Y0341802D02*
X0229419Y0341802D01*
X0227845Y0343375D02*
X0226555Y0343375D01*
X0226969Y0344948D02*
X0227432Y0344948D01*
X0227432Y0346522D02*
X0226969Y0346522D01*
X0226613Y0348095D02*
X0227788Y0348095D01*
X0229361Y0349668D02*
X0225039Y0349668D01*
X0219922Y0340228D02*
X0214479Y0340228D01*
X0214982Y0341802D02*
X0219419Y0341802D01*
X0217845Y0343375D02*
X0216556Y0343375D01*
X0216969Y0344948D02*
X0217431Y0344948D01*
X0217431Y0346522D02*
X0216969Y0346522D01*
X0216613Y0348095D02*
X0217788Y0348095D01*
X0219361Y0349668D02*
X0215038Y0349668D01*
X0212200Y0345763D02*
X0209700Y0345763D01*
X0207788Y0348095D02*
X0196866Y0348095D01*
X0196866Y0346522D02*
X0206561Y0346522D01*
X0204988Y0344948D02*
X0196866Y0344948D01*
X0196866Y0343375D02*
X0203413Y0343375D01*
X0202147Y0341802D02*
X0196866Y0341802D01*
X0196866Y0340228D02*
X0201944Y0340228D01*
X0201944Y0338655D02*
X0196866Y0338655D01*
X0196866Y0337082D02*
X0201944Y0337082D01*
X0201944Y0335508D02*
X0196866Y0335508D01*
X0196866Y0333935D02*
X0201944Y0333935D01*
X0201944Y0332362D02*
X0196866Y0332362D01*
X0196866Y0330788D02*
X0201944Y0330788D01*
X0201944Y0329215D02*
X0196866Y0329215D01*
X0196866Y0327642D02*
X0201944Y0327642D01*
X0201944Y0326068D02*
X0196866Y0326068D01*
X0196866Y0324495D02*
X0201944Y0324495D01*
X0201944Y0322922D02*
X0196866Y0322922D01*
X0196866Y0321349D02*
X0201944Y0321349D01*
X0201944Y0319775D02*
X0196866Y0319775D01*
X0196866Y0318202D02*
X0201944Y0318202D01*
X0201944Y0316629D02*
X0196866Y0316629D01*
X0196866Y0315055D02*
X0201944Y0315055D01*
X0201944Y0313482D02*
X0196866Y0313482D01*
X0196866Y0311909D02*
X0201944Y0311909D01*
X0201944Y0310335D02*
X0196866Y0310335D01*
X0196866Y0308762D02*
X0201944Y0308762D01*
X0201944Y0307189D02*
X0196866Y0307189D01*
X0196866Y0305615D02*
X0201944Y0305615D01*
X0201944Y0304042D02*
X0196866Y0304042D01*
X0196866Y0302469D02*
X0201944Y0302469D01*
X0201944Y0300895D02*
X0196866Y0300895D01*
X0196866Y0299322D02*
X0201944Y0299322D01*
X0201944Y0297749D02*
X0196866Y0297749D01*
X0196866Y0296175D02*
X0201944Y0296175D01*
X0201944Y0294602D02*
X0196866Y0294602D01*
X0196866Y0293029D02*
X0201944Y0293029D01*
X0201944Y0291456D02*
X0196866Y0291456D01*
X0196866Y0289882D02*
X0201944Y0289882D01*
X0201944Y0288309D02*
X0196866Y0288309D01*
X0196866Y0286736D02*
X0201944Y0286736D01*
X0201944Y0285162D02*
X0196866Y0285162D01*
X0196866Y0283589D02*
X0201944Y0283589D01*
X0201944Y0282016D02*
X0196866Y0282016D01*
X0196866Y0280442D02*
X0201944Y0280442D01*
X0201944Y0278869D02*
X0196866Y0278869D01*
X0196866Y0277296D02*
X0201944Y0277296D01*
X0201944Y0275722D02*
X0196866Y0275722D01*
X0196866Y0274149D02*
X0201944Y0274149D01*
X0202002Y0272576D02*
X0196866Y0272576D01*
X0196866Y0271002D02*
X0203064Y0271002D01*
X0204637Y0269429D02*
X0196866Y0269429D01*
X0196866Y0267856D02*
X0212432Y0267856D01*
X0212947Y0266282D02*
X0196866Y0266282D01*
X0207712Y0274149D02*
X0212432Y0274149D01*
X0215542Y0332362D02*
X0218858Y0332362D01*
X0217431Y0333935D02*
X0216969Y0333935D01*
X0216969Y0335508D02*
X0217431Y0335508D01*
X0217431Y0337082D02*
X0216969Y0337082D01*
X0216053Y0338655D02*
X0218348Y0338655D01*
X0225542Y0332362D02*
X0228858Y0332362D01*
X0227432Y0333935D02*
X0226969Y0333935D01*
X0226969Y0335508D02*
X0227432Y0335508D01*
X0227432Y0337082D02*
X0226969Y0337082D01*
X0226053Y0338655D02*
X0228348Y0338655D01*
D60*
X0244700Y0313263D02*
X0259700Y0313263D01*
X0262200Y0315763D01*
X0262200Y0340763D01*
X0257200Y0345763D01*
X0252199Y0345763D01*
D61*
X0249700Y0255763D03*
X0242200Y0250762D03*
G04 next file*
G75*
D62*
X0279527Y0188976D02*
X0303314Y0270762D03*
X0309314Y0270762D03*
X0330814Y0270762D03*
X0336814Y0270762D03*
D63*
X0338814Y0335763D03*
X0338814Y0345763D03*
X0328814Y0345763D03*
X0328814Y0335763D03*
X0318814Y0335763D03*
X0318814Y0345763D03*
X0308814Y0345763D03*
X0308814Y0335763D03*
X0298814Y0335763D03*
X0298814Y0345763D03*
D64*
X0331314Y0313263D03*
X0331314Y0293263D03*
D65*
X0283480Y0353598D02*
X0283480Y0192929D01*
X0354149Y0192929D01*
X0354149Y0353598D01*
X0283480Y0353598D01*
X0283480Y0352815D02*
X0354149Y0352815D01*
X0354149Y0351240D02*
X0283480Y0351240D01*
X0283480Y0349668D02*
X0295975Y0349668D01*
X0296839Y0350532D02*
X0294046Y0347739D01*
X0294046Y0347392D01*
X0289753Y0343099D01*
X0288978Y0342324D01*
X0288558Y0341312D01*
X0288558Y0272715D01*
X0288978Y0271702D01*
X0291478Y0269202D01*
X0292252Y0268427D01*
X0293266Y0268007D01*
X0299046Y0268007D01*
X0299046Y0266798D01*
X0300199Y0265645D01*
X0306558Y0265645D01*
X0306558Y0264715D01*
X0306978Y0263701D01*
X0321478Y0249202D01*
X0322253Y0248427D01*
X0323265Y0248007D01*
X0325723Y0248007D01*
X0326473Y0247258D01*
X0327992Y0246630D01*
X0329637Y0246630D01*
X0331156Y0247258D01*
X0332319Y0248422D01*
X0332948Y0249941D01*
X0332948Y0251586D01*
X0332319Y0253105D01*
X0331156Y0254267D01*
X0329637Y0254897D01*
X0327992Y0254897D01*
X0326473Y0254267D01*
X0325723Y0253519D01*
X0324956Y0253519D01*
X0312630Y0265845D01*
X0313583Y0266798D01*
X0313583Y0274729D01*
X0312430Y0275882D01*
X0300199Y0275882D01*
X0299046Y0274729D01*
X0299046Y0273519D01*
X0294956Y0273519D01*
X0294070Y0274405D01*
X0294070Y0333764D01*
X0296058Y0331776D01*
X0296058Y0295215D01*
X0296478Y0294202D01*
X0297253Y0293427D01*
X0322253Y0268427D01*
X0323265Y0268007D01*
X0326546Y0268007D01*
X0326546Y0266798D01*
X0327699Y0265645D01*
X0333558Y0265645D01*
X0333558Y0258854D01*
X0332810Y0258104D01*
X0332181Y0256586D01*
X0332181Y0254940D01*
X0332810Y0253422D01*
X0333973Y0252259D01*
X0335492Y0251630D01*
X0337137Y0251630D01*
X0338656Y0252259D01*
X0339819Y0253422D01*
X0340448Y0254940D01*
X0340448Y0256586D01*
X0339819Y0258104D01*
X0339070Y0258854D01*
X0339070Y0265645D01*
X0339930Y0265645D01*
X0341083Y0266798D01*
X0341083Y0274729D01*
X0339930Y0275882D01*
X0327699Y0275882D01*
X0326546Y0274729D01*
X0326546Y0273519D01*
X0324956Y0273519D01*
X0301570Y0296905D01*
X0301570Y0331776D01*
X0303583Y0333788D01*
X0303583Y0337739D01*
X0300790Y0340532D01*
X0296839Y0340532D01*
X0294070Y0337763D01*
X0294070Y0339622D01*
X0296141Y0341693D01*
X0296839Y0340995D01*
X0300790Y0340995D01*
X0303583Y0343788D01*
X0303583Y0347739D01*
X0300790Y0350532D01*
X0296839Y0350532D01*
X0296314Y0345763D02*
X0291314Y0340763D01*
X0291314Y0273263D01*
X0293814Y0270762D01*
X0303314Y0270762D01*
X0300039Y0275722D02*
X0294070Y0275722D01*
X0294070Y0277296D02*
X0313384Y0277296D01*
X0312589Y0275722D02*
X0314958Y0275722D01*
X0313583Y0274149D02*
X0316531Y0274149D01*
X0318104Y0272576D02*
X0313583Y0272576D01*
X0313583Y0271002D02*
X0319678Y0271002D01*
X0321251Y0269429D02*
X0313583Y0269429D01*
X0313583Y0267856D02*
X0326546Y0267856D01*
X0327061Y0266282D02*
X0313067Y0266282D01*
X0313766Y0264709D02*
X0333558Y0264709D01*
X0333558Y0263136D02*
X0315339Y0263136D01*
X0316913Y0261563D02*
X0333558Y0261563D01*
X0333558Y0259989D02*
X0318486Y0259989D01*
X0320059Y0258415D02*
X0333120Y0258415D01*
X0332287Y0256843D02*
X0321633Y0256843D01*
X0323206Y0255269D02*
X0332181Y0255269D01*
X0331728Y0253696D02*
X0332696Y0253696D01*
X0332726Y0252123D02*
X0334302Y0252123D01*
X0332948Y0250549D02*
X0354149Y0250549D01*
X0354149Y0248976D02*
X0332548Y0248976D01*
X0331300Y0247403D02*
X0354149Y0247403D01*
X0354149Y0245829D02*
X0283480Y0245829D01*
X0283480Y0244255D02*
X0354149Y0244255D01*
X0354149Y0242682D02*
X0283480Y0242682D01*
X0283480Y0241109D02*
X0354149Y0241109D01*
X0354149Y0239536D02*
X0283480Y0239536D01*
X0283480Y0237963D02*
X0354149Y0237963D01*
X0354149Y0236390D02*
X0283480Y0236390D01*
X0283480Y0234816D02*
X0354149Y0234816D01*
X0354149Y0233243D02*
X0283480Y0233243D01*
X0283480Y0231670D02*
X0354149Y0231670D01*
X0354149Y0230096D02*
X0283480Y0230096D01*
X0283480Y0228523D02*
X0354149Y0228523D01*
X0354149Y0226949D02*
X0283480Y0226949D01*
X0283480Y0225376D02*
X0354149Y0225376D01*
X0354149Y0223803D02*
X0283480Y0223803D01*
X0283480Y0222230D02*
X0354149Y0222230D01*
X0354149Y0220656D02*
X0283480Y0220656D01*
X0283480Y0219083D02*
X0354149Y0219083D01*
X0354149Y0217510D02*
X0283480Y0217510D01*
X0283480Y0215936D02*
X0354149Y0215936D01*
X0354149Y0214363D02*
X0283480Y0214363D01*
X0283480Y0212790D02*
X0354149Y0212790D01*
X0354149Y0211215D02*
X0283480Y0211215D01*
X0283480Y0209642D02*
X0354149Y0209642D01*
X0354149Y0208070D02*
X0283480Y0208070D01*
X0283480Y0206497D02*
X0354149Y0206497D01*
X0354149Y0204923D02*
X0283480Y0204923D01*
X0283480Y0203350D02*
X0354149Y0203350D01*
X0354149Y0201777D02*
X0283480Y0201777D01*
X0283480Y0200203D02*
X0354149Y0200203D01*
X0354149Y0198630D02*
X0283480Y0198630D01*
X0283480Y0197057D02*
X0354149Y0197057D01*
X0354149Y0195483D02*
X0283480Y0195483D01*
X0283480Y0193910D02*
X0354149Y0193910D01*
X0328814Y0250762D02*
X0323814Y0250762D01*
X0309314Y0265263D01*
X0309314Y0270762D01*
X0306561Y0264709D02*
X0283480Y0264709D01*
X0283480Y0263136D02*
X0307544Y0263136D01*
X0309117Y0261563D02*
X0283480Y0261563D01*
X0283480Y0259989D02*
X0310691Y0259989D01*
X0312264Y0258415D02*
X0283480Y0258415D01*
X0283480Y0256843D02*
X0313838Y0256843D01*
X0315411Y0255269D02*
X0283480Y0255269D01*
X0283480Y0253696D02*
X0316984Y0253696D01*
X0318558Y0252123D02*
X0283480Y0252123D01*
X0283480Y0250549D02*
X0320131Y0250549D01*
X0321704Y0248976D02*
X0283480Y0248976D01*
X0283480Y0247403D02*
X0326329Y0247403D01*
X0325901Y0253696D02*
X0324779Y0253696D01*
X0323814Y0270762D02*
X0298814Y0295763D01*
X0298814Y0335763D01*
X0296536Y0340228D02*
X0294677Y0340228D01*
X0294962Y0338655D02*
X0294070Y0338655D01*
X0294070Y0332362D02*
X0295472Y0332362D01*
X0296058Y0330788D02*
X0294070Y0330788D01*
X0294070Y0329215D02*
X0296058Y0329215D01*
X0296058Y0327642D02*
X0294070Y0327642D01*
X0294070Y0326068D02*
X0296058Y0326068D01*
X0296058Y0324495D02*
X0294070Y0324495D01*
X0294070Y0322922D02*
X0296058Y0322922D01*
X0296058Y0321349D02*
X0294070Y0321349D01*
X0294070Y0319775D02*
X0296058Y0319775D01*
X0296058Y0318202D02*
X0294070Y0318202D01*
X0294070Y0316629D02*
X0296058Y0316629D01*
X0296058Y0315055D02*
X0294070Y0315055D01*
X0294070Y0313482D02*
X0296058Y0313482D01*
X0296058Y0311909D02*
X0294070Y0311909D01*
X0294070Y0310335D02*
X0296058Y0310335D01*
X0296058Y0308762D02*
X0294070Y0308762D01*
X0294070Y0307189D02*
X0296058Y0307189D01*
X0296058Y0305615D02*
X0294070Y0305615D01*
X0294070Y0304042D02*
X0296058Y0304042D01*
X0296058Y0302469D02*
X0294070Y0302469D01*
X0294070Y0300895D02*
X0296058Y0300895D01*
X0296058Y0299322D02*
X0294070Y0299322D01*
X0294070Y0297749D02*
X0296058Y0297749D01*
X0296058Y0296175D02*
X0294070Y0296175D01*
X0294070Y0294602D02*
X0296312Y0294602D01*
X0297652Y0293029D02*
X0294070Y0293029D01*
X0294070Y0291456D02*
X0299225Y0291456D01*
X0300798Y0289882D02*
X0294070Y0289882D01*
X0294070Y0288309D02*
X0302371Y0288309D01*
X0303945Y0286736D02*
X0294070Y0286736D01*
X0294070Y0285162D02*
X0305518Y0285162D01*
X0307091Y0283589D02*
X0294070Y0283589D01*
X0294070Y0282016D02*
X0308665Y0282016D01*
X0310237Y0280442D02*
X0294070Y0280442D01*
X0294070Y0278869D02*
X0311811Y0278869D01*
X0314886Y0283589D02*
X0354149Y0283589D01*
X0354149Y0285162D02*
X0313313Y0285162D01*
X0311740Y0286736D02*
X0354149Y0286736D01*
X0354149Y0288309D02*
X0310166Y0288309D01*
X0308593Y0289882D02*
X0327714Y0289882D01*
X0327549Y0290047D02*
X0328098Y0289498D01*
X0328727Y0289041D01*
X0329418Y0288688D01*
X0330158Y0288448D01*
X0330926Y0288326D01*
X0331216Y0288326D01*
X0331216Y0293165D01*
X0326377Y0293165D01*
X0326377Y0292875D01*
X0326499Y0292107D01*
X0326739Y0291368D01*
X0327092Y0290676D01*
X0327549Y0290047D01*
X0326711Y0291456D02*
X0307020Y0291456D01*
X0305446Y0293029D02*
X0326377Y0293029D01*
X0326377Y0293362D02*
X0331216Y0293362D01*
X0331216Y0298200D01*
X0330926Y0298200D01*
X0330158Y0298079D01*
X0329418Y0297839D01*
X0328727Y0297486D01*
X0328098Y0297029D01*
X0327549Y0296479D01*
X0327092Y0295851D01*
X0326739Y0295159D01*
X0326499Y0294419D01*
X0326377Y0293652D01*
X0326377Y0293362D01*
X0326558Y0294602D02*
X0303873Y0294602D01*
X0302300Y0296175D02*
X0327328Y0296175D01*
X0329243Y0297749D02*
X0301570Y0297749D01*
X0301570Y0299322D02*
X0354149Y0299322D01*
X0354149Y0297749D02*
X0333386Y0297749D01*
X0333210Y0297839D02*
X0332470Y0298079D01*
X0331703Y0298200D01*
X0331413Y0298200D01*
X0331413Y0293362D01*
X0331216Y0293362D01*
X0331216Y0293165D01*
X0331413Y0293165D01*
X0331413Y0293362D01*
X0336251Y0293362D01*
X0336251Y0293652D01*
X0336129Y0294419D01*
X0335890Y0295159D01*
X0335537Y0295851D01*
X0335080Y0296479D01*
X0334531Y0297029D01*
X0333902Y0297486D01*
X0333210Y0297839D01*
X0331413Y0297749D02*
X0331216Y0297749D01*
X0331216Y0296175D02*
X0331413Y0296175D01*
X0331413Y0294602D02*
X0331216Y0294602D01*
X0331413Y0293165D02*
X0336251Y0293165D01*
X0336251Y0292875D01*
X0336129Y0292107D01*
X0335890Y0291368D01*
X0335537Y0290676D01*
X0335080Y0290047D01*
X0334531Y0289498D01*
X0333902Y0289041D01*
X0333210Y0288688D01*
X0332470Y0288448D01*
X0331703Y0288326D01*
X0331413Y0288326D01*
X0331413Y0293165D01*
X0331413Y0293029D02*
X0331216Y0293029D01*
X0331216Y0291456D02*
X0331413Y0291456D01*
X0331413Y0289882D02*
X0331216Y0289882D01*
X0334915Y0289882D02*
X0354149Y0289882D01*
X0354149Y0291456D02*
X0335918Y0291456D01*
X0336251Y0293029D02*
X0354149Y0293029D01*
X0354149Y0294602D02*
X0336070Y0294602D01*
X0335301Y0296175D02*
X0354149Y0296175D01*
X0354149Y0300895D02*
X0301570Y0300895D01*
X0301570Y0302469D02*
X0354149Y0302469D01*
X0354149Y0304042D02*
X0301570Y0304042D01*
X0301570Y0305615D02*
X0354149Y0305615D01*
X0354149Y0307189D02*
X0301570Y0307189D01*
X0301570Y0308762D02*
X0328807Y0308762D01*
X0328415Y0308924D02*
X0330296Y0308145D01*
X0332332Y0308145D01*
X0334214Y0308924D01*
X0335009Y0309720D01*
X0347019Y0309720D01*
X0348322Y0310260D01*
X0349318Y0311256D01*
X0351818Y0313756D01*
X0352358Y0315058D01*
X0352358Y0341468D01*
X0351818Y0342771D01*
X0350822Y0343766D01*
X0345822Y0348767D01*
X0344519Y0349307D01*
X0342015Y0349307D01*
X0340790Y0350532D01*
X0336839Y0350532D01*
X0334046Y0347739D01*
X0334046Y0343788D01*
X0336839Y0340995D01*
X0340790Y0340995D01*
X0342015Y0342220D01*
X0342347Y0342220D01*
X0345271Y0339295D01*
X0345271Y0317231D01*
X0344846Y0316807D01*
X0335009Y0316807D01*
X0334214Y0317602D01*
X0332332Y0318381D01*
X0330296Y0318381D01*
X0328415Y0317602D01*
X0326975Y0316163D01*
X0326196Y0314281D01*
X0326196Y0312245D01*
X0326975Y0310364D01*
X0328415Y0308924D01*
X0327003Y0310335D02*
X0301570Y0310335D01*
X0301570Y0311909D02*
X0326336Y0311909D01*
X0326196Y0313482D02*
X0301570Y0313482D01*
X0301570Y0315055D02*
X0326517Y0315055D01*
X0327441Y0316629D02*
X0301570Y0316629D01*
X0301570Y0318202D02*
X0329863Y0318202D01*
X0332766Y0318202D02*
X0345271Y0318202D01*
X0345271Y0319775D02*
X0301570Y0319775D01*
X0301570Y0321349D02*
X0345271Y0321349D01*
X0345271Y0322922D02*
X0301570Y0322922D01*
X0301570Y0324495D02*
X0345271Y0324495D01*
X0345271Y0326068D02*
X0301570Y0326068D01*
X0301570Y0327642D02*
X0345271Y0327642D01*
X0345271Y0329215D02*
X0301570Y0329215D01*
X0301570Y0330788D02*
X0345271Y0330788D01*
X0345271Y0332362D02*
X0341899Y0332362D01*
X0340714Y0331176D02*
X0343402Y0333863D01*
X0343402Y0335651D01*
X0338926Y0335651D01*
X0338926Y0335876D01*
X0343402Y0335876D01*
X0343402Y0337664D01*
X0340714Y0340351D01*
X0338926Y0340351D01*
X0338926Y0335876D01*
X0338702Y0335876D01*
X0338702Y0340351D01*
X0336913Y0340351D01*
X0334227Y0337664D01*
X0334227Y0335876D01*
X0338702Y0335876D01*
X0338702Y0335651D01*
X0338926Y0335651D01*
X0338926Y0331176D01*
X0340714Y0331176D01*
X0338702Y0331176D02*
X0338702Y0335651D01*
X0334227Y0335651D01*
X0334227Y0333863D01*
X0336913Y0331176D01*
X0338702Y0331176D01*
X0338702Y0332362D02*
X0338926Y0332362D01*
X0338926Y0333935D02*
X0338702Y0333935D01*
X0338702Y0335508D02*
X0338926Y0335508D01*
X0338926Y0337082D02*
X0338702Y0337082D01*
X0338702Y0338655D02*
X0338926Y0338655D01*
X0338926Y0340228D02*
X0338702Y0340228D01*
X0336792Y0340228D02*
X0331092Y0340228D01*
X0330790Y0340532D02*
X0326839Y0340532D01*
X0324046Y0337739D01*
X0324046Y0333788D01*
X0326839Y0330995D01*
X0330790Y0330995D01*
X0333583Y0333788D01*
X0333583Y0337739D01*
X0330790Y0340532D01*
X0330790Y0340995D02*
X0333583Y0343788D01*
X0333583Y0347739D01*
X0330790Y0350532D01*
X0326839Y0350532D01*
X0324046Y0347739D01*
X0324046Y0343788D01*
X0326839Y0340995D01*
X0330790Y0340995D01*
X0331596Y0341802D02*
X0336033Y0341802D01*
X0334459Y0343375D02*
X0333170Y0343375D01*
X0333583Y0344948D02*
X0334046Y0344948D01*
X0334046Y0346522D02*
X0333583Y0346522D01*
X0333227Y0348095D02*
X0334402Y0348095D01*
X0335975Y0349668D02*
X0331653Y0349668D01*
X0325975Y0349668D02*
X0321653Y0349668D01*
X0320790Y0350532D02*
X0316839Y0350532D01*
X0314046Y0347739D01*
X0314046Y0343788D01*
X0316839Y0340995D01*
X0320790Y0340995D01*
X0323583Y0343788D01*
X0323583Y0347739D01*
X0320790Y0350532D01*
X0323227Y0348095D02*
X0324402Y0348095D01*
X0324046Y0346522D02*
X0323583Y0346522D01*
X0323583Y0344948D02*
X0324046Y0344948D01*
X0324459Y0343375D02*
X0323170Y0343375D01*
X0321596Y0341802D02*
X0326033Y0341802D01*
X0326536Y0340228D02*
X0321093Y0340228D01*
X0320790Y0340532D02*
X0316839Y0340532D01*
X0314046Y0337739D01*
X0314046Y0333788D01*
X0316839Y0330995D01*
X0320790Y0330995D01*
X0323583Y0333788D01*
X0323583Y0337739D01*
X0320790Y0340532D01*
X0322667Y0338655D02*
X0324962Y0338655D01*
X0324046Y0337082D02*
X0323583Y0337082D01*
X0323583Y0335508D02*
X0324046Y0335508D01*
X0324046Y0333935D02*
X0323583Y0333935D01*
X0322156Y0332362D02*
X0325472Y0332362D01*
X0332156Y0332362D02*
X0335729Y0332362D01*
X0334227Y0333935D02*
X0333583Y0333935D01*
X0333583Y0335508D02*
X0334227Y0335508D01*
X0334227Y0337082D02*
X0333583Y0337082D01*
X0332667Y0338655D02*
X0335218Y0338655D01*
X0340837Y0340228D02*
X0344339Y0340228D01*
X0345271Y0338655D02*
X0342410Y0338655D01*
X0343402Y0337082D02*
X0345271Y0337082D01*
X0345271Y0335508D02*
X0343402Y0335508D01*
X0343402Y0333935D02*
X0345271Y0333935D01*
X0342765Y0341802D02*
X0341596Y0341802D01*
X0341653Y0349668D02*
X0354149Y0349668D01*
X0354149Y0348095D02*
X0346494Y0348095D01*
X0348067Y0346522D02*
X0354149Y0346522D01*
X0354149Y0344948D02*
X0349641Y0344948D01*
X0351214Y0343375D02*
X0354149Y0343375D01*
X0354149Y0341802D02*
X0352220Y0341802D01*
X0352358Y0340228D02*
X0354149Y0340228D01*
X0354149Y0338655D02*
X0352358Y0338655D01*
X0352358Y0337082D02*
X0354149Y0337082D01*
X0354149Y0335508D02*
X0352358Y0335508D01*
X0352358Y0333935D02*
X0354149Y0333935D01*
X0354149Y0332362D02*
X0352358Y0332362D01*
X0352358Y0330788D02*
X0354149Y0330788D01*
X0354149Y0329215D02*
X0352358Y0329215D01*
X0352358Y0327642D02*
X0354149Y0327642D01*
X0354149Y0326068D02*
X0352358Y0326068D01*
X0352358Y0324495D02*
X0354149Y0324495D01*
X0354149Y0322922D02*
X0352358Y0322922D01*
X0352358Y0321349D02*
X0354149Y0321349D01*
X0354149Y0319775D02*
X0352358Y0319775D01*
X0352358Y0318202D02*
X0354149Y0318202D01*
X0354149Y0316629D02*
X0352358Y0316629D01*
X0352356Y0315055D02*
X0354149Y0315055D01*
X0354149Y0313482D02*
X0351544Y0313482D01*
X0349971Y0311909D02*
X0354149Y0311909D01*
X0354149Y0310335D02*
X0348397Y0310335D01*
X0354149Y0308762D02*
X0333821Y0308762D01*
X0319606Y0278869D02*
X0354149Y0278869D01*
X0354149Y0277296D02*
X0321180Y0277296D01*
X0322753Y0275722D02*
X0327539Y0275722D01*
X0326546Y0274149D02*
X0324326Y0274149D01*
X0323814Y0270762D02*
X0330814Y0270762D01*
X0336314Y0270263D02*
X0336814Y0270762D01*
X0336314Y0270263D02*
X0336314Y0255763D01*
X0338327Y0252123D02*
X0354149Y0252123D01*
X0354149Y0253696D02*
X0339932Y0253696D01*
X0340448Y0255269D02*
X0354149Y0255269D01*
X0354149Y0256843D02*
X0340342Y0256843D01*
X0339508Y0258415D02*
X0354149Y0258415D01*
X0354149Y0259989D02*
X0339070Y0259989D01*
X0339070Y0261563D02*
X0354149Y0261563D01*
X0354149Y0263136D02*
X0339070Y0263136D01*
X0339070Y0264709D02*
X0354149Y0264709D01*
X0354149Y0266282D02*
X0340567Y0266282D01*
X0341083Y0267856D02*
X0354149Y0267856D01*
X0354149Y0269429D02*
X0341083Y0269429D01*
X0341083Y0271002D02*
X0354149Y0271002D01*
X0354149Y0272576D02*
X0341083Y0272576D01*
X0341083Y0274149D02*
X0354149Y0274149D01*
X0354149Y0275722D02*
X0340089Y0275722D01*
X0354149Y0280442D02*
X0318033Y0280442D01*
X0316460Y0282016D02*
X0354149Y0282016D01*
X0316536Y0340228D02*
X0311093Y0340228D01*
X0310790Y0340532D02*
X0306839Y0340532D01*
X0304046Y0337739D01*
X0304046Y0333788D01*
X0306839Y0330995D01*
X0310790Y0330995D01*
X0313583Y0333788D01*
X0313583Y0337739D01*
X0310790Y0340532D01*
X0310790Y0340995D02*
X0313583Y0343788D01*
X0313583Y0347739D01*
X0310790Y0350532D01*
X0306839Y0350532D01*
X0304046Y0347739D01*
X0304046Y0343788D01*
X0306839Y0340995D01*
X0310790Y0340995D01*
X0311596Y0341802D02*
X0316033Y0341802D01*
X0314459Y0343375D02*
X0313169Y0343375D01*
X0313583Y0344948D02*
X0314046Y0344948D01*
X0314046Y0346522D02*
X0313583Y0346522D01*
X0313227Y0348095D02*
X0314402Y0348095D01*
X0315975Y0349668D02*
X0311652Y0349668D01*
X0306535Y0340228D02*
X0301093Y0340228D01*
X0301596Y0341802D02*
X0306033Y0341802D01*
X0304459Y0343375D02*
X0303170Y0343375D01*
X0303583Y0344948D02*
X0304046Y0344948D01*
X0304046Y0346522D02*
X0303583Y0346522D01*
X0303227Y0348095D02*
X0304402Y0348095D01*
X0305975Y0349668D02*
X0301653Y0349668D01*
X0298814Y0345763D02*
X0296314Y0345763D01*
X0294402Y0348095D02*
X0283480Y0348095D01*
X0283480Y0346522D02*
X0293175Y0346522D01*
X0291602Y0344948D02*
X0283480Y0344948D01*
X0283480Y0343375D02*
X0290027Y0343375D01*
X0288761Y0341802D02*
X0283480Y0341802D01*
X0283480Y0340228D02*
X0288558Y0340228D01*
X0288558Y0338655D02*
X0283480Y0338655D01*
X0283480Y0337082D02*
X0288558Y0337082D01*
X0288558Y0335508D02*
X0283480Y0335508D01*
X0283480Y0333935D02*
X0288558Y0333935D01*
X0288558Y0332362D02*
X0283480Y0332362D01*
X0283480Y0330788D02*
X0288558Y0330788D01*
X0288558Y0329215D02*
X0283480Y0329215D01*
X0283480Y0327642D02*
X0288558Y0327642D01*
X0288558Y0326068D02*
X0283480Y0326068D01*
X0283480Y0324495D02*
X0288558Y0324495D01*
X0288558Y0322922D02*
X0283480Y0322922D01*
X0283480Y0321349D02*
X0288558Y0321349D01*
X0288558Y0319775D02*
X0283480Y0319775D01*
X0283480Y0318202D02*
X0288558Y0318202D01*
X0288558Y0316629D02*
X0283480Y0316629D01*
X0283480Y0315055D02*
X0288558Y0315055D01*
X0288558Y0313482D02*
X0283480Y0313482D01*
X0283480Y0311909D02*
X0288558Y0311909D01*
X0288558Y0310335D02*
X0283480Y0310335D01*
X0283480Y0308762D02*
X0288558Y0308762D01*
X0288558Y0307189D02*
X0283480Y0307189D01*
X0283480Y0305615D02*
X0288558Y0305615D01*
X0288558Y0304042D02*
X0283480Y0304042D01*
X0283480Y0302469D02*
X0288558Y0302469D01*
X0288558Y0300895D02*
X0283480Y0300895D01*
X0283480Y0299322D02*
X0288558Y0299322D01*
X0288558Y0297749D02*
X0283480Y0297749D01*
X0283480Y0296175D02*
X0288558Y0296175D01*
X0288558Y0294602D02*
X0283480Y0294602D01*
X0283480Y0293029D02*
X0288558Y0293029D01*
X0288558Y0291456D02*
X0283480Y0291456D01*
X0283480Y0289882D02*
X0288558Y0289882D01*
X0288558Y0288309D02*
X0283480Y0288309D01*
X0283480Y0286736D02*
X0288558Y0286736D01*
X0288558Y0285162D02*
X0283480Y0285162D01*
X0283480Y0283589D02*
X0288558Y0283589D01*
X0288558Y0282016D02*
X0283480Y0282016D01*
X0283480Y0280442D02*
X0288558Y0280442D01*
X0288558Y0278869D02*
X0283480Y0278869D01*
X0283480Y0277296D02*
X0288558Y0277296D01*
X0288558Y0275722D02*
X0283480Y0275722D01*
X0283480Y0274149D02*
X0288558Y0274149D01*
X0288616Y0272576D02*
X0283480Y0272576D01*
X0283480Y0271002D02*
X0289677Y0271002D01*
X0291251Y0269429D02*
X0283480Y0269429D01*
X0283480Y0267856D02*
X0299046Y0267856D01*
X0299561Y0266282D02*
X0283480Y0266282D01*
X0294326Y0274149D02*
X0299046Y0274149D01*
X0302156Y0332362D02*
X0305472Y0332362D01*
X0304046Y0333935D02*
X0303583Y0333935D01*
X0303583Y0335508D02*
X0304046Y0335508D01*
X0304046Y0337082D02*
X0303583Y0337082D01*
X0302667Y0338655D02*
X0304962Y0338655D01*
X0312156Y0332362D02*
X0315472Y0332362D01*
X0314046Y0333935D02*
X0313583Y0333935D01*
X0313583Y0335508D02*
X0314046Y0335508D01*
X0314046Y0337082D02*
X0313583Y0337082D01*
X0312667Y0338655D02*
X0314962Y0338655D01*
D66*
X0331314Y0313263D02*
X0346314Y0313263D01*
X0348814Y0315763D01*
X0348814Y0340763D01*
X0343814Y0345763D01*
X0338814Y0345763D01*
D67*
X0336314Y0255763D03*
X0328814Y0250762D03*
M02*