%MOIN*%
%OFA0B0*%
%FSLAX25Y25*%
%IPPOS*%
%LPD*%
%AMOC8*
5,1,8,0,0,$1,22.5*%
%AMOC80*
5,1,8,0,0,$1,22.5*%
%AMOC81*
5,1,8,0,0,$1,22.5*%
%AMOC80*
5,1,8,0,0,$1,22.5*%
%AMOC81*
5,1,8,0,0,$1,22.5*%
%AMOC80*
5,1,8,0,0,$1,22.5*%
%AMOC81*
5,1,8,0,0,$1,22.5*%
%AMOC80*
5,1,8,0,0,$1,22.5*%
%ADD10C,0.008*%
%ADD11C,0.006000000000000001*%
%ADD12C,0.005*%
%ADD13C,0.01*%
%ADD14C,0.00984*%
%ADD15C,0.007*%
%ADD16R,0.2X0.05*%
%ADD27C,0.008*%
%ADD28C,0.006000000000000001*%
%ADD29C,0.005*%
%ADD30C,0.01*%
%ADD31C,0.00984*%
%ADD32C,0.007*%
%ADD33R,0.2X0.05*%
%ADD34C,0.008*%
%ADD35C,0.006000000000000001*%
%ADD36C,0.005*%
%ADD37C,0.01*%
%ADD38C,0.00984*%
%ADD39C,0.007*%
%ADD40R,0.2X0.05*%
%ADD41C,0.008*%
%ADD42C,0.006000000000000001*%
%ADD43C,0.005*%
%ADD44C,0.01*%
%ADD45C,0.00984*%
%ADD46C,0.007*%
%ADD47R,0.2X0.05*%
%ADD48C,0.008*%
%ADD49C,0.006000000000000001*%
%ADD50C,0.005*%
%ADD51C,0.01*%
%ADD52C,0.00984*%
%ADD53C,0.007*%
%ADD54R,0.2X0.05*%
%ADD55C,0.008*%
%ADD56C,0.006000000000000001*%
%ADD57C,0.005*%
%ADD58C,0.01*%
%ADD59C,0.00984*%
%ADD60C,0.007*%
%ADD61R,0.2X0.05*%
%ADD62C,0.008*%
%ADD63C,0.006000000000000001*%
%ADD64C,0.005*%
%ADD65C,0.01*%
%ADD66C,0.00984*%
%ADD67C,0.007*%
%ADD68R,0.2X0.05*%
%ADD69C,0.008*%
%ADD70C,0.006000000000000001*%
%ADD71C,0.005*%
%ADD72C,0.01*%
%ADD73C,0.00984*%
%ADD74C,0.007*%
%ADD75R,0.2X0.05*%
G75*
D10*
X0027658Y0023997D02*
X0026872Y0024783D01*
X0026872Y0026356D01*
X0027658Y0027142D01*
X0027658Y0029074D02*
X0026872Y0029859D01*
X0026872Y0031432D01*
X0027658Y0032217D01*
X0027658Y0029074D02*
X0030802Y0029074D01*
X0031588Y0029859D01*
X0031588Y0031432D01*
X0030802Y0032217D01*
X0030802Y0027142D02*
X0031588Y0026356D01*
X0031588Y0024783D01*
X0030802Y0023997D01*
X0027658Y0023997D01*
X0026872Y0039224D02*
X0026872Y0041582D01*
X0027658Y0042368D01*
X0028444Y0042368D01*
X0029230Y0041582D01*
X0029230Y0039224D01*
X0029230Y0041582D02*
X0030016Y0042368D01*
X0030802Y0042368D01*
X0031588Y0041582D01*
X0031588Y0039224D01*
X0026872Y0039224D01*
X0030802Y0044298D02*
X0029230Y0045870D01*
X0026872Y0045870D01*
X0029230Y0045870D02*
X0030802Y0047442D01*
X0031588Y0047442D01*
X0031588Y0044298D02*
X0030802Y0044298D01*
X0029230Y0049374D02*
X0029230Y0052518D01*
X0026872Y0054450D02*
X0031588Y0054450D01*
X0026872Y0057593D01*
X0031588Y0057593D01*
X0030802Y0059524D02*
X0027658Y0059524D01*
X0026872Y0060311D01*
X0026872Y0061883D01*
X0027658Y0062669D01*
X0029230Y0064600D02*
X0029230Y0067744D01*
X0030016Y0069675D02*
X0029230Y0070461D01*
X0029230Y0072033D01*
X0028444Y0072819D01*
X0027658Y0072819D01*
X0026872Y0072033D01*
X0026872Y0070461D01*
X0027658Y0069675D01*
X0030016Y0069675D02*
X0030802Y0069675D01*
X0031588Y0070461D01*
X0031588Y0072033D01*
X0030802Y0072819D01*
X0030016Y0074750D02*
X0031588Y0076322D01*
X0030016Y0077893D01*
X0026872Y0077893D01*
X0026872Y0074750D02*
X0030016Y0074750D01*
X0029230Y0074750D02*
X0029230Y0077893D01*
X0029230Y0084901D02*
X0029230Y0088045D01*
X0031588Y0087259D02*
X0029230Y0084901D01*
X0026872Y0087259D02*
X0031588Y0087259D01*
X0030802Y0092514D02*
X0031588Y0093300D01*
X0031588Y0094871D01*
X0030802Y0095657D01*
X0027658Y0092514D01*
X0026872Y0093300D01*
X0026872Y0094871D01*
X0027658Y0095657D01*
X0030802Y0095657D01*
X0030802Y0092514D02*
X0027658Y0092514D01*
X0027658Y0090762D02*
X0026872Y0090762D01*
X0026872Y0089976D01*
X0027658Y0089976D01*
X0027658Y0090762D01*
X0030802Y0062669D02*
X0031588Y0061883D01*
X0031588Y0060311D01*
X0030802Y0059524D01*
X0058370Y0085747D02*
X0063086Y0085747D01*
X0063086Y0088105D01*
X0062300Y0088891D01*
X0060729Y0088891D01*
X0059943Y0088105D01*
X0059943Y0085747D01*
X0060729Y0083815D02*
X0059943Y0083029D01*
X0059943Y0081457D01*
X0060729Y0080671D01*
X0062300Y0080671D01*
X0063086Y0081457D01*
X0063086Y0083029D01*
X0062300Y0083815D01*
X0060729Y0083815D01*
X0060729Y0078740D02*
X0059943Y0077954D01*
X0059943Y0076382D01*
X0060729Y0075596D01*
X0062300Y0075596D01*
X0063086Y0076382D01*
X0063086Y0077954D01*
X0062300Y0078740D01*
X0060729Y0078740D01*
X0059943Y0073665D02*
X0062300Y0073665D01*
X0063086Y0072879D01*
X0063086Y0071306D01*
X0062300Y0070521D01*
X0063086Y0068590D02*
X0063086Y0066232D01*
X0062300Y0065446D01*
X0060729Y0065446D01*
X0059943Y0066232D01*
X0059943Y0068590D01*
X0059943Y0070521D02*
X0064659Y0070521D01*
X0068211Y0066958D02*
X0068211Y0065386D01*
X0068997Y0064600D01*
X0068211Y0062669D02*
X0068211Y0059524D01*
X0071355Y0062669D01*
X0072141Y0062669D01*
X0072927Y0061883D01*
X0072927Y0060311D01*
X0072141Y0059524D01*
X0072141Y0057593D02*
X0068997Y0054450D01*
X0068211Y0055235D01*
X0068211Y0056807D01*
X0068997Y0057593D01*
X0072141Y0057593D01*
X0072927Y0056807D01*
X0072927Y0055235D01*
X0072141Y0054450D01*
X0068997Y0054450D01*
X0068211Y0052518D02*
X0068211Y0049374D01*
X0071355Y0052518D01*
X0072141Y0052518D01*
X0072927Y0051732D01*
X0072927Y0050160D01*
X0072141Y0049374D01*
X0072141Y0044905D02*
X0071355Y0044905D01*
X0070569Y0044120D01*
X0070569Y0042548D01*
X0071355Y0041762D01*
X0072141Y0041762D01*
X0072927Y0042548D01*
X0072927Y0044120D01*
X0072141Y0044905D01*
X0070569Y0044120D02*
X0069783Y0044905D01*
X0068997Y0044905D01*
X0068211Y0044120D01*
X0068211Y0042548D01*
X0068997Y0041762D01*
X0069783Y0041762D01*
X0070569Y0042548D01*
X0072141Y0039830D02*
X0068997Y0039830D01*
X0068211Y0039044D01*
X0068211Y0037472D01*
X0068997Y0036686D01*
X0072141Y0039830D01*
X0072927Y0039044D01*
X0072927Y0037472D01*
X0072141Y0036686D01*
X0068997Y0036686D01*
X0068997Y0034934D02*
X0068211Y0034934D01*
X0068211Y0034149D01*
X0068997Y0034149D01*
X0068997Y0034934D01*
X0068997Y0032217D02*
X0068211Y0031432D01*
X0068211Y0029859D01*
X0068997Y0029074D01*
X0068211Y0027142D02*
X0068211Y0023997D01*
X0068211Y0025570D02*
X0072927Y0025570D01*
X0071355Y0023997D01*
X0070569Y0029074D02*
X0071355Y0030646D01*
X0071355Y0031432D01*
X0070569Y0032217D01*
X0068997Y0032217D01*
X0070569Y0029074D02*
X0072927Y0029074D01*
X0072927Y0032217D01*
X0074906Y0029074D02*
X0079623Y0029074D01*
X0079623Y0031432D01*
X0078837Y0032217D01*
X0077265Y0032217D01*
X0076479Y0031432D01*
X0076479Y0029074D01*
X0077265Y0027142D02*
X0080409Y0027142D01*
X0081195Y0026356D01*
X0081195Y0024783D01*
X0080409Y0023997D01*
X0077265Y0023997D01*
X0076479Y0024783D01*
X0076479Y0026356D01*
X0077265Y0027142D01*
X0077265Y0034149D02*
X0076479Y0034934D01*
X0076479Y0036506D01*
X0077265Y0034149D02*
X0078837Y0034149D01*
X0079623Y0034934D01*
X0079623Y0036506D01*
X0078837Y0037293D01*
X0078050Y0037293D01*
X0078050Y0034149D01*
X0076479Y0039224D02*
X0079623Y0039224D01*
X0079623Y0041582D01*
X0078837Y0042368D01*
X0076479Y0042368D01*
X0076479Y0044298D02*
X0076479Y0046657D01*
X0077265Y0047442D01*
X0080409Y0047442D01*
X0081195Y0046657D01*
X0081195Y0044298D01*
X0076479Y0044298D01*
X0076479Y0050946D02*
X0081195Y0050946D01*
X0081195Y0049374D02*
X0081195Y0052518D01*
X0081195Y0054450D02*
X0077265Y0054450D01*
X0076479Y0055235D01*
X0076479Y0056807D01*
X0077265Y0057593D01*
X0081195Y0057593D01*
X0084746Y0056927D02*
X0084746Y0058499D01*
X0085532Y0059285D01*
X0084746Y0061217D02*
X0089462Y0061217D01*
X0087890Y0062788D01*
X0089462Y0064359D01*
X0084746Y0064359D01*
X0084746Y0067863D02*
X0089462Y0067863D01*
X0089462Y0066292D02*
X0089462Y0069436D01*
X0088676Y0071367D02*
X0089462Y0072153D01*
X0089462Y0073725D01*
X0088676Y0074511D01*
X0087890Y0074511D01*
X0084746Y0071367D01*
X0084746Y0074511D01*
X0085532Y0076442D02*
X0084746Y0077228D01*
X0084746Y0078800D01*
X0085532Y0079586D01*
X0086318Y0079586D01*
X0087104Y0078800D01*
X0087104Y0078014D01*
X0087104Y0078800D02*
X0087890Y0079586D01*
X0088676Y0079586D01*
X0089462Y0078800D01*
X0089462Y0077228D01*
X0088676Y0076442D01*
X0088676Y0081517D02*
X0089462Y0082303D01*
X0089462Y0083875D01*
X0088676Y0084661D01*
X0085532Y0081517D01*
X0084746Y0082303D01*
X0084746Y0083875D01*
X0085532Y0084661D01*
X0088676Y0084661D01*
X0088676Y0086591D02*
X0089462Y0087377D01*
X0089462Y0088950D01*
X0088676Y0089736D01*
X0085532Y0086591D01*
X0084746Y0087377D01*
X0084746Y0088950D01*
X0085532Y0089736D01*
X0088676Y0089736D01*
X0087890Y0092454D02*
X0087890Y0094026D01*
X0087104Y0094812D01*
X0084746Y0094812D01*
X0084746Y0092454D01*
X0085532Y0091668D01*
X0086318Y0092454D01*
X0086318Y0094812D01*
X0085532Y0086591D02*
X0088676Y0086591D01*
X0088676Y0081517D02*
X0085532Y0081517D01*
X0088676Y0059285D02*
X0089462Y0058499D01*
X0089462Y0056927D01*
X0088676Y0056141D01*
X0085532Y0056141D01*
X0084746Y0056927D01*
X0084746Y0049135D02*
X0087890Y0045991D01*
X0087104Y0044060D02*
X0086318Y0044060D01*
X0086318Y0040916D01*
X0085532Y0040916D02*
X0087104Y0040916D01*
X0087890Y0041702D01*
X0087890Y0043274D01*
X0087104Y0044060D01*
X0084746Y0041702D02*
X0085532Y0040916D01*
X0084746Y0041702D02*
X0084746Y0043274D01*
X0084746Y0045991D02*
X0087890Y0049135D01*
X0087104Y0038984D02*
X0084746Y0038984D01*
X0084746Y0037411D02*
X0087104Y0037411D01*
X0087890Y0038198D01*
X0087104Y0038984D01*
X0087104Y0037411D02*
X0087890Y0036626D01*
X0087890Y0035841D01*
X0084746Y0035841D01*
X0084746Y0034029D02*
X0084746Y0032457D01*
X0084746Y0033243D02*
X0087890Y0033243D01*
X0087890Y0032457D01*
X0089462Y0033243D02*
X0090248Y0033243D01*
X0089462Y0029859D02*
X0084746Y0029859D01*
X0084746Y0029074D02*
X0084746Y0030646D01*
X0085532Y0027142D02*
X0088676Y0027142D01*
X0089462Y0026356D01*
X0089462Y0024783D01*
X0088676Y0023997D01*
X0085532Y0023997D01*
X0084746Y0024783D01*
X0084746Y0026356D01*
X0085532Y0027142D01*
X0089462Y0029074D02*
X0089462Y0029859D01*
X0072141Y0064600D02*
X0072927Y0065386D01*
X0072927Y0066958D01*
X0072141Y0067744D01*
X0071355Y0067744D01*
X0070569Y0066958D01*
X0069783Y0067744D01*
X0068997Y0067744D01*
X0068211Y0066958D01*
X0070569Y0066958D02*
X0070569Y0066172D01*
X0064659Y0062729D02*
X0064659Y0061156D01*
X0063872Y0060371D01*
X0063086Y0060371D01*
X0062300Y0061156D01*
X0062300Y0062729D01*
X0061515Y0063515D01*
X0060729Y0063515D01*
X0059943Y0062729D01*
X0059943Y0061156D01*
X0060729Y0060371D01*
X0063872Y0063515D02*
X0064659Y0062729D01*
X0062300Y0053364D02*
X0059943Y0053364D01*
X0059943Y0050220D02*
X0063086Y0050220D01*
X0063086Y0052578D01*
X0062300Y0053364D01*
X0062300Y0048289D02*
X0059943Y0048289D01*
X0059943Y0045931D01*
X0060729Y0045145D01*
X0061515Y0045931D01*
X0061515Y0048289D01*
X0062300Y0048289D02*
X0063086Y0047503D01*
X0063086Y0045931D01*
X0063086Y0042548D02*
X0059943Y0042548D01*
X0059943Y0041762D02*
X0059943Y0043334D01*
X0063086Y0039104D02*
X0061515Y0037532D01*
X0060729Y0035601D02*
X0062300Y0035601D01*
X0063086Y0034815D01*
X0063086Y0033243D01*
X0062300Y0032457D01*
X0060729Y0032457D01*
X0059943Y0033243D01*
X0059943Y0034815D01*
X0060729Y0035601D01*
X0059943Y0037532D02*
X0063086Y0037532D01*
X0063086Y0039104D02*
X0063086Y0039890D01*
X0063086Y0041762D02*
X0063086Y0042548D01*
X0064659Y0042548D02*
X0065445Y0042548D01*
X0068211Y0046837D02*
X0068211Y0047623D01*
X0068997Y0047623D01*
X0068997Y0046837D01*
X0068211Y0046837D01*
X0064659Y0029859D02*
X0059943Y0029859D01*
X0059943Y0029074D02*
X0059943Y0030646D01*
X0062300Y0025570D02*
X0062300Y0023997D01*
X0059943Y0023997D02*
X0064659Y0023997D01*
X0064659Y0027142D01*
X0064659Y0029074D02*
X0064659Y0029859D01*
D11*
X0068472Y0089598D02*
X0079472Y0089598D01*
X0079532Y0089600D01*
X0079593Y0089605D01*
X0079652Y0089614D01*
X0079711Y0089627D01*
X0079770Y0089643D01*
X0079827Y0089663D01*
X0079882Y0089686D01*
X0079937Y0089713D01*
X0079989Y0089742D01*
X0080040Y0089775D01*
X0080089Y0089811D01*
X0080135Y0089849D01*
X0080179Y0089890D01*
X0080220Y0089935D01*
X0080259Y0089981D01*
X0080295Y0090030D01*
X0080328Y0090081D01*
X0080357Y0090133D01*
X0080384Y0090188D01*
X0080406Y0090243D01*
X0080427Y0090300D01*
X0080443Y0090359D01*
X0080456Y0090417D01*
X0080465Y0090477D01*
X0080470Y0090538D01*
X0080472Y0090598D01*
X0080472Y0096598D01*
X0080470Y0096658D01*
X0080465Y0096719D01*
X0080456Y0096777D01*
X0080443Y0096837D01*
X0080427Y0096896D01*
X0080406Y0096953D01*
X0080384Y0097008D01*
X0080357Y0097063D01*
X0080328Y0097115D01*
X0080295Y0097166D01*
X0080259Y0097215D01*
X0080220Y0097261D01*
X0080179Y0097304D01*
X0080135Y0097347D01*
X0080089Y0097385D01*
X0080040Y0097421D01*
X0079989Y0097454D01*
X0079937Y0097483D01*
X0079882Y0097510D01*
X0079827Y0097533D01*
X0079770Y0097553D01*
X0079711Y0097569D01*
X0079652Y0097582D01*
X0079593Y0097591D01*
X0079532Y0097596D01*
X0079472Y0097598D01*
X0068472Y0097598D01*
X0068412Y0097596D01*
X0068351Y0097591D01*
X0068292Y0097582D01*
X0068233Y0097569D01*
X0068173Y0097553D01*
X0068117Y0097533D01*
X0068062Y0097510D01*
X0068007Y0097483D01*
X0067955Y0097454D01*
X0067904Y0097421D01*
X0067855Y0097385D01*
X0067809Y0097347D01*
X0067765Y0097304D01*
X0067723Y0097261D01*
X0067685Y0097215D01*
X0067649Y0097166D01*
X0067615Y0097115D01*
X0067587Y0097063D01*
X0067560Y0097008D01*
X0067537Y0096953D01*
X0067517Y0096896D01*
X0067501Y0096837D01*
X0067488Y0096777D01*
X0067479Y0096719D01*
X0067474Y0096658D01*
X0067472Y0096598D01*
X0067472Y0090598D01*
X0067474Y0090538D01*
X0067479Y0090477D01*
X0067488Y0090417D01*
X0067501Y0090359D01*
X0067517Y0090300D01*
X0067537Y0090243D01*
X0067560Y0090188D01*
X0067587Y0090133D01*
X0067615Y0090081D01*
X0067649Y0090030D01*
X0067685Y0089981D01*
X0067723Y0089935D01*
X0067765Y0089890D01*
X0067809Y0089849D01*
X0067855Y0089811D01*
X0067904Y0089775D01*
X0067955Y0089742D01*
X0068007Y0089713D01*
X0068062Y0089686D01*
X0068117Y0089663D01*
X0068173Y0089643D01*
X0068233Y0089627D01*
X0068292Y0089614D01*
X0068351Y0089605D01*
X0068412Y0089600D01*
X0068472Y0089598D01*
X0052972Y0090598D02*
X0052972Y0096598D01*
X0052969Y0096658D01*
X0052964Y0096719D01*
X0052956Y0096777D01*
X0052942Y0096837D01*
X0052927Y0096896D01*
X0052907Y0096953D01*
X0052884Y0097008D01*
X0052857Y0097063D01*
X0052828Y0097115D01*
X0052795Y0097166D01*
X0052759Y0097215D01*
X0052720Y0097261D01*
X0052679Y0097304D01*
X0052635Y0097347D01*
X0052589Y0097385D01*
X0052540Y0097421D01*
X0052489Y0097454D01*
X0052437Y0097483D01*
X0052381Y0097510D01*
X0052327Y0097533D01*
X0052270Y0097553D01*
X0052210Y0097569D01*
X0052152Y0097582D01*
X0052093Y0097591D01*
X0052032Y0097596D01*
X0051971Y0097598D01*
X0040972Y0097598D01*
X0040911Y0097596D01*
X0040851Y0097591D01*
X0040792Y0097582D01*
X0040733Y0097569D01*
X0040674Y0097553D01*
X0040616Y0097533D01*
X0040562Y0097510D01*
X0040507Y0097483D01*
X0040455Y0097454D01*
X0040404Y0097421D01*
X0040355Y0097385D01*
X0040309Y0097347D01*
X0040265Y0097304D01*
X0040223Y0097261D01*
X0040185Y0097215D01*
X0040149Y0097166D01*
X0040116Y0097115D01*
X0040087Y0097063D01*
X0040060Y0097008D01*
X0040037Y0096953D01*
X0040017Y0096896D01*
X0040001Y0096837D01*
X0039988Y0096777D01*
X0039979Y0096719D01*
X0039974Y0096658D01*
X0039972Y0096598D01*
X0039972Y0090598D01*
X0039974Y0090538D01*
X0039979Y0090477D01*
X0039988Y0090417D01*
X0040001Y0090359D01*
X0040017Y0090300D01*
X0040037Y0090243D01*
X0040060Y0090188D01*
X0040087Y0090133D01*
X0040116Y0090081D01*
X0040149Y0090030D01*
X0040185Y0089981D01*
X0040223Y0089935D01*
X0040265Y0089890D01*
X0040309Y0089849D01*
X0040355Y0089811D01*
X0040404Y0089775D01*
X0040455Y0089742D01*
X0040507Y0089713D01*
X0040562Y0089686D01*
X0040616Y0089663D01*
X0040674Y0089643D01*
X0040733Y0089627D01*
X0040792Y0089614D01*
X0040851Y0089605D01*
X0040911Y0089600D01*
X0040972Y0089598D01*
X0051971Y0089598D01*
X0052032Y0089600D01*
X0052093Y0089605D01*
X0052152Y0089614D01*
X0052210Y0089627D01*
X0052270Y0089643D01*
X0052327Y0089663D01*
X0052381Y0089686D01*
X0052437Y0089713D01*
X0052489Y0089742D01*
X0052540Y0089775D01*
X0052589Y0089811D01*
X0052635Y0089849D01*
X0052679Y0089890D01*
X0052720Y0089935D01*
X0052759Y0089981D01*
X0052795Y0090030D01*
X0052828Y0090081D01*
X0052857Y0090133D01*
X0052884Y0090188D01*
X0052907Y0090243D01*
X0052927Y0090300D01*
X0052942Y0090359D01*
X0052956Y0090417D01*
X0052964Y0090477D01*
X0052969Y0090538D01*
X0052972Y0090598D01*
X0084272Y0119087D02*
X0087208Y0122022D01*
X0086474Y0122022D02*
X0087208Y0121288D01*
X0087208Y0119821D01*
X0086474Y0119087D01*
X0085006Y0119087D01*
X0084272Y0119821D01*
X0084272Y0121288D01*
X0085006Y0122022D01*
X0086474Y0122022D01*
X0087208Y0123691D02*
X0088676Y0125157D01*
X0084272Y0125157D01*
X0084272Y0123691D02*
X0084272Y0126625D01*
X0085006Y0128294D02*
X0084272Y0129027D01*
X0084272Y0130496D01*
X0085006Y0131230D01*
X0087942Y0131230D01*
X0085006Y0128294D01*
X0087942Y0128294D01*
X0088676Y0129027D01*
X0088676Y0130496D01*
X0087942Y0131230D01*
D12*
X0079472Y0102852D02*
X0077970Y0102852D01*
X0077220Y0102102D01*
X0077220Y0100600D02*
X0078721Y0100600D01*
X0077220Y0099099D02*
X0077970Y0098348D01*
X0079472Y0098348D01*
X0080222Y0099099D01*
X0080222Y0102102D01*
X0079472Y0102852D01*
X0077220Y0100600D02*
X0077220Y0099099D01*
X0075618Y0098348D02*
X0075618Y0102852D01*
X0073367Y0102852D01*
X0072616Y0102102D01*
X0072616Y0100600D01*
X0073367Y0099850D01*
X0075618Y0099850D01*
X0071015Y0098348D02*
X0069513Y0098348D01*
X0070264Y0098348D02*
X0070264Y0102852D01*
X0071015Y0102852D02*
X0069513Y0102852D01*
X0067945Y0102102D02*
X0067945Y0099099D01*
X0067195Y0098348D01*
X0065692Y0098348D01*
X0064942Y0099099D01*
X0064942Y0102102D01*
X0065692Y0102852D01*
X0067195Y0102852D01*
X0067945Y0102102D01*
X0063341Y0102102D02*
X0062591Y0102852D01*
X0061089Y0102852D01*
X0060339Y0102102D01*
X0060339Y0101350D01*
X0061089Y0100600D01*
X0060339Y0099850D01*
X0060339Y0099099D01*
X0061089Y0098348D01*
X0062591Y0098348D01*
X0063341Y0099099D01*
X0061839Y0100600D02*
X0061089Y0100600D01*
X0052722Y0099099D02*
X0051971Y0098348D01*
X0050470Y0098348D01*
X0049720Y0099099D01*
X0049720Y0100600D01*
X0051221Y0100600D01*
X0052722Y0099099D02*
X0052722Y0102102D01*
X0051971Y0102852D01*
X0050470Y0102852D01*
X0049720Y0102102D01*
X0048118Y0102852D02*
X0048118Y0098348D01*
X0048118Y0099850D02*
X0045867Y0099850D01*
X0045115Y0100600D01*
X0045115Y0102102D01*
X0045867Y0102852D01*
X0048118Y0102852D01*
X0043515Y0102852D02*
X0042013Y0102852D01*
X0042764Y0102852D02*
X0042764Y0098348D01*
X0043515Y0098348D02*
X0042013Y0098348D01*
X0040445Y0099099D02*
X0040445Y0102102D01*
X0039695Y0102852D01*
X0038193Y0102852D01*
X0037443Y0102102D01*
X0037443Y0099099D01*
X0038193Y0098348D01*
X0039695Y0098348D01*
X0040445Y0099099D01*
X0035841Y0098348D02*
X0032839Y0101350D01*
X0032839Y0102102D01*
X0033589Y0102852D01*
X0035091Y0102852D01*
X0035841Y0102102D01*
X0035841Y0098348D02*
X0032839Y0098348D01*
D13*
X0061472Y0127797D02*
X0081472Y0127797D01*
X0081472Y0132298D01*
X0071472Y0132298D01*
X0061472Y0132298D01*
X0061472Y0127797D01*
X0063971Y0134598D02*
X0063971Y0139598D01*
X0061472Y0137098D02*
X0066472Y0137098D01*
X0071472Y0136098D02*
X0071472Y0132298D01*
X0071472Y0123598D02*
X0071472Y0116097D01*
D14*
X0051471Y0126098D02*
X0051478Y0126589D01*
X0051496Y0127079D01*
X0051526Y0127568D01*
X0051568Y0128058D01*
X0051622Y0128546D01*
X0051688Y0129033D01*
X0051766Y0129517D01*
X0051856Y0129999D01*
X0051958Y0130480D01*
X0052071Y0130958D01*
X0052196Y0131432D01*
X0052332Y0131904D01*
X0052481Y0132372D01*
X0052641Y0132836D01*
X0052812Y0133296D01*
X0052994Y0133752D01*
X0053188Y0134203D01*
X0053391Y0134649D01*
X0053608Y0135090D01*
X0053834Y0135526D01*
X0054069Y0135956D01*
X0054317Y0136380D01*
X0054574Y0136798D01*
X0054843Y0137209D01*
X0055120Y0137614D01*
X0055408Y0138012D01*
X0055705Y0138403D01*
X0056011Y0138786D01*
X0056328Y0139161D01*
X0056653Y0139529D01*
X0056987Y0139889D01*
X0057330Y0140240D01*
X0057681Y0140583D01*
X0058041Y0140917D01*
X0058409Y0141242D01*
X0058784Y0141558D01*
X0059167Y0141865D01*
X0059558Y0142162D01*
X0059956Y0142450D01*
X0060361Y0142727D01*
X0060772Y0142995D01*
X0061190Y0143253D01*
X0061614Y0143500D01*
X0062044Y0143736D01*
X0062480Y0143962D01*
X0062921Y0144178D01*
X0063366Y0144382D01*
X0063818Y0144576D01*
X0064274Y0144758D01*
X0064734Y0144929D01*
X0065198Y0145089D01*
X0065666Y0145237D01*
X0066138Y0145374D01*
X0066612Y0145499D01*
X0067090Y0145612D01*
X0067570Y0145714D01*
X0068053Y0145804D01*
X0068536Y0145882D01*
X0069024Y0145948D01*
X0069512Y0146002D01*
X0070001Y0146044D01*
X0070490Y0146074D01*
X0070981Y0146092D01*
X0071472Y0146098D01*
X0071963Y0146092D01*
X0072453Y0146074D01*
X0072943Y0146044D01*
X0073432Y0146002D01*
X0073920Y0145948D01*
X0074407Y0145882D01*
X0074891Y0145804D01*
X0075374Y0145714D01*
X0075854Y0145612D01*
X0076332Y0145499D01*
X0076806Y0145374D01*
X0077278Y0145237D01*
X0077746Y0145089D01*
X0078210Y0144929D01*
X0078669Y0144758D01*
X0079126Y0144576D01*
X0079577Y0144382D01*
X0080023Y0144178D01*
X0080464Y0143962D01*
X0080900Y0143736D01*
X0081330Y0143500D01*
X0081754Y0143253D01*
X0082172Y0142995D01*
X0082583Y0142727D01*
X0082988Y0142450D01*
X0083386Y0142162D01*
X0083777Y0141865D01*
X0084160Y0141558D01*
X0084535Y0141242D01*
X0084903Y0140917D01*
X0085263Y0140583D01*
X0085614Y0140240D01*
X0085957Y0139889D01*
X0086290Y0139529D01*
X0086616Y0139161D01*
X0086932Y0138786D01*
X0087239Y0138403D01*
X0087536Y0138012D01*
X0087824Y0137614D01*
X0088100Y0137209D01*
X0088369Y0136798D01*
X0088627Y0136380D01*
X0088874Y0135956D01*
X0089110Y0135526D01*
X0089336Y0135090D01*
X0089552Y0134649D01*
X0089756Y0134203D01*
X0089950Y0133752D01*
X0090132Y0133296D01*
X0090303Y0132836D01*
X0090463Y0132372D01*
X0090611Y0131904D01*
X0090747Y0131432D01*
X0090873Y0130958D01*
X0090986Y0130480D01*
X0091088Y0129999D01*
X0091178Y0129517D01*
X0091256Y0129033D01*
X0091322Y0128546D01*
X0091376Y0128058D01*
X0091418Y0127568D01*
X0091448Y0127079D01*
X0091466Y0126589D01*
X0091472Y0126098D01*
X0091466Y0125607D01*
X0091448Y0125116D01*
X0091418Y0124627D01*
X0091376Y0124138D01*
X0091322Y0123650D01*
X0091256Y0123163D01*
X0091178Y0122679D01*
X0091088Y0122196D01*
X0090986Y0121716D01*
X0090873Y0121238D01*
X0090747Y0120764D01*
X0090611Y0120292D01*
X0090463Y0119824D01*
X0090303Y0119360D01*
X0090132Y0118900D01*
X0089950Y0118444D01*
X0089756Y0117992D01*
X0089552Y0117547D01*
X0089336Y0117106D01*
X0089110Y0116670D01*
X0088874Y0116240D01*
X0088627Y0115816D01*
X0088369Y0115398D01*
X0088100Y0114987D01*
X0087824Y0114582D01*
X0087536Y0114184D01*
X0087239Y0113793D01*
X0086932Y0113410D01*
X0086616Y0113035D01*
X0086290Y0112667D01*
X0085957Y0112307D01*
X0085614Y0111956D01*
X0085263Y0111613D01*
X0084903Y0111279D01*
X0084535Y0110954D01*
X0084160Y0110637D01*
X0083777Y0110331D01*
X0083386Y0110034D01*
X0082988Y0109746D01*
X0082583Y0109469D01*
X0082172Y0109200D01*
X0081754Y0108942D01*
X0081330Y0108695D01*
X0080900Y0108460D01*
X0080464Y0108234D01*
X0080023Y0108017D01*
X0079577Y0107814D01*
X0079126Y0107620D01*
X0078669Y0107437D01*
X0078210Y0107267D01*
X0077746Y0107107D01*
X0077278Y0106959D01*
X0076806Y0106822D01*
X0076332Y0106697D01*
X0075854Y0106583D01*
X0075374Y0106482D01*
X0074891Y0106392D01*
X0074407Y0106314D01*
X0073920Y0106248D01*
X0073432Y0106194D01*
X0072943Y0106152D01*
X0072453Y0106122D01*
X0071963Y0106104D01*
X0071472Y0106098D01*
X0070981Y0106104D01*
X0070490Y0106122D01*
X0070001Y0106152D01*
X0069512Y0106194D01*
X0069024Y0106248D01*
X0068536Y0106314D01*
X0068053Y0106392D01*
X0067570Y0106482D01*
X0067090Y0106583D01*
X0066612Y0106697D01*
X0066138Y0106822D01*
X0065666Y0106959D01*
X0065198Y0107107D01*
X0064734Y0107267D01*
X0064274Y0107437D01*
X0063818Y0107620D01*
X0063366Y0107814D01*
X0062921Y0108017D01*
X0062480Y0108234D01*
X0062044Y0108460D01*
X0061614Y0108695D01*
X0061190Y0108942D01*
X0060772Y0109200D01*
X0060361Y0109469D01*
X0059956Y0109746D01*
X0059558Y0110034D01*
X0059167Y0110331D01*
X0058784Y0110637D01*
X0058409Y0110954D01*
X0058041Y0111279D01*
X0057681Y0111613D01*
X0057330Y0111956D01*
X0056987Y0112307D01*
X0056653Y0112667D01*
X0056328Y0113035D01*
X0056011Y0113410D01*
X0055705Y0113793D01*
X0055408Y0114184D01*
X0055120Y0114582D01*
X0054843Y0114987D01*
X0054574Y0115398D01*
X0054317Y0115816D01*
X0054069Y0116240D01*
X0053834Y0116670D01*
X0053608Y0117106D01*
X0053391Y0117547D01*
X0053188Y0117992D01*
X0052994Y0118444D01*
X0052812Y0118900D01*
X0052641Y0119360D01*
X0052481Y0119824D01*
X0052332Y0120292D01*
X0052196Y0120764D01*
X0052071Y0121238D01*
X0051958Y0121716D01*
X0051856Y0122196D01*
X0051766Y0122679D01*
X0051688Y0123163D01*
X0051622Y0123650D01*
X0051568Y0124138D01*
X0051526Y0124627D01*
X0051496Y0125116D01*
X0051478Y0125607D01*
X0051471Y0126098D01*
D15*
X0048628Y0126610D02*
X0048628Y0124508D01*
X0047577Y0123457D01*
X0043373Y0123457D01*
X0042322Y0124508D01*
X0042322Y0126610D01*
X0043373Y0127661D01*
X0042322Y0129902D02*
X0042322Y0134106D01*
X0042322Y0132005D02*
X0048628Y0132005D01*
X0046526Y0129902D01*
X0047577Y0127661D02*
X0048628Y0126610D01*
D16*
X0071472Y0122298D03*
G04 next file*
G75*
D27*
X0114272Y0023997D02*
X0113486Y0024783D01*
X0113486Y0026356D01*
X0114272Y0027142D01*
X0114272Y0029074D02*
X0113486Y0029859D01*
X0113486Y0031432D01*
X0114272Y0032217D01*
X0114272Y0029074D02*
X0117416Y0029074D01*
X0118202Y0029859D01*
X0118202Y0031432D01*
X0117416Y0032217D01*
X0117416Y0027142D02*
X0118202Y0026356D01*
X0118202Y0024783D01*
X0117416Y0023997D01*
X0114272Y0023997D01*
X0113486Y0039224D02*
X0113486Y0041582D01*
X0114272Y0042368D01*
X0115058Y0042368D01*
X0115843Y0041582D01*
X0115843Y0039224D01*
X0115843Y0041582D02*
X0116629Y0042368D01*
X0117416Y0042368D01*
X0118202Y0041582D01*
X0118202Y0039224D01*
X0113486Y0039224D01*
X0117416Y0044298D02*
X0115843Y0045870D01*
X0113486Y0045870D01*
X0115843Y0045870D02*
X0117416Y0047442D01*
X0118202Y0047442D01*
X0118202Y0044298D02*
X0117416Y0044298D01*
X0115843Y0049374D02*
X0115843Y0052518D01*
X0113486Y0054450D02*
X0118202Y0054450D01*
X0113486Y0057593D01*
X0118202Y0057593D01*
X0117416Y0059524D02*
X0114272Y0059524D01*
X0113486Y0060311D01*
X0113486Y0061883D01*
X0114272Y0062669D01*
X0115843Y0064600D02*
X0115843Y0067744D01*
X0116629Y0069675D02*
X0115843Y0070461D01*
X0115843Y0072033D01*
X0115058Y0072819D01*
X0114272Y0072819D01*
X0113486Y0072033D01*
X0113486Y0070461D01*
X0114272Y0069675D01*
X0116629Y0069675D02*
X0117416Y0069675D01*
X0118202Y0070461D01*
X0118202Y0072033D01*
X0117416Y0072819D01*
X0116629Y0074750D02*
X0118202Y0076322D01*
X0116629Y0077893D01*
X0113486Y0077893D01*
X0113486Y0074750D02*
X0116629Y0074750D01*
X0115843Y0074750D02*
X0115843Y0077893D01*
X0115843Y0084901D02*
X0115843Y0088045D01*
X0118202Y0087259D02*
X0115843Y0084901D01*
X0113486Y0087259D02*
X0118202Y0087259D01*
X0117416Y0092514D02*
X0118202Y0093300D01*
X0118202Y0094871D01*
X0117416Y0095657D01*
X0114272Y0092514D01*
X0113486Y0093300D01*
X0113486Y0094871D01*
X0114272Y0095657D01*
X0117416Y0095657D01*
X0117416Y0092514D02*
X0114272Y0092514D01*
X0114272Y0090762D02*
X0113486Y0090762D01*
X0113486Y0089976D01*
X0114272Y0089976D01*
X0114272Y0090762D01*
X0117416Y0062669D02*
X0118202Y0061883D01*
X0118202Y0060311D01*
X0117416Y0059524D01*
X0144985Y0085747D02*
X0149701Y0085747D01*
X0149701Y0088105D01*
X0148915Y0088891D01*
X0147343Y0088891D01*
X0146556Y0088105D01*
X0146556Y0085747D01*
X0147343Y0083815D02*
X0146556Y0083029D01*
X0146556Y0081457D01*
X0147343Y0080671D01*
X0148915Y0080671D01*
X0149701Y0081457D01*
X0149701Y0083029D01*
X0148915Y0083815D01*
X0147343Y0083815D01*
X0147343Y0078740D02*
X0146556Y0077954D01*
X0146556Y0076382D01*
X0147343Y0075596D01*
X0148915Y0075596D01*
X0149701Y0076382D01*
X0149701Y0077954D01*
X0148915Y0078740D01*
X0147343Y0078740D01*
X0146556Y0073665D02*
X0148915Y0073665D01*
X0149701Y0072879D01*
X0149701Y0071306D01*
X0148915Y0070521D01*
X0149701Y0068590D02*
X0149701Y0066232D01*
X0148915Y0065446D01*
X0147343Y0065446D01*
X0146556Y0066232D01*
X0146556Y0068590D01*
X0146556Y0070521D02*
X0151273Y0070521D01*
X0154825Y0066958D02*
X0154825Y0065386D01*
X0155611Y0064600D01*
X0154825Y0062669D02*
X0154825Y0059524D01*
X0157969Y0062669D01*
X0158755Y0062669D01*
X0159541Y0061883D01*
X0159541Y0060311D01*
X0158755Y0059524D01*
X0158755Y0057593D02*
X0155611Y0054450D01*
X0154825Y0055235D01*
X0154825Y0056807D01*
X0155611Y0057593D01*
X0158755Y0057593D01*
X0159541Y0056807D01*
X0159541Y0055235D01*
X0158755Y0054450D01*
X0155611Y0054450D01*
X0154825Y0052518D02*
X0154825Y0049374D01*
X0157969Y0052518D01*
X0158755Y0052518D01*
X0159541Y0051732D01*
X0159541Y0050160D01*
X0158755Y0049374D01*
X0158755Y0044905D02*
X0157969Y0044905D01*
X0157183Y0044120D01*
X0157183Y0042548D01*
X0157969Y0041762D01*
X0158755Y0041762D01*
X0159541Y0042548D01*
X0159541Y0044120D01*
X0158755Y0044905D01*
X0157183Y0044120D02*
X0156397Y0044905D01*
X0155611Y0044905D01*
X0154825Y0044120D01*
X0154825Y0042548D01*
X0155611Y0041762D01*
X0156397Y0041762D01*
X0157183Y0042548D01*
X0158755Y0039830D02*
X0155611Y0039830D01*
X0154825Y0039044D01*
X0154825Y0037472D01*
X0155611Y0036686D01*
X0158755Y0039830D01*
X0159541Y0039044D01*
X0159541Y0037472D01*
X0158755Y0036686D01*
X0155611Y0036686D01*
X0155611Y0034934D02*
X0154825Y0034934D01*
X0154825Y0034149D01*
X0155611Y0034149D01*
X0155611Y0034934D01*
X0155611Y0032217D02*
X0154825Y0031432D01*
X0154825Y0029859D01*
X0155611Y0029074D01*
X0154825Y0027142D02*
X0154825Y0023997D01*
X0154825Y0025570D02*
X0159541Y0025570D01*
X0157969Y0023997D01*
X0157183Y0029074D02*
X0157969Y0030646D01*
X0157969Y0031432D01*
X0157183Y0032217D01*
X0155611Y0032217D01*
X0157183Y0029074D02*
X0159541Y0029074D01*
X0159541Y0032217D01*
X0161521Y0029074D02*
X0166237Y0029074D01*
X0166237Y0031432D01*
X0165451Y0032217D01*
X0163879Y0032217D01*
X0163093Y0031432D01*
X0163093Y0029074D01*
X0163879Y0027142D02*
X0167023Y0027142D01*
X0167809Y0026356D01*
X0167809Y0024783D01*
X0167023Y0023997D01*
X0163879Y0023997D01*
X0163093Y0024783D01*
X0163093Y0026356D01*
X0163879Y0027142D01*
X0163879Y0034149D02*
X0163093Y0034934D01*
X0163093Y0036506D01*
X0163879Y0034149D02*
X0165451Y0034149D01*
X0166237Y0034934D01*
X0166237Y0036506D01*
X0165451Y0037293D01*
X0164665Y0037293D01*
X0164665Y0034149D01*
X0163093Y0039224D02*
X0166237Y0039224D01*
X0166237Y0041582D01*
X0165451Y0042368D01*
X0163093Y0042368D01*
X0163093Y0044298D02*
X0163093Y0046657D01*
X0163879Y0047442D01*
X0167023Y0047442D01*
X0167809Y0046657D01*
X0167809Y0044298D01*
X0163093Y0044298D01*
X0163093Y0050946D02*
X0167809Y0050946D01*
X0167809Y0049374D02*
X0167809Y0052518D01*
X0167809Y0054450D02*
X0163879Y0054450D01*
X0163093Y0055235D01*
X0163093Y0056807D01*
X0163879Y0057593D01*
X0167809Y0057593D01*
X0171360Y0056927D02*
X0171360Y0058499D01*
X0172146Y0059285D01*
X0171360Y0061217D02*
X0176076Y0061217D01*
X0174504Y0062788D01*
X0176076Y0064359D01*
X0171360Y0064359D01*
X0171360Y0067863D02*
X0176076Y0067863D01*
X0176076Y0066292D02*
X0176076Y0069436D01*
X0175290Y0071367D02*
X0176076Y0072153D01*
X0176076Y0073725D01*
X0175290Y0074511D01*
X0174504Y0074511D01*
X0171360Y0071367D01*
X0171360Y0074511D01*
X0172146Y0076442D02*
X0171360Y0077228D01*
X0171360Y0078800D01*
X0172146Y0079586D01*
X0172932Y0079586D01*
X0173718Y0078800D01*
X0173718Y0078014D01*
X0173718Y0078800D02*
X0174504Y0079586D01*
X0175290Y0079586D01*
X0176076Y0078800D01*
X0176076Y0077228D01*
X0175290Y0076442D01*
X0175290Y0081517D02*
X0176076Y0082303D01*
X0176076Y0083875D01*
X0175290Y0084661D01*
X0172146Y0081517D01*
X0171360Y0082303D01*
X0171360Y0083875D01*
X0172146Y0084661D01*
X0175290Y0084661D01*
X0175290Y0086591D02*
X0176076Y0087377D01*
X0176076Y0088950D01*
X0175290Y0089736D01*
X0172146Y0086591D01*
X0171360Y0087377D01*
X0171360Y0088950D01*
X0172146Y0089736D01*
X0175290Y0089736D01*
X0174504Y0092454D02*
X0174504Y0094026D01*
X0173718Y0094812D01*
X0171360Y0094812D01*
X0171360Y0092454D01*
X0172146Y0091668D01*
X0172932Y0092454D01*
X0172932Y0094812D01*
X0172146Y0086591D02*
X0175290Y0086591D01*
X0175290Y0081517D02*
X0172146Y0081517D01*
X0175290Y0059285D02*
X0176076Y0058499D01*
X0176076Y0056927D01*
X0175290Y0056141D01*
X0172146Y0056141D01*
X0171360Y0056927D01*
X0171360Y0049135D02*
X0174504Y0045991D01*
X0173718Y0044060D02*
X0172932Y0044060D01*
X0172932Y0040916D01*
X0172146Y0040916D02*
X0173718Y0040916D01*
X0174504Y0041702D01*
X0174504Y0043274D01*
X0173718Y0044060D01*
X0171360Y0041702D02*
X0172146Y0040916D01*
X0171360Y0041702D02*
X0171360Y0043274D01*
X0171360Y0045991D02*
X0174504Y0049135D01*
X0173718Y0038984D02*
X0171360Y0038984D01*
X0171360Y0037411D02*
X0173718Y0037411D01*
X0174504Y0038198D01*
X0173718Y0038984D01*
X0173718Y0037411D02*
X0174504Y0036626D01*
X0174504Y0035841D01*
X0171360Y0035841D01*
X0171360Y0034029D02*
X0171360Y0032457D01*
X0171360Y0033243D02*
X0174504Y0033243D01*
X0174504Y0032457D01*
X0176076Y0033243D02*
X0176862Y0033243D01*
X0176076Y0029859D02*
X0171360Y0029859D01*
X0171360Y0029074D02*
X0171360Y0030646D01*
X0172146Y0027142D02*
X0175290Y0027142D01*
X0176076Y0026356D01*
X0176076Y0024783D01*
X0175290Y0023997D01*
X0172146Y0023997D01*
X0171360Y0024783D01*
X0171360Y0026356D01*
X0172146Y0027142D01*
X0176076Y0029074D02*
X0176076Y0029859D01*
X0158755Y0064600D02*
X0159541Y0065386D01*
X0159541Y0066958D01*
X0158755Y0067744D01*
X0157969Y0067744D01*
X0157183Y0066958D01*
X0156397Y0067744D01*
X0155611Y0067744D01*
X0154825Y0066958D01*
X0157183Y0066958D02*
X0157183Y0066172D01*
X0151273Y0062729D02*
X0151273Y0061156D01*
X0150487Y0060371D01*
X0149701Y0060371D01*
X0148915Y0061156D01*
X0148915Y0062729D01*
X0148129Y0063515D01*
X0147343Y0063515D01*
X0146556Y0062729D01*
X0146556Y0061156D01*
X0147343Y0060371D01*
X0150487Y0063515D02*
X0151273Y0062729D01*
X0148915Y0053364D02*
X0146556Y0053364D01*
X0146556Y0050220D02*
X0149701Y0050220D01*
X0149701Y0052578D01*
X0148915Y0053364D01*
X0148915Y0048289D02*
X0146556Y0048289D01*
X0146556Y0045931D01*
X0147343Y0045145D01*
X0148129Y0045931D01*
X0148129Y0048289D01*
X0148915Y0048289D02*
X0149701Y0047503D01*
X0149701Y0045931D01*
X0149701Y0042548D02*
X0146556Y0042548D01*
X0146556Y0041762D02*
X0146556Y0043334D01*
X0149701Y0039104D02*
X0148129Y0037532D01*
X0147343Y0035601D02*
X0148915Y0035601D01*
X0149701Y0034815D01*
X0149701Y0033243D01*
X0148915Y0032457D01*
X0147343Y0032457D01*
X0146556Y0033243D01*
X0146556Y0034815D01*
X0147343Y0035601D01*
X0146556Y0037532D02*
X0149701Y0037532D01*
X0149701Y0039104D02*
X0149701Y0039890D01*
X0149701Y0041762D02*
X0149701Y0042548D01*
X0151273Y0042548D02*
X0152059Y0042548D01*
X0154825Y0046837D02*
X0154825Y0047623D01*
X0155611Y0047623D01*
X0155611Y0046837D01*
X0154825Y0046837D01*
X0151273Y0029859D02*
X0146556Y0029859D01*
X0146556Y0029074D02*
X0146556Y0030646D01*
X0148915Y0025570D02*
X0148915Y0023997D01*
X0146556Y0023997D02*
X0151273Y0023997D01*
X0151273Y0027142D01*
X0151273Y0029074D02*
X0151273Y0029859D01*
D28*
X0155085Y0089598D02*
X0166086Y0089598D01*
X0166146Y0089600D01*
X0166207Y0089605D01*
X0166266Y0089614D01*
X0166324Y0089627D01*
X0166384Y0089643D01*
X0166441Y0089663D01*
X0166496Y0089686D01*
X0166551Y0089713D01*
X0166603Y0089742D01*
X0166654Y0089775D01*
X0166703Y0089811D01*
X0166749Y0089849D01*
X0166793Y0089890D01*
X0166835Y0089935D01*
X0166873Y0089981D01*
X0166909Y0090030D01*
X0166942Y0090081D01*
X0166971Y0090133D01*
X0166998Y0090188D01*
X0167021Y0090243D01*
X0167041Y0090300D01*
X0167057Y0090359D01*
X0167070Y0090417D01*
X0167079Y0090477D01*
X0167084Y0090538D01*
X0167086Y0090598D01*
X0167086Y0096598D01*
X0167084Y0096658D01*
X0167079Y0096719D01*
X0167070Y0096777D01*
X0167057Y0096837D01*
X0167041Y0096896D01*
X0167021Y0096953D01*
X0166998Y0097008D01*
X0166971Y0097063D01*
X0166942Y0097115D01*
X0166909Y0097166D01*
X0166873Y0097215D01*
X0166835Y0097261D01*
X0166793Y0097304D01*
X0166749Y0097347D01*
X0166703Y0097385D01*
X0166654Y0097421D01*
X0166603Y0097454D01*
X0166551Y0097483D01*
X0166496Y0097510D01*
X0166441Y0097533D01*
X0166384Y0097553D01*
X0166324Y0097569D01*
X0166266Y0097582D01*
X0166207Y0097591D01*
X0166146Y0097596D01*
X0166086Y0097598D01*
X0155085Y0097598D01*
X0155026Y0097596D01*
X0154965Y0097591D01*
X0154906Y0097582D01*
X0154847Y0097569D01*
X0154788Y0097553D01*
X0154731Y0097533D01*
X0154676Y0097510D01*
X0154621Y0097483D01*
X0154569Y0097454D01*
X0154518Y0097421D01*
X0154469Y0097385D01*
X0154423Y0097347D01*
X0154379Y0097304D01*
X0154337Y0097261D01*
X0154299Y0097215D01*
X0154263Y0097166D01*
X0154230Y0097115D01*
X0154201Y0097063D01*
X0154174Y0097008D01*
X0154151Y0096953D01*
X0154131Y0096896D01*
X0154115Y0096837D01*
X0154102Y0096777D01*
X0154093Y0096719D01*
X0154088Y0096658D01*
X0154086Y0096598D01*
X0154086Y0090598D01*
X0154088Y0090538D01*
X0154093Y0090477D01*
X0154102Y0090417D01*
X0154115Y0090359D01*
X0154131Y0090300D01*
X0154151Y0090243D01*
X0154174Y0090188D01*
X0154201Y0090133D01*
X0154230Y0090081D01*
X0154263Y0090030D01*
X0154299Y0089981D01*
X0154337Y0089935D01*
X0154379Y0089890D01*
X0154423Y0089849D01*
X0154469Y0089811D01*
X0154518Y0089775D01*
X0154569Y0089742D01*
X0154621Y0089713D01*
X0154676Y0089686D01*
X0154731Y0089663D01*
X0154788Y0089643D01*
X0154847Y0089627D01*
X0154906Y0089614D01*
X0154965Y0089605D01*
X0155026Y0089600D01*
X0155085Y0089598D01*
X0139586Y0090598D02*
X0139586Y0096598D01*
X0139584Y0096658D01*
X0139579Y0096719D01*
X0139570Y0096777D01*
X0139557Y0096837D01*
X0139541Y0096896D01*
X0139521Y0096953D01*
X0139498Y0097008D01*
X0139471Y0097063D01*
X0139442Y0097115D01*
X0139409Y0097166D01*
X0139373Y0097215D01*
X0139335Y0097261D01*
X0139293Y0097304D01*
X0139249Y0097347D01*
X0139203Y0097385D01*
X0139154Y0097421D01*
X0139103Y0097454D01*
X0139051Y0097483D01*
X0138996Y0097510D01*
X0138941Y0097533D01*
X0138884Y0097553D01*
X0138825Y0097569D01*
X0138765Y0097582D01*
X0138707Y0097591D01*
X0138646Y0097596D01*
X0138586Y0097598D01*
X0127586Y0097598D01*
X0127526Y0097596D01*
X0127465Y0097591D01*
X0127406Y0097582D01*
X0127347Y0097569D01*
X0127288Y0097553D01*
X0127231Y0097533D01*
X0127176Y0097510D01*
X0127121Y0097483D01*
X0127069Y0097454D01*
X0127018Y0097421D01*
X0126968Y0097385D01*
X0126923Y0097347D01*
X0126879Y0097304D01*
X0126837Y0097261D01*
X0126799Y0097215D01*
X0126762Y0097166D01*
X0126730Y0097115D01*
X0126701Y0097063D01*
X0126674Y0097008D01*
X0126651Y0096953D01*
X0126631Y0096896D01*
X0126615Y0096837D01*
X0126601Y0096777D01*
X0126593Y0096719D01*
X0126587Y0096658D01*
X0126585Y0096598D01*
X0126585Y0090598D01*
X0126587Y0090538D01*
X0126593Y0090477D01*
X0126601Y0090417D01*
X0126615Y0090359D01*
X0126631Y0090300D01*
X0126651Y0090243D01*
X0126674Y0090188D01*
X0126701Y0090133D01*
X0126730Y0090081D01*
X0126762Y0090030D01*
X0126799Y0089981D01*
X0126837Y0089935D01*
X0126879Y0089890D01*
X0126923Y0089849D01*
X0126968Y0089811D01*
X0127018Y0089775D01*
X0127069Y0089742D01*
X0127121Y0089713D01*
X0127176Y0089686D01*
X0127231Y0089663D01*
X0127288Y0089643D01*
X0127347Y0089627D01*
X0127406Y0089614D01*
X0127465Y0089605D01*
X0127526Y0089600D01*
X0127586Y0089598D01*
X0138586Y0089598D01*
X0138646Y0089600D01*
X0138707Y0089605D01*
X0138765Y0089614D01*
X0138825Y0089627D01*
X0138884Y0089643D01*
X0138941Y0089663D01*
X0138996Y0089686D01*
X0139051Y0089713D01*
X0139103Y0089742D01*
X0139154Y0089775D01*
X0139203Y0089811D01*
X0139249Y0089849D01*
X0139293Y0089890D01*
X0139335Y0089935D01*
X0139373Y0089981D01*
X0139409Y0090030D01*
X0139442Y0090081D01*
X0139471Y0090133D01*
X0139498Y0090188D01*
X0139521Y0090243D01*
X0139541Y0090300D01*
X0139557Y0090359D01*
X0139570Y0090417D01*
X0139579Y0090477D01*
X0139584Y0090538D01*
X0139586Y0090598D01*
X0170886Y0119087D02*
X0173822Y0122022D01*
X0173088Y0122022D02*
X0173822Y0121288D01*
X0173822Y0119821D01*
X0173088Y0119087D01*
X0171620Y0119087D01*
X0170886Y0119821D01*
X0170886Y0121288D01*
X0171620Y0122022D01*
X0173088Y0122022D01*
X0173822Y0123691D02*
X0175290Y0125157D01*
X0170886Y0125157D01*
X0170886Y0123691D02*
X0170886Y0126625D01*
X0171620Y0128294D02*
X0170886Y0129027D01*
X0170886Y0130496D01*
X0171620Y0131230D01*
X0174556Y0131230D01*
X0171620Y0128294D01*
X0174556Y0128294D01*
X0175290Y0129027D01*
X0175290Y0130496D01*
X0174556Y0131230D01*
D29*
X0166086Y0102852D02*
X0164584Y0102852D01*
X0163833Y0102102D01*
X0163833Y0100600D02*
X0165335Y0100600D01*
X0163833Y0099099D02*
X0164584Y0098348D01*
X0166086Y0098348D01*
X0166835Y0099099D01*
X0166835Y0102102D01*
X0166086Y0102852D01*
X0163833Y0100600D02*
X0163833Y0099099D01*
X0162232Y0098348D02*
X0162232Y0102852D01*
X0159981Y0102852D01*
X0159230Y0102102D01*
X0159230Y0100600D01*
X0159981Y0099850D01*
X0162232Y0099850D01*
X0157629Y0098348D02*
X0156127Y0098348D01*
X0156878Y0098348D02*
X0156878Y0102852D01*
X0157629Y0102852D02*
X0156127Y0102852D01*
X0154558Y0102102D02*
X0154558Y0099099D01*
X0153809Y0098348D01*
X0152307Y0098348D01*
X0151557Y0099099D01*
X0151557Y0102102D01*
X0152307Y0102852D01*
X0153809Y0102852D01*
X0154558Y0102102D01*
X0149955Y0102102D02*
X0149205Y0102852D01*
X0147703Y0102852D01*
X0146953Y0102102D01*
X0146953Y0101350D01*
X0147703Y0100600D01*
X0146953Y0099850D01*
X0146953Y0099099D01*
X0147703Y0098348D01*
X0149205Y0098348D01*
X0149955Y0099099D01*
X0148454Y0100600D02*
X0147703Y0100600D01*
X0139336Y0099099D02*
X0138586Y0098348D01*
X0137084Y0098348D01*
X0136334Y0099099D01*
X0136334Y0100600D01*
X0137835Y0100600D01*
X0139336Y0099099D02*
X0139336Y0102102D01*
X0138586Y0102852D01*
X0137084Y0102852D01*
X0136334Y0102102D01*
X0134732Y0102852D02*
X0134732Y0098348D01*
X0134732Y0099850D02*
X0132481Y0099850D01*
X0131730Y0100600D01*
X0131730Y0102102D01*
X0132481Y0102852D01*
X0134732Y0102852D01*
X0130129Y0102852D02*
X0128627Y0102852D01*
X0129377Y0102852D02*
X0129377Y0098348D01*
X0130129Y0098348D02*
X0128627Y0098348D01*
X0127059Y0099099D02*
X0127059Y0102102D01*
X0126308Y0102852D01*
X0124807Y0102852D01*
X0124057Y0102102D01*
X0124057Y0099099D01*
X0124807Y0098348D01*
X0126308Y0098348D01*
X0127059Y0099099D01*
X0122455Y0098348D02*
X0119453Y0101350D01*
X0119453Y0102102D01*
X0120203Y0102852D01*
X0121705Y0102852D01*
X0122455Y0102102D01*
X0122455Y0098348D02*
X0119453Y0098348D01*
D30*
X0148086Y0127797D02*
X0168086Y0127797D01*
X0168086Y0132298D01*
X0158086Y0132298D01*
X0148086Y0132298D01*
X0148086Y0127797D01*
X0150586Y0134598D02*
X0150586Y0139598D01*
X0148086Y0137098D02*
X0153086Y0137098D01*
X0158086Y0136098D02*
X0158086Y0132298D01*
X0158086Y0123598D02*
X0158086Y0116097D01*
D31*
X0138085Y0126098D02*
X0138092Y0126589D01*
X0138110Y0127079D01*
X0138140Y0127568D01*
X0138182Y0128058D01*
X0138236Y0128546D01*
X0138302Y0129033D01*
X0138380Y0129517D01*
X0138470Y0129999D01*
X0138572Y0130480D01*
X0138685Y0130958D01*
X0138810Y0131432D01*
X0138947Y0131904D01*
X0139095Y0132372D01*
X0139255Y0132836D01*
X0139426Y0133296D01*
X0139608Y0133752D01*
X0139802Y0134203D01*
X0140006Y0134649D01*
X0140222Y0135090D01*
X0140448Y0135526D01*
X0140684Y0135956D01*
X0140930Y0136380D01*
X0141189Y0136798D01*
X0141457Y0137209D01*
X0141734Y0137614D01*
X0142022Y0138012D01*
X0142319Y0138403D01*
X0142626Y0138786D01*
X0142942Y0139161D01*
X0143267Y0139529D01*
X0143601Y0139889D01*
X0143944Y0140240D01*
X0144295Y0140583D01*
X0144655Y0140917D01*
X0145022Y0141242D01*
X0145398Y0141558D01*
X0145781Y0141865D01*
X0146172Y0142162D01*
X0146570Y0142450D01*
X0146975Y0142727D01*
X0147386Y0142995D01*
X0147804Y0143253D01*
X0148228Y0143500D01*
X0148658Y0143736D01*
X0149094Y0143962D01*
X0149535Y0144178D01*
X0149981Y0144382D01*
X0150432Y0144576D01*
X0150887Y0144758D01*
X0151348Y0144929D01*
X0151812Y0145089D01*
X0152280Y0145237D01*
X0152752Y0145374D01*
X0153226Y0145499D01*
X0153704Y0145612D01*
X0154184Y0145714D01*
X0154667Y0145804D01*
X0155151Y0145882D01*
X0155638Y0145948D01*
X0156126Y0146002D01*
X0156615Y0146044D01*
X0157104Y0146074D01*
X0157595Y0146092D01*
X0158086Y0146098D01*
X0158577Y0146092D01*
X0159067Y0146074D01*
X0159557Y0146044D01*
X0160046Y0146002D01*
X0160534Y0145948D01*
X0161021Y0145882D01*
X0161505Y0145804D01*
X0161988Y0145714D01*
X0162467Y0145612D01*
X0162946Y0145499D01*
X0163420Y0145374D01*
X0163892Y0145237D01*
X0164360Y0145089D01*
X0164824Y0144929D01*
X0165284Y0144758D01*
X0165740Y0144576D01*
X0166191Y0144382D01*
X0166636Y0144178D01*
X0167078Y0143962D01*
X0167514Y0143736D01*
X0167944Y0143500D01*
X0168368Y0143253D01*
X0168786Y0142995D01*
X0169197Y0142727D01*
X0169602Y0142450D01*
X0170000Y0142162D01*
X0170391Y0141865D01*
X0170774Y0141558D01*
X0171149Y0141242D01*
X0171517Y0140917D01*
X0171877Y0140583D01*
X0172228Y0140240D01*
X0172571Y0139889D01*
X0172904Y0139529D01*
X0173230Y0139161D01*
X0173546Y0138786D01*
X0173853Y0138403D01*
X0174150Y0138012D01*
X0174438Y0137614D01*
X0174715Y0137209D01*
X0174983Y0136798D01*
X0175241Y0136380D01*
X0175488Y0135956D01*
X0175724Y0135526D01*
X0175950Y0135090D01*
X0176166Y0134649D01*
X0176369Y0134203D01*
X0176564Y0133752D01*
X0176746Y0133296D01*
X0176917Y0132836D01*
X0177077Y0132372D01*
X0177225Y0131904D01*
X0177361Y0131432D01*
X0177487Y0130958D01*
X0177600Y0130480D01*
X0177702Y0129999D01*
X0177792Y0129517D01*
X0177870Y0129033D01*
X0177936Y0128546D01*
X0177990Y0128058D01*
X0178032Y0127568D01*
X0178062Y0127079D01*
X0178080Y0126589D01*
X0178086Y0126098D01*
X0178080Y0125607D01*
X0178062Y0125116D01*
X0178032Y0124627D01*
X0177990Y0124138D01*
X0177936Y0123650D01*
X0177870Y0123163D01*
X0177792Y0122679D01*
X0177702Y0122196D01*
X0177600Y0121716D01*
X0177487Y0121238D01*
X0177361Y0120764D01*
X0177225Y0120292D01*
X0177077Y0119824D01*
X0176917Y0119360D01*
X0176746Y0118900D01*
X0176564Y0118444D01*
X0176369Y0117992D01*
X0176166Y0117547D01*
X0175950Y0117106D01*
X0175724Y0116670D01*
X0175488Y0116240D01*
X0175241Y0115816D01*
X0174983Y0115398D01*
X0174715Y0114987D01*
X0174438Y0114582D01*
X0174150Y0114184D01*
X0173853Y0113793D01*
X0173546Y0113410D01*
X0173230Y0113035D01*
X0172904Y0112667D01*
X0172571Y0112307D01*
X0172228Y0111956D01*
X0171877Y0111613D01*
X0171517Y0111279D01*
X0171149Y0110954D01*
X0170774Y0110637D01*
X0170391Y0110331D01*
X0170000Y0110034D01*
X0169602Y0109746D01*
X0169197Y0109469D01*
X0168786Y0109200D01*
X0168368Y0108942D01*
X0167944Y0108695D01*
X0167514Y0108460D01*
X0167078Y0108234D01*
X0166636Y0108017D01*
X0166191Y0107814D01*
X0165740Y0107620D01*
X0165284Y0107437D01*
X0164824Y0107267D01*
X0164360Y0107107D01*
X0163892Y0106959D01*
X0163420Y0106822D01*
X0162946Y0106697D01*
X0162467Y0106583D01*
X0161988Y0106482D01*
X0161505Y0106392D01*
X0161021Y0106314D01*
X0160534Y0106248D01*
X0160046Y0106194D01*
X0159557Y0106152D01*
X0159067Y0106122D01*
X0158577Y0106104D01*
X0158086Y0106098D01*
X0157595Y0106104D01*
X0157104Y0106122D01*
X0156615Y0106152D01*
X0156126Y0106194D01*
X0155638Y0106248D01*
X0155151Y0106314D01*
X0154667Y0106392D01*
X0154184Y0106482D01*
X0153704Y0106583D01*
X0153226Y0106697D01*
X0152752Y0106822D01*
X0152280Y0106959D01*
X0151812Y0107107D01*
X0151348Y0107267D01*
X0150887Y0107437D01*
X0150432Y0107620D01*
X0149981Y0107814D01*
X0149535Y0108017D01*
X0149094Y0108234D01*
X0148658Y0108460D01*
X0148228Y0108695D01*
X0147804Y0108942D01*
X0147386Y0109200D01*
X0146975Y0109469D01*
X0146570Y0109746D01*
X0146172Y0110034D01*
X0145781Y0110331D01*
X0145398Y0110637D01*
X0145022Y0110954D01*
X0144655Y0111279D01*
X0144295Y0111613D01*
X0143944Y0111956D01*
X0143601Y0112307D01*
X0143267Y0112667D01*
X0142942Y0113035D01*
X0142626Y0113410D01*
X0142319Y0113793D01*
X0142022Y0114184D01*
X0141734Y0114582D01*
X0141457Y0114987D01*
X0141189Y0115398D01*
X0140930Y0115816D01*
X0140684Y0116240D01*
X0140448Y0116670D01*
X0140222Y0117106D01*
X0140006Y0117547D01*
X0139802Y0117992D01*
X0139608Y0118444D01*
X0139426Y0118900D01*
X0139255Y0119360D01*
X0139095Y0119824D01*
X0138947Y0120292D01*
X0138810Y0120764D01*
X0138685Y0121238D01*
X0138572Y0121716D01*
X0138470Y0122196D01*
X0138380Y0122679D01*
X0138302Y0123163D01*
X0138236Y0123650D01*
X0138182Y0124138D01*
X0138140Y0124627D01*
X0138110Y0125116D01*
X0138092Y0125607D01*
X0138085Y0126098D01*
D32*
X0135242Y0126610D02*
X0135242Y0124508D01*
X0134191Y0123457D01*
X0129987Y0123457D01*
X0128936Y0124508D01*
X0128936Y0126610D01*
X0129987Y0127661D01*
X0128936Y0129902D02*
X0128936Y0134106D01*
X0128936Y0132005D02*
X0135242Y0132005D01*
X0133140Y0129902D01*
X0134191Y0127661D02*
X0135242Y0126610D01*
D33*
X0158086Y0122298D03*
G04 next file*
G75*
D34*
X0200886Y0023997D02*
X0200100Y0024783D01*
X0200100Y0026356D01*
X0200886Y0027142D01*
X0200886Y0029074D02*
X0200100Y0029859D01*
X0200100Y0031432D01*
X0200886Y0032217D01*
X0200886Y0029074D02*
X0204029Y0029074D01*
X0204816Y0029859D01*
X0204816Y0031432D01*
X0204029Y0032217D01*
X0204029Y0027142D02*
X0204816Y0026356D01*
X0204816Y0024783D01*
X0204029Y0023997D01*
X0200886Y0023997D01*
X0200100Y0039224D02*
X0200100Y0041582D01*
X0200886Y0042368D01*
X0201671Y0042368D01*
X0202457Y0041582D01*
X0202457Y0039224D01*
X0202457Y0041582D02*
X0203243Y0042368D01*
X0204029Y0042368D01*
X0204816Y0041582D01*
X0204816Y0039224D01*
X0200100Y0039224D01*
X0204029Y0044298D02*
X0202457Y0045870D01*
X0200100Y0045870D01*
X0202457Y0045870D02*
X0204029Y0047442D01*
X0204816Y0047442D01*
X0204816Y0044298D02*
X0204029Y0044298D01*
X0202457Y0049374D02*
X0202457Y0052518D01*
X0200100Y0054450D02*
X0204816Y0054450D01*
X0200100Y0057593D01*
X0204816Y0057593D01*
X0204029Y0059524D02*
X0200886Y0059524D01*
X0200100Y0060311D01*
X0200100Y0061883D01*
X0200886Y0062669D01*
X0202457Y0064600D02*
X0202457Y0067744D01*
X0203243Y0069675D02*
X0202457Y0070461D01*
X0202457Y0072033D01*
X0201671Y0072819D01*
X0200886Y0072819D01*
X0200100Y0072033D01*
X0200100Y0070461D01*
X0200886Y0069675D01*
X0203243Y0069675D02*
X0204029Y0069675D01*
X0204816Y0070461D01*
X0204816Y0072033D01*
X0204029Y0072819D01*
X0203243Y0074750D02*
X0204816Y0076322D01*
X0203243Y0077893D01*
X0200100Y0077893D01*
X0200100Y0074750D02*
X0203243Y0074750D01*
X0202457Y0074750D02*
X0202457Y0077893D01*
X0202457Y0084901D02*
X0202457Y0088045D01*
X0204816Y0087259D02*
X0202457Y0084901D01*
X0200100Y0087259D02*
X0204816Y0087259D01*
X0204029Y0092514D02*
X0204816Y0093300D01*
X0204816Y0094871D01*
X0204029Y0095657D01*
X0200886Y0092514D01*
X0200100Y0093300D01*
X0200100Y0094871D01*
X0200886Y0095657D01*
X0204029Y0095657D01*
X0204029Y0092514D02*
X0200886Y0092514D01*
X0200886Y0090762D02*
X0200100Y0090762D01*
X0200100Y0089976D01*
X0200886Y0089976D01*
X0200886Y0090762D01*
X0204029Y0062669D02*
X0204816Y0061883D01*
X0204816Y0060311D01*
X0204029Y0059524D01*
X0231599Y0085747D02*
X0236315Y0085747D01*
X0236315Y0088105D01*
X0235529Y0088891D01*
X0233957Y0088891D01*
X0233171Y0088105D01*
X0233171Y0085747D01*
X0233957Y0083815D02*
X0233171Y0083029D01*
X0233171Y0081457D01*
X0233957Y0080671D01*
X0235529Y0080671D01*
X0236315Y0081457D01*
X0236315Y0083029D01*
X0235529Y0083815D01*
X0233957Y0083815D01*
X0233957Y0078740D02*
X0233171Y0077954D01*
X0233171Y0076382D01*
X0233957Y0075596D01*
X0235529Y0075596D01*
X0236315Y0076382D01*
X0236315Y0077954D01*
X0235529Y0078740D01*
X0233957Y0078740D01*
X0233171Y0073665D02*
X0235529Y0073665D01*
X0236315Y0072879D01*
X0236315Y0071306D01*
X0235529Y0070521D01*
X0236315Y0068590D02*
X0236315Y0066232D01*
X0235529Y0065446D01*
X0233957Y0065446D01*
X0233171Y0066232D01*
X0233171Y0068590D01*
X0233171Y0070521D02*
X0237887Y0070521D01*
X0241439Y0066958D02*
X0241439Y0065386D01*
X0242225Y0064600D01*
X0241439Y0062669D02*
X0241439Y0059524D01*
X0244583Y0062669D01*
X0245369Y0062669D01*
X0246155Y0061883D01*
X0246155Y0060311D01*
X0245369Y0059524D01*
X0245369Y0057593D02*
X0242225Y0054450D01*
X0241439Y0055235D01*
X0241439Y0056807D01*
X0242225Y0057593D01*
X0245369Y0057593D01*
X0246155Y0056807D01*
X0246155Y0055235D01*
X0245369Y0054450D01*
X0242225Y0054450D01*
X0241439Y0052518D02*
X0241439Y0049374D01*
X0244583Y0052518D01*
X0245369Y0052518D01*
X0246155Y0051732D01*
X0246155Y0050160D01*
X0245369Y0049374D01*
X0245369Y0044905D02*
X0244583Y0044905D01*
X0243797Y0044120D01*
X0243797Y0042548D01*
X0244583Y0041762D01*
X0245369Y0041762D01*
X0246155Y0042548D01*
X0246155Y0044120D01*
X0245369Y0044905D01*
X0243797Y0044120D02*
X0243011Y0044905D01*
X0242225Y0044905D01*
X0241439Y0044120D01*
X0241439Y0042548D01*
X0242225Y0041762D01*
X0243011Y0041762D01*
X0243797Y0042548D01*
X0245369Y0039830D02*
X0242225Y0039830D01*
X0241439Y0039044D01*
X0241439Y0037472D01*
X0242225Y0036686D01*
X0245369Y0039830D01*
X0246155Y0039044D01*
X0246155Y0037472D01*
X0245369Y0036686D01*
X0242225Y0036686D01*
X0242225Y0034934D02*
X0241439Y0034934D01*
X0241439Y0034149D01*
X0242225Y0034149D01*
X0242225Y0034934D01*
X0242225Y0032217D02*
X0241439Y0031432D01*
X0241439Y0029859D01*
X0242225Y0029074D01*
X0241439Y0027142D02*
X0241439Y0023997D01*
X0241439Y0025570D02*
X0246155Y0025570D01*
X0244583Y0023997D01*
X0243797Y0029074D02*
X0244583Y0030646D01*
X0244583Y0031432D01*
X0243797Y0032217D01*
X0242225Y0032217D01*
X0243797Y0029074D02*
X0246155Y0029074D01*
X0246155Y0032217D01*
X0248135Y0029074D02*
X0252851Y0029074D01*
X0252851Y0031432D01*
X0252064Y0032217D01*
X0250493Y0032217D01*
X0249707Y0031432D01*
X0249707Y0029074D01*
X0250493Y0027142D02*
X0253636Y0027142D01*
X0254423Y0026356D01*
X0254423Y0024783D01*
X0253636Y0023997D01*
X0250493Y0023997D01*
X0249707Y0024783D01*
X0249707Y0026356D01*
X0250493Y0027142D01*
X0250493Y0034149D02*
X0249707Y0034934D01*
X0249707Y0036506D01*
X0250493Y0034149D02*
X0252064Y0034149D01*
X0252851Y0034934D01*
X0252851Y0036506D01*
X0252064Y0037293D01*
X0251279Y0037293D01*
X0251279Y0034149D01*
X0249707Y0039224D02*
X0252851Y0039224D01*
X0252851Y0041582D01*
X0252064Y0042368D01*
X0249707Y0042368D01*
X0249707Y0044298D02*
X0249707Y0046657D01*
X0250493Y0047442D01*
X0253636Y0047442D01*
X0254423Y0046657D01*
X0254423Y0044298D01*
X0249707Y0044298D01*
X0249707Y0050946D02*
X0254423Y0050946D01*
X0254423Y0049374D02*
X0254423Y0052518D01*
X0254423Y0054450D02*
X0250493Y0054450D01*
X0249707Y0055235D01*
X0249707Y0056807D01*
X0250493Y0057593D01*
X0254423Y0057593D01*
X0257974Y0056927D02*
X0257974Y0058499D01*
X0258759Y0059285D01*
X0257974Y0061217D02*
X0262690Y0061217D01*
X0261118Y0062788D01*
X0262690Y0064359D01*
X0257974Y0064359D01*
X0257974Y0067863D02*
X0262690Y0067863D01*
X0262690Y0066292D02*
X0262690Y0069436D01*
X0261904Y0071367D02*
X0262690Y0072153D01*
X0262690Y0073725D01*
X0261904Y0074511D01*
X0261118Y0074511D01*
X0257974Y0071367D01*
X0257974Y0074511D01*
X0258759Y0076442D02*
X0257974Y0077228D01*
X0257974Y0078800D01*
X0258759Y0079586D01*
X0259546Y0079586D01*
X0260331Y0078800D01*
X0260331Y0078014D01*
X0260331Y0078800D02*
X0261118Y0079586D01*
X0261904Y0079586D01*
X0262690Y0078800D01*
X0262690Y0077228D01*
X0261904Y0076442D01*
X0261904Y0081517D02*
X0262690Y0082303D01*
X0262690Y0083875D01*
X0261904Y0084661D01*
X0258759Y0081517D01*
X0257974Y0082303D01*
X0257974Y0083875D01*
X0258759Y0084661D01*
X0261904Y0084661D01*
X0261904Y0086591D02*
X0262690Y0087377D01*
X0262690Y0088950D01*
X0261904Y0089736D01*
X0258759Y0086591D01*
X0257974Y0087377D01*
X0257974Y0088950D01*
X0258759Y0089736D01*
X0261904Y0089736D01*
X0261118Y0092454D02*
X0261118Y0094026D01*
X0260331Y0094812D01*
X0257974Y0094812D01*
X0257974Y0092454D01*
X0258759Y0091668D01*
X0259546Y0092454D01*
X0259546Y0094812D01*
X0258759Y0086591D02*
X0261904Y0086591D01*
X0261904Y0081517D02*
X0258759Y0081517D01*
X0261904Y0059285D02*
X0262690Y0058499D01*
X0262690Y0056927D01*
X0261904Y0056141D01*
X0258759Y0056141D01*
X0257974Y0056927D01*
X0257974Y0049135D02*
X0261118Y0045991D01*
X0260331Y0044060D02*
X0259546Y0044060D01*
X0259546Y0040916D01*
X0258759Y0040916D02*
X0260331Y0040916D01*
X0261118Y0041702D01*
X0261118Y0043274D01*
X0260331Y0044060D01*
X0257974Y0041702D02*
X0258759Y0040916D01*
X0257974Y0041702D02*
X0257974Y0043274D01*
X0257974Y0045991D02*
X0261118Y0049135D01*
X0260331Y0038984D02*
X0257974Y0038984D01*
X0257974Y0037411D02*
X0260331Y0037411D01*
X0261118Y0038198D01*
X0260331Y0038984D01*
X0260331Y0037411D02*
X0261118Y0036626D01*
X0261118Y0035841D01*
X0257974Y0035841D01*
X0257974Y0034029D02*
X0257974Y0032457D01*
X0257974Y0033243D02*
X0261118Y0033243D01*
X0261118Y0032457D01*
X0262690Y0033243D02*
X0263476Y0033243D01*
X0262690Y0029859D02*
X0257974Y0029859D01*
X0257974Y0029074D02*
X0257974Y0030646D01*
X0258759Y0027142D02*
X0261904Y0027142D01*
X0262690Y0026356D01*
X0262690Y0024783D01*
X0261904Y0023997D01*
X0258759Y0023997D01*
X0257974Y0024783D01*
X0257974Y0026356D01*
X0258759Y0027142D01*
X0262690Y0029074D02*
X0262690Y0029859D01*
X0245369Y0064600D02*
X0246155Y0065386D01*
X0246155Y0066958D01*
X0245369Y0067744D01*
X0244583Y0067744D01*
X0243797Y0066958D01*
X0243011Y0067744D01*
X0242225Y0067744D01*
X0241439Y0066958D01*
X0243797Y0066958D02*
X0243797Y0066172D01*
X0237887Y0062729D02*
X0237887Y0061156D01*
X0237101Y0060371D01*
X0236315Y0060371D01*
X0235529Y0061156D01*
X0235529Y0062729D01*
X0234743Y0063515D01*
X0233957Y0063515D01*
X0233171Y0062729D01*
X0233171Y0061156D01*
X0233957Y0060371D01*
X0237101Y0063515D02*
X0237887Y0062729D01*
X0235529Y0053364D02*
X0233171Y0053364D01*
X0233171Y0050220D02*
X0236315Y0050220D01*
X0236315Y0052578D01*
X0235529Y0053364D01*
X0235529Y0048289D02*
X0233171Y0048289D01*
X0233171Y0045931D01*
X0233957Y0045145D01*
X0234743Y0045931D01*
X0234743Y0048289D01*
X0235529Y0048289D02*
X0236315Y0047503D01*
X0236315Y0045931D01*
X0236315Y0042548D02*
X0233171Y0042548D01*
X0233171Y0041762D02*
X0233171Y0043334D01*
X0236315Y0039104D02*
X0234743Y0037532D01*
X0233957Y0035601D02*
X0235529Y0035601D01*
X0236315Y0034815D01*
X0236315Y0033243D01*
X0235529Y0032457D01*
X0233957Y0032457D01*
X0233171Y0033243D01*
X0233171Y0034815D01*
X0233957Y0035601D01*
X0233171Y0037532D02*
X0236315Y0037532D01*
X0236315Y0039104D02*
X0236315Y0039890D01*
X0236315Y0041762D02*
X0236315Y0042548D01*
X0237887Y0042548D02*
X0238673Y0042548D01*
X0241439Y0046837D02*
X0241439Y0047623D01*
X0242225Y0047623D01*
X0242225Y0046837D01*
X0241439Y0046837D01*
X0237887Y0029859D02*
X0233171Y0029859D01*
X0233171Y0029074D02*
X0233171Y0030646D01*
X0235529Y0025570D02*
X0235529Y0023997D01*
X0233171Y0023997D02*
X0237887Y0023997D01*
X0237887Y0027142D01*
X0237887Y0029074D02*
X0237887Y0029859D01*
D35*
X0241699Y0089598D02*
X0252700Y0089598D01*
X0252759Y0089600D01*
X0252821Y0089605D01*
X0252879Y0089614D01*
X0252938Y0089627D01*
X0252998Y0089643D01*
X0253054Y0089663D01*
X0253109Y0089686D01*
X0253165Y0089713D01*
X0253216Y0089742D01*
X0253268Y0089775D01*
X0253317Y0089811D01*
X0253363Y0089849D01*
X0253406Y0089890D01*
X0253448Y0089935D01*
X0253487Y0089981D01*
X0253523Y0090030D01*
X0253555Y0090081D01*
X0253585Y0090133D01*
X0253612Y0090188D01*
X0253635Y0090243D01*
X0253655Y0090300D01*
X0253670Y0090359D01*
X0253684Y0090417D01*
X0253693Y0090477D01*
X0253697Y0090538D01*
X0253700Y0090598D01*
X0253700Y0096598D01*
X0253697Y0096658D01*
X0253693Y0096719D01*
X0253684Y0096777D01*
X0253670Y0096837D01*
X0253655Y0096896D01*
X0253635Y0096953D01*
X0253612Y0097008D01*
X0253585Y0097063D01*
X0253555Y0097115D01*
X0253523Y0097166D01*
X0253487Y0097215D01*
X0253448Y0097261D01*
X0253406Y0097304D01*
X0253363Y0097347D01*
X0253317Y0097385D01*
X0253268Y0097421D01*
X0253216Y0097454D01*
X0253165Y0097483D01*
X0253109Y0097510D01*
X0253054Y0097533D01*
X0252998Y0097553D01*
X0252938Y0097569D01*
X0252879Y0097582D01*
X0252821Y0097591D01*
X0252759Y0097596D01*
X0252700Y0097598D01*
X0241699Y0097598D01*
X0241640Y0097596D01*
X0241579Y0097591D01*
X0241520Y0097582D01*
X0241461Y0097569D01*
X0241401Y0097553D01*
X0241345Y0097533D01*
X0241290Y0097510D01*
X0241235Y0097483D01*
X0241183Y0097454D01*
X0241132Y0097421D01*
X0241082Y0097385D01*
X0241037Y0097347D01*
X0240993Y0097304D01*
X0240951Y0097261D01*
X0240913Y0097215D01*
X0240877Y0097166D01*
X0240844Y0097115D01*
X0240815Y0097063D01*
X0240788Y0097008D01*
X0240764Y0096953D01*
X0240745Y0096896D01*
X0240729Y0096837D01*
X0240716Y0096777D01*
X0240707Y0096719D01*
X0240702Y0096658D01*
X0240700Y0096598D01*
X0240700Y0090598D01*
X0240702Y0090538D01*
X0240707Y0090477D01*
X0240716Y0090417D01*
X0240729Y0090359D01*
X0240745Y0090300D01*
X0240764Y0090243D01*
X0240788Y0090188D01*
X0240815Y0090133D01*
X0240844Y0090081D01*
X0240877Y0090030D01*
X0240913Y0089981D01*
X0240951Y0089935D01*
X0240993Y0089890D01*
X0241037Y0089849D01*
X0241082Y0089811D01*
X0241132Y0089775D01*
X0241183Y0089742D01*
X0241235Y0089713D01*
X0241290Y0089686D01*
X0241345Y0089663D01*
X0241401Y0089643D01*
X0241461Y0089627D01*
X0241520Y0089614D01*
X0241579Y0089605D01*
X0241640Y0089600D01*
X0241699Y0089598D01*
X0226200Y0090598D02*
X0226200Y0096598D01*
X0226198Y0096658D01*
X0226193Y0096719D01*
X0226183Y0096777D01*
X0226171Y0096837D01*
X0226155Y0096896D01*
X0226135Y0096953D01*
X0226112Y0097008D01*
X0226085Y0097063D01*
X0226056Y0097115D01*
X0226023Y0097166D01*
X0225986Y0097215D01*
X0225949Y0097261D01*
X0225907Y0097304D01*
X0225863Y0097347D01*
X0225816Y0097385D01*
X0225768Y0097421D01*
X0225717Y0097454D01*
X0225665Y0097483D01*
X0225610Y0097510D01*
X0225555Y0097533D01*
X0225498Y0097553D01*
X0225439Y0097569D01*
X0225380Y0097582D01*
X0225321Y0097591D01*
X0225260Y0097596D01*
X0225199Y0097598D01*
X0214200Y0097598D01*
X0214140Y0097596D01*
X0214079Y0097591D01*
X0214020Y0097582D01*
X0213960Y0097569D01*
X0213902Y0097553D01*
X0213845Y0097533D01*
X0213790Y0097510D01*
X0213735Y0097483D01*
X0213682Y0097454D01*
X0213632Y0097421D01*
X0213583Y0097385D01*
X0213537Y0097347D01*
X0213493Y0097304D01*
X0213451Y0097261D01*
X0213413Y0097215D01*
X0213377Y0097166D01*
X0213343Y0097115D01*
X0213315Y0097063D01*
X0213288Y0097008D01*
X0213265Y0096953D01*
X0213245Y0096896D01*
X0213228Y0096837D01*
X0213215Y0096777D01*
X0213207Y0096719D01*
X0213201Y0096658D01*
X0213200Y0096598D01*
X0213200Y0090598D01*
X0213201Y0090538D01*
X0213207Y0090477D01*
X0213215Y0090417D01*
X0213228Y0090359D01*
X0213245Y0090300D01*
X0213265Y0090243D01*
X0213288Y0090188D01*
X0213315Y0090133D01*
X0213343Y0090081D01*
X0213377Y0090030D01*
X0213413Y0089981D01*
X0213451Y0089935D01*
X0213493Y0089890D01*
X0213537Y0089849D01*
X0213583Y0089811D01*
X0213632Y0089775D01*
X0213682Y0089742D01*
X0213735Y0089713D01*
X0213790Y0089686D01*
X0213845Y0089663D01*
X0213902Y0089643D01*
X0213960Y0089627D01*
X0214020Y0089614D01*
X0214079Y0089605D01*
X0214140Y0089600D01*
X0214200Y0089598D01*
X0225199Y0089598D01*
X0225260Y0089600D01*
X0225321Y0089605D01*
X0225380Y0089614D01*
X0225439Y0089627D01*
X0225498Y0089643D01*
X0225555Y0089663D01*
X0225610Y0089686D01*
X0225665Y0089713D01*
X0225717Y0089742D01*
X0225768Y0089775D01*
X0225816Y0089811D01*
X0225863Y0089849D01*
X0225907Y0089890D01*
X0225949Y0089935D01*
X0225986Y0089981D01*
X0226023Y0090030D01*
X0226056Y0090081D01*
X0226085Y0090133D01*
X0226112Y0090188D01*
X0226135Y0090243D01*
X0226155Y0090300D01*
X0226171Y0090359D01*
X0226183Y0090417D01*
X0226193Y0090477D01*
X0226198Y0090538D01*
X0226200Y0090598D01*
X0257500Y0119087D02*
X0260435Y0122022D01*
X0259702Y0122022D02*
X0260435Y0121288D01*
X0260435Y0119821D01*
X0259702Y0119087D01*
X0258234Y0119087D01*
X0257500Y0119821D01*
X0257500Y0121288D01*
X0258234Y0122022D01*
X0259702Y0122022D01*
X0260435Y0123691D02*
X0261904Y0125157D01*
X0257500Y0125157D01*
X0257500Y0123691D02*
X0257500Y0126625D01*
X0258234Y0128294D02*
X0257500Y0129027D01*
X0257500Y0130496D01*
X0258234Y0131230D01*
X0261170Y0131230D01*
X0258234Y0128294D01*
X0261170Y0128294D01*
X0261904Y0129027D01*
X0261904Y0130496D01*
X0261170Y0131230D01*
D36*
X0252700Y0102852D02*
X0251198Y0102852D01*
X0250448Y0102102D01*
X0250448Y0100600D02*
X0251948Y0100600D01*
X0250448Y0099099D02*
X0251198Y0098348D01*
X0252700Y0098348D01*
X0253450Y0099099D01*
X0253450Y0102102D01*
X0252700Y0102852D01*
X0250448Y0100600D02*
X0250448Y0099099D01*
X0248846Y0098348D02*
X0248846Y0102852D01*
X0246595Y0102852D01*
X0245844Y0102102D01*
X0245844Y0100600D01*
X0246595Y0099850D01*
X0248846Y0099850D01*
X0244243Y0098348D02*
X0242741Y0098348D01*
X0243492Y0098348D02*
X0243492Y0102852D01*
X0244243Y0102852D02*
X0242741Y0102852D01*
X0241173Y0102102D02*
X0241173Y0099099D01*
X0240423Y0098348D01*
X0238920Y0098348D01*
X0238171Y0099099D01*
X0238171Y0102102D01*
X0238920Y0102852D01*
X0240423Y0102852D01*
X0241173Y0102102D01*
X0236568Y0102102D02*
X0235819Y0102852D01*
X0234317Y0102852D01*
X0233567Y0102102D01*
X0233567Y0101350D01*
X0234317Y0100600D01*
X0233567Y0099850D01*
X0233567Y0099099D01*
X0234317Y0098348D01*
X0235819Y0098348D01*
X0236568Y0099099D01*
X0235068Y0100600D02*
X0234317Y0100600D01*
X0225950Y0099099D02*
X0225199Y0098348D01*
X0223698Y0098348D01*
X0222948Y0099099D01*
X0222948Y0100600D01*
X0224449Y0100600D01*
X0225950Y0099099D02*
X0225950Y0102102D01*
X0225199Y0102852D01*
X0223698Y0102852D01*
X0222948Y0102102D01*
X0221346Y0102852D02*
X0221346Y0098348D01*
X0221346Y0099850D02*
X0219095Y0099850D01*
X0218344Y0100600D01*
X0218344Y0102102D01*
X0219095Y0102852D01*
X0221346Y0102852D01*
X0216743Y0102852D02*
X0215241Y0102852D01*
X0215992Y0102852D02*
X0215992Y0098348D01*
X0216743Y0098348D02*
X0215241Y0098348D01*
X0213673Y0099099D02*
X0213673Y0102102D01*
X0212923Y0102852D01*
X0211421Y0102852D01*
X0210671Y0102102D01*
X0210671Y0099099D01*
X0211421Y0098348D01*
X0212923Y0098348D01*
X0213673Y0099099D01*
X0209069Y0098348D02*
X0206067Y0101350D01*
X0206067Y0102102D01*
X0206816Y0102852D01*
X0208319Y0102852D01*
X0209069Y0102102D01*
X0209069Y0098348D02*
X0206067Y0098348D01*
D37*
X0234700Y0127797D02*
X0254700Y0127797D01*
X0254700Y0132298D01*
X0244700Y0132298D01*
X0234700Y0132298D01*
X0234700Y0127797D01*
X0237200Y0134598D02*
X0237200Y0139598D01*
X0234700Y0137098D02*
X0239699Y0137098D01*
X0244700Y0136098D02*
X0244700Y0132298D01*
X0244700Y0123598D02*
X0244700Y0116097D01*
D38*
X0224700Y0126098D02*
X0224705Y0126589D01*
X0224724Y0127079D01*
X0224754Y0127568D01*
X0224796Y0128058D01*
X0224850Y0128546D01*
X0224915Y0129033D01*
X0224994Y0129517D01*
X0225084Y0129999D01*
X0225186Y0130480D01*
X0225299Y0130958D01*
X0225423Y0131432D01*
X0225561Y0131904D01*
X0225708Y0132372D01*
X0225869Y0132836D01*
X0226040Y0133296D01*
X0226222Y0133752D01*
X0226416Y0134203D01*
X0226620Y0134649D01*
X0226836Y0135090D01*
X0227062Y0135526D01*
X0227298Y0135956D01*
X0227545Y0136380D01*
X0227803Y0136798D01*
X0228071Y0137209D01*
X0228348Y0137614D01*
X0228636Y0138012D01*
X0228933Y0138403D01*
X0229240Y0138786D01*
X0229556Y0139161D01*
X0229881Y0139529D01*
X0230215Y0139889D01*
X0230558Y0140240D01*
X0230909Y0140583D01*
X0231269Y0140917D01*
X0231637Y0141242D01*
X0232012Y0141558D01*
X0232395Y0141865D01*
X0232785Y0142162D01*
X0233184Y0142450D01*
X0233589Y0142727D01*
X0234000Y0142995D01*
X0234418Y0143253D01*
X0234842Y0143500D01*
X0235272Y0143736D01*
X0235707Y0143962D01*
X0236149Y0144178D01*
X0236595Y0144382D01*
X0237046Y0144576D01*
X0237502Y0144758D01*
X0237962Y0144929D01*
X0238425Y0145089D01*
X0238893Y0145237D01*
X0239366Y0145374D01*
X0239840Y0145499D01*
X0240318Y0145612D01*
X0240797Y0145714D01*
X0241281Y0145804D01*
X0241765Y0145882D01*
X0242252Y0145948D01*
X0242740Y0146002D01*
X0243229Y0146044D01*
X0243719Y0146074D01*
X0244209Y0146092D01*
X0244700Y0146098D01*
X0245190Y0146092D01*
X0245681Y0146074D01*
X0246171Y0146044D01*
X0246660Y0146002D01*
X0247148Y0145948D01*
X0247635Y0145882D01*
X0248118Y0145804D01*
X0248602Y0145714D01*
X0249081Y0145612D01*
X0249560Y0145499D01*
X0250034Y0145374D01*
X0250505Y0145237D01*
X0250974Y0145089D01*
X0251438Y0144929D01*
X0251898Y0144758D01*
X0252354Y0144576D01*
X0252805Y0144382D01*
X0253250Y0144178D01*
X0253691Y0143962D01*
X0254128Y0143736D01*
X0254558Y0143500D01*
X0254982Y0143253D01*
X0255399Y0142995D01*
X0255811Y0142727D01*
X0256216Y0142450D01*
X0256614Y0142162D01*
X0257005Y0141865D01*
X0257388Y0141558D01*
X0257763Y0141242D01*
X0258131Y0140917D01*
X0258490Y0140583D01*
X0258842Y0140240D01*
X0259185Y0139889D01*
X0259519Y0139529D01*
X0259844Y0139161D01*
X0260159Y0138786D01*
X0260467Y0138403D01*
X0260764Y0138012D01*
X0261052Y0137614D01*
X0261329Y0137209D01*
X0261596Y0136798D01*
X0261855Y0136380D01*
X0262102Y0135956D01*
X0262338Y0135526D01*
X0262564Y0135090D01*
X0262780Y0134649D01*
X0262984Y0134203D01*
X0263178Y0133752D01*
X0263360Y0133296D01*
X0263531Y0132836D01*
X0263691Y0132372D01*
X0263839Y0131904D01*
X0263976Y0131432D01*
X0264101Y0130958D01*
X0264214Y0130480D01*
X0264316Y0129999D01*
X0264405Y0129517D01*
X0264484Y0129033D01*
X0264550Y0128546D01*
X0264604Y0128058D01*
X0264645Y0127568D01*
X0264676Y0127079D01*
X0264694Y0126589D01*
X0264700Y0126098D01*
X0264694Y0125607D01*
X0264676Y0125116D01*
X0264645Y0124627D01*
X0264604Y0124138D01*
X0264550Y0123650D01*
X0264484Y0123163D01*
X0264405Y0122679D01*
X0264316Y0122196D01*
X0264214Y0121716D01*
X0264101Y0121238D01*
X0263976Y0120764D01*
X0263839Y0120292D01*
X0263691Y0119824D01*
X0263531Y0119360D01*
X0263360Y0118900D01*
X0263178Y0118444D01*
X0262984Y0117992D01*
X0262780Y0117547D01*
X0262564Y0117106D01*
X0262338Y0116670D01*
X0262102Y0116240D01*
X0261855Y0115816D01*
X0261596Y0115398D01*
X0261329Y0114987D01*
X0261052Y0114582D01*
X0260764Y0114184D01*
X0260467Y0113793D01*
X0260159Y0113410D01*
X0259844Y0113035D01*
X0259519Y0112667D01*
X0259185Y0112307D01*
X0258842Y0111956D01*
X0258490Y0111613D01*
X0258131Y0111279D01*
X0257763Y0110954D01*
X0257388Y0110637D01*
X0257005Y0110331D01*
X0256614Y0110034D01*
X0256216Y0109746D01*
X0255811Y0109469D01*
X0255399Y0109200D01*
X0254982Y0108942D01*
X0254558Y0108695D01*
X0254128Y0108460D01*
X0253691Y0108234D01*
X0253250Y0108017D01*
X0252805Y0107814D01*
X0252354Y0107620D01*
X0251898Y0107437D01*
X0251438Y0107267D01*
X0250974Y0107107D01*
X0250505Y0106959D01*
X0250034Y0106822D01*
X0249560Y0106697D01*
X0249081Y0106583D01*
X0248602Y0106482D01*
X0248118Y0106392D01*
X0247635Y0106314D01*
X0247148Y0106248D01*
X0246660Y0106194D01*
X0246171Y0106152D01*
X0245681Y0106122D01*
X0245190Y0106104D01*
X0244700Y0106098D01*
X0244209Y0106104D01*
X0243719Y0106122D01*
X0243229Y0106152D01*
X0242740Y0106194D01*
X0242252Y0106248D01*
X0241765Y0106314D01*
X0241281Y0106392D01*
X0240797Y0106482D01*
X0240318Y0106583D01*
X0239840Y0106697D01*
X0239366Y0106822D01*
X0238893Y0106959D01*
X0238425Y0107107D01*
X0237962Y0107267D01*
X0237502Y0107437D01*
X0237046Y0107620D01*
X0236595Y0107814D01*
X0236149Y0108017D01*
X0235707Y0108234D01*
X0235272Y0108460D01*
X0234842Y0108695D01*
X0234418Y0108942D01*
X0234000Y0109200D01*
X0233589Y0109469D01*
X0233184Y0109746D01*
X0232785Y0110034D01*
X0232395Y0110331D01*
X0232012Y0110637D01*
X0231637Y0110954D01*
X0231269Y0111279D01*
X0230909Y0111613D01*
X0230558Y0111956D01*
X0230215Y0112307D01*
X0229881Y0112667D01*
X0229556Y0113035D01*
X0229240Y0113410D01*
X0228933Y0113793D01*
X0228636Y0114184D01*
X0228348Y0114582D01*
X0228071Y0114987D01*
X0227803Y0115398D01*
X0227545Y0115816D01*
X0227298Y0116240D01*
X0227062Y0116670D01*
X0226836Y0117106D01*
X0226620Y0117547D01*
X0226416Y0117992D01*
X0226222Y0118444D01*
X0226040Y0118900D01*
X0225869Y0119360D01*
X0225708Y0119824D01*
X0225561Y0120292D01*
X0225423Y0120764D01*
X0225299Y0121238D01*
X0225186Y0121716D01*
X0225084Y0122196D01*
X0224994Y0122679D01*
X0224915Y0123163D01*
X0224850Y0123650D01*
X0224796Y0124138D01*
X0224754Y0124627D01*
X0224724Y0125116D01*
X0224705Y0125607D01*
X0224700Y0126098D01*
D39*
X0221856Y0126610D02*
X0221856Y0124508D01*
X0220805Y0123457D01*
X0216601Y0123457D01*
X0215550Y0124508D01*
X0215550Y0126610D01*
X0216601Y0127661D01*
X0215550Y0129902D02*
X0215550Y0134106D01*
X0215550Y0132005D02*
X0221856Y0132005D01*
X0219754Y0129902D01*
X0220805Y0127661D02*
X0221856Y0126610D01*
D40*
X0244700Y0122298D03*
G04 next file*
G75*
D41*
X0287500Y0023997D02*
X0286714Y0024783D01*
X0286714Y0026356D01*
X0287500Y0027142D01*
X0287500Y0029074D02*
X0286714Y0029859D01*
X0286714Y0031432D01*
X0287500Y0032217D01*
X0287500Y0029074D02*
X0290644Y0029074D01*
X0291430Y0029859D01*
X0291430Y0031432D01*
X0290644Y0032217D01*
X0290644Y0027142D02*
X0291430Y0026356D01*
X0291430Y0024783D01*
X0290644Y0023997D01*
X0287500Y0023997D01*
X0286714Y0039224D02*
X0286714Y0041582D01*
X0287500Y0042368D01*
X0288286Y0042368D01*
X0289072Y0041582D01*
X0289072Y0039224D01*
X0289072Y0041582D02*
X0289858Y0042368D01*
X0290644Y0042368D01*
X0291430Y0041582D01*
X0291430Y0039224D01*
X0286714Y0039224D01*
X0290644Y0044298D02*
X0289072Y0045870D01*
X0286714Y0045870D01*
X0289072Y0045870D02*
X0290644Y0047442D01*
X0291430Y0047442D01*
X0291430Y0044298D02*
X0290644Y0044298D01*
X0289072Y0049374D02*
X0289072Y0052518D01*
X0286714Y0054450D02*
X0291430Y0054450D01*
X0286714Y0057593D01*
X0291430Y0057593D01*
X0290644Y0059524D02*
X0287500Y0059524D01*
X0286714Y0060311D01*
X0286714Y0061883D01*
X0287500Y0062669D01*
X0289072Y0064600D02*
X0289072Y0067744D01*
X0289858Y0069675D02*
X0289072Y0070461D01*
X0289072Y0072033D01*
X0288286Y0072819D01*
X0287500Y0072819D01*
X0286714Y0072033D01*
X0286714Y0070461D01*
X0287500Y0069675D01*
X0289858Y0069675D02*
X0290644Y0069675D01*
X0291430Y0070461D01*
X0291430Y0072033D01*
X0290644Y0072819D01*
X0289858Y0074750D02*
X0291430Y0076322D01*
X0289858Y0077893D01*
X0286714Y0077893D01*
X0286714Y0074750D02*
X0289858Y0074750D01*
X0289072Y0074750D02*
X0289072Y0077893D01*
X0289072Y0084901D02*
X0289072Y0088045D01*
X0291430Y0087259D02*
X0289072Y0084901D01*
X0286714Y0087259D02*
X0291430Y0087259D01*
X0290644Y0092514D02*
X0291430Y0093300D01*
X0291430Y0094871D01*
X0290644Y0095657D01*
X0287500Y0092514D01*
X0286714Y0093300D01*
X0286714Y0094871D01*
X0287500Y0095657D01*
X0290644Y0095657D01*
X0290644Y0092514D02*
X0287500Y0092514D01*
X0287500Y0090762D02*
X0286714Y0090762D01*
X0286714Y0089976D01*
X0287500Y0089976D01*
X0287500Y0090762D01*
X0290644Y0062669D02*
X0291430Y0061883D01*
X0291430Y0060311D01*
X0290644Y0059524D01*
X0318213Y0085747D02*
X0322929Y0085747D01*
X0322929Y0088105D01*
X0322143Y0088891D01*
X0320571Y0088891D01*
X0319785Y0088105D01*
X0319785Y0085747D01*
X0320571Y0083815D02*
X0319785Y0083029D01*
X0319785Y0081457D01*
X0320571Y0080671D01*
X0322143Y0080671D01*
X0322929Y0081457D01*
X0322929Y0083029D01*
X0322143Y0083815D01*
X0320571Y0083815D01*
X0320571Y0078740D02*
X0319785Y0077954D01*
X0319785Y0076382D01*
X0320571Y0075596D01*
X0322143Y0075596D01*
X0322929Y0076382D01*
X0322929Y0077954D01*
X0322143Y0078740D01*
X0320571Y0078740D01*
X0319785Y0073665D02*
X0322143Y0073665D01*
X0322929Y0072879D01*
X0322929Y0071306D01*
X0322143Y0070521D01*
X0322929Y0068590D02*
X0322929Y0066232D01*
X0322143Y0065446D01*
X0320571Y0065446D01*
X0319785Y0066232D01*
X0319785Y0068590D01*
X0319785Y0070521D02*
X0324501Y0070521D01*
X0328053Y0066958D02*
X0328053Y0065386D01*
X0328839Y0064600D01*
X0328053Y0062669D02*
X0328053Y0059524D01*
X0331197Y0062669D01*
X0331982Y0062669D01*
X0332769Y0061883D01*
X0332769Y0060311D01*
X0331982Y0059524D01*
X0331982Y0057593D02*
X0328839Y0054450D01*
X0328053Y0055235D01*
X0328053Y0056807D01*
X0328839Y0057593D01*
X0331982Y0057593D01*
X0332769Y0056807D01*
X0332769Y0055235D01*
X0331982Y0054450D01*
X0328839Y0054450D01*
X0328053Y0052518D02*
X0328053Y0049374D01*
X0331197Y0052518D01*
X0331982Y0052518D01*
X0332769Y0051732D01*
X0332769Y0050160D01*
X0331982Y0049374D01*
X0331982Y0044905D02*
X0331197Y0044905D01*
X0330411Y0044120D01*
X0330411Y0042548D01*
X0331197Y0041762D01*
X0331982Y0041762D01*
X0332769Y0042548D01*
X0332769Y0044120D01*
X0331982Y0044905D01*
X0330411Y0044120D02*
X0329625Y0044905D01*
X0328839Y0044905D01*
X0328053Y0044120D01*
X0328053Y0042548D01*
X0328839Y0041762D01*
X0329625Y0041762D01*
X0330411Y0042548D01*
X0331982Y0039830D02*
X0328839Y0039830D01*
X0328053Y0039044D01*
X0328053Y0037472D01*
X0328839Y0036686D01*
X0331982Y0039830D01*
X0332769Y0039044D01*
X0332769Y0037472D01*
X0331982Y0036686D01*
X0328839Y0036686D01*
X0328839Y0034934D02*
X0328053Y0034934D01*
X0328053Y0034149D01*
X0328839Y0034149D01*
X0328839Y0034934D01*
X0328839Y0032217D02*
X0328053Y0031432D01*
X0328053Y0029859D01*
X0328839Y0029074D01*
X0328053Y0027142D02*
X0328053Y0023997D01*
X0328053Y0025570D02*
X0332769Y0025570D01*
X0331197Y0023997D01*
X0330411Y0029074D02*
X0331197Y0030646D01*
X0331197Y0031432D01*
X0330411Y0032217D01*
X0328839Y0032217D01*
X0330411Y0029074D02*
X0332769Y0029074D01*
X0332769Y0032217D01*
X0334749Y0029074D02*
X0339465Y0029074D01*
X0339465Y0031432D01*
X0338679Y0032217D01*
X0337107Y0032217D01*
X0336321Y0031432D01*
X0336321Y0029074D01*
X0337107Y0027142D02*
X0340251Y0027142D01*
X0341037Y0026356D01*
X0341037Y0024783D01*
X0340251Y0023997D01*
X0337107Y0023997D01*
X0336321Y0024783D01*
X0336321Y0026356D01*
X0337107Y0027142D01*
X0337107Y0034149D02*
X0336321Y0034934D01*
X0336321Y0036506D01*
X0337107Y0034149D02*
X0338679Y0034149D01*
X0339465Y0034934D01*
X0339465Y0036506D01*
X0338679Y0037293D01*
X0337893Y0037293D01*
X0337893Y0034149D01*
X0336321Y0039224D02*
X0339465Y0039224D01*
X0339465Y0041582D01*
X0338679Y0042368D01*
X0336321Y0042368D01*
X0336321Y0044298D02*
X0336321Y0046657D01*
X0337107Y0047442D01*
X0340251Y0047442D01*
X0341037Y0046657D01*
X0341037Y0044298D01*
X0336321Y0044298D01*
X0336321Y0050946D02*
X0341037Y0050946D01*
X0341037Y0049374D02*
X0341037Y0052518D01*
X0341037Y0054450D02*
X0337107Y0054450D01*
X0336321Y0055235D01*
X0336321Y0056807D01*
X0337107Y0057593D01*
X0341037Y0057593D01*
X0344587Y0056927D02*
X0344587Y0058499D01*
X0345374Y0059285D01*
X0344587Y0061217D02*
X0349304Y0061217D01*
X0347732Y0062788D01*
X0349304Y0064359D01*
X0344587Y0064359D01*
X0344587Y0067863D02*
X0349304Y0067863D01*
X0349304Y0066292D02*
X0349304Y0069436D01*
X0348518Y0071367D02*
X0349304Y0072153D01*
X0349304Y0073725D01*
X0348518Y0074511D01*
X0347732Y0074511D01*
X0344587Y0071367D01*
X0344587Y0074511D01*
X0345374Y0076442D02*
X0344587Y0077228D01*
X0344587Y0078800D01*
X0345374Y0079586D01*
X0346160Y0079586D01*
X0346946Y0078800D01*
X0346946Y0078014D01*
X0346946Y0078800D02*
X0347732Y0079586D01*
X0348518Y0079586D01*
X0349304Y0078800D01*
X0349304Y0077228D01*
X0348518Y0076442D01*
X0348518Y0081517D02*
X0349304Y0082303D01*
X0349304Y0083875D01*
X0348518Y0084661D01*
X0345374Y0081517D01*
X0344587Y0082303D01*
X0344587Y0083875D01*
X0345374Y0084661D01*
X0348518Y0084661D01*
X0348518Y0086591D02*
X0349304Y0087377D01*
X0349304Y0088950D01*
X0348518Y0089736D01*
X0345374Y0086591D01*
X0344587Y0087377D01*
X0344587Y0088950D01*
X0345374Y0089736D01*
X0348518Y0089736D01*
X0347732Y0092454D02*
X0347732Y0094026D01*
X0346946Y0094812D01*
X0344587Y0094812D01*
X0344587Y0092454D01*
X0345374Y0091668D01*
X0346160Y0092454D01*
X0346160Y0094812D01*
X0345374Y0086591D02*
X0348518Y0086591D01*
X0348518Y0081517D02*
X0345374Y0081517D01*
X0348518Y0059285D02*
X0349304Y0058499D01*
X0349304Y0056927D01*
X0348518Y0056141D01*
X0345374Y0056141D01*
X0344587Y0056927D01*
X0344587Y0049135D02*
X0347732Y0045991D01*
X0346946Y0044060D02*
X0346160Y0044060D01*
X0346160Y0040916D01*
X0345374Y0040916D02*
X0346946Y0040916D01*
X0347732Y0041702D01*
X0347732Y0043274D01*
X0346946Y0044060D01*
X0344587Y0041702D02*
X0345374Y0040916D01*
X0344587Y0041702D02*
X0344587Y0043274D01*
X0344587Y0045991D02*
X0347732Y0049135D01*
X0346946Y0038984D02*
X0344587Y0038984D01*
X0344587Y0037411D02*
X0346946Y0037411D01*
X0347732Y0038198D01*
X0346946Y0038984D01*
X0346946Y0037411D02*
X0347732Y0036626D01*
X0347732Y0035841D01*
X0344587Y0035841D01*
X0344587Y0034029D02*
X0344587Y0032457D01*
X0344587Y0033243D02*
X0347732Y0033243D01*
X0347732Y0032457D01*
X0349304Y0033243D02*
X0350090Y0033243D01*
X0349304Y0029859D02*
X0344587Y0029859D01*
X0344587Y0029074D02*
X0344587Y0030646D01*
X0345374Y0027142D02*
X0348518Y0027142D01*
X0349304Y0026356D01*
X0349304Y0024783D01*
X0348518Y0023997D01*
X0345374Y0023997D01*
X0344587Y0024783D01*
X0344587Y0026356D01*
X0345374Y0027142D01*
X0349304Y0029074D02*
X0349304Y0029859D01*
X0331982Y0064600D02*
X0332769Y0065386D01*
X0332769Y0066958D01*
X0331982Y0067744D01*
X0331197Y0067744D01*
X0330411Y0066958D01*
X0329625Y0067744D01*
X0328839Y0067744D01*
X0328053Y0066958D01*
X0330411Y0066958D02*
X0330411Y0066172D01*
X0324501Y0062729D02*
X0324501Y0061156D01*
X0323715Y0060371D01*
X0322929Y0060371D01*
X0322143Y0061156D01*
X0322143Y0062729D01*
X0321357Y0063515D01*
X0320571Y0063515D01*
X0319785Y0062729D01*
X0319785Y0061156D01*
X0320571Y0060371D01*
X0323715Y0063515D02*
X0324501Y0062729D01*
X0322143Y0053364D02*
X0319785Y0053364D01*
X0319785Y0050220D02*
X0322929Y0050220D01*
X0322929Y0052578D01*
X0322143Y0053364D01*
X0322143Y0048289D02*
X0319785Y0048289D01*
X0319785Y0045931D01*
X0320571Y0045145D01*
X0321357Y0045931D01*
X0321357Y0048289D01*
X0322143Y0048289D02*
X0322929Y0047503D01*
X0322929Y0045931D01*
X0322929Y0042548D02*
X0319785Y0042548D01*
X0319785Y0041762D02*
X0319785Y0043334D01*
X0322929Y0039104D02*
X0321357Y0037532D01*
X0320571Y0035601D02*
X0322143Y0035601D01*
X0322929Y0034815D01*
X0322929Y0033243D01*
X0322143Y0032457D01*
X0320571Y0032457D01*
X0319785Y0033243D01*
X0319785Y0034815D01*
X0320571Y0035601D01*
X0319785Y0037532D02*
X0322929Y0037532D01*
X0322929Y0039104D02*
X0322929Y0039890D01*
X0322929Y0041762D02*
X0322929Y0042548D01*
X0324501Y0042548D02*
X0325286Y0042548D01*
X0328053Y0046837D02*
X0328053Y0047623D01*
X0328839Y0047623D01*
X0328839Y0046837D01*
X0328053Y0046837D01*
X0324501Y0029859D02*
X0319785Y0029859D01*
X0319785Y0029074D02*
X0319785Y0030646D01*
X0322143Y0025570D02*
X0322143Y0023997D01*
X0319785Y0023997D02*
X0324501Y0023997D01*
X0324501Y0027142D01*
X0324501Y0029074D02*
X0324501Y0029859D01*
D42*
X0328314Y0089598D02*
X0339313Y0089598D01*
X0339374Y0089600D01*
X0339435Y0089605D01*
X0339494Y0089614D01*
X0339553Y0089627D01*
X0339612Y0089643D01*
X0339669Y0089663D01*
X0339724Y0089686D01*
X0339779Y0089713D01*
X0339831Y0089742D01*
X0339882Y0089775D01*
X0339931Y0089811D01*
X0339977Y0089849D01*
X0340021Y0089890D01*
X0340063Y0089935D01*
X0340101Y0089981D01*
X0340137Y0090030D01*
X0340170Y0090081D01*
X0340199Y0090133D01*
X0340225Y0090188D01*
X0340249Y0090243D01*
X0340269Y0090300D01*
X0340285Y0090359D01*
X0340298Y0090417D01*
X0340307Y0090477D01*
X0340312Y0090538D01*
X0340314Y0090598D01*
X0340314Y0096598D01*
X0340312Y0096658D01*
X0340307Y0096719D01*
X0340298Y0096777D01*
X0340285Y0096837D01*
X0340269Y0096896D01*
X0340249Y0096953D01*
X0340225Y0097008D01*
X0340199Y0097063D01*
X0340170Y0097115D01*
X0340137Y0097166D01*
X0340101Y0097215D01*
X0340063Y0097261D01*
X0340021Y0097304D01*
X0339977Y0097347D01*
X0339931Y0097385D01*
X0339882Y0097421D01*
X0339831Y0097454D01*
X0339779Y0097483D01*
X0339724Y0097510D01*
X0339669Y0097533D01*
X0339612Y0097553D01*
X0339553Y0097569D01*
X0339494Y0097582D01*
X0339435Y0097591D01*
X0339374Y0097596D01*
X0339313Y0097598D01*
X0328314Y0097598D01*
X0328254Y0097596D01*
X0328193Y0097591D01*
X0328134Y0097582D01*
X0328075Y0097569D01*
X0328016Y0097553D01*
X0327959Y0097533D01*
X0327904Y0097510D01*
X0327849Y0097483D01*
X0327797Y0097454D01*
X0327746Y0097421D01*
X0327697Y0097385D01*
X0327651Y0097347D01*
X0327607Y0097304D01*
X0327565Y0097261D01*
X0327527Y0097215D01*
X0327491Y0097166D01*
X0327458Y0097115D01*
X0327429Y0097063D01*
X0327402Y0097008D01*
X0327379Y0096953D01*
X0327359Y0096896D01*
X0327343Y0096837D01*
X0327330Y0096777D01*
X0327321Y0096719D01*
X0327316Y0096658D01*
X0327314Y0096598D01*
X0327314Y0090598D01*
X0327316Y0090538D01*
X0327321Y0090477D01*
X0327330Y0090417D01*
X0327343Y0090359D01*
X0327359Y0090300D01*
X0327379Y0090243D01*
X0327402Y0090188D01*
X0327429Y0090133D01*
X0327458Y0090081D01*
X0327491Y0090030D01*
X0327527Y0089981D01*
X0327565Y0089935D01*
X0327607Y0089890D01*
X0327651Y0089849D01*
X0327697Y0089811D01*
X0327746Y0089775D01*
X0327797Y0089742D01*
X0327849Y0089713D01*
X0327904Y0089686D01*
X0327959Y0089663D01*
X0328016Y0089643D01*
X0328075Y0089627D01*
X0328134Y0089614D01*
X0328193Y0089605D01*
X0328254Y0089600D01*
X0328314Y0089598D01*
X0312814Y0090598D02*
X0312814Y0096598D01*
X0312812Y0096658D01*
X0312807Y0096719D01*
X0312797Y0096777D01*
X0312785Y0096837D01*
X0312769Y0096896D01*
X0312749Y0096953D01*
X0312726Y0097008D01*
X0312699Y0097063D01*
X0312670Y0097115D01*
X0312637Y0097166D01*
X0312600Y0097215D01*
X0312563Y0097261D01*
X0312520Y0097304D01*
X0312476Y0097347D01*
X0312431Y0097385D01*
X0312381Y0097421D01*
X0312331Y0097454D01*
X0312279Y0097483D01*
X0312224Y0097510D01*
X0312169Y0097533D01*
X0312112Y0097553D01*
X0312053Y0097569D01*
X0311994Y0097582D01*
X0311935Y0097591D01*
X0311874Y0097596D01*
X0311814Y0097598D01*
X0300814Y0097598D01*
X0300754Y0097596D01*
X0300692Y0097591D01*
X0300633Y0097582D01*
X0300575Y0097569D01*
X0300516Y0097553D01*
X0300458Y0097533D01*
X0300404Y0097510D01*
X0300349Y0097483D01*
X0300297Y0097454D01*
X0300246Y0097421D01*
X0300196Y0097385D01*
X0300151Y0097347D01*
X0300107Y0097304D01*
X0300064Y0097261D01*
X0300027Y0097215D01*
X0299991Y0097166D01*
X0299958Y0097115D01*
X0299929Y0097063D01*
X0299902Y0097008D01*
X0299879Y0096953D01*
X0299859Y0096896D01*
X0299842Y0096837D01*
X0299830Y0096777D01*
X0299821Y0096719D01*
X0299816Y0096658D01*
X0299814Y0096598D01*
X0299814Y0090598D01*
X0299816Y0090538D01*
X0299821Y0090477D01*
X0299830Y0090417D01*
X0299842Y0090359D01*
X0299859Y0090300D01*
X0299879Y0090243D01*
X0299902Y0090188D01*
X0299929Y0090133D01*
X0299958Y0090081D01*
X0299991Y0090030D01*
X0300027Y0089981D01*
X0300064Y0089935D01*
X0300107Y0089890D01*
X0300151Y0089849D01*
X0300196Y0089811D01*
X0300246Y0089775D01*
X0300297Y0089742D01*
X0300349Y0089713D01*
X0300404Y0089686D01*
X0300458Y0089663D01*
X0300516Y0089643D01*
X0300575Y0089627D01*
X0300633Y0089614D01*
X0300692Y0089605D01*
X0300754Y0089600D01*
X0300814Y0089598D01*
X0311814Y0089598D01*
X0311874Y0089600D01*
X0311935Y0089605D01*
X0311994Y0089614D01*
X0312053Y0089627D01*
X0312112Y0089643D01*
X0312169Y0089663D01*
X0312224Y0089686D01*
X0312279Y0089713D01*
X0312331Y0089742D01*
X0312381Y0089775D01*
X0312431Y0089811D01*
X0312476Y0089849D01*
X0312520Y0089890D01*
X0312563Y0089935D01*
X0312600Y0089981D01*
X0312637Y0090030D01*
X0312670Y0090081D01*
X0312699Y0090133D01*
X0312726Y0090188D01*
X0312749Y0090243D01*
X0312769Y0090300D01*
X0312785Y0090359D01*
X0312797Y0090417D01*
X0312807Y0090477D01*
X0312812Y0090538D01*
X0312814Y0090598D01*
X0344114Y0119087D02*
X0347049Y0122022D01*
X0346316Y0122022D02*
X0347049Y0121288D01*
X0347049Y0119821D01*
X0346316Y0119087D01*
X0344848Y0119087D01*
X0344114Y0119821D01*
X0344114Y0121288D01*
X0344848Y0122022D01*
X0346316Y0122022D01*
X0347049Y0123691D02*
X0348518Y0125157D01*
X0344114Y0125157D01*
X0344114Y0123691D02*
X0344114Y0126625D01*
X0344848Y0128294D02*
X0344114Y0129027D01*
X0344114Y0130496D01*
X0344848Y0131230D01*
X0347784Y0131230D01*
X0344848Y0128294D01*
X0347784Y0128294D01*
X0348518Y0129027D01*
X0348518Y0130496D01*
X0347784Y0131230D01*
D43*
X0339313Y0102852D02*
X0337812Y0102852D01*
X0337062Y0102102D01*
X0337062Y0100600D02*
X0338563Y0100600D01*
X0337062Y0099099D02*
X0337812Y0098348D01*
X0339313Y0098348D01*
X0340064Y0099099D01*
X0340064Y0102102D01*
X0339313Y0102852D01*
X0337062Y0100600D02*
X0337062Y0099099D01*
X0335460Y0098348D02*
X0335460Y0102852D01*
X0333209Y0102852D01*
X0332458Y0102102D01*
X0332458Y0100600D01*
X0333209Y0099850D01*
X0335460Y0099850D01*
X0330857Y0098348D02*
X0329355Y0098348D01*
X0330106Y0098348D02*
X0330106Y0102852D01*
X0330857Y0102852D02*
X0329355Y0102852D01*
X0327787Y0102102D02*
X0327787Y0099099D01*
X0327037Y0098348D01*
X0325535Y0098348D01*
X0324785Y0099099D01*
X0324785Y0102102D01*
X0325535Y0102852D01*
X0327037Y0102852D01*
X0327787Y0102102D01*
X0323183Y0102102D02*
X0322433Y0102852D01*
X0320931Y0102852D01*
X0320181Y0102102D01*
X0320181Y0101350D01*
X0320931Y0100600D01*
X0320181Y0099850D01*
X0320181Y0099099D01*
X0320931Y0098348D01*
X0322433Y0098348D01*
X0323183Y0099099D01*
X0321682Y0100600D02*
X0320931Y0100600D01*
X0312564Y0099099D02*
X0311814Y0098348D01*
X0310312Y0098348D01*
X0309562Y0099099D01*
X0309562Y0100600D01*
X0311063Y0100600D01*
X0312564Y0099099D02*
X0312564Y0102102D01*
X0311814Y0102852D01*
X0310312Y0102852D01*
X0309562Y0102102D01*
X0307960Y0102852D02*
X0307960Y0098348D01*
X0307960Y0099850D02*
X0305709Y0099850D01*
X0304958Y0100600D01*
X0304958Y0102102D01*
X0305709Y0102852D01*
X0307960Y0102852D01*
X0303357Y0102852D02*
X0301855Y0102852D01*
X0302606Y0102852D02*
X0302606Y0098348D01*
X0303357Y0098348D02*
X0301855Y0098348D01*
X0300287Y0099099D02*
X0300287Y0102102D01*
X0299537Y0102852D01*
X0298035Y0102852D01*
X0297285Y0102102D01*
X0297285Y0099099D01*
X0298035Y0098348D01*
X0299537Y0098348D01*
X0300287Y0099099D01*
X0295683Y0098348D02*
X0292681Y0101350D01*
X0292681Y0102102D01*
X0293430Y0102852D01*
X0294933Y0102852D01*
X0295683Y0102102D01*
X0295683Y0098348D02*
X0292681Y0098348D01*
D44*
X0321314Y0127797D02*
X0341314Y0127797D01*
X0341314Y0132298D01*
X0331314Y0132298D01*
X0321314Y0132298D01*
X0321314Y0127797D01*
X0323814Y0134598D02*
X0323814Y0139598D01*
X0321314Y0137098D02*
X0326314Y0137098D01*
X0331314Y0136098D02*
X0331314Y0132298D01*
X0331314Y0123598D02*
X0331314Y0116097D01*
D45*
X0311314Y0126098D02*
X0311320Y0126589D01*
X0311338Y0127079D01*
X0311368Y0127568D01*
X0311410Y0128058D01*
X0311464Y0128546D01*
X0311530Y0129033D01*
X0311608Y0129517D01*
X0311698Y0129999D01*
X0311800Y0130480D01*
X0311913Y0130958D01*
X0312038Y0131432D01*
X0312175Y0131904D01*
X0312323Y0132372D01*
X0312483Y0132836D01*
X0312654Y0133296D01*
X0312836Y0133752D01*
X0313030Y0134203D01*
X0313234Y0134649D01*
X0313450Y0135090D01*
X0313676Y0135526D01*
X0313912Y0135956D01*
X0314159Y0136380D01*
X0314417Y0136798D01*
X0314685Y0137209D01*
X0314962Y0137614D01*
X0315250Y0138012D01*
X0315547Y0138403D01*
X0315854Y0138786D01*
X0316170Y0139161D01*
X0316495Y0139529D01*
X0316829Y0139889D01*
X0317172Y0140240D01*
X0317523Y0140583D01*
X0317883Y0140917D01*
X0318251Y0141242D01*
X0318626Y0141558D01*
X0319009Y0141865D01*
X0319400Y0142162D01*
X0319798Y0142450D01*
X0320203Y0142727D01*
X0320614Y0142995D01*
X0321032Y0143253D01*
X0321456Y0143500D01*
X0321886Y0143736D01*
X0322322Y0143962D01*
X0322763Y0144178D01*
X0323209Y0144382D01*
X0323659Y0144576D01*
X0324116Y0144758D01*
X0324576Y0144929D01*
X0325040Y0145089D01*
X0325508Y0145237D01*
X0325980Y0145374D01*
X0326454Y0145499D01*
X0326932Y0145612D01*
X0327412Y0145714D01*
X0327895Y0145804D01*
X0328379Y0145882D01*
X0328866Y0145948D01*
X0329354Y0146002D01*
X0329843Y0146044D01*
X0330333Y0146074D01*
X0330823Y0146092D01*
X0331314Y0146098D01*
X0331805Y0146092D01*
X0332295Y0146074D01*
X0332785Y0146044D01*
X0333273Y0146002D01*
X0333762Y0145948D01*
X0334249Y0145882D01*
X0334732Y0145804D01*
X0335216Y0145714D01*
X0335695Y0145612D01*
X0336174Y0145499D01*
X0336647Y0145374D01*
X0337120Y0145237D01*
X0337588Y0145089D01*
X0338052Y0144929D01*
X0338511Y0144758D01*
X0338968Y0144576D01*
X0339419Y0144382D01*
X0339865Y0144178D01*
X0340305Y0143962D01*
X0340742Y0143736D01*
X0341172Y0143500D01*
X0341596Y0143253D01*
X0342014Y0142995D01*
X0342424Y0142727D01*
X0342830Y0142450D01*
X0343228Y0142162D01*
X0343619Y0141865D01*
X0344002Y0141558D01*
X0344377Y0141242D01*
X0344745Y0140917D01*
X0345105Y0140583D01*
X0345455Y0140240D01*
X0345799Y0139889D01*
X0346133Y0139529D01*
X0346458Y0139161D01*
X0346774Y0138786D01*
X0347081Y0138403D01*
X0347378Y0138012D01*
X0347666Y0137614D01*
X0347943Y0137209D01*
X0348211Y0136798D01*
X0348468Y0136380D01*
X0348716Y0135956D01*
X0348952Y0135526D01*
X0349178Y0135090D01*
X0349394Y0134649D01*
X0349598Y0134203D01*
X0349792Y0133752D01*
X0349974Y0133296D01*
X0350145Y0132836D01*
X0350305Y0132372D01*
X0350452Y0131904D01*
X0350590Y0131432D01*
X0350715Y0130958D01*
X0350828Y0130480D01*
X0350930Y0129999D01*
X0351020Y0129517D01*
X0351098Y0129033D01*
X0351163Y0128546D01*
X0351218Y0128058D01*
X0351260Y0127568D01*
X0351290Y0127079D01*
X0351308Y0126589D01*
X0351314Y0126098D01*
X0351308Y0125607D01*
X0351290Y0125116D01*
X0351260Y0124627D01*
X0351218Y0124138D01*
X0351163Y0123650D01*
X0351098Y0123163D01*
X0351020Y0122679D01*
X0350930Y0122196D01*
X0350828Y0121716D01*
X0350715Y0121238D01*
X0350590Y0120764D01*
X0350452Y0120292D01*
X0350305Y0119824D01*
X0350145Y0119360D01*
X0349974Y0118900D01*
X0349792Y0118444D01*
X0349598Y0117992D01*
X0349394Y0117547D01*
X0349178Y0117106D01*
X0348952Y0116670D01*
X0348716Y0116240D01*
X0348468Y0115816D01*
X0348211Y0115398D01*
X0347943Y0114987D01*
X0347666Y0114582D01*
X0347378Y0114184D01*
X0347081Y0113793D01*
X0346774Y0113410D01*
X0346458Y0113035D01*
X0346133Y0112667D01*
X0345799Y0112307D01*
X0345455Y0111956D01*
X0345105Y0111613D01*
X0344745Y0111279D01*
X0344377Y0110954D01*
X0344002Y0110637D01*
X0343619Y0110331D01*
X0343228Y0110034D01*
X0342830Y0109746D01*
X0342424Y0109469D01*
X0342014Y0109200D01*
X0341596Y0108942D01*
X0341172Y0108695D01*
X0340742Y0108460D01*
X0340305Y0108234D01*
X0339865Y0108017D01*
X0339419Y0107814D01*
X0338968Y0107620D01*
X0338511Y0107437D01*
X0338052Y0107267D01*
X0337588Y0107107D01*
X0337120Y0106959D01*
X0336647Y0106822D01*
X0336174Y0106697D01*
X0335695Y0106583D01*
X0335216Y0106482D01*
X0334732Y0106392D01*
X0334249Y0106314D01*
X0333762Y0106248D01*
X0333273Y0106194D01*
X0332785Y0106152D01*
X0332295Y0106122D01*
X0331805Y0106104D01*
X0331314Y0106098D01*
X0330823Y0106104D01*
X0330333Y0106122D01*
X0329843Y0106152D01*
X0329354Y0106194D01*
X0328866Y0106248D01*
X0328379Y0106314D01*
X0327895Y0106392D01*
X0327412Y0106482D01*
X0326932Y0106583D01*
X0326454Y0106697D01*
X0325980Y0106822D01*
X0325508Y0106959D01*
X0325040Y0107107D01*
X0324576Y0107267D01*
X0324116Y0107437D01*
X0323659Y0107620D01*
X0323209Y0107814D01*
X0322763Y0108017D01*
X0322322Y0108234D01*
X0321886Y0108460D01*
X0321456Y0108695D01*
X0321032Y0108942D01*
X0320614Y0109200D01*
X0320203Y0109469D01*
X0319798Y0109746D01*
X0319400Y0110034D01*
X0319009Y0110331D01*
X0318626Y0110637D01*
X0318251Y0110954D01*
X0317883Y0111279D01*
X0317523Y0111613D01*
X0317172Y0111956D01*
X0316829Y0112307D01*
X0316495Y0112667D01*
X0316170Y0113035D01*
X0315854Y0113410D01*
X0315547Y0113793D01*
X0315250Y0114184D01*
X0314962Y0114582D01*
X0314685Y0114987D01*
X0314417Y0115398D01*
X0314159Y0115816D01*
X0313912Y0116240D01*
X0313676Y0116670D01*
X0313450Y0117106D01*
X0313234Y0117547D01*
X0313030Y0117992D01*
X0312836Y0118444D01*
X0312654Y0118900D01*
X0312483Y0119360D01*
X0312323Y0119824D01*
X0312175Y0120292D01*
X0312038Y0120764D01*
X0311913Y0121238D01*
X0311800Y0121716D01*
X0311698Y0122196D01*
X0311608Y0122679D01*
X0311530Y0123163D01*
X0311464Y0123650D01*
X0311410Y0124138D01*
X0311368Y0124627D01*
X0311338Y0125116D01*
X0311320Y0125607D01*
X0311314Y0126098D01*
D46*
X0308470Y0126610D02*
X0308470Y0124508D01*
X0307419Y0123457D01*
X0303215Y0123457D01*
X0302164Y0124508D01*
X0302164Y0126610D01*
X0303215Y0127661D01*
X0302164Y0129902D02*
X0302164Y0134106D01*
X0302164Y0132005D02*
X0308470Y0132005D01*
X0306368Y0129902D01*
X0307419Y0127661D02*
X0308470Y0126610D01*
D47*
X0331314Y0122298D03*
G04 next file*
G75*
D48*
X0027658Y0201162D02*
X0026872Y0201948D01*
X0026872Y0203521D01*
X0027658Y0204307D01*
X0027658Y0206239D02*
X0026872Y0207025D01*
X0026872Y0208597D01*
X0027658Y0209382D01*
X0027658Y0206239D02*
X0030802Y0206239D01*
X0031588Y0207025D01*
X0031588Y0208597D01*
X0030802Y0209382D01*
X0030802Y0204307D02*
X0031588Y0203521D01*
X0031588Y0201948D01*
X0030802Y0201162D01*
X0027658Y0201162D01*
X0026872Y0216389D02*
X0026872Y0218746D01*
X0027658Y0219532D01*
X0028444Y0219532D01*
X0029230Y0218746D01*
X0029230Y0216389D01*
X0029230Y0218746D02*
X0030016Y0219532D01*
X0030802Y0219532D01*
X0031588Y0218746D01*
X0031588Y0216389D01*
X0026872Y0216389D01*
X0030802Y0221464D02*
X0029230Y0223036D01*
X0026872Y0223036D01*
X0029230Y0223036D02*
X0030802Y0224608D01*
X0031588Y0224608D01*
X0031588Y0221464D02*
X0030802Y0221464D01*
X0029230Y0226539D02*
X0029230Y0229683D01*
X0026872Y0231615D02*
X0031588Y0231615D01*
X0026872Y0234757D01*
X0031588Y0234757D01*
X0030802Y0236689D02*
X0027658Y0236689D01*
X0026872Y0237476D01*
X0026872Y0239048D01*
X0027658Y0239834D01*
X0029230Y0241765D02*
X0029230Y0244909D01*
X0030016Y0246840D02*
X0029230Y0247626D01*
X0029230Y0249198D01*
X0028444Y0249983D01*
X0027658Y0249983D01*
X0026872Y0249198D01*
X0026872Y0247626D01*
X0027658Y0246840D01*
X0030016Y0246840D02*
X0030802Y0246840D01*
X0031588Y0247626D01*
X0031588Y0249198D01*
X0030802Y0249983D01*
X0030016Y0251914D02*
X0031588Y0253487D01*
X0030016Y0255059D01*
X0026872Y0255059D01*
X0026872Y0251914D02*
X0030016Y0251914D01*
X0029230Y0251914D02*
X0029230Y0255059D01*
X0029230Y0262066D02*
X0029230Y0265210D01*
X0031588Y0264423D02*
X0029230Y0262066D01*
X0026872Y0264423D02*
X0031588Y0264423D01*
X0030802Y0269679D02*
X0031588Y0270465D01*
X0031588Y0272036D01*
X0030802Y0272822D01*
X0027658Y0269679D01*
X0026872Y0270465D01*
X0026872Y0272036D01*
X0027658Y0272822D01*
X0030802Y0272822D01*
X0030802Y0269679D02*
X0027658Y0269679D01*
X0027658Y0267927D02*
X0026872Y0267927D01*
X0026872Y0267140D01*
X0027658Y0267140D01*
X0027658Y0267927D01*
X0030802Y0239834D02*
X0031588Y0239048D01*
X0031588Y0237476D01*
X0030802Y0236689D01*
X0058370Y0262912D02*
X0063086Y0262912D01*
X0063086Y0265269D01*
X0062300Y0266056D01*
X0060729Y0266056D01*
X0059943Y0265269D01*
X0059943Y0262912D01*
X0060729Y0260980D02*
X0059943Y0260194D01*
X0059943Y0258622D01*
X0060729Y0257836D01*
X0062300Y0257836D01*
X0063086Y0258622D01*
X0063086Y0260194D01*
X0062300Y0260980D01*
X0060729Y0260980D01*
X0060729Y0255905D02*
X0059943Y0255119D01*
X0059943Y0253547D01*
X0060729Y0252761D01*
X0062300Y0252761D01*
X0063086Y0253547D01*
X0063086Y0255119D01*
X0062300Y0255905D01*
X0060729Y0255905D01*
X0059943Y0250830D02*
X0062300Y0250830D01*
X0063086Y0250044D01*
X0063086Y0248471D01*
X0062300Y0247685D01*
X0063086Y0245755D02*
X0063086Y0243397D01*
X0062300Y0242611D01*
X0060729Y0242611D01*
X0059943Y0243397D01*
X0059943Y0245755D01*
X0059943Y0247685D02*
X0064659Y0247685D01*
X0068211Y0244123D02*
X0068211Y0242551D01*
X0068997Y0241765D01*
X0068211Y0239834D02*
X0068211Y0236689D01*
X0071355Y0239834D01*
X0072141Y0239834D01*
X0072927Y0239048D01*
X0072927Y0237476D01*
X0072141Y0236689D01*
X0072141Y0234757D02*
X0068997Y0231615D01*
X0068211Y0232401D01*
X0068211Y0233971D01*
X0068997Y0234757D01*
X0072141Y0234757D01*
X0072927Y0233971D01*
X0072927Y0232401D01*
X0072141Y0231615D01*
X0068997Y0231615D01*
X0068211Y0229683D02*
X0068211Y0226539D01*
X0071355Y0229683D01*
X0072141Y0229683D01*
X0072927Y0228897D01*
X0072927Y0227325D01*
X0072141Y0226539D01*
X0072141Y0222070D02*
X0071355Y0222070D01*
X0070569Y0221285D01*
X0070569Y0219713D01*
X0071355Y0218927D01*
X0072141Y0218927D01*
X0072927Y0219713D01*
X0072927Y0221285D01*
X0072141Y0222070D01*
X0070569Y0221285D02*
X0069783Y0222070D01*
X0068997Y0222070D01*
X0068211Y0221285D01*
X0068211Y0219713D01*
X0068997Y0218927D01*
X0069783Y0218927D01*
X0070569Y0219713D01*
X0072141Y0216995D02*
X0068997Y0216995D01*
X0068211Y0216209D01*
X0068211Y0214637D01*
X0068997Y0213851D01*
X0072141Y0216995D01*
X0072927Y0216209D01*
X0072927Y0214637D01*
X0072141Y0213851D01*
X0068997Y0213851D01*
X0068997Y0212100D02*
X0068211Y0212100D01*
X0068211Y0211314D01*
X0068997Y0211314D01*
X0068997Y0212100D01*
X0068997Y0209382D02*
X0068211Y0208597D01*
X0068211Y0207025D01*
X0068997Y0206239D01*
X0068211Y0204307D02*
X0068211Y0201162D01*
X0068211Y0202735D02*
X0072927Y0202735D01*
X0071355Y0201162D01*
X0070569Y0206239D02*
X0071355Y0207811D01*
X0071355Y0208597D01*
X0070569Y0209382D01*
X0068997Y0209382D01*
X0070569Y0206239D02*
X0072927Y0206239D01*
X0072927Y0209382D01*
X0074906Y0206239D02*
X0079623Y0206239D01*
X0079623Y0208597D01*
X0078837Y0209382D01*
X0077265Y0209382D01*
X0076479Y0208597D01*
X0076479Y0206239D01*
X0077265Y0204307D02*
X0080409Y0204307D01*
X0081195Y0203521D01*
X0081195Y0201948D01*
X0080409Y0201162D01*
X0077265Y0201162D01*
X0076479Y0201948D01*
X0076479Y0203521D01*
X0077265Y0204307D01*
X0077265Y0211314D02*
X0076479Y0212100D01*
X0076479Y0213672D01*
X0077265Y0211314D02*
X0078837Y0211314D01*
X0079623Y0212100D01*
X0079623Y0213672D01*
X0078837Y0214458D01*
X0078050Y0214458D01*
X0078050Y0211314D01*
X0076479Y0216389D02*
X0079623Y0216389D01*
X0079623Y0218746D01*
X0078837Y0219532D01*
X0076479Y0219532D01*
X0076479Y0221464D02*
X0076479Y0223822D01*
X0077265Y0224608D01*
X0080409Y0224608D01*
X0081195Y0223822D01*
X0081195Y0221464D01*
X0076479Y0221464D01*
X0076479Y0228111D02*
X0081195Y0228111D01*
X0081195Y0226539D02*
X0081195Y0229683D01*
X0081195Y0231615D02*
X0077265Y0231615D01*
X0076479Y0232401D01*
X0076479Y0233971D01*
X0077265Y0234757D01*
X0081195Y0234757D01*
X0084746Y0234092D02*
X0084746Y0235664D01*
X0085532Y0236450D01*
X0084746Y0238382D02*
X0089462Y0238382D01*
X0087890Y0239953D01*
X0089462Y0241525D01*
X0084746Y0241525D01*
X0084746Y0245029D02*
X0089462Y0245029D01*
X0089462Y0243457D02*
X0089462Y0246600D01*
X0088676Y0248532D02*
X0089462Y0249318D01*
X0089462Y0250890D01*
X0088676Y0251676D01*
X0087890Y0251676D01*
X0084746Y0248532D01*
X0084746Y0251676D01*
X0085532Y0253607D02*
X0084746Y0254393D01*
X0084746Y0255965D01*
X0085532Y0256751D01*
X0086318Y0256751D01*
X0087104Y0255965D01*
X0087104Y0255179D01*
X0087104Y0255965D02*
X0087890Y0256751D01*
X0088676Y0256751D01*
X0089462Y0255965D01*
X0089462Y0254393D01*
X0088676Y0253607D01*
X0088676Y0258682D02*
X0089462Y0259468D01*
X0089462Y0261039D01*
X0088676Y0261825D01*
X0085532Y0258682D01*
X0084746Y0259468D01*
X0084746Y0261039D01*
X0085532Y0261825D01*
X0088676Y0261825D01*
X0088676Y0263757D02*
X0089462Y0264543D01*
X0089462Y0266115D01*
X0088676Y0266901D01*
X0085532Y0263757D01*
X0084746Y0264543D01*
X0084746Y0266115D01*
X0085532Y0266901D01*
X0088676Y0266901D01*
X0087890Y0269619D02*
X0087890Y0271191D01*
X0087104Y0271977D01*
X0084746Y0271977D01*
X0084746Y0269619D01*
X0085532Y0268833D01*
X0086318Y0269619D01*
X0086318Y0271977D01*
X0085532Y0263757D02*
X0088676Y0263757D01*
X0088676Y0258682D02*
X0085532Y0258682D01*
X0088676Y0236450D02*
X0089462Y0235664D01*
X0089462Y0234092D01*
X0088676Y0233306D01*
X0085532Y0233306D01*
X0084746Y0234092D01*
X0084746Y0226300D02*
X0087890Y0223156D01*
X0087104Y0221225D02*
X0086318Y0221225D01*
X0086318Y0218081D01*
X0085532Y0218081D02*
X0087104Y0218081D01*
X0087890Y0218867D01*
X0087890Y0220439D01*
X0087104Y0221225D01*
X0084746Y0218867D02*
X0085532Y0218081D01*
X0084746Y0218867D02*
X0084746Y0220439D01*
X0084746Y0223156D02*
X0087890Y0226300D01*
X0087104Y0216149D02*
X0084746Y0216149D01*
X0084746Y0214577D02*
X0087104Y0214577D01*
X0087890Y0215363D01*
X0087104Y0216149D01*
X0087104Y0214577D02*
X0087890Y0213791D01*
X0087890Y0213005D01*
X0084746Y0213005D01*
X0084746Y0211194D02*
X0084746Y0209622D01*
X0084746Y0210408D02*
X0087890Y0210408D01*
X0087890Y0209622D01*
X0089462Y0210408D02*
X0090248Y0210408D01*
X0089462Y0207025D02*
X0084746Y0207025D01*
X0084746Y0206239D02*
X0084746Y0207811D01*
X0085532Y0204307D02*
X0088676Y0204307D01*
X0089462Y0203521D01*
X0089462Y0201948D01*
X0088676Y0201162D01*
X0085532Y0201162D01*
X0084746Y0201948D01*
X0084746Y0203521D01*
X0085532Y0204307D01*
X0089462Y0206239D02*
X0089462Y0207025D01*
X0072141Y0241765D02*
X0072927Y0242551D01*
X0072927Y0244123D01*
X0072141Y0244909D01*
X0071355Y0244909D01*
X0070569Y0244123D01*
X0069783Y0244909D01*
X0068997Y0244909D01*
X0068211Y0244123D01*
X0070569Y0244123D02*
X0070569Y0243337D01*
X0064659Y0239894D02*
X0064659Y0238322D01*
X0063872Y0237536D01*
X0063086Y0237536D01*
X0062300Y0238322D01*
X0062300Y0239894D01*
X0061515Y0240680D01*
X0060729Y0240680D01*
X0059943Y0239894D01*
X0059943Y0238322D01*
X0060729Y0237536D01*
X0063872Y0240680D02*
X0064659Y0239894D01*
X0062300Y0230528D02*
X0059943Y0230528D01*
X0059943Y0227385D02*
X0063086Y0227385D01*
X0063086Y0229743D01*
X0062300Y0230528D01*
X0062300Y0225454D02*
X0059943Y0225454D01*
X0059943Y0223096D01*
X0060729Y0222310D01*
X0061515Y0223096D01*
X0061515Y0225454D01*
X0062300Y0225454D02*
X0063086Y0224668D01*
X0063086Y0223096D01*
X0063086Y0219713D02*
X0059943Y0219713D01*
X0059943Y0218927D02*
X0059943Y0220499D01*
X0063086Y0216269D02*
X0061515Y0214697D01*
X0060729Y0212766D02*
X0062300Y0212766D01*
X0063086Y0211980D01*
X0063086Y0210408D01*
X0062300Y0209622D01*
X0060729Y0209622D01*
X0059943Y0210408D01*
X0059943Y0211980D01*
X0060729Y0212766D01*
X0059943Y0214697D02*
X0063086Y0214697D01*
X0063086Y0216269D02*
X0063086Y0217055D01*
X0063086Y0218927D02*
X0063086Y0219713D01*
X0064659Y0219713D02*
X0065445Y0219713D01*
X0068211Y0224002D02*
X0068211Y0224788D01*
X0068997Y0224788D01*
X0068997Y0224002D01*
X0068211Y0224002D01*
X0064659Y0207025D02*
X0059943Y0207025D01*
X0059943Y0206239D02*
X0059943Y0207811D01*
X0062300Y0202735D02*
X0062300Y0201162D01*
X0059943Y0201162D02*
X0064659Y0201162D01*
X0064659Y0204307D01*
X0064659Y0206239D02*
X0064659Y0207025D01*
D49*
X0068472Y0266763D02*
X0079472Y0266763D01*
X0079532Y0266765D01*
X0079593Y0266770D01*
X0079652Y0266779D01*
X0079711Y0266792D01*
X0079770Y0266808D01*
X0079827Y0266828D01*
X0079882Y0266851D01*
X0079937Y0266878D01*
X0079989Y0266907D01*
X0080040Y0266940D01*
X0080089Y0266976D01*
X0080135Y0267014D01*
X0080179Y0267056D01*
X0080220Y0267100D01*
X0080259Y0267146D01*
X0080295Y0267195D01*
X0080328Y0267246D01*
X0080357Y0267297D01*
X0080384Y0267353D01*
X0080406Y0267408D01*
X0080427Y0267465D01*
X0080443Y0267524D01*
X0080456Y0267583D01*
X0080465Y0267642D01*
X0080470Y0267703D01*
X0080472Y0267763D01*
X0080472Y0273763D01*
X0080470Y0273823D01*
X0080465Y0273884D01*
X0080456Y0273943D01*
X0080443Y0274002D01*
X0080427Y0274061D01*
X0080406Y0274118D01*
X0080384Y0274173D01*
X0080357Y0274227D01*
X0080328Y0274280D01*
X0080295Y0274331D01*
X0080259Y0274380D01*
X0080220Y0274426D01*
X0080179Y0274470D01*
X0080135Y0274512D01*
X0080089Y0274550D01*
X0080040Y0274586D01*
X0079989Y0274619D01*
X0079937Y0274648D01*
X0079882Y0274675D01*
X0079827Y0274698D01*
X0079770Y0274718D01*
X0079711Y0274734D01*
X0079652Y0274747D01*
X0079593Y0274756D01*
X0079532Y0274761D01*
X0079472Y0274763D01*
X0068472Y0274763D01*
X0068412Y0274761D01*
X0068351Y0274756D01*
X0068292Y0274747D01*
X0068233Y0274734D01*
X0068173Y0274718D01*
X0068117Y0274698D01*
X0068062Y0274675D01*
X0068007Y0274648D01*
X0067955Y0274619D01*
X0067904Y0274586D01*
X0067855Y0274550D01*
X0067809Y0274512D01*
X0067765Y0274470D01*
X0067723Y0274426D01*
X0067685Y0274380D01*
X0067649Y0274331D01*
X0067615Y0274280D01*
X0067587Y0274227D01*
X0067560Y0274173D01*
X0067537Y0274118D01*
X0067517Y0274061D01*
X0067501Y0274002D01*
X0067488Y0273943D01*
X0067479Y0273884D01*
X0067474Y0273823D01*
X0067472Y0273763D01*
X0067472Y0267763D01*
X0067474Y0267703D01*
X0067479Y0267642D01*
X0067488Y0267583D01*
X0067501Y0267524D01*
X0067517Y0267465D01*
X0067537Y0267408D01*
X0067560Y0267353D01*
X0067587Y0267297D01*
X0067615Y0267246D01*
X0067649Y0267195D01*
X0067685Y0267146D01*
X0067723Y0267100D01*
X0067765Y0267056D01*
X0067809Y0267014D01*
X0067855Y0266976D01*
X0067904Y0266940D01*
X0067955Y0266907D01*
X0068007Y0266878D01*
X0068062Y0266851D01*
X0068117Y0266828D01*
X0068173Y0266808D01*
X0068233Y0266792D01*
X0068292Y0266779D01*
X0068351Y0266770D01*
X0068412Y0266765D01*
X0068472Y0266763D01*
X0052972Y0267763D02*
X0052972Y0273763D01*
X0052969Y0273823D01*
X0052964Y0273884D01*
X0052956Y0273943D01*
X0052942Y0274002D01*
X0052927Y0274061D01*
X0052907Y0274118D01*
X0052884Y0274173D01*
X0052857Y0274227D01*
X0052828Y0274280D01*
X0052795Y0274331D01*
X0052759Y0274380D01*
X0052720Y0274426D01*
X0052679Y0274470D01*
X0052635Y0274512D01*
X0052589Y0274550D01*
X0052540Y0274586D01*
X0052489Y0274619D01*
X0052437Y0274648D01*
X0052381Y0274675D01*
X0052327Y0274698D01*
X0052270Y0274718D01*
X0052210Y0274734D01*
X0052152Y0274747D01*
X0052093Y0274756D01*
X0052032Y0274761D01*
X0051971Y0274763D01*
X0040972Y0274763D01*
X0040911Y0274761D01*
X0040851Y0274756D01*
X0040792Y0274747D01*
X0040733Y0274734D01*
X0040674Y0274718D01*
X0040616Y0274698D01*
X0040562Y0274675D01*
X0040507Y0274648D01*
X0040455Y0274619D01*
X0040404Y0274586D01*
X0040355Y0274550D01*
X0040309Y0274512D01*
X0040265Y0274470D01*
X0040223Y0274426D01*
X0040185Y0274380D01*
X0040149Y0274331D01*
X0040116Y0274280D01*
X0040087Y0274227D01*
X0040060Y0274173D01*
X0040037Y0274118D01*
X0040017Y0274061D01*
X0040001Y0274002D01*
X0039988Y0273943D01*
X0039979Y0273884D01*
X0039974Y0273823D01*
X0039972Y0273763D01*
X0039972Y0267763D01*
X0039974Y0267703D01*
X0039979Y0267642D01*
X0039988Y0267583D01*
X0040001Y0267524D01*
X0040017Y0267465D01*
X0040037Y0267408D01*
X0040060Y0267353D01*
X0040087Y0267297D01*
X0040116Y0267246D01*
X0040149Y0267195D01*
X0040185Y0267146D01*
X0040223Y0267100D01*
X0040265Y0267056D01*
X0040309Y0267014D01*
X0040355Y0266976D01*
X0040404Y0266940D01*
X0040455Y0266907D01*
X0040507Y0266878D01*
X0040562Y0266851D01*
X0040616Y0266828D01*
X0040674Y0266808D01*
X0040733Y0266792D01*
X0040792Y0266779D01*
X0040851Y0266770D01*
X0040911Y0266765D01*
X0040972Y0266763D01*
X0051971Y0266763D01*
X0052032Y0266765D01*
X0052093Y0266770D01*
X0052152Y0266779D01*
X0052210Y0266792D01*
X0052270Y0266808D01*
X0052327Y0266828D01*
X0052381Y0266851D01*
X0052437Y0266878D01*
X0052489Y0266907D01*
X0052540Y0266940D01*
X0052589Y0266976D01*
X0052635Y0267014D01*
X0052679Y0267056D01*
X0052720Y0267100D01*
X0052759Y0267146D01*
X0052795Y0267195D01*
X0052828Y0267246D01*
X0052857Y0267297D01*
X0052884Y0267353D01*
X0052907Y0267408D01*
X0052927Y0267465D01*
X0052942Y0267524D01*
X0052956Y0267583D01*
X0052964Y0267642D01*
X0052969Y0267703D01*
X0052972Y0267763D01*
X0084272Y0296252D02*
X0087208Y0299187D01*
X0086474Y0299187D02*
X0087208Y0298453D01*
X0087208Y0296986D01*
X0086474Y0296252D01*
X0085006Y0296252D01*
X0084272Y0296986D01*
X0084272Y0298453D01*
X0085006Y0299187D01*
X0086474Y0299187D01*
X0087208Y0300856D02*
X0088676Y0302322D01*
X0084272Y0302322D01*
X0084272Y0300856D02*
X0084272Y0303791D01*
X0085006Y0305459D02*
X0084272Y0306193D01*
X0084272Y0307661D01*
X0085006Y0308395D01*
X0087942Y0308395D01*
X0085006Y0305459D01*
X0087942Y0305459D01*
X0088676Y0306193D01*
X0088676Y0307661D01*
X0087942Y0308395D01*
D50*
X0079472Y0280017D02*
X0077970Y0280017D01*
X0077220Y0279267D01*
X0077220Y0277765D02*
X0078721Y0277765D01*
X0077220Y0276264D02*
X0077970Y0275513D01*
X0079472Y0275513D01*
X0080222Y0276264D01*
X0080222Y0279267D01*
X0079472Y0280017D01*
X0077220Y0277765D02*
X0077220Y0276264D01*
X0075618Y0275513D02*
X0075618Y0280017D01*
X0073367Y0280017D01*
X0072616Y0279267D01*
X0072616Y0277765D01*
X0073367Y0277015D01*
X0075618Y0277015D01*
X0071015Y0275513D02*
X0069513Y0275513D01*
X0070264Y0275513D02*
X0070264Y0280017D01*
X0071015Y0280017D02*
X0069513Y0280017D01*
X0067945Y0279267D02*
X0067945Y0276264D01*
X0067195Y0275513D01*
X0065692Y0275513D01*
X0064942Y0276264D01*
X0064942Y0279267D01*
X0065692Y0280017D01*
X0067195Y0280017D01*
X0067945Y0279267D01*
X0063341Y0279267D02*
X0062591Y0280017D01*
X0061089Y0280017D01*
X0060339Y0279267D01*
X0060339Y0278516D01*
X0061089Y0277765D01*
X0060339Y0277015D01*
X0060339Y0276264D01*
X0061089Y0275513D01*
X0062591Y0275513D01*
X0063341Y0276264D01*
X0061839Y0277765D02*
X0061089Y0277765D01*
X0052722Y0276264D02*
X0051971Y0275513D01*
X0050470Y0275513D01*
X0049720Y0276264D01*
X0049720Y0277765D01*
X0051221Y0277765D01*
X0052722Y0276264D02*
X0052722Y0279267D01*
X0051971Y0280017D01*
X0050470Y0280017D01*
X0049720Y0279267D01*
X0048118Y0280017D02*
X0048118Y0275513D01*
X0048118Y0277015D02*
X0045867Y0277015D01*
X0045115Y0277765D01*
X0045115Y0279267D01*
X0045867Y0280017D01*
X0048118Y0280017D01*
X0043515Y0280017D02*
X0042013Y0280017D01*
X0042764Y0280017D02*
X0042764Y0275513D01*
X0043515Y0275513D02*
X0042013Y0275513D01*
X0040445Y0276264D02*
X0040445Y0279267D01*
X0039695Y0280017D01*
X0038193Y0280017D01*
X0037443Y0279267D01*
X0037443Y0276264D01*
X0038193Y0275513D01*
X0039695Y0275513D01*
X0040445Y0276264D01*
X0035841Y0275513D02*
X0032839Y0278516D01*
X0032839Y0279267D01*
X0033589Y0280017D01*
X0035091Y0280017D01*
X0035841Y0279267D01*
X0035841Y0275513D02*
X0032839Y0275513D01*
D51*
X0061472Y0304963D02*
X0081472Y0304963D01*
X0081472Y0309463D01*
X0071472Y0309463D01*
X0061472Y0309463D01*
X0061472Y0304963D01*
X0063971Y0311763D02*
X0063971Y0316763D01*
X0061472Y0314263D02*
X0066472Y0314263D01*
X0071472Y0313263D02*
X0071472Y0309463D01*
X0071472Y0300763D02*
X0071472Y0293263D01*
D52*
X0051471Y0303263D02*
X0051478Y0303754D01*
X0051496Y0304244D01*
X0051526Y0304734D01*
X0051568Y0305223D01*
X0051622Y0305711D01*
X0051688Y0306198D01*
X0051766Y0306682D01*
X0051856Y0307165D01*
X0051958Y0307645D01*
X0052071Y0308123D01*
X0052196Y0308597D01*
X0052332Y0309069D01*
X0052481Y0309537D01*
X0052641Y0310001D01*
X0052812Y0310461D01*
X0052994Y0310917D01*
X0053188Y0311368D01*
X0053391Y0311814D01*
X0053608Y0312255D01*
X0053834Y0312691D01*
X0054069Y0313121D01*
X0054317Y0313545D01*
X0054574Y0313963D01*
X0054843Y0314374D01*
X0055120Y0314778D01*
X0055408Y0315177D01*
X0055705Y0315568D01*
X0056011Y0315951D01*
X0056328Y0316326D01*
X0056653Y0316694D01*
X0056987Y0317054D01*
X0057330Y0317405D01*
X0057681Y0317748D01*
X0058041Y0318082D01*
X0058409Y0318407D01*
X0058784Y0318723D01*
X0059167Y0319030D01*
X0059558Y0319326D01*
X0059956Y0319615D01*
X0060361Y0319892D01*
X0060772Y0320160D01*
X0061190Y0320418D01*
X0061614Y0320664D01*
X0062044Y0320901D01*
X0062480Y0321127D01*
X0062921Y0321343D01*
X0063366Y0321547D01*
X0063818Y0321741D01*
X0064274Y0321923D01*
X0064734Y0322094D01*
X0065198Y0322254D01*
X0065666Y0322402D01*
X0066138Y0322539D01*
X0066612Y0322664D01*
X0067090Y0322777D01*
X0067570Y0322879D01*
X0068053Y0322969D01*
X0068536Y0323046D01*
X0069024Y0323113D01*
X0069512Y0323167D01*
X0070001Y0323209D01*
X0070490Y0323239D01*
X0070981Y0323257D01*
X0071472Y0323263D01*
X0071963Y0323257D01*
X0072453Y0323239D01*
X0072943Y0323209D01*
X0073432Y0323167D01*
X0073920Y0323113D01*
X0074407Y0323046D01*
X0074891Y0322969D01*
X0075374Y0322879D01*
X0075854Y0322777D01*
X0076332Y0322664D01*
X0076806Y0322539D01*
X0077278Y0322402D01*
X0077746Y0322254D01*
X0078210Y0322094D01*
X0078669Y0321923D01*
X0079126Y0321741D01*
X0079577Y0321547D01*
X0080023Y0321343D01*
X0080464Y0321127D01*
X0080900Y0320901D01*
X0081330Y0320664D01*
X0081754Y0320418D01*
X0082172Y0320160D01*
X0082583Y0319892D01*
X0082988Y0319615D01*
X0083386Y0319326D01*
X0083777Y0319030D01*
X0084160Y0318723D01*
X0084535Y0318407D01*
X0084903Y0318082D01*
X0085263Y0317748D01*
X0085614Y0317405D01*
X0085957Y0317054D01*
X0086290Y0316694D01*
X0086616Y0316326D01*
X0086932Y0315951D01*
X0087239Y0315568D01*
X0087536Y0315177D01*
X0087824Y0314778D01*
X0088100Y0314374D01*
X0088369Y0313963D01*
X0088627Y0313545D01*
X0088874Y0313121D01*
X0089110Y0312691D01*
X0089336Y0312255D01*
X0089552Y0311814D01*
X0089756Y0311368D01*
X0089950Y0310917D01*
X0090132Y0310461D01*
X0090303Y0310001D01*
X0090463Y0309537D01*
X0090611Y0309069D01*
X0090747Y0308597D01*
X0090873Y0308123D01*
X0090986Y0307645D01*
X0091088Y0307165D01*
X0091178Y0306682D01*
X0091256Y0306198D01*
X0091322Y0305711D01*
X0091376Y0305223D01*
X0091418Y0304734D01*
X0091448Y0304244D01*
X0091466Y0303754D01*
X0091472Y0303263D01*
X0091466Y0302772D01*
X0091448Y0302282D01*
X0091418Y0301792D01*
X0091376Y0301303D01*
X0091322Y0300815D01*
X0091256Y0300328D01*
X0091178Y0299844D01*
X0091088Y0299361D01*
X0090986Y0298881D01*
X0090873Y0298403D01*
X0090747Y0297929D01*
X0090611Y0297457D01*
X0090463Y0296989D01*
X0090303Y0296525D01*
X0090132Y0296065D01*
X0089950Y0295609D01*
X0089756Y0295158D01*
X0089552Y0294712D01*
X0089336Y0294271D01*
X0089110Y0293835D01*
X0088874Y0293405D01*
X0088627Y0292981D01*
X0088369Y0292562D01*
X0088100Y0292152D01*
X0087824Y0291747D01*
X0087536Y0291349D01*
X0087239Y0290958D01*
X0086932Y0290574D01*
X0086616Y0290200D01*
X0086290Y0289832D01*
X0085957Y0289472D01*
X0085614Y0289121D01*
X0085263Y0288778D01*
X0084903Y0288444D01*
X0084535Y0288119D01*
X0084160Y0287802D01*
X0083777Y0287496D01*
X0083386Y0287199D01*
X0082988Y0286911D01*
X0082583Y0286634D01*
X0082172Y0286365D01*
X0081754Y0286108D01*
X0081330Y0285861D01*
X0080900Y0285625D01*
X0080464Y0285399D01*
X0080023Y0285183D01*
X0079577Y0284979D01*
X0079126Y0284785D01*
X0078669Y0284603D01*
X0078210Y0284432D01*
X0077746Y0284272D01*
X0077278Y0284124D01*
X0076806Y0283987D01*
X0076332Y0283862D01*
X0075854Y0283749D01*
X0075374Y0283647D01*
X0074891Y0283557D01*
X0074407Y0283479D01*
X0073920Y0283413D01*
X0073432Y0283359D01*
X0072943Y0283316D01*
X0072453Y0283287D01*
X0071963Y0283269D01*
X0071472Y0283263D01*
X0070981Y0283269D01*
X0070490Y0283287D01*
X0070001Y0283316D01*
X0069512Y0283359D01*
X0069024Y0283413D01*
X0068536Y0283479D01*
X0068053Y0283557D01*
X0067570Y0283647D01*
X0067090Y0283749D01*
X0066612Y0283862D01*
X0066138Y0283987D01*
X0065666Y0284124D01*
X0065198Y0284272D01*
X0064734Y0284432D01*
X0064274Y0284603D01*
X0063818Y0284785D01*
X0063366Y0284979D01*
X0062921Y0285183D01*
X0062480Y0285399D01*
X0062044Y0285625D01*
X0061614Y0285861D01*
X0061190Y0286108D01*
X0060772Y0286365D01*
X0060361Y0286634D01*
X0059956Y0286911D01*
X0059558Y0287199D01*
X0059167Y0287496D01*
X0058784Y0287802D01*
X0058409Y0288119D01*
X0058041Y0288444D01*
X0057681Y0288778D01*
X0057330Y0289121D01*
X0056987Y0289472D01*
X0056653Y0289832D01*
X0056328Y0290200D01*
X0056011Y0290574D01*
X0055705Y0290958D01*
X0055408Y0291349D01*
X0055120Y0291747D01*
X0054843Y0292152D01*
X0054574Y0292562D01*
X0054317Y0292981D01*
X0054069Y0293405D01*
X0053834Y0293835D01*
X0053608Y0294271D01*
X0053391Y0294712D01*
X0053188Y0295158D01*
X0052994Y0295609D01*
X0052812Y0296065D01*
X0052641Y0296525D01*
X0052481Y0296989D01*
X0052332Y0297457D01*
X0052196Y0297929D01*
X0052071Y0298403D01*
X0051958Y0298881D01*
X0051856Y0299361D01*
X0051766Y0299844D01*
X0051688Y0300328D01*
X0051622Y0300815D01*
X0051568Y0301303D01*
X0051526Y0301792D01*
X0051496Y0302282D01*
X0051478Y0302772D01*
X0051471Y0303263D01*
D53*
X0048628Y0303775D02*
X0048628Y0301673D01*
X0047577Y0300622D01*
X0043373Y0300622D01*
X0042322Y0301673D01*
X0042322Y0303775D01*
X0043373Y0304826D01*
X0042322Y0307067D02*
X0042322Y0311271D01*
X0042322Y0309170D02*
X0048628Y0309170D01*
X0046526Y0307067D01*
X0047577Y0304826D02*
X0048628Y0303775D01*
D54*
X0071472Y0299463D03*
G04 next file*
G75*
D55*
X0114272Y0201162D02*
X0113486Y0201948D01*
X0113486Y0203521D01*
X0114272Y0204307D01*
X0114272Y0206239D02*
X0113486Y0207025D01*
X0113486Y0208597D01*
X0114272Y0209382D01*
X0114272Y0206239D02*
X0117416Y0206239D01*
X0118202Y0207025D01*
X0118202Y0208597D01*
X0117416Y0209382D01*
X0117416Y0204307D02*
X0118202Y0203521D01*
X0118202Y0201948D01*
X0117416Y0201162D01*
X0114272Y0201162D01*
X0113486Y0216389D02*
X0113486Y0218746D01*
X0114272Y0219532D01*
X0115058Y0219532D01*
X0115843Y0218746D01*
X0115843Y0216389D01*
X0115843Y0218746D02*
X0116629Y0219532D01*
X0117416Y0219532D01*
X0118202Y0218746D01*
X0118202Y0216389D01*
X0113486Y0216389D01*
X0117416Y0221464D02*
X0115843Y0223036D01*
X0113486Y0223036D01*
X0115843Y0223036D02*
X0117416Y0224608D01*
X0118202Y0224608D01*
X0118202Y0221464D02*
X0117416Y0221464D01*
X0115843Y0226539D02*
X0115843Y0229683D01*
X0113486Y0231615D02*
X0118202Y0231615D01*
X0113486Y0234757D01*
X0118202Y0234757D01*
X0117416Y0236689D02*
X0114272Y0236689D01*
X0113486Y0237476D01*
X0113486Y0239048D01*
X0114272Y0239834D01*
X0115843Y0241765D02*
X0115843Y0244909D01*
X0116629Y0246840D02*
X0115843Y0247626D01*
X0115843Y0249198D01*
X0115058Y0249983D01*
X0114272Y0249983D01*
X0113486Y0249198D01*
X0113486Y0247626D01*
X0114272Y0246840D01*
X0116629Y0246840D02*
X0117416Y0246840D01*
X0118202Y0247626D01*
X0118202Y0249198D01*
X0117416Y0249983D01*
X0116629Y0251914D02*
X0118202Y0253487D01*
X0116629Y0255059D01*
X0113486Y0255059D01*
X0113486Y0251914D02*
X0116629Y0251914D01*
X0115843Y0251914D02*
X0115843Y0255059D01*
X0115843Y0262066D02*
X0115843Y0265210D01*
X0118202Y0264423D02*
X0115843Y0262066D01*
X0113486Y0264423D02*
X0118202Y0264423D01*
X0117416Y0269679D02*
X0118202Y0270465D01*
X0118202Y0272036D01*
X0117416Y0272822D01*
X0114272Y0269679D01*
X0113486Y0270465D01*
X0113486Y0272036D01*
X0114272Y0272822D01*
X0117416Y0272822D01*
X0117416Y0269679D02*
X0114272Y0269679D01*
X0114272Y0267927D02*
X0113486Y0267927D01*
X0113486Y0267140D01*
X0114272Y0267140D01*
X0114272Y0267927D01*
X0117416Y0239834D02*
X0118202Y0239048D01*
X0118202Y0237476D01*
X0117416Y0236689D01*
X0144985Y0262912D02*
X0149701Y0262912D01*
X0149701Y0265269D01*
X0148915Y0266056D01*
X0147343Y0266056D01*
X0146556Y0265269D01*
X0146556Y0262912D01*
X0147343Y0260980D02*
X0146556Y0260194D01*
X0146556Y0258622D01*
X0147343Y0257836D01*
X0148915Y0257836D01*
X0149701Y0258622D01*
X0149701Y0260194D01*
X0148915Y0260980D01*
X0147343Y0260980D01*
X0147343Y0255905D02*
X0146556Y0255119D01*
X0146556Y0253547D01*
X0147343Y0252761D01*
X0148915Y0252761D01*
X0149701Y0253547D01*
X0149701Y0255119D01*
X0148915Y0255905D01*
X0147343Y0255905D01*
X0146556Y0250830D02*
X0148915Y0250830D01*
X0149701Y0250044D01*
X0149701Y0248471D01*
X0148915Y0247685D01*
X0149701Y0245755D02*
X0149701Y0243397D01*
X0148915Y0242611D01*
X0147343Y0242611D01*
X0146556Y0243397D01*
X0146556Y0245755D01*
X0146556Y0247685D02*
X0151273Y0247685D01*
X0154825Y0244123D02*
X0154825Y0242551D01*
X0155611Y0241765D01*
X0154825Y0239834D02*
X0154825Y0236689D01*
X0157969Y0239834D01*
X0158755Y0239834D01*
X0159541Y0239048D01*
X0159541Y0237476D01*
X0158755Y0236689D01*
X0158755Y0234757D02*
X0155611Y0231615D01*
X0154825Y0232401D01*
X0154825Y0233971D01*
X0155611Y0234757D01*
X0158755Y0234757D01*
X0159541Y0233971D01*
X0159541Y0232401D01*
X0158755Y0231615D01*
X0155611Y0231615D01*
X0154825Y0229683D02*
X0154825Y0226539D01*
X0157969Y0229683D01*
X0158755Y0229683D01*
X0159541Y0228897D01*
X0159541Y0227325D01*
X0158755Y0226539D01*
X0158755Y0222070D02*
X0157969Y0222070D01*
X0157183Y0221285D01*
X0157183Y0219713D01*
X0157969Y0218927D01*
X0158755Y0218927D01*
X0159541Y0219713D01*
X0159541Y0221285D01*
X0158755Y0222070D01*
X0157183Y0221285D02*
X0156397Y0222070D01*
X0155611Y0222070D01*
X0154825Y0221285D01*
X0154825Y0219713D01*
X0155611Y0218927D01*
X0156397Y0218927D01*
X0157183Y0219713D01*
X0158755Y0216995D02*
X0155611Y0216995D01*
X0154825Y0216209D01*
X0154825Y0214637D01*
X0155611Y0213851D01*
X0158755Y0216995D01*
X0159541Y0216209D01*
X0159541Y0214637D01*
X0158755Y0213851D01*
X0155611Y0213851D01*
X0155611Y0212100D02*
X0154825Y0212100D01*
X0154825Y0211314D01*
X0155611Y0211314D01*
X0155611Y0212100D01*
X0155611Y0209382D02*
X0154825Y0208597D01*
X0154825Y0207025D01*
X0155611Y0206239D01*
X0154825Y0204307D02*
X0154825Y0201162D01*
X0154825Y0202735D02*
X0159541Y0202735D01*
X0157969Y0201162D01*
X0157183Y0206239D02*
X0157969Y0207811D01*
X0157969Y0208597D01*
X0157183Y0209382D01*
X0155611Y0209382D01*
X0157183Y0206239D02*
X0159541Y0206239D01*
X0159541Y0209382D01*
X0161521Y0206239D02*
X0166237Y0206239D01*
X0166237Y0208597D01*
X0165451Y0209382D01*
X0163879Y0209382D01*
X0163093Y0208597D01*
X0163093Y0206239D01*
X0163879Y0204307D02*
X0167023Y0204307D01*
X0167809Y0203521D01*
X0167809Y0201948D01*
X0167023Y0201162D01*
X0163879Y0201162D01*
X0163093Y0201948D01*
X0163093Y0203521D01*
X0163879Y0204307D01*
X0163879Y0211314D02*
X0163093Y0212100D01*
X0163093Y0213672D01*
X0163879Y0211314D02*
X0165451Y0211314D01*
X0166237Y0212100D01*
X0166237Y0213672D01*
X0165451Y0214458D01*
X0164665Y0214458D01*
X0164665Y0211314D01*
X0163093Y0216389D02*
X0166237Y0216389D01*
X0166237Y0218746D01*
X0165451Y0219532D01*
X0163093Y0219532D01*
X0163093Y0221464D02*
X0163093Y0223822D01*
X0163879Y0224608D01*
X0167023Y0224608D01*
X0167809Y0223822D01*
X0167809Y0221464D01*
X0163093Y0221464D01*
X0163093Y0228111D02*
X0167809Y0228111D01*
X0167809Y0226539D02*
X0167809Y0229683D01*
X0167809Y0231615D02*
X0163879Y0231615D01*
X0163093Y0232401D01*
X0163093Y0233971D01*
X0163879Y0234757D01*
X0167809Y0234757D01*
X0171360Y0234092D02*
X0171360Y0235664D01*
X0172146Y0236450D01*
X0171360Y0238382D02*
X0176076Y0238382D01*
X0174504Y0239953D01*
X0176076Y0241525D01*
X0171360Y0241525D01*
X0171360Y0245029D02*
X0176076Y0245029D01*
X0176076Y0243457D02*
X0176076Y0246600D01*
X0175290Y0248532D02*
X0176076Y0249318D01*
X0176076Y0250890D01*
X0175290Y0251676D01*
X0174504Y0251676D01*
X0171360Y0248532D01*
X0171360Y0251676D01*
X0172146Y0253607D02*
X0171360Y0254393D01*
X0171360Y0255965D01*
X0172146Y0256751D01*
X0172932Y0256751D01*
X0173718Y0255965D01*
X0173718Y0255179D01*
X0173718Y0255965D02*
X0174504Y0256751D01*
X0175290Y0256751D01*
X0176076Y0255965D01*
X0176076Y0254393D01*
X0175290Y0253607D01*
X0175290Y0258682D02*
X0176076Y0259468D01*
X0176076Y0261039D01*
X0175290Y0261825D01*
X0172146Y0258682D01*
X0171360Y0259468D01*
X0171360Y0261039D01*
X0172146Y0261825D01*
X0175290Y0261825D01*
X0175290Y0263757D02*
X0176076Y0264543D01*
X0176076Y0266115D01*
X0175290Y0266901D01*
X0172146Y0263757D01*
X0171360Y0264543D01*
X0171360Y0266115D01*
X0172146Y0266901D01*
X0175290Y0266901D01*
X0174504Y0269619D02*
X0174504Y0271191D01*
X0173718Y0271977D01*
X0171360Y0271977D01*
X0171360Y0269619D01*
X0172146Y0268833D01*
X0172932Y0269619D01*
X0172932Y0271977D01*
X0172146Y0263757D02*
X0175290Y0263757D01*
X0175290Y0258682D02*
X0172146Y0258682D01*
X0175290Y0236450D02*
X0176076Y0235664D01*
X0176076Y0234092D01*
X0175290Y0233306D01*
X0172146Y0233306D01*
X0171360Y0234092D01*
X0171360Y0226300D02*
X0174504Y0223156D01*
X0173718Y0221225D02*
X0172932Y0221225D01*
X0172932Y0218081D01*
X0172146Y0218081D02*
X0173718Y0218081D01*
X0174504Y0218867D01*
X0174504Y0220439D01*
X0173718Y0221225D01*
X0171360Y0218867D02*
X0172146Y0218081D01*
X0171360Y0218867D02*
X0171360Y0220439D01*
X0171360Y0223156D02*
X0174504Y0226300D01*
X0173718Y0216149D02*
X0171360Y0216149D01*
X0171360Y0214577D02*
X0173718Y0214577D01*
X0174504Y0215363D01*
X0173718Y0216149D01*
X0173718Y0214577D02*
X0174504Y0213791D01*
X0174504Y0213005D01*
X0171360Y0213005D01*
X0171360Y0211194D02*
X0171360Y0209622D01*
X0171360Y0210408D02*
X0174504Y0210408D01*
X0174504Y0209622D01*
X0176076Y0210408D02*
X0176862Y0210408D01*
X0176076Y0207025D02*
X0171360Y0207025D01*
X0171360Y0206239D02*
X0171360Y0207811D01*
X0172146Y0204307D02*
X0175290Y0204307D01*
X0176076Y0203521D01*
X0176076Y0201948D01*
X0175290Y0201162D01*
X0172146Y0201162D01*
X0171360Y0201948D01*
X0171360Y0203521D01*
X0172146Y0204307D01*
X0176076Y0206239D02*
X0176076Y0207025D01*
X0158755Y0241765D02*
X0159541Y0242551D01*
X0159541Y0244123D01*
X0158755Y0244909D01*
X0157969Y0244909D01*
X0157183Y0244123D01*
X0156397Y0244909D01*
X0155611Y0244909D01*
X0154825Y0244123D01*
X0157183Y0244123D02*
X0157183Y0243337D01*
X0151273Y0239894D02*
X0151273Y0238322D01*
X0150487Y0237536D01*
X0149701Y0237536D01*
X0148915Y0238322D01*
X0148915Y0239894D01*
X0148129Y0240680D01*
X0147343Y0240680D01*
X0146556Y0239894D01*
X0146556Y0238322D01*
X0147343Y0237536D01*
X0150487Y0240680D02*
X0151273Y0239894D01*
X0148915Y0230528D02*
X0146556Y0230528D01*
X0146556Y0227385D02*
X0149701Y0227385D01*
X0149701Y0229743D01*
X0148915Y0230528D01*
X0148915Y0225454D02*
X0146556Y0225454D01*
X0146556Y0223096D01*
X0147343Y0222310D01*
X0148129Y0223096D01*
X0148129Y0225454D01*
X0148915Y0225454D02*
X0149701Y0224668D01*
X0149701Y0223096D01*
X0149701Y0219713D02*
X0146556Y0219713D01*
X0146556Y0218927D02*
X0146556Y0220499D01*
X0149701Y0216269D02*
X0148129Y0214697D01*
X0147343Y0212766D02*
X0148915Y0212766D01*
X0149701Y0211980D01*
X0149701Y0210408D01*
X0148915Y0209622D01*
X0147343Y0209622D01*
X0146556Y0210408D01*
X0146556Y0211980D01*
X0147343Y0212766D01*
X0146556Y0214697D02*
X0149701Y0214697D01*
X0149701Y0216269D02*
X0149701Y0217055D01*
X0149701Y0218927D02*
X0149701Y0219713D01*
X0151273Y0219713D02*
X0152059Y0219713D01*
X0154825Y0224002D02*
X0154825Y0224788D01*
X0155611Y0224788D01*
X0155611Y0224002D01*
X0154825Y0224002D01*
X0151273Y0207025D02*
X0146556Y0207025D01*
X0146556Y0206239D02*
X0146556Y0207811D01*
X0148915Y0202735D02*
X0148915Y0201162D01*
X0146556Y0201162D02*
X0151273Y0201162D01*
X0151273Y0204307D01*
X0151273Y0206239D02*
X0151273Y0207025D01*
D56*
X0155085Y0266763D02*
X0166086Y0266763D01*
X0166146Y0266765D01*
X0166207Y0266770D01*
X0166266Y0266779D01*
X0166324Y0266792D01*
X0166384Y0266808D01*
X0166441Y0266828D01*
X0166496Y0266851D01*
X0166551Y0266878D01*
X0166603Y0266907D01*
X0166654Y0266940D01*
X0166703Y0266976D01*
X0166749Y0267014D01*
X0166793Y0267056D01*
X0166835Y0267100D01*
X0166873Y0267146D01*
X0166909Y0267195D01*
X0166942Y0267246D01*
X0166971Y0267297D01*
X0166998Y0267353D01*
X0167021Y0267408D01*
X0167041Y0267465D01*
X0167057Y0267524D01*
X0167070Y0267583D01*
X0167079Y0267642D01*
X0167084Y0267703D01*
X0167086Y0267763D01*
X0167086Y0273763D01*
X0167084Y0273823D01*
X0167079Y0273884D01*
X0167070Y0273943D01*
X0167057Y0274002D01*
X0167041Y0274061D01*
X0167021Y0274118D01*
X0166998Y0274173D01*
X0166971Y0274227D01*
X0166942Y0274280D01*
X0166909Y0274331D01*
X0166873Y0274380D01*
X0166835Y0274426D01*
X0166793Y0274470D01*
X0166749Y0274512D01*
X0166703Y0274550D01*
X0166654Y0274586D01*
X0166603Y0274619D01*
X0166551Y0274648D01*
X0166496Y0274675D01*
X0166441Y0274698D01*
X0166384Y0274718D01*
X0166324Y0274734D01*
X0166266Y0274747D01*
X0166207Y0274756D01*
X0166146Y0274761D01*
X0166086Y0274763D01*
X0155085Y0274763D01*
X0155026Y0274761D01*
X0154965Y0274756D01*
X0154906Y0274747D01*
X0154847Y0274734D01*
X0154788Y0274718D01*
X0154731Y0274698D01*
X0154676Y0274675D01*
X0154621Y0274648D01*
X0154569Y0274619D01*
X0154518Y0274586D01*
X0154469Y0274550D01*
X0154423Y0274512D01*
X0154379Y0274470D01*
X0154337Y0274426D01*
X0154299Y0274380D01*
X0154263Y0274331D01*
X0154230Y0274280D01*
X0154201Y0274227D01*
X0154174Y0274173D01*
X0154151Y0274118D01*
X0154131Y0274061D01*
X0154115Y0274002D01*
X0154102Y0273943D01*
X0154093Y0273884D01*
X0154088Y0273823D01*
X0154086Y0273763D01*
X0154086Y0267763D01*
X0154088Y0267703D01*
X0154093Y0267642D01*
X0154102Y0267583D01*
X0154115Y0267524D01*
X0154131Y0267465D01*
X0154151Y0267408D01*
X0154174Y0267353D01*
X0154201Y0267297D01*
X0154230Y0267246D01*
X0154263Y0267195D01*
X0154299Y0267146D01*
X0154337Y0267100D01*
X0154379Y0267056D01*
X0154423Y0267014D01*
X0154469Y0266976D01*
X0154518Y0266940D01*
X0154569Y0266907D01*
X0154621Y0266878D01*
X0154676Y0266851D01*
X0154731Y0266828D01*
X0154788Y0266808D01*
X0154847Y0266792D01*
X0154906Y0266779D01*
X0154965Y0266770D01*
X0155026Y0266765D01*
X0155085Y0266763D01*
X0139586Y0267763D02*
X0139586Y0273763D01*
X0139584Y0273823D01*
X0139579Y0273884D01*
X0139570Y0273943D01*
X0139557Y0274002D01*
X0139541Y0274061D01*
X0139521Y0274118D01*
X0139498Y0274173D01*
X0139471Y0274227D01*
X0139442Y0274280D01*
X0139409Y0274331D01*
X0139373Y0274380D01*
X0139335Y0274426D01*
X0139293Y0274470D01*
X0139249Y0274512D01*
X0139203Y0274550D01*
X0139154Y0274586D01*
X0139103Y0274619D01*
X0139051Y0274648D01*
X0138996Y0274675D01*
X0138941Y0274698D01*
X0138884Y0274718D01*
X0138825Y0274734D01*
X0138765Y0274747D01*
X0138707Y0274756D01*
X0138646Y0274761D01*
X0138586Y0274763D01*
X0127586Y0274763D01*
X0127526Y0274761D01*
X0127465Y0274756D01*
X0127406Y0274747D01*
X0127347Y0274734D01*
X0127288Y0274718D01*
X0127231Y0274698D01*
X0127176Y0274675D01*
X0127121Y0274648D01*
X0127069Y0274619D01*
X0127018Y0274586D01*
X0126968Y0274550D01*
X0126923Y0274512D01*
X0126879Y0274470D01*
X0126837Y0274426D01*
X0126799Y0274380D01*
X0126762Y0274331D01*
X0126730Y0274280D01*
X0126701Y0274227D01*
X0126674Y0274173D01*
X0126651Y0274118D01*
X0126631Y0274061D01*
X0126615Y0274002D01*
X0126601Y0273943D01*
X0126593Y0273884D01*
X0126587Y0273823D01*
X0126585Y0273763D01*
X0126585Y0267763D01*
X0126587Y0267703D01*
X0126593Y0267642D01*
X0126601Y0267583D01*
X0126615Y0267524D01*
X0126631Y0267465D01*
X0126651Y0267408D01*
X0126674Y0267353D01*
X0126701Y0267297D01*
X0126730Y0267246D01*
X0126762Y0267195D01*
X0126799Y0267146D01*
X0126837Y0267100D01*
X0126879Y0267056D01*
X0126923Y0267014D01*
X0126968Y0266976D01*
X0127018Y0266940D01*
X0127069Y0266907D01*
X0127121Y0266878D01*
X0127176Y0266851D01*
X0127231Y0266828D01*
X0127288Y0266808D01*
X0127347Y0266792D01*
X0127406Y0266779D01*
X0127465Y0266770D01*
X0127526Y0266765D01*
X0127586Y0266763D01*
X0138586Y0266763D01*
X0138646Y0266765D01*
X0138707Y0266770D01*
X0138765Y0266779D01*
X0138825Y0266792D01*
X0138884Y0266808D01*
X0138941Y0266828D01*
X0138996Y0266851D01*
X0139051Y0266878D01*
X0139103Y0266907D01*
X0139154Y0266940D01*
X0139203Y0266976D01*
X0139249Y0267014D01*
X0139293Y0267056D01*
X0139335Y0267100D01*
X0139373Y0267146D01*
X0139409Y0267195D01*
X0139442Y0267246D01*
X0139471Y0267297D01*
X0139498Y0267353D01*
X0139521Y0267408D01*
X0139541Y0267465D01*
X0139557Y0267524D01*
X0139570Y0267583D01*
X0139579Y0267642D01*
X0139584Y0267703D01*
X0139586Y0267763D01*
X0170886Y0296252D02*
X0173822Y0299187D01*
X0173088Y0299187D02*
X0173822Y0298453D01*
X0173822Y0296986D01*
X0173088Y0296252D01*
X0171620Y0296252D01*
X0170886Y0296986D01*
X0170886Y0298453D01*
X0171620Y0299187D01*
X0173088Y0299187D01*
X0173822Y0300856D02*
X0175290Y0302322D01*
X0170886Y0302322D01*
X0170886Y0300856D02*
X0170886Y0303791D01*
X0171620Y0305459D02*
X0170886Y0306193D01*
X0170886Y0307661D01*
X0171620Y0308395D01*
X0174556Y0308395D01*
X0171620Y0305459D01*
X0174556Y0305459D01*
X0175290Y0306193D01*
X0175290Y0307661D01*
X0174556Y0308395D01*
D57*
X0166086Y0280017D02*
X0164584Y0280017D01*
X0163833Y0279267D01*
X0163833Y0277765D02*
X0165335Y0277765D01*
X0163833Y0276264D02*
X0164584Y0275513D01*
X0166086Y0275513D01*
X0166835Y0276264D01*
X0166835Y0279267D01*
X0166086Y0280017D01*
X0163833Y0277765D02*
X0163833Y0276264D01*
X0162232Y0275513D02*
X0162232Y0280017D01*
X0159981Y0280017D01*
X0159230Y0279267D01*
X0159230Y0277765D01*
X0159981Y0277015D01*
X0162232Y0277015D01*
X0157629Y0275513D02*
X0156127Y0275513D01*
X0156878Y0275513D02*
X0156878Y0280017D01*
X0157629Y0280017D02*
X0156127Y0280017D01*
X0154558Y0279267D02*
X0154558Y0276264D01*
X0153809Y0275513D01*
X0152307Y0275513D01*
X0151557Y0276264D01*
X0151557Y0279267D01*
X0152307Y0280017D01*
X0153809Y0280017D01*
X0154558Y0279267D01*
X0149955Y0279267D02*
X0149205Y0280017D01*
X0147703Y0280017D01*
X0146953Y0279267D01*
X0146953Y0278516D01*
X0147703Y0277765D01*
X0146953Y0277015D01*
X0146953Y0276264D01*
X0147703Y0275513D01*
X0149205Y0275513D01*
X0149955Y0276264D01*
X0148454Y0277765D02*
X0147703Y0277765D01*
X0139336Y0276264D02*
X0138586Y0275513D01*
X0137084Y0275513D01*
X0136334Y0276264D01*
X0136334Y0277765D01*
X0137835Y0277765D01*
X0139336Y0276264D02*
X0139336Y0279267D01*
X0138586Y0280017D01*
X0137084Y0280017D01*
X0136334Y0279267D01*
X0134732Y0280017D02*
X0134732Y0275513D01*
X0134732Y0277015D02*
X0132481Y0277015D01*
X0131730Y0277765D01*
X0131730Y0279267D01*
X0132481Y0280017D01*
X0134732Y0280017D01*
X0130129Y0280017D02*
X0128627Y0280017D01*
X0129377Y0280017D02*
X0129377Y0275513D01*
X0130129Y0275513D02*
X0128627Y0275513D01*
X0127059Y0276264D02*
X0127059Y0279267D01*
X0126308Y0280017D01*
X0124807Y0280017D01*
X0124057Y0279267D01*
X0124057Y0276264D01*
X0124807Y0275513D01*
X0126308Y0275513D01*
X0127059Y0276264D01*
X0122455Y0275513D02*
X0119453Y0278516D01*
X0119453Y0279267D01*
X0120203Y0280017D01*
X0121705Y0280017D01*
X0122455Y0279267D01*
X0122455Y0275513D02*
X0119453Y0275513D01*
D58*
X0148086Y0304963D02*
X0168086Y0304963D01*
X0168086Y0309463D01*
X0158086Y0309463D01*
X0148086Y0309463D01*
X0148086Y0304963D01*
X0150586Y0311763D02*
X0150586Y0316763D01*
X0148086Y0314263D02*
X0153086Y0314263D01*
X0158086Y0313263D02*
X0158086Y0309463D01*
X0158086Y0300763D02*
X0158086Y0293263D01*
D59*
X0138085Y0303263D02*
X0138092Y0303754D01*
X0138110Y0304244D01*
X0138140Y0304734D01*
X0138182Y0305223D01*
X0138236Y0305711D01*
X0138302Y0306198D01*
X0138380Y0306682D01*
X0138470Y0307165D01*
X0138572Y0307645D01*
X0138685Y0308123D01*
X0138810Y0308597D01*
X0138947Y0309069D01*
X0139095Y0309537D01*
X0139255Y0310001D01*
X0139426Y0310461D01*
X0139608Y0310917D01*
X0139802Y0311368D01*
X0140006Y0311814D01*
X0140222Y0312255D01*
X0140448Y0312691D01*
X0140684Y0313121D01*
X0140930Y0313545D01*
X0141189Y0313963D01*
X0141457Y0314374D01*
X0141734Y0314778D01*
X0142022Y0315177D01*
X0142319Y0315568D01*
X0142626Y0315951D01*
X0142942Y0316326D01*
X0143267Y0316694D01*
X0143601Y0317054D01*
X0143944Y0317405D01*
X0144295Y0317748D01*
X0144655Y0318082D01*
X0145022Y0318407D01*
X0145398Y0318723D01*
X0145781Y0319030D01*
X0146172Y0319326D01*
X0146570Y0319615D01*
X0146975Y0319892D01*
X0147386Y0320160D01*
X0147804Y0320418D01*
X0148228Y0320664D01*
X0148658Y0320901D01*
X0149094Y0321127D01*
X0149535Y0321343D01*
X0149981Y0321547D01*
X0150432Y0321741D01*
X0150887Y0321923D01*
X0151348Y0322094D01*
X0151812Y0322254D01*
X0152280Y0322402D01*
X0152752Y0322539D01*
X0153226Y0322664D01*
X0153704Y0322777D01*
X0154184Y0322879D01*
X0154667Y0322969D01*
X0155151Y0323046D01*
X0155638Y0323113D01*
X0156126Y0323167D01*
X0156615Y0323209D01*
X0157104Y0323239D01*
X0157595Y0323257D01*
X0158086Y0323263D01*
X0158577Y0323257D01*
X0159067Y0323239D01*
X0159557Y0323209D01*
X0160046Y0323167D01*
X0160534Y0323113D01*
X0161021Y0323046D01*
X0161505Y0322969D01*
X0161988Y0322879D01*
X0162467Y0322777D01*
X0162946Y0322664D01*
X0163420Y0322539D01*
X0163892Y0322402D01*
X0164360Y0322254D01*
X0164824Y0322094D01*
X0165284Y0321923D01*
X0165740Y0321741D01*
X0166191Y0321547D01*
X0166636Y0321343D01*
X0167078Y0321127D01*
X0167514Y0320901D01*
X0167944Y0320664D01*
X0168368Y0320418D01*
X0168786Y0320160D01*
X0169197Y0319892D01*
X0169602Y0319615D01*
X0170000Y0319326D01*
X0170391Y0319030D01*
X0170774Y0318723D01*
X0171149Y0318407D01*
X0171517Y0318082D01*
X0171877Y0317748D01*
X0172228Y0317405D01*
X0172571Y0317054D01*
X0172904Y0316694D01*
X0173230Y0316326D01*
X0173546Y0315951D01*
X0173853Y0315568D01*
X0174150Y0315177D01*
X0174438Y0314778D01*
X0174715Y0314374D01*
X0174983Y0313963D01*
X0175241Y0313545D01*
X0175488Y0313121D01*
X0175724Y0312691D01*
X0175950Y0312255D01*
X0176166Y0311814D01*
X0176369Y0311368D01*
X0176564Y0310917D01*
X0176746Y0310461D01*
X0176917Y0310001D01*
X0177077Y0309537D01*
X0177225Y0309069D01*
X0177361Y0308597D01*
X0177487Y0308123D01*
X0177600Y0307645D01*
X0177702Y0307165D01*
X0177792Y0306682D01*
X0177870Y0306198D01*
X0177936Y0305711D01*
X0177990Y0305223D01*
X0178032Y0304734D01*
X0178062Y0304244D01*
X0178080Y0303754D01*
X0178086Y0303263D01*
X0178080Y0302772D01*
X0178062Y0302282D01*
X0178032Y0301792D01*
X0177990Y0301303D01*
X0177936Y0300815D01*
X0177870Y0300328D01*
X0177792Y0299844D01*
X0177702Y0299361D01*
X0177600Y0298881D01*
X0177487Y0298403D01*
X0177361Y0297929D01*
X0177225Y0297457D01*
X0177077Y0296989D01*
X0176917Y0296525D01*
X0176746Y0296065D01*
X0176564Y0295609D01*
X0176369Y0295158D01*
X0176166Y0294712D01*
X0175950Y0294271D01*
X0175724Y0293835D01*
X0175488Y0293405D01*
X0175241Y0292981D01*
X0174983Y0292562D01*
X0174715Y0292152D01*
X0174438Y0291747D01*
X0174150Y0291349D01*
X0173853Y0290958D01*
X0173546Y0290574D01*
X0173230Y0290200D01*
X0172904Y0289832D01*
X0172571Y0289472D01*
X0172228Y0289121D01*
X0171877Y0288778D01*
X0171517Y0288444D01*
X0171149Y0288119D01*
X0170774Y0287802D01*
X0170391Y0287496D01*
X0170000Y0287199D01*
X0169602Y0286911D01*
X0169197Y0286634D01*
X0168786Y0286365D01*
X0168368Y0286108D01*
X0167944Y0285861D01*
X0167514Y0285625D01*
X0167078Y0285399D01*
X0166636Y0285183D01*
X0166191Y0284979D01*
X0165740Y0284785D01*
X0165284Y0284603D01*
X0164824Y0284432D01*
X0164360Y0284272D01*
X0163892Y0284124D01*
X0163420Y0283987D01*
X0162946Y0283862D01*
X0162467Y0283749D01*
X0161988Y0283647D01*
X0161505Y0283557D01*
X0161021Y0283479D01*
X0160534Y0283413D01*
X0160046Y0283359D01*
X0159557Y0283316D01*
X0159067Y0283287D01*
X0158577Y0283269D01*
X0158086Y0283263D01*
X0157595Y0283269D01*
X0157104Y0283287D01*
X0156615Y0283316D01*
X0156126Y0283359D01*
X0155638Y0283413D01*
X0155151Y0283479D01*
X0154667Y0283557D01*
X0154184Y0283647D01*
X0153704Y0283749D01*
X0153226Y0283862D01*
X0152752Y0283987D01*
X0152280Y0284124D01*
X0151812Y0284272D01*
X0151348Y0284432D01*
X0150887Y0284603D01*
X0150432Y0284785D01*
X0149981Y0284979D01*
X0149535Y0285183D01*
X0149094Y0285399D01*
X0148658Y0285625D01*
X0148228Y0285861D01*
X0147804Y0286108D01*
X0147386Y0286365D01*
X0146975Y0286634D01*
X0146570Y0286911D01*
X0146172Y0287199D01*
X0145781Y0287496D01*
X0145398Y0287802D01*
X0145022Y0288119D01*
X0144655Y0288444D01*
X0144295Y0288778D01*
X0143944Y0289121D01*
X0143601Y0289472D01*
X0143267Y0289832D01*
X0142942Y0290200D01*
X0142626Y0290574D01*
X0142319Y0290958D01*
X0142022Y0291349D01*
X0141734Y0291747D01*
X0141457Y0292152D01*
X0141189Y0292562D01*
X0140930Y0292981D01*
X0140684Y0293405D01*
X0140448Y0293835D01*
X0140222Y0294271D01*
X0140006Y0294712D01*
X0139802Y0295158D01*
X0139608Y0295609D01*
X0139426Y0296065D01*
X0139255Y0296525D01*
X0139095Y0296989D01*
X0138947Y0297457D01*
X0138810Y0297929D01*
X0138685Y0298403D01*
X0138572Y0298881D01*
X0138470Y0299361D01*
X0138380Y0299844D01*
X0138302Y0300328D01*
X0138236Y0300815D01*
X0138182Y0301303D01*
X0138140Y0301792D01*
X0138110Y0302282D01*
X0138092Y0302772D01*
X0138085Y0303263D01*
D60*
X0135242Y0303775D02*
X0135242Y0301673D01*
X0134191Y0300622D01*
X0129987Y0300622D01*
X0128936Y0301673D01*
X0128936Y0303775D01*
X0129987Y0304826D01*
X0128936Y0307067D02*
X0128936Y0311271D01*
X0128936Y0309170D02*
X0135242Y0309170D01*
X0133140Y0307067D01*
X0134191Y0304826D02*
X0135242Y0303775D01*
D61*
X0158086Y0299463D03*
G04 next file*
G75*
D62*
X0200886Y0201162D02*
X0200100Y0201948D01*
X0200100Y0203521D01*
X0200886Y0204307D01*
X0200886Y0206239D02*
X0200100Y0207025D01*
X0200100Y0208597D01*
X0200886Y0209382D01*
X0200886Y0206239D02*
X0204029Y0206239D01*
X0204816Y0207025D01*
X0204816Y0208597D01*
X0204029Y0209382D01*
X0204029Y0204307D02*
X0204816Y0203521D01*
X0204816Y0201948D01*
X0204029Y0201162D01*
X0200886Y0201162D01*
X0200100Y0216389D02*
X0200100Y0218746D01*
X0200886Y0219532D01*
X0201671Y0219532D01*
X0202457Y0218746D01*
X0202457Y0216389D01*
X0202457Y0218746D02*
X0203243Y0219532D01*
X0204029Y0219532D01*
X0204816Y0218746D01*
X0204816Y0216389D01*
X0200100Y0216389D01*
X0204029Y0221464D02*
X0202457Y0223036D01*
X0200100Y0223036D01*
X0202457Y0223036D02*
X0204029Y0224608D01*
X0204816Y0224608D01*
X0204816Y0221464D02*
X0204029Y0221464D01*
X0202457Y0226539D02*
X0202457Y0229683D01*
X0200100Y0231615D02*
X0204816Y0231615D01*
X0200100Y0234757D01*
X0204816Y0234757D01*
X0204029Y0236689D02*
X0200886Y0236689D01*
X0200100Y0237476D01*
X0200100Y0239048D01*
X0200886Y0239834D01*
X0202457Y0241765D02*
X0202457Y0244909D01*
X0203243Y0246840D02*
X0202457Y0247626D01*
X0202457Y0249198D01*
X0201671Y0249983D01*
X0200886Y0249983D01*
X0200100Y0249198D01*
X0200100Y0247626D01*
X0200886Y0246840D01*
X0203243Y0246840D02*
X0204029Y0246840D01*
X0204816Y0247626D01*
X0204816Y0249198D01*
X0204029Y0249983D01*
X0203243Y0251914D02*
X0204816Y0253487D01*
X0203243Y0255059D01*
X0200100Y0255059D01*
X0200100Y0251914D02*
X0203243Y0251914D01*
X0202457Y0251914D02*
X0202457Y0255059D01*
X0202457Y0262066D02*
X0202457Y0265210D01*
X0204816Y0264423D02*
X0202457Y0262066D01*
X0200100Y0264423D02*
X0204816Y0264423D01*
X0204029Y0269679D02*
X0204816Y0270465D01*
X0204816Y0272036D01*
X0204029Y0272822D01*
X0200886Y0269679D01*
X0200100Y0270465D01*
X0200100Y0272036D01*
X0200886Y0272822D01*
X0204029Y0272822D01*
X0204029Y0269679D02*
X0200886Y0269679D01*
X0200886Y0267927D02*
X0200100Y0267927D01*
X0200100Y0267140D01*
X0200886Y0267140D01*
X0200886Y0267927D01*
X0204029Y0239834D02*
X0204816Y0239048D01*
X0204816Y0237476D01*
X0204029Y0236689D01*
X0231599Y0262912D02*
X0236315Y0262912D01*
X0236315Y0265269D01*
X0235529Y0266056D01*
X0233957Y0266056D01*
X0233171Y0265269D01*
X0233171Y0262912D01*
X0233957Y0260980D02*
X0233171Y0260194D01*
X0233171Y0258622D01*
X0233957Y0257836D01*
X0235529Y0257836D01*
X0236315Y0258622D01*
X0236315Y0260194D01*
X0235529Y0260980D01*
X0233957Y0260980D01*
X0233957Y0255905D02*
X0233171Y0255119D01*
X0233171Y0253547D01*
X0233957Y0252761D01*
X0235529Y0252761D01*
X0236315Y0253547D01*
X0236315Y0255119D01*
X0235529Y0255905D01*
X0233957Y0255905D01*
X0233171Y0250830D02*
X0235529Y0250830D01*
X0236315Y0250044D01*
X0236315Y0248471D01*
X0235529Y0247685D01*
X0236315Y0245755D02*
X0236315Y0243397D01*
X0235529Y0242611D01*
X0233957Y0242611D01*
X0233171Y0243397D01*
X0233171Y0245755D01*
X0233171Y0247685D02*
X0237887Y0247685D01*
X0241439Y0244123D02*
X0241439Y0242551D01*
X0242225Y0241765D01*
X0241439Y0239834D02*
X0241439Y0236689D01*
X0244583Y0239834D01*
X0245369Y0239834D01*
X0246155Y0239048D01*
X0246155Y0237476D01*
X0245369Y0236689D01*
X0245369Y0234757D02*
X0242225Y0231615D01*
X0241439Y0232401D01*
X0241439Y0233971D01*
X0242225Y0234757D01*
X0245369Y0234757D01*
X0246155Y0233971D01*
X0246155Y0232401D01*
X0245369Y0231615D01*
X0242225Y0231615D01*
X0241439Y0229683D02*
X0241439Y0226539D01*
X0244583Y0229683D01*
X0245369Y0229683D01*
X0246155Y0228897D01*
X0246155Y0227325D01*
X0245369Y0226539D01*
X0245369Y0222070D02*
X0244583Y0222070D01*
X0243797Y0221285D01*
X0243797Y0219713D01*
X0244583Y0218927D01*
X0245369Y0218927D01*
X0246155Y0219713D01*
X0246155Y0221285D01*
X0245369Y0222070D01*
X0243797Y0221285D02*
X0243011Y0222070D01*
X0242225Y0222070D01*
X0241439Y0221285D01*
X0241439Y0219713D01*
X0242225Y0218927D01*
X0243011Y0218927D01*
X0243797Y0219713D01*
X0245369Y0216995D02*
X0242225Y0216995D01*
X0241439Y0216209D01*
X0241439Y0214637D01*
X0242225Y0213851D01*
X0245369Y0216995D01*
X0246155Y0216209D01*
X0246155Y0214637D01*
X0245369Y0213851D01*
X0242225Y0213851D01*
X0242225Y0212100D02*
X0241439Y0212100D01*
X0241439Y0211314D01*
X0242225Y0211314D01*
X0242225Y0212100D01*
X0242225Y0209382D02*
X0241439Y0208597D01*
X0241439Y0207025D01*
X0242225Y0206239D01*
X0241439Y0204307D02*
X0241439Y0201162D01*
X0241439Y0202735D02*
X0246155Y0202735D01*
X0244583Y0201162D01*
X0243797Y0206239D02*
X0244583Y0207811D01*
X0244583Y0208597D01*
X0243797Y0209382D01*
X0242225Y0209382D01*
X0243797Y0206239D02*
X0246155Y0206239D01*
X0246155Y0209382D01*
X0248135Y0206239D02*
X0252851Y0206239D01*
X0252851Y0208597D01*
X0252064Y0209382D01*
X0250493Y0209382D01*
X0249707Y0208597D01*
X0249707Y0206239D01*
X0250493Y0204307D02*
X0253636Y0204307D01*
X0254423Y0203521D01*
X0254423Y0201948D01*
X0253636Y0201162D01*
X0250493Y0201162D01*
X0249707Y0201948D01*
X0249707Y0203521D01*
X0250493Y0204307D01*
X0250493Y0211314D02*
X0249707Y0212100D01*
X0249707Y0213672D01*
X0250493Y0211314D02*
X0252064Y0211314D01*
X0252851Y0212100D01*
X0252851Y0213672D01*
X0252064Y0214458D01*
X0251279Y0214458D01*
X0251279Y0211314D01*
X0249707Y0216389D02*
X0252851Y0216389D01*
X0252851Y0218746D01*
X0252064Y0219532D01*
X0249707Y0219532D01*
X0249707Y0221464D02*
X0249707Y0223822D01*
X0250493Y0224608D01*
X0253636Y0224608D01*
X0254423Y0223822D01*
X0254423Y0221464D01*
X0249707Y0221464D01*
X0249707Y0228111D02*
X0254423Y0228111D01*
X0254423Y0226539D02*
X0254423Y0229683D01*
X0254423Y0231615D02*
X0250493Y0231615D01*
X0249707Y0232401D01*
X0249707Y0233971D01*
X0250493Y0234757D01*
X0254423Y0234757D01*
X0257974Y0234092D02*
X0257974Y0235664D01*
X0258759Y0236450D01*
X0257974Y0238382D02*
X0262690Y0238382D01*
X0261118Y0239953D01*
X0262690Y0241525D01*
X0257974Y0241525D01*
X0257974Y0245029D02*
X0262690Y0245029D01*
X0262690Y0243457D02*
X0262690Y0246600D01*
X0261904Y0248532D02*
X0262690Y0249318D01*
X0262690Y0250890D01*
X0261904Y0251676D01*
X0261118Y0251676D01*
X0257974Y0248532D01*
X0257974Y0251676D01*
X0258759Y0253607D02*
X0257974Y0254393D01*
X0257974Y0255965D01*
X0258759Y0256751D01*
X0259546Y0256751D01*
X0260331Y0255965D01*
X0260331Y0255179D01*
X0260331Y0255965D02*
X0261118Y0256751D01*
X0261904Y0256751D01*
X0262690Y0255965D01*
X0262690Y0254393D01*
X0261904Y0253607D01*
X0261904Y0258682D02*
X0262690Y0259468D01*
X0262690Y0261039D01*
X0261904Y0261825D01*
X0258759Y0258682D01*
X0257974Y0259468D01*
X0257974Y0261039D01*
X0258759Y0261825D01*
X0261904Y0261825D01*
X0261904Y0263757D02*
X0262690Y0264543D01*
X0262690Y0266115D01*
X0261904Y0266901D01*
X0258759Y0263757D01*
X0257974Y0264543D01*
X0257974Y0266115D01*
X0258759Y0266901D01*
X0261904Y0266901D01*
X0261118Y0269619D02*
X0261118Y0271191D01*
X0260331Y0271977D01*
X0257974Y0271977D01*
X0257974Y0269619D01*
X0258759Y0268833D01*
X0259546Y0269619D01*
X0259546Y0271977D01*
X0258759Y0263757D02*
X0261904Y0263757D01*
X0261904Y0258682D02*
X0258759Y0258682D01*
X0261904Y0236450D02*
X0262690Y0235664D01*
X0262690Y0234092D01*
X0261904Y0233306D01*
X0258759Y0233306D01*
X0257974Y0234092D01*
X0257974Y0226300D02*
X0261118Y0223156D01*
X0260331Y0221225D02*
X0259546Y0221225D01*
X0259546Y0218081D01*
X0258759Y0218081D02*
X0260331Y0218081D01*
X0261118Y0218867D01*
X0261118Y0220439D01*
X0260331Y0221225D01*
X0257974Y0218867D02*
X0258759Y0218081D01*
X0257974Y0218867D02*
X0257974Y0220439D01*
X0257974Y0223156D02*
X0261118Y0226300D01*
X0260331Y0216149D02*
X0257974Y0216149D01*
X0257974Y0214577D02*
X0260331Y0214577D01*
X0261118Y0215363D01*
X0260331Y0216149D01*
X0260331Y0214577D02*
X0261118Y0213791D01*
X0261118Y0213005D01*
X0257974Y0213005D01*
X0257974Y0211194D02*
X0257974Y0209622D01*
X0257974Y0210408D02*
X0261118Y0210408D01*
X0261118Y0209622D01*
X0262690Y0210408D02*
X0263476Y0210408D01*
X0262690Y0207025D02*
X0257974Y0207025D01*
X0257974Y0206239D02*
X0257974Y0207811D01*
X0258759Y0204307D02*
X0261904Y0204307D01*
X0262690Y0203521D01*
X0262690Y0201948D01*
X0261904Y0201162D01*
X0258759Y0201162D01*
X0257974Y0201948D01*
X0257974Y0203521D01*
X0258759Y0204307D01*
X0262690Y0206239D02*
X0262690Y0207025D01*
X0245369Y0241765D02*
X0246155Y0242551D01*
X0246155Y0244123D01*
X0245369Y0244909D01*
X0244583Y0244909D01*
X0243797Y0244123D01*
X0243011Y0244909D01*
X0242225Y0244909D01*
X0241439Y0244123D01*
X0243797Y0244123D02*
X0243797Y0243337D01*
X0237887Y0239894D02*
X0237887Y0238322D01*
X0237101Y0237536D01*
X0236315Y0237536D01*
X0235529Y0238322D01*
X0235529Y0239894D01*
X0234743Y0240680D01*
X0233957Y0240680D01*
X0233171Y0239894D01*
X0233171Y0238322D01*
X0233957Y0237536D01*
X0237101Y0240680D02*
X0237887Y0239894D01*
X0235529Y0230528D02*
X0233171Y0230528D01*
X0233171Y0227385D02*
X0236315Y0227385D01*
X0236315Y0229743D01*
X0235529Y0230528D01*
X0235529Y0225454D02*
X0233171Y0225454D01*
X0233171Y0223096D01*
X0233957Y0222310D01*
X0234743Y0223096D01*
X0234743Y0225454D01*
X0235529Y0225454D02*
X0236315Y0224668D01*
X0236315Y0223096D01*
X0236315Y0219713D02*
X0233171Y0219713D01*
X0233171Y0218927D02*
X0233171Y0220499D01*
X0236315Y0216269D02*
X0234743Y0214697D01*
X0233957Y0212766D02*
X0235529Y0212766D01*
X0236315Y0211980D01*
X0236315Y0210408D01*
X0235529Y0209622D01*
X0233957Y0209622D01*
X0233171Y0210408D01*
X0233171Y0211980D01*
X0233957Y0212766D01*
X0233171Y0214697D02*
X0236315Y0214697D01*
X0236315Y0216269D02*
X0236315Y0217055D01*
X0236315Y0218927D02*
X0236315Y0219713D01*
X0237887Y0219713D02*
X0238673Y0219713D01*
X0241439Y0224002D02*
X0241439Y0224788D01*
X0242225Y0224788D01*
X0242225Y0224002D01*
X0241439Y0224002D01*
X0237887Y0207025D02*
X0233171Y0207025D01*
X0233171Y0206239D02*
X0233171Y0207811D01*
X0235529Y0202735D02*
X0235529Y0201162D01*
X0233171Y0201162D02*
X0237887Y0201162D01*
X0237887Y0204307D01*
X0237887Y0206239D02*
X0237887Y0207025D01*
D63*
X0241699Y0266763D02*
X0252700Y0266763D01*
X0252759Y0266765D01*
X0252821Y0266770D01*
X0252879Y0266779D01*
X0252938Y0266792D01*
X0252998Y0266808D01*
X0253054Y0266828D01*
X0253109Y0266851D01*
X0253165Y0266878D01*
X0253216Y0266907D01*
X0253268Y0266940D01*
X0253317Y0266976D01*
X0253363Y0267014D01*
X0253406Y0267056D01*
X0253448Y0267100D01*
X0253487Y0267146D01*
X0253523Y0267195D01*
X0253555Y0267246D01*
X0253585Y0267297D01*
X0253612Y0267353D01*
X0253635Y0267408D01*
X0253655Y0267465D01*
X0253670Y0267524D01*
X0253684Y0267583D01*
X0253693Y0267642D01*
X0253697Y0267703D01*
X0253700Y0267763D01*
X0253700Y0273763D01*
X0253697Y0273823D01*
X0253693Y0273884D01*
X0253684Y0273943D01*
X0253670Y0274002D01*
X0253655Y0274061D01*
X0253635Y0274118D01*
X0253612Y0274173D01*
X0253585Y0274227D01*
X0253555Y0274280D01*
X0253523Y0274331D01*
X0253487Y0274380D01*
X0253448Y0274426D01*
X0253406Y0274470D01*
X0253363Y0274512D01*
X0253317Y0274550D01*
X0253268Y0274586D01*
X0253216Y0274619D01*
X0253165Y0274648D01*
X0253109Y0274675D01*
X0253054Y0274698D01*
X0252998Y0274718D01*
X0252938Y0274734D01*
X0252879Y0274747D01*
X0252821Y0274756D01*
X0252759Y0274761D01*
X0252700Y0274763D01*
X0241699Y0274763D01*
X0241640Y0274761D01*
X0241579Y0274756D01*
X0241520Y0274747D01*
X0241461Y0274734D01*
X0241401Y0274718D01*
X0241345Y0274698D01*
X0241290Y0274675D01*
X0241235Y0274648D01*
X0241183Y0274619D01*
X0241132Y0274586D01*
X0241082Y0274550D01*
X0241037Y0274512D01*
X0240993Y0274470D01*
X0240951Y0274426D01*
X0240913Y0274380D01*
X0240877Y0274331D01*
X0240844Y0274280D01*
X0240815Y0274227D01*
X0240788Y0274173D01*
X0240764Y0274118D01*
X0240745Y0274061D01*
X0240729Y0274002D01*
X0240716Y0273943D01*
X0240707Y0273884D01*
X0240702Y0273823D01*
X0240700Y0273763D01*
X0240700Y0267763D01*
X0240702Y0267703D01*
X0240707Y0267642D01*
X0240716Y0267583D01*
X0240729Y0267524D01*
X0240745Y0267465D01*
X0240764Y0267408D01*
X0240788Y0267353D01*
X0240815Y0267297D01*
X0240844Y0267246D01*
X0240877Y0267195D01*
X0240913Y0267146D01*
X0240951Y0267100D01*
X0240993Y0267056D01*
X0241037Y0267014D01*
X0241082Y0266976D01*
X0241132Y0266940D01*
X0241183Y0266907D01*
X0241235Y0266878D01*
X0241290Y0266851D01*
X0241345Y0266828D01*
X0241401Y0266808D01*
X0241461Y0266792D01*
X0241520Y0266779D01*
X0241579Y0266770D01*
X0241640Y0266765D01*
X0241699Y0266763D01*
X0226200Y0267763D02*
X0226200Y0273763D01*
X0226198Y0273823D01*
X0226193Y0273884D01*
X0226183Y0273943D01*
X0226171Y0274002D01*
X0226155Y0274061D01*
X0226135Y0274118D01*
X0226112Y0274173D01*
X0226085Y0274227D01*
X0226056Y0274280D01*
X0226023Y0274331D01*
X0225986Y0274380D01*
X0225949Y0274426D01*
X0225907Y0274470D01*
X0225863Y0274512D01*
X0225816Y0274550D01*
X0225768Y0274586D01*
X0225717Y0274619D01*
X0225665Y0274648D01*
X0225610Y0274675D01*
X0225555Y0274698D01*
X0225498Y0274718D01*
X0225439Y0274734D01*
X0225380Y0274747D01*
X0225321Y0274756D01*
X0225260Y0274761D01*
X0225199Y0274763D01*
X0214200Y0274763D01*
X0214140Y0274761D01*
X0214079Y0274756D01*
X0214020Y0274747D01*
X0213960Y0274734D01*
X0213902Y0274718D01*
X0213845Y0274698D01*
X0213790Y0274675D01*
X0213735Y0274648D01*
X0213682Y0274619D01*
X0213632Y0274586D01*
X0213583Y0274550D01*
X0213537Y0274512D01*
X0213493Y0274470D01*
X0213451Y0274426D01*
X0213413Y0274380D01*
X0213377Y0274331D01*
X0213343Y0274280D01*
X0213315Y0274227D01*
X0213288Y0274173D01*
X0213265Y0274118D01*
X0213245Y0274061D01*
X0213228Y0274002D01*
X0213215Y0273943D01*
X0213207Y0273884D01*
X0213201Y0273823D01*
X0213200Y0273763D01*
X0213200Y0267763D01*
X0213201Y0267703D01*
X0213207Y0267642D01*
X0213215Y0267583D01*
X0213228Y0267524D01*
X0213245Y0267465D01*
X0213265Y0267408D01*
X0213288Y0267353D01*
X0213315Y0267297D01*
X0213343Y0267246D01*
X0213377Y0267195D01*
X0213413Y0267146D01*
X0213451Y0267100D01*
X0213493Y0267056D01*
X0213537Y0267014D01*
X0213583Y0266976D01*
X0213632Y0266940D01*
X0213682Y0266907D01*
X0213735Y0266878D01*
X0213790Y0266851D01*
X0213845Y0266828D01*
X0213902Y0266808D01*
X0213960Y0266792D01*
X0214020Y0266779D01*
X0214079Y0266770D01*
X0214140Y0266765D01*
X0214200Y0266763D01*
X0225199Y0266763D01*
X0225260Y0266765D01*
X0225321Y0266770D01*
X0225380Y0266779D01*
X0225439Y0266792D01*
X0225498Y0266808D01*
X0225555Y0266828D01*
X0225610Y0266851D01*
X0225665Y0266878D01*
X0225717Y0266907D01*
X0225768Y0266940D01*
X0225816Y0266976D01*
X0225863Y0267014D01*
X0225907Y0267056D01*
X0225949Y0267100D01*
X0225986Y0267146D01*
X0226023Y0267195D01*
X0226056Y0267246D01*
X0226085Y0267297D01*
X0226112Y0267353D01*
X0226135Y0267408D01*
X0226155Y0267465D01*
X0226171Y0267524D01*
X0226183Y0267583D01*
X0226193Y0267642D01*
X0226198Y0267703D01*
X0226200Y0267763D01*
X0257500Y0296252D02*
X0260435Y0299187D01*
X0259702Y0299187D02*
X0260435Y0298453D01*
X0260435Y0296986D01*
X0259702Y0296252D01*
X0258234Y0296252D01*
X0257500Y0296986D01*
X0257500Y0298453D01*
X0258234Y0299187D01*
X0259702Y0299187D01*
X0260435Y0300856D02*
X0261904Y0302322D01*
X0257500Y0302322D01*
X0257500Y0300856D02*
X0257500Y0303791D01*
X0258234Y0305459D02*
X0257500Y0306193D01*
X0257500Y0307661D01*
X0258234Y0308395D01*
X0261170Y0308395D01*
X0258234Y0305459D01*
X0261170Y0305459D01*
X0261904Y0306193D01*
X0261904Y0307661D01*
X0261170Y0308395D01*
D64*
X0252700Y0280017D02*
X0251198Y0280017D01*
X0250448Y0279267D01*
X0250448Y0277765D02*
X0251948Y0277765D01*
X0250448Y0276264D02*
X0251198Y0275513D01*
X0252700Y0275513D01*
X0253450Y0276264D01*
X0253450Y0279267D01*
X0252700Y0280017D01*
X0250448Y0277765D02*
X0250448Y0276264D01*
X0248846Y0275513D02*
X0248846Y0280017D01*
X0246595Y0280017D01*
X0245844Y0279267D01*
X0245844Y0277765D01*
X0246595Y0277015D01*
X0248846Y0277015D01*
X0244243Y0275513D02*
X0242741Y0275513D01*
X0243492Y0275513D02*
X0243492Y0280017D01*
X0244243Y0280017D02*
X0242741Y0280017D01*
X0241173Y0279267D02*
X0241173Y0276264D01*
X0240423Y0275513D01*
X0238920Y0275513D01*
X0238171Y0276264D01*
X0238171Y0279267D01*
X0238920Y0280017D01*
X0240423Y0280017D01*
X0241173Y0279267D01*
X0236568Y0279267D02*
X0235819Y0280017D01*
X0234317Y0280017D01*
X0233567Y0279267D01*
X0233567Y0278516D01*
X0234317Y0277765D01*
X0233567Y0277015D01*
X0233567Y0276264D01*
X0234317Y0275513D01*
X0235819Y0275513D01*
X0236568Y0276264D01*
X0235068Y0277765D02*
X0234317Y0277765D01*
X0225950Y0276264D02*
X0225199Y0275513D01*
X0223698Y0275513D01*
X0222948Y0276264D01*
X0222948Y0277765D01*
X0224449Y0277765D01*
X0225950Y0276264D02*
X0225950Y0279267D01*
X0225199Y0280017D01*
X0223698Y0280017D01*
X0222948Y0279267D01*
X0221346Y0280017D02*
X0221346Y0275513D01*
X0221346Y0277015D02*
X0219095Y0277015D01*
X0218344Y0277765D01*
X0218344Y0279267D01*
X0219095Y0280017D01*
X0221346Y0280017D01*
X0216743Y0280017D02*
X0215241Y0280017D01*
X0215992Y0280017D02*
X0215992Y0275513D01*
X0216743Y0275513D02*
X0215241Y0275513D01*
X0213673Y0276264D02*
X0213673Y0279267D01*
X0212923Y0280017D01*
X0211421Y0280017D01*
X0210671Y0279267D01*
X0210671Y0276264D01*
X0211421Y0275513D01*
X0212923Y0275513D01*
X0213673Y0276264D01*
X0209069Y0275513D02*
X0206067Y0278516D01*
X0206067Y0279267D01*
X0206816Y0280017D01*
X0208319Y0280017D01*
X0209069Y0279267D01*
X0209069Y0275513D02*
X0206067Y0275513D01*
D65*
X0234700Y0304963D02*
X0254700Y0304963D01*
X0254700Y0309463D01*
X0244700Y0309463D01*
X0234700Y0309463D01*
X0234700Y0304963D01*
X0237200Y0311763D02*
X0237200Y0316763D01*
X0234700Y0314263D02*
X0239699Y0314263D01*
X0244700Y0313263D02*
X0244700Y0309463D01*
X0244700Y0300763D02*
X0244700Y0293263D01*
D66*
X0224700Y0303263D02*
X0224705Y0303754D01*
X0224724Y0304244D01*
X0224754Y0304734D01*
X0224796Y0305223D01*
X0224850Y0305711D01*
X0224915Y0306198D01*
X0224994Y0306682D01*
X0225084Y0307165D01*
X0225186Y0307645D01*
X0225299Y0308123D01*
X0225423Y0308597D01*
X0225561Y0309069D01*
X0225708Y0309537D01*
X0225869Y0310001D01*
X0226040Y0310461D01*
X0226222Y0310917D01*
X0226416Y0311368D01*
X0226620Y0311814D01*
X0226836Y0312255D01*
X0227062Y0312691D01*
X0227298Y0313121D01*
X0227545Y0313545D01*
X0227803Y0313963D01*
X0228071Y0314374D01*
X0228348Y0314778D01*
X0228636Y0315177D01*
X0228933Y0315568D01*
X0229240Y0315951D01*
X0229556Y0316326D01*
X0229881Y0316694D01*
X0230215Y0317054D01*
X0230558Y0317405D01*
X0230909Y0317748D01*
X0231269Y0318082D01*
X0231637Y0318407D01*
X0232012Y0318723D01*
X0232395Y0319030D01*
X0232785Y0319326D01*
X0233184Y0319615D01*
X0233589Y0319892D01*
X0234000Y0320160D01*
X0234418Y0320418D01*
X0234842Y0320664D01*
X0235272Y0320901D01*
X0235707Y0321127D01*
X0236149Y0321343D01*
X0236595Y0321547D01*
X0237046Y0321741D01*
X0237502Y0321923D01*
X0237962Y0322094D01*
X0238425Y0322254D01*
X0238893Y0322402D01*
X0239366Y0322539D01*
X0239840Y0322664D01*
X0240318Y0322777D01*
X0240797Y0322879D01*
X0241281Y0322969D01*
X0241765Y0323046D01*
X0242252Y0323113D01*
X0242740Y0323167D01*
X0243229Y0323209D01*
X0243719Y0323239D01*
X0244209Y0323257D01*
X0244700Y0323263D01*
X0245190Y0323257D01*
X0245681Y0323239D01*
X0246171Y0323209D01*
X0246660Y0323167D01*
X0247148Y0323113D01*
X0247635Y0323046D01*
X0248118Y0322969D01*
X0248602Y0322879D01*
X0249081Y0322777D01*
X0249560Y0322664D01*
X0250034Y0322539D01*
X0250505Y0322402D01*
X0250974Y0322254D01*
X0251438Y0322094D01*
X0251898Y0321923D01*
X0252354Y0321741D01*
X0252805Y0321547D01*
X0253250Y0321343D01*
X0253691Y0321127D01*
X0254128Y0320901D01*
X0254558Y0320664D01*
X0254982Y0320418D01*
X0255399Y0320160D01*
X0255811Y0319892D01*
X0256216Y0319615D01*
X0256614Y0319326D01*
X0257005Y0319030D01*
X0257388Y0318723D01*
X0257763Y0318407D01*
X0258131Y0318082D01*
X0258490Y0317748D01*
X0258842Y0317405D01*
X0259185Y0317054D01*
X0259519Y0316694D01*
X0259844Y0316326D01*
X0260159Y0315951D01*
X0260467Y0315568D01*
X0260764Y0315177D01*
X0261052Y0314778D01*
X0261329Y0314374D01*
X0261596Y0313963D01*
X0261855Y0313545D01*
X0262102Y0313121D01*
X0262338Y0312691D01*
X0262564Y0312255D01*
X0262780Y0311814D01*
X0262984Y0311368D01*
X0263178Y0310917D01*
X0263360Y0310461D01*
X0263531Y0310001D01*
X0263691Y0309537D01*
X0263839Y0309069D01*
X0263976Y0308597D01*
X0264101Y0308123D01*
X0264214Y0307645D01*
X0264316Y0307165D01*
X0264405Y0306682D01*
X0264484Y0306198D01*
X0264550Y0305711D01*
X0264604Y0305223D01*
X0264645Y0304734D01*
X0264676Y0304244D01*
X0264694Y0303754D01*
X0264700Y0303263D01*
X0264694Y0302772D01*
X0264676Y0302282D01*
X0264645Y0301792D01*
X0264604Y0301303D01*
X0264550Y0300815D01*
X0264484Y0300328D01*
X0264405Y0299844D01*
X0264316Y0299361D01*
X0264214Y0298881D01*
X0264101Y0298403D01*
X0263976Y0297929D01*
X0263839Y0297457D01*
X0263691Y0296989D01*
X0263531Y0296525D01*
X0263360Y0296065D01*
X0263178Y0295609D01*
X0262984Y0295158D01*
X0262780Y0294712D01*
X0262564Y0294271D01*
X0262338Y0293835D01*
X0262102Y0293405D01*
X0261855Y0292981D01*
X0261596Y0292562D01*
X0261329Y0292152D01*
X0261052Y0291747D01*
X0260764Y0291349D01*
X0260467Y0290958D01*
X0260159Y0290574D01*
X0259844Y0290200D01*
X0259519Y0289832D01*
X0259185Y0289472D01*
X0258842Y0289121D01*
X0258490Y0288778D01*
X0258131Y0288444D01*
X0257763Y0288119D01*
X0257388Y0287802D01*
X0257005Y0287496D01*
X0256614Y0287199D01*
X0256216Y0286911D01*
X0255811Y0286634D01*
X0255399Y0286365D01*
X0254982Y0286108D01*
X0254558Y0285861D01*
X0254128Y0285625D01*
X0253691Y0285399D01*
X0253250Y0285183D01*
X0252805Y0284979D01*
X0252354Y0284785D01*
X0251898Y0284603D01*
X0251438Y0284432D01*
X0250974Y0284272D01*
X0250505Y0284124D01*
X0250034Y0283987D01*
X0249560Y0283862D01*
X0249081Y0283749D01*
X0248602Y0283647D01*
X0248118Y0283557D01*
X0247635Y0283479D01*
X0247148Y0283413D01*
X0246660Y0283359D01*
X0246171Y0283316D01*
X0245681Y0283287D01*
X0245190Y0283269D01*
X0244700Y0283263D01*
X0244209Y0283269D01*
X0243719Y0283287D01*
X0243229Y0283316D01*
X0242740Y0283359D01*
X0242252Y0283413D01*
X0241765Y0283479D01*
X0241281Y0283557D01*
X0240797Y0283647D01*
X0240318Y0283749D01*
X0239840Y0283862D01*
X0239366Y0283987D01*
X0238893Y0284124D01*
X0238425Y0284272D01*
X0237962Y0284432D01*
X0237502Y0284603D01*
X0237046Y0284785D01*
X0236595Y0284979D01*
X0236149Y0285183D01*
X0235707Y0285399D01*
X0235272Y0285625D01*
X0234842Y0285861D01*
X0234418Y0286108D01*
X0234000Y0286365D01*
X0233589Y0286634D01*
X0233184Y0286911D01*
X0232785Y0287199D01*
X0232395Y0287496D01*
X0232012Y0287802D01*
X0231637Y0288119D01*
X0231269Y0288444D01*
X0230909Y0288778D01*
X0230558Y0289121D01*
X0230215Y0289472D01*
X0229881Y0289832D01*
X0229556Y0290200D01*
X0229240Y0290574D01*
X0228933Y0290958D01*
X0228636Y0291349D01*
X0228348Y0291747D01*
X0228071Y0292152D01*
X0227803Y0292562D01*
X0227545Y0292981D01*
X0227298Y0293405D01*
X0227062Y0293835D01*
X0226836Y0294271D01*
X0226620Y0294712D01*
X0226416Y0295158D01*
X0226222Y0295609D01*
X0226040Y0296065D01*
X0225869Y0296525D01*
X0225708Y0296989D01*
X0225561Y0297457D01*
X0225423Y0297929D01*
X0225299Y0298403D01*
X0225186Y0298881D01*
X0225084Y0299361D01*
X0224994Y0299844D01*
X0224915Y0300328D01*
X0224850Y0300815D01*
X0224796Y0301303D01*
X0224754Y0301792D01*
X0224724Y0302282D01*
X0224705Y0302772D01*
X0224700Y0303263D01*
D67*
X0221856Y0303775D02*
X0221856Y0301673D01*
X0220805Y0300622D01*
X0216601Y0300622D01*
X0215550Y0301673D01*
X0215550Y0303775D01*
X0216601Y0304826D01*
X0215550Y0307067D02*
X0215550Y0311271D01*
X0215550Y0309170D02*
X0221856Y0309170D01*
X0219754Y0307067D01*
X0220805Y0304826D02*
X0221856Y0303775D01*
D68*
X0244700Y0299463D03*
G04 next file*
G75*
D69*
X0287500Y0201162D02*
X0286714Y0201948D01*
X0286714Y0203521D01*
X0287500Y0204307D01*
X0287500Y0206239D02*
X0286714Y0207025D01*
X0286714Y0208597D01*
X0287500Y0209382D01*
X0287500Y0206239D02*
X0290644Y0206239D01*
X0291430Y0207025D01*
X0291430Y0208597D01*
X0290644Y0209382D01*
X0290644Y0204307D02*
X0291430Y0203521D01*
X0291430Y0201948D01*
X0290644Y0201162D01*
X0287500Y0201162D01*
X0286714Y0216389D02*
X0286714Y0218746D01*
X0287500Y0219532D01*
X0288286Y0219532D01*
X0289072Y0218746D01*
X0289072Y0216389D01*
X0289072Y0218746D02*
X0289858Y0219532D01*
X0290644Y0219532D01*
X0291430Y0218746D01*
X0291430Y0216389D01*
X0286714Y0216389D01*
X0290644Y0221464D02*
X0289072Y0223036D01*
X0286714Y0223036D01*
X0289072Y0223036D02*
X0290644Y0224608D01*
X0291430Y0224608D01*
X0291430Y0221464D02*
X0290644Y0221464D01*
X0289072Y0226539D02*
X0289072Y0229683D01*
X0286714Y0231615D02*
X0291430Y0231615D01*
X0286714Y0234757D01*
X0291430Y0234757D01*
X0290644Y0236689D02*
X0287500Y0236689D01*
X0286714Y0237476D01*
X0286714Y0239048D01*
X0287500Y0239834D01*
X0289072Y0241765D02*
X0289072Y0244909D01*
X0289858Y0246840D02*
X0289072Y0247626D01*
X0289072Y0249198D01*
X0288286Y0249983D01*
X0287500Y0249983D01*
X0286714Y0249198D01*
X0286714Y0247626D01*
X0287500Y0246840D01*
X0289858Y0246840D02*
X0290644Y0246840D01*
X0291430Y0247626D01*
X0291430Y0249198D01*
X0290644Y0249983D01*
X0289858Y0251914D02*
X0291430Y0253487D01*
X0289858Y0255059D01*
X0286714Y0255059D01*
X0286714Y0251914D02*
X0289858Y0251914D01*
X0289072Y0251914D02*
X0289072Y0255059D01*
X0289072Y0262066D02*
X0289072Y0265210D01*
X0291430Y0264423D02*
X0289072Y0262066D01*
X0286714Y0264423D02*
X0291430Y0264423D01*
X0290644Y0269679D02*
X0291430Y0270465D01*
X0291430Y0272036D01*
X0290644Y0272822D01*
X0287500Y0269679D01*
X0286714Y0270465D01*
X0286714Y0272036D01*
X0287500Y0272822D01*
X0290644Y0272822D01*
X0290644Y0269679D02*
X0287500Y0269679D01*
X0287500Y0267927D02*
X0286714Y0267927D01*
X0286714Y0267140D01*
X0287500Y0267140D01*
X0287500Y0267927D01*
X0290644Y0239834D02*
X0291430Y0239048D01*
X0291430Y0237476D01*
X0290644Y0236689D01*
X0318213Y0262912D02*
X0322929Y0262912D01*
X0322929Y0265269D01*
X0322143Y0266056D01*
X0320571Y0266056D01*
X0319785Y0265269D01*
X0319785Y0262912D01*
X0320571Y0260980D02*
X0319785Y0260194D01*
X0319785Y0258622D01*
X0320571Y0257836D01*
X0322143Y0257836D01*
X0322929Y0258622D01*
X0322929Y0260194D01*
X0322143Y0260980D01*
X0320571Y0260980D01*
X0320571Y0255905D02*
X0319785Y0255119D01*
X0319785Y0253547D01*
X0320571Y0252761D01*
X0322143Y0252761D01*
X0322929Y0253547D01*
X0322929Y0255119D01*
X0322143Y0255905D01*
X0320571Y0255905D01*
X0319785Y0250830D02*
X0322143Y0250830D01*
X0322929Y0250044D01*
X0322929Y0248471D01*
X0322143Y0247685D01*
X0322929Y0245755D02*
X0322929Y0243397D01*
X0322143Y0242611D01*
X0320571Y0242611D01*
X0319785Y0243397D01*
X0319785Y0245755D01*
X0319785Y0247685D02*
X0324501Y0247685D01*
X0328053Y0244123D02*
X0328053Y0242551D01*
X0328839Y0241765D01*
X0328053Y0239834D02*
X0328053Y0236689D01*
X0331197Y0239834D01*
X0331982Y0239834D01*
X0332769Y0239048D01*
X0332769Y0237476D01*
X0331982Y0236689D01*
X0331982Y0234757D02*
X0328839Y0231615D01*
X0328053Y0232401D01*
X0328053Y0233971D01*
X0328839Y0234757D01*
X0331982Y0234757D01*
X0332769Y0233971D01*
X0332769Y0232401D01*
X0331982Y0231615D01*
X0328839Y0231615D01*
X0328053Y0229683D02*
X0328053Y0226539D01*
X0331197Y0229683D01*
X0331982Y0229683D01*
X0332769Y0228897D01*
X0332769Y0227325D01*
X0331982Y0226539D01*
X0331982Y0222070D02*
X0331197Y0222070D01*
X0330411Y0221285D01*
X0330411Y0219713D01*
X0331197Y0218927D01*
X0331982Y0218927D01*
X0332769Y0219713D01*
X0332769Y0221285D01*
X0331982Y0222070D01*
X0330411Y0221285D02*
X0329625Y0222070D01*
X0328839Y0222070D01*
X0328053Y0221285D01*
X0328053Y0219713D01*
X0328839Y0218927D01*
X0329625Y0218927D01*
X0330411Y0219713D01*
X0331982Y0216995D02*
X0328839Y0216995D01*
X0328053Y0216209D01*
X0328053Y0214637D01*
X0328839Y0213851D01*
X0331982Y0216995D01*
X0332769Y0216209D01*
X0332769Y0214637D01*
X0331982Y0213851D01*
X0328839Y0213851D01*
X0328839Y0212100D02*
X0328053Y0212100D01*
X0328053Y0211314D01*
X0328839Y0211314D01*
X0328839Y0212100D01*
X0328839Y0209382D02*
X0328053Y0208597D01*
X0328053Y0207025D01*
X0328839Y0206239D01*
X0328053Y0204307D02*
X0328053Y0201162D01*
X0328053Y0202735D02*
X0332769Y0202735D01*
X0331197Y0201162D01*
X0330411Y0206239D02*
X0331197Y0207811D01*
X0331197Y0208597D01*
X0330411Y0209382D01*
X0328839Y0209382D01*
X0330411Y0206239D02*
X0332769Y0206239D01*
X0332769Y0209382D01*
X0334749Y0206239D02*
X0339465Y0206239D01*
X0339465Y0208597D01*
X0338679Y0209382D01*
X0337107Y0209382D01*
X0336321Y0208597D01*
X0336321Y0206239D01*
X0337107Y0204307D02*
X0340251Y0204307D01*
X0341037Y0203521D01*
X0341037Y0201948D01*
X0340251Y0201162D01*
X0337107Y0201162D01*
X0336321Y0201948D01*
X0336321Y0203521D01*
X0337107Y0204307D01*
X0337107Y0211314D02*
X0336321Y0212100D01*
X0336321Y0213672D01*
X0337107Y0211314D02*
X0338679Y0211314D01*
X0339465Y0212100D01*
X0339465Y0213672D01*
X0338679Y0214458D01*
X0337893Y0214458D01*
X0337893Y0211314D01*
X0336321Y0216389D02*
X0339465Y0216389D01*
X0339465Y0218746D01*
X0338679Y0219532D01*
X0336321Y0219532D01*
X0336321Y0221464D02*
X0336321Y0223822D01*
X0337107Y0224608D01*
X0340251Y0224608D01*
X0341037Y0223822D01*
X0341037Y0221464D01*
X0336321Y0221464D01*
X0336321Y0228111D02*
X0341037Y0228111D01*
X0341037Y0226539D02*
X0341037Y0229683D01*
X0341037Y0231615D02*
X0337107Y0231615D01*
X0336321Y0232401D01*
X0336321Y0233971D01*
X0337107Y0234757D01*
X0341037Y0234757D01*
X0344587Y0234092D02*
X0344587Y0235664D01*
X0345374Y0236450D01*
X0344587Y0238382D02*
X0349304Y0238382D01*
X0347732Y0239953D01*
X0349304Y0241525D01*
X0344587Y0241525D01*
X0344587Y0245029D02*
X0349304Y0245029D01*
X0349304Y0243457D02*
X0349304Y0246600D01*
X0348518Y0248532D02*
X0349304Y0249318D01*
X0349304Y0250890D01*
X0348518Y0251676D01*
X0347732Y0251676D01*
X0344587Y0248532D01*
X0344587Y0251676D01*
X0345374Y0253607D02*
X0344587Y0254393D01*
X0344587Y0255965D01*
X0345374Y0256751D01*
X0346160Y0256751D01*
X0346946Y0255965D01*
X0346946Y0255179D01*
X0346946Y0255965D02*
X0347732Y0256751D01*
X0348518Y0256751D01*
X0349304Y0255965D01*
X0349304Y0254393D01*
X0348518Y0253607D01*
X0348518Y0258682D02*
X0349304Y0259468D01*
X0349304Y0261039D01*
X0348518Y0261825D01*
X0345374Y0258682D01*
X0344587Y0259468D01*
X0344587Y0261039D01*
X0345374Y0261825D01*
X0348518Y0261825D01*
X0348518Y0263757D02*
X0349304Y0264543D01*
X0349304Y0266115D01*
X0348518Y0266901D01*
X0345374Y0263757D01*
X0344587Y0264543D01*
X0344587Y0266115D01*
X0345374Y0266901D01*
X0348518Y0266901D01*
X0347732Y0269619D02*
X0347732Y0271191D01*
X0346946Y0271977D01*
X0344587Y0271977D01*
X0344587Y0269619D01*
X0345374Y0268833D01*
X0346160Y0269619D01*
X0346160Y0271977D01*
X0345374Y0263757D02*
X0348518Y0263757D01*
X0348518Y0258682D02*
X0345374Y0258682D01*
X0348518Y0236450D02*
X0349304Y0235664D01*
X0349304Y0234092D01*
X0348518Y0233306D01*
X0345374Y0233306D01*
X0344587Y0234092D01*
X0344587Y0226300D02*
X0347732Y0223156D01*
X0346946Y0221225D02*
X0346160Y0221225D01*
X0346160Y0218081D01*
X0345374Y0218081D02*
X0346946Y0218081D01*
X0347732Y0218867D01*
X0347732Y0220439D01*
X0346946Y0221225D01*
X0344587Y0218867D02*
X0345374Y0218081D01*
X0344587Y0218867D02*
X0344587Y0220439D01*
X0344587Y0223156D02*
X0347732Y0226300D01*
X0346946Y0216149D02*
X0344587Y0216149D01*
X0344587Y0214577D02*
X0346946Y0214577D01*
X0347732Y0215363D01*
X0346946Y0216149D01*
X0346946Y0214577D02*
X0347732Y0213791D01*
X0347732Y0213005D01*
X0344587Y0213005D01*
X0344587Y0211194D02*
X0344587Y0209622D01*
X0344587Y0210408D02*
X0347732Y0210408D01*
X0347732Y0209622D01*
X0349304Y0210408D02*
X0350090Y0210408D01*
X0349304Y0207025D02*
X0344587Y0207025D01*
X0344587Y0206239D02*
X0344587Y0207811D01*
X0345374Y0204307D02*
X0348518Y0204307D01*
X0349304Y0203521D01*
X0349304Y0201948D01*
X0348518Y0201162D01*
X0345374Y0201162D01*
X0344587Y0201948D01*
X0344587Y0203521D01*
X0345374Y0204307D01*
X0349304Y0206239D02*
X0349304Y0207025D01*
X0331982Y0241765D02*
X0332769Y0242551D01*
X0332769Y0244123D01*
X0331982Y0244909D01*
X0331197Y0244909D01*
X0330411Y0244123D01*
X0329625Y0244909D01*
X0328839Y0244909D01*
X0328053Y0244123D01*
X0330411Y0244123D02*
X0330411Y0243337D01*
X0324501Y0239894D02*
X0324501Y0238322D01*
X0323715Y0237536D01*
X0322929Y0237536D01*
X0322143Y0238322D01*
X0322143Y0239894D01*
X0321357Y0240680D01*
X0320571Y0240680D01*
X0319785Y0239894D01*
X0319785Y0238322D01*
X0320571Y0237536D01*
X0323715Y0240680D02*
X0324501Y0239894D01*
X0322143Y0230528D02*
X0319785Y0230528D01*
X0319785Y0227385D02*
X0322929Y0227385D01*
X0322929Y0229743D01*
X0322143Y0230528D01*
X0322143Y0225454D02*
X0319785Y0225454D01*
X0319785Y0223096D01*
X0320571Y0222310D01*
X0321357Y0223096D01*
X0321357Y0225454D01*
X0322143Y0225454D02*
X0322929Y0224668D01*
X0322929Y0223096D01*
X0322929Y0219713D02*
X0319785Y0219713D01*
X0319785Y0218927D02*
X0319785Y0220499D01*
X0322929Y0216269D02*
X0321357Y0214697D01*
X0320571Y0212766D02*
X0322143Y0212766D01*
X0322929Y0211980D01*
X0322929Y0210408D01*
X0322143Y0209622D01*
X0320571Y0209622D01*
X0319785Y0210408D01*
X0319785Y0211980D01*
X0320571Y0212766D01*
X0319785Y0214697D02*
X0322929Y0214697D01*
X0322929Y0216269D02*
X0322929Y0217055D01*
X0322929Y0218927D02*
X0322929Y0219713D01*
X0324501Y0219713D02*
X0325286Y0219713D01*
X0328053Y0224002D02*
X0328053Y0224788D01*
X0328839Y0224788D01*
X0328839Y0224002D01*
X0328053Y0224002D01*
X0324501Y0207025D02*
X0319785Y0207025D01*
X0319785Y0206239D02*
X0319785Y0207811D01*
X0322143Y0202735D02*
X0322143Y0201162D01*
X0319785Y0201162D02*
X0324501Y0201162D01*
X0324501Y0204307D01*
X0324501Y0206239D02*
X0324501Y0207025D01*
D70*
X0328314Y0266763D02*
X0339313Y0266763D01*
X0339374Y0266765D01*
X0339435Y0266770D01*
X0339494Y0266779D01*
X0339553Y0266792D01*
X0339612Y0266808D01*
X0339669Y0266828D01*
X0339724Y0266851D01*
X0339779Y0266878D01*
X0339831Y0266907D01*
X0339882Y0266940D01*
X0339931Y0266976D01*
X0339977Y0267014D01*
X0340021Y0267056D01*
X0340063Y0267100D01*
X0340101Y0267146D01*
X0340137Y0267195D01*
X0340170Y0267246D01*
X0340199Y0267297D01*
X0340225Y0267353D01*
X0340249Y0267408D01*
X0340269Y0267465D01*
X0340285Y0267524D01*
X0340298Y0267583D01*
X0340307Y0267642D01*
X0340312Y0267703D01*
X0340314Y0267763D01*
X0340314Y0273763D01*
X0340312Y0273823D01*
X0340307Y0273884D01*
X0340298Y0273943D01*
X0340285Y0274002D01*
X0340269Y0274061D01*
X0340249Y0274118D01*
X0340225Y0274173D01*
X0340199Y0274227D01*
X0340170Y0274280D01*
X0340137Y0274331D01*
X0340101Y0274380D01*
X0340063Y0274426D01*
X0340021Y0274470D01*
X0339977Y0274512D01*
X0339931Y0274550D01*
X0339882Y0274586D01*
X0339831Y0274619D01*
X0339779Y0274648D01*
X0339724Y0274675D01*
X0339669Y0274698D01*
X0339612Y0274718D01*
X0339553Y0274734D01*
X0339494Y0274747D01*
X0339435Y0274756D01*
X0339374Y0274761D01*
X0339313Y0274763D01*
X0328314Y0274763D01*
X0328254Y0274761D01*
X0328193Y0274756D01*
X0328134Y0274747D01*
X0328075Y0274734D01*
X0328016Y0274718D01*
X0327959Y0274698D01*
X0327904Y0274675D01*
X0327849Y0274648D01*
X0327797Y0274619D01*
X0327746Y0274586D01*
X0327697Y0274550D01*
X0327651Y0274512D01*
X0327607Y0274470D01*
X0327565Y0274426D01*
X0327527Y0274380D01*
X0327491Y0274331D01*
X0327458Y0274280D01*
X0327429Y0274227D01*
X0327402Y0274173D01*
X0327379Y0274118D01*
X0327359Y0274061D01*
X0327343Y0274002D01*
X0327330Y0273943D01*
X0327321Y0273884D01*
X0327316Y0273823D01*
X0327314Y0273763D01*
X0327314Y0267763D01*
X0327316Y0267703D01*
X0327321Y0267642D01*
X0327330Y0267583D01*
X0327343Y0267524D01*
X0327359Y0267465D01*
X0327379Y0267408D01*
X0327402Y0267353D01*
X0327429Y0267297D01*
X0327458Y0267246D01*
X0327491Y0267195D01*
X0327527Y0267146D01*
X0327565Y0267100D01*
X0327607Y0267056D01*
X0327651Y0267014D01*
X0327697Y0266976D01*
X0327746Y0266940D01*
X0327797Y0266907D01*
X0327849Y0266878D01*
X0327904Y0266851D01*
X0327959Y0266828D01*
X0328016Y0266808D01*
X0328075Y0266792D01*
X0328134Y0266779D01*
X0328193Y0266770D01*
X0328254Y0266765D01*
X0328314Y0266763D01*
X0312814Y0267763D02*
X0312814Y0273763D01*
X0312812Y0273823D01*
X0312807Y0273884D01*
X0312797Y0273943D01*
X0312785Y0274002D01*
X0312769Y0274061D01*
X0312749Y0274118D01*
X0312726Y0274173D01*
X0312699Y0274227D01*
X0312670Y0274280D01*
X0312637Y0274331D01*
X0312600Y0274380D01*
X0312563Y0274426D01*
X0312520Y0274470D01*
X0312476Y0274512D01*
X0312431Y0274550D01*
X0312381Y0274586D01*
X0312331Y0274619D01*
X0312279Y0274648D01*
X0312224Y0274675D01*
X0312169Y0274698D01*
X0312112Y0274718D01*
X0312053Y0274734D01*
X0311994Y0274747D01*
X0311935Y0274756D01*
X0311874Y0274761D01*
X0311814Y0274763D01*
X0300814Y0274763D01*
X0300754Y0274761D01*
X0300692Y0274756D01*
X0300633Y0274747D01*
X0300575Y0274734D01*
X0300516Y0274718D01*
X0300458Y0274698D01*
X0300404Y0274675D01*
X0300349Y0274648D01*
X0300297Y0274619D01*
X0300246Y0274586D01*
X0300196Y0274550D01*
X0300151Y0274512D01*
X0300107Y0274470D01*
X0300064Y0274426D01*
X0300027Y0274380D01*
X0299991Y0274331D01*
X0299958Y0274280D01*
X0299929Y0274227D01*
X0299902Y0274173D01*
X0299879Y0274118D01*
X0299859Y0274061D01*
X0299842Y0274002D01*
X0299830Y0273943D01*
X0299821Y0273884D01*
X0299816Y0273823D01*
X0299814Y0273763D01*
X0299814Y0267763D01*
X0299816Y0267703D01*
X0299821Y0267642D01*
X0299830Y0267583D01*
X0299842Y0267524D01*
X0299859Y0267465D01*
X0299879Y0267408D01*
X0299902Y0267353D01*
X0299929Y0267297D01*
X0299958Y0267246D01*
X0299991Y0267195D01*
X0300027Y0267146D01*
X0300064Y0267100D01*
X0300107Y0267056D01*
X0300151Y0267014D01*
X0300196Y0266976D01*
X0300246Y0266940D01*
X0300297Y0266907D01*
X0300349Y0266878D01*
X0300404Y0266851D01*
X0300458Y0266828D01*
X0300516Y0266808D01*
X0300575Y0266792D01*
X0300633Y0266779D01*
X0300692Y0266770D01*
X0300754Y0266765D01*
X0300814Y0266763D01*
X0311814Y0266763D01*
X0311874Y0266765D01*
X0311935Y0266770D01*
X0311994Y0266779D01*
X0312053Y0266792D01*
X0312112Y0266808D01*
X0312169Y0266828D01*
X0312224Y0266851D01*
X0312279Y0266878D01*
X0312331Y0266907D01*
X0312381Y0266940D01*
X0312431Y0266976D01*
X0312476Y0267014D01*
X0312520Y0267056D01*
X0312563Y0267100D01*
X0312600Y0267146D01*
X0312637Y0267195D01*
X0312670Y0267246D01*
X0312699Y0267297D01*
X0312726Y0267353D01*
X0312749Y0267408D01*
X0312769Y0267465D01*
X0312785Y0267524D01*
X0312797Y0267583D01*
X0312807Y0267642D01*
X0312812Y0267703D01*
X0312814Y0267763D01*
X0344114Y0296252D02*
X0347049Y0299187D01*
X0346316Y0299187D02*
X0347049Y0298453D01*
X0347049Y0296986D01*
X0346316Y0296252D01*
X0344848Y0296252D01*
X0344114Y0296986D01*
X0344114Y0298453D01*
X0344848Y0299187D01*
X0346316Y0299187D01*
X0347049Y0300856D02*
X0348518Y0302322D01*
X0344114Y0302322D01*
X0344114Y0300856D02*
X0344114Y0303791D01*
X0344848Y0305459D02*
X0344114Y0306193D01*
X0344114Y0307661D01*
X0344848Y0308395D01*
X0347784Y0308395D01*
X0344848Y0305459D01*
X0347784Y0305459D01*
X0348518Y0306193D01*
X0348518Y0307661D01*
X0347784Y0308395D01*
D71*
X0339313Y0280017D02*
X0337812Y0280017D01*
X0337062Y0279267D01*
X0337062Y0277765D02*
X0338563Y0277765D01*
X0337062Y0276264D02*
X0337812Y0275513D01*
X0339313Y0275513D01*
X0340064Y0276264D01*
X0340064Y0279267D01*
X0339313Y0280017D01*
X0337062Y0277765D02*
X0337062Y0276264D01*
X0335460Y0275513D02*
X0335460Y0280017D01*
X0333209Y0280017D01*
X0332458Y0279267D01*
X0332458Y0277765D01*
X0333209Y0277015D01*
X0335460Y0277015D01*
X0330857Y0275513D02*
X0329355Y0275513D01*
X0330106Y0275513D02*
X0330106Y0280017D01*
X0330857Y0280017D02*
X0329355Y0280017D01*
X0327787Y0279267D02*
X0327787Y0276264D01*
X0327037Y0275513D01*
X0325535Y0275513D01*
X0324785Y0276264D01*
X0324785Y0279267D01*
X0325535Y0280017D01*
X0327037Y0280017D01*
X0327787Y0279267D01*
X0323183Y0279267D02*
X0322433Y0280017D01*
X0320931Y0280017D01*
X0320181Y0279267D01*
X0320181Y0278516D01*
X0320931Y0277765D01*
X0320181Y0277015D01*
X0320181Y0276264D01*
X0320931Y0275513D01*
X0322433Y0275513D01*
X0323183Y0276264D01*
X0321682Y0277765D02*
X0320931Y0277765D01*
X0312564Y0276264D02*
X0311814Y0275513D01*
X0310312Y0275513D01*
X0309562Y0276264D01*
X0309562Y0277765D01*
X0311063Y0277765D01*
X0312564Y0276264D02*
X0312564Y0279267D01*
X0311814Y0280017D01*
X0310312Y0280017D01*
X0309562Y0279267D01*
X0307960Y0280017D02*
X0307960Y0275513D01*
X0307960Y0277015D02*
X0305709Y0277015D01*
X0304958Y0277765D01*
X0304958Y0279267D01*
X0305709Y0280017D01*
X0307960Y0280017D01*
X0303357Y0280017D02*
X0301855Y0280017D01*
X0302606Y0280017D02*
X0302606Y0275513D01*
X0303357Y0275513D02*
X0301855Y0275513D01*
X0300287Y0276264D02*
X0300287Y0279267D01*
X0299537Y0280017D01*
X0298035Y0280017D01*
X0297285Y0279267D01*
X0297285Y0276264D01*
X0298035Y0275513D01*
X0299537Y0275513D01*
X0300287Y0276264D01*
X0295683Y0275513D02*
X0292681Y0278516D01*
X0292681Y0279267D01*
X0293430Y0280017D01*
X0294933Y0280017D01*
X0295683Y0279267D01*
X0295683Y0275513D02*
X0292681Y0275513D01*
D72*
X0321314Y0304963D02*
X0341314Y0304963D01*
X0341314Y0309463D01*
X0331314Y0309463D01*
X0321314Y0309463D01*
X0321314Y0304963D01*
X0323814Y0311763D02*
X0323814Y0316763D01*
X0321314Y0314263D02*
X0326314Y0314263D01*
X0331314Y0313263D02*
X0331314Y0309463D01*
X0331314Y0300763D02*
X0331314Y0293263D01*
D73*
X0311314Y0303263D02*
X0311320Y0303754D01*
X0311338Y0304244D01*
X0311368Y0304734D01*
X0311410Y0305223D01*
X0311464Y0305711D01*
X0311530Y0306198D01*
X0311608Y0306682D01*
X0311698Y0307165D01*
X0311800Y0307645D01*
X0311913Y0308123D01*
X0312038Y0308597D01*
X0312175Y0309069D01*
X0312323Y0309537D01*
X0312483Y0310001D01*
X0312654Y0310461D01*
X0312836Y0310917D01*
X0313030Y0311368D01*
X0313234Y0311814D01*
X0313450Y0312255D01*
X0313676Y0312691D01*
X0313912Y0313121D01*
X0314159Y0313545D01*
X0314417Y0313963D01*
X0314685Y0314374D01*
X0314962Y0314778D01*
X0315250Y0315177D01*
X0315547Y0315568D01*
X0315854Y0315951D01*
X0316170Y0316326D01*
X0316495Y0316694D01*
X0316829Y0317054D01*
X0317172Y0317405D01*
X0317523Y0317748D01*
X0317883Y0318082D01*
X0318251Y0318407D01*
X0318626Y0318723D01*
X0319009Y0319030D01*
X0319400Y0319326D01*
X0319798Y0319615D01*
X0320203Y0319892D01*
X0320614Y0320160D01*
X0321032Y0320418D01*
X0321456Y0320664D01*
X0321886Y0320901D01*
X0322322Y0321127D01*
X0322763Y0321343D01*
X0323209Y0321547D01*
X0323659Y0321741D01*
X0324116Y0321923D01*
X0324576Y0322094D01*
X0325040Y0322254D01*
X0325508Y0322402D01*
X0325980Y0322539D01*
X0326454Y0322664D01*
X0326932Y0322777D01*
X0327412Y0322879D01*
X0327895Y0322969D01*
X0328379Y0323046D01*
X0328866Y0323113D01*
X0329354Y0323167D01*
X0329843Y0323209D01*
X0330333Y0323239D01*
X0330823Y0323257D01*
X0331314Y0323263D01*
X0331805Y0323257D01*
X0332295Y0323239D01*
X0332785Y0323209D01*
X0333273Y0323167D01*
X0333762Y0323113D01*
X0334249Y0323046D01*
X0334732Y0322969D01*
X0335216Y0322879D01*
X0335695Y0322777D01*
X0336174Y0322664D01*
X0336647Y0322539D01*
X0337120Y0322402D01*
X0337588Y0322254D01*
X0338052Y0322094D01*
X0338511Y0321923D01*
X0338968Y0321741D01*
X0339419Y0321547D01*
X0339865Y0321343D01*
X0340305Y0321127D01*
X0340742Y0320901D01*
X0341172Y0320664D01*
X0341596Y0320418D01*
X0342014Y0320160D01*
X0342424Y0319892D01*
X0342830Y0319615D01*
X0343228Y0319326D01*
X0343619Y0319030D01*
X0344002Y0318723D01*
X0344377Y0318407D01*
X0344745Y0318082D01*
X0345105Y0317748D01*
X0345455Y0317405D01*
X0345799Y0317054D01*
X0346133Y0316694D01*
X0346458Y0316326D01*
X0346774Y0315951D01*
X0347081Y0315568D01*
X0347378Y0315177D01*
X0347666Y0314778D01*
X0347943Y0314374D01*
X0348211Y0313963D01*
X0348468Y0313545D01*
X0348716Y0313121D01*
X0348952Y0312691D01*
X0349178Y0312255D01*
X0349394Y0311814D01*
X0349598Y0311368D01*
X0349792Y0310917D01*
X0349974Y0310461D01*
X0350145Y0310001D01*
X0350305Y0309537D01*
X0350452Y0309069D01*
X0350590Y0308597D01*
X0350715Y0308123D01*
X0350828Y0307645D01*
X0350930Y0307165D01*
X0351020Y0306682D01*
X0351098Y0306198D01*
X0351163Y0305711D01*
X0351218Y0305223D01*
X0351260Y0304734D01*
X0351290Y0304244D01*
X0351308Y0303754D01*
X0351314Y0303263D01*
X0351308Y0302772D01*
X0351290Y0302282D01*
X0351260Y0301792D01*
X0351218Y0301303D01*
X0351163Y0300815D01*
X0351098Y0300328D01*
X0351020Y0299844D01*
X0350930Y0299361D01*
X0350828Y0298881D01*
X0350715Y0298403D01*
X0350590Y0297929D01*
X0350452Y0297457D01*
X0350305Y0296989D01*
X0350145Y0296525D01*
X0349974Y0296065D01*
X0349792Y0295609D01*
X0349598Y0295158D01*
X0349394Y0294712D01*
X0349178Y0294271D01*
X0348952Y0293835D01*
X0348716Y0293405D01*
X0348468Y0292981D01*
X0348211Y0292562D01*
X0347943Y0292152D01*
X0347666Y0291747D01*
X0347378Y0291349D01*
X0347081Y0290958D01*
X0346774Y0290574D01*
X0346458Y0290200D01*
X0346133Y0289832D01*
X0345799Y0289472D01*
X0345455Y0289121D01*
X0345105Y0288778D01*
X0344745Y0288444D01*
X0344377Y0288119D01*
X0344002Y0287802D01*
X0343619Y0287496D01*
X0343228Y0287199D01*
X0342830Y0286911D01*
X0342424Y0286634D01*
X0342014Y0286365D01*
X0341596Y0286108D01*
X0341172Y0285861D01*
X0340742Y0285625D01*
X0340305Y0285399D01*
X0339865Y0285183D01*
X0339419Y0284979D01*
X0338968Y0284785D01*
X0338511Y0284603D01*
X0338052Y0284432D01*
X0337588Y0284272D01*
X0337120Y0284124D01*
X0336647Y0283987D01*
X0336174Y0283862D01*
X0335695Y0283749D01*
X0335216Y0283647D01*
X0334732Y0283557D01*
X0334249Y0283479D01*
X0333762Y0283413D01*
X0333273Y0283359D01*
X0332785Y0283316D01*
X0332295Y0283287D01*
X0331805Y0283269D01*
X0331314Y0283263D01*
X0330823Y0283269D01*
X0330333Y0283287D01*
X0329843Y0283316D01*
X0329354Y0283359D01*
X0328866Y0283413D01*
X0328379Y0283479D01*
X0327895Y0283557D01*
X0327412Y0283647D01*
X0326932Y0283749D01*
X0326454Y0283862D01*
X0325980Y0283987D01*
X0325508Y0284124D01*
X0325040Y0284272D01*
X0324576Y0284432D01*
X0324116Y0284603D01*
X0323659Y0284785D01*
X0323209Y0284979D01*
X0322763Y0285183D01*
X0322322Y0285399D01*
X0321886Y0285625D01*
X0321456Y0285861D01*
X0321032Y0286108D01*
X0320614Y0286365D01*
X0320203Y0286634D01*
X0319798Y0286911D01*
X0319400Y0287199D01*
X0319009Y0287496D01*
X0318626Y0287802D01*
X0318251Y0288119D01*
X0317883Y0288444D01*
X0317523Y0288778D01*
X0317172Y0289121D01*
X0316829Y0289472D01*
X0316495Y0289832D01*
X0316170Y0290200D01*
X0315854Y0290574D01*
X0315547Y0290958D01*
X0315250Y0291349D01*
X0314962Y0291747D01*
X0314685Y0292152D01*
X0314417Y0292562D01*
X0314159Y0292981D01*
X0313912Y0293405D01*
X0313676Y0293835D01*
X0313450Y0294271D01*
X0313234Y0294712D01*
X0313030Y0295158D01*
X0312836Y0295609D01*
X0312654Y0296065D01*
X0312483Y0296525D01*
X0312323Y0296989D01*
X0312175Y0297457D01*
X0312038Y0297929D01*
X0311913Y0298403D01*
X0311800Y0298881D01*
X0311698Y0299361D01*
X0311608Y0299844D01*
X0311530Y0300328D01*
X0311464Y0300815D01*
X0311410Y0301303D01*
X0311368Y0301792D01*
X0311338Y0302282D01*
X0311320Y0302772D01*
X0311314Y0303263D01*
D74*
X0308470Y0303775D02*
X0308470Y0301673D01*
X0307419Y0300622D01*
X0303215Y0300622D01*
X0302164Y0301673D01*
X0302164Y0303775D01*
X0303215Y0304826D01*
X0302164Y0307067D02*
X0302164Y0311271D01*
X0302164Y0309170D02*
X0308470Y0309170D01*
X0306368Y0307067D01*
X0307419Y0304826D02*
X0308470Y0303775D01*
D75*
X0331314Y0299463D03*
M02*